<svg width="15" height="22" viewBox="0 0 15 22" fill="none" xmlns="http://www.w3.org/2000/svg">
<path d="M7.5 0C3.35357 0 0 3.35357 0 7.5C0 13.125 7.5 21.4286 7.5 21.4286C7.5 21.4286 15 13.125 15 7.5C15 3.35357 11.6464 0 7.5 0ZM7.5 10.1786C6.7896 10.1786 6.10829 9.89637 5.60596 9.39404C5.10363 8.89171 4.82143 8.2104 4.82143 7.5C4.82143 6.7896 5.10363 6.10829 5.60596 5.60596C6.10829 5.10363 6.7896 4.82143 7.5 4.82143C8.2104 4.82143 8.89171 5.10363 9.39404 5.60596C9.89637 6.10829 10.1786 6.7896 10.1786 7.5C10.1786 8.2104 9.89637 8.89171 9.39404 9.39404C8.89171 9.89637 8.2104 10.1786 7.5 10.1786Z" fill="url(#paint0_linear_1049_42220)"/>
<defs>
<linearGradient id="paint0_linear_1049_42220" x1="7.5" y1="0" x2="7.5" y2="21.4286" gradientUnits="userSpaceOnUse">
<stop stop-color="#4D89D4"/>
<stop offset="1" stop-color="#216BC9"/>
</linearGradient>
</defs>
</svg>
