<svg width="20" height="20" viewBox="0 0 20 20" fill="none" xmlns="http://www.w3.org/2000/svg">
<circle cx="10" cy="10" r="10" fill="url(#paint0_linear_1049_42249)"/>
<path d="M8.80256 12.2812V12.1705C8.8054 11.6563 8.85369 11.2472 8.94744 10.9432C9.04403 10.6392 9.1804 10.3949 9.35653 10.2102C9.53267 10.0227 9.74716 9.85085 10 9.6946C10.1733 9.58665 10.3281 9.46875 10.4645 9.34091C10.6037 9.21023 10.7131 9.06534 10.7926 8.90625C10.8722 8.74432 10.9119 8.56392 10.9119 8.36506C10.9119 8.14063 10.8594 7.94602 10.7543 7.78125C10.6491 7.61648 10.5071 7.48864 10.3281 7.39773C10.152 7.30682 9.95455 7.26136 9.7358 7.26136C9.53409 7.26136 9.34233 7.3054 9.16051 7.39347C8.98153 7.47869 8.83239 7.60938 8.71307 7.78551C8.59659 7.95881 8.53125 8.17898 8.51705 8.44602H7C7.0142 7.90625 7.14489 7.45455 7.39205 7.09091C7.64205 6.72727 7.97159 6.45455 8.38068 6.27273C8.79261 6.09091 9.24716 6 9.74432 6C10.2869 6 10.7642 6.09517 11.1761 6.28551C11.5909 6.47585 11.9134 6.74716 12.1435 7.09943C12.3764 7.44886 12.4929 7.86364 12.4929 8.34375C12.4929 8.66761 12.4403 8.95739 12.3352 9.21307C12.233 9.46875 12.0866 9.69602 11.8963 9.89489C11.706 10.0938 11.4801 10.2713 11.2188 10.4276C10.9886 10.5696 10.7997 10.7173 10.652 10.8707C10.5071 11.0241 10.3991 11.2045 10.3281 11.4119C10.2599 11.6165 10.2244 11.8693 10.2216 12.1705V12.2812H8.80256ZM9.54403 14.9403C9.28835 14.9403 9.06818 14.8494 8.88352 14.6676C8.69886 14.4858 8.60653 14.2642 8.60653 14.0028C8.60653 13.7472 8.69886 13.5284 8.88352 13.3466C9.06818 13.1648 9.28835 13.0739 9.54403 13.0739C9.79688 13.0739 10.0156 13.1648 10.2003 13.3466C10.3878 13.5284 10.4815 13.7472 10.4815 14.0028C10.4815 14.1761 10.4375 14.3338 10.3494 14.4759C10.2642 14.6179 10.1506 14.7315 10.0085 14.8168C9.86932 14.8991 9.71449 14.9403 9.54403 14.9403Z" fill="#FFCA08"/>
<defs>
<linearGradient id="paint0_linear_1049_42249" x1="10" y1="0" x2="10" y2="20" gradientUnits="userSpaceOnUse">
<stop stop-color="#4D89D4"/>
<stop offset="1" stop-color="#216BC9"/>
</linearGradient>
</defs>
</svg>
