<svg width="19" height="19" viewBox="0 0 19 19" fill="none" xmlns="http://www.w3.org/2000/svg">
<rect y="17" width="13" height="2" rx="1" fill="#FFCA08"/>
<path fill-rule="evenodd" clip-rule="evenodd" d="M2 0C0.895431 0 0 0.89543 0 2V14C0 15.1046 0.895432 16 2 16H10.8C11.9046 16 12.8 15.1046 12.8 14V8.71749H16.5371L14.5056 10.7444C14.3613 10.8879 14.2863 11.0613 14.2805 11.2646C14.2748 11.4679 14.3438 11.6413 14.4876 11.7848C14.6319 11.9283 14.8028 12 15.0004 12C15.1979 12 15.3625 11.9342 15.4944 11.8027L18.8022 8.50224C18.8737 8.43049 18.9245 8.35277 18.9547 8.26906C18.9849 8.18535 19 8.09566 19 8C19.0005 7.90434 18.9856 7.81465 18.9554 7.73094C18.9252 7.64723 18.8741 7.56951 18.8022 7.49776L15.5124 4.21525C15.369 4.07175 15.1983 4 15.0004 4C14.8024 4 14.6315 4.07175 14.4876 4.21525C14.3438 4.35827 14.2719 4.52855 14.2719 4.7261C14.2719 4.92365 14.3438 5.09417 14.4876 5.23767L16.5371 7.28251H12.8V2C12.8 0.895431 11.9046 0 10.8 0H2ZM12.8 7.28251H8.51911C8.31584 7.28203 8.14517 7.35067 8.00711 7.48843C7.86904 7.62619 7.80001 7.79671 7.80001 8C7.79953 8.20281 7.86832 8.37309 8.00639 8.51085C8.14445 8.64861 8.31536 8.71749 8.51911 8.71749H12.8V7.28251Z" fill="url(#paint0_linear_1049_42259)"/>
<defs>
<linearGradient id="paint0_linear_1049_42259" x1="9.5" y1="0" x2="9.5" y2="16" gradientUnits="userSpaceOnUse">
<stop stop-color="#4D89D4"/>
<stop offset="1" stop-color="#216BC9"/>
</linearGradient>
</defs>
</svg>
