<svg width="21" height="21" viewBox="0 0 21 21" fill="none" xmlns="http://www.w3.org/2000/svg">
<path fill-rule="evenodd" clip-rule="evenodd" d="M2.2565 6.165C2.2565 6.69543 2.04579 7.20414 1.67072 7.57921L0.585786 8.66414C-0.195263 9.44519 -0.195262 10.7115 0.585787 11.4926L1.67072 12.5775C2.04579 12.9526 2.2565 13.4613 2.2565 13.9917V15.6809C2.2565 16.7854 3.15193 17.6809 4.2565 17.6809H5.94566C6.4761 17.6809 6.9848 17.8916 7.35988 18.2667L8.66414 19.5709C9.44519 20.352 10.7115 20.352 11.4926 19.5709L12.7968 18.2667C13.1719 17.8916 13.6806 17.6809 14.2111 17.6809H15.681C16.7856 17.6809 17.681 16.7854 17.681 15.6809V14.2109C17.681 13.6805 17.8917 13.1718 18.2668 12.7967L19.5709 11.4926C20.352 10.7115 20.352 9.44519 19.5709 8.66414L18.2668 7.36003C17.8917 6.98496 17.681 6.47625 17.681 5.94582V4.25635C17.681 3.15178 16.7856 2.25635 15.681 2.25635H13.9916C13.4611 2.25635 12.9524 2.04564 12.5773 1.67056L11.4926 0.585786C10.7115 -0.195262 9.44519 -0.195262 8.66414 0.585787L7.57937 1.67056C7.20429 2.04564 6.69559 2.25635 6.16515 2.25635H4.2565C3.15193 2.25635 2.2565 3.15178 2.2565 4.25635V6.165Z" fill="url(#paint0_linear_1049_42193)"/>
<defs>
<linearGradient id="paint0_linear_1049_42193" x1="10.0784" y1="0" x2="10.0784" y2="20.1567" gradientUnits="userSpaceOnUse">
<stop stop-color="#4D89D4"/>
<stop offset="1" stop-color="#216BC9"/>
</linearGradient>
</defs>
</svg>
