<svg width="12" height="15" viewBox="0 0 12 15" fill="none" xmlns="http://www.w3.org/2000/svg">
<path fill-rule="evenodd" clip-rule="evenodd" d="M9 2.7085V2.85143C9.81788 2.92622 10.6324 3.03376 11.4417 3.1738C11.5028 3.18438 11.5612 3.20689 11.6136 3.24006C11.666 3.27322 11.7114 3.31637 11.7471 3.36706C11.7828 3.41776 11.8082 3.47499 11.8218 3.53549C11.8354 3.59599 11.837 3.65858 11.8264 3.71968C11.8158 3.78079 11.7933 3.83921 11.7601 3.89161C11.727 3.94401 11.6838 3.98937 11.6331 4.02509C11.5824 4.06082 11.5252 4.0862 11.4647 4.09981C11.4042 4.11342 11.3416 4.11497 11.2805 4.10439L11.1489 4.08235L10.5161 12.3116C10.4797 12.7861 10.2654 13.2293 9.91628 13.5527C9.56714 13.876 9.1088 14.0557 8.63293 14.0557H3.70104C3.22516 14.0557 2.76683 13.876 2.41768 13.5527C2.06853 13.2293 1.8543 12.7861 1.81782 12.3116L1.18441 4.08235L1.05282 4.10439C0.991715 4.11497 0.929125 4.11342 0.868623 4.09981C0.80812 4.0862 0.75089 4.06082 0.7002 4.02509C0.597826 3.95295 0.528304 3.84309 0.50693 3.71968C0.485556 3.59628 0.514079 3.46944 0.586225 3.36706C0.65837 3.26469 0.768229 3.19517 0.891634 3.1738C1.70088 3.03359 2.51544 2.92605 3.33334 2.85143V2.7085C3.33334 1.72376 4.09708 0.882574 5.10637 0.850463C5.81326 0.82784 6.5207 0.82784 7.22759 0.850463C8.23689 0.882574 9 1.72376 9 2.7085ZM5.13659 1.79428C5.82334 1.77231 6.51062 1.77231 7.19737 1.79428C7.67148 1.80939 8.05556 2.20857 8.05556 2.7085V2.77965C6.79746 2.70324 5.53588 2.70324 4.27778 2.77965V2.7085C4.27778 2.20857 4.66122 1.80939 5.13659 1.79428ZM4.91308 5.53742C4.91068 5.47541 4.89609 5.41448 4.87014 5.3581C4.8442 5.30173 4.8074 5.25101 4.76185 5.20886C4.71631 5.16671 4.66291 5.13394 4.6047 5.11242C4.54649 5.0909 4.48461 5.08106 4.42259 5.08346C4.36058 5.08586 4.29965 5.10045 4.24327 5.12639C4.1869 5.15234 4.13619 5.18914 4.09403 5.23468C4.05188 5.28023 4.01911 5.33363 3.99759 5.39184C3.97607 5.45005 3.96623 5.51193 3.96863 5.57394L4.18711 11.2406C4.19196 11.3658 4.24632 11.4839 4.33824 11.5689C4.38376 11.6111 4.43713 11.6438 4.4953 11.6653C4.55347 11.6868 4.61531 11.6967 4.67728 11.6943C4.73925 11.6919 4.80014 11.6773 4.85648 11.6513C4.91282 11.6254 4.9635 11.5886 5.00562 11.5431C5.04775 11.4976 5.08049 11.4442 5.10199 11.3861C5.12349 11.3279 5.13333 11.2661 5.13093 11.2041L4.91308 5.53742ZM8.36344 5.57394C8.36806 5.51074 8.35991 5.44725 8.33947 5.38726C8.31904 5.32728 8.28673 5.27202 8.24449 5.22478C8.20225 5.17754 8.15093 5.13928 8.09359 5.11229C8.03626 5.0853 7.97407 5.07013 7.91075 5.06768C7.84742 5.06522 7.78425 5.07554 7.725 5.09802C7.66575 5.12049 7.61162 5.15467 7.56585 5.1985C7.52009 5.24233 7.48361 5.29493 7.45859 5.35316C7.43358 5.41139 7.42054 5.47405 7.42026 5.53742L7.20178 11.2041C7.19694 11.3293 7.24204 11.4514 7.32718 11.5433C7.41231 11.6353 7.5305 11.6897 7.65574 11.6946C7.78098 11.6994 7.90302 11.6543 7.995 11.5692C8.08698 11.484 8.14138 11.3658 8.14622 11.2406L8.36344 5.57394Z" fill="url(#paint0_linear_1947_27232)"/>
<defs>
<linearGradient id="paint0_linear_1947_27232" x1="6.16667" y1="0.833496" x2="6.16667" y2="14.0557" gradientUnits="userSpaceOnUse">
<stop stop-color="#4D89D4"/>
<stop offset="1" stop-color="#216BC9"/>
</linearGradient>
</defs>
</svg>
