<svg width="22" height="22" viewBox="0 0 22 22" fill="none" xmlns="http://www.w3.org/2000/svg">
<path d="M1.31812 5.58903H20.6822L17.5852 1.05335C17.4524 0.836701 17.2713 0.657759 17.0577 0.53222C16.8442 0.406681 16.6047 0.338381 16.3603 0.333313L5.63508 0.333313C5.3958 0.343433 5.16233 0.414129 4.95435 0.539441C4.74638 0.664753 4.57 0.841008 4.44007 1.05335L1.31812 5.58903Z" fill="url(#paint0_linear_290_1467)"/>
<path d="M2.63086 10.8447V19.5938H13.0737V15.737C13.0607 15.4739 13.0992 15.2109 13.1869 14.9638C13.2746 14.7168 13.4096 14.4909 13.5838 14.2999C13.7581 14.1089 13.9678 13.9568 14.2003 13.8529C14.4327 13.7489 14.6831 13.6954 14.9361 13.6954C15.1891 13.6954 15.4394 13.7489 15.6719 13.8529C15.9043 13.9568 16.1141 14.1089 16.2883 14.2999C16.4625 14.4909 16.5976 14.7168 16.6853 14.9638C16.773 15.2109 16.8114 15.4739 16.7984 15.737V19.6042H19.0411V10.8447H2.63086Z" fill="url(#paint1_linear_290_1467)"/>
<path d="M19.0434 12.5966C18.6946 12.5966 18.3601 12.4408 18.1134 12.1634C17.8668 11.886 17.7282 11.5098 17.7282 11.1176V7.69128H20.3539V11.1229C20.3526 11.5133 20.2142 11.8874 19.9687 12.1634C19.7232 12.4395 19.3906 12.5952 19.0434 12.5966Z" fill="#104B97"/>
<path d="M16.4274 12.5966C16.076 12.5966 15.7391 12.4408 15.4906 12.1634C15.2422 11.886 15.1026 11.5098 15.1026 11.1176V7.69128H17.7283V11.1229C17.7271 11.5097 17.5902 11.8805 17.3471 12.156C17.1039 12.4315 16.7737 12.5897 16.4274 12.5966Z" fill="#FFCA08"/>
<path d="M13.6416 12.5964C13.4472 12.5999 13.2541 12.5644 13.0735 12.4919C12.8929 12.4194 12.7284 12.3114 12.5895 12.1741C12.4506 12.0368 12.3401 11.8731 12.2644 11.6923C12.1888 11.5115 12.1495 11.3174 12.1488 11.1211V7.69128H15.1027V11.1211C15.1013 11.512 14.9469 11.8864 14.6732 12.1627C14.3995 12.4391 14.0286 12.595 13.6416 12.5964Z" fill="#104B97"/>
<path d="M10.8359 12.5966C10.6635 12.5966 10.4927 12.5584 10.3335 12.484C10.1742 12.4097 10.0295 12.3008 9.90756 12.1634C9.78565 12.0261 9.68895 11.863 9.62297 11.6836C9.557 11.5041 9.52304 11.3118 9.52304 11.1176V7.69128H12.1487V11.1229C12.1474 11.5142 12.0086 11.8891 11.7625 12.1653C11.5164 12.4415 11.1832 12.5966 10.8359 12.5966Z" fill="#FFCA08"/>
<path d="M8.21262 12.5966C7.86381 12.5966 7.52928 12.4408 7.28264 12.1634C7.03599 11.886 6.89743 11.5098 6.89743 11.1176V7.69128H9.52307V11.1229C9.52182 11.5133 9.38336 11.8874 9.13787 12.1634C8.89238 12.4395 8.55979 12.5952 8.21262 12.5966Z" fill="#104B97"/>
<path d="M5.58464 12.5966C5.23646 12.5966 4.90254 12.4408 4.65634 12.1634C4.41013 11.886 4.27182 11.5098 4.27182 11.1176V7.69128H6.89746L6.89746 11.1229C6.89621 11.5142 6.75735 11.8891 6.51128 12.1653C6.26521 12.4415 5.93201 12.5966 5.58464 12.5966Z" fill="#FFCA08"/>
<path d="M2.78438 12.5965C2.39547 12.5965 2.02249 12.4406 1.7475 12.1633C1.4725 11.8859 1.318 11.5097 1.318 11.1175L1.318 7.69128H4.27185L4.27185 11.1228C4.27117 11.3184 4.23204 11.5119 4.15672 11.6921C4.0814 11.8723 3.97139 12.0357 3.83305 12.1727C3.69472 12.3098 3.5308 12.4178 3.3508 12.4905C3.17079 12.5633 2.97827 12.5993 2.78438 12.5965Z" fill="#104B97"/>
<path d="M1.31313 7.69116L20.687 7.69116C21.2281 7.69116 21.6667 7.22172 21.6667 6.64264V6.6374C21.6667 6.05831 21.2281 5.58888 20.687 5.58888L1.31313 5.58888C0.772049 5.58888 0.333414 6.05831 0.333414 6.6374V6.64264C0.333414 7.22172 0.772049 7.69116 1.31313 7.69116Z" fill="url(#paint2_linear_290_1467)"/>
<path d="M1.31313 21.7065L20.687 21.7065C21.2281 21.7065 21.6667 21.237 21.6667 20.658V20.6527C21.6667 20.0736 21.2281 19.6042 20.687 19.6042L1.31313 19.6042C0.772049 19.6042 0.333414 20.0736 0.333414 20.6527V20.658C0.333414 21.237 0.772049 21.7065 1.31313 21.7065Z" fill="url(#paint3_linear_290_1467)"/>
<defs>
<linearGradient id="paint0_linear_290_1467" x1="11.9387" y1="9.9723" x2="7.22704" y2="-9.85873" gradientUnits="userSpaceOnUse">
<stop offset="0.03" stop-color="#104B97"/>
<stop offset="0.12" stop-color="#124E9C"/>
<stop offset="0.22" stop-color="#1758AA"/>
<stop offset="0.33" stop-color="#1F69C0"/>
<stop offset="0.43" stop-color="#297EDE"/>
</linearGradient>
<linearGradient id="paint1_linear_290_1467" x1="12.7903" y1="24.3619" x2="6.17161" y2="-3.8941" gradientUnits="userSpaceOnUse">
<stop offset="0.03" stop-color="#297EDE"/>
<stop offset="0.24" stop-color="#277AD9"/>
<stop offset="0.49" stop-color="#2270CB"/>
<stop offset="0.75" stop-color="#1A5FB3"/>
<stop offset="0.99" stop-color="#104B97"/>
</linearGradient>
<linearGradient id="paint2_linear_290_1467" x1="12.041" y1="11.5864" x2="8.3692" y2="-3.67291" gradientUnits="userSpaceOnUse">
<stop offset="0.03" stop-color="#104B97"/>
<stop offset="0.12" stop-color="#124E9C"/>
<stop offset="0.22" stop-color="#1758AA"/>
<stop offset="0.33" stop-color="#1F69C0"/>
<stop offset="0.43" stop-color="#297EDE"/>
</linearGradient>
<linearGradient id="paint3_linear_290_1467" x1="12.041" y1="25.6017" x2="8.3692" y2="10.3424" gradientUnits="userSpaceOnUse">
<stop offset="0.03" stop-color="#104B97"/>
<stop offset="0.12" stop-color="#124E9C"/>
<stop offset="0.22" stop-color="#1758AA"/>
<stop offset="0.33" stop-color="#1F69C0"/>
<stop offset="0.43" stop-color="#297EDE"/>
</linearGradient>
</defs>
</svg>
