<svg width="18" height="18" viewBox="0 0 18 18" fill="none" xmlns="http://www.w3.org/2000/svg">
<path d="M6.47096 8.64678C6.47104 10.7629 5.93385 12.8445 4.90974 14.6963C4.84855 14.8067 4.76621 14.904 4.66743 14.9826C4.56865 15.0611 4.45536 15.1195 4.33403 15.1543C4.2127 15.1891 4.0857 15.1996 3.96029 15.1853C3.83488 15.1711 3.71351 15.1322 3.60311 15.071C3.38016 14.9474 3.21542 14.7403 3.14516 14.4953C3.11036 14.374 3.09981 14.247 3.11409 14.1216C3.12838 13.9962 3.16723 13.8748 3.22842 13.7644C4.09511 12.1979 4.54967 10.437 4.54945 8.64678C4.54954 7.7224 4.81633 6.81768 5.31781 6.04115C5.81929 5.26463 6.53416 4.64928 7.37667 4.26894C8.21917 3.88859 9.15352 3.75941 10.0676 3.89688C10.9817 4.03435 11.8367 4.43263 12.5301 5.04396C12.6247 5.12744 12.702 5.22874 12.7575 5.34208C12.8129 5.45542 12.8456 5.57857 12.8534 5.70451C12.8613 5.83045 12.8443 5.95671 12.8034 6.07608C12.7625 6.19545 12.6985 6.30559 12.615 6.40022C12.5315 6.49485 12.4302 6.5721 12.3169 6.62758C12.2035 6.68305 12.0804 6.71566 11.9544 6.72354C11.8285 6.73142 11.7022 6.71442 11.5829 6.67351C11.4635 6.63259 11.3533 6.56857 11.2587 6.48509C10.8427 6.1185 10.3297 5.8797 9.78137 5.79733C9.23301 5.71496 8.67254 5.79252 8.16716 6.0207C7.66178 6.24888 7.23294 6.618 6.93209 7.08379C6.63123 7.54958 6.47112 8.09227 6.47096 8.64678ZM13.209 8.00628H13.1962C12.9442 8.00624 12.7022 8.10526 12.5225 8.28199C12.3428 8.45872 12.2397 8.699 12.2355 8.95102C12.2017 11.2276 11.74 13.4775 10.8744 15.5834C10.8233 15.7006 10.7962 15.8268 10.7945 15.9547C10.7928 16.0825 10.8166 16.2094 10.8646 16.3279C10.9126 16.4464 10.9837 16.5541 11.0739 16.6447C11.164 16.7354 11.2713 16.8071 11.3896 16.8558C11.5078 16.9044 11.6345 16.929 11.7624 16.928C11.8902 16.9271 12.0166 16.9006 12.1341 16.8502C12.2515 16.7998 12.3578 16.7264 12.4465 16.6344C12.5353 16.5424 12.6048 16.4336 12.651 16.3144C13.6087 13.9868 14.1196 11.4997 14.157 8.98304C14.1591 8.85654 14.1362 8.73086 14.0896 8.61323C14.0431 8.49559 13.9737 8.38832 13.8855 8.29756C13.7974 8.2068 13.6922 8.13435 13.5759 8.08437C13.4597 8.03438 13.3348 8.00784 13.2082 8.00628H13.209ZM8.22754 14.5082C7.99876 14.3977 7.73554 14.3824 7.49547 14.4655C7.2554 14.5486 7.05803 14.7234 6.94653 14.9517C6.83685 15.1767 6.71836 15.4041 6.59586 15.6259C6.53472 15.7362 6.49592 15.8576 6.48169 15.983C6.46745 16.1084 6.47805 16.2354 6.51288 16.3566C6.54771 16.4779 6.60609 16.5912 6.68469 16.6899C6.76328 16.7887 6.86056 16.8709 6.97095 16.9321C7.08135 16.9932 7.20271 17.032 7.3281 17.0462C7.45349 17.0605 7.58046 17.0499 7.70175 17.0151C7.82304 16.9802 7.93629 16.9218 8.03502 16.8432C8.13375 16.7647 8.21604 16.6674 8.27718 16.557C8.41649 16.3056 8.55019 16.0486 8.67749 15.7924C8.73244 15.6785 8.76436 15.5549 8.77144 15.4287C8.77851 15.3024 8.7606 15.176 8.71872 15.0567C8.67685 14.9374 8.61183 14.8275 8.5274 14.7334C8.44298 14.6393 8.3408 14.5627 8.22674 14.5082H8.22754ZM9.35322 7.68603C9.09841 7.68603 8.85404 7.78725 8.67387 7.96743C8.49369 8.1476 8.39247 8.39197 8.39247 8.64678C8.39287 9.75885 8.26527 10.8673 8.01217 11.9502C7.95405 12.1982 7.99681 12.4591 8.13103 12.6756C8.26525 12.8921 8.47995 13.0464 8.72793 13.1047C8.80006 13.1218 8.87396 13.1304 8.9481 13.1303C9.16459 13.1301 9.37466 13.0567 9.54425 12.9221C9.71383 12.7876 9.833 12.5997 9.88244 12.3889C10.1697 11.1623 10.3145 9.9066 10.314 8.64678C10.314 8.39197 10.2128 8.1476 10.0326 7.96743C9.8524 7.78725 9.60803 7.68603 9.35322 7.68603ZM9.35322 2.66233e-06C8.4987 -0.00066789 7.64881 0.125332 6.83124 0.373896C6.71033 0.410695 6.59785 0.470949 6.50023 0.551217C6.4026 0.631485 6.32175 0.730196 6.26227 0.841714C6.20279 0.953232 6.16586 1.07537 6.15359 1.20116C6.14132 1.32695 6.15394 1.45393 6.19074 1.57484C6.26506 1.81903 6.43334 2.02369 6.65856 2.14381C6.77008 2.20329 6.89222 2.24022 7.01801 2.25249C7.1438 2.26476 7.27077 2.25214 7.39168 2.21534C8.39682 1.90991 9.4595 1.84401 10.4947 2.02293C11.5298 2.20185 12.5087 2.62062 13.353 3.24572C14.1974 3.87081 14.8836 4.68487 15.3569 5.62275C15.8301 6.56062 16.0773 7.59626 16.0785 8.64678C16.0792 10.2991 15.8955 11.9463 15.5309 13.5578C15.5029 13.6809 15.4995 13.8083 15.5208 13.9327C15.5421 14.057 15.5877 14.176 15.655 14.2828C15.7223 14.3896 15.8099 14.482 15.9129 14.5549C16.016 14.6278 16.1324 14.6796 16.2554 14.7075C16.3253 14.7237 16.3967 14.7318 16.4684 14.7316C16.6862 14.7315 16.8975 14.6575 17.0677 14.5216C17.2379 14.3858 17.3569 14.1961 17.4051 13.9838C17.801 12.2324 18.0006 10.4423 18 8.64678C17.9975 6.35429 17.0856 4.15643 15.4646 2.53539C13.8436 0.91436 11.6457 0.00254563 9.35322 2.66233e-06ZM4.58708 2.54119C4.49783 2.45163 4.39177 2.38056 4.27499 2.33207C4.1582 2.28358 4.033 2.25862 3.90655 2.25862C3.7801 2.25862 3.6549 2.28358 3.53812 2.33207C3.42133 2.38056 3.31527 2.45163 3.22602 2.54119C2.42405 3.34238 1.78854 4.29433 1.35612 5.34221C0.923691 6.3901 0.702892 7.51319 0.706442 8.64678C0.709047 9.61399 0.501145 10.5702 0.0971643 11.449C0.0410344 11.5641 0.00849253 11.6893 0.00145241 11.8172C-0.00558771 11.9451 0.013016 12.0731 0.0561696 12.1937C0.0993232 12.3143 0.166155 12.425 0.252736 12.5194C0.339316 12.6138 0.443897 12.6899 0.560327 12.7433C0.676757 12.7967 0.802687 12.8263 0.930709 12.8303C1.05873 12.8343 1.18626 12.8127 1.3058 12.7667C1.42534 12.7207 1.53448 12.6512 1.62679 12.5624C1.7191 12.4736 1.79273 12.3673 1.84333 12.2496C2.36302 11.1198 2.63075 9.89041 2.62795 8.64678C2.62545 7.76525 2.7975 6.89194 3.13416 6.07722C3.47082 5.2625 3.96544 4.52249 4.58949 3.89986C4.76933 3.71937 4.87011 3.47483 4.86966 3.22003C4.86921 2.96523 4.76757 2.72105 4.58708 2.54119Z" fill="url(#paint0_linear_368_17860)"/>
<defs>
<linearGradient id="paint0_linear_368_17860" x1="9" y1="0" x2="9" y2="17.0524" gradientUnits="userSpaceOnUse">
<stop stop-color="#4D89D4"/>
<stop offset="1" stop-color="#216BC9"/>
</linearGradient>
</defs>
</svg>
