<svg width="20" height="23" viewBox="0 0 20 23" fill="none" xmlns="http://www.w3.org/2000/svg">
<path d="M17.2592 5.5185H15.1851C15.1851 2.65628 12.8622 0.333313 9.99996 0.333313C7.13774 0.333313 4.81477 2.65628 4.81477 5.5185H2.7407C1.59996 5.5185 0.666626 6.45183 0.666626 7.59257V20.037C0.666626 21.1778 1.59996 22.1111 2.7407 22.1111H17.2592C18.4 22.1111 19.3333 21.1778 19.3333 20.037V7.59257C19.3333 6.45183 18.4 5.5185 17.2592 5.5185ZM9.99996 2.40739C11.7214 2.40739 13.1111 3.79702 13.1111 5.5185H6.88885C6.88885 3.79702 8.27848 2.40739 9.99996 2.40739ZM9.99996 12.7778C8.85019 12.7793 7.73267 12.3978 6.82378 11.6936C5.91489 10.9894 5.26641 10.0026 4.9807 8.88887C4.8044 8.23554 5.31255 7.59257 5.98663 7.59257C6.47403 7.59257 6.86811 7.94517 7.00292 8.4222C7.18323 9.07876 7.57415 9.65795 8.11561 10.0708C8.65706 10.4836 9.31909 10.7071 9.99996 10.7071C10.6808 10.7071 11.3429 10.4836 11.8843 10.0708C12.4258 9.65795 12.8167 9.07876 12.997 8.4222C13.1318 7.94517 13.5259 7.59257 14.0133 7.59257C14.6874 7.59257 15.1851 8.23554 15.0192 8.88887C14.7335 10.0026 14.085 10.9894 13.1761 11.6936C12.2673 12.3978 11.1497 12.7793 9.99996 12.7778Z" fill="url(#paint0_linear_290_1460)"/>
<defs>
<linearGradient id="paint0_linear_290_1460" x1="3.77774" y1="9.14813" x2="15.1851" y2="22.1111" gradientUnits="userSpaceOnUse">
<stop stop-color="#FF6682"/>
<stop offset="1" stop-color="#FF002E"/>
</linearGradient>
</defs>
</svg>
