<svg width="20" height="19" viewBox="0 0 20 19" fill="none" xmlns="http://www.w3.org/2000/svg">
<path d="M8 0C7.53587 0 7.09075 0.184375 6.76256 0.512563C6.43437 0.840752 6.25 1.28587 6.25 1.75C6.25 2.21413 6.43437 2.65925 6.76256 2.98744C7.09075 3.31563 7.53587 3.5 8 3.5H12C12.4641 3.5 12.9092 3.31563 13.2374 2.98744C13.5656 2.65925 13.75 2.21413 13.75 1.75C13.75 1.28587 13.5656 0.840752 13.2374 0.512563C12.9092 0.184375 12.4641 0 12 0H8ZM1.863 14.205C1.005 10.773 0.575995 9.058 1.477 7.904C2.378 6.75 4.147 6.75 7.684 6.75H12.314C15.852 6.75 17.621 6.75 18.522 7.904C19.422 9.057 18.994 10.774 18.136 14.205C17.59 16.388 17.317 17.479 16.503 18.115C15.69 18.75 14.565 18.75 12.315 18.75H7.685C5.435 18.75 4.30899 18.75 3.49499 18.115C2.68199 17.479 2.409 16.388 1.863 14.205Z" fill="#216BC9"/>
<path d="M13.58 2.502C13.6921 2.26776 13.7505 2.01142 13.7508 1.75173C13.7512 1.49203 13.6935 1.23554 13.582 1.001C14.265 1.006 14.798 1.037 15.274 1.223C15.8422 1.44527 16.3364 1.82301 16.7 2.313C17.067 2.807 17.24 3.44 17.476 4.311L17.523 4.481L18.035 7.445C17.627 7.163 17.1 6.995 16.418 6.895L16.057 4.808C15.773 3.768 15.67 3.441 15.496 3.207C15.3002 2.94311 15.034 2.73968 14.728 2.62C14.508 2.534 14.242 2.509 13.58 2.502ZM6.41797 1C6.3063 1.23467 6.24853 1.49134 6.24888 1.75123C6.24922 2.01111 6.30768 2.26763 6.41997 2.502C5.75797 2.509 5.49197 2.534 5.27197 2.62C4.96593 2.73968 4.69978 2.94311 4.50397 3.207C4.32997 3.441 4.22697 3.768 3.94397 4.807L3.58197 6.896C2.90097 6.996 2.37397 7.163 1.96497 7.444L2.47697 4.482L2.52397 4.312C2.76097 3.44 2.93397 2.806 3.29997 2.312C3.66369 1.82238 4.15786 1.445 4.72597 1.223C5.20197 1.037 5.73397 1.005 6.41797 1ZM6.74997 10.75C6.74997 10.5511 6.67095 10.3603 6.5303 10.2197C6.38964 10.079 6.19888 10 5.99997 10C5.80105 10 5.61029 10.079 5.46964 10.2197C5.32898 10.3603 5.24997 10.5511 5.24997 10.75V14.75C5.24997 14.9489 5.32898 15.1397 5.46964 15.2803C5.61029 15.421 5.80105 15.5 5.99997 15.5C6.19888 15.5 6.38964 15.421 6.5303 15.2803C6.67095 15.1397 6.74997 14.9489 6.74997 14.75V10.75ZM14 10C14.1989 10 14.3896 10.079 14.5303 10.2197C14.6709 10.3603 14.75 10.5511 14.75 10.75V14.75C14.75 14.9489 14.6709 15.1397 14.5303 15.2803C14.3896 15.421 14.1989 15.5 14 15.5C13.8011 15.5 13.6103 15.421 13.4696 15.2803C13.329 15.1397 13.25 14.9489 13.25 14.75V10.75C13.25 10.5511 13.329 10.3603 13.4696 10.2197C13.6103 10.079 13.8011 10 14 10ZM10.75 10.75C10.75 10.5511 10.6709 10.3603 10.5303 10.2197C10.3896 10.079 10.1989 10 9.99997 10C9.80105 10 9.61029 10.079 9.46964 10.2197C9.32898 10.3603 9.24997 10.5511 9.24997 10.75V14.75C9.24997 14.9489 9.32898 15.1397 9.46964 15.2803C9.61029 15.421 9.80105 15.5 9.99997 15.5C10.1989 15.5 10.3896 15.421 10.5303 15.2803C10.6709 15.1397 10.75 14.9489 10.75 14.75V10.75Z" fill="#FFCA08"/>
</svg>
