<svg width="26" height="22" viewBox="0 0 26 22" fill="none" xmlns="http://www.w3.org/2000/svg">
<path d="M10.5231 3.79752L2.60358 13.647C2.49937 13.7767 2.3485 13.8591 2.18417 13.8762C2.01984 13.8934 1.85551 13.8438 1.72732 13.7384L0.483414 12.716C0.355228 12.6106 0.27369 12.4581 0.256737 12.2919C0.239784 12.1258 0.288806 11.9596 0.393017 11.83L8.06579 2.28732C8.23544 2.07633 8.48103 1.94212 8.74855 1.91421C9.01606 1.88631 9.28358 1.967 9.49226 2.13852L10.4177 2.89922C10.484 2.95039 10.5396 3.01452 10.5809 3.0878C10.6223 3.16108 10.6487 3.24202 10.6585 3.32581C10.6683 3.4096 10.6614 3.49453 10.6381 3.57556C10.6149 3.65659 10.5758 3.73207 10.5231 3.79752Z" fill="url(#paint0_linear_3330_15569)"/>
<path d="M17.9344 2.20315L25.6072 11.7458C25.7114 11.8754 25.7604 12.0416 25.7435 12.2077C25.7265 12.3739 25.645 12.5264 25.5168 12.6318L24.2729 13.6543C24.1447 13.7596 23.9804 13.8092 23.816 13.7921C23.6517 13.7749 23.5008 13.6925 23.3966 13.5629L15.4619 3.69441C15.3577 3.5648 15.3087 3.39865 15.3256 3.23249C15.3426 3.06634 15.4241 2.9138 15.5523 2.80844L16.4852 2.04158C16.6939 1.87005 16.9614 1.78936 17.2289 1.81727C17.4965 1.84517 17.7421 1.97938 17.9117 2.19037L17.9344 2.20315Z" fill="url(#paint1_linear_3330_15569)"/>
<path d="M10.681 1.09277H15.4179C15.8929 1.09277 16.3632 1.18736 16.802 1.37113C17.2408 1.5549 17.6395 1.82425 17.9753 2.16382C18.3111 2.50338 18.5775 2.9065 18.7593 3.35016C18.941 3.79382 19.0346 4.26933 19.0346 4.74954V15.0022C19.0346 15.3 18.9176 15.5856 18.7093 15.7962C18.501 16.0068 18.2185 16.1251 17.924 16.1251H8.1798C8.03396 16.1251 7.88954 16.096 7.7548 16.0396C7.62005 15.9832 7.49762 15.9005 7.3945 15.7962C7.29137 15.6919 7.20956 15.5681 7.15375 15.4319C7.09794 15.2957 7.06921 15.1496 7.06921 15.0022V4.74954C7.06921 3.78055 7.44959 2.85118 8.1268 2.16554C8.80401 1.4799 9.72268 1.09407 10.681 1.09277Z" fill="#FFCA08"/>
<path d="M13.0807 1.09277H12.8538V16.1007H13.0807V1.09277Z" fill="#104B97"/>
<path d="M10.4199 0H15.5383L12.9791 2.65104L10.4199 0Z" fill="#033266"/>
<path d="M15.5383 0L15.5866 0.53216L15.6252 0.922737L15.6832 1.51837L13.1578 4.01805L13.0999 3.41266L13.0661 3.02208L13.0081 2.41669L15.5383 0Z" fill="#104B97"/>
<path d="M15.5868 0.532227L15.6255 0.922803L13.1001 3.41273L13.0663 3.02215L15.5868 0.532227Z" fill="white"/>
<path d="M10.4201 0L10.3718 0.53216L10.3331 0.922737L10.28 1.51837L12.8006 4.01805L12.8585 3.41266L12.8923 3.02208L12.9503 2.41669L10.4201 0Z" fill="#104B97"/>
<path d="M10.3716 0.532227L10.3329 0.922803L12.8583 3.41273L12.8921 3.02215L10.3716 0.532227Z" fill="white"/>
<path d="M22.7766 14.6016H12.5978C12.1205 14.6016 11.7335 14.9928 11.7335 15.4755V20.7629C11.7335 21.2456 12.1205 21.6368 12.5978 21.6368H22.7766C23.254 21.6368 23.641 21.2456 23.641 20.7629V15.4755C23.641 14.9928 23.254 14.6016 22.7766 14.6016Z" fill="url(#paint2_linear_3330_15569)"/>
<path d="M12.8586 15.0414L13.5829 13.2984C13.9126 12.5015 14.4646 11.8188 15.1714 11.3335C15.8782 10.8482 16.7093 10.5813 17.5636 10.5652C18.4178 10.5492 19.2582 10.7847 19.9823 11.2432C20.7065 11.7016 21.2831 12.3631 21.6419 13.1471L22.511 15.0414" stroke="#033266" stroke-miterlimit="10"/>
<path d="M23.9838 14.7401L23.8389 17.0836L17.6872 19.0365L11.5307 17.0836L11.3858 14.745C11.3793 14.633 11.3954 14.5209 11.4331 14.4154C11.4709 14.3099 11.5295 14.2133 11.6054 14.1315C11.6813 14.0497 11.773 13.9845 11.8747 13.9397C11.9764 13.8949 12.0861 13.8716 12.197 13.8711H23.1725C23.2833 13.8709 23.3928 13.8936 23.4946 13.9379C23.5963 13.9821 23.6879 14.0469 23.7639 14.1283C23.8399 14.2097 23.8986 14.306 23.9364 14.4112C23.9742 14.5165 23.9903 14.6284 23.9838 14.7401Z" fill="#6EB5F4"/>
<path d="M17.6873 18.3876C17.8766 18.3876 18.0301 18.2324 18.0301 18.041C18.0301 17.8495 17.8766 17.6943 17.6873 17.6943C17.4979 17.6943 17.3444 17.8495 17.3444 18.041C17.3444 18.2324 17.4979 18.3876 17.6873 18.3876Z" fill="#FFCA08"/>
<defs>
<linearGradient id="paint0_linear_3330_15569" x1="6.56343" y1="8.72216" x2="4.3335" y2="6.92919" gradientUnits="userSpaceOnUse">
<stop stop-color="#4D89D4"/>
<stop offset="1" stop-color="#216BC9"/>
</linearGradient>
<linearGradient id="paint1_linear_3330_15569" x1="21.6398" y1="6.81159" x2="19.4099" y2="8.60456" gradientUnits="userSpaceOnUse">
<stop stop-color="#4D89D4"/>
<stop offset="1" stop-color="#216BC9"/>
</linearGradient>
<linearGradient id="paint2_linear_3330_15569" x1="17.6872" y1="14.6016" x2="17.6872" y2="21.6368" gradientUnits="userSpaceOnUse">
<stop stop-color="#4D89D4"/>
<stop offset="1" stop-color="#216BC9"/>
</linearGradient>
</defs>
</svg>
