<svg width="344" height="437" viewBox="0 0 344 437" fill="none" xmlns="http://www.w3.org/2000/svg">
<rect x="1" width="343" height="437" rx="8" fill="url(#paint0_linear_2_12363)"/>
<mask id="mask0_2_12363" style="mask-type:luminance" maskUnits="userSpaceOnUse" x="0" y="63" width="343" height="374">
<path d="M342.085 63H0.914551V436.695H342.085V63Z" fill="white"/>
</mask>
<g mask="url(#mask0_2_12363)">
<g opacity="0.44">
<path d="M208.004 350.359C212.415 350.147 216.404 352.202 218.882 355.491C221.038 351.978 224.817 349.561 229.228 349.35C236.315 349.013 242.337 354.519 242.671 361.644C242.733 362.952 242.597 364.223 242.287 365.431C246.475 365.992 250.043 368.595 251.952 372.257C254.021 370.526 256.647 369.417 259.547 369.28C264.168 369.056 268.331 371.335 270.76 374.91C274.353 370.924 279.457 368.321 285.219 368.047C296.717 367.499 306.48 376.418 307.025 387.99C307.124 389.958 306.926 391.876 306.505 393.707C312.427 394.617 317.098 399.612 317.383 405.865C317.495 408.281 316.925 410.573 315.872 412.566C320.791 412.815 325.016 415.855 326.949 420.215C328.832 418.944 334.122 418.309 336.538 418.197C343.626 417.86 352.311 422.818 352.646 429.956C352.819 433.655 351.568 439.996 349.201 442.462C353.513 444.094 350.886 445.451 351.53 450.247C351.555 450.247 351.568 450.272 351.592 450.272L352.683 473.454C351.022 474.363 349.139 474.936 347.12 475.036C340.417 475.36 334.668 470.452 333.788 463.887C329.389 462.006 326.205 457.734 325.957 452.614C325.784 448.914 327.184 445.526 329.538 443.047C326.341 441.839 323.74 439.36 322.339 436.209C320.456 437.479 318.238 438.264 315.81 438.389C308.723 438.725 302.701 433.219 302.367 426.094C302.255 423.678 302.825 421.386 303.878 419.393C298.018 419.106 293.136 414.833 291.959 409.128C290.423 409.577 288.824 409.851 287.164 409.926C276.942 410.411 268.108 403.423 265.878 393.745C264.317 394.529 262.582 395.015 260.736 395.102C255.569 395.351 250.985 392.486 248.743 388.164C246.673 389.896 244.047 391.004 241.147 391.141C234.06 391.477 228.039 385.972 227.704 378.847C227.642 377.539 227.779 376.268 228.088 375.06C224.631 374.587 221.571 372.743 219.552 370.04C217.396 373.553 213.617 375.969 209.206 376.181C202.119 376.517 196.097 371.011 195.763 363.886C195.428 356.761 200.904 350.707 207.992 350.371L208.004 350.359Z" fill="#7AA6DF"/>
</g>
<g opacity="0.44">
<path d="M116.553 357.26C113.418 357.26 110.668 358.842 109.02 361.258C107.384 358.842 104.621 357.26 101.487 357.26C96.4564 357.26 92.3677 361.358 92.3677 366.428C92.3677 367.349 92.504 368.246 92.7642 369.093C89.8154 369.641 87.3745 371.597 86.1479 374.263C84.6239 373.104 82.7282 372.407 80.6715 372.407C77.3881 372.407 74.5136 374.163 72.9153 376.779C70.2391 374.076 66.5344 372.407 62.4457 372.407C54.2807 372.407 47.6644 379.059 47.6644 387.267C47.6644 388.663 47.8626 390.02 48.2219 391.303C44.0589 392.15 40.9242 395.85 40.9242 400.284C40.9242 402.003 41.4074 403.598 42.2251 404.981C38.7559 405.317 35.8566 407.621 34.63 410.773C33.2547 409.938 31.6564 409.452 29.9342 409.452C24.9038 409.452 20.8151 413.551 20.8151 418.62C20.8151 421.249 21.9178 423.603 23.6772 425.272C20.6788 426.58 18.5106 429.458 18.2132 432.871C18.2008 432.871 18.1884 432.883 18.176 432.896V449.351C19.3779 449.948 20.7284 450.285 22.1656 450.285C26.9234 450.285 30.8263 446.61 31.2352 441.927C34.2831 440.444 36.4018 437.318 36.4018 433.68C36.4018 431.052 35.2991 428.698 33.5397 427.029C35.7699 426.057 37.5293 424.226 38.409 421.946C39.7843 422.781 41.3826 423.267 43.1048 423.267C48.1352 423.267 52.2239 419.168 52.2239 414.099C52.2239 412.38 51.7407 410.785 50.923 409.403C55.0612 408.992 58.3818 405.803 59.0261 401.729C60.1288 401.991 61.2687 402.128 62.4457 402.128C69.7063 402.128 75.7279 396.871 76.9916 389.946C78.1191 390.444 79.3705 390.73 80.6839 390.73C84.3513 390.73 87.5108 388.55 88.9481 385.411C90.472 386.57 92.3677 387.267 94.4245 387.267C99.4548 387.267 103.544 383.169 103.544 378.099C103.544 377.178 103.407 376.281 103.147 375.434C105.588 374.985 107.682 373.565 109.032 371.585C110.668 374.001 113.431 375.583 116.565 375.583C121.596 375.583 125.685 371.485 125.685 366.415C125.685 361.345 121.608 357.247 116.565 357.247L116.553 357.26Z" fill="#7AA6DF"/>
</g>
<path d="M123.665 360.673C121.038 360.673 118.733 362.006 117.358 364.024C115.983 361.993 113.666 360.673 111.051 360.673C106.826 360.673 103.407 364.111 103.407 368.358C103.407 369.131 103.518 369.891 103.741 370.588C101.276 371.049 99.2189 372.693 98.1906 374.911C96.9144 373.939 95.3285 373.354 93.5939 373.354C90.8433 373.354 88.4396 374.823 87.0891 377.016C84.8465 374.749 81.7366 373.354 78.3169 373.354C71.4776 373.354 65.9269 378.934 65.9269 385.81C65.9269 386.981 66.0879 388.114 66.3977 389.198C62.9037 389.908 60.277 393.01 60.277 396.722C60.277 398.167 60.6735 399.5 61.3673 400.658C58.4556 400.945 56.0272 402.875 54.9988 405.516C53.8465 404.819 52.5084 404.408 51.0588 404.408C46.8338 404.408 43.4141 407.846 43.4141 412.093C43.4141 414.298 44.3434 416.266 45.8054 417.674C43.2902 418.77 41.4813 421.174 41.2335 424.039C41.2335 424.039 41.2087 424.039 41.1963 424.051V437.841C42.2123 438.339 43.3398 438.626 44.5416 438.626C48.5312 438.626 51.8022 435.549 52.1491 431.625C54.7138 430.379 56.4732 427.763 56.4732 424.712C56.4732 422.507 55.544 420.539 54.082 419.131C55.9529 418.321 57.4273 416.777 58.1707 414.871C59.3229 415.569 60.6611 415.98 62.1107 415.98C66.3357 415.98 69.7554 412.542 69.7554 408.294C69.7554 406.849 69.3589 405.516 68.6651 404.358C72.1343 404.021 74.9096 401.343 75.4548 397.918C76.3717 398.142 77.3381 398.254 78.3293 398.254C84.4128 398.254 89.468 393.844 90.5211 388.04C91.4628 388.463 92.5159 388.7 93.6186 388.7C96.6914 388.7 99.3305 386.869 100.545 384.241C101.821 385.212 103.407 385.798 105.141 385.798C109.366 385.798 112.786 382.36 112.786 378.112C112.786 377.34 112.675 376.58 112.452 375.882C114.496 375.508 116.255 374.313 117.383 372.656C118.758 374.686 121.075 376.007 123.689 376.007C127.914 376.007 131.334 372.569 131.334 368.321C131.334 364.073 127.914 360.635 123.689 360.635L123.665 360.673Z" fill="white"/>
<path d="M226.85 360.673C229.786 360.673 232.388 362.168 233.924 364.435C235.461 362.168 238.063 360.673 240.999 360.673C245.732 360.673 249.561 364.534 249.561 369.28C249.561 370.152 249.424 370.987 249.189 371.784C251.964 372.295 254.256 374.138 255.409 376.642C256.846 375.558 258.618 374.898 260.563 374.898C263.648 374.898 266.349 376.542 267.848 379.009C270.363 376.468 273.845 374.898 277.686 374.898C285.355 374.898 291.575 381.151 291.575 388.862C291.575 390.182 291.389 391.453 291.055 392.649C294.97 393.446 297.919 396.921 297.919 401.094C297.919 402.714 297.473 404.208 296.705 405.504C299.976 405.828 302.689 407.983 303.841 410.947C305.13 410.163 308.673 409.901 310.297 409.901C315.03 409.901 320.655 413.488 320.655 418.234C320.655 420.701 319.614 424.886 317.966 426.456C320.791 427.676 318.994 428.498 319.267 431.712C319.279 431.712 319.292 431.725 319.304 431.737V447.208C318.177 447.769 316.9 448.08 315.55 448.08C311.077 448.08 307.41 444.63 307.026 440.232C304.151 438.837 302.169 435.898 302.169 432.485C302.169 430.018 303.209 427.801 304.857 426.231C302.763 425.322 301.116 423.591 300.273 421.448C298.984 422.233 297.473 422.694 295.862 422.694C291.129 422.694 287.301 418.832 287.301 414.086C287.301 412.467 287.747 410.972 288.515 409.677C284.624 409.291 281.514 406.301 280.907 402.464C279.879 402.714 278.801 402.851 277.686 402.851C270.871 402.851 265.197 397.905 264.02 391.403C262.954 391.876 261.79 392.15 260.551 392.15C257.106 392.15 254.145 390.095 252.782 387.155C251.345 388.239 249.573 388.899 247.628 388.899C242.895 388.899 239.066 385.038 239.066 380.292C239.066 379.42 239.202 378.585 239.438 377.788C237.146 377.365 235.176 376.032 233.912 374.176C232.376 376.443 229.774 377.938 226.837 377.938C222.104 377.938 218.276 374.076 218.276 369.33C218.276 364.584 222.117 360.723 226.837 360.723L226.85 360.673Z" fill="white"/>
<path d="M176.743 356.026C168.343 356.026 160.103 356.736 152.075 358.057C79.5185 369.915 24.1226 433.182 24.1226 509.478C24.1226 585.774 79.5185 649.04 152.075 660.899C160.103 662.207 168.343 662.917 176.743 662.917C261.033 662.917 329.364 594.219 329.364 509.478C329.364 424.736 261.033 356.039 176.743 356.039V356.026Z" fill="url(#paint1_linear_2_12363)"/>
<path d="M79.4072 391.814C79.4072 391.814 98.2772 375.795 120.691 366.802C120.691 366.802 121.261 366.391 121.632 367.25C122.004 368.11 123.07 365.768 124.606 366.49C126.142 367.213 127.753 367.524 127.704 366.465C127.654 365.394 127.543 365.22 130.021 364.273C132.499 363.326 135.15 363.762 132.684 364.335C130.219 364.908 129.327 365.307 130.244 365.73C131.148 366.154 133.75 365.842 135.472 365.319C137.194 364.796 139.375 365.469 140.379 364.634C141.382 363.8 143.736 360.885 143.935 362.118C144.133 363.351 143.241 364.011 143.972 363.874C144.703 363.737 146.239 362.018 147.714 362.143C149.188 362.267 149.498 363.177 148.568 363.712C147.652 364.236 148.829 364.896 149.349 364.298C149.869 363.712 153.289 363.252 152.347 362.38C151.406 361.508 149.82 360.835 151.146 360.337C152.484 359.838 153.748 359.315 154.243 360.225C154.726 361.134 157.551 358.306 159.558 358.854C161.566 359.402 161.665 359.315 162.854 358.842C164.044 358.369 167.228 357.733 166.584 358.618C165.939 359.49 166.125 360.175 168.058 360.349C169.991 360.524 172.828 360.623 172.494 361.234C172.159 361.844 170.325 361.981 173.039 362.529C175.752 363.065 177.859 363.102 177.462 363.837C177.078 364.559 177.883 365.382 175.789 364.784C173.696 364.198 170.065 363.874 171.218 364.883C172.37 365.905 174.798 365.88 173.881 366.54C172.977 367.2 169.186 366.216 169.099 366.764C169.024 367.312 174.055 367.325 173.15 368.334C172.258 369.343 166.918 368.695 165.568 367.948C164.217 367.2 162.458 366.528 159.583 366.602C156.696 366.677 155.705 366.079 157.031 365.568C158.357 365.07 166.472 363.625 165.63 362.803C164.787 361.981 161.12 364.846 160.166 363.625C159.212 362.404 163.808 363.364 162.371 362.479C160.934 361.595 160.884 359.951 160.289 360.748C159.695 361.545 159.881 362.641 158.79 362.267C157.7 361.894 155.78 360.735 155.135 361.52C154.491 362.305 156.126 363.027 155.383 363.675C154.652 364.323 151.815 364.223 150.762 364.721C149.696 365.207 148.754 364.622 147.974 365.008C147.193 365.394 145.31 366.652 144.405 367.213C143.501 367.773 141.432 366.914 139.809 367.773C138.173 368.633 137.517 368.869 135.249 369.38C132.982 369.878 129.215 371.186 128.459 372.457C127.704 373.727 128.943 373.129 128.497 374.687C128.051 376.244 128.212 376.48 129.636 375.795C131.061 375.11 133.316 374.475 134.481 376.069C135.646 377.676 136.042 377.078 137.343 377.676C138.644 378.274 139.437 378.71 141.097 378.511C142.758 378.311 142.943 379.183 142.733 381.313C142.522 383.456 143.327 387.367 144.69 387.567C146.053 387.766 147.379 386.533 147.453 385.162C147.528 383.792 146.908 378.573 149.609 378.336C152.323 378.1 155.098 376.53 154.925 375.534C154.764 374.525 152.496 374.425 153.091 372.756C153.686 371.087 154.825 371.809 154.887 369.978C154.949 368.147 155.78 367.649 156.746 367.698C157.712 367.748 162.297 367.275 163.362 367.948C164.428 368.62 165.927 370.514 166.72 369.978C167.513 369.442 168.715 368.832 168.355 369.978C167.984 371.124 168.021 371.884 168.752 372.594C169.483 373.291 170.449 374.001 171.218 373.565C171.986 373.13 174.204 373.154 174.389 372.083C174.575 371.024 174.315 369.38 176.471 370.987C178.627 372.594 182.629 374.238 182.022 375.023C181.427 375.808 180.993 376.779 181.861 376.58C182.728 376.381 183.285 376.418 183.992 376.916C184.686 377.415 187.523 376.954 188.811 378.187C190.112 379.42 188.948 379.694 189.778 379.657C190.608 379.619 191.104 379.457 191.574 379.918C192.045 380.379 193.408 380.952 193.631 381.587C193.854 382.223 194.3 384.041 191.686 384.627C189.072 385.2 188.675 384.739 186.11 386.545C183.546 388.351 179.321 387.243 175.368 387.143C171.416 387.043 172.01 387.816 171.205 388.476C170.412 389.149 169.917 389.198 168.541 389.074C167.178 388.949 164.626 390.519 164.49 391.029C164.366 391.54 165.233 391.291 166.732 390.531C168.232 389.771 170.92 389.124 173.373 388.825C175.814 388.526 179.383 389.036 178.342 390.108C177.313 391.179 176.012 390.743 176.149 391.677C176.285 392.611 175.381 392.985 176.31 393.583C177.239 394.181 176.942 394.916 178.144 395.389C179.345 395.863 178.837 396.112 180.101 396.224C181.377 396.348 183.93 396.162 184.029 397.656C184.128 399.164 182.294 398.254 180.969 399.027C179.643 399.799 177.313 401.194 174.749 401.767C172.184 402.34 169.954 401.231 171.626 399.799C173.299 398.366 174.885 397.656 173.287 397.756C171.688 397.856 171.23 397.519 170.995 399.064C170.759 400.596 168.665 399.438 163.313 400.833C157.96 402.24 162.978 406.251 160.624 406.388C158.258 406.525 156.634 406.226 154.974 406.986C153.314 407.746 153.871 409.789 151.914 410.325C149.956 410.86 148.792 412.43 148.023 412.069C147.255 411.695 147.094 412.168 147.094 412.94C147.094 413.713 146.301 416.154 146.995 417.686C147.689 419.219 146.561 421.261 141.779 422.47C136.996 423.678 130.516 427.701 130.045 430.031C129.562 432.36 130.281 433.78 131.049 435.586C131.817 437.393 132.251 440.195 132.077 441.603C131.916 443.01 131.644 447.756 129.054 446.685C126.465 445.614 125.523 443.446 124.866 442.3C124.197 441.167 125.758 436.82 124.172 435.611C122.574 434.403 122.314 435.076 119.687 434.179C117.061 433.282 118.089 431.638 114.595 432.51C111.101 433.382 111.832 432.572 109.8 434.116C107.768 435.649 108.598 436.284 105.674 435.624C102.75 434.951 102.614 434.154 98.7852 435.586C94.9567 437.019 93.3955 437.256 92.2309 438.028C91.0662 438.8 86.0111 450.098 86.0111 453.437C86.0111 453.437 85.8748 457.086 86.7793 459.054C87.6713 461.023 88.6749 463.875 91.9335 463.663C95.1921 463.464 94.6593 466.055 98.0914 463.663C101.511 461.284 102.254 456.027 104.348 455.629C106.442 455.23 108.933 456.526 110.097 456.102C111.262 455.666 114.459 453.461 112.885 456.538C111.324 459.615 110.519 461.62 109.255 464.261C107.991 466.902 106.665 470.676 105.228 471.947C103.791 473.217 103.716 473.105 106.479 473.13C109.242 473.155 112.972 472.146 114.967 472.956C116.961 473.753 120.914 474.027 119.923 475.198C118.919 476.369 119.353 475.796 119.254 477.577C119.154 479.346 118.089 480.417 118.188 482.323C118.287 484.229 116.305 485.836 116.763 488.14C117.222 490.457 118.894 493.135 120.939 493.883C122.983 494.63 124.086 494.892 125.981 494.057C127.877 493.223 129.636 492.014 132.003 493.086C134.369 494.157 136.686 498.23 136.959 496.636C137.219 495.029 138.359 494.157 139.623 494.132C140.887 494.095 141.122 493.023 140.986 491.117C140.849 489.212 142.745 487.978 144.145 488.078C145.545 488.178 147.007 488.277 147.837 487.841C148.668 487.405 150.241 487.642 151.567 486.371C152.893 485.101 155.495 483.793 155.197 485.238C154.9 486.67 152.248 486.807 152.843 488.651C153.438 490.495 153.909 490.856 152.409 492.799C150.91 494.742 154.739 496.897 154.999 495.402C155.272 493.908 153.735 490.059 154.863 489.199C155.99 488.327 159.199 487.58 161.12 487.991C163.028 488.402 165.072 488.19 164.614 490.096C164.143 492.002 163.412 492.101 166.274 491.603C169.136 491.105 169.173 489.398 170.635 490.906C172.097 492.413 174.154 494.244 175.876 492.911C177.598 491.578 175.69 489.971 179.519 490.407C183.347 490.843 182.245 493.322 185.838 494.057C189.431 494.792 189.79 494.892 190.224 496.561C190.658 498.23 190.757 498.23 192.516 498.803C194.275 499.376 196.245 499.912 196.307 501.78C196.369 503.649 195.985 503.25 197.968 503.624C199.95 503.997 200.099 503.636 200.347 504.57C200.594 505.505 204.646 506.364 206.046 505.405C207.446 504.433 208.289 503.474 210.705 504.932C213.108 506.402 216.392 507.336 217.185 509.042C217.978 510.749 218.51 509.379 219.613 510.848C220.716 512.318 220.307 514.722 221.905 515.968C223.504 517.201 225.028 517.5 224.173 518.883C223.305 520.253 222.203 521.162 220.22 523.367C218.238 525.572 217.544 527.752 219.526 525.335C221.509 522.919 222.463 520.54 223.689 521.636C224.916 522.732 228.509 522.458 229.079 523.131C229.649 523.803 227.084 527.553 228.36 526.917C229.637 526.27 230.033 523.704 231.136 523.841C232.239 523.978 232.895 524.613 235.361 525.149C237.826 525.684 238.582 525.746 239.388 526.855C240.181 527.964 242.51 527.752 242.051 529.396C241.581 531.04 242.51 531.078 243.241 530.144C243.972 529.197 245.731 529.745 246.809 530.505C247.887 531.265 248.47 529.82 249.535 530.766C250.601 531.713 269.396 528.711 266.819 545.876C264.242 563.041 243.092 575.174 239.896 583.445C236.699 591.716 225.213 593.323 222.277 603.761C219.341 614.188 209.267 614.138 210.767 611.833C212.266 609.529 214.013 607.424 211.361 609.13C208.722 610.837 209.974 611.634 206.133 615.159C202.292 618.684 202.428 620.217 198.438 619.307C194.449 618.41 193.755 617.352 195.143 619.855C196.543 622.359 197.98 623.866 196.642 624.414C195.291 624.962 188.415 629.023 184.871 629.023C181.328 629.023 184.425 629.571 182.579 631.427C180.733 633.283 178.441 632.735 178.342 634.741C178.243 636.746 176 638.802 173.448 639.96C170.908 641.118 174.786 642.314 173.237 644.071C171.688 645.827 164.713 647.683 166.261 649.439C167.81 651.196 173.547 654.285 172.246 655.02C170.945 655.755 163.412 656.415 158.679 654.36C153.946 652.304 154.689 651.719 154.9 651.171C155.11 650.635 155.358 649.9 154.578 649.9C153.797 649.9 152.347 649.078 152.608 648.53C152.868 647.994 152.93 647.496 152.248 646.674C151.567 645.852 151.678 646.101 151.071 645.702C150.464 645.316 150.39 644.382 151.369 644.419C152.36 644.457 152.273 644.233 152.248 643.747C152.224 643.261 153.14 642.987 152.595 642.7C152.05 642.426 151.802 642.489 151.022 642.688C150.254 642.887 148.184 642.788 148.184 642.19C148.184 641.592 150.092 642.015 150.898 641.417C151.716 640.82 152.124 639.163 152.632 639.686C153.14 640.209 154.243 641.941 154.379 640.57C154.516 639.2 154.293 637.332 154.764 635.849C155.234 634.367 154.949 632.486 154.218 634.155C153.487 635.837 153.586 637.469 152.062 637.282C150.539 637.095 150.662 636.123 151.666 635.177C152.67 634.23 152.385 633.059 152.248 632.399C152.112 631.751 151.765 630.73 152.67 629.87C153.574 629.011 153.673 628.787 153.438 628.101C153.202 627.416 151.691 624.19 152.261 623.916C152.831 623.655 153.202 623.742 153.326 623.231C153.45 622.72 153.326 622.583 153.809 622.334C154.293 622.085 156.82 615.67 156.077 613.004C155.333 610.351 155.879 606.539 155.68 604.484C155.482 602.429 158.319 585.251 156.201 579.521C154.082 573.804 140.242 569.892 135.584 563.34C130.925 556.788 122.277 549.426 122.017 543.41C121.756 537.393 119.625 533.644 121.224 532.037C122.822 530.43 123.516 522.271 124.619 519.269C125.721 516.255 131.408 515.158 131.904 511.446C132.399 507.734 134.196 501.568 131.507 499.837C128.819 498.105 129.413 498.106 126.824 500.821C124.234 503.524 123.429 501.22 121.038 500.024C118.646 498.816 117.048 499.675 114.954 497.769C112.86 495.863 114.013 493.459 111.758 492.55C109.515 491.653 109.019 489.535 109.366 488.489C109.713 487.43 110.618 487.592 108.623 487.032C106.628 486.484 105.377 482.111 103.332 482.012C101.288 481.912 101.387 480.654 98.6985 480.056C96.0098 479.458 92.1194 473.79 89.9635 473.23C87.82 472.682 87.6713 476.543 85.4287 475.734C83.1861 474.936 67.0419 469.443 66.5711 464.099C66.1002 458.755 67.5747 454.869 66.5711 451.456C65.5675 448.043 63.3125 441.628 63.5107 439.622C63.709 437.617 63.2258 435.487 62.4452 436.882C61.6646 438.277 64.9108 452.527 63.8453 453.997C62.7797 455.467 57.9971 454.47 58.4556 451.057C58.9264 447.644 58.5547 446.448 57.8732 444.567C57.1918 442.699 59.5831 441.017 58.9264 439.087C58.2573 437.143 60.723 429.931 59.5955 427.054C58.468 424.176 60.1902 416.092 63.0523 412.741C65.9144 409.403 68.442 403.125 71.8988 400.907C75.3556 398.678 75.368 395.165 79.5063 391.877L79.4072 391.814Z" fill="url(#paint2_linear_2_12363)"/>
<path d="M146.797 368.109C146.797 368.109 145.087 367.848 145.298 368.371C145.508 368.894 146.549 368.969 147.057 368.757C147.578 368.545 148.222 368.545 147.986 368.221C147.751 367.898 146.896 368.122 146.797 368.109Z" fill="#0ABA50"/>
<path d="M148.816 367.374C148.494 367.611 147.652 368.309 148.469 368.234C149.275 368.147 149.82 368.134 150.551 368.122C151.282 368.122 152.236 368.035 151.74 367.76C151.232 367.486 150.266 366.328 148.829 367.374H148.816Z" fill="#0ABA50"/>
<path d="M152.88 367.075C152.459 366.988 152.484 367.175 152.248 367.462C152.025 367.748 152.298 368.097 152.732 368.047C153.165 367.985 153.339 367.188 152.88 367.088V367.075Z" fill="#0ABA50"/>
<path d="M152.446 368.633C152.05 368.745 151.703 369.243 151.728 369.567C151.765 369.878 152.136 369.953 152.644 369.866C153.152 369.779 153.821 369.716 153.623 369.268C153.425 368.819 153.363 368.371 152.446 368.633Z" fill="#0ABA50"/>
<path d="M148.989 368.558C148.791 368.62 147.676 368.882 147.614 369.23C147.552 369.592 147.986 369.841 148.667 369.903C149.349 369.965 149.671 370.04 150.018 369.567C150.365 369.093 150.637 369.081 150.365 368.757C150.092 368.433 149.473 368.408 149.002 368.558H148.989Z" fill="#0ABA50"/>
<path d="M184.785 392.798C184.141 393.296 183.137 394.355 182.988 394.704C182.84 395.053 184.265 396.112 184.488 396.398C184.711 396.685 184.958 395.937 185.169 396.211C185.38 396.485 185.355 397.058 186.309 396.797C187.251 396.535 187.858 396.498 187.436 395.838C187.015 395.177 186.817 395.875 186.408 394.667C186.012 393.458 186.557 392.474 185.838 392.225C185.119 391.976 185.504 392.263 184.785 392.798Z" fill="#2DC469"/>
<path d="M190.311 387.218C189.654 387.816 189.728 389.36 189.146 389.622C188.576 389.871 186.953 389.946 187.102 390.519C187.25 391.092 189.109 390.295 188.799 390.905C188.502 391.515 186.705 391.827 187.164 392.188C187.622 392.549 189.22 392.462 190.893 392.126C192.566 391.789 193.086 392.238 193.433 392.599C193.78 392.96 194.35 392.935 195.031 392.786C195.713 392.636 196.803 392.213 196.233 392.711C195.663 393.209 194.548 393.695 194.771 394.144C194.994 394.592 195.366 395.178 196.258 394.33C197.138 393.483 198.947 393.322 199.244 392.711C199.541 392.101 200.855 391.839 200.124 390.98C199.405 390.12 199.554 390.021 200.124 389.747C200.693 389.472 201.4 389.198 199.975 388.638C198.55 388.077 196.555 387.828 195.539 387.965C194.523 388.102 192.318 388.09 193.173 387.193C194.015 386.309 195.688 384.154 194.598 383.992C193.495 383.83 192.405 385.113 191.277 385.138C190.15 385.163 190.881 386.682 190.323 387.193L190.311 387.218Z" fill="#2DC469"/>
<path d="M201.585 392.126C202.056 392.3 203.555 391.067 203.357 391.814C203.159 392.562 203.01 394.729 202.304 395.003C201.61 395.277 199.962 395.576 199.838 394.903C199.715 394.231 198.773 394.256 199.231 393.67C199.69 393.097 200.495 391.727 201.585 392.126Z" fill="#2DC469"/>
<path d="M173.534 357.247C174.377 357.21 176.83 357.222 179.32 356.986C181.811 356.749 186.011 356.338 193.222 357.559C200.433 358.767 203.605 359.514 207.941 360.274C212.278 361.034 221.298 362.442 219.167 363.575C217.036 364.709 214.706 363.239 215.078 364.746C215.45 366.253 211.088 364.945 211.324 366.59C211.559 368.234 213.889 373.478 211.584 372.98C209.292 372.482 206.863 371.373 204.162 370.738C201.474 370.102 201.635 371.074 196.32 368.433C191.004 365.792 190.434 364.148 189.431 363.613C188.427 363.077 189.369 362.815 188.068 362.479C186.767 362.143 189.332 361.707 187.101 361.146C184.871 360.573 184.611 359.041 181.179 358.941C177.759 358.842 174.625 359.676 171.936 359.141C169.247 358.605 166.113 358.007 167.983 357.633C169.842 357.26 171.886 357.334 173.534 357.26V357.247Z" fill="url(#paint3_linear_2_12363)"/>
<path d="M226.205 368.707C230.343 369.417 232.685 369.878 232.598 369.031C232.511 368.172 232.09 367.462 230.442 366.752C228.794 366.054 224.507 364.746 224.656 366.054C224.805 367.362 225.127 368.533 226.205 368.707Z" fill="url(#paint4_linear_2_12363)"/>
<path d="M223.082 374.263C225.56 377.053 226.812 378.548 228.93 379.345C231.061 380.142 233.874 380.578 232.957 377.477C232.04 374.375 232.226 371.871 228.583 371.909C224.941 371.958 219.848 370.626 223.082 374.263Z" fill="#0DE864"/>
<path d="M272.531 395.165C273.473 397.046 281.712 402.987 279.321 403.324C276.93 403.66 276.124 404.731 278.454 407.472C280.783 410.212 283.98 411.059 284.81 414.709C285.64 418.371 287.312 419.878 289.629 421.037C291.946 422.183 291.228 420.29 292.752 421.311C294.276 422.332 294.945 423.13 294.883 420.451C294.821 417.773 295.552 418.708 293.223 414.971C290.893 411.221 291.054 408.057 288.428 406.139C285.801 404.221 266.125 382.347 272.531 395.177V395.165Z" fill="url(#paint5_linear_2_12363)"/>
<path d="M292.157 424.388C291.934 427.838 293.954 433.22 293.421 436.085C292.888 438.962 292.554 441.765 292.789 442.176C293.024 442.587 292.628 442.649 296.283 443.708C299.938 444.767 300.409 445.913 298.216 445.651C296.023 445.39 294.685 444.518 295.49 446.722C296.283 448.927 294.672 449.936 294.945 451.605C295.217 453.275 298.662 456.625 295.812 456.551C292.962 456.488 290.608 455.616 292.083 461.297C293.557 466.977 294.561 472.046 294.486 475.559C294.424 479.084 297.348 485.699 301.598 492.924C305.86 500.148 309.317 507.959 313.505 505.828C317.693 503.698 318.424 500.348 320.691 503.487C322.959 506.626 326.738 508.631 327.072 503.013C327.407 497.395 328.671 491.852 325.635 477.988C322.599 464.124 312.811 436.085 301.945 423.155C291.079 410.225 298.464 423.578 295.403 423.404C292.343 423.229 292.231 423.142 292.145 424.375L292.157 424.388Z" fill="url(#paint6_linear_2_12363)"/>
<path d="M140.701 192.983C140.862 192.311 140.961 191.613 140.961 190.891C140.961 187.776 139.338 185.048 136.885 183.504C137.182 182.52 137.356 181.473 137.356 180.39C137.356 174.597 132.685 169.889 126.911 169.889C124.668 169.889 122.599 170.599 120.889 171.807C119.514 170.611 117.742 169.889 115.785 169.889C111.845 169.889 108.586 172.829 108.066 176.653C107.211 177.039 106.455 177.612 105.86 178.322C104.225 176.927 102.106 176.092 99.7892 176.092C95.5518 176.092 91.9711 178.895 90.7816 182.769C90.6453 182.769 90.5091 182.744 90.3604 182.744C89.3444 182.744 88.3904 182.981 87.5231 183.392C86.5195 182.732 85.33 182.333 84.0415 182.333C81.9104 182.333 80.0395 183.392 78.8872 185.011C77.3013 179.854 72.5187 176.092 66.8688 176.092C64.3536 176.092 61.9995 176.84 60.0419 178.123C57.2789 171.334 50.6502 166.551 42.9065 166.551C33.0564 166.551 25.0028 174.286 24.4329 184.052C20.4433 185.746 17.259 188.96 15.574 192.971H140.701V192.983Z" fill="white"/>
<path d="M328.51 273.789C328.002 273.789 327.518 273.851 327.048 273.963C325.437 270.811 322.178 268.656 318.412 268.656C318.375 268.656 318.337 268.656 318.3 268.656C316.417 265.667 313.109 263.674 309.33 263.674C306.728 263.674 304.337 264.621 302.491 266.19C300.967 262.864 297.634 260.56 293.756 260.56C288.886 260.56 284.872 264.197 284.228 268.906C283.534 268.744 282.803 268.656 282.059 268.656C282.01 268.656 281.96 268.656 281.911 268.656C279.098 263.811 273.869 260.547 267.885 260.547C263.759 260.547 259.993 262.092 257.131 264.645C256.387 264.371 255.607 264.147 254.814 263.985C252.918 258.716 247.9 254.942 241.99 254.942C236.08 254.942 231.272 258.554 229.29 263.661C227.283 263.674 225.362 264.072 223.603 264.795C221.199 262.192 217.767 260.547 213.951 260.547C206.678 260.547 200.781 266.477 200.781 273.789C200.781 281.101 206.678 287.03 213.951 287.03C214.633 287.03 215.302 286.955 215.971 286.855C218.622 291.552 223.64 294.715 229.402 294.715C233.527 294.715 237.269 293.084 240.045 290.443C242.932 293.569 247.07 295.525 251.654 295.525C255.445 295.525 258.927 294.18 261.653 291.95C263.573 292.76 265.68 293.196 267.897 293.196C272.643 293.196 276.905 291.153 279.866 287.902C280.573 288.064 281.304 288.163 282.059 288.163C284.364 288.163 286.47 287.354 288.13 286.008C289.828 290.219 293.929 293.196 298.724 293.196C303.903 293.196 308.277 289.72 309.677 284.962C310.16 284.95 310.643 284.9 311.114 284.813C312.898 286.855 315.5 288.151 318.412 288.151C320.828 288.151 323.021 287.266 324.718 285.797C325.796 286.556 327.097 287.005 328.51 287.005C332.14 287.005 335.089 284.04 335.089 280.391C335.089 276.741 332.14 273.776 328.51 273.776V273.789Z" fill="white"/>
<path d="M258.345 122.442C258.939 121.109 259.286 119.639 259.286 118.082C259.286 112.24 254.578 107.507 248.767 107.507C247.59 107.507 246.475 107.706 245.422 108.067C245.422 107.881 245.434 107.694 245.434 107.507C245.434 99.8212 239.239 93.5805 231.582 93.5805C224.718 93.5805 219.019 98.6129 217.928 105.202C216.826 104.654 215.574 104.33 214.261 104.33C210.321 104.33 207.037 107.083 206.17 110.783C204.46 109.363 202.28 108.503 199.888 108.503C194.449 108.503 190.038 112.938 190.038 118.406C190.038 119.839 190.348 121.197 190.893 122.43H258.345V122.442Z" fill="white"/>
<path opacity="0.48" d="M241.075 379.888C242.043 377 237.109 372.721 230.054 370.33C222.999 367.938 216.495 368.341 215.527 371.229C214.558 374.117 219.493 378.397 226.547 380.788C233.602 383.179 240.107 382.776 241.075 379.888Z" fill="#EAF4E6"/>
<path opacity="0.48" d="M237.091 378.165C237.749 376.203 234.393 373.294 229.594 371.667C224.796 370.041 220.373 370.313 219.715 372.276C219.057 374.238 222.413 377.147 227.212 378.773C232.01 380.4 236.433 380.127 237.091 378.165Z" fill="white"/>
<path d="M232.779 376.493C233.243 375.111 231.61 373.31 229.133 372.471C226.656 371.631 224.273 372.071 223.809 373.453C223.346 374.835 224.978 376.636 227.455 377.475C229.932 378.315 232.316 377.875 232.779 376.493Z" fill="white"/>
<path d="M146.661 254.369C146.661 254.369 145.806 251.08 146.029 250.557C146.252 250.034 147.566 250.595 147.863 251.778C148.16 252.961 146.661 254.369 146.661 254.369Z" fill="#DB8E70"/>
<path d="M125.176 181.835C101.065 197.605 94.92 231.088 111.448 256.624C117.495 265.966 125.759 272.942 134.965 277.264L173.052 297.805L212.093 318.869C213.319 319.529 214.719 318.62 214.608 317.225L211.263 272.805L208.004 229.481C207.806 219.267 204.807 208.853 198.749 199.498C182.22 173.962 149.275 166.065 125.176 181.835ZM169.508 250.321C158.146 257.757 142.634 254.02 134.841 242C127.06 229.967 129.947 214.197 141.308 206.76C152.67 199.324 168.182 203.061 175.976 215.081C183.757 227.114 180.87 242.884 169.508 250.321Z" fill="#FF3358"/>
<path d="M135.968 327.949C135.968 327.949 130.566 336.943 127.159 341.116C123.751 345.289 93.8046 364.958 93.8046 364.958L88.7866 360.224C88.7866 360.224 116.478 338.712 116.85 327.239C117.817 296.771 145.36 307.919 139.437 317.536" fill="#114C97"/>
<path d="M149.065 307.807C149.065 307.807 165.419 314.97 173.659 323.627C177.363 327.526 194.164 358.517 194.164 358.517L187.994 365.593C187.994 365.593 170.165 334.09 159.175 331.026C119.663 319.99 138.533 303.223 147.64 309.862" fill="#114C97"/>
<path d="M113.232 274.087C113.232 274.087 110.519 276.292 109.317 277.6C108.115 278.908 107.062 283.168 109.119 290.655C111.175 298.141 115.859 303.398 117.37 311.307L129.513 313.836C133.255 313.425 138.632 312.964 141.345 310.348L146.958 303.173C146.958 303.173 139.462 281.1 135.274 276.629C135.274 276.629 131.842 274.424 127.121 271.995C125.833 271.335 124.16 269.777 123.776 269.914C123.144 270.126 120.79 274.274 119.638 274.748C118.362 275.271 113.492 272.705 113.245 274.075L113.232 274.087Z" fill="#FFCB08"/>
<path d="M111.696 263.773C111.696 263.773 114.596 270.687 112.551 273.265C112.551 273.265 116.082 276.342 119.267 275.408C119.267 275.408 121.856 275.047 121.819 271.322C121.819 271.322 120.097 271.222 119.762 265.044C119.762 265.044 119.651 260.809 116.132 260.585C112.613 260.36 111.548 262.839 111.684 263.773H111.696Z" fill="#DD9E73"/>
<path opacity="0.51" d="M112.303 262.59L113.083 266.14C113.083 266.14 115.128 269.765 120.109 268.071C120.109 268.071 119.588 264.845 120.022 263.724C120.456 262.603 118.04 261.22 116.28 261.494C114.521 261.768 112.724 260.099 112.291 262.578L112.303 262.59Z" fill="#CA664B"/>
<path d="M106.889 258.579C106.889 258.579 106.728 264.857 114.98 266.539C114.98 266.539 123.504 268.868 126.403 263.637C126.812 262.914 127.06 262.104 127.221 261.295C127.37 260.547 127.568 259.414 127.667 258.206C127.84 256.051 128.113 253.671 128.41 252.189C128.41 252.189 129.922 240.891 118.412 238.686C118.412 238.686 107.099 235.796 106.331 251.653C106.331 251.653 106.009 256.125 106.889 258.579Z" fill="#DD9E73"/>
<path d="M121.472 252.451C121.472 252.451 121.026 252.625 120.865 254.419C120.654 256.785 120.679 259.738 121.794 260.149C123.454 260.747 123.393 259.825 122.513 257.084C121.509 253.933 122.005 252.463 121.472 252.463V252.451Z" fill="#A95636"/>
<path d="M116.726 253.348C116.726 253.348 116.404 251.554 114.992 251.778C113.951 251.94 114.062 252.077 113.245 252.276C113.245 252.276 113.146 252.114 114.434 251.479C114.434 251.479 116.788 250.507 116.739 253.348H116.726Z" fill="#2D2A2B"/>
<path d="M118.448 249.212C118.448 249.212 118.3 250.034 116.838 249.86C115.376 249.685 112.923 249.262 112.365 249.324C112.365 249.324 111.944 248.502 114.137 248.353C114.137 248.353 118.969 248.178 118.461 249.212H118.448Z" fill="#2D2A2B"/>
<path d="M124.012 249.212C124.012 249.212 123.603 250.084 124.52 250.408C125.437 250.732 127.481 250.595 128.039 250.183C128.039 250.183 127.122 248.714 124.012 249.199V249.212Z" fill="#2D2A2B"/>
<path d="M123.9 254.145C123.9 254.145 124.383 252.799 126.13 252.874C126.291 252.874 126.44 252.924 126.589 252.999C126.799 253.098 127.01 253.372 127.345 253.821C127.345 253.821 127.27 253.285 126.737 252.588C126.614 252.413 126.403 252.301 126.192 252.289C125.622 252.239 124.544 252.401 123.9 254.145Z" fill="#2D2A2B"/>
<path d="M108.19 253.26C108.19 253.26 107.942 247.917 104.151 249.013C104.151 249.013 99.9508 250.408 103.531 256.773C103.531 256.773 104.956 259.24 107.967 258.816C107.967 258.816 109.057 258.268 108.19 253.26Z" fill="#DD9E73"/>
<path d="M116.098 253.999C116.579 253.49 116.662 252.786 116.285 252.426C115.908 252.066 115.213 252.186 114.732 252.695C114.252 253.204 114.168 253.908 114.545 254.268C114.922 254.629 115.617 254.508 116.098 253.999Z" fill="#2D2A2B"/>
<path d="M126.396 254.802C126.894 254.351 127.034 253.691 126.708 253.328C126.383 252.965 125.716 253.037 125.218 253.489C124.72 253.94 124.58 254.601 124.905 254.963C125.231 255.326 125.898 255.254 126.396 254.802Z" fill="#2D2A2B"/>
<path d="M106.406 256.262C106.344 254.356 106.654 251.143 104.324 250.57C103.99 250.532 103.643 250.694 103.494 251.018C103.308 251.33 103.283 251.716 103.271 252.089C103.221 251.716 103.197 251.33 103.358 250.943C103.506 250.557 103.928 250.308 104.349 250.333C106.926 250.781 106.715 254.282 106.406 256.262Z" fill="#A95636"/>
<path fill-rule="evenodd" clip-rule="evenodd" d="M107.954 254.892C107.954 254.892 107.83 249.299 111.498 247.518L105.117 249.038C105.117 249.038 107.979 248.901 107.954 254.892Z" fill="#2D2A2B"/>
<path d="M105.055 255.291C105.861 254.655 105.972 253.621 106.282 252.687C106.418 253.646 106.121 255.029 105.055 255.291Z" fill="#A95636"/>
<path opacity="0.51" d="M105.546 256.137C106.355 255.931 106.691 254.493 106.296 252.926C105.9 251.359 104.924 250.256 104.115 250.462C103.305 250.668 102.97 252.106 103.365 253.673C103.76 255.24 104.737 256.343 105.546 256.137Z" fill="#CA664B"/>
<path d="M116.825 259.962C116.825 259.962 117.234 262.316 119.985 262.08L119.886 261.781C119.886 261.781 117.841 262.092 116.974 259.8L116.813 259.949L116.825 259.962Z" fill="#A95636"/>
<path d="M117.371 311.332C117.371 311.332 115.673 315.194 118.486 317.025C118.486 317.025 141.519 320.849 149.064 307.807C149.064 307.807 149.795 304.394 146.946 303.198C146.946 303.198 139.425 316.253 117.371 311.332Z" fill="#FFFFFD"/>
<path d="M140.106 254.257C140.106 254.257 139.251 250.969 139.474 250.445C139.697 249.922 141.011 250.483 141.308 251.666C141.605 252.849 140.106 254.257 140.106 254.257Z" fill="#DB8E70"/>
<path d="M138.756 262.03C138.756 262.03 139.128 257.496 139.822 255.141C140.515 252.787 140.924 252.65 142.535 250.121L146.748 250.819C146.748 250.819 147.008 251.604 143.365 251.791L147.008 251.604C147.008 251.604 147.157 252.351 144.282 252.974L147.144 252.364C147.144 252.364 146.116 253.958 145.261 254.606C145.261 254.606 143.848 260.149 141.668 262.827C141.668 262.827 139.239 265.318 138.744 262.042L138.756 262.03Z" fill="#DD9E73"/>
<path d="M144.616 252.426C144.145 253.422 143.538 254.344 142.782 255.154C143.253 254.145 143.86 253.248 144.616 252.426Z" fill="#D67B63"/>
<path d="M143.613 251.354C143.129 252.351 142.51 253.248 141.742 254.057C142.225 253.061 142.857 252.164 143.613 251.354Z" fill="#D67B63"/>
<path d="M140.106 254.257L143.762 246.87C143.762 246.87 145.001 247.269 143.353 250.221L140.119 254.257H140.106Z" fill="#DD9E73"/>
<path d="M142.795 249.884C142.287 250.869 141.656 251.765 140.875 252.55C141.383 251.566 142.015 250.669 142.795 249.884Z" fill="#D67B63"/>
<path d="M147.156 252.351C148.829 250.844 150.266 252.177 152.41 253.896L149.275 256.15C149.275 256.15 148.023 256.113 150.7 253.634L148.011 256.113C148.011 256.113 147.429 255.627 149.238 253.31L147.02 256.15C147.02 256.15 145.793 256.1 147.9 252.837" fill="#DD9E73"/>
<path d="M149.102 255.34C149.746 254.444 150.502 253.659 151.394 252.986C150.75 253.883 149.994 254.668 149.102 255.34Z" fill="#D67B63"/>
<path d="M149.795 252.052C149.287 253.036 148.655 253.933 147.875 254.718C148.383 253.734 149.014 252.837 149.795 252.052Z" fill="#D67B63"/>
<path d="M148.693 251.691L146.649 254.73C146.649 254.73 145.41 254.344 147.751 251.579L148.693 251.691Z" fill="#DD9E73"/>
<path d="M188.515 364.945L191.352 369.343L206.493 358.107C207.174 357.596 206.691 356.512 205.861 356.687L193.471 359.265" fill="#FFCB08"/>
<path d="M196.902 358.804C196.902 358.804 197.844 359.228 198.24 359.901" stroke="white" stroke-width="0.24" stroke-miterlimit="10"/>
<path d="M197.175 358.792C197.175 358.792 198.736 358.555 199.591 358.891" stroke="white" stroke-width="0.24" stroke-miterlimit="10"/>
<path d="M196.903 358.804C196.903 358.804 193.917 359.925 194.437 361.458C194.958 362.99 196.866 362.878 196.903 358.804Z" stroke="white" stroke-width="0.24" stroke-miterlimit="10"/>
<path d="M196.679 358.804C196.679 358.804 199.665 357.733 199.281 356.786C198.897 355.84 197.026 356.139 196.679 358.804Z" stroke="white" stroke-width="0.24" stroke-miterlimit="10"/>
<path d="M89.3568 360.087L85.2681 362.167L93.5942 376.492C93.9659 377.14 94.9571 376.816 94.8828 376.069L93.8048 364.958" fill="#FFCB08"/>
<path d="M94.065 368.159C94.065 368.159 93.5818 368.981 92.9375 369.28" stroke="white" stroke-width="0.25" stroke-miterlimit="10"/>
<path d="M94.0424 368.408C94.0424 368.408 94.1047 369.865 93.7061 370.638" stroke="white" stroke-width="0.25" stroke-miterlimit="10"/>
<path d="M94.065 368.159C94.065 368.159 93.334 365.282 91.8844 365.618C90.4347 365.954 90.3356 367.723 94.065 368.159Z" stroke="white" stroke-width="0.25" stroke-miterlimit="10"/>
<path d="M94.0774 367.947C94.0774 367.947 94.7712 370.812 95.6633 370.551C96.5554 370.289 96.4811 368.533 94.0774 367.947Z" stroke="white" stroke-width="0.25" stroke-miterlimit="10"/>
<path d="M119.625 274.748C119.625 274.748 134.444 298.951 136.6 310.859L137.975 310.099C137.975 310.099 124.557 279.419 120.22 274.437L119.625 274.76V274.748Z" fill="#114C97"/>
<path d="M113.753 273.265C113.753 273.265 113.084 271.933 111.857 272.817C110.63 273.701 108.053 275.919 109.218 276.953C110.383 277.986 115.239 280.092 119.625 274.773C119.625 274.773 115.76 275.732 113.753 273.265Z" fill="#114C97"/>
<path d="M121.199 270.214C121.199 270.214 120.766 269.528 121.943 269.641C123.442 269.778 125.263 269.939 125.313 271.497C125.362 273.054 123.888 274.748 119.613 274.748C119.613 274.748 121.806 273.34 121.199 270.214Z" fill="#114C97"/>
<path d="M109.986 293.32C115.14 294.167 118.411 293.681 128.039 293.171C128.039 293.171 133.738 291.9 137.405 292.037C139.611 292.112 141.779 290.418 142.275 288.238C142.275 288.201 142.287 288.163 142.3 288.126C142.746 286.145 141.655 284.389 139.735 284.04C137.975 283.729 135.646 283.23 133.292 282.533C128.212 281.026 124.235 281.262 117.879 280.253C117.631 280.216 115.215 279.967 114.05 279.867C113.678 279.83 113.307 279.867 112.923 279.929L109.218 276.94C103.717 276.915 102.688 284.177 103.271 286.369C103.68 287.939 106.021 292.66 109.986 293.308V293.32Z" fill="#114C97"/>
<path d="M142.399 287.216C144.517 282.595 145.187 276.604 144.84 267.946C144.84 267.946 144.902 258.629 145.372 256.785C145.372 256.785 139.946 255.926 138.174 256.561C138.174 256.561 137.591 260.883 136.241 265.393C134.791 270.226 134.952 273.801 133.949 279.718C133.899 280.004 133.49 283.504 133.503 283.803L134.023 286.693C134.568 288.836 136.91 291.352 138.942 290.505C140.392 289.895 141.754 288.674 142.411 287.229L142.399 287.216Z" fill="#114C97"/>
<path fill-rule="evenodd" clip-rule="evenodd" d="M135.534 250.707C135.745 250.869 135.955 251.056 136.154 251.23C136.946 252.177 136.885 253.509 136.191 254.257C134.691 255.901 132.944 253.945 132.028 252.849C131.148 251.79 130.144 250.894 128.868 250.545C129.029 250.196 129.19 249.847 129.351 249.498C130.132 249.474 130.913 249.461 131.681 249.449C132.536 249.636 133.391 249.822 134.245 250.022C134.679 250.246 135.1 250.483 135.534 250.707Z" fill="#F89A1C"/>
<path fill-rule="evenodd" clip-rule="evenodd" d="M129.673 247.705C131.098 230.54 101.473 229.817 105.116 249.038C105.537 249.075 105.959 249.112 106.38 249.137C107.941 249.249 109.936 247.406 111.497 247.518C113.876 247.244 115.821 248.913 118.188 248.627C121.297 248.489 124.407 248.365 127.517 248.228C128.236 248.054 128.942 247.879 129.661 247.705H129.673Z" fill="#114C97"/>
<path fill-rule="evenodd" clip-rule="evenodd" d="M116.181 234.737C109.552 234.986 103.333 239.62 105.129 249.037C105.55 249.075 105.972 249.112 106.393 249.137C107.954 249.249 109.565 247.63 111.113 247.742L111.473 247.692C111.522 247.107 111.498 248.215 111.498 247.518C111.398 237.415 115.995 234.837 116.181 234.737Z" fill="#1A4276"/>
<path fill-rule="evenodd" clip-rule="evenodd" d="M117.135 234.115H115.896C115.71 234.115 115.561 234.276 115.561 234.463C115.561 234.638 115.722 234.787 115.908 234.787H117.159C117.345 234.787 117.494 234.625 117.481 234.451C117.481 234.264 117.32 234.115 117.135 234.115Z" fill="#FFCB08"/>
<path fill-rule="evenodd" clip-rule="evenodd" d="M111.93 247.867C117.952 247.007 123.974 246.422 130.107 248.041C132.275 248.763 134.418 249.61 136.153 251.242C133.13 250.171 130.677 250.32 128.508 251.155C121.681 253.945 117.271 254.767 111.93 247.867Z" fill="#F9D973"/>
<path fill-rule="evenodd" clip-rule="evenodd" d="M111.497 247.518C117.519 246.658 123.54 246.073 129.673 247.705C131.829 248.427 133.873 249.386 135.695 250.844C132.684 249.772 130.243 249.997 128.063 250.831C121.236 253.609 116.825 254.444 111.485 247.53L111.497 247.518Z" fill="#FFCB08"/>
</g>
<defs>
<linearGradient id="paint0_linear_2_12363" x1="172.5" y1="0" x2="172.5" y2="437" gradientUnits="userSpaceOnUse">
<stop stop-color="#BCD9FF"/>
<stop offset="1" stop-color="#D9D9D9" stop-opacity="0"/>
</linearGradient>
<linearGradient id="paint1_linear_2_12363" x1="48.1611" y1="430" x2="255.826" y2="508.264" gradientUnits="userSpaceOnUse">
<stop offset="0.348066" stop-color="#216BC9"/>
<stop offset="0.738047" stop-color="#4D89D4"/>
</linearGradient>
<linearGradient id="paint2_linear_2_12363" x1="162.406" y1="358.175" x2="162.406" y2="655.736" gradientUnits="userSpaceOnUse">
<stop stop-color="#2DC469"/>
<stop offset="1" stop-color="#6EF1A2"/>
</linearGradient>
<linearGradient id="paint3_linear_2_12363" x1="193.452" y1="356.724" x2="193.452" y2="373.013" gradientUnits="userSpaceOnUse">
<stop stop-color="#0ABA50"/>
<stop offset="1" stop-color="#3DED83"/>
</linearGradient>
<linearGradient id="paint4_linear_2_12363" x1="228.626" y1="365.496" x2="228.626" y2="369.488" gradientUnits="userSpaceOnUse">
<stop stop-color="#2DC469"/>
<stop offset="1" stop-color="#6EF1A2"/>
</linearGradient>
<linearGradient id="paint5_linear_2_12363" x1="276.437" y1="394.5" x2="295.449" y2="415.899" gradientUnits="userSpaceOnUse">
<stop offset="0.12601" stop-color="#2DC469"/>
<stop offset="1" stop-color="#6EF1A2"/>
</linearGradient>
<linearGradient id="paint6_linear_2_12363" x1="292.849" y1="465" x2="313.739" y2="463.516" gradientUnits="userSpaceOnUse">
<stop stop-color="#2DC469"/>
<stop offset="1" stop-color="#6EF1A2"/>
</linearGradient>
</defs>
</svg>
