<svg width="343" height="72" viewBox="0 0 343 72" fill="none" xmlns="http://www.w3.org/2000/svg">
<mask id="mask0_188_548" style="mask-type:alpha" maskUnits="userSpaceOnUse" x="0" y="0" width="343" height="72">
<rect width="343" height="72" rx="8" fill="white"/>
</mask>
<g mask="url(#mask0_188_548)">
<g opacity="0.65" filter="url(#filter0_f_188_548)">
<path d="M294.517 82.5888C294.517 84.1347 293.263 85.388 291.716 85.388C290.169 85.388 288.915 84.1347 288.915 82.5888C288.915 81.0428 290.169 79.7895 291.716 79.7895C293.263 79.7895 294.517 81.0428 294.517 82.5888Z" fill="#FFD539"/>
<path d="M284.931 76.5805C286.24 77.2473 286.761 78.8486 286.093 80.1572C285.426 81.4659 283.824 81.9862 282.515 81.3194C281.205 80.6526 280.684 79.0513 281.352 77.7427C282.019 76.4341 283.621 75.9138 284.931 76.5805Z" fill="#FFD539"/>
<path d="M282.738 85.5888C283.971 84.7889 285.619 85.139 286.419 86.3707C287.22 87.6025 286.869 89.2494 285.637 90.0493C284.404 90.8492 282.756 90.4992 281.956 89.2674C281.156 88.0357 281.506 86.3887 282.738 85.5888Z" fill="#FFD539"/>
<path d="M289.367 92.0887C289.29 90.622 290.417 89.3707 291.885 89.2939C293.353 89.217 294.605 90.3437 294.682 91.8103C294.758 93.277 293.631 94.5283 292.164 94.6051C290.696 94.682 289.444 93.5554 289.367 92.0887Z" fill="#FFD539"/>
<path d="M298.282 89.5194C296.972 88.8526 296.452 87.2513 297.119 85.9427C297.786 84.6341 299.388 84.1138 300.698 84.7805C302.007 85.4473 302.528 87.0487 301.861 88.3573C301.193 89.6659 299.591 90.1862 298.282 89.5194Z" fill="#FFD539"/>
<path d="M300.55 80.5071C299.317 81.307 297.67 80.957 296.869 79.7252C296.069 78.4935 296.419 76.8465 297.652 76.0466C298.884 75.2467 300.532 75.5968 301.332 76.8285C302.133 78.0603 301.783 79.7072 300.55 80.5071Z" fill="#FFD539"/>
<path d="M293.904 74.0641C293.981 75.5308 292.853 76.7821 291.386 76.8589C289.918 76.9358 288.666 75.8091 288.589 74.3425C288.512 72.8758 289.64 71.6245 291.107 71.5476C292.575 71.4708 293.827 72.5974 293.904 74.0641Z" fill="#FFD539"/>
<path d="M283.54 67.5512C284.358 68.6768 284.108 70.2523 282.982 71.0701C281.856 71.888 280.279 71.6384 279.461 70.5128C278.642 69.3871 278.892 67.8116 280.018 66.9938C281.145 66.176 282.721 66.4255 283.54 67.5512Z" fill="#FFD539"/>
<path d="M276.862 73.6566C278.134 74.2225 278.706 75.7117 278.14 76.9828C277.574 78.2539 276.084 78.8256 274.812 78.2596C273.54 77.6937 272.968 76.2045 273.534 74.9334C274.1 73.6623 275.591 73.0907 276.862 73.6566Z" fill="#FFD539"/>
<path d="M274.165 82.3054C275.55 82.16 276.79 83.1639 276.936 84.5476C277.081 85.9314 276.077 87.171 274.692 87.3165C273.308 87.4619 272.067 86.4581 271.922 85.0743C271.776 83.6905 272.781 82.4509 274.165 82.3054Z" fill="#FFD539"/>
<path d="M276.087 91.1123C277.213 90.2944 278.79 90.544 279.608 91.6696C280.426 92.7953 280.177 94.3708 279.05 95.1886C277.924 96.0065 276.347 95.7569 275.529 94.6313C274.711 93.5056 274.96 91.9301 276.087 91.1123Z" fill="#FFD539"/>
<path d="M282.196 97.7853C282.762 96.5142 284.252 95.9425 285.524 96.5085C286.796 97.0744 287.368 98.5636 286.802 99.8347C286.236 101.106 284.745 101.677 283.474 101.111C282.202 100.546 281.63 99.0564 282.196 97.7853Z" fill="#FFD539"/>
<path d="M290.856 100.536C290.711 99.1526 291.715 97.913 293.1 97.7675C294.484 97.6221 295.725 98.6259 295.87 100.01C296.016 101.393 295.011 102.633 293.627 102.779C292.242 102.924 291.002 101.92 290.856 100.536Z" fill="#FFD539"/>
<path d="M299.663 98.5605C298.844 97.4349 299.094 95.8594 300.22 95.0415C301.347 94.2237 302.923 94.4732 303.741 95.5989C304.56 96.7246 304.31 98.3001 303.184 99.1179C302.057 99.9357 300.481 99.6862 299.663 98.5605Z" fill="#FFD539"/>
<path d="M306.34 92.4551C305.068 91.8892 304.496 90.4 305.062 89.1289C305.628 87.8578 307.118 87.2861 308.39 87.8521C309.662 88.418 310.234 89.9072 309.668 91.1783C309.102 92.4494 307.612 93.021 306.34 92.4551Z" fill="#FFD539"/>
<path d="M309.098 83.856C307.714 84.0014 306.473 82.9975 306.328 81.6138C306.182 80.23 307.187 78.9904 308.571 78.8449C309.956 78.6995 311.196 79.7033 311.342 81.0871C311.487 82.4709 310.483 83.7105 309.098 83.856Z" fill="#FFD539"/>
<path d="M307.115 74.9994C305.989 75.8172 304.413 75.5677 303.594 74.442C302.776 73.3164 303.026 71.7409 304.152 70.9231C305.278 70.1052 306.855 70.3548 307.673 71.4804C308.491 72.6061 308.242 74.1816 307.115 74.9994Z" fill="#FFD539"/>
<path d="M301.006 68.3264C300.44 69.5975 298.95 70.1692 297.678 69.6032C296.406 69.0373 295.834 67.5481 296.4 66.277C296.967 65.0059 298.457 64.4343 299.729 65.0002C301 65.5661 301.572 67.0553 301.006 68.3264Z" fill="#FFD539"/>
<path d="M292.408 65.625C292.553 67.0088 291.549 68.2484 290.164 68.3939C288.779 68.5393 287.539 67.5355 287.393 66.1517C287.248 64.7679 288.252 63.5283 289.637 63.3828C291.022 63.2374 292.262 64.2413 292.408 65.625Z" fill="#FFD539"/>
<path d="M281.295 59.4194C281.933 60.5687 281.517 62.0169 280.367 62.654C279.217 63.2911 277.768 62.8758 277.131 61.7265C276.493 60.5772 276.909 59.129 278.059 58.4919C279.209 57.8548 280.658 58.2701 281.295 59.4194Z" fill="#FFD539"/>
<path d="M273.813 64.3605C274.805 65.2226 274.91 66.7255 274.048 67.7172C273.185 68.709 271.681 68.8141 270.689 67.952C269.697 67.0899 269.591 65.587 270.454 64.5952C271.317 63.6035 272.821 63.4984 273.813 64.3605Z" fill="#FFD539"/>
<path d="M268.489 71.5677C269.717 72.0387 270.33 73.4149 269.859 74.6417C269.388 75.8685 268.011 76.4813 266.783 76.0104C265.555 75.5395 264.942 74.1632 265.414 72.9364C265.885 71.7096 267.262 71.0968 268.489 71.5677Z" fill="#FFD539"/>
<path d="M265.967 80.1718C267.282 80.1947 268.329 81.2784 268.306 82.5923C268.283 83.9062 267.199 84.9527 265.884 84.9298C264.57 84.9068 263.522 83.8231 263.545 82.5092C263.568 81.1954 264.653 80.1488 265.967 80.1718Z" fill="#FFD539"/>
<path d="M266.547 89.1087C267.79 88.6809 269.145 89.3413 269.573 90.5838C270.001 91.8263 269.34 93.1803 268.097 93.6082C266.854 94.036 265.499 93.3756 265.071 92.1331C264.642 90.8906 265.303 89.5365 266.547 89.1087Z" fill="#FFD539"/>
<path d="M270.082 97.3125C271.104 96.4855 272.603 96.643 273.43 97.6642C274.258 98.6855 274.1 100.184 273.078 101.011C272.057 101.838 270.557 101.68 269.73 100.659C268.902 99.6378 269.06 98.1395 270.082 97.3125Z" fill="#FFD539"/>
<path d="M276.253 103.804C276.93 102.677 278.392 102.313 279.52 102.99C280.647 103.667 281.011 105.128 280.334 106.255C279.657 107.381 278.194 107.746 277.067 107.069C275.94 106.392 275.575 104.93 276.253 103.804Z" fill="#FFD539"/>
<path d="M284.288 107.804C284.539 106.514 285.789 105.671 287.079 105.922C288.37 106.173 289.213 107.422 288.962 108.712C288.711 110.002 287.462 110.844 286.171 110.593C284.88 110.343 284.037 109.094 284.288 107.804Z" fill="#FFD539"/>
<path d="M293.339 108.917C293.134 107.619 294.02 106.4 295.318 106.195C296.617 105.989 297.837 106.875 298.042 108.173C298.248 109.47 297.362 110.689 296.063 110.895C294.765 111.1 293.545 110.215 293.339 108.917Z" fill="#FFD539"/>
<path d="M302.057 106.791C301.42 105.642 301.835 104.194 302.986 103.557C304.136 102.92 305.585 103.335 306.222 104.484C306.86 105.634 306.444 107.082 305.294 107.719C304.144 108.356 302.695 107.941 302.057 106.791Z" fill="#FFD539"/>
<path d="M309.528 101.814C308.536 100.952 308.431 99.4491 309.293 98.4574C310.156 97.4656 311.66 97.3605 312.652 98.2226C313.644 99.0848 313.75 100.588 312.887 101.579C312.024 102.571 310.521 102.676 309.528 101.814Z" fill="#FFD539"/>
<path d="M314.85 94.5855C313.623 94.1146 313.01 92.7383 313.481 91.5115C313.952 90.2847 315.329 89.672 316.557 90.1429C317.784 90.6138 318.397 91.9901 317.926 93.2169C317.455 94.4437 316.078 95.0564 314.85 94.5855Z" fill="#FFD539"/>
<path d="M317.382 85.9775C316.067 85.9545 315.02 84.8708 315.043 83.557C315.066 82.2431 316.15 81.1966 317.465 81.2195C318.78 81.2424 319.827 82.3261 319.804 83.64C319.781 84.9539 318.697 86.0004 317.382 85.9775Z" fill="#FFD539"/>
<path d="M316.808 77.0213C315.565 77.4491 314.21 76.7887 313.782 75.5462C313.354 74.3037 314.015 72.9497 315.258 72.5218C316.501 72.094 317.856 72.7544 318.284 73.9969C318.712 75.2394 318.051 76.5935 316.808 77.0213Z" fill="#FFD539"/>
<path d="M313.198 68.7973C312.176 69.6242 310.677 69.4668 309.849 68.4455C309.022 67.4243 309.179 65.926 310.201 65.099C311.223 64.2721 312.722 64.4295 313.55 65.4508C314.377 66.472 314.22 67.9703 313.198 68.7973Z" fill="#FFD539"/>
<path d="M306.997 62.3042C306.32 63.4306 304.857 63.795 303.73 63.1182C302.603 62.4414 302.238 60.9797 302.915 59.8533C303.592 58.7269 305.055 58.3624 306.182 59.0392C307.309 59.716 307.674 61.1778 306.997 62.3042Z" fill="#FFD539"/>
<path d="M298.952 58.3253C298.701 59.6152 297.452 60.4577 296.161 60.2069C294.87 59.9562 294.027 58.7072 294.278 57.4173C294.529 56.1273 295.779 55.2849 297.069 55.5356C298.36 55.7864 299.203 57.0353 298.952 58.3253Z" fill="#FFD539"/>
<path d="M290.035 57.3404C290.24 58.6383 289.354 59.8571 288.056 60.0627C286.757 60.2683 285.537 59.3827 285.332 58.0848C285.126 56.7869 286.012 55.5681 287.311 55.3626C288.609 55.157 289.829 56.0425 290.035 57.3404Z" fill="#FFD539"/>
<path d="M278.196 51.6912C278.757 52.7931 278.319 54.1416 277.216 54.7031C276.114 55.2646 274.764 54.8265 274.202 53.7245C273.641 52.6225 274.079 51.274 275.182 50.7125C276.284 50.151 277.634 50.5892 278.196 51.6912Z" fill="#FFD539"/>
<path d="M270.51 56.2477C271.338 57.1668 271.264 58.5827 270.344 59.4103C269.424 60.2379 268.008 60.1637 267.18 59.2446C266.351 58.3255 266.426 56.9095 267.345 56.0819C268.265 55.2544 269.682 55.3286 270.51 56.2477Z" fill="#FFD539"/>
<path d="M264.27 62.6375C265.307 63.3111 265.602 64.698 264.928 65.7352C264.254 66.7725 262.867 67.0673 261.829 66.3937C260.791 65.7201 260.496 64.3332 261.17 63.2959C261.844 62.2587 263.232 61.9639 264.27 62.6375Z" fill="#FFD539"/>
<path d="M259.9 70.425C261.077 70.8072 261.721 72.0706 261.338 73.2468C260.956 74.4231 259.692 75.0668 258.515 74.6846C257.338 74.3024 256.694 73.0391 257.076 71.8628C257.458 70.6866 258.723 70.0429 259.9 70.425Z" fill="#FFD539"/>
<path d="M257.698 79.0797C258.934 79.1444 259.883 80.1982 259.818 81.4332C259.753 82.6683 258.699 83.6171 257.463 83.5524C256.227 83.4876 255.278 82.4339 255.343 81.1988C255.408 79.9637 256.462 79.015 257.698 79.0797Z" fill="#FFD539"/>
<path d="M257.814 88.0117C259.025 87.7545 260.215 88.5268 260.472 89.7365C260.729 90.9463 259.956 92.1355 258.746 92.3926C257.535 92.6498 256.346 91.8775 256.088 90.6677C255.831 89.458 256.604 88.2688 257.814 88.0117Z" fill="#FFD539"/>
<path d="M258.641 91.6602C259.744 91.0987 261.093 91.5368 261.655 92.6388C262.217 93.7408 261.778 95.0893 260.675 95.6508C259.573 96.2123 258.223 95.7741 257.662 94.6722C257.1 93.5702 257.538 92.2217 258.641 91.6602Z" fill="#FFD539"/>
<path d="M261.523 99.0814C262.442 98.2538 263.859 98.328 264.687 99.2471C265.515 100.166 265.441 101.582 264.521 102.41C263.602 103.237 262.185 103.163 261.357 102.244C260.529 101.325 260.603 99.9089 261.523 99.0814Z" fill="#FFD539"/>
<path d="M267.019 105.298C267.693 104.261 269.081 103.966 270.119 104.64C271.156 105.314 271.451 106.701 270.777 107.738C270.103 108.775 268.716 109.07 267.678 108.396C266.64 107.723 266.345 106.336 267.019 105.298Z" fill="#FFD539"/>
<path d="M274.198 110.006C274.581 108.83 275.845 108.186 277.022 108.568C278.199 108.95 278.843 110.214 278.46 111.39C278.078 112.566 276.814 113.21 275.637 112.828C274.46 112.446 273.816 111.182 274.198 110.006Z" fill="#FFD539"/>
<path d="M282.571 112.883C282.636 111.648 283.691 110.7 284.926 110.764C286.162 110.829 287.112 111.883 287.047 113.118C286.982 114.353 285.928 115.302 284.692 115.237C283.456 115.172 282.507 114.118 282.571 112.883Z" fill="#FFD539"/>
<path d="M291.568 113.734C291.31 112.525 292.083 111.335 293.294 111.078C294.504 110.821 295.694 111.593 295.951 112.803C296.209 114.013 295.436 115.202 294.225 115.459C293.015 115.716 291.825 114.944 291.568 113.734Z" fill="#FFD539"/>
<path d="M299.264 111.651C298.702 110.549 299.141 109.2 300.243 108.639C301.346 108.077 302.695 108.515 303.257 109.617C303.819 110.719 303.381 112.068 302.278 112.629C301.175 113.191 299.826 112.753 299.264 111.651Z" fill="#FFD539"/>
<path d="M306.446 107.625C305.618 106.706 305.692 105.29 306.612 104.462C307.532 103.635 308.949 103.709 309.777 104.628C310.605 105.547 310.531 106.963 309.611 107.791C308.691 108.618 307.274 108.544 306.446 107.625Z" fill="#FFD539"/>
<path d="M312.624 101.931C311.587 101.257 311.292 99.8704 311.966 98.8332C312.64 97.7959 314.027 97.5011 315.065 98.1747C316.103 98.8483 316.398 100.235 315.724 101.273C315.05 102.31 313.662 102.605 312.624 101.931Z" fill="#FFD539"/>
<path d="M317.378 94.9571C316.201 94.5749 315.557 93.3115 315.939 92.1353C316.321 90.959 317.586 90.3153 318.763 90.6975C319.94 91.0797 320.584 92.3431 320.201 93.5193C319.819 94.6956 318.555 95.3393 317.378 94.9571Z" fill="#FFD539"/>
<path d="M320.382 87.1785C319.146 87.1137 318.197 86.06 318.262 84.8249C318.327 83.5898 319.381 82.6411 320.617 82.7058C321.853 82.7705 322.802 83.8242 322.737 85.0593C322.672 86.2944 321.618 87.2432 320.382 87.1785Z" fill="#FFD539"/>
<path d="M321.433 79.1252C320.223 79.3823 319.033 78.6101 318.775 77.4003C318.518 76.1906 319.291 75.0014 320.501 74.7443C321.712 74.4871 322.902 75.2594 323.159 76.4691C323.416 77.6789 322.644 78.868 321.433 79.1252Z" fill="#FFD539"/>
<path d="M319.149 70.496C318.046 71.0575 316.697 70.6194 316.135 69.5174C315.573 68.4154 316.012 67.0669 317.114 66.5054C318.217 65.9439 319.566 66.3821 320.128 67.484C320.69 68.586 320.252 69.9345 319.149 70.496Z" fill="#FFD539"/>
<path d="M314.995 62.7291C314.075 63.5567 312.659 63.4825 311.83 62.5634C311.002 61.6443 311.077 60.2283 311.996 59.4007C312.916 58.5732 314.333 58.6474 315.161 59.5665C315.989 60.4856 315.915 61.9015 314.995 62.7291Z" fill="#FFD539"/>
<path d="M309.255 56.3538C308.581 57.391 307.193 57.6858 306.155 57.0122C305.117 56.3386 304.822 54.9517 305.496 53.9144C306.17 52.8772 307.558 52.5824 308.596 53.256C309.634 53.9296 309.929 55.3165 309.255 56.3538Z" fill="#FFD539"/>
<path d="M302.319 51.8044C301.937 52.9807 300.673 53.6244 299.496 53.2422C298.319 52.86 297.675 51.5967 298.057 50.4204C298.44 49.2441 299.704 48.6004 300.881 48.9826C302.058 49.3648 302.702 50.6282 302.319 51.8044Z" fill="#FFD539"/>
<path d="M294.661 49.3912C294.596 50.6262 293.542 51.575 292.306 51.5103C291.07 51.4456 290.121 50.3918 290.186 49.1568C290.251 47.9217 291.305 46.9729 292.541 47.0376C293.777 47.1024 294.726 48.1561 294.661 49.3912Z" fill="#FFD539"/>
<path d="M286.802 49.2784C287.06 50.4881 286.287 51.6773 285.076 51.9344C283.866 52.1916 282.676 51.4193 282.419 50.2096C282.161 48.9998 282.934 47.8107 284.145 47.5535C285.355 47.2964 286.545 48.0686 286.802 49.2784Z" fill="#FFD539"/>
<path d="M274.153 43.8894C274.68 44.9225 274.269 46.1867 273.235 46.7131C272.201 47.2395 270.936 46.8288 270.409 45.7956C269.883 44.7625 270.294 43.4983 271.327 42.9719C272.361 42.4455 273.626 42.8563 274.153 43.8894Z" fill="#FFD539"/>
<path d="M266.106 47.0856C266.836 47.9867 266.697 49.3087 265.795 50.0384C264.893 50.7681 263.571 50.6291 262.841 49.728C262.11 48.8269 262.249 47.5049 263.151 46.7752C264.053 46.0456 265.376 46.1845 266.106 47.0856Z" fill="#FFD539"/>
<path d="M259.301 52.3193C260.203 53.049 260.342 54.371 259.612 55.2721C258.882 56.1732 257.559 56.3121 256.657 55.5824C255.756 54.8527 255.617 53.5307 256.347 52.6296C257.077 51.7285 258.4 51.5896 259.301 52.3193Z" fill="#FFD539"/>
<path d="M253.914 58.9003C254.948 59.4267 255.359 60.691 254.832 61.7241C254.305 62.7572 253.04 63.168 252.007 62.6416C250.973 62.1152 250.562 60.8509 251.089 59.8178C251.615 58.7847 252.88 58.3739 253.914 58.9003Z" fill="#FFD539"/>
<path d="M250.179 66.5412C251.299 66.8413 251.964 67.9925 251.664 69.1124C251.364 70.2324 250.212 70.8971 249.091 70.597C247.971 70.2969 247.305 69.1457 247.606 68.0257C247.906 66.9057 249.058 66.2411 250.179 66.5412Z" fill="#FFD539"/>
<path d="M248.259 74.9078C249.417 74.9685 250.307 75.9564 250.246 77.1143C250.186 78.2721 249.197 79.1616 248.039 79.1009C246.88 79.0403 245.99 78.0524 246.051 76.8945C246.111 75.7366 247.1 74.8471 248.259 74.9078Z" fill="#FFD539"/>
<path d="M248.238 83.6346C249.384 83.4533 250.46 84.2346 250.641 85.3798C250.823 86.525 250.041 87.6004 248.895 87.7818C247.749 87.9632 246.673 87.1819 246.492 86.0367C246.31 84.8914 247.092 83.816 248.238 83.6346Z" fill="#FFD539"/>
<path d="M250.002 91.9097C251.085 91.4941 252.3 92.0348 252.716 93.1173C253.132 94.1998 252.591 95.4141 251.507 95.8297C250.424 96.2452 249.209 95.7045 248.793 94.622C248.378 93.5396 248.919 92.3252 250.002 91.9097Z" fill="#FFD539"/>
<path d="M252.2 99.7123C253.173 99.0808 254.474 99.3572 255.106 100.33C255.738 101.302 255.461 102.602 254.488 103.234C253.515 103.865 252.214 103.589 251.582 102.616C250.95 101.644 251.227 100.344 252.2 99.7123Z" fill="#FFD539"/>
<path d="M256.556 106.676C257.376 105.856 258.706 105.856 259.527 106.676C260.347 107.496 260.347 108.825 259.527 109.645C258.706 110.465 257.376 110.465 256.556 109.645C255.735 108.825 255.735 107.496 256.556 106.676Z" fill="#FFD539"/>
<path d="M262.448 112.611C263.08 111.638 264.381 111.362 265.354 111.993C266.327 112.625 266.604 113.925 265.972 114.898C265.34 115.87 264.039 116.146 263.066 115.515C262.093 114.883 261.816 113.583 262.448 112.611Z" fill="#FFD539"/>
<path d="M269.62 117.258C270.036 116.176 271.251 115.635 272.334 116.051C273.417 116.466 273.958 117.68 273.542 118.763C273.127 119.845 271.911 120.386 270.828 119.971C269.745 119.555 269.204 118.341 269.62 117.258Z" fill="#FFD539"/>
<path d="M276.118 119.025C276.3 117.88 277.376 117.098 278.522 117.28C279.668 117.461 280.45 118.537 280.268 119.682C280.087 120.827 279.01 121.608 277.865 121.427C276.719 121.246 275.937 120.17 276.118 119.025Z" fill="#FFD539"/>
<path d="M284.829 120.749C284.768 119.591 285.658 118.603 286.817 118.542C287.975 118.482 288.964 119.371 289.024 120.529C289.085 121.687 288.195 122.675 287.036 122.735C285.878 122.796 284.889 121.907 284.829 120.749Z" fill="#FFD539"/>
<path d="M293.84 120.829C293.54 119.709 294.205 118.558 295.325 118.258C296.446 117.958 297.598 118.623 297.898 119.743C298.199 120.862 297.534 122.014 296.413 122.314C295.292 122.614 294.14 121.949 293.84 120.829Z" fill="#FFD539"/>
<path d="M301.331 118.439C300.804 117.406 301.215 116.142 302.249 115.616C303.283 115.089 304.548 115.5 305.075 116.533C305.601 117.566 305.19 118.83 304.156 119.357C303.123 119.883 301.858 119.472 301.331 118.439Z" fill="#FFD539"/>
<path d="M308.402 114.507C307.672 113.606 307.811 112.284 308.712 111.554C309.614 110.825 310.937 110.963 311.667 111.865C312.397 112.766 312.258 114.088 311.356 114.817C310.455 115.547 309.132 115.408 308.402 114.507Z" fill="#FFD539"/>
<path d="M314.743 109.204C313.842 108.475 313.703 107.153 314.433 106.251C315.163 105.35 316.486 105.211 317.387 105.941C318.289 106.671 318.428 107.993 317.698 108.894C316.968 109.795 315.645 109.934 314.743 109.204Z" fill="#FFD539"/>
<path d="M320.078 102.763C319.045 102.236 318.634 100.972 319.16 99.9389C319.687 98.9058 320.952 98.495 321.986 99.0214C323.02 99.5478 323.431 100.812 322.904 101.845C322.377 102.878 321.112 103.289 320.078 102.763Z" fill="#FFD539"/>
<path d="M324.174 95.4638C323.053 95.1637 322.388 94.0126 322.688 92.8926C322.989 91.7726 324.141 91.108 325.261 91.4081C326.382 91.7081 327.047 92.8594 326.747 93.9793C326.447 95.0993 325.295 95.7639 324.174 95.4638Z" fill="#FFD539"/>
<path d="M326.851 87.6268C325.692 87.5661 324.802 86.5783 324.863 85.4204C324.924 84.2625 325.912 83.373 327.071 83.4337C328.229 83.4944 329.119 84.4822 329.059 85.6401C328.998 86.798 328.01 87.6875 326.851 87.6268Z" fill="#FFD539"/>
<path d="M327.992 79.5941C326.846 79.7755 325.77 78.9941 325.589 77.8489C325.407 76.7037 326.189 75.6283 327.335 75.4469C328.481 75.2655 329.557 76.0468 329.738 77.1921C329.92 78.3373 329.138 79.4127 327.992 79.5941Z" fill="#FFD539"/>
<path d="M326.83 71.3026C325.747 71.7181 324.532 71.1774 324.116 70.095C323.701 69.0125 324.242 67.7981 325.325 67.3826C326.408 66.9671 327.623 67.5077 328.039 68.5902C328.455 69.6727 327.914 70.8871 326.83 71.3026Z" fill="#FFD539"/>
<path d="M323.416 63.1147C322.443 63.7462 321.142 63.4699 320.51 62.4974C319.878 61.525 320.155 60.2248 321.128 59.5933C322.101 58.9618 323.402 59.2381 324.034 60.2106C324.666 61.183 324.389 62.4832 323.416 63.1147Z" fill="#FFD539"/>
<path d="M318.617 55.8025C317.796 56.6223 316.466 56.6223 315.646 55.8025C314.825 54.9826 314.825 53.6533 315.646 52.8334C316.466 52.0135 317.796 52.0135 318.617 52.8334C319.437 53.6533 319.437 54.9826 318.617 55.8025Z" fill="#FFD539"/>
<path d="M312.641 49.6853C312.01 50.6578 310.708 50.9341 309.735 50.3026C308.762 49.6711 308.486 48.3709 309.118 47.3985C309.75 46.4261 311.051 46.1497 312.024 46.7812C312.997 47.4127 313.273 48.7129 312.641 49.6853Z" fill="#FFD539"/>
<path d="M305.752 45.0307C305.336 46.1132 304.121 46.6539 303.038 46.2384C301.954 45.8228 301.413 44.6085 301.829 43.526C302.245 42.4435 303.46 41.9029 304.543 42.3184C305.626 42.7339 306.167 43.9483 305.752 45.0307Z" fill="#FFD539"/>
<path d="M298.248 42.0421C298.067 43.1873 296.991 43.9686 295.845 43.7872C294.699 43.6059 293.917 42.5304 294.098 41.3852C294.28 40.24 295.356 39.4587 296.502 39.6401C297.648 39.8214 298.43 40.8969 298.248 42.0421Z" fill="#FFD539"/>
<path d="M290.459 40.85C290.52 42.0078 289.63 42.9957 288.472 43.0564C287.313 43.1171 286.324 42.2276 286.264 41.0697C286.203 39.9118 287.093 38.924 288.252 38.8633C289.41 38.8026 290.399 39.6921 290.459 40.85Z" fill="#FFD539"/>
<path d="M282.726 41.5065C283.026 42.6264 282.361 43.7776 281.24 44.0777C280.119 44.3778 278.967 43.7132 278.667 42.5932C278.367 41.4732 279.032 40.322 280.153 40.0219C281.273 39.7218 282.425 40.3865 282.726 41.5065Z" fill="#FFD539"/>
<path d="M269.412 36.9315C269.92 37.887 269.557 39.0735 268.601 39.5815C267.645 40.0896 266.458 39.7269 265.95 38.7713C265.441 37.8158 265.804 36.6294 266.76 36.1213C267.716 35.6133 268.904 35.976 269.412 36.9315Z" fill="#FFD539"/>
<path d="M261.341 40.152C262.008 41.0048 261.856 42.2362 261.003 42.9024C260.15 43.5687 258.918 43.4175 258.251 42.5647C257.584 41.712 257.736 40.4805 258.589 39.8143C259.442 39.148 260.674 39.2992 261.341 40.152Z" fill="#FFD539"/>
<path d="M254.362 45.1993C255.167 45.9235 255.232 47.1624 254.507 47.9666C253.783 48.7709 252.543 48.8358 251.738 48.1117C250.934 47.3875 250.869 46.1486 251.593 45.3444C252.318 44.5401 253.557 44.4752 254.362 45.1993Z" fill="#FFD539"/>
<path d="M248.518 51.3997C249.437 51.9732 249.716 53.1821 249.142 54.0998C248.568 55.0176 247.359 55.2966 246.44 54.7232C245.522 54.1497 245.243 52.9408 245.817 52.0231C246.39 51.1053 247.6 50.8262 248.518 51.3997Z" fill="#FFD539"/>
<path d="M243.987 58.5648C244.991 58.9702 245.476 60.1122 245.071 61.1156C244.665 62.119 243.522 62.6038 242.518 62.1984C241.514 61.793 241.029 60.6509 241.435 59.6475C241.84 58.6442 242.983 58.1594 243.987 58.5648Z" fill="#FFD539"/>
<path d="M240.906 66.4768C241.965 66.7018 242.641 67.7424 242.416 68.8009C242.191 69.8594 241.15 70.5351 240.091 70.3101C239.031 70.0851 238.355 69.0446 238.58 67.9861C238.806 66.9276 239.847 66.2518 240.906 66.4768Z" fill="#FFD539"/>
<path d="M239.369 74.8954C240.451 74.9332 241.298 75.8406 241.26 76.9221C241.222 78.0036 240.314 78.8498 239.232 78.812C238.15 78.7742 237.303 77.8669 237.341 76.7853C237.379 75.7038 238.286 74.8577 239.369 74.8954Z" fill="#FFD539"/>
<path d="M239.422 83.5648C240.494 83.4142 241.486 84.1608 241.636 85.2325C241.787 86.3042 241.04 87.295 239.968 87.4456C238.895 87.5962 237.904 86.8496 237.753 85.7779C237.602 84.7063 238.35 83.7154 239.422 83.5648Z" fill="#FFD539"/>
<path d="M241.064 92.2215C242.094 91.8871 243.2 92.4504 243.535 93.4796C243.869 94.5088 243.306 95.6142 242.276 95.9487C241.246 96.2831 240.14 95.7198 239.805 94.6906C239.471 93.6614 240.034 92.5559 241.064 92.2215Z" fill="#FFD539"/>
<path d="M243.659 99.87C244.616 99.3619 245.803 99.7247 246.311 100.68C246.82 101.636 246.457 102.822 245.5 103.33C244.544 103.838 243.357 103.476 242.849 102.52C242.34 101.565 242.703 100.378 243.659 99.87Z" fill="#FFD539"/>
<path d="M246.689 107.343C247.543 106.677 248.775 106.828 249.442 107.681C250.108 108.534 249.957 109.765 249.104 110.432C248.25 111.098 247.018 110.947 246.351 110.094C245.685 109.241 245.836 108.01 246.689 107.343Z" fill="#FFD539"/>
<path d="M251.608 113.913C252.333 113.108 253.572 113.044 254.377 113.768C255.182 114.492 255.247 115.731 254.522 116.535C253.798 117.339 252.558 117.404 251.753 116.68C250.948 115.956 250.883 114.717 251.608 113.913Z" fill="#FFD539"/>
<path d="M257.745 119.547C258.319 118.629 259.529 118.35 260.447 118.924C261.365 119.497 261.645 120.706 261.071 121.624C260.497 122.542 259.287 122.821 258.369 122.247C257.451 121.674 257.172 120.465 257.745 119.547Z" fill="#FFD539"/>
<path d="M264.915 124.076C265.321 123.072 266.463 122.587 267.467 122.993C268.471 123.398 268.956 124.54 268.551 125.544C268.145 126.547 267.002 127.032 265.998 126.626C264.994 126.221 264.509 125.079 264.915 124.076Z" fill="#FFD539"/>
<path d="M272.899 127.361C273.124 126.302 274.165 125.626 275.224 125.851C276.283 126.076 276.96 127.117 276.734 128.175C276.509 129.234 275.468 129.91 274.409 129.685C273.35 129.46 272.674 128.419 272.899 127.361Z" fill="#FFD539"/>
<path d="M281.454 129.302C281.492 128.221 282.4 127.374 283.482 127.412C284.564 127.45 285.411 128.357 285.373 129.439C285.336 130.52 284.428 131.367 283.345 131.329C282.263 131.291 281.417 130.384 281.454 129.302Z" fill="#FFD539"/>
<path d="M290.322 129.841C290.171 128.77 290.918 127.779 291.99 127.628C293.063 127.478 294.054 128.224 294.205 129.296C294.356 130.368 293.609 131.358 292.536 131.509C291.464 131.66 290.472 130.913 290.322 129.841Z" fill="#FFD539"/>
<path d="M299.231 128.962C298.897 127.933 299.46 126.827 300.49 126.493C301.52 126.158 302.626 126.722 302.961 127.751C303.296 128.78 302.732 129.886 301.702 130.22C300.672 130.554 299.566 129.991 299.231 128.962Z" fill="#FFD539"/>
<path d="M306.806 126.127C306.298 125.171 306.661 123.985 307.617 123.477C308.573 122.969 309.76 123.332 310.269 124.287C310.777 125.243 310.414 126.429 309.458 126.937C308.502 127.445 307.315 127.082 306.806 126.127Z" fill="#FFD539"/>
<path d="M313.923 121.986C313.256 121.133 313.407 119.902 314.26 119.236C315.114 118.569 316.346 118.721 317.013 119.573C317.679 120.426 317.528 121.657 316.675 122.324C315.821 122.99 314.589 122.839 313.923 121.986Z" fill="#FFD539"/>
<path d="M320.364 116.665C319.559 115.941 319.494 114.702 320.219 113.898C320.944 113.094 322.183 113.029 322.988 113.753C323.793 114.477 323.858 115.716 323.133 116.52C322.409 117.324 321.169 117.389 320.364 116.665Z" fill="#FFD539"/>
<path d="M325.935 110.326C325.017 109.752 324.738 108.543 325.311 107.626C325.885 106.708 327.095 106.429 328.013 107.002C328.931 107.576 329.211 108.785 328.637 109.702C328.063 110.62 326.853 110.899 325.935 110.326Z" fill="#FFD539"/>
<path d="M330.466 103.161C329.462 102.755 328.977 101.613 329.383 100.61C329.789 99.6065 330.931 99.1218 331.935 99.5272C332.939 99.9326 333.424 101.075 333.019 102.078C332.613 103.081 331.47 103.566 330.466 103.161Z" fill="#FFD539"/>
<path d="M333.82 95.3876C332.761 95.1626 332.085 94.1221 332.31 93.0636C332.535 92.005 333.576 91.3293 334.636 91.5543C335.695 91.7793 336.371 92.8198 336.146 93.8783C335.921 94.9369 334.879 95.6126 333.82 95.3876Z" fill="#FFD539"/>
<path d="M335.895 87.2426C334.813 87.2048 333.966 86.2974 334.004 85.2159C334.042 84.1344 334.95 83.2883 336.032 83.326C337.114 83.3638 337.961 84.2712 337.923 85.3527C337.885 86.4342 336.977 87.2804 335.895 87.2426Z" fill="#FFD539"/>
<path d="M336.627 78.9732C335.555 79.1238 334.563 78.3772 334.413 77.3055C334.262 76.2339 335.009 75.243 336.081 75.0924C337.154 74.9418 338.145 75.6885 338.296 76.7601C338.447 77.8318 337.699 78.8226 336.627 78.9732Z" fill="#FFD539"/>
<path d="M335.995 70.8307C334.965 71.1651 333.859 70.6018 333.524 69.5726C333.189 68.5434 333.753 67.4379 334.783 67.1035C335.813 66.7691 336.919 67.3324 337.253 68.3616C337.588 69.3908 337.024 70.4963 335.995 70.8307Z" fill="#FFD539"/>
<path d="M332.91 62.4989C331.954 63.007 330.767 62.6442 330.259 61.6887C329.75 60.7332 330.113 59.5467 331.069 59.0387C332.025 58.5306 333.213 58.8934 333.721 59.8489C334.229 60.8044 333.866 61.9909 332.91 62.4989Z" fill="#FFD539"/>
<path d="M328.574 54.7946C327.721 55.4609 326.489 55.3097 325.822 54.4569C325.155 53.6041 325.307 52.3727 326.16 51.7064C327.013 51.0402 328.245 51.1914 328.912 52.0441C329.579 52.8969 329.428 54.1283 328.574 54.7946Z" fill="#FFD539"/>
<path d="M323.118 47.9518C322.394 48.756 321.154 48.821 320.349 48.0968C319.544 47.3727 319.48 46.1337 320.204 45.3295C320.929 44.5253 322.168 44.4604 322.973 45.1845C323.778 45.9086 323.843 47.1476 323.118 47.9518Z" fill="#FFD539"/>
<path d="M316.708 42.1785C316.134 43.0962 314.925 43.3753 314.006 42.8018C313.088 42.2283 312.809 41.0195 313.383 40.1017C313.956 39.184 315.166 38.9049 316.084 39.4784C317.003 40.0518 317.282 41.2607 316.708 42.1785Z" fill="#FFD539"/>
<path d="M309.539 37.6499C309.133 38.6533 307.99 39.1381 306.986 38.7327C305.982 38.3273 305.497 37.1853 305.903 36.1819C306.308 35.1785 307.451 34.6937 308.455 35.0991C309.459 35.5045 309.944 36.6466 309.539 37.6499Z" fill="#FFD539"/>
<path d="M301.827 34.5039C301.602 35.5624 300.561 36.2382 299.502 36.0132C298.443 35.7882 297.767 34.7476 297.992 33.6891C298.217 32.6306 299.258 31.9548 300.317 32.1798C301.376 32.4048 302.053 33.4454 301.827 34.5039Z" fill="#FFD539"/>
<path d="M293.809 32.8359C293.771 33.9174 292.863 34.7636 291.781 34.7258C290.699 34.688 289.852 33.7807 289.89 32.6991C289.928 31.6176 290.836 30.7715 291.918 30.8092C293 30.847 293.847 31.7544 293.809 32.8359Z" fill="#FFD539"/>
<path d="M285.727 32.6966C285.878 33.7683 285.131 34.7591 284.059 34.9097C282.986 35.0603 281.995 34.3137 281.844 33.242C281.693 32.1704 282.44 31.1795 283.513 31.0289C284.585 30.8783 285.577 31.625 285.727 32.6966Z" fill="#FFD539"/>
<path d="M277.827 34.0903C278.162 35.1195 277.598 36.225 276.568 36.5594C275.539 36.8938 274.432 36.3305 274.098 35.3013C273.763 34.2721 274.327 33.1666 275.357 32.8322C276.387 32.4978 277.493 33.0611 277.827 34.0903Z" fill="#FFD539"/>
<path d="M263.895 30.3782C264.391 31.2522 264.084 32.3628 263.21 32.8587C262.335 33.3546 261.224 33.0481 260.728 32.1741C260.231 31.3001 260.538 30.1896 261.413 29.6937C262.287 29.1978 263.398 29.5042 263.895 30.3782Z" fill="#FFD539"/>
<path d="M255.938 33.9616C256.559 34.7519 256.421 35.8957 255.631 36.5163C254.84 37.137 253.695 36.9994 253.074 36.2091C252.453 35.4188 252.591 34.275 253.382 33.6543C254.172 33.0337 255.317 33.1712 255.938 33.9616Z" fill="#FFD539"/>
<path d="M248.951 39.0884C249.683 39.7774 249.718 40.9289 249.028 41.6604C248.339 42.3919 247.187 42.4264 246.455 41.7374C245.723 41.0484 245.688 39.8969 246.378 39.1654C247.067 38.4339 248.219 38.3994 248.951 39.0884Z" fill="#FFD539"/>
<path d="M242.92 45.1995C243.747 45.7717 243.952 46.9053 243.38 47.7313C242.807 48.5573 241.673 48.763 240.846 48.1907C240.02 47.6185 239.814 46.4849 240.387 45.6589C240.959 44.8329 242.093 44.6272 242.92 45.1995Z" fill="#FFD539"/>
<path d="M237.979 52.1582C238.881 52.601 239.254 53.6912 238.811 54.5933C238.368 55.4954 237.277 55.8678 236.374 55.425C235.472 54.9822 235.099 53.892 235.542 52.9899C235.985 52.0878 237.076 51.7155 237.979 52.1582Z" fill="#FFD539"/>
<path d="M234.238 59.8093C235.196 60.1127 235.727 61.1352 235.424 62.0932C235.12 63.0512 234.097 63.5819 233.138 63.2785C232.18 62.9752 231.649 61.9526 231.952 60.9946C232.256 60.0366 233.279 59.5059 234.238 59.8093Z" fill="#FFD539"/>
<path d="M231.781 67.9817C232.774 68.1389 233.451 69.071 233.294 70.0635C233.137 71.056 232.204 71.7332 231.211 71.576C230.218 71.4188 229.54 70.4867 229.698 69.4942C229.855 68.5017 230.788 67.8245 231.781 67.9817Z" fill="#FFD539"/>
<path d="M230.663 76.493C231.668 76.5005 232.477 77.3212 232.47 78.326C232.462 79.3309 231.641 80.1394 230.635 80.1319C229.63 80.1244 228.821 79.3037 228.828 78.2988C228.836 77.294 229.657 76.4855 230.663 76.493Z" fill="#FFD539"/>
<path d="M230.908 85.1529C231.904 85.0105 232.826 85.7016 232.968 86.6963C233.111 87.6911 232.419 88.6129 231.424 88.7552C230.429 88.8975 229.506 88.2065 229.364 87.2118C229.221 86.217 229.913 85.2952 230.908 85.1529Z" fill="#FFD539"/>
<path d="M232.512 93.768C233.475 93.479 234.49 94.0249 234.78 94.9873C235.069 95.9498 234.523 96.9643 233.56 97.2533C232.597 97.5423 231.581 96.9964 231.292 96.0339C231.003 95.0715 231.549 94.057 232.512 93.768Z" fill="#FFD539"/>
<path d="M235.159 101.849C236.069 101.419 237.154 101.808 237.583 102.717C238.013 103.625 237.624 104.71 236.715 105.139C235.806 105.568 234.72 105.179 234.291 104.271C233.861 103.362 234.25 102.278 235.159 101.849Z" fill="#FFD539"/>
<path d="M238.169 109.453C239.004 108.893 240.135 109.115 240.695 109.95C241.255 110.784 241.032 111.915 240.197 112.475C239.362 113.034 238.231 112.812 237.671 111.977C237.111 111.143 237.334 110.012 238.169 109.453Z" fill="#FFD539"/>
<path d="M242.583 116.389C243.325 115.711 244.476 115.763 245.155 116.504C245.833 117.246 245.782 118.397 245.039 119.075C244.297 119.753 243.146 119.701 242.467 118.959C241.789 118.218 241.841 117.067 242.583 116.389Z" fill="#FFD539"/>
<path d="M248.094 122.583C248.727 121.802 249.874 121.681 250.655 122.314C251.436 122.946 251.557 124.092 250.924 124.873C250.291 125.654 249.145 125.774 248.364 125.142C247.582 124.509 247.462 123.364 248.094 122.583Z" fill="#FFD539"/>
<path d="M254.58 127.895C255.09 127.029 256.205 126.739 257.072 127.248C257.939 127.757 258.229 128.872 257.72 129.739C257.211 130.605 256.095 130.895 255.228 130.386C254.361 129.877 254.071 128.762 254.58 127.895Z" fill="#FFD539"/>
<path d="M261.896 132.209C262.27 131.276 263.33 130.823 264.264 131.197C265.197 131.572 265.65 132.631 265.276 133.564C264.901 134.496 263.841 134.949 262.908 134.575C261.975 134.201 261.522 133.141 261.896 132.209Z" fill="#FFD539"/>
<path d="M271.241 136.501C271.472 135.523 272.453 134.917 273.431 135.148C274.41 135.379 275.016 136.359 274.785 137.337C274.554 138.315 273.573 138.921 272.595 138.69C271.616 138.459 271.01 137.479 271.241 136.501Z" fill="#FFD539"/>
<path d="M278.86 137.834C278.942 136.833 279.822 136.088 280.824 136.17C281.826 136.253 282.571 137.132 282.489 138.133C282.406 139.135 281.527 139.88 280.525 139.797C279.523 139.714 278.777 138.836 278.86 137.834Z" fill="#FFD539"/>
<path d="M287.636 138.632C287.568 137.629 288.327 136.762 289.33 136.694C290.333 136.626 291.201 137.384 291.269 138.387C291.337 139.39 290.578 140.257 289.575 140.325C288.572 140.392 287.704 139.634 287.636 138.632Z" fill="#FFD539"/>
<path d="M296.503 138.19C296.287 137.209 296.908 136.238 297.889 136.022C298.871 135.805 299.843 136.426 300.059 137.407C300.276 138.388 299.655 139.359 298.673 139.575C297.691 139.792 296.72 139.172 296.503 138.19Z" fill="#FFD539"/>
<path d="M305.264 136.519C304.903 135.581 305.372 134.528 306.311 134.168C307.25 133.808 308.303 134.277 308.663 135.215C309.023 136.153 308.555 137.206 307.616 137.566C306.677 137.926 305.624 137.457 305.264 136.519Z" fill="#FFD539"/>
<path d="M313.504 133.504C313.008 132.63 313.315 131.519 314.189 131.023C315.064 130.527 316.175 130.834 316.671 131.708C317.167 132.582 316.861 133.692 315.986 134.188C315.112 134.684 314 134.378 313.504 133.504Z" fill="#FFD539"/>
<path d="M320.636 129.087C320.015 128.296 320.153 127.152 320.944 126.532C321.734 125.911 322.879 126.049 323.5 126.839C324.121 127.629 323.983 128.773 323.192 129.394C322.402 130.014 321.257 129.877 320.636 129.087Z" fill="#FFD539"/>
<path d="M327.122 123.643C326.39 122.954 326.356 121.803 327.045 121.071C327.734 120.34 328.887 120.305 329.619 120.994C330.351 121.683 330.385 122.835 329.696 123.566C329.006 124.298 327.854 124.332 327.122 123.643Z" fill="#FFD539"/>
<path d="M332.817 117.296C331.991 116.723 331.785 115.59 332.357 114.764C332.93 113.938 334.064 113.732 334.891 114.304C335.717 114.877 335.923 116.01 335.35 116.836C334.778 117.662 333.644 117.868 332.817 117.296Z" fill="#FFD539"/>
<path d="M337.594 110.185C336.691 109.742 336.319 108.652 336.762 107.75C337.205 106.848 338.296 106.476 339.198 106.918C340.101 107.361 340.474 108.451 340.031 109.353C339.587 110.255 338.497 110.628 337.594 110.185Z" fill="#FFD539"/>
<path d="M341.346 102.471C340.387 102.167 339.856 101.145 340.16 100.187C340.463 99.2286 341.487 98.6979 342.445 99.0013C343.404 99.3047 343.935 100.327 343.631 101.285C343.328 102.243 342.305 102.774 341.346 102.471Z" fill="#FFD539"/>
<path d="M343.989 94.3244C342.996 94.1672 342.319 93.2352 342.476 92.2426C342.633 91.2501 343.566 90.573 344.559 90.7302C345.552 90.8874 346.23 91.8194 346.072 92.8119C345.915 93.8044 344.982 94.4816 343.989 94.3244Z" fill="#FFD539"/>
<path d="M345.465 85.9286C344.459 85.9211 343.65 85.1004 343.658 84.0955C343.665 83.0907 344.487 82.2822 345.492 82.2897C346.498 82.2972 347.307 83.1179 347.299 84.1228C347.292 85.1276 346.47 85.9361 345.465 85.9286Z" fill="#FFD539"/>
<path d="M345.74 77.4707C344.745 77.6131 343.822 76.9221 343.68 75.9273C343.537 74.9325 344.229 74.0108 345.224 73.8684C346.22 73.7261 347.142 74.4171 347.284 75.4119C347.427 76.4066 346.735 77.3284 345.74 77.4707Z" fill="#FFD539"/>
<path d="M344.808 69.1397C343.845 69.4287 342.83 68.8828 342.541 67.9204C342.252 66.9579 342.798 65.9434 343.761 65.6544C344.724 65.3654 345.739 65.9114 346.028 66.8738C346.317 67.8362 345.771 68.8507 344.808 69.1397Z" fill="#FFD539"/>
<path d="M342.286 60.9417C341.377 61.3709 340.291 60.9823 339.862 60.0737C339.432 59.1651 339.821 58.0806 340.731 57.6513C341.64 57.2221 342.725 57.6107 343.154 58.5194C343.584 59.428 343.195 60.5125 342.286 60.9417Z" fill="#FFD539"/>
<path d="M338.23 53.0599C337.395 53.6197 336.264 53.3971 335.703 52.5626C335.143 51.7281 335.366 50.5978 336.201 50.0379C337.036 49.4781 338.167 49.7007 338.727 50.5352C339.287 51.3697 339.065 52.5 338.23 53.0599Z" fill="#FFD539"/>
<path d="M333.134 45.8501C332.392 46.5281 331.241 46.4764 330.562 45.7347C329.884 44.993 329.936 43.8421 330.678 43.1641C331.42 42.4861 332.572 42.5378 333.25 43.2796C333.928 44.0213 333.877 45.1722 333.134 45.8501Z" fill="#FFD539"/>
<path d="M327.114 39.4736C326.481 40.2546 325.335 40.375 324.553 39.7426C323.772 39.1102 323.651 37.9644 324.284 37.1835C324.917 36.4026 326.063 36.2821 326.845 36.9145C327.626 37.5469 327.747 38.6927 327.114 39.4736Z" fill="#FFD539"/>
<path d="M320.303 34.0727C319.794 34.9392 318.678 35.229 317.811 34.7201C316.944 34.2111 316.654 33.0961 317.163 32.2297C317.672 31.3632 318.788 31.0734 319.655 31.5823C320.522 32.0912 320.812 33.2062 320.303 34.0727Z" fill="#FFD539"/>
<path d="M312.853 29.7681C312.479 30.7007 311.419 31.1535 310.485 30.7794C309.552 30.4053 309.099 29.346 309.473 28.4133C309.848 27.4807 310.908 27.0279 311.841 27.402C312.774 27.7761 313.227 28.8354 312.853 29.7681Z" fill="#FFD539"/>
<path d="M304.931 26.6559C304.7 27.6339 303.719 28.2395 302.741 28.0086C301.762 27.7776 301.156 26.7976 301.387 25.8196C301.618 24.8416 302.599 24.236 303.578 24.4669C304.556 24.6979 305.162 25.6779 304.931 26.6559Z" fill="#FFD539"/>
<path d="M296.714 24.8057C296.631 25.8071 295.752 26.5521 294.75 26.4695C293.748 26.3869 293.002 25.5081 293.085 24.5066C293.167 23.5051 294.047 22.7602 295.049 22.8428C296.051 22.9253 296.796 23.8042 296.714 24.8057Z" fill="#FFD539"/>
<path d="M288.385 24.2587C288.453 25.2613 287.694 26.1289 286.691 26.1965C285.688 26.2641 284.82 25.5061 284.752 24.5035C284.684 23.5009 285.443 22.6333 286.446 22.5657C287.449 22.4981 288.317 23.2561 288.385 24.2587Z" fill="#FFD539"/>
<path d="M280.131 25.0273C280.347 26.0086 279.726 26.9795 278.744 27.1957C277.762 27.412 276.791 26.7918 276.575 25.8105C276.358 24.8291 276.979 23.8583 277.961 23.642C278.943 23.4257 279.914 24.0459 280.131 25.0273Z" fill="#FFD539"/>
<path d="M272.135 27.0941C272.495 28.0323 272.026 29.0847 271.088 29.4449C270.149 29.805 269.096 29.3364 268.735 28.3982C268.375 27.4601 268.844 26.4077 269.783 26.0475C270.721 25.6874 271.775 26.156 272.135 27.0941Z" fill="#FFD539"/>
<path d="M257.635 24.2942C258.12 25.0851 257.871 26.1191 257.08 26.6038C256.288 27.0885 255.254 26.8402 254.769 26.0493C254.284 25.2584 254.532 24.2244 255.324 23.7397C256.115 23.255 257.15 23.5033 257.635 24.2942Z" fill="#FFD539"/>
<path d="M249.923 28.4569C250.507 29.1777 250.396 30.2353 249.675 30.8191C248.953 31.4028 247.895 31.2917 247.311 30.5708C246.727 29.8499 246.838 28.7923 247.559 28.2086C248.281 27.6248 249.339 27.736 249.923 28.4569Z" fill="#FFD539"/>
<path d="M243.052 33.8368C243.725 34.4753 243.753 35.5384 243.114 36.2113C242.475 36.8841 241.412 36.9119 240.738 36.2734C240.065 35.6349 240.037 34.5719 240.676 33.899C241.315 33.2262 242.379 33.1983 243.052 33.8368Z" fill="#FFD539"/>
<path d="M237.014 40.0606C237.764 40.6058 237.931 41.6561 237.385 42.4066C236.84 43.157 235.789 43.3233 235.038 42.7781C234.287 42.2329 234.12 41.1826 234.666 40.4321C235.212 39.6817 236.263 39.5153 237.014 40.0606Z" fill="#FFD539"/>
<path d="M231.911 47.0215C232.727 47.4641 233.029 48.4838 232.586 49.2989C232.143 50.1141 231.123 50.4162 230.307 49.9735C229.492 49.5309 229.189 48.5113 229.632 47.6961C230.075 46.8809 231.095 46.5789 231.911 47.0215Z" fill="#FFD539"/>
<path d="M227.832 54.6006C228.698 54.933 229.131 55.9045 228.798 56.7705C228.466 57.6365 227.494 58.069 226.627 57.7366C225.761 57.4042 225.328 56.4327 225.661 55.5667C225.993 54.7007 226.965 54.2682 227.832 54.6006Z" fill="#FFD539"/>
<path d="M224.846 62.6682C225.748 62.8847 226.304 63.7915 226.087 64.6934C225.871 65.5954 224.964 66.151 224.061 65.9345C223.158 65.7179 222.602 64.8112 222.819 63.9093C223.036 63.0073 223.943 62.4517 224.846 62.6682Z" fill="#FFD539"/>
<path d="M223.004 71.0862C223.927 71.1832 224.596 72.0096 224.499 72.9321C224.402 73.8546 223.575 74.5239 222.652 74.4269C221.729 74.3299 221.06 73.5035 221.157 72.581C221.254 71.6585 222.081 70.9892 223.004 71.0862Z" fill="#FFD539"/>
<path d="M222.337 79.7106C223.265 79.6863 224.037 80.4183 224.061 81.3456C224.086 82.2729 223.353 83.0443 222.425 83.0685C221.497 83.0928 220.726 82.3608 220.701 81.4335C220.677 80.5063 221.41 79.7349 222.337 79.7106Z" fill="#FFD539"/>
<path d="M222.858 88.3938C223.775 88.2487 224.636 88.8738 224.781 89.7899C224.926 90.7061 224.301 91.5665 223.384 91.7116C222.467 91.8567 221.606 91.2316 221.461 90.3154C221.316 89.3993 221.941 88.5389 222.858 88.3938Z" fill="#FFD539"/>
<path d="M224.557 96.9873C225.447 96.7238 226.382 97.2313 226.646 98.1207C226.909 99.01 226.402 99.9446 225.512 100.208C224.622 100.471 223.687 99.9641 223.423 99.0747C223.159 98.1853 223.667 97.2507 224.557 96.9873Z" fill="#FFD539"/>
<path d="M227.405 105.344C228.253 104.967 229.246 105.348 229.624 106.195C230.002 107.043 229.62 108.035 228.772 108.413C227.924 108.79 226.931 108.409 226.553 107.561C226.176 106.714 226.557 105.721 227.405 105.344Z" fill="#FFD539"/>
<path d="M230.914 112.919C231.705 112.434 232.74 112.682 233.225 113.473C233.71 114.264 233.461 115.298 232.67 115.783C231.878 116.267 230.844 116.019 230.359 115.228C229.874 114.437 230.122 113.403 230.914 112.919Z" fill="#FFD539"/>
<path d="M234.904 120.233C235.625 119.649 236.683 119.76 237.267 120.481C237.852 121.202 237.74 122.259 237.019 122.843C236.298 123.427 235.239 123.316 234.655 122.595C234.071 121.874 234.182 120.816 234.904 120.233Z" fill="#FFD539"/>
<path d="M240.148 126.787C240.787 126.114 241.85 126.086 242.524 126.724C243.197 127.363 243.225 128.426 242.586 129.099C241.947 129.772 240.883 129.8 240.21 129.161C239.537 128.523 239.509 127.459 240.148 126.787Z" fill="#FFD539"/>
<path d="M246.274 132.594C246.82 131.844 247.871 131.677 248.621 132.222C249.372 132.768 249.539 133.818 248.993 134.568C248.448 135.319 247.397 135.485 246.646 134.94C245.895 134.395 245.728 133.344 246.274 132.594Z" fill="#FFD539"/>
<path d="M253.526 137.875C253.969 137.059 254.989 136.757 255.805 137.2C256.621 137.643 256.923 138.662 256.48 139.477C256.037 140.293 255.017 140.595 254.201 140.152C253.385 139.709 253.083 138.69 253.526 137.875Z" fill="#FFD539"/>
<path d="M261.119 141.896C261.451 141.03 262.423 140.598 263.29 140.93C264.156 141.262 264.589 142.234 264.257 143.1C263.924 143.966 262.952 144.398 262.085 144.066C261.219 143.734 260.786 142.762 261.119 141.896Z" fill="#FFD539"/>
<path d="M269.235 144.912C269.451 144.01 270.359 143.455 271.261 143.671C272.164 143.888 272.72 144.795 272.503 145.697C272.286 146.598 271.379 147.154 270.476 146.938C269.574 146.721 269.018 145.814 269.235 144.912Z" fill="#FFD539"/>
<path d="M277.735 146.872C277.832 145.949 278.659 145.28 279.582 145.377C280.505 145.474 281.175 146.3 281.078 147.223C280.981 148.145 280.154 148.815 279.231 148.718C278.308 148.621 277.638 147.794 277.735 146.872Z" fill="#FFD539"/>
<path d="M286.475 147.741C286.451 146.814 287.183 146.042 288.111 146.018C289.039 145.994 289.811 146.726 289.835 147.653C289.86 148.58 289.127 149.352 288.199 149.376C287.271 149.4 286.499 148.668 286.475 147.741Z" fill="#FFD539"/>
<path d="M295.305 147.505C295.16 146.589 295.785 145.729 296.702 145.583C297.619 145.438 298.479 146.063 298.625 146.98C298.77 147.896 298.144 148.756 297.228 148.901C296.311 149.046 295.45 148.421 295.305 147.505Z" fill="#FFD539"/>
<path d="M304.073 146.168C303.809 145.278 304.317 144.344 305.207 144.08C306.097 143.817 307.032 144.324 307.296 145.214C307.559 146.103 307.052 147.038 306.162 147.301C305.272 147.565 304.337 147.057 304.073 146.168Z" fill="#FFD539"/>
<path d="M312.63 143.752C312.252 142.905 312.633 141.912 313.481 141.535C314.329 141.158 315.323 141.539 315.7 142.386C316.078 143.234 315.696 144.226 314.848 144.604C314.001 144.981 313.007 144.6 312.63 143.752Z" fill="#FFD539"/>
<path d="M320.16 140.044C319.675 139.253 319.924 138.219 320.715 137.734C321.506 137.249 322.541 137.498 323.026 138.289C323.511 139.079 323.263 140.113 322.471 140.598C321.68 141.083 320.645 140.835 320.16 140.044Z" fill="#FFD539"/>
<path d="M327.204 135.361C326.62 134.64 326.731 133.583 327.452 132.999C328.174 132.415 329.232 132.526 329.816 133.247C330.4 133.968 330.289 135.026 329.568 135.61C328.846 136.193 327.788 136.082 327.204 135.361Z" fill="#FFD539"/>
<path d="M336.188 130.293C335.514 129.654 335.486 128.591 336.125 127.918C336.764 127.245 337.828 127.218 338.501 127.856C339.174 128.495 339.202 129.558 338.563 130.23C337.925 130.903 336.861 130.931 336.188 130.293Z" fill="#FFD539"/>
<path d="M341.957 123.794C341.206 123.249 341.039 122.198 341.585 121.448C342.13 120.698 343.181 120.531 343.932 121.076C344.683 121.622 344.85 122.672 344.304 123.422C343.759 124.173 342.708 124.339 341.957 123.794Z" fill="#FFD539"/>
<path d="M346.866 116.6C346.051 116.157 345.748 115.138 346.191 114.323C346.634 113.507 347.654 113.205 348.47 113.648C349.286 114.091 349.588 115.11 349.145 115.925C348.702 116.741 347.682 117.043 346.866 116.6Z" fill="#FFD539"/>
<path d="M350.832 108.834C349.966 108.501 349.533 107.53 349.865 106.664C350.198 105.798 351.17 105.365 352.037 105.698C352.903 106.03 353.336 107.001 353.003 107.867C352.671 108.733 351.699 109.166 350.832 108.834Z" fill="#FFD539"/>
<path d="M353.787 100.628C352.884 100.411 352.328 99.5044 352.545 98.6025C352.761 97.7005 353.669 97.1449 354.571 97.3614C355.474 97.5779 356.03 98.4847 355.813 99.3866C355.596 100.289 354.689 100.844 353.787 100.628Z" fill="#FFD539"/>
<path d="M355.679 92.1227C354.756 92.0258 354.086 91.1993 354.183 90.2768C354.28 89.3543 355.107 88.6851 356.03 88.782C356.953 88.879 357.623 89.7054 357.526 90.6279C357.429 91.5504 356.602 92.2197 355.679 92.1227Z" fill="#FFD539"/>
<path d="M356.477 83.4642C355.549 83.4885 354.777 82.7565 354.753 81.8292C354.729 80.9019 355.461 80.1305 356.389 80.1063C357.317 80.082 358.089 80.814 358.113 81.7413C358.137 82.6685 357.405 83.4399 356.477 83.4642Z" fill="#FFD539"/>
<path d="M356.167 74.8003C355.25 74.9454 354.389 74.3203 354.244 73.4042C354.099 72.488 354.724 71.6277 355.641 71.4826C356.558 71.3374 357.418 71.9625 357.564 72.8787C357.709 73.7949 357.083 74.6552 356.167 74.8003Z" fill="#FFD539"/>
<path d="M354.754 66.2792C353.864 66.5427 352.929 66.0352 352.665 65.1458C352.401 64.2565 352.909 63.3219 353.799 63.0584C354.689 62.795 355.624 63.3024 355.888 64.1918C356.151 65.0812 355.644 66.0158 354.754 66.2792Z" fill="#FFD539"/>
<path d="M352.262 58.0468C351.414 58.4241 350.421 58.043 350.043 57.1956C349.666 56.3482 350.047 55.3554 350.895 54.9781C351.743 54.6008 352.736 54.9819 353.114 55.8293C353.491 56.6767 353.11 57.6695 352.262 58.0468Z" fill="#FFD539"/>
<path d="M348.346 50.0947C347.555 50.5794 346.52 50.3312 346.035 49.5403C345.55 48.7494 345.798 47.7153 346.59 47.2306C347.381 46.746 348.416 46.9942 348.901 47.7851C349.386 48.576 349.137 49.6101 348.346 50.0947Z" fill="#FFD539"/>
<path d="M343.461 42.7082C342.739 43.292 341.681 43.1808 341.097 42.46C340.513 41.7391 340.624 40.6815 341.346 40.0977C342.067 39.514 343.125 39.6251 343.709 40.346C344.293 41.0669 344.182 42.1245 343.461 42.7082Z" fill="#FFD539"/>
<path d="M337.69 36.0137C337.051 36.6865 335.988 36.7144 335.314 36.0759C334.641 35.4374 334.613 34.3743 335.252 33.7014C335.891 33.0286 336.955 33.0008 337.628 33.6393C338.301 34.2778 338.329 35.3408 337.69 36.0137Z" fill="#FFD539"/>
<path d="M331.133 30.1256C330.588 30.8761 329.537 31.0424 328.786 30.4972C328.035 29.952 327.868 28.9016 328.414 28.1512C328.959 27.4008 330.01 27.2344 330.761 27.7796C331.512 28.3249 331.679 29.3752 331.133 30.1256Z" fill="#FFD539"/>
<path d="M323.677 25.2445C323.234 26.0597 322.214 26.3617 321.399 25.9191C320.583 25.4765 320.281 24.4569 320.723 23.6417C321.166 22.8265 322.187 22.5245 323.002 22.9671C323.818 23.4097 324.12 24.4293 323.677 25.2445Z" fill="#FFD539"/>
<path d="M315.919 21.2453C315.587 22.1113 314.615 22.5438 313.748 22.2114C312.882 21.879 312.449 20.9075 312.781 20.0415C313.114 19.1756 314.086 18.743 314.953 19.0754C315.819 19.4079 316.252 20.3794 315.919 21.2453Z" fill="#FFD539"/>
<path d="M307.747 18.3053C307.531 19.2073 306.623 19.7629 305.721 19.5464C304.818 19.3298 304.262 18.4231 304.479 17.5212C304.696 16.6192 305.603 16.0636 306.505 16.2801C307.408 16.4966 307.964 17.4034 307.747 18.3053Z" fill="#FFD539"/>
<path d="M299.301 16.4748C299.204 17.3973 298.377 18.0665 297.454 17.9696C296.531 17.8726 295.861 17.0462 295.958 16.1237C296.055 15.2012 296.882 14.5319 297.805 14.6289C298.728 14.7258 299.398 15.5523 299.301 16.4748Z" fill="#FFD539"/>
<path d="M290.725 15.7851C290.749 16.7123 290.016 17.4837 289.089 17.508C288.161 17.5323 287.389 16.8003 287.365 15.873C287.34 14.9457 288.073 14.1743 289.001 14.1501C289.928 14.1258 290.7 14.8578 290.725 15.7851Z" fill="#FFD539"/>
<path d="M282.165 16.248C282.311 17.1641 281.685 18.0245 280.768 18.1696C279.852 18.3147 278.991 17.6896 278.846 16.7734C278.7 15.8573 279.326 14.9969 280.243 14.8518C281.159 14.7067 282.02 15.3318 282.165 16.248Z" fill="#FFD539"/>
<path d="M273.806 17.8391C274.07 18.7285 273.562 19.6631 272.672 19.9265C271.782 20.19 270.847 19.6826 270.584 18.7932C270.32 17.9038 270.828 16.9692 271.718 16.7058C272.608 16.4423 273.543 16.9497 273.806 17.8391Z" fill="#FFD539"/>
<path d="M265.681 20.5803C266.058 21.4277 265.677 22.4205 264.829 22.7978C263.981 23.1751 262.988 22.794 262.61 21.9466C262.233 21.0992 262.614 20.1064 263.462 19.7291C264.31 19.3518 265.303 19.7329 265.681 20.5803Z" fill="#FFD539"/>
<path d="M250.668 18.74C251.14 19.4477 250.948 20.4035 250.24 20.8749C249.532 21.3462 248.575 21.1547 248.104 20.447C247.632 19.7393 247.824 18.7835 248.532 18.3121C249.24 17.8408 250.196 18.0323 250.668 18.74Z" fill="#FFD539"/>
<path d="M243.311 23.585C243.862 24.2332 243.782 25.2047 243.134 25.7551C242.485 26.3054 241.513 26.2261 240.962 25.5779C240.412 24.9298 240.491 23.9582 241.139 23.4079C241.788 22.8575 242.76 22.9368 243.311 23.585Z" fill="#FFD539"/>
<path d="M236.649 29.3146C237.271 29.8945 237.305 30.8687 236.725 31.4905C236.144 32.1124 235.17 32.1464 234.547 31.5665C233.925 30.9866 233.891 30.0124 234.471 29.3906C235.052 28.7687 236.026 28.7347 236.649 29.3146Z" fill="#FFD539"/>
<path d="M230.731 35.7722C231.416 36.2759 231.563 37.2396 231.059 37.9246C230.555 38.6096 229.591 38.7565 228.906 38.2527C228.22 37.7489 228.073 36.7852 228.577 36.1002C229.081 35.4153 230.046 35.2684 230.731 35.7722Z" fill="#FFD539"/>
<path d="M225.638 42.8704C226.377 43.2913 226.635 44.2314 226.214 44.9702C225.793 45.7091 224.852 45.9668 224.113 45.546C223.374 45.1251 223.116 44.185 223.537 43.4462C223.958 42.7073 224.899 42.4496 225.638 42.8704Z" fill="#FFD539"/>
<path d="M221.439 50.5134C222.222 50.8456 222.587 51.7495 222.255 52.5322C221.923 53.3148 221.018 53.68 220.235 53.3478C219.452 53.0156 219.086 52.1117 219.419 51.329C219.751 50.5463 220.656 50.1812 221.439 50.5134Z" fill="#FFD539"/>
<path d="M218.19 58.5977C219.006 58.8368 219.474 59.6921 219.235 60.5081C218.996 61.3241 218.14 61.7917 217.323 61.5526C216.507 61.3135 216.039 60.4581 216.278 59.6422C216.518 58.8262 217.373 58.3586 218.19 58.5977Z" fill="#FFD539"/>
<path d="M215.935 67.014C216.774 67.1568 217.338 67.9521 217.195 68.7903C217.052 69.6285 216.257 70.1923 215.418 70.0495C214.579 69.9067 214.015 69.1115 214.158 68.2732C214.301 67.435 215.097 66.8713 215.935 67.014Z" fill="#FFD539"/>
<path d="M214.706 75.6485C215.555 75.693 216.208 76.4174 216.163 77.2666C216.119 78.1157 215.394 78.768 214.544 78.7235C213.695 78.679 213.042 77.9545 213.087 77.1054C213.131 76.2563 213.856 75.604 214.706 75.6485Z" fill="#FFD539"/>
<path d="M214.517 84.3845C215.366 84.3301 216.099 84.9739 216.153 85.8224C216.208 86.671 215.563 87.4029 214.714 87.4573C213.865 87.5117 213.133 86.8679 213.078 86.0193C213.024 85.1708 213.668 84.4388 214.517 84.3845Z" fill="#FFD539"/>
<path d="M215.373 93.1037C216.21 92.9512 217.012 93.5056 217.165 94.3421C217.317 95.1786 216.763 95.9804 215.925 96.1329C215.088 96.2854 214.286 95.731 214.134 94.8945C213.981 94.058 214.536 93.2562 215.373 93.1037Z" fill="#FFD539"/>
<path d="M217.261 101.688C218.074 101.44 218.936 101.897 219.184 102.71C219.433 103.524 218.975 104.384 218.162 104.633C217.348 104.882 216.487 104.424 216.238 103.611C215.989 102.798 216.447 101.937 217.261 101.688Z" fill="#FFD539"/>
<path d="M220.156 110.022C220.935 109.681 221.844 110.035 222.185 110.814C222.527 111.593 222.172 112.501 221.393 112.842C220.613 113.184 219.705 112.829 219.363 112.05C219.022 111.271 219.376 110.363 220.156 110.022Z" fill="#FFD539"/>
<path d="M223.951 117.86C224.685 117.43 225.629 117.677 226.058 118.411C226.488 119.145 226.241 120.088 225.507 120.517C224.772 120.947 223.829 120.7 223.399 119.966C222.969 119.232 223.216 118.289 223.951 117.86Z" fill="#FFD539"/>
<path d="M228.197 125.297C228.877 124.786 229.843 124.921 230.355 125.6C230.867 126.279 230.731 127.245 230.052 127.757C229.372 128.268 228.406 128.133 227.894 127.453C227.382 126.774 227.518 125.809 228.197 125.297Z" fill="#FFD539"/>
<path d="M233.436 132.097C234.052 131.51 235.027 131.533 235.614 132.148C236.202 132.763 236.179 133.738 235.563 134.325C234.948 134.912 233.973 134.889 233.385 134.274C232.798 133.659 232.821 132.684 233.436 132.097Z" fill="#FFD539"/>
<path d="M239.463 138.235C240.006 137.581 240.977 137.49 241.632 138.033C242.287 138.576 242.378 139.546 241.835 140.201C241.291 140.855 240.32 140.946 239.665 140.403C239.01 139.86 238.92 138.89 239.463 138.235Z" fill="#FFD539"/>
<path d="M246.196 143.628C246.66 142.915 247.614 142.712 248.327 143.175C249.041 143.639 249.244 144.592 248.78 145.305C248.317 146.018 247.363 146.221 246.649 145.758C245.936 145.295 245.733 144.341 246.196 143.628Z" fill="#FFD539"/>
<path d="M253.545 148.203C253.923 147.441 254.847 147.129 255.609 147.506C256.372 147.884 256.684 148.807 256.307 149.569C255.929 150.331 255.005 150.643 254.243 150.266C253.48 149.889 253.168 148.965 253.545 148.203Z" fill="#FFD539"/>
<path d="M261.41 151.899C261.697 151.098 262.578 150.681 263.38 150.967C264.181 151.253 264.598 152.134 264.312 152.935C264.025 153.736 263.144 154.153 262.343 153.867C261.541 153.58 261.124 152.699 261.41 151.899Z" fill="#FFD539"/>
<path d="M269.685 154.664C269.877 153.836 270.704 153.319 271.533 153.51C272.362 153.702 272.879 154.528 272.687 155.357C272.496 156.185 271.669 156.702 270.84 156.511C270.011 156.319 269.494 155.493 269.685 154.664Z" fill="#FFD539"/>
<path d="M278.258 156.463C278.352 155.618 279.114 155.009 279.959 155.102C280.805 155.196 281.414 155.957 281.321 156.802C281.227 157.648 280.465 158.257 279.619 158.163C278.774 158.069 278.164 157.308 278.258 156.463Z" fill="#FFD539"/>
<path d="M287.013 157.27C287.008 156.42 287.694 155.726 288.545 155.721C289.396 155.716 290.089 156.402 290.094 157.252C290.099 158.102 289.413 158.796 288.563 158.8C287.712 158.805 287.018 158.12 287.013 157.27Z" fill="#FFD539"/>
<path d="M295.832 157.075C295.728 156.231 296.329 155.462 297.173 155.359C298.017 155.255 298.786 155.855 298.89 156.699C298.993 157.543 298.393 158.311 297.548 158.415C296.704 158.519 295.935 157.918 295.832 157.075Z" fill="#FFD539"/>
<path d="M304.595 155.88C304.394 155.053 304.901 154.221 305.727 154.02C306.554 153.819 307.387 154.326 307.588 155.152C307.789 155.978 307.282 156.811 306.455 157.012C305.629 157.213 304.796 156.706 304.595 155.88Z" fill="#FFD539"/>
<path d="M313.183 153.701C312.888 152.904 313.295 152.018 314.092 151.722C314.89 151.427 315.777 151.834 316.072 152.631C316.368 153.428 315.961 154.314 315.163 154.61C314.365 154.905 313.479 154.498 313.183 153.701Z" fill="#FFD539"/>
<path d="M321.482 150.568C321.095 149.811 321.397 148.884 322.155 148.498C322.913 148.111 323.841 148.413 324.227 149.17C324.613 149.928 324.312 150.855 323.554 151.241C322.796 151.627 321.868 151.326 321.482 150.568Z" fill="#FFD539"/>
<path d="M328.977 146.394C328.505 145.686 328.697 144.73 329.405 144.259C330.113 143.788 331.07 143.979 331.541 144.687C332.013 145.394 331.821 146.35 331.113 146.822C330.405 147.293 329.449 147.101 328.977 146.394Z" fill="#FFD539"/>
<path d="M335.968 141.364C335.418 140.716 335.497 139.744 336.146 139.194C336.794 138.644 337.766 138.723 338.317 139.371C338.868 140.019 338.788 140.991 338.14 141.541C337.491 142.092 336.519 142.012 335.968 141.364Z" fill="#FFD539"/>
<path d="M343.32 135.703C342.697 135.123 342.663 134.149 343.244 133.527C343.824 132.905 344.799 132.871 345.421 133.451C346.043 134.031 346.077 135.005 345.497 135.627C344.917 136.249 343.942 136.283 343.32 135.703Z" fill="#FFD539"/>
<path d="M349.048 129.135C348.363 128.632 348.216 127.668 348.72 126.983C349.224 126.298 350.188 126.151 350.873 126.655C351.559 127.159 351.706 128.122 351.202 128.807C350.698 129.492 349.733 129.639 349.048 129.135Z" fill="#FFD539"/>
<path d="M353.225 121.89C352.485 121.47 352.227 120.53 352.649 119.791C353.07 119.052 354.01 118.794 354.75 119.215C355.489 119.636 355.747 120.576 355.326 121.315C354.905 122.054 353.964 122.311 353.225 121.89Z" fill="#FFD539"/>
<path d="M357.34 114.211C356.557 113.879 356.192 112.975 356.524 112.193C356.857 111.41 357.761 111.045 358.544 111.377C359.327 111.709 359.693 112.613 359.36 113.396C359.028 114.178 358.124 114.544 357.34 114.211Z" fill="#FFD539"/>
<path d="M360.569 106.112C359.752 105.873 359.284 105.018 359.524 104.202C359.763 103.386 360.619 102.918 361.435 103.157C362.252 103.396 362.72 104.252 362.48 105.068C362.241 105.884 361.385 106.351 360.569 106.112Z" fill="#FFD539"/>
<path d="M362.866 97.7025C362.027 97.5598 361.463 96.7645 361.606 95.9263C361.749 95.0881 362.544 94.5243 363.383 94.6671C364.222 94.8099 364.786 95.6051 364.643 96.4433C364.5 97.2816 363.705 97.8453 362.866 97.7025Z" fill="#FFD539"/>
<path d="M364.201 89.096C363.351 89.0515 362.698 88.3271 362.743 87.478C362.787 86.6289 363.512 85.9766 364.362 86.0211C365.212 86.0656 365.864 86.79 365.82 87.6391C365.775 88.4883 365.05 89.1405 364.201 89.096Z" fill="#FFD539"/>
<path d="M364.556 80.4091C363.706 80.4635 362.974 79.8197 362.92 78.9711C362.865 78.1226 363.509 77.3906 364.358 77.3362C365.208 77.2819 365.94 77.9257 365.994 78.7742C366.049 79.6228 365.405 80.3547 364.556 80.4091Z" fill="#FFD539"/>
<path d="M363.925 71.7592C363.088 71.9117 362.286 71.3572 362.133 70.5207C361.981 69.6842 362.536 68.8825 363.373 68.73C364.21 68.5774 365.012 69.1319 365.164 69.9684C365.317 70.8049 364.762 71.6067 363.925 71.7592Z" fill="#FFD539"/>
<path d="M362.318 63.2633C361.505 63.5119 360.644 63.0543 360.395 62.2411C360.146 61.428 360.604 60.5673 361.418 60.3187C362.231 60.0701 363.092 60.5277 363.341 61.3409C363.59 62.154 363.132 63.0147 362.318 63.2633Z" fill="#FFD539"/>
<path d="M359.757 55.0364C358.978 55.3777 358.069 55.0231 357.727 54.2443C357.386 53.4655 357.741 52.5575 358.52 52.2162C359.299 51.8749 360.208 52.2295 360.549 53.0083C360.891 53.787 360.536 54.6951 359.757 55.0364Z" fill="#FFD539"/>
<path d="M356.085 47.1278C355.35 47.5572 354.407 47.3104 353.977 46.5765C353.547 45.8426 353.794 44.8995 354.529 44.4701C355.263 44.0407 356.207 44.2875 356.636 45.0214C357.066 45.7553 356.819 46.6983 356.085 47.1278Z" fill="#FFD539"/>
<path d="M351.352 39.6444C350.672 40.1561 349.706 40.0204 349.194 39.3414C348.682 38.6623 348.818 37.697 349.497 37.1853C350.177 36.6735 351.143 36.8092 351.655 37.4883C352.167 38.1674 352.031 39.1327 351.352 39.6444Z" fill="#FFD539"/>
<path d="M345.812 32.7494C345.196 33.3365 344.221 33.3138 343.634 32.6987C343.046 32.0837 343.069 31.1091 343.685 30.522C344.3 29.9349 345.275 29.9576 345.863 30.5727C346.45 31.1878 346.427 32.1623 345.812 32.7494Z" fill="#FFD539"/>
<path d="M339.541 26.5359C338.998 27.1905 338.027 27.2811 337.372 26.7383C336.717 26.1955 336.626 25.225 337.169 24.5704C337.712 23.9159 338.683 23.8253 339.338 24.368C339.993 24.9108 340.084 25.8814 339.541 26.5359Z" fill="#FFD539"/>
<path d="M332.623 21.0881C332.16 21.8012 331.205 22.0039 330.492 21.5408C329.778 21.0777 329.576 20.1241 330.039 19.411C330.502 18.6979 331.456 18.4952 332.17 18.9583C332.884 19.4214 333.086 20.375 332.623 21.0881Z" fill="#FFD539"/>
<path d="M325.152 16.4795C324.774 17.2415 323.85 17.5535 323.088 17.1763C322.325 16.7992 322.013 15.8756 322.391 15.1136C322.768 14.3515 323.692 14.0395 324.455 14.4167C325.217 14.7939 325.529 15.7174 325.152 16.4795Z" fill="#FFD539"/>
<path d="M317.229 12.7724C316.942 13.5731 316.061 13.9902 315.259 13.7041C314.458 13.4179 314.041 12.5368 314.327 11.7362C314.614 10.9355 315.495 10.5184 316.296 10.8045C317.098 11.0907 317.515 11.9718 317.229 12.7724Z" fill="#FFD539"/>
<path d="M308.96 10.0171C308.769 10.8456 307.942 11.3622 307.113 11.1709C306.284 10.9797 305.767 10.153 305.958 9.32447C306.15 8.49597 306.977 7.9794 307.806 8.17067C308.635 8.36194 309.152 9.18863 308.96 10.0171Z" fill="#FFD539"/>
<path d="M300.459 8.25081C300.365 9.09591 299.603 9.70496 298.758 9.61116C297.912 9.51737 297.303 8.75624 297.397 7.91114C297.49 7.06604 298.252 6.45699 299.098 6.55078C299.943 6.64458 300.553 7.40571 300.459 8.25081Z" fill="#FFD539"/>
<path d="M291.839 7.49736C291.844 8.34764 291.158 9.04093 290.308 9.04588C289.457 9.05082 288.763 8.36555 288.758 7.51528C288.753 6.665 289.439 5.97171 290.29 5.96676C291.141 5.96181 291.834 6.64709 291.839 7.49736Z" fill="#FFD539"/>
<path d="M283.218 7.76695C283.322 8.61091 282.721 9.37907 281.877 9.48269C281.032 9.58632 280.263 8.98616 280.16 8.14221C280.056 7.29826 280.657 6.5301 281.501 6.42647C282.346 6.32285 283.114 6.923 283.218 7.76695Z" fill="#FFD539"/>
<path d="M274.711 9.05596C274.912 9.88218 274.405 10.7148 273.578 10.9157C272.752 11.1166 271.919 10.6097 271.718 9.78349C271.517 8.95727 272.024 8.12463 272.851 7.92373C273.677 7.72283 274.51 8.22975 274.711 9.05596Z" fill="#FFD539"/>
<path d="M266.435 11.3469C266.731 12.1442 266.323 13.0301 265.526 13.3256C264.728 13.621 263.841 13.2142 263.546 12.4169C263.25 11.6196 263.657 10.7337 264.455 10.4383C265.253 10.1428 266.139 10.5496 266.435 11.3469Z" fill="#FFD539"/>
<path d="M258.5 14.6089C258.887 15.3665 258.585 16.2936 257.827 16.6797C257.069 17.0657 256.141 16.7645 255.755 16.0068C255.369 15.2492 255.67 14.3221 256.428 13.9361C257.186 13.5501 258.114 13.8513 258.5 14.6089Z" fill="#FFD539"/>
<path d="M243.037 13.7756C243.491 14.401 243.353 15.2763 242.727 15.7306C242.101 16.185 241.225 16.0463 240.771 15.421C240.316 14.7956 240.455 13.9203 241.081 13.466C241.706 13.0116 242.582 13.1503 243.037 13.7756Z" fill="#FFD539"/>
<path d="M235.973 19.0739C236.491 19.6483 236.444 20.5333 235.869 21.0505C235.295 21.5678 234.409 21.5214 233.892 20.9469C233.374 20.3725 233.42 19.4875 233.995 18.9703C234.57 18.4531 235.456 18.4994 235.973 19.0739Z" fill="#FFD539"/>
<path d="M229.52 25.0741C230.095 25.5914 230.141 26.4764 229.624 27.0508C229.106 27.6252 228.221 27.6716 227.646 27.1544C227.071 26.6372 227.025 25.7522 227.542 25.1777C228.06 24.6033 228.945 24.5569 229.52 25.0741Z" fill="#FFD539"/>
<path d="M223.749 31.7107C224.374 32.1651 224.513 33.0403 224.058 33.6657C223.604 34.2911 222.728 34.4297 222.102 33.9753C221.477 33.521 221.338 32.6457 221.792 32.0203C222.247 31.395 223.123 31.2564 223.749 31.7107Z" fill="#FFD539"/>
<path d="M218.722 38.9108C219.392 39.2973 219.621 40.1533 219.234 40.8227C218.848 41.4922 217.991 41.7215 217.321 41.335C216.651 40.9485 216.422 40.0925 216.809 39.4231C217.195 38.7537 218.052 38.5243 218.722 38.9108Z" fill="#FFD539"/>
<path d="M214.435 46.4916C215.141 46.806 215.459 47.6333 215.144 48.3395C214.83 49.0456 214.002 49.3632 213.295 49.0488C212.589 48.7344 212.271 47.9071 212.586 47.2009C212.9 46.4948 213.728 46.1772 214.435 46.4916Z" fill="#FFD539"/>
<path d="M210.884 54.2838C211.62 54.5227 212.022 55.3123 211.783 56.0474C211.544 56.7826 210.754 57.1849 210.019 56.946C209.283 56.7072 208.88 55.9176 209.119 55.1824C209.358 54.4473 210.149 54.0449 210.884 54.2838Z" fill="#FFD539"/>
<path d="M208.361 62.6371C209.117 62.7978 209.6 63.541 209.44 64.2971C209.279 65.0532 208.535 65.5358 207.779 65.3751C207.022 65.2144 206.539 64.4712 206.7 63.7151C206.861 62.959 207.604 62.4763 208.361 62.6371Z" fill="#FFD539"/>
<path d="M207.028 71.6951C207.797 71.7759 208.355 72.4646 208.275 73.2334C208.194 74.0021 207.505 74.5598 206.735 74.479C205.966 74.3982 205.408 73.7095 205.489 72.9408C205.57 72.172 206.259 71.6143 207.028 71.6951Z" fill="#FFD539"/>
<path d="M206.368 80.4377C207.142 80.4377 207.769 81.0643 207.769 81.8373C207.769 82.6103 207.142 83.2369 206.368 83.2369C205.595 83.2369 204.968 82.6103 204.968 81.8373C204.968 81.0643 205.595 80.4377 206.368 80.4377Z" fill="#FFD539"/>
<path d="M206.644 89.2099C207.413 89.1291 208.102 89.6868 208.183 90.4556C208.264 91.2244 207.706 91.9131 206.937 91.9939C206.167 92.0747 205.478 91.517 205.397 90.7482C205.317 89.9794 205.875 89.2907 206.644 89.2099Z" fill="#FFD539"/>
<path d="M207.851 97.9158C208.608 97.7551 209.352 98.2377 209.512 98.9938C209.673 99.7499 209.19 100.493 208.434 100.654C207.677 100.815 206.934 100.332 206.773 99.5758C206.612 98.8197 207.095 98.0765 207.851 97.9158Z" fill="#FFD539"/>
<path d="M209.978 106.46C210.713 106.221 211.503 106.623 211.742 107.358C211.981 108.094 211.579 108.883 210.843 109.122C210.108 109.361 209.318 108.959 209.079 108.223C208.84 107.488 209.242 106.699 209.978 106.46Z" fill="#FFD539"/>
<path d="M213 114.748C213.706 114.434 214.534 114.752 214.849 115.458C215.163 116.164 214.845 116.991 214.139 117.306C213.432 117.62 212.604 117.303 212.29 116.596C211.975 115.89 212.293 115.063 213 114.748Z" fill="#FFD539"/>
<path d="M216.782 122.514C217.452 122.127 218.308 122.357 218.695 123.026C219.082 123.696 218.852 124.552 218.182 124.938C217.512 125.325 216.656 125.095 216.269 124.426C215.882 123.756 216.112 122.9 216.782 122.514Z" fill="#FFD539"/>
<path d="M221.338 130.133C221.964 129.679 222.84 129.818 223.294 130.443C223.749 131.068 223.61 131.944 222.985 132.398C222.359 132.852 221.483 132.714 221.028 132.088C220.574 131.463 220.713 130.588 221.338 130.133Z" fill="#FFD539"/>
<path d="M226.564 137.061C227.139 136.544 228.024 136.59 228.542 137.164C229.059 137.739 229.013 138.624 228.438 139.141C227.863 139.658 226.978 139.612 226.46 139.037C225.943 138.463 225.989 137.578 226.564 137.061Z" fill="#FFD539"/>
<path d="M232.503 143.398C233.02 142.823 233.906 142.777 234.481 143.294C235.056 143.811 235.102 144.696 234.584 145.271C234.067 145.845 233.181 145.892 232.607 145.374C232.032 144.857 231.985 143.972 232.503 143.398Z" fill="#FFD539"/>
<path d="M238.884 148.882C239.339 148.257 240.214 148.118 240.84 148.573C241.466 149.027 241.605 149.902 241.15 150.528C240.695 151.153 239.82 151.292 239.194 150.837C238.568 150.383 238.429 149.508 238.884 148.882Z" fill="#FFD539"/>
<path d="M246.256 154.029C246.642 153.359 247.499 153.13 248.169 153.517C248.838 153.903 249.068 154.759 248.681 155.429C248.295 156.098 247.438 156.327 246.768 155.941C246.098 155.554 245.869 154.698 246.256 154.029Z" fill="#FFD539"/>
<path d="M253.918 158.207C254.233 157.501 255.061 157.183 255.767 157.497C256.474 157.812 256.792 158.639 256.477 159.345C256.162 160.052 255.335 160.369 254.628 160.055C253.921 159.74 253.604 158.913 253.918 158.207Z" fill="#FFD539"/>
<path d="M261.995 161.562C262.234 160.827 263.024 160.425 263.76 160.664C264.495 160.903 264.898 161.692 264.659 162.427C264.42 163.162 263.63 163.565 262.894 163.326C262.159 163.087 261.756 162.297 261.995 161.562Z" fill="#FFD539"/>
<path d="M270.397 164.059C270.558 163.303 271.302 162.82 272.058 162.981C272.815 163.141 273.298 163.885 273.137 164.641C272.976 165.397 272.233 165.879 271.476 165.719C270.719 165.558 270.237 164.815 270.397 164.059Z" fill="#FFD539"/>
<path d="M279.033 165.669C279.114 164.9 279.803 164.342 280.573 164.423C281.342 164.504 281.9 165.193 281.819 165.961C281.738 166.73 281.049 167.288 280.28 167.207C279.51 167.126 278.952 166.437 279.033 165.669Z" fill="#FFD539"/>
<path d="M287.808 166.375C287.808 165.602 288.435 164.975 289.209 164.975C289.982 164.975 290.609 165.602 290.609 166.375C290.609 167.148 289.982 167.774 289.209 167.774C288.435 167.774 287.808 167.148 287.808 166.375Z" fill="#FFD539"/>
<path d="M297.373 166.522C297.292 165.753 297.85 165.064 298.62 164.984C299.389 164.903 300.078 165.46 300.159 166.229C300.24 166.998 299.682 167.687 298.912 167.767C298.143 167.848 297.454 167.291 297.373 166.522Z" fill="#FFD539"/>
<path d="M306.138 165.37C305.977 164.614 306.46 163.87 307.217 163.71C307.974 163.549 308.717 164.032 308.878 164.788C309.039 165.544 308.556 166.287 307.799 166.448C307.043 166.609 306.299 166.126 306.138 165.37Z" fill="#FFD539"/>
<path d="M314.896 163.373C314.657 162.638 315.06 161.848 315.795 161.61C316.531 161.371 317.321 161.773 317.56 162.508C317.799 163.243 317.397 164.033 316.661 164.272C315.925 164.511 315.135 164.108 314.896 163.373Z" fill="#FFD539"/>
<path d="M323.248 160.433C322.933 159.727 323.251 158.9 323.958 158.585C324.664 158.271 325.492 158.589 325.807 159.295C326.121 160.001 325.804 160.828 325.097 161.143C324.39 161.457 323.563 161.139 323.248 160.433Z" fill="#FFD539"/>
<path d="M331.254 156.646C330.867 155.977 331.097 155.121 331.767 154.735C332.437 154.348 333.293 154.577 333.68 155.247C334.067 155.916 333.837 156.772 333.167 157.159C332.497 157.545 331.641 157.316 331.254 156.646Z" fill="#FFD539"/>
<path d="M338.514 151.979C338.06 151.353 338.198 150.478 338.824 150.024C339.45 149.569 340.326 149.708 340.78 150.333C341.235 150.959 341.096 151.834 340.47 152.288C339.845 152.743 338.969 152.604 338.514 151.979Z" fill="#FFD539"/>
<path d="M345.405 146.595C344.887 146.021 344.933 145.136 345.508 144.618C346.083 144.101 346.969 144.148 347.486 144.722C348.004 145.296 347.957 146.181 347.382 146.699C346.808 147.216 345.922 147.17 345.405 146.595Z" fill="#FFD539"/>
<path d="M351.871 140.537C351.296 140.019 351.249 139.134 351.767 138.56C352.285 137.985 353.17 137.939 353.745 138.456C354.32 138.974 354.366 139.859 353.849 140.433C353.331 141.007 352.445 141.054 351.871 140.537Z" fill="#FFD539"/>
<path d="M357.519 133.823C356.893 133.368 356.754 132.493 357.209 131.868C357.664 131.242 358.54 131.104 359.165 131.558C359.791 132.012 359.93 132.888 359.475 133.513C359.021 134.138 358.145 134.277 357.519 133.823Z" fill="#FFD539"/>
<path d="M362.446 126.554C361.777 126.167 361.547 125.311 361.934 124.642C362.32 123.972 363.177 123.743 363.847 124.13C364.517 124.516 364.746 125.372 364.359 126.041C363.973 126.711 363.116 126.94 362.446 126.554Z" fill="#FFD539"/>
<path d="M366.599 118.809C365.892 118.495 365.574 117.667 365.889 116.961C366.204 116.255 367.031 115.938 367.738 116.252C368.445 116.566 368.762 117.394 368.448 118.1C368.133 118.806 367.305 119.124 366.599 118.809Z" fill="#FFD539"/>
<path d="M369.931 110.674C369.195 110.435 368.793 109.645 369.032 108.91C369.271 108.175 370.061 107.773 370.796 108.012C371.532 108.25 371.934 109.04 371.695 109.775C371.456 110.51 370.666 110.913 369.931 110.674Z" fill="#FFD539"/>
<path d="M371.924 102.276C371.168 102.115 370.685 101.372 370.846 100.616C371.006 99.86 371.75 99.3773 372.507 99.538C373.263 99.6988 373.746 100.442 373.585 101.198C373.424 101.954 372.681 102.437 371.924 102.276Z" fill="#FFD539"/>
<path d="M373.839 93.6108C373.07 93.53 372.512 92.8413 372.593 92.0726C372.674 91.3038 373.363 90.7461 374.132 90.8269C374.901 90.9077 375.459 91.5964 375.379 92.3652C375.298 93.1339 374.609 93.6916 373.839 93.6108Z" fill="#FFD539"/>
<path d="M374.536 84.8568C373.763 84.8568 373.136 84.2301 373.136 83.4571C373.136 82.6841 373.763 82.0575 374.536 82.0575C375.31 82.0575 375.937 82.6841 375.937 83.4571C375.937 84.2301 375.31 84.8568 374.536 84.8568Z" fill="#FFD539"/>
<path d="M374.05 76.1469C373.281 76.2277 372.592 75.67 372.511 74.9012C372.43 74.1325 372.988 73.4438 373.758 73.363C374.527 73.2822 375.216 73.8399 375.297 74.6086C375.378 75.3774 374.82 76.0661 374.05 76.1469Z" fill="#FFD539"/>
<path d="M372.955 67.4627C372.199 67.6234 371.455 67.1407 371.294 66.3846C371.134 65.6285 371.616 64.8853 372.373 64.7246C373.13 64.5639 373.873 65.0465 374.034 65.8026C374.195 66.5587 373.712 67.3019 372.955 67.4627Z" fill="#FFD539"/>
<path d="M370.97 58.9503C370.235 59.1892 369.445 58.7868 369.206 58.0517C368.967 57.3165 369.369 56.5269 370.105 56.2881C370.84 56.0492 371.631 56.4515 371.87 57.1867C372.109 57.9218 371.706 58.7114 370.97 58.9503Z" fill="#FFD539"/>
<path d="M368.117 50.7031C367.41 51.0175 366.583 50.6999 366.268 49.9937C365.953 49.2875 366.271 48.4602 366.978 48.1458C367.684 47.8314 368.512 48.149 368.827 48.8552C369.141 49.5613 368.824 50.3886 368.117 50.7031Z" fill="#FFD539"/>
<path d="M364.427 42.8113C363.757 43.1978 362.9 42.9684 362.514 42.299C362.127 41.6295 362.356 40.7735 363.026 40.3871C363.696 40.0006 364.553 40.2299 364.939 40.8993C365.326 41.5688 365.096 42.4248 364.427 42.8113Z" fill="#FFD539"/>
<path d="M359.734 35.3064C359.108 35.7608 358.232 35.6221 357.778 34.9968C357.323 34.3714 357.462 33.4961 358.088 33.0418C358.713 32.5874 359.589 32.726 360.044 33.3514C360.499 33.9768 360.36 34.8521 359.734 35.3064Z" fill="#FFD539"/>
<path d="M354.296 28.3257C353.721 28.843 352.836 28.7966 352.318 28.2221C351.801 27.6477 351.847 26.7627 352.422 26.2455C352.997 25.7283 353.882 25.7746 354.4 26.3491C354.917 26.9235 354.871 27.8085 354.296 28.3257Z" fill="#FFD539"/>
<path d="M348.173 21.9457C347.655 22.5201 346.77 22.5665 346.195 22.0493C345.62 21.5321 345.574 20.6471 346.091 20.0726C346.609 19.4982 347.494 19.4518 348.069 19.969C348.644 20.4863 348.69 21.3713 348.173 21.9457Z" fill="#FFD539"/>
<path d="M341.431 16.2362C340.976 16.8616 340.1 17.0002 339.475 16.5459C338.849 16.0915 338.71 15.2162 339.165 14.5909C339.619 13.9655 340.495 13.8269 341.121 14.2812C341.747 14.7356 341.885 15.6109 341.431 16.2362Z" fill="#FFD539"/>
<path d="M334.144 11.2599C333.757 11.9293 332.901 12.1586 332.231 11.7721C331.561 11.3857 331.332 10.5297 331.718 9.86023C332.105 9.1908 332.962 8.96143 333.632 9.34793C334.301 9.73443 334.531 10.5904 334.144 11.2599Z" fill="#FFD539"/>
<path d="M326.393 7.0711C326.078 7.77726 325.25 8.09485 324.544 7.78044C323.837 7.46604 323.519 6.63871 323.834 5.93254C324.148 5.22638 324.976 4.9088 325.683 5.2232C326.389 5.53761 326.707 6.36494 326.393 7.0711Z" fill="#FFD539"/>
<path d="M318.261 3.71589C318.022 4.45105 317.232 4.85337 316.496 4.6145C315.761 4.37564 315.358 3.58603 315.597 2.85087C315.836 2.11572 316.626 1.71339 317.362 1.95226C318.098 2.19113 318.5 2.98073 318.261 3.71589Z" fill="#FFD539"/>
<path d="M309.839 1.23095C309.678 1.98705 308.934 2.4697 308.178 2.30899C307.421 2.14827 306.938 1.40505 307.099 0.648952C307.26 -0.107147 308.004 -0.589802 308.76 -0.429088C309.517 -0.268374 310 0.474849 309.839 1.23095Z" fill="#FFD539"/>
<path d="M301.218 -0.356501C301.137 0.412255 300.448 0.969954 299.679 0.889155C298.91 0.808355 298.352 0.119654 298.432 -0.649101C298.513 -1.41786 299.202 -1.97556 299.972 -1.89476C300.741 -1.81396 301.299 -1.12526 301.218 -0.356501Z" fill="#FFD539"/>
<path d="M292.582 -1.08009C292.582 -0.307103 291.955 0.319529 291.181 0.319529C290.408 0.319529 289.781 -0.307103 289.781 -1.08009C289.781 -1.85308 290.408 -2.47972 291.181 -2.47972C291.955 -2.47972 292.582 -1.85308 292.582 -1.08009Z" fill="#FFD539"/>
<path d="M283.832 -0.820839C283.913 -0.0520834 283.354 0.636617 282.585 0.717417C281.816 0.798216 281.127 0.240517 281.046 -0.528239C280.965 -1.29699 281.523 -1.9857 282.292 -2.0665C283.062 -2.14729 283.751 -1.5896 283.832 -0.820839Z" fill="#FFD539"/>
<path d="M275.168 0.358414C275.329 1.11451 274.846 1.85774 274.089 2.01845C273.333 2.17916 272.589 1.69651 272.428 0.94041C272.267 0.184311 272.75 -0.558912 273.507 -0.719626C274.264 -0.88034 275.007 -0.397685 275.168 0.358414Z" fill="#FFD539"/>
<path d="M266.686 2.44472C266.925 3.17988 266.522 3.96948 265.787 4.20835C265.051 4.44722 264.261 4.04489 264.022 3.30974C263.783 2.57458 264.185 1.78498 264.921 1.54611C265.657 1.30724 266.447 1.70956 266.686 2.44472Z" fill="#FFD539"/>
<path d="M258.478 5.41525C258.792 6.12141 258.475 6.94874 257.768 7.26315C257.061 7.57755 256.233 7.25997 255.919 6.5538C255.604 5.84764 255.922 5.02031 256.629 4.70591C257.335 4.3915 258.163 4.70909 258.478 5.41525Z" fill="#FFD539"/>
<path d="M250.634 9.23744C251.021 9.90687 250.791 10.7629 250.121 11.1494C249.451 11.5359 248.595 11.3065 248.208 10.6371C247.821 9.96763 248.051 9.11163 248.721 8.72514C249.391 8.33864 250.247 8.56801 250.634 9.23744Z" fill="#FFD539"/>
<path d="M234.807 9.48936C235.24 10.0342 235.149 10.8265 234.604 11.2592C234.059 11.6918 233.266 11.6009 232.833 11.0561C232.4 10.5113 232.491 9.71894 233.036 9.28629C233.581 8.85364 234.374 8.94456 234.807 9.48936Z" fill="#FFD539"/>
<path d="M228.004 15.125C228.487 15.6262 228.472 16.4237 227.971 16.9061C227.469 17.3886 226.671 17.3734 226.188 16.8722C225.706 16.371 225.721 15.5736 226.222 15.0911C226.724 14.6086 227.522 14.6238 228.004 15.125Z" fill="#FFD539"/>
<path d="M221.779 21.3767C222.307 21.8298 222.368 22.6251 221.914 23.153C221.461 23.6809 220.665 23.7416 220.137 23.2885C219.609 22.8355 219.548 22.0402 220.001 21.5123C220.455 20.9843 221.251 20.9237 221.779 21.3767Z" fill="#FFD539"/>
<path d="M216.208 28.2205C216.777 28.6213 216.913 29.4072 216.512 29.9758C216.11 30.5444 215.324 30.6804 214.755 30.2796C214.186 29.8787 214.05 29.0929 214.451 28.5242C214.852 27.9556 215.639 27.8196 216.208 28.2205Z" fill="#FFD539"/>
<path d="M211.304 35.5369C211.909 35.8819 212.119 36.6513 211.774 37.2554C211.429 37.8596 210.659 38.0697 210.054 37.7247C209.45 37.3797 209.239 36.6103 209.585 36.0062C209.93 35.402 210.7 35.192 211.304 35.5369Z" fill="#FFD539"/>
<path d="M207.129 43.2845C207.764 43.5705 208.046 44.3165 207.76 44.9507C207.474 45.5849 206.727 45.8671 206.093 45.5812C205.458 45.2952 205.176 44.5492 205.462 43.915C205.748 43.2808 206.494 42.9986 207.129 43.2845Z" fill="#FFD539"/>
<path d="M203.72 51.3932C204.379 51.6176 204.731 52.3333 204.506 52.9918C204.282 53.6503 203.566 54.0023 202.907 53.7778C202.248 53.5534 201.896 52.8377 202.12 52.1792C202.345 51.5207 203.061 51.1688 203.72 51.3932Z" fill="#FFD539"/>
<path d="M201.108 59.7894C201.785 59.9502 202.203 60.6293 202.043 61.3061C201.882 61.983 201.202 62.4013 200.525 62.2405C199.848 62.0797 199.429 61.4007 199.59 60.7238C199.751 60.047 200.43 59.6286 201.108 59.7894Z" fill="#FFD539"/>
<path d="M199.316 68.3972C200.005 68.4929 200.487 69.1291 200.391 69.8182C200.295 70.5073 199.658 70.9883 198.969 70.8925C198.279 70.7968 197.798 70.1606 197.894 69.4715C197.99 68.7825 198.626 68.3015 199.316 68.3972Z" fill="#FFD539"/>
<path d="M198.314 77.067C199.01 77.0968 199.55 77.6844 199.52 78.3795C199.49 79.0746 198.902 79.6139 198.206 79.5841C197.511 79.5543 196.971 78.9667 197.001 78.2716C197.031 77.5766 197.619 77.0373 198.314 77.067Z" fill="#FFD539"/>
<path d="M198.202 85.8583C198.897 85.8219 199.49 86.3556 199.527 87.0503C199.563 87.7451 199.029 88.3378 198.334 88.3742C197.639 88.4106 197.046 87.8769 197.009 87.1822C196.973 86.4874 197.507 85.8947 198.202 85.8583Z" fill="#FFD539"/>
<path d="M198.988 94.7049C199.677 94.6026 200.318 95.0775 200.42 95.7657C200.523 96.4538 200.048 97.0946 199.359 97.1968C198.67 97.2991 198.029 96.8242 197.927 96.1361C197.825 95.4479 198.3 94.8072 198.988 94.7049Z" fill="#FFD539"/>
<path d="M200.565 103.371C201.241 103.204 201.924 103.615 202.092 104.291C202.259 104.966 201.847 105.649 201.171 105.816C200.495 105.983 199.812 105.572 199.645 104.896C199.477 104.221 199.889 103.538 200.565 103.371Z" fill="#FFD539"/>
<path d="M202.967 111.854C203.624 111.623 204.343 111.968 204.574 112.624C204.805 113.281 204.46 114 203.803 114.23C203.146 114.461 202.427 114.116 202.196 113.46C201.965 112.803 202.31 112.084 202.967 111.854Z" fill="#FFD539"/>
<path d="M205.797 119.498C206.429 119.206 207.178 119.481 207.47 120.112C207.762 120.744 207.487 121.492 206.855 121.784C206.223 122.076 205.474 121.801 205.182 121.17C204.89 120.538 205.165 119.79 205.797 119.498Z" fill="#FFD539"/>
<path d="M209.774 127.381C210.375 127.03 211.147 127.233 211.498 127.834C211.849 128.434 211.646 129.206 211.045 129.557C210.444 129.907 209.672 129.705 209.321 129.104C208.97 128.503 209.173 127.731 209.774 127.381Z" fill="#FFD539"/>
<path d="M214.446 134.79C215.011 134.384 215.799 134.513 216.205 135.077C216.612 135.642 216.483 136.429 215.918 136.836C215.353 137.242 214.565 137.113 214.159 136.549C213.752 135.984 213.881 135.197 214.446 134.79Z" fill="#FFD539"/>
<path d="M220.46 142.877C220.984 142.419 221.781 142.472 222.239 142.995C222.697 143.519 222.644 144.315 222.12 144.773C221.596 145.231 220.8 145.178 220.342 144.654C219.883 144.13 219.937 143.335 220.46 142.877Z" fill="#FFD539"/>
<path d="M226.53 149.417C227.008 148.911 227.806 148.888 228.312 149.366C228.818 149.843 228.841 150.641 228.363 151.146C227.885 151.652 227.087 151.675 226.581 151.197C226.075 150.72 226.052 149.922 226.53 149.417Z" fill="#FFD539"/>
<path d="M231.818 154.076C232.246 153.527 233.038 153.429 233.587 153.856C234.136 154.284 234.235 155.075 233.807 155.624C233.379 156.173 232.587 156.271 232.038 155.844C231.489 155.416 231.39 154.625 231.818 154.076Z" fill="#FFD539"/>
<path d="M238.794 159.276C239.167 158.689 239.946 158.516 240.534 158.889C241.121 159.263 241.294 160.041 240.921 160.628C240.547 161.215 239.768 161.389 239.181 161.015C238.594 160.642 238.42 159.863 238.794 159.276Z" fill="#FFD539"/>
<path d="M246.249 163.787C246.565 163.168 247.324 162.921 247.944 163.237C248.564 163.553 248.811 164.311 248.495 164.931C248.179 165.551 247.42 165.797 246.8 165.482C246.179 165.166 245.933 164.407 246.249 163.787Z" fill="#FFD539"/>
<path d="M254.115 167.568C254.371 166.921 255.103 166.604 255.751 166.859C256.398 167.115 256.716 167.846 256.46 168.493C256.205 169.14 255.472 169.458 254.825 169.202C254.177 168.947 253.86 168.215 254.115 167.568Z" fill="#FFD539"/>
<path d="M262.323 170.584C262.516 169.916 263.214 169.53 263.883 169.723C264.552 169.916 264.938 170.614 264.745 171.283C264.552 171.951 263.853 172.337 263.184 172.144C262.516 171.951 262.13 171.253 262.323 170.584Z" fill="#FFD539"/>
<path d="M270.796 172.809C270.925 172.125 271.583 171.675 272.268 171.803C272.952 171.932 273.402 172.59 273.274 173.274C273.145 173.957 272.487 174.408 271.802 174.279C271.118 174.151 270.668 173.492 270.796 172.809Z" fill="#FFD539"/>
<path d="M281.366 175.224C281.429 174.531 282.042 174.02 282.735 174.083C283.428 174.146 283.939 174.759 283.876 175.452C283.813 176.144 283.2 176.655 282.507 176.592C281.814 176.529 281.303 175.917 281.366 175.224Z" fill="#FFD539"/>
<path d="M290.185 175.746C290.182 175.051 290.744 174.484 291.44 174.481C292.136 174.477 292.703 175.039 292.706 175.734C292.709 176.43 292.148 176.997 291.452 177C290.756 177.003 290.189 176.442 290.185 175.746Z" fill="#FFD539"/>
<path d="M297.038 174.566C296.969 173.874 297.474 173.257 298.167 173.187C298.859 173.118 299.477 173.623 299.547 174.315C299.616 175.007 299.111 175.624 298.418 175.694C297.726 175.763 297.108 175.258 297.038 174.566Z" fill="#FFD539"/>
<path d="M305.796 173.496C305.661 172.813 306.105 172.151 306.788 172.016C307.471 171.881 308.134 172.325 308.269 173.007C308.404 173.69 307.96 174.352 307.277 174.487C306.594 174.622 305.931 174.178 305.796 173.496Z" fill="#FFD539"/>
<path d="M314.425 171.607C314.226 170.941 314.605 170.239 315.272 170.04C315.939 169.841 316.641 170.219 316.841 170.886C317.04 171.553 316.661 172.254 315.994 172.454C315.327 172.653 314.625 172.274 314.425 171.607Z" fill="#FFD539"/>
<path d="M322.849 168.918C322.588 168.273 322.898 167.538 323.543 167.277C324.188 167.015 324.923 167.326 325.185 167.97C325.447 168.615 325.136 169.349 324.491 169.611C323.846 169.873 323.111 169.562 322.849 168.918Z" fill="#FFD539"/>
<path d="M331.775 165.655C331.453 165.039 331.693 164.278 332.31 163.956C332.927 163.634 333.688 163.873 334.01 164.49C334.332 165.107 334.093 165.868 333.476 166.19C332.859 166.511 332.097 166.272 331.775 165.655Z" fill="#FFD539"/>
<path d="M340.485 161.602C340.106 161.019 340.272 160.239 340.856 159.86C341.44 159.481 342.22 159.647 342.599 160.23C342.979 160.814 342.813 161.594 342.229 161.973C341.645 162.351 340.864 162.186 340.485 161.602Z" fill="#FFD539"/>
<path d="M345.898 156.27C345.465 155.725 345.556 154.932 346.101 154.5C346.646 154.067 347.439 154.158 347.872 154.703C348.305 155.248 348.214 156.04 347.669 156.473C347.124 156.905 346.331 156.814 345.898 156.27Z" fill="#FFD539"/>
<path d="M352.527 150.637C352.044 150.136 352.06 149.339 352.561 148.856C353.063 148.374 353.86 148.389 354.343 148.89C354.826 149.391 354.811 150.189 354.309 150.671C353.808 151.154 353.01 151.139 352.527 150.637Z" fill="#FFD539"/>
<path d="M359.463 144.465C358.935 144.011 358.874 143.216 359.328 142.688C359.781 142.16 360.577 142.1 361.105 142.553C361.633 143.006 361.694 143.801 361.241 144.329C360.787 144.857 359.992 144.918 359.463 144.465Z" fill="#FFD539"/>
<path d="M364.954 137.635C364.385 137.234 364.249 136.448 364.65 135.879C365.051 135.311 365.837 135.175 366.406 135.576C366.975 135.976 367.111 136.762 366.71 137.331C366.309 137.899 365.523 138.035 364.954 137.635Z" fill="#FFD539"/>
<path d="M369.781 130.311C369.176 129.966 368.966 129.197 369.311 128.593C369.657 127.989 370.426 127.779 371.031 128.124C371.636 128.469 371.846 129.238 371.501 129.842C371.155 130.446 370.385 130.656 369.781 130.311Z" fill="#FFD539"/>
<path d="M373.901 122.561C373.267 122.275 372.984 121.529 373.27 120.895C373.557 120.261 374.303 119.978 374.938 120.264C375.572 120.55 375.855 121.296 375.568 121.93C375.282 122.565 374.536 122.847 373.901 122.561Z" fill="#FFD539"/>
<path d="M377.277 114.454C376.618 114.229 376.266 113.513 376.491 112.855C376.715 112.196 377.431 111.844 378.09 112.069C378.749 112.293 379.101 113.009 378.877 113.668C378.652 114.326 377.936 114.678 377.277 114.454Z" fill="#FFD539"/>
<path d="M379.878 106.063C379.201 105.902 378.782 105.223 378.943 104.546C379.104 103.869 379.784 103.451 380.461 103.612C381.138 103.772 381.557 104.451 381.396 105.128C381.235 105.805 380.556 106.223 379.878 106.063Z" fill="#FFD539"/>
<path d="M380.836 97.5844C380.147 97.4887 379.666 96.8525 379.761 96.1634C379.857 95.4743 380.494 94.9933 381.183 95.0891C381.873 95.1848 382.354 95.821 382.258 96.5101C382.163 97.1991 381.526 97.6801 380.836 97.5844Z" fill="#FFD539"/>
<path d="M381.854 88.886C381.159 88.8562 380.619 88.2686 380.649 87.5736C380.679 86.8785 381.267 86.3392 381.962 86.369C382.658 86.3988 383.197 86.9864 383.167 87.6815C383.138 88.3765 382.55 88.9158 381.854 88.886Z" fill="#FFD539"/>
<path d="M383.805 79.7352C383.11 79.7717 382.517 79.238 382.481 78.5432C382.444 77.8485 382.978 77.2558 383.674 77.2194C384.369 77.183 384.962 77.7166 384.998 78.4114C385.035 79.1061 384.501 79.6988 383.805 79.7352Z" fill="#FFD539"/>
<path d="M383.089 70.9522C382.401 71.0545 381.76 70.5796 381.657 69.8914C381.555 69.2033 382.03 68.5625 382.719 68.4603C383.407 68.358 384.049 68.8329 384.151 69.521C384.253 70.2092 383.778 70.8499 383.089 70.9522Z" fill="#FFD539"/>
<path d="M381.546 62.2796C380.87 62.4469 380.187 62.035 380.019 61.3597C379.852 60.6844 380.264 60.0014 380.94 59.8342C381.616 59.6669 382.299 60.0788 382.466 60.7541C382.634 61.4294 382.222 62.1124 381.546 62.2796Z" fill="#FFD539"/>
<path d="M379.189 53.7961C378.532 54.0267 377.813 53.6816 377.582 53.0253C377.351 52.369 377.696 51.6499 378.353 51.4192C379.01 51.1886 379.729 51.5337 379.96 52.19C380.191 52.8463 379.846 53.5654 379.189 53.7961Z" fill="#FFD539"/>
<path d="M376.04 45.5783C375.408 45.8703 374.659 45.5951 374.367 44.9637C374.074 44.3322 374.35 43.5836 374.981 43.2916C375.613 42.9996 376.362 43.2748 376.655 43.9062C376.947 44.5377 376.671 45.2863 376.04 45.5783Z" fill="#FFD539"/>
<path d="M372.127 37.7008C371.526 38.0515 370.754 37.8487 370.403 37.2479C370.052 36.6471 370.255 35.8757 370.856 35.525C371.457 35.1743 372.229 35.377 372.58 35.9779C372.931 36.5787 372.728 37.3501 372.127 37.7008Z" fill="#FFD539"/>
<path d="M367.447 30.2265C366.881 30.6328 366.094 30.5042 365.687 29.9395C365.281 29.3747 365.409 28.5876 365.975 28.1813C366.54 27.7751 367.327 27.9036 367.734 28.4684C368.14 29.0331 368.012 29.8203 367.447 30.2265Z" fill="#FFD539"/>
<path d="M362.042 23.2233C361.518 23.6814 360.721 23.6282 360.263 23.1046C359.805 22.5811 359.858 21.7852 360.382 21.3272C360.906 20.8691 361.702 20.9222 362.16 21.4458C362.619 21.9694 362.565 22.7652 362.042 23.2233Z" fill="#FFD539"/>
<path d="M356 16.7627C355.522 17.2685 354.724 17.2913 354.218 16.8136C353.712 16.3359 353.689 15.5386 354.167 15.0329C354.645 14.5271 355.443 14.5043 355.949 14.982C356.455 15.4597 356.478 16.2569 356 16.7627Z" fill="#FFD539"/>
<path d="M349.376 10.9033C348.948 11.4522 348.156 11.5507 347.607 11.1232C347.057 10.6958 346.959 9.90433 347.387 9.35544C347.814 8.80655 348.606 8.70809 349.155 9.13553C349.705 9.56297 349.803 10.3544 349.376 10.9033Z" fill="#FFD539"/>
<path d="M342.229 5.69825C341.856 6.28528 341.077 6.45853 340.489 6.0852C339.902 5.71187 339.729 4.93334 340.102 4.3463C340.476 3.75927 341.255 3.58602 341.842 3.95935C342.429 4.33268 342.603 5.11121 342.229 5.69825Z" fill="#FFD539"/>
<path d="M334.626 1.19455C334.31 1.81442 333.551 2.06088 332.93 1.74504C332.31 1.42921 332.063 0.670669 332.379 0.0508038C332.695 -0.569062 333.454 -0.815525 334.075 -0.499688C334.695 -0.183851 334.942 0.574686 334.626 1.19455Z" fill="#FFD539"/>
<path d="M326.633 -2.56696C326.378 -1.91988 325.645 -1.60243 324.998 -1.85792C324.35 -2.1134 324.033 -2.84508 324.289 -3.49216C324.544 -4.13924 325.276 -4.45669 325.924 -4.2012C326.571 -3.94572 326.889 -3.21404 326.633 -2.56696Z" fill="#FFD539"/>
<path d="M318.325 -5.55223C318.132 -4.88379 317.433 -4.49823 316.764 -4.69105C316.095 -4.88387 315.71 -5.58205 315.903 -6.25049C316.096 -6.91892 316.794 -7.30449 317.463 -7.11167C318.132 -6.91885 318.518 -6.22066 318.325 -5.55223Z" fill="#FFD539"/>
<path d="M310.03 -7.8997C309.902 -7.21596 309.243 -6.76578 308.559 -6.89419C307.875 -7.02259 307.424 -7.68097 307.553 -8.36471C307.681 -9.04844 308.34 -9.49863 309.024 -9.37022C309.708 -9.24181 310.159 -8.58344 310.03 -7.8997Z" fill="#FFD539"/>
<path d="M301.291 -9.24138C301.228 -8.54853 300.615 -8.0378 299.921 -8.10063C299.228 -8.16346 298.717 -8.77606 298.78 -9.46891C298.843 -10.1618 299.456 -10.6725 300.149 -10.6097C300.842 -10.5468 301.353 -9.93422 301.291 -9.24138Z" fill="#FFD539"/>
<path d="M292.464 -9.74633C292.467 -9.05065 291.906 -8.484 291.21 -8.48069C290.514 -8.47738 289.947 -9.03866 289.943 -9.73434C289.94 -10.43 290.502 -10.9967 291.198 -11C291.894 -11.0033 292.461 -10.442 292.464 -9.74633Z" fill="#FFD539"/>
<path d="M283.631 -9.41004C283.701 -8.71782 283.195 -8.10038 282.503 -8.03096C281.81 -7.96153 281.192 -8.46641 281.123 -9.15862C281.053 -9.85084 281.558 -10.4683 282.251 -10.5377C282.944 -10.6071 283.562 -10.1023 283.631 -9.41004Z" fill="#FFD539"/>
<path d="M274.871 -8.2355C275.006 -7.55302 274.562 -6.89039 273.879 -6.75548C273.196 -6.62057 272.533 -7.06446 272.398 -7.74695C272.263 -8.42943 272.707 -9.09206 273.39 -9.22697C274.073 -9.36188 274.736 -8.91799 274.871 -8.2355Z" fill="#FFD539"/>
<path d="M266.264 -6.23339C266.463 -5.56682 266.084 -4.86499 265.417 -4.66582C264.75 -4.46664 264.048 -4.84554 263.848 -5.51211C263.649 -6.17868 264.028 -6.88051 264.695 -7.07968C265.362 -7.27886 266.064 -6.89996 266.264 -6.23339Z" fill="#FFD539"/>
<path d="M257.887 -3.42182C258.149 -2.7772 257.838 -2.04253 257.193 -1.7809C256.548 -1.51927 255.813 -1.82974 255.551 -2.47436C255.289 -3.11898 255.6 -3.85364 256.245 -4.11527C256.89 -4.37691 257.625 -4.06644 257.887 -3.42182Z" fill="#FFD539"/>
<path d="M249.816 0.173751C250.138 0.790582 249.899 1.55143 249.282 1.87316C248.664 2.19488 247.903 1.95565 247.581 1.33882C247.259 0.721987 247.499 -0.0388629 248.116 -0.360587C248.733 -0.682311 249.494 -0.443079 249.816 0.173751Z" fill="#FFD539"/>
<path d="M242.125 4.52076C242.504 5.10422 242.338 5.88436 241.755 6.26326C241.171 6.64217 240.39 6.47634 240.011 5.89288C239.632 5.30943 239.798 4.52928 240.382 4.15038C240.965 3.77148 241.746 3.93731 242.125 4.52076Z" fill="#FFD539"/>
</g>
</g>
<defs>
<filter id="filter0_f_188_548" x="195" y="-13" width="192" height="192" filterUnits="userSpaceOnUse" color-interpolation-filters="sRGB">
<feFlood flood-opacity="0" result="BackgroundImageFix"/>
<feBlend mode="normal" in="SourceGraphic" in2="BackgroundImageFix" result="shape"/>
<feGaussianBlur stdDeviation="1" result="effect1_foregroundBlur_188_548"/>
</filter>
</defs>
</svg>
