<svg width="343" height="437" viewBox="0 0 343 437" fill="none" xmlns="http://www.w3.org/2000/svg">
<rect width="343" height="437" rx="8" fill="url(#paint0_linear_2_11901)"/>
<mask id="mask0_2_11901" style="mask-type:luminance" maskUnits="userSpaceOnUse" x="0" y="15" width="343" height="407">
<path d="M343 15H0V421.5H343V15Z" fill="white"/>
</mask>
<g mask="url(#mask0_2_11901)">
<path d="M264.724 87.0319C261.743 71.9914 234.534 65.1893 235.076 75.0131L110.376 75.6364C101.744 75.677 94.739 82.303 94.7255 90.4194L94.468 369.739C94.468 378.154 101.582 385.037 110.389 385.105L237.691 386.04C238.477 387.449 239.954 388.736 242.285 389.807C256.878 390.078 263.884 383.926 266.445 376.988C267.271 375.132 267.732 373.072 267.705 370.891C267.19 367.259 265.645 90.5414 264.724 87.0184V87.0319Z" fill="#3983C4"/>
<path d="M240.93 389.861L94.8069 389.061C85.6878 389.007 78.3165 381.934 78.3301 373.276L78.8721 86.0156C78.8856 77.6553 86.1484 70.8803 95.0914 70.8532L238.383 70.4602C247.393 70.4331 254.765 77.2081 254.846 85.6091L257.448 374.197C257.529 382.896 250.131 389.929 240.944 389.874L240.93 389.861Z" fill="#90CAEE"/>
<path d="M242.936 387.774C242.326 387.842 241.703 387.883 241.093 387.869L95.0102 386.934C87.1783 386.88 80.7692 380.688 80.7827 373.127L81.2841 86.1784C81.2841 78.8885 87.5984 72.9265 95.2813 72.8994L238.559 72.371C238.789 72.371 239.006 72.371 239.236 72.371C242.841 72.52 246.215 73.9157 248.735 76.3005C251.31 78.753 252.746 81.9915 252.773 85.4332L255.334 374.306C255.388 381.148 250.09 386.934 242.936 387.747V387.774Z" fill="#3D3E3E"/>
<path d="M247.746 86.9102L250.212 374.78L85.647 373.94L86.067 86.9102H247.746Z" fill="white"/>
<path d="M238.152 215.174H101.826C100.239 215.174 98.9531 216.46 98.9531 218.047V330.986C98.9531 332.573 100.239 333.859 101.826 333.859H238.152C239.739 333.859 241.025 332.573 241.025 330.986V218.047C241.025 216.46 239.739 215.174 238.152 215.174Z" fill="#D5E8F8"/>
<path d="M235.971 212.735H99.6444C98.0579 212.735 96.7717 214.021 96.7717 215.608V328.547C96.7717 330.133 98.0579 331.42 99.6444 331.42H235.971C237.557 331.42 238.843 330.133 238.843 328.547V215.608C238.843 214.021 237.557 212.735 235.971 212.735Z" fill="white" stroke="#88BBE5" stroke-width="0.75" stroke-miterlimit="10"/>
<path fill-rule="evenodd" clip-rule="evenodd" d="M110.782 218.9H119.115V218.413H110.782V218.9ZM108.817 219.144H109.793V218.169H108.817V219.144ZM110.782 221.597H119.115V221.109H110.782V221.597ZM108.817 221.841H109.793V220.865H108.817V221.841ZM110.782 224.293H119.115V223.806H110.782V224.293ZM108.817 224.537H109.793V223.562H108.817V224.537Z" fill="#114C97"/>
<path d="M222.773 225.364L222.15 221.217C222.136 221.109 222.042 221.014 221.92 221.014H220.809V220.499H221.92C222.286 220.499 222.597 220.77 222.651 221.136L222.719 221.597L229.738 221.637L229.02 224.903L222.76 225.35L222.773 225.364ZM222.8 222.125L223.207 224.822L228.613 224.442L229.115 222.166L222.814 222.125H222.8Z" fill="#88BBE5"/>
<path d="M229.128 226.339L223.058 226.299C222.922 226.299 222.8 226.245 222.719 226.136C222.638 226.041 222.597 225.906 222.624 225.77L222.746 225.039L223.248 225.12L223.139 225.784L229.128 225.824V226.339Z" fill="#88BBE5"/>
<path d="M224.603 227.356C224.603 227.735 224.291 228.047 223.912 228.047C223.532 228.047 223.22 227.735 223.22 227.356C223.22 226.976 223.532 226.664 223.912 226.664C224.291 226.664 224.603 226.976 224.603 227.356Z" stroke="#88BBE5" stroke-width="0.25" stroke-miterlimit="10"/>
<path d="M228.248 227.383C228.248 227.762 227.936 228.074 227.557 228.074C227.177 228.074 226.865 227.762 226.865 227.383C226.865 227.003 227.177 226.692 227.557 226.692C227.936 226.692 228.248 227.003 228.248 227.383Z" stroke="#88BBE5" stroke-width="0.25" stroke-miterlimit="10"/>
<path d="M204.901 169.782C204.901 169.782 209.779 164.85 210.443 156.083C211.012 148.603 206.757 133.088 194.034 134.227C194.034 134.227 188.587 132.777 183.424 136.923C183.424 136.923 182.083 138.644 181.879 139.254C181.879 139.254 176.27 140.771 173.831 144.836C173.831 144.836 169.075 153.413 177.787 164.741C177.787 164.741 186.27 172.668 192.652 171.001C199.034 169.335 195.402 169.944 197.489 170.703C199.576 171.462 205.606 174.104 204.901 169.782Z" fill="#2D2A2B"/>
<path d="M204.386 165.107C204.386 165.107 204.982 172.695 206.527 175.175C206.527 175.175 206.242 181.679 202.353 181.99C202.353 181.99 198.762 181.096 197.286 177.004C197.286 177.004 199.128 176.191 196.974 169.308C196.974 169.308 195.375 164.646 199.128 162.939C202.882 161.232 204.155 164.023 204.386 165.094V165.107Z" fill="#F9B28F"/>
<path d="M206.351 174.226L203.451 177.045L202.231 181.381L200.362 178.4L197.11 176.055L193.871 177.126L204.657 200.798L207.015 200.296L209.088 174.348L206.351 174.226Z" fill="#FFCB08"/>
<path d="M209.088 174.348C209.088 174.348 213.451 174.822 215.605 175.378C217.76 175.934 220.917 178.4 223.207 189.267C225.253 199.023 224.494 209.673 224.223 212.803H187.516C187.516 212.803 179.915 198.305 184.738 186.069C184.738 186.069 187.462 179.931 191.717 177.98C193.397 177.207 193.397 177.248 193.885 177.112C194.698 176.896 196.513 184.768 202.638 183.793C212.245 182.248 207.895 173.047 209.101 174.335L209.088 174.348Z" fill="#114C97"/>
<path d="M208.261 174.308C208.261 174.308 209.467 182.898 202.624 183.793C202.624 183.793 197.272 184.931 194.996 176.652C194.996 176.652 194.671 176.787 193.871 177.112C193.871 177.112 195.863 183.982 200.213 184.511C200.213 184.511 201.757 184.971 203.749 184.551C210.483 183.101 209.535 174.484 209.535 174.484C209.535 174.484 209.657 174.294 208.261 174.294V174.308Z" fill="#4D8BCA"/>
<path opacity="0.51" d="M204.426 166.232L204.752 167.776C204.752 167.776 203.993 172.56 197.828 172.763C197.828 172.763 197.082 169.037 196.147 167.993C195.212 166.95 197.299 164.457 199.332 164.023C201.364 163.59 202.936 163.698 204.426 166.232Z" fill="#E28160"/>
<path d="M205.714 159.497C205.714 159.497 206.649 165.717 200.836 170.852C200.836 170.852 192.855 177.898 186.012 172.804C185.226 172.221 184.671 171.394 184.156 170.568C183.682 169.809 183.018 168.657 182.421 167.37C181.351 165.094 179.413 162.993 178.492 161.489C178.492 161.489 169.983 149.552 181.744 142.479C181.744 142.479 195.294 134.918 202.543 151.95C202.543 151.95 205.7 156.449 205.714 159.497Z" fill="#F1BF98"/>
<path d="M187.448 158.495C187.448 158.495 187.95 158.21 189.454 160.69C190.958 163.17 192.326 165.812 191.175 166.571C189.901 167.397 189.508 167.167 188.736 163.806C187.868 160.053 186.879 158.712 187.462 158.495H187.448Z" fill="#E28160"/>
<path d="M191.798 158.007C191.798 158.007 191.432 155.92 193.072 155.581C194.278 155.337 194.21 156.408 195.267 155.568C195.267 155.568 195.24 155.215 193.573 155.039C193.573 155.039 190.592 154.931 191.798 158.02V158.007Z" fill="#2D2A2B"/>
<path d="M188.288 155.161C188.288 155.161 188.288 156.123 190.036 154.918C191.459 153.942 194.21 152.912 194.86 152.804C194.86 152.804 195.104 152.099 192.584 152.614C192.584 152.614 187.394 154.172 188.288 155.175V155.161Z" fill="#2D2A2B"/>
<path d="M181.432 158.143C181.432 158.143 183.099 158.454 182.096 158.996C180.931 159.633 179.982 159.606 178.817 160.853C178.817 160.853 177.977 159.443 181.432 158.143Z" fill="#2D2A2B"/>
<path d="M184.223 161.787C184.223 161.787 183.37 160.595 181.473 161.381C181.296 161.449 181.134 161.611 180.998 161.747C180.809 161.95 180.904 161.869 180.47 162.194C180.47 162.194 180.375 162.329 180.673 161.354C180.741 161.11 181.012 160.893 181.242 160.785C181.852 160.5 182.8 160.134 184.223 161.774V161.787Z" fill="#2D2A2B"/>
<path d="M201.134 154.443C201.134 154.443 199.251 148.508 203.858 148.17C203.858 148.17 209.034 147.993 207.679 156.394C207.679 156.394 207.11 159.673 203.627 160.432C203.627 160.432 202.205 160.27 201.134 154.443Z" fill="#F1BF98"/>
<path d="M194.003 159.611C194.632 159.331 194.845 158.439 194.48 157.619C194.115 156.798 193.309 156.36 192.68 156.64C192.051 156.92 191.837 157.813 192.202 158.633C192.568 159.453 193.374 159.891 194.003 159.611Z" fill="#2D2A2B"/>
<path d="M184.047 163.997C184.483 163.576 184.376 162.759 183.81 162.173C183.243 161.586 182.43 161.452 181.994 161.873C181.558 162.294 181.664 163.111 182.231 163.698C182.798 164.285 183.611 164.419 184.047 163.997Z" fill="#2D2A2B"/>
<path d="M204.305 157.004C202.489 155.148 200.917 150.757 204.006 149.348C205.226 148.847 206.188 150.107 206.066 151.164C205.687 150.581 205.104 149.836 204.454 150.283C202.665 151.869 204.169 154.904 204.305 157.004Z" fill="#E28160"/>
<path d="M205.402 155.405C204.047 156.286 202.462 154.443 203.004 153.048C204.237 153.535 204.616 154.43 205.402 155.405Z" fill="#E28160"/>
<path opacity="0.31" d="M205.237 156.465C206.212 156.362 206.842 154.764 206.644 152.896C206.446 151.028 205.496 149.598 204.521 149.701C203.546 149.804 202.916 151.402 203.114 153.27C203.311 155.138 204.262 156.568 205.237 156.465Z" fill="#E28160"/>
<path d="M148.14 224.714C147.91 224.89 147.612 224.632 147.733 224.375C148.628 222.559 150.105 220.662 150.105 220.662C150.105 220.662 147.584 223.101 145.904 224.104C145.66 224.253 145.389 223.968 145.538 223.725C146.528 222.112 149.007 219.361 149.007 219.361C147.761 220.594 145.322 222.166 143.926 223.02C143.668 223.183 143.384 222.857 143.574 222.613C145.037 220.757 148.018 218.183 148.018 218.183C146.771 219.321 144.861 220.296 143.601 220.852C143.316 220.974 143.086 220.622 143.303 220.405C144.17 219.578 145.552 218.359 147.246 217.275L150.484 214.903C150.484 214.903 148.248 213.481 147.49 212.248C147.341 212.017 147.598 211.746 147.842 211.868C148.994 212.437 151.609 213.684 153.777 214.253C153.777 214.253 155.023 215.54 155.064 217.451C155.105 219.361 150.809 221.516 150.809 221.516C150.809 221.516 149.712 223.508 148.14 224.727V224.714Z" fill="#F1BF98"/>
<path d="M184.223 208.955C179.887 212.247 182.34 210.161 170.077 214.673C170.077 214.673 164.183 215.594 155.809 221.177C155.809 221.177 151.853 214.063 151.853 211.461C151.853 211.461 159.495 208.616 163.438 206.069C166.771 203.928 170.66 201.313 178.953 197.762C183.478 195.825 184.793 196.448 187.11 201.001C189.088 204.876 187.489 206.475 184.223 208.955Z" fill="#114C97"/>
<path d="M191.514 185.934C191.514 185.934 191.039 183.115 191.053 180.459" stroke="#114C97" stroke-width="0.5" stroke-miterlimit="10"/>
<path d="M187.164 189.267C187.164 189.267 186.947 186.706 186.757 184.362" stroke="#114C97" stroke-width="0.5" stroke-miterlimit="10"/>
<path d="M201.879 155.541C201.879 155.541 199.4 149.66 196.513 147.045C196.513 147.045 196.039 145.961 194.549 146.801C193.058 147.641 183.397 155.067 178.18 152.14C171.365 148.319 170.917 142.303 179.061 138.116C179.061 138.116 186.459 134.891 183.993 141.205C183.993 141.205 191.459 138.834 196.432 139.823C204.345 141.381 199.955 148.752 201.879 155.541Z" fill="#2D2A2B"/>
<path d="M179.765 150.486C179.765 150.486 174.061 154.809 179.955 163.508C184.589 170.351 169.82 153.196 176.879 146.381C183.939 139.565 179.765 150.473 179.765 150.473V150.486Z" fill="#2D2A2B"/>
<path d="M190.253 141.489C187.977 143.061 181.514 147.519 179.467 143.956C178.478 141.408 179.047 136.747 182.625 137.004C183.221 137.086 183.871 137.316 184.251 137.872C184.955 138.901 184.224 140.798 182.869 140.595C182.245 140.378 182.028 139.755 181.879 139.24C182.327 140.46 183.424 140.947 184.007 139.538C184.467 138.481 183.668 137.573 182.584 137.573C179.549 137.438 179.346 141.557 180.037 143.698C181.717 146.598 188.099 142.628 190.267 141.489H190.253Z" fill="#7B787A"/>
<path d="M195.389 164.199C195.389 164.199 195.145 166.191 192.326 168.522C192.326 168.522 197.787 168.413 195.389 164.199Z" fill="#FFFFFD"/>
<path d="M207.245 180.73C207.245 180.73 206.554 179.456 205.768 178.007C204.982 176.557 203.451 177.045 203.451 177.045C203.451 177.045 202.096 180.784 202.218 181.394" stroke="#FFFFFD" stroke-width="0.5" stroke-miterlimit="10"/>
<path d="M198.22 182.234C198.22 182.234 198.559 181.855 198.681 180.229C198.803 178.603 200.402 178.4 200.402 178.4C200.402 178.4 201.296 180.351 202.218 181.381C203.139 182.41 202.624 183.793 202.624 183.793" stroke="#FFFFFD" stroke-width="0.5" stroke-miterlimit="10"/>
<path d="M194.305 191.272C192.435 194.456 188.966 198.819 182.719 202.518C182.719 202.518 177.516 205.703 173.641 208.386C173.641 208.386 170.023 204.727 169.522 203.033C169.522 203.033 173.018 200.581 175.159 196.733C176.473 194.375 181.256 188.047 185.335 183.738C187.57 181.38 191.324 181.408 193.519 183.806C195.389 185.852 195.7 188.874 194.305 191.258V191.272Z" fill="#114C97"/>
<path fill-rule="evenodd" clip-rule="evenodd" d="M59.3738 224.117C57.1787 216.082 61.474 213.291 64.8344 213.765C68.1948 214.239 70.6474 217.993 70.959 223.142C71.2978 226.936 69.2788 232.261 67.287 236.231C62.8561 236.461 57.1516 236.163 53.8183 234.334C49.2248 231.99 46.7858 228.236 47.6936 224.957C48.615 221.678 52.8969 218.887 59.3738 224.117Z" fill="#FF002E"/>
<path opacity="0.14" d="M72.4359 383.032L62.5579 387.49C58.4929 388.574 64.0349 389.875 72.6934 389.875H269.466C277.298 389.875 282.827 388.791 280.374 387.747L267.908 382.422C266.35 381.758 261.96 381.311 257 381.311L82.5713 382.178C78.3302 382.178 74.4277 382.503 72.4359 383.045V383.032Z" fill="#774582"/>
<path d="M175.307 86.9098L144.847 123.346C144.847 123.346 144.847 123.373 144.847 123.386C145.145 130.541 127.774 130.554 127.246 123.4C127.246 123.386 127.246 123.373 127.246 123.359L157.286 86.9098H175.307Z" fill="#FAA61A"/>
<path d="M157.286 86.9098L127.246 123.359C127.246 123.359 127.246 123.386 127.246 123.4C127.625 130.554 110.267 130.568 109.644 123.413C109.644 123.4 109.644 123.386 109.644 123.373L139.264 86.9098H157.286Z" fill="#FFCB08"/>
<path d="M193.343 86.9098L162.462 123.332V123.373C162.462 123.373 162.462 123.427 162.462 123.454C162.733 130.121 145.308 130.92 144.847 123.386C144.847 123.373 144.847 123.359 144.847 123.346L175.308 86.9098H193.343Z" fill="#FFCB08"/>
<path d="M212.624 86.9098L180.633 123.319V123.359C180.836 132.641 162.977 131.543 162.462 123.454C162.462 123.427 162.462 123.4 162.462 123.373V123.332L193.343 86.9098H212.624Z" fill="#FAA61A"/>
<path d="M228.654 86.9098L197.773 123.332V123.373C197.773 123.373 197.773 123.427 197.773 123.454C198.044 130.121 180.619 130.92 180.158 123.386C180.158 123.373 180.158 123.359 180.158 123.346L210.619 86.9098H228.654Z" fill="#FFCB08"/>
<path d="M247.935 86.9098L215.944 123.319V123.359C216.147 132.641 198.288 131.543 197.773 123.454C197.773 123.427 197.773 123.4 197.773 123.373V123.332L228.654 86.9098H247.935Z" fill="#FAA61A"/>
<path d="M85.2407 86.9098H103.249L74.4684 123.413C74.4684 123.427 74.4684 123.441 74.4684 123.454C75.1052 130.609 57.138 130.622 56.2708 123.468C56.2708 123.454 56.2708 123.441 56.2708 123.427L85.2542 86.9098H85.2407Z" fill="#FAA61A"/>
<path d="M139.264 86.9098L109.644 123.373C109.644 123.373 109.644 123.4 109.644 123.413C110.105 130.568 92.7472 130.581 92.0562 123.427C92.0562 123.413 92.0562 123.4 92.0562 123.386L121.256 86.8962H139.278L139.264 86.9098Z" fill="#FAA61A"/>
<path d="M121.256 86.9098L92.0562 123.4C92.0562 123.4 92.0562 123.427 92.0562 123.441C92.6117 130.595 75.2542 130.609 74.4683 123.454C74.4683 123.441 74.4683 123.427 74.4683 123.413L103.248 86.9098H121.256Z" fill="#FFCB08"/>
<g style="mix-blend-mode:hard-light" opacity="0.1">
<path d="M144.847 123.4C145.308 130.934 162.733 130.121 162.462 123.468C162.977 131.557 180.836 132.655 180.633 123.373L144.847 123.4Z" fill="#010101"/>
</g>
<g style="mix-blend-mode:hard-light" opacity="0.1">
<path d="M179.874 123.4C180.334 130.934 197.76 130.121 197.489 123.468C198.004 131.557 215.863 132.655 215.659 123.373L179.874 123.4Z" fill="#010101"/>
</g>
<g style="mix-blend-mode:hard-light" opacity="0.1">
<path d="M144.847 123.4H127.246C127.774 130.568 145.145 130.554 144.847 123.4Z" fill="#010101"/>
</g>
<g style="mix-blend-mode:hard-light" opacity="0.1">
<path d="M127.246 123.414H109.644C110.254 130.582 127.625 130.568 127.246 123.414Z" fill="#010101"/>
</g>
<g style="mix-blend-mode:hard-light" opacity="0.1">
<path d="M109.644 123.427H92.0562C92.7472 130.595 110.118 130.582 109.644 123.427Z" fill="#010101"/>
</g>
<g style="mix-blend-mode:hard-light" opacity="0.1">
<path d="M92.0427 123.441H74.4548C75.2407 130.609 92.5983 130.595 92.0427 123.441Z" fill="#010101"/>
</g>
<g style="mix-blend-mode:hard-light" opacity="0.1">
<path d="M56.2571 123.468C57.1243 130.622 75.0916 130.609 74.4547 123.454H56.2571V123.468Z" fill="#010101"/>
</g>
<path d="M232.109 282.965L103.601 282.586V277.613L232.109 278.006V282.965Z" fill="#114C97"/>
<path d="M141.92 274.347L110.945 274.252C109.549 274.252 108.425 273.114 108.425 271.718V239.971C108.425 238.561 109.563 237.437 110.972 237.437L141.947 237.572C143.343 237.572 144.468 238.71 144.468 240.106V271.813C144.468 273.209 143.329 274.347 141.934 274.347H141.92Z" stroke="#88BBE5" stroke-width="0.75" stroke-miterlimit="10"/>
<path d="M183.383 274.483L153.478 274.388C151.812 274.388 150.47 273.033 150.47 271.366V240.648C150.47 238.968 151.825 237.613 153.505 237.627L183.41 237.762C185.077 237.762 186.418 239.117 186.418 240.784V271.475C186.418 273.141 185.063 274.496 183.383 274.496V274.483Z" stroke="#88BBE5" stroke-width="0.75" stroke-miterlimit="10"/>
<path d="M224.562 274.604L194.196 274.51C192.679 274.51 191.459 273.277 191.459 271.759V240.54C191.459 239.022 192.692 237.789 194.223 237.789L224.589 237.925C226.106 237.925 227.326 239.158 227.326 240.675V271.867C227.326 273.385 226.093 274.618 224.575 274.618L224.562 274.604Z" stroke="#88BBE5" stroke-width="0.75" stroke-miterlimit="10"/>
<path d="M141.866 322.856L110.999 322.802C109.576 322.802 108.411 321.637 108.411 320.214V288.588C108.411 287.152 109.576 286 111.013 286L141.88 286.095C143.302 286.095 144.468 287.26 144.468 288.683V320.282C144.468 321.718 143.302 322.87 141.866 322.87V322.856Z" stroke="#88BBE5" stroke-width="0.75" stroke-miterlimit="10"/>
<path d="M183.505 322.924L153.37 322.87C151.771 322.87 150.47 321.569 150.47 319.97V289.022C150.47 287.409 151.771 286.108 153.383 286.122L183.519 286.203C185.118 286.203 186.418 287.504 186.418 289.103V320.024C186.418 321.637 185.118 322.937 183.505 322.924Z" stroke="#88BBE5" stroke-width="0.75" stroke-miterlimit="10"/>
<path d="M224.48 322.992L194.291 322.937C192.719 322.937 191.459 321.664 191.459 320.105V289.062C191.459 287.491 192.733 286.217 194.304 286.23L224.494 286.312C226.052 286.312 227.326 287.585 227.326 289.144V320.146C227.326 321.718 226.052 322.992 224.48 322.978V322.992Z" stroke="#88BBE5" stroke-width="0.75" stroke-miterlimit="10"/>
<path d="M140.403 315.173C140.213 311.474 131.934 309.144 131.934 309.144C131.934 309.144 124.346 300.797 121.176 296.623C115.783 298.724 114.495 301.339 115.295 305.878C117.924 303.642 122.409 307.748 127.869 315.16L140.403 315.187V315.173Z" fill="#114C97"/>
<path d="M115.295 305.878L117.097 315.539H117.964C118.208 311.19 118.75 306.271 121.623 307.843C121.623 303.967 115.295 303.954 115.295 305.878Z" fill="#458AC9"/>
<path d="M128.885 243.209C128.723 242.735 128.614 242.22 128.573 241.705H128.167C128.167 242.166 128.059 242.654 127.991 242.911C127.706 243.968 126.92 244.767 125.972 244.808C125.037 244.754 124.237 243.954 123.953 242.884C123.885 242.627 123.777 242.139 123.777 241.678H123.37C123.316 242.193 123.221 242.694 123.059 243.169C122.652 244.347 121.961 245.337 121.135 246.163L121.771 252.193H125.796L126.148 252.206H130.172L130.809 246.19C129.983 245.364 129.292 244.361 128.885 243.182V243.209Z" fill="#D5E8F8"/>
<path d="M135.321 268.06C133.533 269.889 118.817 270.025 116.595 267.992C117.598 262.288 118.912 256.773 121.758 252.206L130.159 252.234C132.706 256.19 134.156 261.881 135.321 268.046V268.06Z" fill="#D5E8F8"/>
<path d="M126.69 253.684C123.289 253.684 121.676 252.22 121.609 252.152C121.554 252.098 121.554 252.03 121.609 251.976C121.649 251.922 121.73 251.922 121.785 251.976C121.798 251.99 123.397 253.426 126.703 253.44C129.644 253.44 130.05 252.247 130.05 252.234C130.077 252.166 130.145 252.125 130.213 252.152C130.281 252.179 130.321 252.247 130.294 252.315C130.281 252.369 129.86 253.724 126.703 253.711L126.69 253.684Z" fill="#458AC9"/>
<path d="M126.351 256C126.27 256 126.175 255.96 126.08 255.851C125.47 255.079 127.002 253.629 127.178 253.467L127.449 253.209L127.381 253.575C127.286 254.103 126.934 255.851 126.419 255.987C126.392 255.987 126.378 255.987 126.351 255.987V256ZM127.056 253.941C126.582 254.456 125.958 255.282 126.27 255.689C126.297 255.716 126.324 255.757 126.365 255.743C126.568 255.689 126.866 254.835 127.056 253.941Z" fill="#458AC9"/>
<path d="M127.124 253.86V253.548C127.124 253.467 127.178 251.664 127.869 251.068C128.058 250.906 128.262 250.838 128.506 250.879C128.777 250.919 128.871 251.055 128.912 251.177C129.129 251.841 127.638 253.358 127.34 253.656L127.124 253.873V253.86ZM128.397 251.122C128.262 251.122 128.153 251.163 128.045 251.258C127.598 251.637 127.462 252.681 127.408 253.223C128.031 252.559 128.804 251.597 128.682 251.244C128.682 251.217 128.655 251.15 128.479 251.122C128.451 251.122 128.424 251.122 128.397 251.122Z" fill="#458AC9"/>
<path d="M129.63 255.743C129.63 255.743 129.535 255.716 129.522 255.675C128.777 254.13 127.232 253.697 127.218 253.683C127.151 253.67 127.11 253.588 127.123 253.521C127.137 253.453 127.205 253.412 127.272 253.426C127.34 253.439 128.939 253.887 129.739 255.553C129.766 255.621 129.739 255.689 129.684 255.729C129.671 255.729 129.644 255.729 129.63 255.729V255.743Z" fill="#458AC9"/>
<path d="M164.292 247.179C164.292 247.179 166.825 248.033 170.525 247.071C172.896 249.998 168.722 251.393 166.107 250.77C163.492 250.133 164.292 247.179 164.292 247.179Z" fill="#CCE3F6"/>
<path d="M170.525 247.085C170.321 247.884 169.915 248.575 169.156 249.022C167.381 250.066 165.091 248.941 164.292 247.179C162.882 247.356 161.649 247.64 160.769 247.965V268.182L174.725 268.236V248.033C173.478 247.545 172.029 247.247 170.511 247.085H170.525Z" fill="#114C97"/>
<path d="M160.782 247.965L154.766 252.708L158.722 258.006L164.603 253.534L160.782 247.965Z" fill="#114C97"/>
<path d="M174.779 248.019L180.796 252.803L176.853 258.074L170.958 253.561L174.779 248.019Z" fill="#114C97"/>
<path d="M196.039 264.943H195.768V266.149C195.768 266.149 210.795 267.247 216.716 266.217C222.624 265.201 223.031 263.209 223.031 263.209V261.976H222.827L196.039 264.943Z" fill="#458AC9"/>
<path d="M222.787 262.559C221.242 264.605 216.54 265.215 210.66 265.296C208.234 265.336 205.619 265.269 202.936 265.187C200.66 265.106 198.329 265.011 196.039 264.944C195.809 263.223 196.405 260.025 196.879 258.263C197.028 257.694 197.164 257.274 197.259 257.098L197.34 257.071C198.126 258.155 200.05 258.819 201.188 258.792C203.044 258.751 205.145 257.45 204.549 255.892C204.454 255.675 204.372 255.486 204.318 255.309C203.844 253.751 205.145 253.738 207.109 254.957C210.578 257.166 213.668 257.965 216.161 258.372C216.676 258.453 217.164 258.521 217.624 258.575C221.12 259.022 223.085 259.049 222.773 262.545L222.787 262.559Z" fill="#D5E8F8"/>
<path d="M222.597 262.559C221.052 264.605 216.351 265.214 210.47 265.296C210.294 264.429 210.158 262.166 213.18 261.61C215.483 261.19 216.784 259.686 217.448 258.589C220.944 259.036 222.909 259.063 222.597 262.559Z" fill="#114C97"/>
<path d="M202.746 265.187C200.47 265.106 198.139 265.011 195.849 264.943C195.619 263.223 196.215 260.025 196.69 258.263C198.641 258.954 202.096 260.784 202.746 265.187Z" fill="#114C97"/>
<path d="M216.161 258.372C215.714 259.076 215.023 259.103 214.372 259.103C208.424 258.683 205.416 256.326 204.318 255.309C203.844 253.751 205.145 253.738 207.109 254.957C210.578 257.166 213.668 257.965 216.161 258.372Z" fill="#114C97"/>
<path d="M209.101 265.513C206.053 265.513 203.004 265.323 200.511 265.188C198.315 265.066 196.581 264.971 195.876 265.052H195.768L195.741 264.835H195.849C196.581 264.74 198.315 264.835 200.524 264.957C207.502 265.35 220.483 266.082 222.719 261.909L222.773 261.8L222.976 261.909L222.922 262.017C221.378 264.89 215.253 265.526 209.101 265.513Z" fill="#D5E8F8"/>
<path d="M229.372 139.281L231.432 145.351L237.665 146.842L232.529 150.663L233.044 157.058L227.814 153.359L221.893 155.812L223.789 149.701L219.63 144.823L226.039 144.741L229.372 139.281Z" fill="#FFCC5A"/>
<path d="M146.216 186.435L149.441 188.725L153.099 187.221L151.92 191.001L154.495 194.009L150.525 194.05L148.465 197.424L147.191 193.67L143.343 192.749L146.527 190.391L146.216 186.435Z" fill="#FFCC5A"/>
<path d="M102.585 389.495L100.728 407.625L106.731 409.088L111.609 389.495H102.585Z" fill="#FDD3B6"/>
<path d="M106.731 409.088L119.427 414.549L99.6851 413.086L100.728 407.625" fill="#FDD3B6"/>
<path d="M112.571 411.609C112.571 411.609 112.449 411.582 110.254 412.49C110.254 412.49 101.582 413.316 100.484 409.088L98.9668 414.549H120.715L112.557 411.609H112.571Z" fill="#114C97"/>
<path d="M117.978 389.495L116.108 407.625L122.11 409.088L127.693 386.704L117.978 389.495Z" fill="#FDD3B6"/>
<path d="M122.11 409.088L134.807 414.549L115.064 413.086L116.108 407.625" fill="#FDD3B6"/>
<path d="M127.964 411.609C127.964 411.609 127.842 411.582 125.647 412.49C125.647 412.49 116.975 413.316 115.877 409.088L114.36 414.549H136.108L127.951 411.609H127.964Z" fill="#114C97"/>
<path d="M102.652 258.033C102.652 258.033 92.8016 258.616 94.1295 267.599C94.1295 267.599 94.9289 269.51 95.3083 267.234C95.3083 267.234 93.3029 272.708 102.652 275.133C102.652 275.133 107.476 276.19 109.211 272.261C109.211 272.261 108.384 274.605 109.698 274.036C111.013 273.467 115.308 271.055 112.192 264.009C112.192 264.009 109.333 256.488 102.652 258.033Z" fill="#2D2A2B"/>
<path d="M132.097 277.41C135.118 271.976 136.948 270.309 143.994 261.082C143.994 261.082 150.593 253.995 151.555 252.261C151.555 252.261 156.297 255.499 157.191 257.247C157.191 257.247 154.549 260.933 152.354 265.323C150.01 270.025 147.327 272.613 143.885 277.803C143.709 278.06 141.528 281 141.324 281.217L138.872 283.033C136.921 284.266 133.343 284.496 132.422 282.382C131.758 280.878 131.324 278.859 132.124 277.423L132.097 277.41Z" fill="#FFCB08"/>
<path d="M103.398 309.442C103.398 309.442 90.2678 377.531 90.2678 388.262C95.2407 390.268 132.896 390.498 140.037 385.01C140.037 385.01 140.457 320.824 138.425 307.111C136.69 295.39 110.891 285.865 103.411 309.442H103.398Z" fill="#FFCB08"/>
<path d="M109.523 270.797C109.523 270.797 107.802 270.499 105.58 271.61C103.357 272.721 99.3195 280.512 101.65 291.366C103.71 300.959 104.021 307.382 102.856 313.114L136.257 306.976C136.257 306.976 137.219 284.09 137.043 273.317C137.043 273.317 134.848 271.691 129.766 270.553C127.761 270.106 126.812 269.984 126.243 269.957C125.308 269.903 121.054 279.401 119.319 279.415C117.395 279.442 111.758 270.716 109.536 270.77L109.523 270.797Z" fill="#FFCB08"/>
<path d="M127.002 255.635C134.59 252.437 134.563 243.02 134.563 243.02C133.872 227.098 122.883 223.169 122.883 223.169C122.883 223.169 107.259 217.329 99.1158 229.239C90.8232 236.57 92.0563 248.562 102.652 258.033C111.988 266.38 117.043 262.572 117.043 262.572" fill="#2D2A2B"/>
<path d="M113.045 256.895C113.045 256.895 114.265 268.453 110.85 270.418C110.85 270.418 114.021 279.523 119.021 278.941C119.021 278.941 125.606 277.301 126.08 270.336C126.08 270.336 123.411 270.594 124.576 261C124.576 261 124.224 255.811 118.994 254.835C113.763 253.86 113.032 255.662 113.032 256.881L113.045 256.895Z" fill="#FDD3B6"/>
<path opacity="0.51" d="M112.978 254.659L113.221 263.548C113.221 263.548 116.731 267.721 124.319 266.515C124.319 266.515 124.143 261.759 124.766 259.727C125.227 258.223 121.419 256.028 118.818 256.028C116.216 256.028 114.143 251.529 112.978 254.645V254.659Z" fill="#EB9371"/>
<path d="M107.219 258.046C107.219 258.046 111.799 264.97 122.666 263.372C122.666 263.372 132.937 261.407 133.506 254.225C133.587 253.141 133.533 253.453 133.37 252.383C133.221 251.393 132.964 249.93 132.557 248.412C131.826 245.702 131.121 242.681 130.823 240.743C130.823 240.743 129.522 224.47 114.427 226.854C114.427 226.854 97.4492 230.12 103.479 249.835C103.479 249.835 105.051 255.445 107.205 258.046H107.219Z" fill="#FDD3B6"/>
<path d="M122.829 243.982C122.829 243.982 122.192 245.418 122.788 247.667C123.574 250.662 124.279 253.141 125.796 252.911C127.219 252.708 127.49 251.42 126.135 249.158C123.886 245.391 123.479 243.738 122.815 243.982H122.829Z" fill="#EC8976"/>
<path opacity="0.51" d="M125.904 245.174C125.904 245.174 124.224 241.99 126.446 240.784C126.446 240.784 128.167 240.391 128.628 243.074C128.628 243.074 126.65 240.838 125.904 245.174Z" fill="#EE8075"/>
<path opacity="0.51" d="M116.988 247.301C116.988 247.301 117.151 244.307 115.254 244.253C115.254 244.253 112.571 244.469 113.099 246.705C113.099 246.705 115.281 244.618 116.988 247.301Z" fill="#EE8075"/>
<path d="M116.989 247.301C116.989 247.301 115.796 245.255 114.157 246.15C112.951 246.8 113.046 247.193 112.382 246.312C112.382 246.312 112.964 246.8 113.642 245.987C113.642 245.987 115.769 244.212 116.989 247.301Z" fill="#2D2A2B"/>
<path d="M117.544 242.112C117.544 242.112 117.612 243.182 115.701 243.44C113.791 243.697 110.566 243.941 109.875 244.198C109.875 244.198 109.617 243.507 112.354 242.613C112.354 242.613 117.869 240.648 117.544 242.112Z" fill="#2D2A2B"/>
<path d="M124.454 238.833C124.454 238.833 123.736 240.296 124.996 240.283C126.257 240.269 127.029 238.928 128.926 238.819C128.926 238.819 128.032 236.841 124.454 238.846V238.833Z" fill="#2D2A2B"/>
<path d="M125.904 245.174C125.904 245.174 126.284 242.938 127.706 242.816C127.923 242.803 128.411 242.897 128.628 243.074C128.845 243.263 129.427 243.128 129.861 242.518C129.861 242.518 129.143 243.101 128.723 242.721C128.519 242.545 127.856 242.288 127.571 242.355C126.799 242.545 126.013 243.019 125.904 245.174Z" fill="#2D2A2B"/>
<path d="M106.474 250.96C106.474 250.96 103.832 244.537 99.6446 247.559C99.6446 247.559 95.1053 251.122 102.287 257.315C102.287 257.315 105.119 259.7 108.642 257.857C108.642 257.857 109.739 256.705 106.474 250.96Z" fill="#FDD3B6"/>
<path opacity="0.51" d="M104.468 255.66C105.367 255.054 105.146 253.153 103.974 251.416C102.802 249.68 101.123 248.764 100.224 249.37C99.3242 249.977 99.5451 251.877 100.717 253.614C101.889 255.351 103.568 256.267 104.468 255.66Z" fill="#EE8075"/>
<path d="M115.899 248.968C116.564 248.82 116.942 247.978 116.745 247.087C116.548 246.196 115.848 245.593 115.184 245.74C114.519 245.887 114.14 246.729 114.337 247.62C114.535 248.512 115.234 249.115 115.899 248.968Z" fill="#2D2A2B"/>
<path d="M128.227 245.679C128.86 245.61 129.296 244.849 129.201 243.979C129.107 243.108 128.518 242.458 127.885 242.527C127.253 242.595 126.817 243.357 126.911 244.227C127.006 245.098 127.595 245.748 128.227 245.679Z" fill="#2D2A2B"/>
<path opacity="0.51" d="M119.631 253.817C119.714 252.105 118.194 250.641 116.235 250.546C114.277 250.451 112.622 251.762 112.539 253.474C112.457 255.185 113.977 256.65 115.935 256.744C117.894 256.839 119.548 255.528 119.631 253.817Z" fill="#EE8075"/>
<path opacity="0.51" d="M132.401 249.417C132.476 247.87 131.494 246.565 130.208 246.503C128.923 246.441 127.82 247.645 127.745 249.192C127.67 250.739 128.652 252.044 129.937 252.106C131.223 252.168 132.326 250.964 132.401 249.417Z" fill="#EE8075"/>
<path d="M105.607 255.418C104.577 253.236 103.56 249.253 100.579 249.483C100.186 249.551 99.8478 249.862 99.7936 250.296C99.6852 250.73 99.8071 251.217 99.9291 251.692C99.6716 251.272 99.4548 250.797 99.4684 250.255C99.4684 249.7 99.8884 249.144 100.457 248.968C103.899 248.263 105.281 252.762 105.62 255.404L105.607 255.418Z" fill="#EC8976"/>
<path d="M103.52 254.835C104.048 253.602 103.709 252.45 103.886 251.109C104.685 252.139 104.875 254.185 103.52 254.835Z" fill="#EC8976"/>
<path d="M121.555 255.201C121.555 255.201 123.696 257.45 126.514 255.201L126.203 254.957C126.203 254.957 124.211 256.773 121.623 254.93L121.555 255.215V255.201Z" fill="#CF684D"/>
<path d="M126.541 270.038C126.541 270.038 129.021 270.634 128.804 271.624C128.587 272.613 126.541 272.03 126.541 272.03C126.541 272.03 128.371 273.331 127.625 274.212C126.88 275.092 125.755 274.212 125.755 274.212C125.755 274.212 127.463 275.079 126.677 276.258C125.891 277.437 124.807 275.973 124.807 275.973C124.807 275.973 126.501 277.152 125.498 278.06C124.712 278.778 123.587 277.071 123.587 277.071C123.587 277.071 124.942 278.913 123.98 279.455C123.018 279.997 122.165 278.358 122.165 278.358C122.165 278.358 123.628 280.052 122.354 280.512C121.081 280.973 120.715 279.049 120.715 279.049C120.715 279.049 121.785 281.136 120.43 281.38C120.43 281.38 119.143 281.867 119.197 279.239C119.197 279.239 125.132 277.965 126.541 270.052V270.038Z" fill="#114C97"/>
<path d="M119.427 279.401C119.427 279.401 118.601 282.003 117.53 281.705C116.46 281.407 117.259 279.252 117.259 279.252C117.259 279.252 115.715 281.109 114.807 280.255C113.899 279.401 114.942 278.25 114.942 278.25C114.942 278.25 113.872 280.011 112.652 279.09C111.433 278.168 113.1 277.111 113.1 277.111C113.1 277.111 111.69 278.832 110.783 277.694C110.064 276.8 112.002 275.729 112.002 275.729C112.002 275.729 109.888 277.044 109.387 275.973C108.886 274.903 110.715 274.117 110.715 274.117C110.715 274.117 108.777 275.553 108.357 274.158C107.937 272.762 110.064 272.518 110.064 272.518C110.064 272.518 107.707 273.507 107.558 272.044C107.558 272.044 107.124 270.621 109.983 270.879C109.983 270.879 112.422 276.285 119.441 279.401H119.427Z" fill="#114C97"/>
<path d="M130.823 240.73C130.823 240.73 126.473 228.507 117.733 230.147C117.733 230.147 122.313 233.602 117.083 236.028C117.083 236.028 116.121 236.475 116.934 236.61C116.934 236.61 117.544 236.651 117.598 236.095C117.598 236.095 117.774 237.112 116.514 237.017C115.254 236.922 115.416 235.77 116.243 235.174C117.07 234.578 118.126 235.906 113.696 232.505C113.696 232.505 116.799 240.946 107.056 244.822C107.056 244.822 108.723 248.467 105.633 250.675C105.633 250.675 104.346 246.055 101.202 246.813C101.202 246.813 95.2405 229.361 114.861 226.407C130.565 224.049 131.134 236.841 130.782 240.716L130.823 240.73Z" fill="#2D2A2B"/>
<path d="M102.287 257.315L111.351 261.692C111.351 261.692 112.53 262.437 112.178 264.022C112.178 264.022 105.593 263.385 101.352 258.561" fill="#114C97"/>
<path opacity="0.51" d="M125.972 255.174C125.972 255.174 125.565 253.846 124.183 255.038C124.183 255.038 122.612 253.968 122.341 255.689C122.341 255.689 124.441 256.542 125.972 255.174Z" fill="#EE8075"/>
<path opacity="0.51" d="M122.151 255.486C122.151 255.486 123.073 257.992 124.699 257.356C125.512 257.044 126.243 255.228 126.243 255.228C126.243 255.228 123.628 253.751 122.165 255.486H122.151Z" fill="#EE8075"/>
<path d="M106.311 259.849C107.037 259.849 107.625 259.26 107.625 258.534C107.625 257.808 107.037 257.22 106.311 257.22C105.585 257.22 104.997 257.808 104.997 258.534C104.997 259.26 105.585 259.849 106.311 259.849Z" fill="#70BDC2"/>
<path d="M110.864 270.404C110.864 270.404 114.807 277.558 119.034 278.927C119.034 278.927 124.698 277.978 125.715 270.269C125.715 270.269 125.593 269.862 126.555 270.025C126.555 270.025 126.555 277.951 119.319 279.428C119.319 279.428 118.818 279.428 118.669 279.374C113.682 277.64 109.536 270.783 109.536 270.783C109.536 270.783 109.36 270.716 110.864 270.391V270.404Z" fill="white"/>
<path fill-rule="evenodd" clip-rule="evenodd" d="M129.495 295.201C129.495 295.201 132.11 291.325 130.687 290.77C129.264 290.214 129.319 293.859 129.495 295.201Z" fill="white"/>
<path fill-rule="evenodd" clip-rule="evenodd" d="M129.129 295.174C129.129 295.174 129.333 290.526 127.815 290.716C126.311 290.905 128.262 294.076 129.129 295.174Z" fill="white"/>
<path fill-rule="evenodd" clip-rule="evenodd" d="M128.804 295.322C128.804 295.322 126.528 291.149 125.349 292.03C124.156 292.911 127.503 294.767 128.804 295.322Z" fill="white"/>
<path fill-rule="evenodd" clip-rule="evenodd" d="M128.601 295.607C128.601 295.607 124.468 293.019 123.912 294.374C123.357 295.716 127.178 295.743 128.601 295.607Z" fill="white"/>
<path fill-rule="evenodd" clip-rule="evenodd" d="M128.574 295.959C128.574 295.959 123.682 295.661 123.926 297.111C124.156 298.561 127.436 296.759 128.574 295.959Z" fill="white"/>
<path fill-rule="evenodd" clip-rule="evenodd" d="M128.75 296.285C128.75 296.285 124.414 298.358 125.376 299.51C126.338 300.661 128.194 297.518 128.75 296.285Z" fill="white"/>
<path fill-rule="evenodd" clip-rule="evenodd" d="M129.062 296.474C129.062 296.474 126.446 300.35 127.869 300.905C129.292 301.461 129.238 297.816 129.062 296.474Z" fill="white"/>
<path fill-rule="evenodd" clip-rule="evenodd" d="M129.427 296.501C129.427 296.501 129.224 301.149 130.742 300.959C132.246 300.77 130.294 297.599 129.427 296.501Z" fill="white"/>
<path fill-rule="evenodd" clip-rule="evenodd" d="M129.752 296.352C129.752 296.352 132.029 300.526 133.208 299.645C134.4 298.764 131.053 296.908 129.752 296.352Z" fill="white"/>
<path fill-rule="evenodd" clip-rule="evenodd" d="M129.956 296.068C129.956 296.068 134.089 298.656 134.644 297.301C135.2 295.959 131.379 295.932 129.956 296.068Z" fill="white"/>
<path fill-rule="evenodd" clip-rule="evenodd" d="M129.983 295.716C129.983 295.716 134.874 296.014 134.631 294.564C134.4 293.114 131.121 294.916 129.983 295.716Z" fill="white"/>
<path fill-rule="evenodd" clip-rule="evenodd" d="M129.807 295.39C129.807 295.39 134.143 293.317 133.181 292.165C132.219 291.014 130.362 294.157 129.807 295.39Z" fill="white"/>
<path fill-rule="evenodd" clip-rule="evenodd" d="M128.912 297.369C128.018 297.165 127.462 296.298 127.652 295.458C127.842 294.618 128.736 294.089 129.63 294.306C130.525 294.523 131.08 295.377 130.891 296.217C130.701 297.057 129.807 297.585 128.912 297.369Z" fill="#F0B04F"/>
<path fill-rule="evenodd" clip-rule="evenodd" d="M128.994 297.057C128.289 296.894 127.829 296.203 127.991 295.526C128.154 294.848 128.858 294.442 129.563 294.605C130.268 294.767 130.728 295.458 130.566 296.136C130.403 296.813 129.698 297.22 128.994 297.057Z" fill="white"/>
<path fill-rule="evenodd" clip-rule="evenodd" d="M122.273 321.935C122.273 321.935 124.888 318.059 123.465 317.504C122.043 316.948 122.097 320.593 122.273 321.935Z" fill="white"/>
<path fill-rule="evenodd" clip-rule="evenodd" d="M121.907 321.908C121.907 321.908 122.11 317.26 120.593 317.45C119.089 317.639 121.04 320.81 121.907 321.908Z" fill="white"/>
<path fill-rule="evenodd" clip-rule="evenodd" d="M121.569 322.057C121.569 322.057 119.292 317.883 118.113 318.764C116.921 319.645 120.268 321.501 121.569 322.057Z" fill="white"/>
<path fill-rule="evenodd" clip-rule="evenodd" d="M121.379 322.341C121.379 322.341 117.246 319.753 116.691 321.108C116.135 322.45 119.956 322.477 121.379 322.341Z" fill="white"/>
<path fill-rule="evenodd" clip-rule="evenodd" d="M121.352 322.693C121.352 322.693 116.46 322.395 116.704 323.845C116.934 325.295 120.214 323.493 121.352 322.693Z" fill="white"/>
<path fill-rule="evenodd" clip-rule="evenodd" d="M121.514 323.019C121.514 323.019 117.178 325.092 118.14 326.244C119.102 327.395 120.959 324.252 121.514 323.019Z" fill="white"/>
<path fill-rule="evenodd" clip-rule="evenodd" d="M121.826 323.208C121.826 323.208 119.211 327.084 120.634 327.639C122.056 328.195 122.002 324.55 121.826 323.208Z" fill="white"/>
<path fill-rule="evenodd" clip-rule="evenodd" d="M122.205 323.235C122.205 323.235 122.002 327.883 123.52 327.693C125.024 327.504 123.073 324.333 122.205 323.235Z" fill="white"/>
<path fill-rule="evenodd" clip-rule="evenodd" d="M122.531 323.087C122.531 323.087 124.807 327.26 125.986 326.379C127.178 325.499 123.831 323.642 122.531 323.087Z" fill="white"/>
<path fill-rule="evenodd" clip-rule="evenodd" d="M122.734 322.802C122.734 322.802 126.867 325.39 127.422 324.035C127.978 322.694 124.157 322.666 122.734 322.802Z" fill="white"/>
<path fill-rule="evenodd" clip-rule="evenodd" d="M122.748 322.45C122.748 322.45 127.639 322.748 127.395 321.298C127.165 319.848 123.886 321.65 122.748 322.45Z" fill="white"/>
<path fill-rule="evenodd" clip-rule="evenodd" d="M122.585 322.124C122.585 322.124 126.921 320.051 125.959 318.899C124.997 317.748 123.14 320.891 122.585 322.124Z" fill="white"/>
<path fill-rule="evenodd" clip-rule="evenodd" d="M121.69 324.103C120.796 323.899 120.24 323.032 120.43 322.192C120.62 321.352 121.514 320.824 122.408 321.04C123.303 321.257 123.858 322.111 123.669 322.951C123.479 323.791 122.585 324.319 121.69 324.103Z" fill="#F0B04F"/>
<path fill-rule="evenodd" clip-rule="evenodd" d="M121.758 323.791C121.054 323.629 120.593 322.938 120.756 322.26C120.918 321.583 121.623 321.176 122.327 321.339C123.032 321.501 123.493 322.192 123.33 322.87C123.168 323.547 122.463 323.954 121.758 323.791Z" fill="white"/>
<path fill-rule="evenodd" clip-rule="evenodd" d="M119.116 367.747C119.116 367.747 121.731 363.872 120.308 363.316C118.885 362.761 118.94 366.406 119.116 367.747Z" fill="white"/>
<path fill-rule="evenodd" clip-rule="evenodd" d="M118.75 367.72C118.75 367.72 118.953 363.072 117.436 363.262C115.932 363.452 117.883 366.623 118.75 367.72Z" fill="white"/>
<path fill-rule="evenodd" clip-rule="evenodd" d="M118.411 367.883C118.411 367.883 116.135 363.709 114.956 364.59C113.763 365.471 117.11 367.327 118.411 367.883Z" fill="white"/>
<path fill-rule="evenodd" clip-rule="evenodd" d="M118.208 368.167C118.208 368.167 114.075 365.579 113.52 366.934C112.964 368.276 116.785 368.303 118.208 368.167Z" fill="white"/>
<path fill-rule="evenodd" clip-rule="evenodd" d="M118.195 368.52C118.195 368.52 113.303 368.221 113.547 369.671C113.777 371.121 117.056 369.319 118.195 368.52Z" fill="white"/>
<path fill-rule="evenodd" clip-rule="evenodd" d="M118.357 368.831C118.357 368.831 114.021 370.904 114.983 372.056C115.945 373.208 117.801 370.064 118.357 368.831Z" fill="white"/>
<path fill-rule="evenodd" clip-rule="evenodd" d="M118.669 369.034C118.669 369.034 116.054 372.91 117.476 373.465C118.899 374.021 118.845 370.376 118.669 369.034Z" fill="white"/>
<path fill-rule="evenodd" clip-rule="evenodd" d="M119.034 369.062C119.034 369.062 118.831 373.709 120.349 373.52C121.853 373.33 119.902 370.159 119.034 369.062Z" fill="white"/>
<path fill-rule="evenodd" clip-rule="evenodd" d="M119.373 368.912C119.373 368.912 121.65 373.086 122.829 372.205C124.021 371.324 120.674 369.468 119.373 368.912Z" fill="white"/>
<path fill-rule="evenodd" clip-rule="evenodd" d="M119.577 368.614C119.577 368.614 123.709 371.202 124.265 369.847C124.82 368.506 120.999 368.479 119.577 368.614Z" fill="white"/>
<path fill-rule="evenodd" clip-rule="evenodd" d="M119.59 368.262C119.59 368.262 124.482 368.56 124.238 367.111C124.007 365.661 120.728 367.463 119.59 368.262Z" fill="white"/>
<path fill-rule="evenodd" clip-rule="evenodd" d="M119.427 367.95C119.427 367.95 123.764 365.877 122.801 364.725C121.839 363.574 119.983 366.717 119.427 367.95Z" fill="white"/>
<path fill-rule="evenodd" clip-rule="evenodd" d="M118.533 369.929C117.639 369.725 117.083 368.858 117.273 368.018C117.463 367.178 118.357 366.65 119.251 366.866C120.146 367.083 120.701 367.937 120.511 368.777C120.322 369.617 119.427 370.146 118.533 369.929Z" fill="#F0B04F"/>
<path fill-rule="evenodd" clip-rule="evenodd" d="M118.601 369.617C117.896 369.454 117.436 368.763 117.598 368.086C117.761 367.408 118.466 367.002 119.17 367.164C119.875 367.327 120.335 368.018 120.173 368.696C120.01 369.373 119.306 369.78 118.601 369.617Z" fill="white"/>
<path fill-rule="evenodd" clip-rule="evenodd" d="M134.59 341.311C134.59 341.311 137.205 337.436 135.782 336.88C134.359 336.325 134.414 339.97 134.59 341.311Z" fill="white"/>
<path fill-rule="evenodd" clip-rule="evenodd" d="M134.224 341.284C134.224 341.284 134.427 336.636 132.909 336.826C131.405 337.016 133.357 340.186 134.224 341.284Z" fill="white"/>
<path fill-rule="evenodd" clip-rule="evenodd" d="M133.899 341.447C133.899 341.447 131.622 337.273 130.443 338.154C129.251 339.035 132.598 340.891 133.899 341.447Z" fill="white"/>
<path fill-rule="evenodd" clip-rule="evenodd" d="M133.695 341.731C133.695 341.731 129.563 339.143 129.007 340.498C128.452 341.84 132.273 341.867 133.695 341.731Z" fill="white"/>
<path fill-rule="evenodd" clip-rule="evenodd" d="M133.682 342.083C133.682 342.083 128.791 341.785 129.034 343.235C129.265 344.685 132.544 342.883 133.682 342.083Z" fill="white"/>
<path fill-rule="evenodd" clip-rule="evenodd" d="M133.845 342.395C133.845 342.395 129.509 344.468 130.471 345.62C131.433 346.772 133.289 343.628 133.845 342.395Z" fill="white"/>
<path fill-rule="evenodd" clip-rule="evenodd" d="M134.156 342.598C134.156 342.598 131.541 346.474 132.964 347.029C134.387 347.585 134.332 343.94 134.156 342.598Z" fill="white"/>
<path fill-rule="evenodd" clip-rule="evenodd" d="M134.522 342.625C134.522 342.625 134.319 347.273 135.837 347.083C137.341 346.894 135.389 343.723 134.522 342.625Z" fill="white"/>
<path fill-rule="evenodd" clip-rule="evenodd" d="M134.847 342.476C134.847 342.476 137.124 346.65 138.302 345.769C139.495 344.888 136.148 343.032 134.847 342.476Z" fill="white"/>
<path fill-rule="evenodd" clip-rule="evenodd" d="M135.051 342.178C135.051 342.178 139.183 344.766 139.739 343.411C140.294 342.07 136.473 342.043 135.051 342.178Z" fill="white"/>
<path fill-rule="evenodd" clip-rule="evenodd" d="M135.078 341.84C135.078 341.84 139.969 342.138 139.725 340.688C139.495 339.238 136.216 341.04 135.078 341.84Z" fill="white"/>
<path fill-rule="evenodd" clip-rule="evenodd" d="M134.901 341.514C134.901 341.514 139.237 339.441 138.275 338.289C137.313 337.138 135.457 340.281 134.901 341.514Z" fill="white"/>
<path fill-rule="evenodd" clip-rule="evenodd" d="M134.021 343.493C133.126 343.289 132.571 342.422 132.76 341.582C132.95 340.742 133.845 340.214 134.739 340.43C135.633 340.647 136.189 341.501 135.999 342.341C135.809 343.181 134.915 343.709 134.021 343.493Z" fill="#F0B04F"/>
<path fill-rule="evenodd" clip-rule="evenodd" d="M134.089 343.181C133.384 343.019 132.923 342.328 133.086 341.65C133.249 340.973 133.953 340.566 134.658 340.729C135.362 340.891 135.823 341.582 135.66 342.26C135.498 342.937 134.793 343.344 134.089 343.181Z" fill="white"/>
<path fill-rule="evenodd" clip-rule="evenodd" d="M102.951 351.46C102.951 351.46 105.566 347.585 104.143 347.029C102.72 346.474 102.774 350.119 102.951 351.46Z" fill="white"/>
<path fill-rule="evenodd" clip-rule="evenodd" d="M102.585 351.433C102.585 351.433 102.788 346.785 101.27 346.975C99.7662 347.165 101.717 350.335 102.585 351.433Z" fill="white"/>
<path fill-rule="evenodd" clip-rule="evenodd" d="M102.246 351.582C102.246 351.582 99.9697 347.409 98.7908 348.289C97.5984 349.17 100.945 351.026 102.246 351.582Z" fill="white"/>
<path fill-rule="evenodd" clip-rule="evenodd" d="M102.043 351.867C102.043 351.867 97.9101 349.279 97.3546 350.634C96.799 351.975 100.62 352.002 102.043 351.867Z" fill="white"/>
<path fill-rule="evenodd" clip-rule="evenodd" d="M102.03 352.219C102.03 352.219 97.138 351.921 97.3819 353.371C97.6122 354.82 100.891 353.018 102.03 352.219Z" fill="white"/>
<path fill-rule="evenodd" clip-rule="evenodd" d="M102.192 352.544C102.192 352.544 97.856 354.617 98.818 355.769C99.7801 356.921 101.636 353.777 102.192 352.544Z" fill="white"/>
<path fill-rule="evenodd" clip-rule="evenodd" d="M102.503 352.734C102.503 352.734 99.8883 356.609 101.311 357.165C102.734 357.72 102.68 354.075 102.503 352.734Z" fill="white"/>
<path fill-rule="evenodd" clip-rule="evenodd" d="M102.869 352.761C102.869 352.761 102.666 357.408 104.184 357.219C105.688 357.029 103.737 353.858 102.869 352.761Z" fill="white"/>
<path fill-rule="evenodd" clip-rule="evenodd" d="M103.208 352.612C103.208 352.612 105.485 356.785 106.664 355.905C107.856 355.024 104.509 353.168 103.208 352.612Z" fill="white"/>
<path fill-rule="evenodd" clip-rule="evenodd" d="M103.412 352.327C103.412 352.327 107.544 354.915 108.1 353.56C108.655 352.219 104.834 352.192 103.412 352.327Z" fill="white"/>
<path fill-rule="evenodd" clip-rule="evenodd" d="M103.425 351.975C103.425 351.975 108.317 352.273 108.073 350.823C107.842 349.374 104.563 351.176 103.425 351.975Z" fill="white"/>
<path fill-rule="evenodd" clip-rule="evenodd" d="M103.262 351.65C103.262 351.65 107.598 349.577 106.636 348.425C105.674 347.273 103.818 350.417 103.262 351.65Z" fill="white"/>
<path fill-rule="evenodd" clip-rule="evenodd" d="M102.368 353.628C101.474 353.425 100.918 352.558 101.108 351.717C101.298 350.877 102.192 350.349 103.086 350.566C103.98 350.782 104.536 351.636 104.346 352.476C104.157 353.316 103.262 353.845 102.368 353.628Z" fill="#F0B04F"/>
<path fill-rule="evenodd" clip-rule="evenodd" d="M102.436 353.317C101.731 353.154 101.271 352.463 101.433 351.786C101.596 351.108 102.301 350.701 103.005 350.864C103.71 351.027 104.17 351.718 104.008 352.395C103.845 353.073 103.141 353.479 102.436 353.317Z" fill="white"/>
<path fill-rule="evenodd" clip-rule="evenodd" d="M110.999 290.675C110.999 290.675 112.639 288.155 111.758 287.802C110.891 287.45 110.891 289.808 110.999 290.675Z" fill="#D5973A"/>
<path fill-rule="evenodd" clip-rule="evenodd" d="M110.769 290.661C110.769 290.661 110.932 287.653 109.997 287.789C109.062 287.924 110.254 289.957 110.769 290.661Z" fill="#D5973A"/>
<path fill-rule="evenodd" clip-rule="evenodd" d="M110.566 290.756C110.566 290.756 109.197 288.073 108.466 288.656C107.72 289.239 109.766 290.404 110.566 290.756Z" fill="#D5973A"/>
<path fill-rule="evenodd" clip-rule="evenodd" d="M110.444 290.946C110.444 290.946 107.923 289.306 107.571 290.187C107.219 291.054 109.576 291.054 110.444 290.946Z" fill="#D5973A"/>
<path fill-rule="evenodd" clip-rule="evenodd" d="M110.43 291.176C110.43 291.176 107.422 291.014 107.557 291.949C107.693 292.883 109.725 291.691 110.43 291.176Z" fill="#D5973A"/>
<path fill-rule="evenodd" clip-rule="evenodd" d="M110.525 291.379C110.525 291.379 107.842 292.748 108.425 293.48C109.008 294.225 110.173 292.179 110.525 291.379Z" fill="#D5973A"/>
<path fill-rule="evenodd" clip-rule="evenodd" d="M110.715 291.501C110.715 291.501 109.075 294.022 109.956 294.374C110.823 294.726 110.823 292.369 110.715 291.501Z" fill="#D5973A"/>
<path fill-rule="evenodd" clip-rule="evenodd" d="M110.945 291.515C110.945 291.515 110.783 294.523 111.717 294.388C112.652 294.252 111.46 292.22 110.945 291.515Z" fill="#D5973A"/>
<path fill-rule="evenodd" clip-rule="evenodd" d="M111.148 291.42C111.148 291.42 112.517 294.103 113.248 293.52C113.994 292.938 111.948 291.772 111.148 291.42Z" fill="#D5973A"/>
<path fill-rule="evenodd" clip-rule="evenodd" d="M111.27 291.23C111.27 291.23 113.791 292.87 114.143 291.989C114.495 291.122 112.137 291.122 111.27 291.23Z" fill="#D5973A"/>
<path fill-rule="evenodd" clip-rule="evenodd" d="M111.284 291C111.284 291 114.292 291.163 114.157 290.228C114.021 289.293 111.989 290.485 111.284 291Z" fill="#D5973A"/>
<path fill-rule="evenodd" clip-rule="evenodd" d="M111.189 290.797C111.189 290.797 113.872 289.428 113.289 288.697C112.707 287.951 111.541 289.997 111.189 290.797Z" fill="#D5973A"/>
<path fill-rule="evenodd" clip-rule="evenodd" d="M110.62 292.084C110.078 291.962 109.739 291.407 109.861 290.865C109.983 290.323 110.539 289.984 111.081 290.106C111.623 290.228 111.961 290.783 111.839 291.325C111.717 291.867 111.162 292.206 110.62 292.084Z" fill="#D5973A"/>
<path fill-rule="evenodd" clip-rule="evenodd" d="M110.674 291.881C110.24 291.772 109.969 291.339 110.064 290.905C110.159 290.471 110.606 290.2 111.04 290.295C111.474 290.39 111.745 290.837 111.65 291.271C111.555 291.705 111.108 291.976 110.674 291.881Z" fill="#D5973A"/>
<path fill-rule="evenodd" clip-rule="evenodd" d="M115.078 308.453C115.078 308.453 116.717 305.932 115.837 305.58C114.969 305.228 114.969 307.586 115.078 308.453Z" fill="#D5973A"/>
<path fill-rule="evenodd" clip-rule="evenodd" d="M114.848 308.439C114.848 308.439 115.01 305.431 114.075 305.567C113.14 305.702 114.333 307.735 114.848 308.439Z" fill="#D5973A"/>
<path fill-rule="evenodd" clip-rule="evenodd" d="M114.644 308.534C114.644 308.534 113.276 305.851 112.544 306.434C111.799 307.017 113.845 308.182 114.644 308.534Z" fill="#D5973A"/>
<path fill-rule="evenodd" clip-rule="evenodd" d="M114.522 308.724C114.522 308.724 112.002 307.084 111.65 307.965C111.297 308.832 113.655 308.832 114.522 308.724Z" fill="#D5973A"/>
<path fill-rule="evenodd" clip-rule="evenodd" d="M114.509 308.954C114.509 308.954 111.501 308.792 111.636 309.726C111.772 310.661 113.804 309.469 114.509 308.954Z" fill="#D5973A"/>
<path fill-rule="evenodd" clip-rule="evenodd" d="M114.604 309.157C114.604 309.157 111.921 310.526 112.503 311.258C113.086 312.003 114.251 309.957 114.604 309.157Z" fill="#D5973A"/>
<path fill-rule="evenodd" clip-rule="evenodd" d="M114.793 309.279C114.793 309.279 113.154 311.8 114.035 312.152C114.902 312.504 114.902 310.147 114.793 309.279Z" fill="#D5973A"/>
<path fill-rule="evenodd" clip-rule="evenodd" d="M115.024 309.293C115.024 309.293 114.861 312.301 115.796 312.166C116.731 312.03 115.538 309.998 115.024 309.293Z" fill="#D5973A"/>
<path fill-rule="evenodd" clip-rule="evenodd" d="M115.227 309.198C115.227 309.198 116.595 311.881 117.327 311.298C118.072 310.716 116.026 309.55 115.227 309.198Z" fill="#D5973A"/>
<path fill-rule="evenodd" clip-rule="evenodd" d="M115.349 309.008C115.349 309.008 117.869 310.648 118.221 309.767C118.574 308.9 116.216 308.9 115.349 309.008Z" fill="#D5973A"/>
<path fill-rule="evenodd" clip-rule="evenodd" d="M115.363 308.778C115.363 308.778 118.371 308.941 118.235 308.006C118.1 307.071 116.067 308.263 115.363 308.778Z" fill="#D5973A"/>
<path fill-rule="evenodd" clip-rule="evenodd" d="M115.268 308.575C115.268 308.575 117.95 307.206 117.368 306.475C116.785 305.729 115.62 307.775 115.268 308.575Z" fill="#D5973A"/>
<path fill-rule="evenodd" clip-rule="evenodd" d="M114.698 309.862C114.156 309.74 113.818 309.185 113.94 308.643C114.062 308.101 114.617 307.762 115.159 307.884C115.701 308.006 116.04 308.561 115.918 309.103C115.796 309.645 115.24 309.984 114.698 309.862Z" fill="#D5973A"/>
<path fill-rule="evenodd" clip-rule="evenodd" d="M114.752 309.659C114.319 309.55 114.048 309.117 114.143 308.683C114.238 308.249 114.685 307.978 115.118 308.073C115.552 308.168 115.823 308.615 115.728 309.049C115.633 309.482 115.186 309.753 114.752 309.659Z" fill="#D5973A"/>
<path fill-rule="evenodd" clip-rule="evenodd" d="M108.818 335.769C108.818 335.769 110.458 333.249 109.577 332.897C108.71 332.544 108.71 334.902 108.818 335.769Z" fill="#D5973A"/>
<path fill-rule="evenodd" clip-rule="evenodd" d="M108.588 335.756C108.588 335.756 108.75 332.747 107.815 332.883C106.88 333.018 108.073 335.051 108.588 335.756Z" fill="#D5973A"/>
<path fill-rule="evenodd" clip-rule="evenodd" d="M108.384 335.851C108.384 335.851 107.016 333.168 106.284 333.75C105.539 334.333 107.585 335.498 108.384 335.851Z" fill="#D5973A"/>
<path fill-rule="evenodd" clip-rule="evenodd" d="M108.262 336.04C108.262 336.04 105.742 334.401 105.39 335.281C105.037 336.149 107.395 336.149 108.262 336.04Z" fill="#D5973A"/>
<path fill-rule="evenodd" clip-rule="evenodd" d="M108.249 336.271C108.249 336.271 105.241 336.108 105.376 337.043C105.512 337.978 107.544 336.785 108.249 336.271Z" fill="#D5973A"/>
<path fill-rule="evenodd" clip-rule="evenodd" d="M108.344 336.474C108.344 336.474 105.661 337.842 106.243 338.574C106.826 339.319 107.991 337.273 108.344 336.474Z" fill="#D5973A"/>
<path fill-rule="evenodd" clip-rule="evenodd" d="M108.533 336.596C108.533 336.596 106.894 339.116 107.775 339.468C108.642 339.821 108.642 337.463 108.533 336.596Z" fill="#D5973A"/>
<path fill-rule="evenodd" clip-rule="evenodd" d="M108.764 336.609C108.764 336.609 108.601 339.617 109.536 339.482C110.471 339.346 109.279 337.314 108.764 336.609Z" fill="#D5973A"/>
<path fill-rule="evenodd" clip-rule="evenodd" d="M108.967 336.514C108.967 336.514 110.335 339.197 111.067 338.615C111.812 338.032 109.766 336.867 108.967 336.514Z" fill="#D5973A"/>
<path fill-rule="evenodd" clip-rule="evenodd" d="M109.089 336.325C109.089 336.325 111.609 337.964 111.961 337.084C112.314 336.216 109.956 336.216 109.089 336.325Z" fill="#D5973A"/>
<path fill-rule="evenodd" clip-rule="evenodd" d="M109.103 336.094C109.103 336.094 112.111 336.257 111.975 335.322C111.84 334.387 109.807 335.579 109.103 336.094Z" fill="#D5973A"/>
<path fill-rule="evenodd" clip-rule="evenodd" d="M109.008 335.891C109.008 335.891 111.69 334.523 111.108 333.791C110.525 333.046 109.36 335.092 109.008 335.891Z" fill="#D5973A"/>
<path fill-rule="evenodd" clip-rule="evenodd" d="M108.438 337.178C107.896 337.057 107.558 336.501 107.68 335.959C107.802 335.417 108.357 335.078 108.899 335.2C109.441 335.322 109.78 335.878 109.658 336.42C109.536 336.962 108.98 337.3 108.438 337.178Z" fill="#D5973A"/>
<path fill-rule="evenodd" clip-rule="evenodd" d="M108.493 336.975C108.059 336.867 107.788 336.433 107.883 335.999C107.978 335.566 108.425 335.295 108.859 335.39C109.292 335.485 109.563 335.932 109.468 336.365C109.373 336.799 108.926 337.07 108.493 336.975Z" fill="#D5973A"/>
<path fill-rule="evenodd" clip-rule="evenodd" d="M134.224 354.766C134.224 354.766 135.864 352.246 134.983 351.894C134.116 351.541 134.116 353.899 134.224 354.766Z" fill="#D5973A"/>
<path fill-rule="evenodd" clip-rule="evenodd" d="M133.994 354.753C133.994 354.753 134.157 351.745 133.222 351.88C132.287 352.016 133.479 354.048 133.994 354.753Z" fill="#D5973A"/>
<path fill-rule="evenodd" clip-rule="evenodd" d="M133.791 354.861C133.791 354.861 132.422 352.178 131.69 352.761C130.945 353.344 132.991 354.509 133.791 354.861Z" fill="#D5973A"/>
<path fill-rule="evenodd" clip-rule="evenodd" d="M133.668 355.037C133.668 355.037 131.148 353.398 130.796 354.279C130.444 355.146 132.801 355.146 133.668 355.037Z" fill="#D5973A"/>
<path fill-rule="evenodd" clip-rule="evenodd" d="M133.655 355.268C133.655 355.268 130.647 355.105 130.782 356.04C130.918 356.975 132.95 355.783 133.655 355.268Z" fill="#D5973A"/>
<path fill-rule="evenodd" clip-rule="evenodd" d="M133.75 355.471C133.75 355.471 131.067 356.839 131.65 357.571C132.232 358.316 133.398 356.27 133.75 355.471Z" fill="#D5973A"/>
<path fill-rule="evenodd" clip-rule="evenodd" d="M133.94 355.607C133.94 355.607 132.3 358.127 133.181 358.479C134.048 358.832 134.048 356.474 133.94 355.607Z" fill="#D5973A"/>
<path fill-rule="evenodd" clip-rule="evenodd" d="M134.17 355.62C134.17 355.62 134.007 358.628 134.942 358.493C135.877 358.357 134.685 356.325 134.17 355.62Z" fill="#D5973A"/>
<path fill-rule="evenodd" clip-rule="evenodd" d="M134.373 355.512C134.373 355.512 135.742 358.194 136.473 357.612C137.219 357.029 135.172 355.864 134.373 355.512Z" fill="#D5973A"/>
<path fill-rule="evenodd" clip-rule="evenodd" d="M134.495 355.322C134.495 355.322 137.015 356.962 137.368 356.081C137.72 355.214 135.362 355.214 134.495 355.322Z" fill="#D5973A"/>
<path fill-rule="evenodd" clip-rule="evenodd" d="M134.522 355.105C134.522 355.105 137.53 355.268 137.395 354.333C137.259 353.398 135.227 354.59 134.522 355.105Z" fill="#D5973A"/>
<path fill-rule="evenodd" clip-rule="evenodd" d="M134.414 354.888C134.414 354.888 137.097 353.52 136.514 352.788C135.931 352.043 134.766 354.089 134.414 354.888Z" fill="#D5973A"/>
<path fill-rule="evenodd" clip-rule="evenodd" d="M133.858 356.176C133.316 356.054 132.978 355.498 133.1 354.956C133.221 354.414 133.777 354.075 134.319 354.197C134.861 354.319 135.2 354.875 135.078 355.417C134.956 355.959 134.4 356.298 133.858 356.176Z" fill="#D5973A"/>
<path fill-rule="evenodd" clip-rule="evenodd" d="M133.899 355.972C133.465 355.864 133.194 355.43 133.289 354.997C133.384 354.563 133.831 354.292 134.265 354.387C134.698 354.482 134.969 354.929 134.875 355.363C134.78 355.796 134.333 356.067 133.899 355.972Z" fill="#D5973A"/>
<path fill-rule="evenodd" clip-rule="evenodd" d="M100.539 378.059C100.539 378.059 102.178 375.539 101.298 375.186C100.43 374.834 100.43 377.192 100.539 378.059Z" fill="#D5973A"/>
<path fill-rule="evenodd" clip-rule="evenodd" d="M100.308 378.045C100.308 378.045 100.471 375.037 99.536 375.173C98.6011 375.308 99.7935 377.341 100.308 378.045Z" fill="#D5973A"/>
<path fill-rule="evenodd" clip-rule="evenodd" d="M100.105 378.154C100.105 378.154 98.7368 375.471 98.0051 376.054C97.2598 376.636 99.3059 377.801 100.105 378.154Z" fill="#D5973A"/>
<path fill-rule="evenodd" clip-rule="evenodd" d="M99.9832 378.33C99.9832 378.33 97.4629 376.69 97.1106 377.571C96.7583 378.438 99.116 378.438 99.9832 378.33Z" fill="#D5973A"/>
<path fill-rule="evenodd" clip-rule="evenodd" d="M99.9696 378.56C99.9696 378.56 96.9615 378.398 97.097 379.333C97.2325 380.268 99.265 379.075 99.9696 378.56Z" fill="#D5973A"/>
<path fill-rule="evenodd" clip-rule="evenodd" d="M100.064 378.763C100.064 378.763 97.3815 380.132 97.9642 380.864C98.5468 381.609 99.7121 379.563 100.064 378.763Z" fill="#D5973A"/>
<path fill-rule="evenodd" clip-rule="evenodd" d="M100.254 378.899C100.254 378.899 98.6146 381.419 99.4953 381.772C100.363 382.124 100.363 379.766 100.254 378.899Z" fill="#D5973A"/>
<path fill-rule="evenodd" clip-rule="evenodd" d="M100.484 378.913C100.484 378.913 100.322 381.921 101.257 381.785C102.192 381.65 100.999 379.617 100.484 378.913Z" fill="#D5973A"/>
<path fill-rule="evenodd" clip-rule="evenodd" d="M100.688 378.804C100.688 378.804 102.056 381.487 102.788 380.904C103.533 380.322 101.487 379.156 100.688 378.804Z" fill="#D5973A"/>
<path fill-rule="evenodd" clip-rule="evenodd" d="M100.81 378.614C100.81 378.614 103.33 380.254 103.682 379.373C104.035 378.506 101.677 378.506 100.81 378.614Z" fill="#D5973A"/>
<path fill-rule="evenodd" clip-rule="evenodd" d="M100.823 378.398C100.823 378.398 103.831 378.56 103.696 377.625C103.56 376.69 101.528 377.883 100.823 378.398Z" fill="#D5973A"/>
<path fill-rule="evenodd" clip-rule="evenodd" d="M100.728 378.181C100.728 378.181 103.411 376.812 102.829 376.081C102.246 375.335 101.081 377.381 100.728 378.181Z" fill="#D5973A"/>
<path fill-rule="evenodd" clip-rule="evenodd" d="M100.159 379.468C99.6174 379.346 99.2786 378.791 99.4006 378.249C99.5225 377.707 100.078 377.368 100.62 377.49C101.162 377.612 101.501 378.167 101.379 378.709C101.257 379.251 100.701 379.59 100.159 379.468Z" fill="#D5973A"/>
<path fill-rule="evenodd" clip-rule="evenodd" d="M100.213 379.265C99.7798 379.156 99.5088 378.723 99.6036 378.289C99.6985 377.856 100.146 377.585 100.579 377.679C101.013 377.774 101.284 378.221 101.189 378.655C101.094 379.089 100.647 379.36 100.213 379.265Z" fill="#D5973A"/>
<path fill-rule="evenodd" clip-rule="evenodd" d="M136.853 328.317C136.853 328.317 138.492 325.796 137.612 325.444C136.745 325.092 136.745 327.45 136.853 328.317Z" fill="#D5973A"/>
<path fill-rule="evenodd" clip-rule="evenodd" d="M136.623 328.303C136.623 328.303 136.785 325.295 135.85 325.431C134.915 325.566 136.108 327.599 136.623 328.303Z" fill="#D5973A"/>
<path fill-rule="evenodd" clip-rule="evenodd" d="M136.419 328.398C136.419 328.398 135.051 325.715 134.319 326.298C133.574 326.881 135.62 328.046 136.419 328.398Z" fill="#D5973A"/>
<path fill-rule="evenodd" clip-rule="evenodd" d="M136.284 328.588C136.284 328.588 133.763 326.948 133.411 327.829C133.059 328.696 135.416 328.696 136.284 328.588Z" fill="#D5973A"/>
<path fill-rule="evenodd" clip-rule="evenodd" d="M136.27 328.818C136.27 328.818 133.262 328.656 133.397 329.59C133.533 330.525 135.565 329.333 136.27 328.818Z" fill="#D5973A"/>
<path fill-rule="evenodd" clip-rule="evenodd" d="M136.379 329.021C136.379 329.021 133.696 330.39 134.278 331.122C134.861 331.867 136.026 329.821 136.379 329.021Z" fill="#D5973A"/>
<path fill-rule="evenodd" clip-rule="evenodd" d="M136.568 329.143C136.568 329.143 134.929 331.664 135.81 332.016C136.677 332.368 136.677 330.011 136.568 329.143Z" fill="#D5973A"/>
<path fill-rule="evenodd" clip-rule="evenodd" d="M136.785 329.171C136.785 329.171 136.622 332.179 137.557 332.043C138.492 331.908 137.3 329.875 136.785 329.171Z" fill="#D5973A"/>
<path fill-rule="evenodd" clip-rule="evenodd" d="M137.002 329.062C137.002 329.062 138.37 331.745 139.102 331.162C139.847 330.58 137.801 329.414 137.002 329.062Z" fill="#D5973A"/>
<path fill-rule="evenodd" clip-rule="evenodd" d="M137.124 328.872C137.124 328.872 139.644 330.512 139.996 329.631C140.349 328.764 137.991 328.764 137.124 328.872Z" fill="#D5973A"/>
<path fill-rule="evenodd" clip-rule="evenodd" d="M137.137 328.642C137.137 328.642 140.146 328.804 140.01 327.869C139.875 326.935 137.842 328.127 137.137 328.642Z" fill="#D5973A"/>
<path fill-rule="evenodd" clip-rule="evenodd" d="M137.029 328.439C137.029 328.439 139.712 327.07 139.129 326.339C138.546 325.593 137.381 327.639 137.029 328.439Z" fill="#D5973A"/>
<path fill-rule="evenodd" clip-rule="evenodd" d="M136.473 329.726C135.931 329.604 135.593 329.049 135.715 328.507C135.836 327.965 136.392 327.626 136.934 327.748C137.476 327.87 137.815 328.425 137.693 328.967C137.571 329.509 137.015 329.848 136.473 329.726Z" fill="#D5973A"/>
<path fill-rule="evenodd" clip-rule="evenodd" d="M136.514 329.523C136.08 329.414 135.809 328.981 135.904 328.547C135.999 328.113 136.446 327.843 136.88 327.937C137.313 328.032 137.584 328.479 137.49 328.913C137.395 329.347 136.948 329.618 136.514 329.523Z" fill="#D5973A"/>
<path fill-rule="evenodd" clip-rule="evenodd" d="M131.758 279.307C131.758 279.307 133.398 276.786 132.517 276.434C131.65 276.082 131.65 278.439 131.758 279.307Z" fill="#D5973A"/>
<path fill-rule="evenodd" clip-rule="evenodd" d="M131.528 279.293C131.528 279.293 131.69 276.285 130.755 276.42C129.82 276.556 131.013 278.588 131.528 279.293Z" fill="#D5973A"/>
<path fill-rule="evenodd" clip-rule="evenodd" d="M131.325 279.388C131.325 279.388 129.956 276.705 129.224 277.288C128.479 277.87 130.525 279.036 131.325 279.388Z" fill="#D5973A"/>
<path fill-rule="evenodd" clip-rule="evenodd" d="M131.189 279.578C131.189 279.578 128.668 277.938 128.316 278.819C127.964 279.686 130.322 279.686 131.189 279.578Z" fill="#D5973A"/>
<path fill-rule="evenodd" clip-rule="evenodd" d="M131.175 279.808C131.175 279.808 128.167 279.645 128.303 280.58C128.438 281.515 130.471 280.323 131.175 279.808Z" fill="#D5973A"/>
<path fill-rule="evenodd" clip-rule="evenodd" d="M131.284 280.011C131.284 280.011 128.601 281.38 129.183 282.111C129.766 282.857 130.931 280.811 131.284 280.011Z" fill="#D5973A"/>
<path fill-rule="evenodd" clip-rule="evenodd" d="M131.473 280.147C131.473 280.147 129.834 282.667 130.715 283.019C131.582 283.372 131.582 281.014 131.473 280.147Z" fill="#D5973A"/>
<path fill-rule="evenodd" clip-rule="evenodd" d="M131.704 280.16C131.704 280.16 131.541 283.168 132.476 283.033C133.411 282.897 132.219 280.865 131.704 280.16Z" fill="#D5973A"/>
<path fill-rule="evenodd" clip-rule="evenodd" d="M131.907 280.052C131.907 280.052 133.276 282.735 134.007 282.152C134.752 281.569 132.706 280.404 131.907 280.052Z" fill="#D5973A"/>
<path fill-rule="evenodd" clip-rule="evenodd" d="M132.029 279.862C132.029 279.862 134.549 281.502 134.902 280.621C135.254 279.754 132.896 279.754 132.029 279.862Z" fill="#D5973A"/>
<path fill-rule="evenodd" clip-rule="evenodd" d="M132.042 279.632C132.042 279.632 135.051 279.794 134.915 278.86C134.78 277.925 132.747 279.117 132.042 279.632Z" fill="#D5973A"/>
<path fill-rule="evenodd" clip-rule="evenodd" d="M131.948 279.429C131.948 279.429 134.63 278.06 134.048 277.328C133.465 276.583 132.3 278.629 131.948 279.429Z" fill="#D5973A"/>
<path fill-rule="evenodd" clip-rule="evenodd" d="M131.379 280.716C130.837 280.594 130.498 280.038 130.62 279.496C130.742 278.954 131.297 278.616 131.839 278.738C132.381 278.86 132.72 279.415 132.598 279.957C132.476 280.499 131.921 280.838 131.379 280.716Z" fill="#D5973A"/>
<path fill-rule="evenodd" clip-rule="evenodd" d="M131.419 280.512C130.986 280.404 130.715 279.97 130.809 279.537C130.904 279.103 131.351 278.832 131.785 278.927C132.219 279.022 132.49 279.469 132.395 279.903C132.3 280.336 131.853 280.607 131.419 280.512Z" fill="#D5973A"/>
<path fill-rule="evenodd" clip-rule="evenodd" d="M108.506 321.406C108.506 321.406 110.376 318.534 109.373 318.127C108.384 317.734 108.384 320.417 108.506 321.406Z" fill="#F8E8CF"/>
<path fill-rule="evenodd" clip-rule="evenodd" d="M108.249 321.393C108.249 321.393 108.425 317.965 107.368 318.114C106.311 318.263 107.652 320.58 108.249 321.393Z" fill="#F8E8CF"/>
<path fill-rule="evenodd" clip-rule="evenodd" d="M108.018 321.501C108.018 321.501 106.46 318.439 105.62 319.103C104.78 319.767 107.11 321.095 108.018 321.501Z" fill="#F8E8CF"/>
<path fill-rule="evenodd" clip-rule="evenodd" d="M107.869 321.718C107.869 321.718 104.997 319.848 104.59 320.851C104.197 321.84 106.88 321.84 107.869 321.718Z" fill="#F8E8CF"/>
<path fill-rule="evenodd" clip-rule="evenodd" d="M107.856 321.975C107.856 321.975 104.428 321.799 104.577 322.856C104.726 323.913 107.043 322.571 107.856 321.975Z" fill="#F8E8CF"/>
<path fill-rule="evenodd" clip-rule="evenodd" d="M107.964 322.219C107.964 322.219 104.902 323.778 105.566 324.618C106.23 325.458 107.558 323.127 107.964 322.219Z" fill="#F8E8CF"/>
<path fill-rule="evenodd" clip-rule="evenodd" d="M108.181 322.355C108.181 322.355 106.311 325.227 107.314 325.634C108.303 326.027 108.303 323.344 108.181 322.355Z" fill="#F8E8CF"/>
<path fill-rule="evenodd" clip-rule="evenodd" d="M108.438 322.368C108.438 322.368 108.262 325.796 109.319 325.647C110.376 325.498 109.034 323.181 108.438 322.368Z" fill="#F8E8CF"/>
<path fill-rule="evenodd" clip-rule="evenodd" d="M108.682 322.26C108.682 322.26 110.241 325.322 111.081 324.658C111.921 323.994 109.59 322.667 108.682 322.26Z" fill="#F8E8CF"/>
<path fill-rule="evenodd" clip-rule="evenodd" d="M108.818 322.043C108.818 322.043 111.69 323.913 112.097 322.91C112.49 321.921 109.807 321.921 108.818 322.043Z" fill="#F8E8CF"/>
<path fill-rule="evenodd" clip-rule="evenodd" d="M108.831 321.786C108.831 321.786 112.259 321.962 112.11 320.905C111.961 319.848 109.644 321.189 108.831 321.786Z" fill="#F8E8CF"/>
<path fill-rule="evenodd" clip-rule="evenodd" d="M108.723 321.555C108.723 321.555 111.785 319.997 111.122 319.157C110.458 318.317 109.13 320.647 108.723 321.555Z" fill="#F8E8CF"/>
<path fill-rule="evenodd" clip-rule="evenodd" d="M108.086 323.019C107.463 322.87 107.07 322.246 107.219 321.623C107.368 321 107.991 320.607 108.615 320.756C109.238 320.905 109.631 321.528 109.482 322.152C109.333 322.775 108.71 323.168 108.086 323.019Z" fill="#F8E8CF"/>
<path fill-rule="evenodd" clip-rule="evenodd" d="M108.14 322.788C107.639 322.666 107.327 322.165 107.449 321.677C107.571 321.19 108.072 320.864 108.56 320.986C109.048 321.108 109.373 321.61 109.251 322.097C109.129 322.585 108.628 322.91 108.14 322.788Z" fill="#F8E8CF"/>
<path fill-rule="evenodd" clip-rule="evenodd" d="M130.606 310.946C130.606 310.946 132.476 308.073 131.473 307.666C130.484 307.273 130.484 309.956 130.606 310.946Z" fill="#F8E8CF"/>
<path fill-rule="evenodd" clip-rule="evenodd" d="M130.349 310.932C130.349 310.932 130.525 307.504 129.468 307.653C128.411 307.802 129.752 310.119 130.349 310.932Z" fill="#F8E8CF"/>
<path fill-rule="evenodd" clip-rule="evenodd" d="M130.118 311.04C130.118 311.04 128.56 307.978 127.72 308.642C126.88 309.306 129.211 310.634 130.118 311.04Z" fill="#F8E8CF"/>
<path fill-rule="evenodd" clip-rule="evenodd" d="M129.969 311.257C129.969 311.257 127.097 309.387 126.69 310.39C126.297 311.379 128.98 311.379 129.969 311.257Z" fill="#F8E8CF"/>
<path fill-rule="evenodd" clip-rule="evenodd" d="M129.956 311.515C129.956 311.515 126.528 311.338 126.677 312.395C126.826 313.452 129.143 312.111 129.956 311.515Z" fill="#F8E8CF"/>
<path fill-rule="evenodd" clip-rule="evenodd" d="M130.078 311.745C130.078 311.745 127.015 313.303 127.679 314.143C128.343 314.984 129.671 312.653 130.078 311.745Z" fill="#F8E8CF"/>
<path fill-rule="evenodd" clip-rule="evenodd" d="M130.295 311.894C130.295 311.894 128.425 314.766 129.427 315.173C130.417 315.566 130.417 312.883 130.295 311.894Z" fill="#F8E8CF"/>
<path fill-rule="evenodd" clip-rule="evenodd" d="M130.552 311.907C130.552 311.907 130.376 315.336 131.433 315.187C132.49 315.038 131.148 312.72 130.552 311.907Z" fill="#F8E8CF"/>
<path fill-rule="evenodd" clip-rule="evenodd" d="M130.782 311.799C130.782 311.799 132.341 314.862 133.181 314.198C134.021 313.534 131.69 312.206 130.782 311.799Z" fill="#F8E8CF"/>
<path fill-rule="evenodd" clip-rule="evenodd" d="M130.918 311.583C130.918 311.583 133.79 313.452 134.197 312.45C134.59 311.461 131.907 311.461 130.918 311.583Z" fill="#F8E8CF"/>
<path fill-rule="evenodd" clip-rule="evenodd" d="M130.945 311.325C130.945 311.325 134.373 311.501 134.224 310.444C134.075 309.387 131.758 310.729 130.945 311.325Z" fill="#F8E8CF"/>
<path fill-rule="evenodd" clip-rule="evenodd" d="M130.823 311.081C130.823 311.081 133.886 309.523 133.222 308.683C132.558 307.843 131.23 310.173 130.823 311.081Z" fill="#F8E8CF"/>
<path fill-rule="evenodd" clip-rule="evenodd" d="M130.186 312.545C129.563 312.396 129.17 311.772 129.319 311.149C129.468 310.526 130.092 310.133 130.715 310.282C131.338 310.431 131.731 311.054 131.582 311.677C131.433 312.301 130.81 312.694 130.186 312.545Z" fill="#F8E8CF"/>
<path fill-rule="evenodd" clip-rule="evenodd" d="M130.24 312.328C129.739 312.206 129.427 311.704 129.549 311.217C129.671 310.729 130.172 310.404 130.66 310.526C131.148 310.648 131.473 311.149 131.351 311.637C131.229 312.125 130.728 312.45 130.24 312.328Z" fill="#F8E8CF"/>
<path fill-rule="evenodd" clip-rule="evenodd" d="M120.376 347.829C120.376 347.829 122.246 344.956 121.243 344.549C120.254 344.157 120.254 346.839 120.376 347.829Z" fill="#F8E8CF"/>
<path fill-rule="evenodd" clip-rule="evenodd" d="M120.118 347.815C120.118 347.815 120.295 344.387 119.238 344.536C118.181 344.685 119.522 347.002 120.118 347.815Z" fill="#F8E8CF"/>
<path fill-rule="evenodd" clip-rule="evenodd" d="M119.888 347.937C119.888 347.937 118.33 344.875 117.49 345.539C116.65 346.203 118.98 347.53 119.888 347.937Z" fill="#F8E8CF"/>
<path fill-rule="evenodd" clip-rule="evenodd" d="M119.739 348.14C119.739 348.14 116.867 346.27 116.46 347.273C116.067 348.262 118.75 348.262 119.739 348.14Z" fill="#F8E8CF"/>
<path fill-rule="evenodd" clip-rule="evenodd" d="M119.726 348.411C119.726 348.411 116.298 348.235 116.447 349.292C116.596 350.349 118.913 349.007 119.726 348.411Z" fill="#F8E8CF"/>
<path fill-rule="evenodd" clip-rule="evenodd" d="M119.834 348.642C119.834 348.642 116.772 350.2 117.436 351.04C118.099 351.88 119.427 349.55 119.834 348.642Z" fill="#F8E8CF"/>
<path fill-rule="evenodd" clip-rule="evenodd" d="M120.051 348.777C120.051 348.777 118.181 351.65 119.184 352.056C120.173 352.449 120.173 349.766 120.051 348.777Z" fill="#F8E8CF"/>
<path fill-rule="evenodd" clip-rule="evenodd" d="M120.308 348.804C120.308 348.804 120.132 352.232 121.189 352.083C122.246 351.934 120.904 349.617 120.308 348.804Z" fill="#F8E8CF"/>
<path fill-rule="evenodd" clip-rule="evenodd" d="M120.539 348.682C120.539 348.682 122.097 351.745 122.937 351.081C123.777 350.417 121.446 349.089 120.539 348.682Z" fill="#F8E8CF"/>
<path fill-rule="evenodd" clip-rule="evenodd" d="M120.688 348.466C120.688 348.466 123.56 350.336 123.967 349.333C124.36 348.344 121.677 348.344 120.688 348.466Z" fill="#F8E8CF"/>
<path fill-rule="evenodd" clip-rule="evenodd" d="M120.701 348.208C120.701 348.208 124.129 348.384 123.98 347.327C123.831 346.27 121.514 347.612 120.701 348.208Z" fill="#F8E8CF"/>
<path fill-rule="evenodd" clip-rule="evenodd" d="M120.593 347.978C120.593 347.978 123.655 346.419 122.991 345.579C122.327 344.739 120.999 347.07 120.593 347.978Z" fill="#F8E8CF"/>
<path fill-rule="evenodd" clip-rule="evenodd" d="M119.942 349.441C119.319 349.292 118.926 348.669 119.075 348.046C119.224 347.422 119.848 347.029 120.471 347.178C121.094 347.327 121.487 347.951 121.338 348.574C121.189 349.197 120.566 349.59 119.942 349.441Z" fill="#F8E8CF"/>
<path fill-rule="evenodd" clip-rule="evenodd" d="M119.996 349.211C119.495 349.089 119.183 348.588 119.305 348.1C119.427 347.612 119.929 347.287 120.416 347.409C120.904 347.531 121.229 348.032 121.107 348.52C120.985 349.008 120.484 349.333 119.996 349.211Z" fill="#F8E8CF"/>
<path fill-rule="evenodd" clip-rule="evenodd" d="M130.715 379.211C130.715 379.211 132.584 376.338 131.582 375.931C130.593 375.539 130.593 378.221 130.715 379.211Z" fill="#F8E8CF"/>
<path fill-rule="evenodd" clip-rule="evenodd" d="M130.457 379.197C130.457 379.197 130.633 375.769 129.576 375.918C128.519 376.067 129.861 378.384 130.457 379.197Z" fill="#F8E8CF"/>
<path fill-rule="evenodd" clip-rule="evenodd" d="M130.227 379.305C130.227 379.305 128.668 376.243 127.828 376.907C126.988 377.571 129.319 378.899 130.227 379.305Z" fill="#F8E8CF"/>
<path fill-rule="evenodd" clip-rule="evenodd" d="M130.078 379.522C130.078 379.522 127.205 377.652 126.799 378.655C126.406 379.644 129.088 379.644 130.078 379.522Z" fill="#F8E8CF"/>
<path fill-rule="evenodd" clip-rule="evenodd" d="M130.064 379.78C130.064 379.78 126.636 379.603 126.785 380.66C126.934 381.717 129.251 380.376 130.064 379.78Z" fill="#F8E8CF"/>
<path fill-rule="evenodd" clip-rule="evenodd" d="M130.186 380.01C130.186 380.01 127.124 381.568 127.788 382.408C128.452 383.249 129.779 380.918 130.186 380.01Z" fill="#F8E8CF"/>
<path fill-rule="evenodd" clip-rule="evenodd" d="M130.403 380.159C130.403 380.159 128.533 383.032 129.536 383.438C130.525 383.831 130.525 381.148 130.403 380.159Z" fill="#F8E8CF"/>
<path fill-rule="evenodd" clip-rule="evenodd" d="M130.66 380.172C130.66 380.172 130.484 383.601 131.541 383.452C132.598 383.303 131.256 380.985 130.66 380.172Z" fill="#F8E8CF"/>
<path fill-rule="evenodd" clip-rule="evenodd" d="M130.891 380.064C130.891 380.064 132.449 383.127 133.289 382.463C134.129 381.799 131.798 380.471 130.891 380.064Z" fill="#F8E8CF"/>
<path fill-rule="evenodd" clip-rule="evenodd" d="M131.04 379.848C131.04 379.848 133.912 381.717 134.319 380.715C134.712 379.726 132.029 379.726 131.04 379.848Z" fill="#F8E8CF"/>
<path fill-rule="evenodd" clip-rule="evenodd" d="M131.053 379.59C131.053 379.59 134.481 379.766 134.332 378.709C134.183 377.652 131.866 378.994 131.053 379.59Z" fill="#F8E8CF"/>
<path fill-rule="evenodd" clip-rule="evenodd" d="M130.931 379.346C130.931 379.346 133.994 377.788 133.33 376.948C132.666 376.108 131.338 378.438 130.931 379.346Z" fill="#F8E8CF"/>
<path fill-rule="evenodd" clip-rule="evenodd" d="M130.295 380.81C129.671 380.661 129.278 380.037 129.427 379.414C129.576 378.791 130.2 378.398 130.823 378.547C131.446 378.696 131.839 379.319 131.69 379.942C131.541 380.566 130.918 380.959 130.295 380.81Z" fill="#F8E8CF"/>
<path fill-rule="evenodd" clip-rule="evenodd" d="M130.349 380.593C129.847 380.471 129.536 379.969 129.658 379.482C129.78 378.994 130.281 378.669 130.769 378.791C131.257 378.913 131.582 379.414 131.46 379.902C131.338 380.39 130.837 380.715 130.349 380.593Z" fill="#F8E8CF"/>
<path d="M107.951 272.288C113.52 272.938 119.658 275.838 127.801 281.38C127.801 281.38 132.259 284.117 135.606 285.959C137.476 286.989 138.262 289.225 137.408 291.176C137.381 291.23 137.368 291.271 137.341 291.325C136.433 293.371 134.034 294.347 131.921 293.561C130.227 292.924 128.032 292.165 125.715 291.556C120.295 290.119 116.934 287.816 110.715 285.282C110.471 285.187 108.195 284.117 107.097 283.575C106.745 283.398 106.433 283.195 106.149 282.938L104.035 281.041C102.26 279.212 101.067 275.35 102.964 273.819C104.319 272.721 106.216 272.098 107.951 272.301V272.288Z" fill="#FFCB08"/>
<path opacity="0.14" d="M158.248 406.826L151.121 412.408C149.671 413.547 151.649 414.915 154.725 414.915H224.792C227.583 414.915 229.548 413.777 228.667 412.679L224.223 407.097C223.667 406.406 222.109 405.932 220.348 405.932H161.852C160.335 405.932 158.953 406.284 158.248 406.839V406.826Z" fill="#774582"/>
<path d="M131.771 315.214C137.679 317.179 143.777 319.36 144.441 320.241C145.213 321.257 149.996 332.301 150.945 334.496C151.148 334.956 150.945 335.512 150.47 335.702C150.348 335.756 150.226 335.783 150.104 335.783C149.752 335.783 149.413 335.58 149.251 335.227C147.137 330.349 143.628 322.382 142.991 321.393C142.042 320.702 134.942 318.182 128.506 316.095C128.126 315.973 127.869 315.621 127.869 315.214C127.869 314.808 128.126 314.455 128.506 314.333" fill="#114C97"/>
<path d="M146.839 331.284L158.98 371.338C159.345 372.544 160.47 373.344 161.717 373.303L228.898 371.23C230.144 371.189 231.215 370.322 231.513 369.102L240.09 333.601L146.825 331.271L146.839 331.284Z" fill="#114C97"/>
<path d="M224.67 396.108C211.784 396.392 183.979 396.243 169.047 396.148C164.603 396.121 161.242 396.108 159.643 396.108C157.38 396.108 155.687 395.457 154.901 394.278C154.128 393.14 154.156 391.487 154.969 389.468C156.744 385.037 161.974 371.839 161.974 371.839L160.253 371.162C160.253 371.162 155.023 384.36 153.248 388.777C151.92 392.07 152.584 394.143 153.37 395.308C154.521 397.002 156.744 397.95 159.643 397.95C160.7 397.95 162.516 397.95 164.887 397.977V399.183C164.887 399.956 165.51 400.579 166.283 400.579H167.353C168.126 400.579 168.749 399.956 168.749 399.183V398.276C168.857 398.167 168.912 398.113 169.02 397.991C177.529 398.045 190.212 398.113 201.946 398.113C205.131 398.113 208.247 398.113 211.188 398.099V399.183C211.188 399.956 211.811 400.579 212.583 400.579H213.654C214.426 400.579 215.049 399.956 215.049 399.183V398.086C218.735 398.059 222.028 398.018 224.697 397.964" fill="#114C97"/>
<path d="M162.218 414.915C166.259 414.915 169.535 411.639 169.535 407.598C169.535 403.557 166.259 400.281 162.218 400.281C158.177 400.281 154.901 403.557 154.901 407.598C154.901 411.639 158.177 414.915 162.218 414.915Z" fill="#FFCB08"/>
<path d="M166.622 407.598C166.622 410.024 164.657 412.002 162.218 412.002C159.779 412.002 157.814 410.037 157.814 407.598C157.814 405.159 159.779 403.194 162.218 403.194C164.657 403.194 166.622 405.159 166.622 407.598Z" fill="#114C97"/>
<path d="M159.332 406.799L161.839 400.186C161.974 399.834 162.313 399.604 162.692 399.604H171.418C172.218 399.604 172.624 400.552 172.082 401.135L164.223 409.603C163.573 410.308 162.57 410.565 161.649 410.267L160.863 410.01C159.522 409.576 158.83 408.113 159.318 406.799H159.332Z" fill="#FFDCAE"/>
<path d="M163.898 407.598C163.898 408.533 163.139 409.278 162.218 409.278C161.296 409.278 160.538 408.519 160.538 407.598C160.538 406.676 161.296 405.918 162.218 405.918C163.139 405.918 163.898 406.676 163.898 407.598Z" fill="#114C97"/>
<path d="M218.085 414.915C222.126 414.915 225.402 411.639 225.402 407.598C225.402 403.557 222.126 400.281 218.085 400.281C214.044 400.281 210.768 403.557 210.768 407.598C210.768 411.639 214.044 414.915 218.085 414.915Z" fill="#FFCB08"/>
<path d="M213.681 407.598C213.681 410.024 215.645 412.002 218.084 412.002C220.523 412.002 222.488 410.037 222.488 407.598C222.488 405.159 220.523 403.194 218.084 403.194C215.645 403.194 213.681 405.159 213.681 407.598Z" fill="#114C97"/>
<path d="M220.971 406.799L218.464 400.186C218.328 399.834 217.99 399.603 217.61 399.603H208.884C208.085 399.603 207.678 400.552 208.22 401.135L216.079 409.603C216.73 410.308 217.732 410.565 218.654 410.267L219.44 410.01C220.781 409.576 221.472 408.113 220.984 406.799H220.971Z" fill="#FFDCAE"/>
<path d="M216.404 407.598C216.404 408.533 217.163 409.278 218.084 409.278C219.006 409.278 219.765 408.519 219.765 407.598C219.765 406.676 219.006 405.918 218.084 405.918C217.163 405.918 216.404 406.676 216.404 407.598Z" fill="#114C97"/>
<path d="M130.051 319.997C131.929 319.997 133.452 318.474 133.452 316.596C133.452 314.718 131.929 313.195 130.051 313.195C128.172 313.195 126.65 314.718 126.65 316.596C126.65 318.474 128.172 319.997 130.051 319.997Z" fill="#114C97"/>
<path d="M144.007 220.025V265.567L182.503 266.569V218.359L144.007 220.025Z" fill="#FAA61A"/>
<path d="M182.503 218.359V266.569L200.524 264.957L200.836 221.665L182.503 218.359Z" fill="#FFCB08"/>
<path d="M142.883 216.936L183.397 215.283V220.581L142.883 222.274V216.936Z" fill="#F7B91B"/>
<path d="M183.397 220.581L202.177 223.806V218.779L183.397 215.283V220.581Z" fill="#E8A723"/>
<path d="M161.934 266.407C161.934 266.407 163.126 263.222 163.614 262.924C164.102 262.626 164.847 263.846 164.413 264.984C163.98 266.122 161.934 266.407 161.934 266.407Z" fill="#EFA37D"/>
<path d="M156.351 271.962C156.351 271.962 159.264 268.48 161.188 266.962C163.112 265.445 163.533 265.567 166.31 264.429L169.02 263.751C169.02 263.751 168.641 264.998 166.039 266.271L169.088 265.513C169.088 265.513 168.858 266.759 166.107 267.762L168.411 267.206C168.411 267.206 167.787 268.426 165.972 269.659C165.972 269.659 161.622 273.372 158.289 274.293C158.289 274.293 154.861 274.916 156.337 271.962H156.351Z" fill="#F1BF98"/>
<path d="M166.703 267.518C165.741 268.073 164.725 268.466 163.627 268.683C164.589 268.128 165.606 267.735 166.703 267.518Z" fill="#E28160"/>
<path d="M166.487 266.068C165.525 266.61 164.495 266.99 163.397 267.193C164.359 266.651 165.389 266.271 166.487 266.068Z" fill="#E28160"/>
<path d="M161.934 266.407L167.76 262.599C167.76 262.599 168.194 263.141 167.177 264.09L161.934 266.42V266.407Z" fill="#F1BF98"/>
<path d="M166.663 264.401C165.687 264.93 164.644 265.282 163.56 265.472C164.535 264.943 165.579 264.591 166.663 264.401Z" fill="#E28160"/>
<path d="M132.801 286.38C135.796 282.017 140.796 278.223 148.709 273.927C148.709 273.927 157.002 268.914 158.397 267.518C158.397 267.518 162.069 271.935 162.449 273.859C162.449 273.859 158.898 276.678 155.592 280.296C152.042 284.171 148.763 285.933 144.021 289.984C143.79 290.187 140.891 292.409 140.62 292.558L137.76 293.629C135.552 294.279 132.056 293.521 131.731 291.244C131.5 289.618 131.866 287.748 132.801 286.393V286.38Z" fill="#FFCB08"/>
<path opacity="0.36" d="M196.825 232.491C196.676 232.735 196.296 232.586 196.324 232.315C196.554 230.31 197.326 228.02 197.326 228.02C197.326 228.02 195.754 231.163 194.508 232.654C194.332 232.87 193.979 232.694 194.034 232.423C194.427 230.581 195.863 227.152 195.863 227.152C195.104 228.724 193.315 231.028 192.286 232.288C192.096 232.518 191.717 232.315 191.825 232.03C192.584 229.795 194.549 226.38 194.549 226.38C193.763 227.871 192.272 229.415 191.269 230.364C191.053 230.567 190.7 230.31 190.836 230.039C191.378 228.982 192.286 227.356 193.519 225.77L195.782 222.464C195.782 222.464 193.194 221.868 192.082 220.96C191.866 220.784 192.015 220.445 192.286 220.486C193.573 220.648 196.446 220.946 198.668 220.77C198.668 220.77 200.267 221.57 200.944 223.358C201.622 225.147 198.275 228.602 198.275 228.602C198.275 228.602 197.895 230.852 196.825 232.518V232.491Z" fill="#F4AB41"/>
<path d="M197.625 232.518C197.475 232.762 197.096 232.613 197.123 232.342C197.353 230.337 198.126 228.047 198.126 228.047C198.126 228.047 196.554 231.19 195.307 232.681C195.131 232.898 194.779 232.721 194.833 232.45C195.226 230.608 196.662 227.179 196.662 227.179C195.904 228.751 194.115 231.055 193.085 232.315C192.896 232.545 192.516 232.342 192.625 232.057C193.383 229.822 195.348 226.407 195.348 226.407C194.562 227.898 193.072 229.442 192.069 230.391C191.852 230.594 191.5 230.337 191.635 230.066C192.177 229.009 193.085 227.383 194.318 225.797L196.581 222.491C196.581 222.491 193.993 221.895 192.882 220.987C192.665 220.811 192.814 220.472 193.085 220.513C194.373 220.675 197.245 220.974 199.467 220.797C199.467 220.797 201.066 221.597 201.744 223.385C202.421 225.174 199.074 228.629 199.074 228.629C199.074 228.629 198.695 230.879 197.625 232.545V232.518Z" fill="#F1BF98"/>
<path d="M223.356 207.884C221.486 211.069 218.017 215.432 211.77 219.131C211.77 219.131 206.567 222.315 202.692 224.998C202.692 224.998 199.074 221.339 198.573 219.646C198.573 219.646 202.069 217.193 204.21 213.345C205.524 210.987 210.307 204.659 214.386 200.35C216.621 197.993 220.375 198.02 222.57 200.418C224.44 202.464 224.751 205.486 223.356 207.871V207.884Z" fill="#114C97"/>
<path d="M207.299 292.585H211.419C211.649 292.585 211.866 292.748 211.92 292.978L213.641 299.496C214.223 301.677 214.508 303.94 214.508 306.19V318.588C214.508 319.103 214.088 319.523 213.573 319.523H205.145C204.63 319.523 204.21 319.103 204.21 318.588V306.19C204.21 303.927 204.508 301.677 205.077 299.496L206.798 292.978C206.852 292.748 207.069 292.585 207.299 292.585Z" fill="#114C97"/>
<path d="M211.324 292.599H207.394C207.123 292.599 206.906 292.382 206.906 292.111V289.821C206.906 289.55 207.123 289.333 207.394 289.333H211.324C211.595 289.333 211.812 289.55 211.812 289.821V292.111C211.812 292.382 211.595 292.599 211.324 292.599Z" fill="#1F537D"/>
<path d="M207.936 289.496C207.936 289.496 207.936 289.374 207.963 289.32H207.408C207.123 289.32 206.893 289.55 206.893 289.835V292.057C206.893 292.342 207.123 292.572 207.408 292.572H211.283C211.513 292.572 211.703 292.423 211.771 292.22H208.858" fill="#103E5B"/>
<path d="M204.21 316.013H214.508V306.596H204.21V316.013Z" fill="#CCE3F6"/>
<path d="M169.603 293.29C169.603 293.29 174.481 294.334 172.922 300.377C172.922 300.377 167.611 298.114 169.603 293.29Z" fill="#114C97"/>
<path d="M173.98 311.366C175.917 308.792 176.676 306.42 175.511 303.385C174.345 300.35 175.633 300.079 174.454 299.185C173.275 298.304 173.37 299.618 170.131 299.347C166.893 299.076 164.833 300.472 162.896 303.046C160.958 305.621 160.199 307.992 161.365 311.027C162.53 314.062 161.243 314.333 162.421 315.228C163.6 316.109 163.505 314.794 166.744 315.065C169.982 315.336 172.042 313.941 173.98 311.366Z" fill="#D5E8F8"/>
</g>
<defs>
<linearGradient id="paint0_linear_2_11901" x1="171.5" y1="0" x2="171.5" y2="437" gradientUnits="userSpaceOnUse">
<stop stop-color="#BCD9FF"/>
<stop offset="1" stop-color="#D9D9D9" stop-opacity="0"/>
</linearGradient>
</defs>
</svg>
