<svg width="36" height="36" viewBox="0 0 36 36" fill="none" xmlns="http://www.w3.org/2000/svg">
<g clip-path="url(#clip0_101_414)">
<rect width="36" height="36" rx="18" fill="white"/>
<path d="M12.4996 20.3944L11.4562 16.3136C11.1328 15.0488 12.0884 13.8182 13.3939 13.8182H25.2689C26.8651 13.8182 27.8181 15.5961 26.9344 16.9254L24.2216 21.0062C23.8509 21.5639 23.2257 21.899 22.5561 21.899H14.4373C13.5235 21.899 12.726 21.2797 12.4996 20.3944Z" fill="url(#paint0_linear_101_414)"/>
<circle cx="14.017" cy="24.8619" r="1.6835" fill="url(#paint1_linear_101_414)"/>
<circle cx="22.771" cy="24.8619" r="1.6835" fill="url(#paint2_linear_101_414)"/>
<path d="M9 12H10.6133C11.0134 12 11.3749 12.2384 11.5325 12.6061L12.6364 15.1818" stroke="#4D89D4" stroke-width="2" stroke-linecap="round"/>
</g>
<defs>
<linearGradient id="paint0_linear_101_414" x1="19.9091" y1="13.8182" x2="19.9091" y2="21.899" gradientUnits="userSpaceOnUse">
<stop stop-color="#4D89D4"/>
<stop offset="1" stop-color="#216BC9"/>
</linearGradient>
<linearGradient id="paint1_linear_101_414" x1="14.017" y1="23.1784" x2="14.017" y2="26.5454" gradientUnits="userSpaceOnUse">
<stop stop-color="#4D89D4"/>
<stop offset="1" stop-color="#216BC9"/>
</linearGradient>
<linearGradient id="paint2_linear_101_414" x1="22.771" y1="23.1784" x2="22.771" y2="26.5454" gradientUnits="userSpaceOnUse">
<stop stop-color="#4D89D4"/>
<stop offset="1" stop-color="#216BC9"/>
</linearGradient>
<clipPath id="clip0_101_414">
<rect width="36" height="36" fill="white"/>
</clipPath>
</defs>
</svg>
