<svg width="102" height="102" viewBox="0 0 102 102" fill="none" xmlns="http://www.w3.org/2000/svg">
<g filter="url(#filter0_d_189_3932)">
<rect x="14" y="9" width="73.75" height="73.75" rx="8" fill="white"/>
<rect width="46" height="46" transform="translate(28 23)" fill="white"/>
<path d="M46.4803 33.6765L32.5722 50.974C32.3892 51.2016 32.1243 51.3464 31.8357 51.3765C31.5471 51.4066 31.2585 51.3196 31.0334 51.1345L28.8489 49.3389C28.6237 49.1538 28.4805 48.8859 28.4508 48.5941C28.421 48.3024 28.5071 48.0106 28.6901 47.7829L42.1648 31.0243C42.4628 30.6538 42.8941 30.4181 43.3639 30.3691C43.8337 30.3201 44.3035 30.4618 44.67 30.763L46.2952 32.0989C46.4117 32.1888 46.5092 32.3014 46.5819 32.4301C46.6545 32.5588 46.7008 32.701 46.7181 32.8481C46.7354 32.9953 46.7232 33.1444 46.6823 33.2867C46.6415 33.429 46.5728 33.5616 46.4803 33.6765Z" fill="url(#paint0_linear_189_3932)"/>
<path d="M59.4958 30.862L72.9705 47.6206C73.1535 47.8482 73.2396 48.14 73.2099 48.4318C73.1801 48.7236 73.0369 48.9915 72.8118 49.1765L70.6273 50.9722C70.4021 51.1572 70.1135 51.2443 69.8249 51.2142C69.5364 51.1841 69.2714 51.0393 69.0884 50.8117L55.1536 33.4809C54.9706 33.2533 54.8845 32.9615 54.9143 32.6697C54.9441 32.3779 55.0873 32.11 55.3124 31.925L56.9508 30.5783C57.3172 30.277 57.787 30.1353 58.2568 30.1843C58.7267 30.2333 59.158 30.469 59.4559 30.8396L59.4958 30.862Z" fill="url(#paint1_linear_189_3932)"/>
<path d="M46.7574 28.9207H55.0762C55.9103 28.9207 56.7363 29.0868 57.5069 29.4095C58.2774 29.7322 58.9776 30.2053 59.5674 30.8016C60.1572 31.3979 60.6251 32.1059 60.9442 32.885C61.2634 33.6642 61.4277 34.4992 61.4277 35.3426V53.348C61.4277 53.871 61.2222 54.3726 60.8565 54.7424C60.4907 55.1122 59.9946 55.32 59.4773 55.32H42.3648C42.1087 55.32 41.8551 55.269 41.6184 55.1699C41.3818 55.0708 41.1668 54.9255 40.9857 54.7424C40.8046 54.5593 40.6609 54.3419 40.5629 54.1027C40.4649 53.8634 40.4144 53.607 40.4144 53.348V35.3426C40.4144 33.6409 41.0824 32.0087 42.2717 30.8046C43.461 29.6005 45.0744 28.9229 46.7574 28.9207Z" fill="#FFCA08"/>
<path d="M50.9718 28.9207H50.5732V55.2771H50.9718V28.9207Z" fill="#104B97"/>
<path d="M46.2994 27H55.2882L50.7938 31.6557L46.2994 27Z" fill="#033266"/>
<path d="M55.2881 27L55.3729 27.9346L55.4407 28.6205L55.5425 29.6665L51.1075 34.0564L51.0057 32.9932L50.9464 32.3073L50.8446 31.2441L55.2881 27Z" fill="#104B97"/>
<path d="M55.3729 27.9346L55.4408 28.6205L51.0058 32.9932L50.9464 32.3073L55.3729 27.9346Z" fill="white"/>
<path d="M46.2994 27L46.2146 27.9346L46.1467 28.6205L46.0535 29.6665L50.48 34.0564L50.5818 32.9932L50.6411 32.3073L50.7429 31.2441L46.2994 27Z" fill="#104B97"/>
<path d="M46.2146 27.9346L46.1467 28.6205L50.5817 32.9932L50.6411 32.3073L46.2146 27.9346Z" fill="white"/>
<path d="M67.9997 52.6448H50.124C49.2857 52.6448 48.6061 53.3319 48.6061 54.1795V63.4652C48.6061 64.3128 49.2857 64.9999 50.124 64.9999H67.9997C68.838 64.9999 69.5176 64.3128 69.5176 63.4652V54.1795C69.5176 53.3319 68.838 52.6448 67.9997 52.6448Z" fill="url(#paint2_linear_189_3932)"/>
<path d="M50.5819 53.4164L51.8539 50.3555C52.433 48.956 53.4023 47.7571 54.6436 46.9048C55.8848 46.0525 57.3445 45.5837 58.8447 45.5555C60.3448 45.5274 61.8207 45.941 63.0924 46.7461C64.3642 47.5512 65.3768 48.7129 66.0069 50.0897L67.5333 53.4164" stroke="#033266" stroke-miterlimit="10"/>
<path d="M70.1196 52.8936L69.8652 57.0091L59.0618 60.4387L48.2498 57.0091L47.9954 52.9022C47.9839 52.7055 48.0122 52.5086 48.0785 52.3233C48.1448 52.1381 48.2477 51.9684 48.3811 51.8248C48.5144 51.6812 48.6753 51.5665 48.854 51.4879C49.0326 51.4092 49.2252 51.3683 49.4201 51.3674H68.695C68.8894 51.3671 69.0819 51.407 69.2605 51.4847C69.4391 51.5624 69.6001 51.6762 69.7335 51.8192C69.867 51.9621 69.9701 52.1312 70.0365 52.316C70.1029 52.5008 70.1312 52.6974 70.1196 52.8936Z" fill="#6EB5F4"/>
<path d="M59.0617 59.2898C59.3942 59.2898 59.6637 59.0172 59.6637 58.681C59.6637 58.3448 59.3942 58.0723 59.0617 58.0723C58.7292 58.0723 58.4596 58.3448 58.4596 58.681C58.4596 59.0172 58.7292 59.2898 59.0617 59.2898Z" fill="#FFCA08"/>
</g>
<defs>
<filter id="filter0_d_189_3932" x="0" y="0" width="101.75" height="101.75" filterUnits="userSpaceOnUse" color-interpolation-filters="sRGB">
<feFlood flood-opacity="0" result="BackgroundImageFix"/>
<feColorMatrix in="SourceAlpha" type="matrix" values="0 0 0 0 0 0 0 0 0 0 0 0 0 0 0 0 0 0 127 0" result="hardAlpha"/>
<feMorphology radius="4" operator="dilate" in="SourceAlpha" result="effect1_dropShadow_189_3932"/>
<feOffset dy="5"/>
<feGaussianBlur stdDeviation="5"/>
<feComposite in2="hardAlpha" operator="out"/>
<feColorMatrix type="matrix" values="0 0 0 0 0 0 0 0 0 0 0 0 0 0 0 0 0 0 0.05 0"/>
<feBlend mode="normal" in2="BackgroundImageFix" result="effect1_dropShadow_189_3932"/>
<feBlend mode="normal" in="SourceGraphic" in2="effect1_dropShadow_189_3932" result="shape"/>
</filter>
<linearGradient id="paint0_linear_189_3932" x1="39.5264" y1="42.325" x2="35.6103" y2="39.1763" gradientUnits="userSpaceOnUse">
<stop stop-color="#4D89D4"/>
<stop offset="1" stop-color="#216BC9"/>
</linearGradient>
<linearGradient id="paint1_linear_189_3932" x1="66.0031" y1="38.9552" x2="62.087" y2="42.104" gradientUnits="userSpaceOnUse">
<stop stop-color="#4D89D4"/>
<stop offset="1" stop-color="#216BC9"/>
</linearGradient>
<linearGradient id="paint2_linear_189_3932" x1="59.0618" y1="52.6448" x2="59.0618" y2="64.9999" gradientUnits="userSpaceOnUse">
<stop stop-color="#4D89D4"/>
<stop offset="1" stop-color="#216BC9"/>
</linearGradient>
</defs>
</svg>
