<svg width="103" height="102" viewBox="0 0 103 102" fill="none" xmlns="http://www.w3.org/2000/svg">
<g filter="url(#filter0_d_189_3938)">
<rect x="14.5" y="9" width="73.75" height="73.75" rx="8" fill="white"/>
<rect width="46" height="46" transform="translate(28.5 23)" fill="white"/>
<path d="M56.7588 40.3113V36.9181H54.7437C54.6275 36.5859 54.483 36.2643 54.3119 35.9569L55.8952 34.3708L53.5058 31.9389L51.9896 33.4577C51.496 33.1465 50.9593 32.91 50.3967 32.756V30.8335H47.0093V32.756C46.4657 32.8988 45.9431 33.1121 45.4547 33.3904L43.9097 31.8043L41.5107 34.1978L43.0557 35.7166C42.7883 36.1883 42.5819 36.6922 42.4415 37.2161H40.5223V40.6093H42.4415C42.5984 41.1915 42.8375 41.7482 43.1517 42.2626L41.9042 43.5122L44.3032 45.9057L45.6082 44.5984C46.0988 44.8584 46.6215 45.0523 47.1628 45.1752V47.0496H50.5406V45.0886C51.0772 44.9207 51.5876 44.678 52.0568 44.3677L53.381 45.6942L55.7704 43.3007L54.3502 41.8781C54.61 41.3767 54.8035 40.8435 54.926 40.2921L56.7588 40.3113ZM46.0784 38.9463C46.0708 38.4349 46.2154 37.9327 46.4937 37.5038C46.7721 37.0749 47.1716 36.7388 47.6414 36.5381C48.1111 36.3375 48.6299 36.2816 49.1315 36.3774C49.6331 36.4732 50.095 36.7164 50.4581 37.0761C50.8212 37.4357 51.0692 37.8955 51.1705 38.3969C51.2718 38.8983 51.2218 39.4185 51.0269 39.8913C50.8319 40.3641 50.5009 40.7681 50.0759 41.0517C49.6509 41.3354 49.1513 41.4859 48.6406 41.484C47.9668 41.4816 47.3208 41.2143 46.8417 40.7398C46.3626 40.2652 46.0885 39.6212 46.0784 38.9463Z" fill="url(#paint0_linear_189_3938)"/>
<path d="M63.6584 62.7476C62.7468 64.92 60.3765 66.1215 57.7184 66.0158L59.3306 62.1709C59.6109 61.4965 59.6127 60.7382 59.3357 60.0625C59.0586 59.3867 58.5254 58.8486 57.8528 58.5662L57.3346 58.3547C56.6613 58.074 55.9044 58.0721 55.2298 58.3496C54.5552 58.6271 54.018 59.1613 53.7361 59.8351L52.1239 63.68C50.2047 61.8633 49.3603 59.3256 50.2719 57.1532C51.1835 54.9808 53.5442 53.7793 56.1927 53.885L62.4493 38.8609C61.7858 38.2144 61.3231 37.3894 61.1171 36.4855C60.9111 35.5815 60.9705 34.6372 61.2882 33.7663C61.7371 32.857 62.4531 32.1072 63.34 31.6175C64.2269 31.1278 65.2421 30.9216 66.2493 31.0268L64.8963 34.2758C64.7784 34.5565 64.7173 34.8578 64.7163 35.1623C64.7153 35.4668 64.7745 35.7685 64.8904 36.05C65.0064 36.3315 65.1769 36.5872 65.392 36.8023C65.6071 37.0175 65.8626 37.1879 66.1438 37.3037L66.5756 37.4863C66.8553 37.6028 67.1552 37.6629 67.4581 37.6632C67.7611 37.6634 68.0611 37.6038 68.341 37.4877C68.6209 37.3716 68.8752 37.2014 69.0893 36.9867C69.3034 36.772 69.4731 36.5172 69.5887 36.2367L70.9418 32.9973C71.731 33.636 72.3039 34.5033 72.5822 35.4806C72.8605 36.458 72.8305 37.4975 72.4963 38.4571C72.0999 39.2962 71.4694 40.0024 70.681 40.4902C69.8925 40.9781 68.9799 41.2268 68.0534 41.2063L61.8063 56.2208C63.7448 58.0279 64.5604 60.5656 63.6584 62.7476Z" fill="url(#paint1_linear_189_3938)"/>
<path d="M34.945 29.4292L34.9354 32.0438L34.6667 32.1111L38.2364 47.164L36.5283 47.5774L32.9586 32.5148L32.6899 32.5821L31.5 30.2559L31.9606 26.8627L33.0066 26.6128L34.945 29.4292Z" fill="url(#paint2_linear_189_3938)"/>
<path d="M39.0042 46.9848L35.7178 47.7666C35.4033 47.8414 35.2089 48.1575 35.2836 48.4726L35.339 48.7064C35.4137 49.0215 35.7292 49.2162 36.0438 49.1414L39.3302 48.3596C39.6447 48.2847 39.8391 47.9687 39.7644 47.6536L39.709 47.4198C39.6343 47.1047 39.3188 46.9099 39.0042 46.9848Z" fill="url(#paint3_linear_189_3938)"/>
<path d="M43.8501 53.9887C44.3447 57.2641 44.5119 60.5808 44.3491 63.8894C44.3366 64.2086 44.2201 64.5149 44.0173 64.7614C43.8146 65.0079 43.5367 65.1811 43.2264 65.2544L40.2804 65.9561C39.9315 66.0384 39.5654 66.004 39.2379 65.8582C38.9104 65.7124 38.6395 65.4632 38.4667 65.1487C36.8637 62.3076 35.5489 59.3128 34.5419 56.2092C34.2363 55.0398 34.1638 53.8216 34.3285 52.6242C34.4931 51.4268 34.8917 50.2736 35.5015 49.2306L37.6511 48.7596L39.791 48.2117C40.8146 48.8588 41.7002 49.7024 42.3969 50.6939C43.0935 51.6853 43.5874 52.8051 43.8501 53.9887Z" fill="#FFCA08" stroke="url(#paint4_linear_189_3938)" stroke-miterlimit="10"/>
<path d="M39.9936 52.2385L39.9843 52.2407C39.6182 52.3278 39.3919 52.6957 39.4788 53.0624L41.3458 60.937C41.4328 61.3038 41.8001 61.5304 42.1662 61.4433L42.1755 61.4411C42.5416 61.354 42.7679 60.9861 42.6809 60.6194L40.8139 52.7448C40.727 52.3781 40.3597 52.1514 39.9936 52.2385Z" fill="url(#paint5_linear_189_3938)"/>
<path d="M37.2087 52.9031L37.1994 52.9053C36.8333 52.9924 36.607 53.3603 36.6939 53.727L38.5609 61.6016C38.6479 61.9683 39.0151 62.195 39.3812 62.1079L39.3906 62.1057C39.7567 62.0186 39.983 61.6507 39.896 61.284L38.029 53.4094C37.9421 53.0427 37.5748 52.816 37.2087 52.9031Z" fill="url(#paint6_linear_189_3938)"/>
</g>
<defs>
<filter id="filter0_d_189_3938" x="0.5" y="0" width="101.75" height="101.75" filterUnits="userSpaceOnUse" color-interpolation-filters="sRGB">
<feFlood flood-opacity="0" result="BackgroundImageFix"/>
<feColorMatrix in="SourceAlpha" type="matrix" values="0 0 0 0 0 0 0 0 0 0 0 0 0 0 0 0 0 0 127 0" result="hardAlpha"/>
<feMorphology radius="4" operator="dilate" in="SourceAlpha" result="effect1_dropShadow_189_3938"/>
<feOffset dy="5"/>
<feGaussianBlur stdDeviation="5"/>
<feComposite in2="hardAlpha" operator="out"/>
<feColorMatrix type="matrix" values="0 0 0 0 0 0 0 0 0 0 0 0 0 0 0 0 0 0 0.05 0"/>
<feBlend mode="normal" in2="BackgroundImageFix" result="effect1_dropShadow_189_3938"/>
<feBlend mode="normal" in="SourceGraphic" in2="effect1_dropShadow_189_3938" result="shape"/>
</filter>
<linearGradient id="paint0_linear_189_3938" x1="48.6406" y1="30.8335" x2="48.6406" y2="47.0496" gradientUnits="userSpaceOnUse">
<stop stop-color="#4D89D4"/>
<stop offset="1" stop-color="#216BC9"/>
</linearGradient>
<linearGradient id="paint1_linear_189_3938" x1="61.3375" y1="31" x2="61.3375" y2="66.0222" gradientUnits="userSpaceOnUse">
<stop stop-color="#4D89D4"/>
<stop offset="1" stop-color="#216BC9"/>
</linearGradient>
<linearGradient id="paint2_linear_189_3938" x1="34.8682" y1="26.6128" x2="34.8682" y2="47.5774" gradientUnits="userSpaceOnUse">
<stop stop-color="#4D89D4"/>
<stop offset="1" stop-color="#216BC9"/>
</linearGradient>
<linearGradient id="paint3_linear_189_3938" x1="35.3124" y1="48.5942" x2="39.7386" y2="47.5447" gradientUnits="userSpaceOnUse">
<stop offset="0.03" stop-color="#297EDE"/>
<stop offset="0.24" stop-color="#277AD9"/>
<stop offset="0.49" stop-color="#2270CB"/>
<stop offset="0.75" stop-color="#1A5FB3"/>
<stop offset="0.99" stop-color="#104B97"/>
</linearGradient>
<linearGradient id="paint4_linear_189_3938" x1="39.326" y1="48.2117" x2="39.326" y2="65.9999" gradientUnits="userSpaceOnUse">
<stop stop-color="#4D89D4"/>
<stop offset="1" stop-color="#216BC9"/>
</linearGradient>
<linearGradient id="paint5_linear_189_3938" x1="39.989" y1="52.2396" x2="42.1779" y2="61.4406" gradientUnits="userSpaceOnUse">
<stop stop-color="#4D89D4"/>
<stop offset="1" stop-color="#216BC9"/>
</linearGradient>
<linearGradient id="paint6_linear_189_3938" x1="37.204" y1="52.9042" x2="39.3929" y2="62.1051" gradientUnits="userSpaceOnUse">
<stop stop-color="#4D89D4"/>
<stop offset="1" stop-color="#216BC9"/>
</linearGradient>
</defs>
</svg>
