<svg width="47" height="46" viewBox="0 0 47 46" fill="none" xmlns="http://www.w3.org/2000/svg">
<rect width="46" height="46" transform="translate(0.5)" fill="white"/>
<path d="M28.7588 17.3113V13.9181H26.7437C26.6275 13.5859 26.483 13.2643 26.3119 12.9569L27.8952 11.3708L25.5058 8.93892L23.9896 10.4577C23.496 10.1465 22.9593 9.91001 22.3967 9.75597V7.8335H19.0093V9.75597C18.4657 9.8988 17.9431 10.1121 17.4547 10.3904L15.9097 8.80435L13.5107 11.1978L15.0557 12.7166C14.7883 13.1883 14.5819 13.6922 14.4415 14.2161H12.5223V17.6093H14.4415C14.5984 18.1915 14.8375 18.7482 15.1517 19.2626L13.9042 20.5122L16.3032 22.9057L17.6082 21.5984C18.0988 21.8584 18.6215 22.0523 19.1628 22.1752V24.0496H22.5406V22.0886C23.0772 21.9207 23.5876 21.678 24.0568 21.3677L25.381 22.6942L27.7704 20.3007L26.3502 18.8781C26.61 18.3767 26.8035 17.8435 26.926 17.2921L28.7588 17.3113ZM18.0784 15.9463C18.0708 15.4349 18.2154 14.9327 18.4937 14.5038C18.7721 14.0749 19.1716 13.7388 19.6414 13.5381C20.1111 13.3375 20.6299 13.2816 21.1315 13.3774C21.6331 13.4732 22.095 13.7164 22.4581 14.0761C22.8212 14.4357 23.0692 14.8955 23.1705 15.3969C23.2718 15.8983 23.2218 16.4185 23.0269 16.8913C22.8319 17.3641 22.5009 17.7681 22.0759 18.0517C21.6509 18.3354 21.1513 18.4859 20.6406 18.484C19.9668 18.4816 19.3208 18.2143 18.8417 17.7398C18.3626 17.2652 18.0885 16.6212 18.0784 15.9463Z" fill="url(#paint0_linear_544_4101)"/>
<path d="M35.6584 39.7476C34.7468 41.92 32.3765 43.1215 29.7184 43.0158L31.3306 39.1709C31.6109 38.4965 31.6127 37.7382 31.3357 37.0625C31.0586 36.3867 30.5254 35.8486 29.8528 35.5662L29.3346 35.3547C28.6613 35.074 27.9044 35.0721 27.2298 35.3496C26.5552 35.6271 26.018 36.1613 25.7361 36.8351L24.1239 40.68C22.2047 38.8633 21.3603 36.3256 22.2719 34.1532C23.1835 31.9808 25.5442 30.7793 28.1927 30.885L34.4493 15.8609C33.7858 15.2144 33.3231 14.3894 33.1171 13.4855C32.9111 12.5815 32.9705 11.6372 33.2882 10.7663C33.7371 9.85704 34.4531 9.10719 35.34 8.61747C36.2269 8.12776 37.2421 7.92163 38.2493 8.02677L36.8963 11.2758C36.7784 11.5565 36.7173 11.8578 36.7163 12.1623C36.7153 12.4668 36.7745 12.7685 36.8904 13.05C37.0064 13.3315 37.1769 13.5872 37.392 13.8023C37.6071 14.0175 37.8626 14.1879 38.1438 14.3037L38.5756 14.4863C38.8553 14.6028 39.1552 14.6629 39.4581 14.6632C39.7611 14.6634 40.0611 14.6038 40.341 14.4877C40.6209 14.3716 40.8752 14.2014 41.0893 13.9867C41.3034 13.772 41.4731 13.5172 41.5887 13.2367L42.9418 9.99731C43.731 10.636 44.3039 11.5033 44.5822 12.4806C44.8605 13.458 44.8305 14.4975 44.4963 15.4571C44.0999 16.2962 43.4694 17.0024 42.681 17.4902C41.8925 17.9781 40.9799 18.2268 40.0534 18.2063L33.8063 33.2208C35.7448 35.0279 36.5604 37.5656 35.6584 39.7476Z" fill="url(#paint1_linear_544_4101)"/>
<path d="M6.94498 6.42922L6.93538 9.04378L6.66669 9.11107L10.2364 24.164L8.52833 24.5774L4.9586 9.51479L4.68991 9.58208L3.5 7.25588L3.96061 3.86271L5.00658 3.61279L6.94498 6.42922Z" fill="url(#paint2_linear_544_4101)"/>
<path d="M11.0042 23.9848L7.71783 24.7666C7.4033 24.8414 7.20887 25.1575 7.28357 25.4726L7.33901 25.7064C7.41371 26.0215 7.72925 26.2162 8.04378 26.1414L11.3302 25.3596C11.6447 25.2847 11.8391 24.9687 11.7644 24.6536L11.709 24.4198C11.6343 24.1047 11.3188 23.9099 11.0042 23.9848Z" fill="url(#paint3_linear_544_4101)"/>
<path d="M15.8501 30.9887C16.3447 34.2641 16.5119 37.5808 16.3491 40.8894C16.3366 41.2086 16.2201 41.5149 16.0173 41.7614C15.8146 42.0079 15.5367 42.1811 15.2264 42.2544L12.2804 42.9561C11.9315 43.0384 11.5654 43.004 11.2379 42.8582C10.9104 42.7124 10.6395 42.4632 10.4667 42.1487C8.86371 39.3076 7.54888 36.3128 6.54194 33.2092C6.23634 32.0398 6.1638 30.8216 6.32845 29.6242C6.4931 28.4268 6.89173 27.2736 7.50154 26.2306L9.65106 25.7596L11.791 25.2117C12.8146 25.8588 13.7002 26.7024 14.3969 27.6939C15.0935 28.6853 15.5874 29.8051 15.8501 30.9887Z" fill="#FFCA08" stroke="url(#paint4_linear_544_4101)" stroke-miterlimit="10"/>
<path d="M11.9936 29.2385L11.9843 29.2407C11.6182 29.3278 11.3919 29.6957 11.4788 30.0624L13.3458 37.937C13.4328 38.3038 13.8001 38.5304 14.1662 38.4433L14.1755 38.4411C14.5416 38.354 14.7679 37.9861 14.6809 37.6194L12.8139 29.7448C12.727 29.3781 12.3597 29.1514 11.9936 29.2385Z" fill="url(#paint5_linear_544_4101)"/>
<path d="M9.20872 29.9031L9.19938 29.9053C8.83328 29.9924 8.60698 30.3603 8.69393 30.727L10.5609 38.6016C10.6479 38.9683 11.0151 39.195 11.3812 39.1079L11.3906 39.1057C11.7567 39.0186 11.983 38.6507 11.896 38.284L10.029 30.4094C9.94208 30.0427 9.57482 29.816 9.20872 29.9031Z" fill="url(#paint6_linear_544_4101)"/>
<defs>
<linearGradient id="paint0_linear_544_4101" x1="20.6406" y1="7.8335" x2="20.6406" y2="24.0496" gradientUnits="userSpaceOnUse">
<stop stop-color="#4D89D4"/>
<stop offset="1" stop-color="#216BC9"/>
</linearGradient>
<linearGradient id="paint1_linear_544_4101" x1="33.3375" y1="8" x2="33.3375" y2="43.0222" gradientUnits="userSpaceOnUse">
<stop stop-color="#4D89D4"/>
<stop offset="1" stop-color="#216BC9"/>
</linearGradient>
<linearGradient id="paint2_linear_544_4101" x1="6.86821" y1="3.61279" x2="6.86821" y2="24.5774" gradientUnits="userSpaceOnUse">
<stop stop-color="#4D89D4"/>
<stop offset="1" stop-color="#216BC9"/>
</linearGradient>
<linearGradient id="paint3_linear_544_4101" x1="7.3124" y1="25.5942" x2="11.7386" y2="24.5447" gradientUnits="userSpaceOnUse">
<stop offset="0.03" stop-color="#297EDE"/>
<stop offset="0.24" stop-color="#277AD9"/>
<stop offset="0.49" stop-color="#2270CB"/>
<stop offset="0.75" stop-color="#1A5FB3"/>
<stop offset="0.99" stop-color="#104B97"/>
</linearGradient>
<linearGradient id="paint4_linear_544_4101" x1="11.326" y1="25.2117" x2="11.326" y2="42.9999" gradientUnits="userSpaceOnUse">
<stop stop-color="#4D89D4"/>
<stop offset="1" stop-color="#216BC9"/>
</linearGradient>
<linearGradient id="paint5_linear_544_4101" x1="11.989" y1="29.2396" x2="14.1779" y2="38.4406" gradientUnits="userSpaceOnUse">
<stop stop-color="#4D89D4"/>
<stop offset="1" stop-color="#216BC9"/>
</linearGradient>
<linearGradient id="paint6_linear_544_4101" x1="9.20405" y1="29.9042" x2="11.3929" y2="39.1051" gradientUnits="userSpaceOnUse">
<stop stop-color="#4D89D4"/>
<stop offset="1" stop-color="#216BC9"/>
</linearGradient>
</defs>
</svg>
