<svg width="46" height="46" viewBox="0 0 46 46" fill="none" xmlns="http://www.w3.org/2000/svg">
<rect width="46" height="46" fill="white"/>
<path d="M18.4803 10.6765L4.57224 27.974C4.38923 28.2016 4.12428 28.3464 3.83569 28.3765C3.5471 28.4066 3.2585 28.3196 3.03338 28.1345L0.848856 26.3389C0.623738 26.1538 0.480544 25.8859 0.450771 25.5941C0.420999 25.3024 0.507088 25.0106 0.690102 24.7829L14.1648 8.02433C14.4628 7.65379 14.8941 7.4181 15.3639 7.36909C15.8337 7.32009 16.3035 7.46179 16.67 7.76302L18.2952 9.09894C18.4117 9.18881 18.5092 9.30143 18.5819 9.43012C18.6545 9.55881 18.7008 9.70095 18.7181 9.8481C18.7354 9.99525 18.7232 10.1444 18.6823 10.2867C18.6415 10.429 18.5728 10.5616 18.4803 10.6765Z" fill="url(#paint0_linear_544_4066)"/>
<path d="M31.4958 7.86201L44.9705 24.6206C45.1535 24.8482 45.2396 25.14 45.2099 25.4318C45.1801 25.7236 45.0369 25.9915 44.8118 26.1765L42.6273 27.9722C42.4021 28.1572 42.1135 28.2443 41.8249 28.2142C41.5364 28.1841 41.2714 28.0393 41.0884 27.8117L27.1536 10.4809C26.9706 10.2533 26.8845 9.96151 26.9143 9.66972C26.9441 9.37792 27.0873 9.11004 27.3124 8.925L28.9508 7.57826C29.3172 7.27703 29.787 7.13533 30.2568 7.18433C30.7267 7.23333 31.158 7.46903 31.4559 7.83956L31.4958 7.86201Z" fill="url(#paint1_linear_544_4066)"/>
<path d="M18.7574 5.92065H27.0762C27.9103 5.92065 28.7363 6.08676 29.5069 6.40949C30.2774 6.73223 30.9776 7.20526 31.5674 7.80159C32.1572 8.39793 32.6251 9.10587 32.9442 9.88502C33.2634 10.6642 33.4277 11.4992 33.4277 12.3426V30.348C33.4277 30.871 33.2222 31.3726 32.8565 31.7424C32.4907 32.1122 31.9946 32.32 31.4773 32.32H14.3648C14.1087 32.32 13.8551 32.269 13.6184 32.1699C13.3818 32.0708 13.1668 31.9255 12.9857 31.7424C12.8046 31.5593 12.6609 31.3419 12.5629 31.1027C12.4649 30.8634 12.4144 30.607 12.4144 30.348V12.3426C12.4144 10.6409 13.0824 9.00872 14.2717 7.80462C15.461 6.60052 17.0744 5.92293 18.7574 5.92065Z" fill="#FFCA08"/>
<path d="M22.9718 5.92065H22.5732V32.2771H22.9718V5.92065Z" fill="#104B97"/>
<path d="M18.2994 4H27.2882L22.7938 8.65568L18.2994 4Z" fill="#033266"/>
<path d="M27.2881 4L27.3729 4.93457L27.4407 5.62049L27.5425 6.66652L23.1075 11.0564L23.0057 9.99323L22.9464 9.30731L22.8446 8.24413L27.2881 4Z" fill="#104B97"/>
<path d="M27.3729 4.93457L27.4408 5.62049L23.0058 9.99323L22.9464 9.30731L27.3729 4.93457Z" fill="white"/>
<path d="M18.2994 4L18.2146 4.93457L18.1467 5.62049L18.0535 6.66652L22.48 11.0564L22.5818 9.99323L22.6411 9.30731L22.7429 8.24413L18.2994 4Z" fill="#104B97"/>
<path d="M18.2146 4.93457L18.1467 5.62049L22.5817 9.99323L22.6411 9.30731L18.2146 4.93457Z" fill="white"/>
<path d="M39.9997 29.6448H22.124C21.2857 29.6448 20.6061 30.3319 20.6061 31.1795V40.4652C20.6061 41.3128 21.2857 41.9999 22.124 41.9999H39.9997C40.838 41.9999 41.5176 41.3128 41.5176 40.4652V31.1795C41.5176 30.3319 40.838 29.6448 39.9997 29.6448Z" fill="url(#paint2_linear_544_4066)"/>
<path d="M22.5819 30.4164L23.8539 27.3555C24.433 25.956 25.4023 24.7571 26.6436 23.9048C27.8848 23.0525 29.3445 22.5837 30.8447 22.5555C32.3448 22.5274 33.8207 22.941 35.0924 23.7461C36.3642 24.5512 37.3768 25.7129 38.0069 27.0897L39.5333 30.4164" stroke="#033266" stroke-miterlimit="10"/>
<path d="M42.1196 29.8936L41.8652 34.0091L31.0618 37.4387L20.2498 34.0091L19.9954 29.9022C19.9839 29.7055 20.0122 29.5086 20.0785 29.3233C20.1448 29.1381 20.2477 28.9684 20.3811 28.8248C20.5144 28.6812 20.6753 28.5665 20.854 28.4879C21.0326 28.4092 21.2252 28.3683 21.4201 28.3674H40.695C40.8894 28.3671 41.0819 28.407 41.2605 28.4847C41.4391 28.5624 41.6001 28.6762 41.7335 28.8192C41.867 28.9621 41.9701 29.1312 42.0365 29.316C42.1029 29.5008 42.1312 29.6974 42.1196 29.8936Z" fill="#6EB5F4"/>
<path d="M31.0617 36.2898C31.3942 36.2898 31.6637 36.0172 31.6637 35.681C31.6637 35.3448 31.3942 35.0723 31.0617 35.0723C30.7292 35.0723 30.4596 35.3448 30.4596 35.681C30.4596 36.0172 30.7292 36.2898 31.0617 36.2898Z" fill="#FFCA08"/>
<defs>
<linearGradient id="paint0_linear_544_4066" x1="11.5264" y1="19.325" x2="7.61028" y2="16.1763" gradientUnits="userSpaceOnUse">
<stop stop-color="#4D89D4"/>
<stop offset="1" stop-color="#216BC9"/>
</linearGradient>
<linearGradient id="paint1_linear_544_4066" x1="38.0031" y1="15.9552" x2="34.087" y2="19.104" gradientUnits="userSpaceOnUse">
<stop stop-color="#4D89D4"/>
<stop offset="1" stop-color="#216BC9"/>
</linearGradient>
<linearGradient id="paint2_linear_544_4066" x1="31.0618" y1="29.6448" x2="31.0618" y2="41.9999" gradientUnits="userSpaceOnUse">
<stop stop-color="#4D89D4"/>
<stop offset="1" stop-color="#216BC9"/>
</linearGradient>
</defs>
</svg>
