<svg width="32" height="32" viewBox="0 0 32 32" fill="none" xmlns="http://www.w3.org/2000/svg">
<g clip-path="url(#clip0_2660_22256)">
<rect width="32" height="32" rx="4" fill="#F0F0F0"/>
<path d="M12.8235 25.9999H19.5294C21.6362 25.9999 22.6901 25.9999 23.3451 25.345C23.8715 24.8186 23.9743 24.0329 23.9944 22.647H8.35742C8.37754 24.0329 8.48036 24.8186 9.00677 25.345C9.66172 25.9999 10.7157 25.9999 12.8235 25.9999Z" fill="#7AA6DF"/>
<path d="M15.3378 10.353H12.8231C10.7152 10.353 9.66242 10.353 9.00748 11.008C8.35254 11.6629 8.35254 12.7157 8.35254 14.8236V21.5295C8.35254 21.9408 8.35254 22.3119 8.35701 22.6471H23.9951C23.9996 22.3119 23.9996 21.9408 23.9996 21.5295V14.8236C23.9996 12.7157 23.9996 11.6629 23.3447 11.008C22.6897 10.353 21.6369 10.353 19.529 10.353H17.0143V15.9111L17.7743 15.0237C17.8459 14.94 17.9333 14.8713 18.0315 14.8214C18.1297 14.7715 18.2368 14.7415 18.3466 14.733C18.4564 14.7244 18.5668 14.7376 18.6715 14.7718C18.7762 14.806 18.8731 14.8604 18.9568 14.932C19.0404 15.0037 19.1092 15.0911 19.159 15.1892C19.2089 15.2874 19.239 15.3945 19.2475 15.5043C19.256 15.6141 19.2428 15.7245 19.2086 15.8292C19.1745 15.9339 19.12 16.0308 19.0484 16.1145L16.8131 18.722C16.7344 18.814 16.6367 18.8879 16.5268 18.9385C16.4168 18.9892 16.2971 19.0154 16.1761 19.0154C16.055 19.0154 15.9353 18.9892 15.8254 18.9385C15.7154 18.8879 15.6177 18.814 15.539 18.722L13.3037 16.1145C13.2321 16.0308 13.1776 15.9339 13.1435 15.8292C13.1093 15.7245 13.0961 15.6141 13.1046 15.5043C13.1132 15.3945 13.1432 15.2874 13.1931 15.1892C13.243 15.0911 13.3117 15.0037 13.3954 14.932C13.479 14.8604 13.576 14.806 13.6807 14.7718C13.7854 14.7376 13.8958 14.7244 14.0056 14.733C14.1154 14.7415 14.2224 14.7715 14.3206 14.8214C14.4188 14.8713 14.5062 14.94 14.5778 15.0237L15.3378 15.9111V10.353Z" fill="url(#paint0_linear_2660_22256)"/>
<path d="M23.0064 7H9.34765C6.94471 7 5 9.01176 5 11.4929C5 13.6221 6.43059 15.4047 8.35294 15.8685V14.8235C8.35294 12.7156 8.35294 11.6628 9.00788 11.0079C9.66282 10.3529 10.7156 10.3529 12.8235 10.3529H19.5294C21.6373 10.3529 22.6901 10.3529 23.3451 11.0079C24 11.6628 24 12.7156 24 14.8235V15.8685C25.9224 15.4047 27.3529 13.6221 27.3529 11.4929C27.3529 9.01176 25.4071 7 23.0064 7Z" fill="#FFCA08"/>
</g>
<defs>
<linearGradient id="paint0_linear_2660_22256" x1="16.1761" y1="10.353" x2="16.1761" y2="22.6471" gradientUnits="userSpaceOnUse">
<stop stop-color="#4D89D4"/>
<stop offset="1" stop-color="#216BC9"/>
</linearGradient>
<clipPath id="clip0_2660_22256">
<rect width="32" height="32" rx="4" fill="white"/>
</clipPath>
</defs>
</svg>
