<svg width="245" height="245" viewBox="0 0 245 245" fill="none" xmlns="http://www.w3.org/2000/svg">
<rect width="245" height="245" fill="white"/>
<path d="M88.7302 75.4399C87.8902 70.2199 83.3701 65.6099 78.0301 63.9199C72.5301 62.1799 66.1602 64.9699 63.0102 69.6199C60.5502 73.2499 59.8202 77.9199 61.1602 82.0399C62.5102 86.1599 65.9501 89.6299 70.2201 91.0499C78.1801 93.6799 85.6702 87.7799 88.2102 80.8199C88.8702 79.0199 89.0002 77.1899 88.7201 75.4399H88.7302Z" fill="#F6F5F6"/>
<path d="M195.51 105.62C190.69 85.12 175.78 65.94 155.95 69.46C154.64 69.69 153.35 70.03 152.08 70.46C137.25 75.54 130.49 91.48 123.1 105.62C119.56 112.4 114.71 119.95 107.3 120.61C100.39 121.23 94.2802 115.38 87.4302 114.16C79.2202 112.7 71.4102 118.85 67.5202 126.92C63.0602 136.17 64.3502 146.42 68.6402 154.97H184.47C194.89 142.19 199.59 122.95 195.51 105.61V105.62Z" fill="#F6F5F6"/>
<path d="M192.38 185.99C189.25 182.31 184.93 180.1 181.92 179.25C179.11 178.46 174.84 177.74 170.5 178.8C167.8 179.46 165.44 180.73 163.48 182.58C161.16 184.77 159.38 187.79 158.21 191.56C158.03 192.12 158.09 192.72 158.38 193.24C158.66 193.76 159.14 194.14 159.71 194.3L167.09 196.38C168.13 196.67 169.24 196.15 169.68 195.16C170.66 192.94 173.13 189.43 178.68 190.89C182.91 192 183.79 195.54 183.97 197C184.27 199.39 183.32 201.86 181.45 203.61C178.58 206.29 174.82 205.77 172.84 205.22C170.56 204.59 168.19 205.91 167.56 208.18L165.32 216.12C164.99 217.28 165.67 218.49 166.83 218.81L174.02 220.83C175.18 221.16 176.39 220.48 176.71 219.32L177.18 217.65C177.18 217.65 177.23 217.58 177.27 217.58C179.06 217.47 182.6 216.97 186.24 214.95C190.89 212.36 194.04 208.22 195.61 202.65C197.86 194.67 195.1 189.19 192.38 186V185.99Z" fill="#E0E0E0"/>
<path d="M170.21 221.92L169.58 221.74C166.57 220.89 163.44 222.65 162.59 225.66C161.74 228.67 163.5 231.8 166.51 232.65L167.14 232.83C170.15 233.68 173.28 231.92 174.13 228.91C174.98 225.9 173.22 222.77 170.21 221.92Z" fill="#E0E0E0"/>
<path d="M198.21 107.19C196.04 106 193.56 105.73 191.97 105.88C190.48 106.02 188.3 106.45 186.42 107.76C185.25 108.57 184.35 109.61 183.75 110.86C183.04 112.33 182.74 114.11 182.87 116.12C182.89 116.42 183.03 116.7 183.26 116.9C183.49 117.1 183.79 117.19 184.09 117.17L188 116.81C188.55 116.76 188.99 116.3 189.02 115.75C189.08 114.51 189.62 112.37 192.55 112.06C194.78 111.82 195.85 113.35 196.2 114.02C196.78 115.11 196.78 116.46 196.2 117.64C195.32 119.45 193.42 119.89 192.37 119.99C191.16 120.1 190.27 121.17 190.38 122.37L190.76 126.58C190.82 127.2 191.36 127.65 191.98 127.59L195.79 127.24C196.41 127.18 196.86 126.64 196.8 126.02L196.72 125.14C196.72 125.14 196.72 125.1 196.75 125.09C197.59 124.71 199.19 123.82 200.57 122.19C202.32 120.1 203.07 117.54 202.8 114.58C202.41 110.35 200.09 108.23 198.2 107.2L198.21 107.19Z" fill="#EBEBEB"/>
<path d="M194.18 128.45L193.85 128.48C192.26 128.63 191.08 130.04 191.22 131.64C191.36 133.24 192.78 134.41 194.38 134.27L194.71 134.24C196.3 134.09 197.48 132.68 197.34 131.08C197.2 129.48 195.78 128.31 194.18 128.45Z" fill="#EBEBEB"/>
<path d="M140.58 38.9799C138.41 37.7799 135.94 37.4999 134.34 37.6399C132.85 37.7699 130.67 38.1999 128.78 39.4899C127.61 40.2899 126.7 41.3299 126.1 42.5799C125.38 44.0499 125.08 45.8199 125.2 47.8399C125.22 48.1399 125.35 48.4199 125.58 48.6199C125.81 48.8199 126.11 48.9199 126.41 48.8899L130.33 48.5499C130.88 48.4999 131.32 48.0499 131.35 47.4899C131.42 46.2499 131.96 44.1199 134.89 43.8099C137.12 43.5799 138.18 45.1099 138.53 45.7799C139.1 46.8699 139.1 48.2299 138.53 49.3999C137.64 51.2099 135.74 51.6399 134.69 51.7299C133.48 51.8399 132.59 52.9099 132.69 54.1099L133.06 58.3199C133.11 58.9399 133.66 59.3899 134.27 59.3399L138.09 59.0099C138.71 58.9599 139.16 58.4099 139.11 57.7999L139.03 56.9099C139.03 56.9099 139.03 56.8699 139.06 56.8599C139.9 56.4799 141.51 55.5999 142.89 53.9699C144.65 51.8899 145.41 49.3299 145.15 46.3699C144.78 42.1299 142.46 40.0099 140.58 38.9699V38.9799Z" fill="#EBEBEB"/>
<path d="M136.46 60.23L136.13 60.26C134.53 60.4 133.35 61.81 133.49 63.41C133.63 65.01 135.04 66.19 136.64 66.05L136.97 66.02C138.57 65.88 139.75 64.47 139.61 62.87C139.47 61.27 138.06 60.09 136.46 60.23Z" fill="#EBEBEB"/>
<path d="M84.6702 180.53C81.9602 179.25 78.9502 179.11 77.0302 179.4C75.2402 179.67 72.6402 180.36 70.4602 182.08C69.1002 183.14 68.1002 184.47 67.4602 186.02C66.7102 187.85 66.4802 190.02 66.7802 192.45C66.8302 192.81 67.0102 193.14 67.3102 193.36C67.6102 193.58 67.9702 193.68 68.3302 193.62L73.0302 192.9C73.6902 192.8 74.1902 192.22 74.1802 191.54C74.1602 190.03 74.6602 187.42 78.1702 186.82C80.8502 186.36 82.2502 188.14 82.7302 188.92C83.5102 190.19 83.6102 191.83 83.0002 193.3C82.0602 195.56 79.8102 196.22 78.5502 196.42C77.1002 196.65 76.1002 198.01 76.3202 199.45L77.1002 204.51C77.2102 205.25 77.9102 205.76 78.6502 205.65L83.2302 204.95C83.9702 204.84 84.4802 204.14 84.3702 203.4L84.2102 202.34C84.2102 202.34 84.2102 202.29 84.2402 202.28C85.2202 201.76 87.1002 200.57 88.6402 198.49C90.6002 195.84 91.3202 192.69 90.7802 189.13C90.0002 184.04 87.0302 181.65 84.6802 180.55L84.6702 180.53Z" fill="#EBEBEB"/>
<path d="M81.3603 206.53L80.9603 206.59C79.0403 206.88 77.7203 208.68 78.0203 210.6C78.3203 212.52 80.1103 213.84 82.0303 213.54L82.4303 213.48C84.3503 213.19 85.6703 211.39 85.3703 209.47C85.0703 207.55 83.2803 206.23 81.3603 206.53Z" fill="#EBEBEB"/>
<path d="M64.6102 84.74C60.8002 82.95 56.5602 82.76 53.8702 83.18C51.3502 83.57 47.7002 84.54 44.6402 86.96C42.7402 88.46 41.3201 90.32 40.4401 92.5C39.3901 95.08 39.0802 98.12 39.5102 101.53C39.5702 102.04 39.8401 102.5 40.2501 102.81C40.6701 103.12 41.1801 103.25 41.6901 103.17L48.3002 102.15C49.2302 102.01 49.9301 101.19 49.9101 100.24C49.8801 98.12 50.5701 94.44 55.5001 93.59C59.2601 92.94 61.2301 95.43 61.9101 96.53C63.0101 98.32 63.1602 100.62 62.3102 102.68C61.0002 105.85 57.8402 106.8 56.0702 107.08C54.0302 107.4 52.6302 109.31 52.9502 111.34L54.0502 118.45C54.2102 119.49 55.1901 120.2 56.2201 120.04L62.6601 119.04C63.7001 118.88 64.4101 117.9 64.2501 116.87L64.0202 115.38C64.0202 115.38 64.0302 115.31 64.0602 115.29C65.4402 114.55 68.0702 112.88 70.2302 109.95C72.9802 106.21 73.9802 101.79 73.2102 96.79C72.1002 89.64 67.9302 86.29 64.6202 84.74H64.6102Z" fill="#EBEBEB"/>
<path d="M60.0301 121.28L59.4701 121.37C56.7801 121.79 54.9301 124.32 55.3401 127.01C55.7501 129.7 58.2901 131.55 60.9801 131.14L61.5401 131.05C64.2301 130.63 66.0801 128.1 65.6701 125.41C65.2601 122.72 62.7201 120.87 60.0301 121.28Z" fill="#EBEBEB"/>
<path d="M156.3 241.35H119.85V226.06H156.3V241.35ZM120.73 240.47H155.42V226.94H120.73V240.47Z" fill="#DBDADA"/>
<path d="M137.99 226.94H101.54V211.65H137.99V226.94ZM102.42 226.06H137.11V212.53H102.42V226.06Z" fill="#DBDADA"/>
<path d="M57.76 214.97H21.3101V199.68H57.76V214.97ZM22.19 214.09H56.88V200.56H22.19V214.09Z" fill="#DBDADA"/>
<path d="M39.45 200.56H3V185.27H39.45V200.56ZM3.88 199.68H38.57V186.15H3.88V199.68Z" fill="#DBDADA"/>
<path d="M243.22 189.45H206.77V174.16H243.22V189.45ZM207.65 188.57H242.34V175.04H207.65V188.57Z" fill="#DBDADA"/>
<path d="M172.36 121.72C170.71 121.72 169.37 120.38 169.37 118.73C169.37 117.08 170.71 115.74 172.36 115.74C174.01 115.74 175.35 117.08 175.35 118.73C175.35 120.38 174.01 121.72 172.36 121.72ZM172.36 116.63C171.2 116.63 170.26 117.57 170.26 118.73C170.26 119.89 171.2 120.83 172.36 120.83C173.52 120.83 174.46 119.89 174.46 118.73C174.46 117.57 173.52 116.63 172.36 116.63Z" fill="#DBDADA"/>
<path d="M234.42 34.8601H197.97V19.5701H234.42V34.8601ZM198.85 33.9801H233.54V20.4501H198.85V33.9801Z" fill="#DBDADA"/>
<path d="M216.11 20.4599H179.66V5.16992H216.11V20.4599ZM180.54 19.5799H215.23V6.04992H180.54V19.5799Z" fill="#DBDADA"/>
<path d="M53.95 19.29H17.5V4H53.95V19.29ZM18.38 18.41H53.07V4.87999H18.38V18.41Z" fill="#DBDADA"/>
<path d="M176.71 29.0698C175.06 29.0698 173.72 27.7298 173.72 26.0798C173.72 24.4298 175.06 23.0898 176.71 23.0898C178.36 23.0898 179.7 24.4298 179.7 26.0798C179.7 27.7298 178.36 29.0698 176.71 29.0698ZM176.71 23.9798C175.55 23.9798 174.61 24.9198 174.61 26.0798C174.61 27.2398 175.55 28.1798 176.71 28.1798C177.87 28.1798 178.81 27.2398 178.81 26.0798C178.81 24.9198 177.87 23.9798 176.71 23.9798Z" fill="#DBDADA"/>
<path d="M127.62 169.25C168.936 169.25 202.43 163.255 202.43 155.86C202.43 148.465 168.936 142.47 127.62 142.47C86.3036 142.47 52.8101 148.465 52.8101 155.86C52.8101 163.255 86.3036 169.25 127.62 169.25Z" fill="#2C2C2C"/>
<mask id="mask0_1049_45955" style="mask-type:luminance" maskUnits="userSpaceOnUse" x="84" y="121" width="87" height="49">
<path d="M170.48 145.39C170.48 153.31 164.82 167.95 153.35 168.44C148.66 168.64 137.1 169.32 127.62 169.32C118.14 169.32 109.07 168.84 101.4 168.4C89.82 167.74 84.76 153.37 84.76 145.39C84.76 132.17 103.95 121.46 127.62 121.46C151.29 121.46 170.48 132.17 170.48 145.39Z" fill="white"/>
</mask>
<g mask="url(#mask0_1049_45955)">
<path d="M134.82 182.5C134.82 182.5 144.47 178.74 150.68 167.21C155.99 157.37 159.61 133.65 141.58 127.48C141.58 127.48 135.04 122.21 125.49 124.71C125.49 124.71 122.61 126.25 121.97 126.94C121.97 126.94 113.4 125.61 107.61 129.66C107.61 129.66 95.9301 138.45 100.93 159.18C100.93 159.18 107.68 175.13 117.39 176.73C127.09 178.33 121.78 176.97 124.16 179.26C126.54 181.55 133.16 188.81 134.82 182.49V182.5Z" fill="#2D2A2B"/>
<path d="M142.16 168.97C142.16 168.97 139.65 178.01 128.63 181.48C128.63 181.48 113.49 186.24 107.26 175.16C106.55 173.9 106.28 172.43 106.09 171C105.92 169.68 105.71 167.7 105.67 165.59C105.6 161.83 104.22 157.8 103.88 155.19C103.88 155.19 99.53 133.77 119.83 131.26C119.83 131.26 142.88 129.18 142.42 156.78C142.42 156.78 143.98 164.83 142.17 168.99L142.16 168.97Z" fill="#F1BF98"/>
<path d="M115.57 156.54C115.57 156.54 116.43 156.46 116.96 160.75C117.49 165.04 117.77 169.47 115.73 169.79C113.48 170.15 113.1 169.6 114.08 164.54C115.18 158.89 114.63 156.47 115.57 156.54Z" fill="#E28160"/>
<path d="M124.1 158.51C124.1 158.51 124.87 155.44 127.31 155.98C129.1 156.38 128.37 157.79 130.31 157.29C130.31 157.29 130.49 156.79 128.32 155.53C128.32 155.53 124.33 153.57 124.1 158.51Z" fill="#2D2A2B"/>
<path d="M121.46 150.44C121.46 150.44 120.41 151.41 123.5 152.12C126 152.69 129.91 154.67 130.69 155.28C130.69 155.28 131.71 154.84 128.61 152.58C128.61 152.58 121.66 148.46 121.46 150.44Z" fill="#2D2A2B"/>
<path d="M109.47 151.72C109.47 151.72 111.91 152.36 110.37 153.07C108.58 153.89 107.17 153.77 105.3 155.49C105.3 155.49 104.2 153.3 109.47 151.72Z" fill="#2D2A2B"/>
<path d="M111.78 158.34C111.78 158.34 110.81 156.37 107.84 157.07C107.57 157.13 107.28 157.33 107.05 157.5C106.72 157.75 106.89 157.65 106.16 158.03C106.16 158.03 105.99 158.21 106.66 156.85C106.83 156.51 107.27 156.26 107.63 156.15C108.59 155.87 110.09 155.57 111.78 158.34Z" fill="#2D2A2B"/>
<path d="M138.99 159.32C138.99 159.32 140.02 150.08 146.51 152.42C146.51 152.42 153.68 155.32 146.72 165.94C146.72 165.94 143.95 170.05 138.75 168.99C138.75 168.99 136.91 167.91 138.99 159.32Z" fill="#F1BF98"/>
<path d="M125.86 160.4C126.882 160.4 127.71 159.317 127.71 157.98C127.71 156.644 126.882 155.56 125.86 155.56C124.838 155.56 124.01 156.644 124.01 157.98C124.01 159.317 124.838 160.4 125.86 160.4Z" fill="#2D2A2B"/>
<path d="M110.52 160.58C111.376 160.268 111.732 159.085 111.314 157.938C110.896 156.792 109.863 156.115 109.007 156.427C108.151 156.739 107.796 157.921 108.213 159.068C108.631 160.215 109.664 160.892 110.52 160.58Z" fill="#2D2A2B"/>
<path d="M141.76 164.74C141.25 161.54 141.2 157.45 143.91 155.16C145.07 154.25 147.31 154.18 147.77 155.82C147.98 156.53 147.87 157.22 147.69 157.85C147.66 157.2 147.64 156.52 147.33 156C147.07 155.47 146.53 155.23 146.02 155.27C142.27 155.87 142.25 161.71 141.75 164.73L141.76 164.74Z" fill="#E28160"/>
<path d="M144.22 163.21C142.2 162.94 141.65 160.16 142.37 158.55C142.73 159.28 142.95 160.24 143.2 160.99C143.45 161.8 143.67 162.5 144.22 163.21Z" fill="#E28160"/>
<path opacity="0.31" d="M147.353 160.572C148.218 157.903 147.795 155.375 146.408 154.925C145.021 154.476 143.196 156.275 142.331 158.944C141.465 161.613 141.889 164.141 143.276 164.59C144.662 165.04 146.488 163.241 147.353 160.572Z" fill="#E28160"/>
<path d="M139.34 161.26C139.34 161.26 139.53 151.73 137.18 146.44C137.18 146.44 137.19 144.67 134.66 144.91C132.12 145.15 114.46 149.41 109.13 142.26C102.17 132.92 105.2 124.46 118.83 123.69C118.83 123.69 130.85 123.79 123.68 130.88C123.68 130.88 135.29 132.18 141.47 136.53C151.31 143.46 140.84 150.84 139.35 161.25L139.34 161.26Z" fill="#2D2A2B"/>
<path d="M112.27 140.97C112.27 140.97 101.88 143.39 104.62 158.83C106.78 170.96 97.0602 138.64 110.82 133.64C124.58 128.64 112.27 140.97 112.27 140.97Z" fill="#2D2A2B"/>
<path d="M132.02 135.07C128.2 135.71 116.49 137.65 116.06 131.89C116.42 128.68 118.11 124.6 121.69 124.01C124.41 123.58 127.51 126.63 124.95 128.93C124.33 129.49 123.29 129.91 122.54 129.33C121.85 128.71 121.9 127.74 121.97 126.94C121.83 128.09 122.3 129.83 123.76 129.35C127.39 127.75 124.98 124.06 121.75 124.45C118.51 125 116.89 128.97 116.52 131.88C116.88 137.05 128.42 135.48 132.03 135.07H132.02Z" fill="#7B787A"/>
<path d="M125.24 169.13C125.24 169.13 123.7 171.71 118.45 173.17C118.45 173.17 125.95 176.33 125.24 169.13Z" fill="#FFFFFD"/>
</g>
<path d="M144.24 105.06H106.11C102.4 105.06 99.3801 102.04 99.3801 98.33V89.19C99.3801 85.48 102.4 82.46 106.11 82.46H144.24C147.95 82.46 150.97 85.48 150.97 89.19V98.33C150.97 102.04 147.95 105.06 144.24 105.06ZM106.11 83.76C103.11 83.76 100.68 86.2 100.68 89.19V98.33C100.68 101.33 103.12 103.76 106.11 103.76H144.24C147.24 103.76 149.67 101.32 149.67 98.33V89.19C149.67 86.19 147.23 83.76 144.24 83.76H106.11Z" fill="#DBDADA"/>
<path d="M112.69 96.28C114.082 96.28 115.21 95.1518 115.21 93.76C115.21 92.3682 114.082 91.24 112.69 91.24C111.298 91.24 110.17 92.3682 110.17 93.76C110.17 95.1518 111.298 96.28 112.69 96.28Z" fill="#DBDADA"/>
<path d="M125.17 96.28C126.562 96.28 127.69 95.1518 127.69 93.76C127.69 92.3682 126.562 91.24 125.17 91.24C123.778 91.24 122.65 92.3682 122.65 93.76C122.65 95.1518 123.778 96.28 125.17 96.28Z" fill="#DBDADA"/>
<path d="M137.66 96.28C139.052 96.28 140.18 95.1518 140.18 93.76C140.18 92.3682 139.052 91.24 137.66 91.24C136.268 91.24 135.14 92.3682 135.14 93.76C135.14 95.1518 136.268 96.28 137.66 96.28Z" fill="#DBDADA"/>
</svg>
