<svg width="375" height="175" viewBox="0 0 375 175" fill="none" xmlns="http://www.w3.org/2000/svg">
<rect width="375" height="175" fill="url(#paint0_radial_189_3856)"/>
<path d="M10.6588 101.109H75.3561V157.512H10.6588V101.109Z" fill="url(#paint1_linear_189_3856)"/>
<g filter="url(#filter0_i_189_3856)">
<rect x="46.1437" y="106.334" width="7.5664" height="7.5664" fill="#C4DDFF"/>
</g>
<g filter="url(#filter1_i_189_3856)">
<rect x="46.1437" y="115.493" width="7.5664" height="7.5664" fill="#C4DDFF"/>
</g>
<g filter="url(#filter2_i_189_3856)">
<rect x="58.5995" y="106.334" width="7.5664" height="7.5664" fill="#C4DDFF"/>
</g>
<g filter="url(#filter3_i_189_3856)">
<rect x="58.5995" y="115.493" width="7.5664" height="7.5664" fill="#C4DDFF"/>
</g>
<path d="M10.6588 96.8149C10.6588 94.6058 12.4497 92.8149 14.6588 92.8149H71.3561C73.5652 92.8149 75.3561 94.6058 75.3561 96.8149V103.598H10.6588V96.8149Z" fill="url(#paint2_linear_189_3856)"/>
<path d="M291.053 107.36H325.313V158.325H291.053V107.36Z" fill="url(#paint3_linear_189_3856)"/>
<g filter="url(#filter4_i_189_3856)">
<rect x="295.794" y="114.52" width="3.31913" height="4.31044" fill="#C4DDFF"/>
</g>
<g filter="url(#filter5_i_189_3856)">
<rect x="295.794" y="121.294" width="3.31913" height="4.31044" fill="#C4DDFF"/>
</g>
<g filter="url(#filter6_i_189_3856)">
<rect x="302.433" y="114.52" width="3.31913" height="4.31044" fill="#C4DDFF"/>
</g>
<g filter="url(#filter7_i_189_3856)">
<rect x="302.433" y="121.294" width="3.31913" height="4.31044" fill="#C4DDFF"/>
</g>
<path d="M291.053 104.229C291.053 102.02 292.844 100.229 295.053 100.229H321.533C323.742 100.229 325.533 102.02 325.533 104.229V108.203H291.053V104.229Z" fill="url(#paint4_linear_189_3856)"/>
<path d="M316.692 86.8748H364.129V157.441H316.692V86.8748Z" fill="url(#paint5_linear_189_3856)"/>
<g filter="url(#filter8_i_189_3856)">
<rect x="323.257" y="96.7883" width="4.59571" height="5.9683" fill="#C4DDFF"/>
</g>
<g filter="url(#filter9_i_189_3856)">
<rect x="323.257" y="106.167" width="4.59571" height="5.9683" fill="#C4DDFF"/>
</g>
<g filter="url(#filter10_i_189_3856)">
<rect x="332.449" y="96.7883" width="4.59571" height="5.9683" fill="#C4DDFF"/>
</g>
<g filter="url(#filter11_i_189_3856)">
<rect x="332.449" y="106.167" width="4.59571" height="5.9683" fill="#C4DDFF"/>
</g>
<path d="M316.692 81C316.692 78.7909 318.483 77 320.692 77H360.434C362.643 77 364.434 78.7909 364.434 81V88.0412H316.692V81Z" fill="url(#paint6_linear_189_3856)"/>
<path d="M207.835 110.958H239.466V158.012H207.835V110.958Z" fill="url(#paint7_linear_189_3856)"/>
<g filter="url(#filter12_i_189_3856)">
<rect x="212.213" y="126.081" width="3.06442" height="3.97965" fill="#C4DDFF"/>
</g>
<g filter="url(#filter13_i_189_3856)">
<rect x="212.213" y="132.335" width="3.06442" height="3.97965" fill="#C4DDFF"/>
</g>
<g filter="url(#filter14_i_189_3856)">
<rect x="218.341" y="126.081" width="3.06442" height="3.97965" fill="#C4DDFF"/>
</g>
<g filter="url(#filter15_i_189_3856)">
<rect x="218.341" y="132.335" width="3.06442" height="3.97965" fill="#C4DDFF"/>
</g>
<path d="M207.835 108.374C207.835 106.165 209.626 104.374 211.835 104.374H235.669C237.878 104.374 239.669 106.165 239.669 108.374V111.736H207.835V108.374Z" fill="url(#paint8_linear_189_3856)"/>
<path d="M110.489 109.278H144.833V157.257H110.489V109.278Z" fill="url(#paint9_linear_189_3856)"/>
<g filter="url(#filter16_i_189_3856)">
<rect x="115.242" y="116.018" width="3.32722" height="4.05793" fill="#C4DDFF"/>
</g>
<g filter="url(#filter17_i_189_3856)">
<rect x="115.242" y="122.395" width="3.32722" height="4.05793" fill="#C4DDFF"/>
</g>
<g filter="url(#filter18_i_189_3856)">
<rect x="121.897" y="116.018" width="3.32722" height="4.05793" fill="#C4DDFF"/>
</g>
<g filter="url(#filter19_i_189_3856)">
<rect x="121.897" y="122.395" width="3.32722" height="4.05793" fill="#C4DDFF"/>
</g>
<path d="M110.489 106.564C110.489 104.355 112.28 102.564 114.489 102.564H141.053C143.262 102.564 145.053 104.355 145.053 106.564V110.071H110.489V106.564Z" fill="url(#paint10_linear_189_3856)"/>
<rect x="44.4623" y="153.878" width="2.51108" height="3.51551" fill="#144079"/>
<path d="M43.9858 143.821C44.7556 142.487 46.6801 142.487 47.4499 143.821L51.5971 151.004C52.3669 152.337 51.4047 154.004 49.8651 154.004H41.5707C40.0311 154.004 39.0688 152.337 39.8386 151.004L43.9858 143.821Z" fill="url(#paint11_linear_189_3856)"/>
<path d="M43.9858 137.292C44.7556 135.959 46.6801 135.959 47.4499 137.292L51.5971 144.475C52.3669 145.809 51.4047 147.475 49.8651 147.475H41.5707C40.0311 147.475 39.0688 145.809 39.8386 144.475L43.9858 137.292Z" fill="url(#paint12_linear_189_3856)"/>
<path d="M43.9858 131.265C44.7556 129.932 46.6801 129.932 47.4499 131.265L50.2923 136.189C51.0621 137.522 50.0998 139.189 48.5602 139.189H42.8754C41.3358 139.189 40.3735 137.522 41.1433 136.189L43.9858 131.265Z" fill="url(#paint13_linear_189_3856)"/>
<rect x="60.415" y="153.878" width="2.51108" height="3.51551" fill="#144079"/>
<path d="M59.9386 143.821C60.7084 142.487 62.6329 142.487 63.4027 143.821L67.5499 151.004C68.3197 152.337 67.3574 154.004 65.8178 154.004H57.5234C55.9838 154.004 55.0216 152.337 55.7914 151.004L59.9386 143.821Z" fill="url(#paint14_linear_189_3856)"/>
<path d="M59.9386 137.292C60.7084 135.959 62.6329 135.959 63.4027 137.292L67.5499 144.475C68.3197 145.809 67.3574 147.475 65.8178 147.475H57.5234C55.9838 147.475 55.0216 145.809 55.7914 144.475L59.9386 137.292Z" fill="url(#paint15_linear_189_3856)"/>
<path d="M59.9385 131.265C60.7083 129.932 62.6328 129.932 63.4026 131.265L66.245 136.189C67.0148 137.522 66.0526 139.189 64.513 139.189H58.8281C57.2885 139.189 56.3263 137.522 57.0961 136.189L59.9385 131.265Z" fill="url(#paint16_linear_189_3856)"/>
<rect x="328.424" y="153.515" width="2.67977" height="3.75167" fill="#144079"/>
<path d="M328.032 142.581C328.802 141.247 330.726 141.247 331.496 142.581L336.154 150.649C336.924 151.983 335.962 153.649 334.422 153.649H325.105C323.566 153.649 322.604 151.983 323.373 150.649L328.032 142.581Z" fill="url(#paint17_linear_189_3856)"/>
<path d="M328.032 135.613C328.802 134.28 330.726 134.28 331.496 135.613L336.154 143.682C336.924 145.015 335.962 146.682 334.422 146.682H325.105C323.566 146.682 322.604 145.015 323.373 143.682L328.032 135.613Z" fill="url(#paint18_linear_189_3856)"/>
<path d="M328.032 129.182C328.802 127.848 330.726 127.848 331.496 129.182L334.762 134.839C335.532 136.172 334.57 137.839 333.03 137.839H326.498C324.958 137.839 323.996 136.172 324.766 134.839L328.032 129.182Z" fill="url(#paint19_linear_189_3856)"/>
<rect x="311.4" y="153.515" width="2.67977" height="3.75167" fill="#144079"/>
<path d="M311.008 142.581C311.777 141.247 313.702 141.247 314.472 142.581L319.13 150.649C319.9 151.983 318.938 153.649 317.398 153.649H308.081C306.542 153.649 305.579 151.983 306.349 150.649L311.008 142.581Z" fill="url(#paint20_linear_189_3856)"/>
<path d="M311.008 135.613C311.777 134.28 313.702 134.28 314.472 135.613L319.13 143.682C319.9 145.015 318.938 146.682 317.398 146.682H308.081C306.542 146.682 305.579 145.015 306.349 143.682L311.008 135.613Z" fill="url(#paint21_linear_189_3856)"/>
<path d="M311.008 129.182C311.777 127.848 313.702 127.848 314.472 129.182L317.738 134.839C318.507 136.172 317.545 137.839 316.006 137.839H309.474C307.934 137.839 306.972 136.172 307.741 134.839L311.008 129.182Z" fill="url(#paint22_linear_189_3856)"/>
<rect x="24.3948" y="152.448" width="3.79827" height="5.31758" fill="#144079"/>
<path d="M24.5619 135.697C25.3317 134.363 27.2562 134.363 28.026 135.697L36.0748 149.638C36.8446 150.971 35.8824 152.638 34.3428 152.638H18.2452C16.7056 152.638 15.7433 150.971 16.5131 149.638L24.5619 135.697Z" fill="url(#paint23_linear_189_3856)"/>
<path d="M24.5619 125.821C25.3317 124.488 27.2562 124.488 28.026 125.821L36.0748 139.762C36.8446 141.096 35.8824 142.762 34.3428 142.762H18.2452C16.7056 142.762 15.7433 141.096 16.5131 139.762L24.5619 125.821Z" fill="url(#paint24_linear_189_3856)"/>
<path d="M24.5619 116.705C25.3317 115.372 27.2562 115.372 28.026 116.705L34.1011 127.228C34.8709 128.561 33.9087 130.228 32.3691 130.228H20.2188C18.6792 130.228 17.7169 128.561 18.4867 127.228L24.5619 116.705Z" fill="url(#paint25_linear_189_3856)"/>
<rect x="345.786" y="151.448" width="4.05343" height="5.6748" fill="#144079"/>
<path d="M346.081 133.37C346.851 132.037 348.775 132.037 349.545 133.37L358.367 148.651C359.137 149.984 358.175 151.651 356.635 151.651H338.991C337.451 151.651 336.489 149.984 337.259 148.651L346.081 133.37Z" fill="url(#paint26_linear_189_3856)"/>
<path d="M346.081 122.831C346.851 121.498 348.775 121.498 349.545 122.831L358.367 138.112C359.137 139.445 358.175 141.112 356.635 141.112H338.991C337.451 141.112 336.489 139.445 337.259 138.112L346.081 122.831Z" fill="url(#paint27_linear_189_3856)"/>
<path d="M346.081 113.103C346.851 111.77 348.775 111.77 349.545 113.103L356.261 124.735C357.031 126.069 356.068 127.735 354.529 127.735H341.097C339.557 127.735 338.595 126.069 339.365 124.735L346.081 113.103Z" fill="url(#paint28_linear_189_3856)"/>
<path d="M72.6626 124.663H113.09L106.625 115.194C106.347 114.742 105.969 114.368 105.523 114.106C105.077 113.844 104.577 113.701 104.067 113.691H81.6754C81.1759 113.712 80.6884 113.859 80.2542 114.121C79.82 114.383 79.4518 114.751 79.1805 115.194L72.6626 124.663Z" fill="url(#paint29_linear_189_3856)"/>
<path d="M75.4036 135.636V153.903H97.206V145.85C97.1787 145.301 97.259 144.752 97.4421 144.236C97.6252 143.72 97.9072 143.249 98.2709 142.85C98.6346 142.451 99.0725 142.134 99.5578 141.917C100.043 141.7 100.566 141.588 101.094 141.588C101.622 141.588 102.145 141.7 102.63 141.917C103.116 142.134 103.553 142.451 103.917 142.85C104.281 143.249 104.563 143.72 104.746 144.236C104.929 144.752 105.009 145.301 104.982 145.85V153.924H109.664V135.636H75.4036Z" fill="url(#paint30_linear_189_3856)"/>
<path d="M109.67 139.294C108.941 139.294 108.243 138.968 107.728 138.389C107.213 137.81 106.924 137.025 106.924 136.206V129.052H112.406V136.217C112.403 137.032 112.114 137.813 111.601 138.389C111.089 138.966 110.394 139.291 109.67 139.294Z" fill="#104B97"/>
<path d="M104.208 139.294C103.474 139.294 102.771 138.968 102.252 138.389C101.733 137.81 101.442 137.025 101.442 136.206V129.052H106.924V136.217C106.921 137.024 106.635 137.799 106.128 138.374C105.62 138.949 104.931 139.279 104.208 139.294Z" fill="#7AA6DF"/>
<path d="M98.3915 139.293C97.9857 139.301 97.5826 139.226 97.2055 139.075C96.8284 138.924 96.4849 138.698 96.1949 138.412C95.9049 138.125 95.6742 137.783 95.5163 137.406C95.3584 137.028 95.2763 136.623 95.2749 136.213V129.052H101.442V136.213C101.439 137.029 101.117 137.811 100.545 138.388C99.9738 138.965 99.1996 139.29 98.3915 139.293Z" fill="#104B97"/>
<path d="M92.5342 139.294C92.1742 139.294 91.8178 139.214 91.4853 139.059C91.1527 138.903 90.8506 138.676 90.5961 138.389C90.3415 138.103 90.1397 137.762 90.0019 137.387C89.8642 137.013 89.7933 136.611 89.7933 136.206V129.052H95.275V136.217C95.2724 137.034 94.9825 137.817 94.4688 138.393C93.955 138.97 93.2594 139.294 92.5342 139.294Z" fill="#7AA6DF"/>
<path d="M87.0573 139.294C86.329 139.294 85.6306 138.968 85.1157 138.389C84.6008 137.81 84.3115 137.025 84.3115 136.206V129.052H89.7932V136.217C89.7906 137.032 89.5015 137.813 88.989 138.389C88.4765 138.966 87.7821 139.291 87.0573 139.294Z" fill="#104B97"/>
<path d="M81.5707 139.294C80.8437 139.294 80.1466 138.968 79.6326 138.389C79.1185 137.81 78.8298 137.025 78.8298 136.206V129.052H84.3115V136.217C84.3089 137.034 84.019 137.817 83.5053 138.393C82.9915 138.97 82.2959 139.294 81.5707 139.294Z" fill="#7AA6DF"/>
<path d="M75.7242 139.293C74.9123 139.293 74.1336 138.968 73.5594 138.389C72.9853 137.81 72.6627 137.024 72.6627 136.206V129.052H78.8297V136.217C78.8283 136.625 78.7466 137.029 78.5894 137.405C78.4321 137.782 78.2024 138.123 77.9136 138.409C77.6248 138.695 77.2826 138.92 76.9068 139.072C76.5309 139.224 76.129 139.299 75.7242 139.293Z" fill="#104B97"/>
<path d="M72.6526 129.052H113.101C114.231 129.052 115.146 128.072 115.146 126.863V126.852C115.146 125.643 114.231 124.663 113.101 124.663H72.6526C71.523 124.663 70.6072 125.643 70.6072 126.852V126.863C70.6072 128.072 71.523 129.052 72.6526 129.052Z" fill="url(#paint31_linear_189_3856)"/>
<path d="M72.6526 158.313H113.101C114.231 158.313 115.146 157.333 115.146 156.124V156.113C115.146 154.904 114.231 153.924 113.101 153.924H72.6526C71.523 153.924 70.6072 154.904 70.6072 156.113V156.124C70.6072 157.333 71.523 158.313 72.6526 158.313Z" fill="#1A56A1"/>
<path d="M244.163 125.446H283.668L277.35 116.193C277.079 115.751 276.71 115.386 276.274 115.129C275.838 114.873 275.35 114.734 274.851 114.724H252.97C252.482 114.744 252.006 114.889 251.581 115.144C251.157 115.4 250.797 115.759 250.532 116.193L244.163 125.446Z" fill="url(#paint32_linear_189_3856)"/>
<path d="M246.842 136.168V154.018H268.146V146.149C268.12 145.612 268.198 145.076 268.377 144.572C268.556 144.068 268.832 143.607 269.187 143.217C269.542 142.828 269.97 142.517 270.445 142.305C270.919 142.093 271.43 141.984 271.946 141.984C272.462 141.984 272.973 142.093 273.447 142.305C273.921 142.517 274.349 142.828 274.704 143.217C275.06 143.607 275.335 144.068 275.514 144.572C275.693 145.076 275.772 145.612 275.745 146.149V154.039H280.321V136.168H246.842Z" fill="url(#paint33_linear_189_3856)"/>
<path d="M280.325 139.742C279.614 139.742 278.931 139.424 278.428 138.858C277.925 138.293 277.642 137.525 277.642 136.725V129.735H282.999V136.736C282.996 137.532 282.714 138.295 282.213 138.858C281.712 139.422 281.034 139.739 280.325 139.742Z" fill="#104B97"/>
<path d="M274.988 139.742C274.271 139.742 273.584 139.424 273.077 138.858C272.57 138.293 272.285 137.525 272.285 136.725V129.735H277.642V136.736C277.64 137.525 277.36 138.281 276.864 138.843C276.368 139.405 275.695 139.728 274.988 139.742Z" fill="#7AA6DF"/>
<path d="M269.305 139.742C268.908 139.749 268.514 139.676 268.146 139.529C267.777 139.381 267.442 139.16 267.158 138.88C266.875 138.6 266.649 138.266 266.495 137.897C266.341 137.528 266.261 137.132 266.259 136.732V129.735H272.285V136.732C272.283 137.529 271.968 138.293 271.409 138.857C270.851 139.421 270.094 139.739 269.305 139.742Z" fill="#104B97"/>
<path d="M263.581 139.742C263.229 139.742 262.881 139.664 262.556 139.512C262.231 139.361 261.936 139.139 261.687 138.858C261.438 138.578 261.241 138.246 261.107 137.879C260.972 137.513 260.903 137.121 260.903 136.725V129.735H266.259V136.736C266.257 137.534 265.973 138.299 265.471 138.862C264.969 139.426 264.29 139.742 263.581 139.742Z" fill="#7AA6DF"/>
<path d="M258.229 139.742C257.518 139.742 256.835 139.424 256.332 138.858C255.829 138.293 255.546 137.525 255.546 136.725V129.735H260.903V136.736C260.9 137.532 260.618 138.295 260.117 138.858C259.616 139.422 258.937 139.739 258.229 139.742Z" fill="#104B97"/>
<path d="M252.868 139.742C252.157 139.742 251.476 139.424 250.974 138.858C250.472 138.293 250.19 137.525 250.19 136.725V129.735H255.546V136.736C255.544 137.534 255.26 138.299 254.758 138.862C254.256 139.426 253.576 139.742 252.868 139.742Z" fill="#7AA6DF"/>
<path d="M247.155 139.742C246.361 139.742 245.6 139.424 245.039 138.858C244.478 138.292 244.163 137.525 244.163 136.725V129.735H250.189V136.735C250.188 137.134 250.108 137.529 249.954 137.897C249.801 138.265 249.576 138.598 249.294 138.877C249.012 139.157 248.677 139.377 248.31 139.526C247.943 139.674 247.55 139.748 247.155 139.742Z" fill="#104B97"/>
<path d="M244.153 129.735H283.679C284.782 129.735 285.677 128.777 285.677 127.596V127.585C285.677 126.404 284.782 125.446 283.679 125.446H244.153C243.049 125.446 242.155 126.404 242.155 127.585V127.596C242.155 128.777 243.049 129.735 244.153 129.735Z" fill="url(#paint34_linear_189_3856)"/>
<path d="M244.153 158.328H283.679C284.782 158.328 285.677 157.37 285.677 156.189V156.178C285.677 154.996 284.782 154.039 283.679 154.039H244.153C243.049 154.039 242.155 154.996 242.155 156.178V156.189C242.155 157.37 243.049 158.328 244.153 158.328Z" fill="#1A56A1"/>
<path d="M134.885 126.791H171.903L165.983 118.12C165.729 117.706 165.383 117.364 164.974 117.124C164.566 116.884 164.108 116.754 163.641 116.744H143.138C142.68 116.763 142.234 116.898 141.836 117.138C141.439 117.378 141.102 117.714 140.853 118.12L134.885 126.791Z" fill="url(#paint35_linear_189_3856)"/>
<path d="M137.395 136.839V153.564H157.359V146.191C157.334 145.688 157.407 145.186 157.575 144.713C157.743 144.241 158.001 143.809 158.334 143.444C158.667 143.079 159.068 142.788 159.512 142.589C159.957 142.391 160.435 142.288 160.919 142.288C161.402 142.288 161.881 142.391 162.325 142.589C162.77 142.788 163.171 143.079 163.504 143.444C163.837 143.809 164.095 144.241 164.263 144.713C164.43 145.186 164.504 145.688 164.479 146.191V153.584H168.766V136.839H137.395Z" fill="url(#paint36_linear_189_3856)"/>
<path d="M168.771 140.188C168.104 140.188 167.465 139.89 166.993 139.36C166.522 138.829 166.257 138.11 166.257 137.36V130.81H171.276V137.37C171.274 138.117 171.009 138.832 170.54 139.36C170.071 139.887 169.435 140.185 168.771 140.188Z" fill="#104B97"/>
<path d="M163.77 140.188C163.098 140.188 162.454 139.89 161.979 139.36C161.504 138.829 161.237 138.11 161.237 137.36V130.81H166.257V137.37C166.254 138.11 165.993 138.819 165.528 139.345C165.063 139.872 164.432 140.174 163.77 140.188Z" fill="#7AA6DF"/>
<path d="M158.444 140.187C158.072 140.194 157.703 140.126 157.358 139.988C157.013 139.849 156.698 139.642 156.433 139.38C156.167 139.118 155.956 138.805 155.811 138.459C155.667 138.113 155.592 137.742 155.59 137.367V130.81H161.237V137.367C161.235 138.114 160.939 138.83 160.416 139.358C159.893 139.887 159.184 140.185 158.444 140.187Z" fill="#104B97"/>
<path d="M153.081 140.188C152.751 140.188 152.425 140.115 152.12 139.973C151.816 139.83 151.539 139.622 151.306 139.36C151.073 139.097 150.888 138.785 150.762 138.442C150.636 138.099 150.571 137.732 150.571 137.36V130.81H155.59V137.37C155.588 138.119 155.322 138.835 154.852 139.363C154.382 139.891 153.745 140.188 153.081 140.188Z" fill="#7AA6DF"/>
<path d="M148.066 140.188C147.399 140.188 146.759 139.89 146.288 139.36C145.816 138.829 145.551 138.11 145.551 137.36V130.81H150.571V137.37C150.569 138.117 150.304 138.832 149.835 139.36C149.365 139.887 148.729 140.185 148.066 140.188Z" fill="#104B97"/>
<path d="M143.042 140.188C142.376 140.188 141.738 139.89 141.267 139.36C140.796 138.829 140.532 138.11 140.532 137.36V130.81H145.552V137.37C145.549 138.119 145.284 138.835 144.813 139.363C144.343 139.891 143.706 140.188 143.042 140.188Z" fill="#7AA6DF"/>
<path d="M137.688 140.187C136.945 140.187 136.232 139.89 135.706 139.359C135.18 138.829 134.885 138.11 134.885 137.36V130.81H140.532V137.37C140.531 137.744 140.456 138.114 140.312 138.459C140.168 138.803 139.958 139.115 139.693 139.377C139.429 139.639 139.115 139.846 138.771 139.985C138.427 140.124 138.059 140.193 137.688 140.187Z" fill="#104B97"/>
<path d="M134.876 130.81H171.913C172.947 130.81 173.786 129.913 173.786 128.806V128.796C173.786 127.689 172.947 126.791 171.913 126.791H134.876C133.842 126.791 133.003 127.689 133.003 128.796V128.806C133.003 129.913 133.842 130.81 134.876 130.81Z" fill="url(#paint37_linear_189_3856)"/>
<path d="M134.876 157.603H171.913C172.947 157.603 173.786 156.706 173.786 155.599V155.589C173.786 154.482 172.947 153.584 171.913 153.584H134.876C133.842 153.584 133.003 154.482 133.003 155.589V155.599C133.003 156.706 133.842 157.603 134.876 157.603Z" fill="#1A56A1"/>
<rect y="157" width="375" height="18" fill="#1A56A1"/>
<path d="M210.605 119.505C209.576 118.534 208.667 117.677 208.603 116.429C208.589 116.142 208.572 115.434 209.023 114.987C209.291 114.745 209.634 114.601 209.995 114.58C210.123 114.565 210.251 114.562 210.38 114.57C211.509 114.28 211.057 105.713 213.468 106.347C216.225 107.067 214.47 110.879 214.337 111.161C214.608 110.818 219.34 104.865 221.432 106.108C223.523 107.35 217.916 111.992 217.491 112.348C217.989 112.026 224.431 107.894 224.634 109.881C224.845 111.95 218.806 115.414 218.806 115.414C218.806 115.414 223.668 114.843 224.553 116.855C225.438 118.866 218.31 118.108 218.31 118.108C218.02 118.272 217.706 118.433 217.362 118.585C216.515 118.967 215.627 119.249 214.715 119.424C214.696 119.836 214.53 120.228 214.247 120.529C213.977 120.782 213.638 120.949 213.273 121.008C212.354 121.14 211.556 120.405 210.605 119.505Z" fill="white"/>
<path d="M210.831 119.284C209.998 118.497 208.969 117.616 208.919 116.38C208.901 115.928 208.962 115.403 209.359 115.114C209.458 115.044 209.568 114.989 209.685 114.954C209.783 114.924 209.884 114.903 209.987 114.889C210.197 114.865 210.422 114.917 210.613 114.807C210.981 114.594 211.105 114.065 211.197 113.685C211.349 113.061 211.431 112.42 211.521 111.787C211.627 111.038 211.726 110.288 211.86 109.543C211.964 108.865 212.136 108.198 212.372 107.554C212.372 107.543 212.414 107.453 212.398 107.49C212.381 107.526 212.423 107.434 212.43 107.418C212.459 107.356 212.489 107.295 212.521 107.234C212.579 107.124 212.646 107.018 212.72 106.918C212.666 106.991 212.764 106.868 212.787 106.845C212.81 106.822 212.864 106.772 212.903 106.736C212.882 106.755 212.865 106.759 212.914 106.728L212.97 106.693C212.991 106.681 213.014 106.671 213.035 106.659C213.082 106.631 212.967 106.677 213.05 106.659C213.094 106.648 213.138 106.636 213.185 106.627C213.128 106.639 213.134 106.627 213.185 106.627H213.269C213.284 106.627 213.372 106.637 213.314 106.627C213.256 106.616 213.349 106.635 213.361 106.637C213.463 106.66 213.562 106.69 213.659 106.728C213.74 106.759 213.819 106.796 213.894 106.839C213.939 106.864 213.982 106.891 214.029 106.918L214.082 106.956C214.131 106.991 214.071 106.944 214.12 106.986C214.247 107.085 214.355 107.206 214.439 107.344C214.599 107.62 214.691 107.931 214.71 108.25C214.723 108.436 214.723 108.622 214.71 108.807C214.698 108.97 214.676 109.131 214.643 109.291C214.578 109.621 214.491 109.946 214.383 110.264C214.34 110.393 214.292 110.522 214.248 110.649C214.229 110.695 214.21 110.741 214.192 110.784C214.174 110.828 214.174 110.824 214.192 110.793L214.164 110.856C214.143 110.904 214.122 110.951 214.1 110.992C214.062 111.058 214.05 111.136 214.064 111.21C214.079 111.285 214.121 111.352 214.181 111.398C214.241 111.444 214.314 111.467 214.389 111.462C214.464 111.458 214.534 111.426 214.588 111.374C215.157 110.652 215.768 109.959 216.402 109.294C216.917 108.747 217.46 108.229 218.029 107.739C218.538 107.285 219.099 106.893 219.7 106.57C219.765 106.536 219.835 106.503 219.896 106.473L219.975 106.438L220.066 106.402C220.191 106.354 220.32 106.314 220.45 106.284C220.51 106.27 220.57 106.259 220.631 106.25C220.548 106.262 220.642 106.25 220.663 106.25H220.766C220.823 106.25 220.879 106.25 220.934 106.25H220.978C220.97 106.25 220.903 106.236 220.959 106.25L221.043 106.267C221.098 106.281 221.152 106.297 221.205 106.318C221.257 106.335 221.158 106.289 221.219 106.318L221.304 106.364L221.377 106.411L221.388 106.418C221.43 106.457 221.468 106.495 221.506 106.536C221.476 106.482 221.544 106.576 221.506 106.536C221.517 106.558 221.532 106.578 221.544 106.598C221.556 106.618 221.563 106.636 221.573 106.655C221.531 106.57 221.573 106.647 221.573 106.674C221.573 106.701 221.594 106.762 221.602 106.81C221.585 106.708 221.602 106.872 221.602 106.909C221.602 106.945 221.583 107.087 221.602 106.998C221.593 107.055 221.583 107.11 221.569 107.167C221.554 107.224 221.536 107.285 221.517 107.344L221.489 107.422C221.48 107.441 221.441 107.54 221.468 107.474C221.351 107.741 221.209 107.996 221.044 108.237C220.663 108.795 220.234 109.32 219.763 109.805C219.017 110.592 218.225 111.335 217.393 112.031L217.297 112.111C217.026 112.339 217.38 112.789 217.676 112.602C218.44 112.11 219.219 111.645 220.013 111.205C220.614 110.871 221.232 110.554 221.853 110.271C222.144 110.135 222.376 110.04 222.697 109.925C222.963 109.828 223.234 109.748 223.511 109.688L223.683 109.657H223.715C223.759 109.65 223.654 109.664 223.698 109.657L223.791 109.647C223.891 109.647 223.988 109.647 224.087 109.647C224.028 109.634 224.156 109.647 224.087 109.647C224.107 109.647 224.129 109.656 224.15 109.66C224.172 109.664 224.297 109.725 224.206 109.673L224.293 109.721C224.321 109.736 224.242 109.665 224.283 109.721C224.296 109.736 224.311 109.751 224.326 109.765C224.326 109.765 224.291 109.699 224.316 109.752C224.324 109.769 224.333 109.786 224.343 109.802C224.367 109.837 224.325 109.726 224.343 109.788C224.343 109.81 224.356 109.833 224.363 109.855C224.37 109.876 224.379 109.936 224.363 109.879C224.347 109.822 224.363 109.909 224.363 109.923C224.363 109.978 224.363 110.032 224.363 110.088C224.363 110.143 224.374 110.044 224.363 110.1C224.363 110.129 224.354 110.157 224.347 110.185C224.333 110.245 224.316 110.303 224.297 110.36L224.267 110.438C224.241 110.509 224.286 110.405 224.251 110.475C224.215 110.546 224.192 110.597 224.158 110.657C223.856 111.207 223.432 111.641 222.95 112.09C222.412 112.582 221.846 113.041 221.253 113.465C220.44 114.055 219.591 114.586 218.735 115.11C218.72 115.118 218.705 115.127 218.691 115.136C218.439 115.28 218.529 115.755 218.849 115.719C219.733 115.618 220.625 115.611 221.51 115.696C221.838 115.724 222.164 115.774 222.485 115.846C222.65 115.884 222.813 115.928 222.973 115.982C223.111 116.025 223.247 116.077 223.379 116.136C223.637 116.246 223.87 116.406 224.065 116.608L224.131 116.681C224.175 116.733 224.131 116.681 224.16 116.716C224.203 116.777 224.243 116.84 224.278 116.906C224.293 116.934 224.306 116.964 224.321 116.994C224.336 117.024 224.305 116.939 224.321 117.005C224.335 117.05 224.344 117.098 224.358 117.14C224.371 117.182 224.358 117.067 224.358 117.131C224.358 117.149 224.358 117.169 224.358 117.187C224.358 117.204 224.358 117.268 224.358 117.206C224.358 117.143 224.358 117.212 224.358 117.229C224.358 117.245 224.345 117.261 224.343 117.277C224.34 117.294 224.383 117.215 224.343 117.277C224.329 117.296 224.268 117.388 224.302 117.346C224.336 117.304 224.261 117.387 224.241 117.406C224.221 117.425 224.211 117.432 224.198 117.444C224.184 117.456 224.23 117.42 224.227 117.422C224.216 117.431 224.204 117.439 224.191 117.447C224.111 117.496 224.028 117.542 223.943 117.582C223.872 117.616 223.985 117.567 223.931 117.582L223.851 117.612C223.798 117.631 223.744 117.649 223.689 117.665C223.573 117.7 223.454 117.73 223.334 117.754C223.215 117.779 223.073 117.805 222.941 117.824H222.899L222.787 117.838L222.571 117.86C221.44 117.95 220.302 117.947 219.171 117.851C218.9 117.832 218.639 117.79 218.374 117.784C218.254 117.796 218.139 117.84 218.041 117.91C217.764 118.062 217.482 118.202 217.192 118.329C216.633 118.576 216.055 118.777 215.463 118.931C215.204 118.998 214.944 119.057 214.681 119.108C214.616 119.127 214.558 119.167 214.517 119.222C214.476 119.276 214.453 119.342 214.452 119.41C214.452 119.438 214.452 119.465 214.445 119.492C214.445 119.579 214.459 119.423 214.445 119.523C214.431 119.61 214.41 119.696 214.384 119.78C214.325 119.974 214.22 120.151 214.078 120.295C214.057 120.317 214.033 120.337 214.01 120.356C213.987 120.375 213.944 120.409 213.99 120.374C213.954 120.401 213.916 120.427 213.878 120.453C213.709 120.562 213.522 120.639 213.325 120.679C212.905 120.759 212.503 120.588 212.156 120.365C211.695 120.044 211.265 119.681 210.872 119.28C210.58 119.009 210.137 119.446 210.43 119.724C210.804 120.091 211.2 120.435 211.616 120.754C211.954 121.022 212.351 121.208 212.774 121.296C213.135 121.353 213.505 121.311 213.844 121.175C214.183 121.04 214.479 120.815 214.7 120.524C214.932 120.199 215.064 119.813 215.08 119.413L214.851 119.714C216.134 119.462 217.369 119.007 218.51 118.367L218.353 118.41C218.98 118.477 219.612 118.513 220.242 118.535C221.337 118.573 222.472 118.581 223.549 118.344C223.955 118.256 224.396 118.119 224.698 117.821C225 117.523 225.043 117.086 224.87 116.696C224.352 115.533 222.848 115.217 221.716 115.089C221.122 115.024 220.524 115.001 219.926 115.021C219.583 115.02 219.239 115.042 218.899 115.085H218.849L219.007 115.667C219.784 115.221 220.537 114.727 221.27 114.21C221.911 113.764 222.527 113.284 223.118 112.773C223.67 112.311 224.157 111.777 224.566 111.186C224.848 110.753 225.108 110.176 224.954 109.65C224.818 109.181 224.363 109.002 223.91 109.015C223.345 109.028 222.786 109.223 222.266 109.428C221.603 109.694 220.955 109.997 220.324 110.335C219.354 110.844 218.408 111.402 217.478 111.992L217.369 112.062L217.748 112.553C218.519 111.911 219.257 111.231 219.959 110.513C220.482 109.984 220.967 109.417 221.41 108.818C221.751 108.344 222.1 107.8 222.205 107.216C222.304 106.674 222.146 106.155 221.663 105.843C221.181 105.532 220.568 105.572 220.037 105.742C219.389 105.979 218.785 106.321 218.248 106.755C217.621 107.238 217.026 107.762 216.469 108.323C215.67 109.118 214.917 109.958 214.212 110.837L214.145 110.923L214.637 111.302C214.846 110.854 215.015 110.387 215.142 109.909C215.341 109.158 215.456 108.318 215.23 107.56C215.109 107.161 214.879 106.803 214.565 106.528C214.251 106.253 213.867 106.072 213.455 106.005C212.875 105.914 212.418 106.244 212.114 106.713C211.762 107.255 211.585 107.922 211.437 108.548C211.262 109.31 211.148 110.085 211.038 110.852C210.935 111.581 210.845 112.315 210.708 113.038C210.66 113.309 210.596 113.576 210.517 113.839C210.499 113.891 210.481 113.942 210.462 113.992C210.462 114.013 210.446 114.033 210.438 114.055C210.477 113.953 210.438 114.055 210.429 114.072C210.419 114.09 210.392 114.144 210.372 114.178C210.358 114.194 210.347 114.212 210.336 114.231C210.323 114.262 210.389 114.164 210.336 114.221C210.327 114.234 210.309 114.243 210.303 114.255C210.275 114.3 210.373 114.208 210.323 114.24L210.29 114.259C210.248 114.276 210.369 114.232 210.335 114.24C210.301 114.248 210.464 114.251 210.364 114.234C210.066 114.206 209.766 114.245 209.485 114.349C209.181 114.451 208.913 114.637 208.71 114.886C208.507 115.134 208.378 115.435 208.339 115.753C208.25 116.304 208.313 116.87 208.52 117.388C208.774 118.005 209.198 118.521 209.66 118.994C209.9 119.24 210.149 119.476 210.399 119.711C210.677 120.004 211.12 119.562 210.831 119.284Z" fill="#333333"/>
<path d="M211.426 115.659C212.07 115.807 212.666 116.118 213.155 116.562C213.644 117.007 214.011 117.57 214.219 118.198" stroke="#333333" stroke-linecap="round" stroke-linejoin="round"/>
<path d="M186.769 152.921C191.021 152.921 195.177 151.66 198.712 149.298C202.248 146.936 205.003 143.578 206.63 139.65C208.258 135.722 208.683 131.399 207.854 127.229C207.024 123.059 204.977 119.228 201.97 116.222C198.964 113.215 195.133 111.168 190.963 110.338C186.793 109.509 182.47 109.935 178.542 111.562C174.614 113.189 171.256 115.944 168.894 119.48C166.532 123.015 165.271 127.171 165.271 131.423C165.271 137.125 167.536 142.593 171.567 146.625C175.599 150.656 181.067 152.921 186.769 152.921Z" fill="url(#paint38_linear_189_3856)"/>
<path d="M187.955 113.778C187.018 114.069 186.009 114.031 185.096 113.672C185.096 113.672 185.096 113.66 185.096 113.654C185.093 113.629 185.093 113.603 185.096 113.577C185.094 113.564 185.094 113.551 185.096 113.538C185.063 113.416 185.06 113.288 185.088 113.165C185.115 113.041 185.173 112.927 185.254 112.83C185.356 112.733 185.485 112.666 185.624 112.64C185.763 112.613 185.906 112.627 186.038 112.68C186.309 112.794 186.309 113.038 186.515 113.057C186.769 113.082 186.844 112.689 187.192 112.627C187.362 112.611 187.533 112.651 187.678 112.741C187.823 112.831 187.935 112.965 187.997 113.125C188.035 113.231 188.051 113.343 188.043 113.455C188.036 113.568 188.006 113.677 187.955 113.778Z" fill="white" stroke="#333333" stroke-width="0.3" stroke-miterlimit="10"/>
<path d="M187.955 113.778C188.006 113.677 188.036 113.568 188.043 113.455C188.05 113.343 188.034 113.231 187.996 113.125C187.934 112.966 187.822 112.831 187.677 112.741C187.531 112.652 187.361 112.612 187.191 112.627C186.849 112.69 186.775 113.083 186.513 113.057C186.313 113.038 186.313 112.794 186.036 112.68C185.905 112.627 185.761 112.613 185.622 112.64C185.484 112.666 185.355 112.733 185.253 112.831C185.171 112.927 185.114 113.042 185.087 113.165C185.059 113.288 185.062 113.416 185.094 113.538C185.093 113.551 185.093 113.564 185.094 113.577C185.091 113.603 185.091 113.629 185.094 113.655C185.094 113.655 185.094 113.665 185.094 113.672C184.697 113.521 184.319 113.322 183.971 113.077C182.887 112.328 181.988 111.067 182.225 110.773C182.525 110.401 184.14 112.108 186.698 112.214C189.33 112.324 190.999 110.664 191.196 110.958C191.392 111.252 190.011 113.157 187.955 113.778Z" fill="#104B97" stroke="#333333" stroke-width="0.3" stroke-linejoin="round"/>
<path d="M203.953 112.016C203.973 111.062 203.722 110.122 203.228 109.306C202.536 108.182 201.414 107.446 200.138 107.43C198 107.404 196.242 109.413 196.208 111.916C196.174 114.419 197.886 116.47 200.025 116.495C202.163 116.521 203.924 114.521 203.953 112.016Z" fill="white"/>
<path d="M204.115 112.016C204.128 110.031 202.999 107.902 200.964 107.384C199.239 106.948 197.557 107.909 196.712 109.405C196.267 110.214 196.038 111.124 196.05 112.048C196.061 112.971 196.312 113.876 196.778 114.674C197.65 116.119 199.325 117.001 201.006 116.536C202.713 116.063 203.826 114.41 204.061 112.716C204.093 112.484 204.111 112.25 204.115 112.016C204.115 111.973 204.098 111.932 204.067 111.902C204.037 111.872 203.996 111.855 203.953 111.855C203.911 111.855 203.87 111.872 203.839 111.902C203.809 111.932 203.792 111.973 203.792 112.016C203.765 113.634 202.964 115.303 201.457 116.025C200.773 116.353 199.995 116.428 199.26 116.238C198.522 116.031 197.868 115.595 197.391 114.994C196.307 113.672 196.103 111.756 196.7 110.183C197.255 108.728 198.598 107.544 200.213 107.6C202.148 107.667 203.487 109.436 203.745 111.232C203.78 111.492 203.796 111.754 203.792 112.016C203.792 112.037 203.796 112.058 203.804 112.078C203.813 112.098 203.824 112.115 203.839 112.13C203.854 112.145 203.872 112.157 203.892 112.165C203.911 112.173 203.932 112.178 203.953 112.178C203.975 112.178 203.996 112.173 204.015 112.165C204.035 112.157 204.052 112.145 204.067 112.13C204.082 112.115 204.094 112.098 204.102 112.078C204.111 112.058 204.115 112.037 204.115 112.016Z" fill="#333333"/>
<path d="M156.079 141.588C156.169 142.101 155.585 142.557 155.073 142.461C154.561 142.365 154.196 141.867 154.106 141.352C154.016 140.838 154.145 140.314 154.304 139.816C154.7 138.591 155.281 137.433 156.028 136.384C156.344 135.947 156.703 135.508 157.193 135.274C157.684 135.041 158.328 135.053 158.708 135.441C159.087 135.828 159.009 136.608 158.5 136.797L158.887 136.394C160.151 135.91 161.457 135.542 162.788 135.297C163.694 135.128 164.666 135.025 165.505 135.408C166.343 135.791 166.937 136.837 166.531 137.664C167.864 137.877 168.844 138.745 168.978 139.756C169.073 140.456 168.785 141.363 168.168 141.645C167.429 141.983 166.398 141.33 166.38 141.381C166.363 141.431 167.46 141.652 167.776 142.378C168.084 143.074 167.639 144.194 166.905 144.527C166.041 144.918 164.908 144.172 164.857 144.285C164.806 144.398 166.21 144.802 166.392 145.657C166.557 146.431 165.629 147.548 164.647 147.671C163.732 147.78 163.545 146.942 162.062 146.483C160.634 146.041 160.246 146.648 158.908 146.124C158.144 145.809 157.467 145.314 156.935 144.682C156.339 144.013 155.901 143.218 155.657 142.356" fill="white"/>
<path d="M155.836 141.623C155.877 141.901 155.646 142.122 155.401 142.2C155.084 142.299 154.781 142.114 154.592 141.87C154.065 141.189 154.41 140.229 154.667 139.511C154.974 138.655 155.375 137.836 155.863 137.069C156.292 136.392 156.847 135.477 157.722 135.37C158.065 135.328 158.491 135.433 158.644 135.777C158.766 136.052 158.702 136.444 158.401 136.568L158.656 136.983L158.988 136.637C159.06 136.581 159.145 136.543 159.236 136.527C159.431 136.456 159.625 136.386 159.821 136.32C160.586 136.062 161.365 135.847 162.153 135.676C163.309 135.426 164.948 135.03 165.904 135.981C166.318 136.39 166.569 137.02 166.307 137.581C166.293 137.616 166.288 137.654 166.292 137.691C166.295 137.729 166.307 137.765 166.326 137.797C166.346 137.829 166.372 137.856 166.403 137.876C166.435 137.897 166.47 137.91 166.508 137.915C167.506 138.081 168.627 138.741 168.745 139.845C168.8 140.367 168.636 141.057 168.176 141.369C167.808 141.618 167.305 141.48 166.923 141.331C166.786 141.278 166.654 141.207 166.515 141.159C166.282 141.079 166.01 141.306 166.193 141.54C166.268 141.636 166.414 141.668 166.522 141.709C166.715 141.778 166.9 141.867 167.075 141.974C167.291 142.083 167.462 142.265 167.557 142.488C167.653 142.71 167.667 142.96 167.598 143.192C167.505 143.678 167.174 144.207 166.68 144.352C166.258 144.476 165.796 144.337 165.399 144.19C165.259 144.127 165.114 144.077 164.965 144.04C164.922 144.027 164.876 144.024 164.832 144.033C164.787 144.042 164.746 144.062 164.711 144.091C164.676 144.12 164.649 144.157 164.633 144.199C164.616 144.241 164.61 144.286 164.615 144.331C164.637 144.498 164.803 144.574 164.934 144.645C165.092 144.724 165.256 144.811 165.412 144.905C165.752 145.113 166.176 145.417 166.168 145.862C166.161 146.307 165.811 146.762 165.468 147.04C165.124 147.318 164.652 147.541 164.224 147.395C163.839 147.269 163.525 146.935 163.185 146.722C162.622 146.371 161.987 146.152 161.327 146.081C160.862 146.035 160.395 146.128 159.928 146.108C159.303 146.055 158.703 145.835 158.191 145.472C157.265 144.836 156.545 143.944 156.118 142.905C156.039 142.714 155.97 142.52 155.911 142.322C155.899 142.259 155.864 142.202 155.812 142.164C155.76 142.126 155.695 142.108 155.631 142.115C155.567 142.126 155.51 142.161 155.471 142.213C155.432 142.265 155.416 142.331 155.425 142.395C155.914 144.094 157.15 145.7 158.828 146.357C159.252 146.526 159.706 146.608 160.162 146.599C160.532 146.568 160.903 146.559 161.274 146.573C161.794 146.625 162.297 146.784 162.752 147.038C163.081 147.22 163.364 147.467 163.678 147.665C163.959 147.856 164.295 147.946 164.633 147.923C165.058 147.873 165.459 147.698 165.785 147.421C166.362 146.955 166.918 146.084 166.544 145.334C166.351 144.989 166.065 144.705 165.719 144.514C165.568 144.421 165.41 144.338 165.252 144.255L165.128 144.19C165.108 144.178 165.089 144.165 165.068 144.155C165.008 144.125 165.075 144.151 165.068 144.155C165.06 144.158 164.937 144.472 164.93 144.512C164.934 144.498 164.874 144.537 164.89 144.513C164.907 144.49 164.878 144.51 164.89 144.513C164.939 144.53 164.989 144.548 165.037 144.567C165.179 144.62 165.321 144.675 165.466 144.721C165.825 144.85 166.209 144.899 166.589 144.865C167.485 144.748 168.099 143.817 168.128 142.958C168.141 142.741 168.106 142.523 168.024 142.32C167.943 142.118 167.817 141.936 167.657 141.789C167.383 141.55 167.065 141.366 166.722 141.247L166.572 141.192C166.557 141.184 166.541 141.178 166.525 141.172C166.471 141.156 166.568 141.198 166.583 141.221L166.637 141.403L166.549 141.567L166.431 141.619C166.399 141.633 166.299 141.584 166.36 141.619C166.383 141.631 166.411 141.64 166.435 141.651L166.662 141.748C166.88 141.839 167.106 141.907 167.338 141.952C167.906 142.056 168.453 141.903 168.809 141.432C169.174 140.924 169.325 140.293 169.228 139.675C169.131 139.137 168.855 138.648 168.446 138.286C167.919 137.82 167.267 137.518 166.57 137.417L166.773 137.75C167.048 137.164 166.903 136.506 166.551 135.98C166.164 135.4 165.543 135.073 164.867 134.948C164.138 134.819 163.385 134.927 162.666 135.063C161.787 135.231 160.918 135.45 160.065 135.72C159.827 135.794 159.587 135.873 159.352 135.957C159.224 136.003 159.105 136.046 158.983 136.091C158.895 136.114 158.811 136.151 158.735 136.201C158.599 136.326 158.471 136.459 158.351 136.599C158.168 136.79 158.333 137.127 158.606 137.014C159.027 136.841 159.222 136.397 159.194 135.962C159.177 135.742 159.098 135.531 158.965 135.355C158.832 135.179 158.651 135.045 158.444 134.969C158.222 134.889 157.985 134.855 157.749 134.87C157.514 134.885 157.283 134.948 157.073 135.056C156.553 135.318 156.17 135.771 155.837 136.237C155.175 137.165 154.64 138.178 154.248 139.248C153.905 140.183 153.532 141.378 154.265 142.233C154.605 142.629 155.132 142.827 155.63 142.636C155.853 142.561 156.043 142.412 156.171 142.214C156.299 142.016 156.355 141.781 156.333 141.547C156.287 141.233 155.801 141.307 155.844 141.615L155.836 141.623Z" fill="#333333"/>
<path d="M163.016 143.001C161.945 142.836 160.951 142.345 160.169 141.594C160.127 141.546 160.067 141.516 160.003 141.509C159.939 141.503 159.875 141.521 159.824 141.56C159.773 141.602 159.741 141.661 159.735 141.726C159.728 141.791 159.748 141.856 159.789 141.906C160.655 142.75 161.762 143.304 162.956 143.491C163.273 143.537 163.323 143.051 163.011 143.003L163.016 143.001Z" fill="#333333"/>
<path d="M164.231 140.495C163.252 140.004 162.246 139.57 161.218 139.195C160.921 139.086 160.743 139.544 161.041 139.654C162.07 140.028 163.076 140.462 164.055 140.952C164.116 140.976 164.183 140.974 164.243 140.947C164.302 140.921 164.349 140.872 164.373 140.811C164.395 140.751 164.393 140.684 164.367 140.625C164.34 140.565 164.292 140.519 164.233 140.494L164.231 140.495Z" fill="#333333"/>
<path d="M162.116 137.691C162.805 137.472 163.547 137.49 164.225 137.742C164.523 137.851 164.699 137.392 164.403 137.282C163.602 136.988 162.726 136.974 161.916 137.241C161.857 137.268 161.811 137.317 161.787 137.377C161.764 137.438 161.765 137.505 161.791 137.565C161.819 137.624 161.868 137.669 161.928 137.693C161.989 137.716 162.056 137.716 162.116 137.691Z" fill="#333333"/>
<path d="M157.812 137.708C157.871 138.225 157.796 138.749 157.593 139.229C157.39 139.708 157.066 140.127 156.654 140.445" stroke="#333333" stroke-linecap="round" stroke-linejoin="round"/>
<path d="M201.11 111.915C201.118 111.564 201.053 111.215 200.92 110.89C200.739 110.465 200.442 110.187 200.107 110.183C199.541 110.183 199.07 110.94 199.06 111.889C199.049 112.838 199.499 113.614 200.065 113.621C200.632 113.628 201.098 112.865 201.11 111.915Z" fill="#333333"/>
<path d="M201.35 111.915C201.35 111.224 201.132 110.275 200.401 109.998C199.768 109.759 199.245 110.303 199.02 110.839C198.741 111.528 198.741 112.3 199.02 112.989C199.24 113.511 199.748 114.036 200.366 113.811C201.098 113.54 201.339 112.609 201.354 111.913C201.354 111.603 200.88 111.603 200.873 111.913C200.862 112.375 200.751 112.98 200.352 113.277C200.008 113.533 199.686 113.239 199.52 112.927C199.282 112.419 199.234 111.842 199.385 111.301C199.47 110.973 199.706 110.394 200.134 110.427C200.386 110.447 200.558 110.686 200.666 110.892C200.817 111.212 200.891 111.563 200.88 111.917C200.892 111.971 200.922 112.018 200.965 112.052C201.008 112.085 201.061 112.104 201.116 112.103C201.17 112.103 201.223 112.084 201.266 112.05C201.308 112.016 201.338 111.968 201.35 111.915Z" fill="#333333"/>
<path d="M206.313 109.866C205.927 109.094 205.572 108.348 205.166 107.636C204.777 106.931 204.333 106.258 203.837 105.624C203.357 105.003 202.789 104.456 202.152 103.997C201.499 103.524 200.717 103.262 199.911 103.247C200.108 103.149 200.318 103.08 200.534 103.042C200.644 103.02 200.756 103.006 200.868 103C200.979 103 201.093 103 201.205 103C201.66 103.033 202.106 103.15 202.518 103.346C203.326 103.744 204.032 104.324 204.58 105.04C205.123 105.731 205.55 106.506 205.844 107.334C206.143 108.145 206.301 109.001 206.313 109.866Z" fill="#333333"/>
<path d="M169.948 112.122C169.928 111.168 170.18 110.228 170.673 109.412C171.366 108.289 172.488 107.552 173.763 107.537C175.902 107.512 177.659 109.519 177.693 112.022C177.727 114.525 176.014 116.575 173.877 116.602C171.74 116.63 169.975 114.625 169.948 112.122Z" fill="white"/>
<path d="M170.111 112.122C170.098 110.269 171.137 108.265 173.049 107.795C174.653 107.399 176.187 108.337 176.945 109.733C177.346 110.487 177.547 111.331 177.53 112.185C177.513 113.039 177.278 113.874 176.847 114.611C176.045 115.941 174.508 116.758 172.962 116.319C171.389 115.873 170.387 114.338 170.159 112.779C170.129 112.56 170.113 112.338 170.111 112.116C170.111 112.074 170.094 112.033 170.063 112.002C170.033 111.972 169.992 111.955 169.949 111.955C169.907 111.955 169.866 111.972 169.835 112.002C169.805 112.033 169.788 112.074 169.788 112.116C169.818 113.859 170.7 115.678 172.341 116.43C173.088 116.776 173.931 116.853 174.728 116.647C175.528 116.424 176.237 115.953 176.753 115.303C177.909 113.872 178.161 111.806 177.478 110.108C176.846 108.54 175.376 107.281 173.614 107.381C171.549 107.499 170.107 109.363 169.84 111.303C169.803 111.573 169.786 111.845 169.788 112.116C169.787 112.159 169.804 112.201 169.833 112.231C169.863 112.262 169.904 112.28 169.947 112.28C169.989 112.281 170.031 112.265 170.061 112.235C170.092 112.205 170.11 112.165 170.111 112.122Z" fill="#333333"/>
<path d="M177.498 110.513C176.528 109.41 175.194 108.732 173.745 108.751C172.335 108.765 171.063 109.429 170.126 110.494C170.248 110.049 170.433 109.624 170.674 109.231C171.364 108.108 172.488 107.366 173.764 107.354C175.506 107.335 176.994 108.663 177.498 110.513Z" fill="#FFDF6B"/>
<path d="M177.555 110.458C176.823 109.607 175.836 109.015 174.74 108.772C173.647 108.551 172.511 108.724 171.532 109.26C170.979 109.566 170.484 109.967 170.069 110.443L170.204 110.52C170.588 109.154 171.58 107.9 172.999 107.539C173.619 107.382 174.272 107.41 174.877 107.619C175.447 107.824 175.959 108.165 176.368 108.612C176.867 109.161 177.227 109.822 177.418 110.539C177.424 110.56 177.437 110.577 177.455 110.588C177.474 110.598 177.496 110.601 177.516 110.595C177.537 110.59 177.554 110.576 177.565 110.558C177.575 110.539 177.578 110.518 177.572 110.497C177.221 109.223 176.365 108.058 175.124 107.544C174.517 107.293 173.852 107.219 173.205 107.33C172.52 107.458 171.886 107.777 171.376 108.251C170.735 108.856 170.274 109.627 170.046 110.478C170.041 110.495 170.043 110.513 170.05 110.529C170.057 110.545 170.069 110.559 170.084 110.567C170.1 110.576 170.117 110.58 170.135 110.577C170.152 110.575 170.168 110.568 170.181 110.555C170.885 109.735 171.836 109.164 172.891 108.929C173.956 108.718 175.061 108.893 176.009 109.421C176.546 109.723 177.027 110.114 177.431 110.578C177.509 110.647 177.623 110.534 177.555 110.458Z" fill="#333333"/>
<path d="M172.791 112.024C172.784 111.674 172.848 111.325 172.981 111C173.163 110.574 173.459 110.297 173.794 110.292C174.361 110.292 174.83 111.05 174.842 112C174.854 112.95 174.403 113.725 173.836 113.732C173.27 113.739 172.803 112.973 172.791 112.024Z" fill="#333333"/>
<path d="M173.032 112.024C173.026 111.713 173.08 111.403 173.192 111.112C173.282 110.9 173.43 110.653 173.656 110.563C174.062 110.402 174.358 110.904 174.469 111.214C174.662 111.754 174.658 112.345 174.458 112.882C174.34 113.183 174.052 113.622 173.665 113.455C173.172 113.239 173.045 112.493 173.034 112.024C173.034 111.715 172.545 111.714 172.553 112.024C172.566 112.672 172.763 113.472 173.356 113.835C173.908 114.171 174.495 113.828 174.781 113.321C175.122 112.66 175.189 111.891 174.966 111.181C174.8 110.639 174.373 109.986 173.718 110.058C172.833 110.156 172.551 111.294 172.553 112.024C172.559 112.084 172.587 112.138 172.631 112.178C172.676 112.218 172.733 112.24 172.793 112.24C172.852 112.24 172.91 112.218 172.954 112.178C172.998 112.138 173.026 112.084 173.032 112.024Z" fill="#333333"/>
<path d="M167.201 109.841C167.219 108.975 167.384 108.119 167.69 107.308C167.991 106.483 168.425 105.711 168.974 105.025C169.528 104.315 170.239 103.742 171.05 103.351C171.464 103.159 171.91 103.046 172.366 103.016C172.478 103.016 172.592 103.016 172.705 103.016C172.816 103.024 172.927 103.039 173.037 103.061C173.253 103.102 173.462 103.173 173.659 103.271C172.852 103.28 172.067 103.535 171.41 104.003C170.768 104.46 170.196 105.007 169.712 105.629C169.211 106.259 168.76 106.928 168.365 107.63C167.954 108.329 167.593 109.073 167.201 109.841Z" fill="#333333"/>
<path d="M196.402 110.637C197.372 109.532 198.706 108.856 200.155 108.875C201.566 108.887 202.835 109.552 203.775 110.618C203.654 110.173 203.471 109.747 203.232 109.353C202.543 108.23 201.419 107.49 200.143 107.478C198.388 107.457 196.901 108.785 196.402 110.637Z" fill="#FFDF6B"/>
<path d="M196.452 110.694C197.159 109.868 198.112 109.292 199.171 109.05C200.233 108.831 201.338 108.999 202.288 109.523C202.824 109.822 203.304 110.211 203.708 110.673C203.72 110.687 203.737 110.696 203.755 110.698C203.773 110.701 203.791 110.698 203.807 110.689C203.822 110.68 203.835 110.666 203.841 110.649C203.848 110.632 203.849 110.613 203.844 110.596C203.445 109.177 202.411 107.879 200.938 107.503C200.294 107.34 199.616 107.366 198.986 107.579C198.383 107.79 197.842 108.147 197.41 108.619C196.891 109.187 196.517 109.872 196.318 110.615C196.312 110.636 196.315 110.657 196.325 110.676C196.336 110.695 196.353 110.708 196.374 110.714C196.394 110.72 196.416 110.717 196.434 110.707C196.453 110.696 196.467 110.679 196.472 110.658C196.807 109.439 197.622 108.317 198.809 107.812C199.391 107.567 200.032 107.494 200.655 107.601C201.308 107.723 201.913 108.028 202.4 108.479C203.022 109.064 203.468 109.81 203.69 110.634L203.826 110.557C203.094 109.708 202.105 109.121 201.01 108.884C199.915 108.671 198.779 108.85 197.803 109.391C197.249 109.7 196.753 110.102 196.336 110.58C196.266 110.657 196.384 110.771 196.452 110.694Z" fill="#333333"/>
<path d="M177.498 113.464C176.528 114.568 175.194 115.244 173.745 115.225C172.335 115.212 171.063 114.548 170.126 113.483C170.248 113.928 170.433 114.353 170.674 114.747C171.364 115.869 172.488 116.61 173.764 116.623C175.506 116.642 176.994 115.315 177.498 113.464Z" fill="#FFDF6B"/>
<path d="M177.441 113.407C176.737 114.231 175.787 114.807 174.731 115.051C173.668 115.269 172.563 115.101 171.614 114.578C171.078 114.278 170.598 113.889 170.195 113.426C170.182 113.413 170.166 113.405 170.148 113.403C170.13 113.401 170.112 113.405 170.097 113.414C170.082 113.423 170.07 113.436 170.063 113.453C170.056 113.469 170.055 113.487 170.059 113.504C170.466 114.923 171.493 116.222 172.965 116.597C173.61 116.76 174.288 116.733 174.918 116.52C175.521 116.31 176.062 115.953 176.494 115.482C177.013 114.914 177.387 114.229 177.586 113.485C177.592 113.465 177.589 113.443 177.579 113.424C177.568 113.406 177.551 113.392 177.53 113.386C177.51 113.381 177.488 113.383 177.47 113.394C177.451 113.404 177.437 113.422 177.432 113.442C177.097 114.662 176.282 115.784 175.094 116.288C174.511 116.533 173.871 116.607 173.248 116.499C172.595 116.377 171.991 116.072 171.504 115.621C170.881 115.037 170.434 114.29 170.214 113.465L170.078 113.544C170.808 114.393 171.796 114.981 172.89 115.219C173.985 115.433 175.121 115.254 176.097 114.713C176.651 114.404 177.147 114.001 177.564 113.523C177.621 113.443 177.51 113.33 177.441 113.407Z" fill="#333333"/>
<path d="M196.402 113.343C197.372 114.448 198.706 115.124 200.155 115.105C201.566 115.091 202.835 114.427 203.775 113.362C203.654 113.806 203.471 114.231 203.232 114.625C202.543 115.749 201.419 116.49 200.143 116.502C198.388 116.521 196.901 115.194 196.402 113.343Z" fill="#FFDF6B"/>
<path d="M196.34 113.399C197.071 114.251 198.058 114.844 199.153 115.089C200.248 115.311 201.386 115.137 202.365 114.599C202.918 114.293 203.413 113.893 203.829 113.416L203.693 113.339C203.308 114.705 202.318 115.959 200.899 116.32C200.278 116.477 199.625 116.449 199.02 116.24C198.45 116.036 197.938 115.695 197.53 115.247C197.03 114.698 196.67 114.037 196.479 113.32C196.474 113.299 196.46 113.282 196.442 113.271C196.423 113.261 196.402 113.258 196.381 113.264C196.361 113.269 196.343 113.283 196.333 113.301C196.322 113.32 196.319 113.341 196.325 113.362C196.676 114.636 197.532 115.801 198.774 116.315C199.38 116.567 200.046 116.641 200.693 116.529C201.377 116.402 202.011 116.082 202.52 115.608C203.161 115.004 203.622 114.233 203.85 113.382C203.856 113.365 203.856 113.346 203.849 113.329C203.843 113.311 203.831 113.297 203.815 113.288C203.799 113.278 203.78 113.275 203.762 113.278C203.744 113.281 203.727 113.29 203.715 113.304C203.01 114.124 202.06 114.694 201.004 114.93C199.94 115.142 198.835 114.967 197.887 114.438C197.35 114.137 196.868 113.745 196.463 113.281C196.384 113.209 196.267 113.323 196.34 113.399Z" fill="#333333"/>
<path d="M170.111 112.122C170.098 110.269 171.137 108.265 173.049 107.795C174.653 107.399 176.187 108.337 176.945 109.733C177.346 110.487 177.547 111.331 177.53 112.185C177.513 113.039 177.278 113.874 176.847 114.611C176.045 115.941 174.508 116.758 172.962 116.319C171.389 115.873 170.387 114.338 170.159 112.779C170.129 112.56 170.113 112.338 170.111 112.116C170.111 112.074 170.094 112.033 170.063 112.002C170.033 111.972 169.992 111.955 169.949 111.955C169.907 111.955 169.866 111.972 169.835 112.002C169.805 112.033 169.788 112.074 169.788 112.116C169.818 113.859 170.7 115.678 172.341 116.43C173.088 116.776 173.931 116.853 174.728 116.647C175.528 116.424 176.237 115.953 176.753 115.303C177.909 113.872 178.161 111.806 177.478 110.108C176.846 108.54 175.376 107.281 173.614 107.381C171.549 107.499 170.107 109.363 169.84 111.303C169.803 111.573 169.786 111.845 169.788 112.116C169.787 112.159 169.804 112.201 169.833 112.231C169.863 112.262 169.904 112.28 169.947 112.28C169.989 112.281 170.031 112.265 170.061 112.235C170.092 112.205 170.11 112.165 170.111 112.122Z" fill="#333333"/>
<path d="M194.785 131.425H192.138L192.131 131.147L192.11 130.876L192.076 130.605L192.028 130.341L191.969 130.082L191.897 129.827L191.813 129.578L191.717 129.335L191.61 129.098L191.49 128.866L191.355 128.641L191.219 128.423L191.078 128.213L190.92 128.01L190.751 127.814L190.573 127.627L190.379 127.451L190.184 127.282L189.981 127.123L189.771 126.973L189.552 126.837L189.328 126.709L189.096 126.589L188.859 126.482L188.616 126.386L188.367 126.302L188.112 126.229L187.853 126.169L187.589 126.123L187.318 126.088L187.047 126.068L186.769 126.059V123.409L187.175 123.419L187.582 123.451L187.982 123.501L188.378 123.571L188.775 123.657L189.155 123.765L189.528 123.891L189.893 124.035L190.248 124.195L190.593 124.372L190.929 124.566L191.255 124.775L191.569 124.997L191.871 125.235L192.161 125.488L192.44 125.759L192.712 126.03L192.964 126.321L193.201 126.623L193.424 126.938L193.633 127.263L193.826 127.599L194.003 127.945L194.164 128.3L194.308 128.664L194.434 129.037L194.542 129.418L194.632 129.805L194.702 130.2L194.752 130.606L194.784 131.013L194.795 131.419L194.785 131.425ZM186.769 139.44V136.794L187.047 136.786L187.318 136.766L187.589 136.732L187.853 136.684L188.112 136.625L188.367 136.552L188.616 136.468L188.859 136.371L189.096 136.264L189.328 136.146L189.552 136.011L189.771 135.875L189.981 135.725L190.184 135.566L190.379 135.397L190.566 135.219L190.744 135.032L190.913 134.837L191.078 134.634L191.229 134.424L191.364 134.206L191.5 133.981L191.619 133.75L191.726 133.512L191.822 133.269L191.907 133.02L191.98 132.765L192.039 132.506L192.087 132.242L192.121 131.971L192.141 131.7L192.149 131.422H194.795L194.784 131.829L194.752 132.235L194.702 132.635L194.632 133.031L194.542 133.418L194.434 133.799L194.308 134.172L194.164 134.536L193.995 134.905L193.817 135.251L193.624 135.583L193.415 135.908L193.193 136.222L192.954 136.524L192.705 136.812L192.434 137.091L192.163 137.362L191.871 137.614L191.569 137.851L191.255 138.075L190.929 138.284L190.595 138.477L190.248 138.654L189.893 138.815L189.528 138.958L189.155 139.085L188.776 139.193L188.387 139.282L187.993 139.353L187.586 139.403L187.179 139.434L186.773 139.445L186.769 139.44ZM178.754 131.425H181.399L181.408 131.696L181.428 131.967L181.462 132.238L181.509 132.502L181.569 132.762L181.642 133.016L181.726 133.265L181.822 133.509L181.929 133.746L182.049 133.978L182.177 134.202L182.313 134.42L182.463 134.631L182.622 134.835L182.791 135.028L182.969 135.215L183.156 135.394L183.351 135.562L183.554 135.722L183.764 135.871L183.982 136.007L184.207 136.142L184.438 136.26L184.675 136.369L184.918 136.465L185.167 136.549L185.422 136.621L185.681 136.68L185.952 136.728L186.223 136.762L186.494 136.783L186.765 136.79V139.436L186.358 139.426L185.952 139.395L185.552 139.343L185.156 139.273L184.769 139.183L184.388 139.076L184.015 138.949L183.65 138.805L183.295 138.645L182.947 138.472L182.611 138.28L182.286 138.071L181.971 137.847L181.672 137.615L181.382 137.363L181.103 137.092L180.838 136.821L180.586 136.531L180.349 136.229L180.126 135.915L179.917 135.589L179.723 135.253L179.547 134.908L179.386 134.553L179.242 134.188L179.116 133.815L179.007 133.435L178.918 133.047L178.848 132.651L178.797 132.245L178.766 131.838L178.755 131.432L178.754 131.425ZM186.769 123.41V126.055H186.491L186.22 126.077L185.949 126.111L185.678 126.158L185.418 126.218L185.164 126.29L184.915 126.374L184.671 126.47L184.434 126.578L184.202 126.696L183.978 126.832L183.76 126.967L183.549 127.117L183.346 127.276L183.16 127.451L182.973 127.63L182.794 127.817L182.626 128.011L182.466 128.214L182.317 128.426L182.181 128.644L182.046 128.867L181.928 129.099L181.821 129.336L181.725 129.58L181.641 129.828L181.567 130.083L181.508 130.343L181.46 130.608L181.427 130.879L181.406 131.15L181.398 131.427H178.754L178.765 131.021L178.796 130.614L178.846 130.208L178.917 129.812L179.006 129.424L179.115 129.044L179.241 128.671L179.384 128.306L179.544 127.951L179.722 127.606L179.915 127.27L180.123 126.944L180.346 126.63L180.585 126.328L180.836 126.038L181.107 125.759L181.385 125.488L181.676 125.235L181.978 124.998L182.293 124.775L182.618 124.566L182.953 124.374L183.299 124.196L183.655 124.035L184.019 123.891L184.392 123.765L184.771 123.657L185.16 123.567L185.555 123.498L185.961 123.447L186.368 123.415L186.774 123.405L186.769 123.41Z" fill="#104B97"/>
<path d="M200.594 125.222C200.737 125.542 200.748 125.906 200.623 126.234C200.498 126.563 200.248 126.828 199.928 126.971C199.608 127.115 199.244 127.126 198.916 127.001C198.587 126.876 198.322 126.626 198.179 126.306L200.594 125.222ZM186.769 118.913V116.271L187.326 116.281L187.88 116.311L188.43 116.363L188.973 116.432L189.515 116.521L190.05 116.631L190.578 116.757L191.102 116.903L191.618 117.067L192.126 117.25L192.628 117.45L193.12 117.668L193.605 117.902L194.079 118.153L194.545 118.424L195.002 118.709L195.446 119.008L195.881 119.323L196.304 119.655L196.711 120L197.117 120.361L197.504 120.736L197.879 121.126L198.24 121.533L198.587 121.95L198.92 122.38L199.238 122.824L199.541 123.281L199.828 123.75L200.099 124.231L200.354 124.724L200.591 125.229L198.177 126.313L197.981 125.895L197.771 125.489L197.547 125.092L197.313 124.697L197.063 124.321L196.8 123.955L196.529 123.598L196.238 123.25L195.94 122.917L195.631 122.594L195.311 122.285L194.98 121.987L194.64 121.701L194.29 121.43L193.931 121.17L193.564 120.922L193.189 120.687L192.804 120.466L192.411 120.259L192.011 120.065L191.604 119.886L191.191 119.726L190.771 119.576L190.345 119.44L189.914 119.32L189.478 119.214L189.036 119.125L188.59 119.051L188.14 118.993L187.686 118.951L187.23 118.927L186.769 118.917V118.913ZM174.263 131.419H171.616L171.636 130.641L171.695 129.872L171.791 129.113L171.926 128.367L172.096 127.633L172.301 126.913L172.538 126.208L172.809 125.52L173.111 124.849L173.446 124.195L173.812 123.56L174.205 122.945L174.627 122.351L175.077 121.78L175.553 121.229L176.055 120.703L176.58 120.202L177.131 119.726L177.702 119.278L178.296 118.855L178.911 118.461L179.546 118.1L180.199 117.765L180.876 117.462L181.565 117.191L182.27 116.952L182.989 116.748L183.722 116.578L184.469 116.443L185.228 116.346L185.996 116.288L186.776 116.268V118.913L186.131 118.929L185.495 118.978L184.869 119.058L184.254 119.168L183.648 119.304L183.056 119.472L182.476 119.668L181.908 119.892L181.353 120.142L180.811 120.413L180.287 120.716L179.78 121.041L179.288 121.4L178.816 121.773L178.362 122.166L177.933 122.58L177.518 123.016L177.125 123.468L176.754 123.941L176.406 124.432L176.08 124.94L175.778 125.463L175.507 126.005L175.256 126.558L175.033 127.126L174.836 127.706L174.668 128.3L174.533 128.904L174.423 129.519L174.343 130.145L174.294 130.781L174.278 131.426L174.263 131.419ZM186.769 143.925V146.571L185.991 146.552L185.221 146.492L184.462 146.396L183.716 146.26L182.982 146.091L182.27 145.893L181.565 145.655L180.876 145.384L180.206 145.08L179.551 144.745L178.917 144.381L178.295 143.985L177.701 143.562L177.129 143.114L176.578 142.638L176.052 142.136L175.552 141.611L175.075 141.06L174.626 140.488L174.203 139.895L173.809 139.28L173.444 138.645L173.11 137.992L172.806 137.315L172.535 136.626L172.296 135.921L172.092 135.202L171.922 134.469L171.787 133.722L171.691 132.963L171.632 132.194L171.612 131.417H174.257L174.274 132.06L174.323 132.696L174.402 133.322L174.512 133.937L174.648 134.543L174.816 135.135L175.012 135.717L175.236 136.283L175.493 136.843L175.764 137.385L176.067 137.909L176.392 138.416L176.74 138.907L177.12 139.377L177.514 139.83L177.927 140.265L178.362 140.68L178.816 141.073L179.289 141.444L179.779 141.794L180.287 142.119L180.81 142.42L181.352 142.691L181.905 142.941L182.473 143.165L183.053 143.362L183.646 143.53L184.251 143.665L184.866 143.775L185.492 143.853L186.128 143.902L186.773 143.919L186.769 143.925ZM200.592 132.742V130.101L201.915 131.423L201.896 132.201L201.836 132.971L201.74 133.73L201.605 134.475L201.435 135.21L201.243 135.929L201.004 136.634L200.733 137.323L200.43 137.993L200.095 138.648L199.73 139.282L199.336 139.898L198.914 140.491L198.465 141.063L197.99 141.613L197.489 142.139L196.963 142.641L196.413 143.116L195.841 143.566L195.242 143.985L194.627 144.379L193.992 144.745L193.338 145.08L192.667 145.384L191.978 145.655L191.274 145.893L190.554 146.096L189.821 146.267L189.074 146.403L188.315 146.499L187.545 146.557L186.768 146.577V143.932L187.413 143.914L188.048 143.867L188.674 143.787L189.29 143.677L189.894 143.542L190.488 143.374L191.068 143.177L191.636 142.954L192.188 142.703L192.731 142.432L193.254 142.131L193.762 141.806L194.252 141.456L194.724 141.085L195.178 140.692L195.613 140.277L196.028 139.843L196.421 139.389L196.792 138.916L197.14 138.426L197.467 137.919L197.768 137.396L198.039 136.854L198.29 136.301L198.513 135.733L198.71 135.153L198.879 134.559L199.015 133.955L199.125 133.34L199.203 132.714L199.252 132.078L199.268 131.433L200.591 132.756L200.592 132.742ZM199.268 131.419C199.263 131.242 199.293 131.065 199.356 130.9C199.42 130.734 199.517 130.583 199.64 130.456C199.764 130.328 199.912 130.227 200.075 130.158C200.238 130.089 200.414 130.053 200.592 130.053C200.769 130.053 200.945 130.089 201.108 130.158C201.271 130.227 201.419 130.328 201.543 130.456C201.666 130.583 201.763 130.734 201.827 130.9C201.891 131.065 201.921 131.242 201.915 131.419H199.274H199.268ZM194.342 130.095H200.592V132.742H194.347L194.342 130.095ZM194.342 132.742C193.998 132.731 193.672 132.587 193.433 132.34C193.194 132.093 193.06 131.762 193.06 131.419C193.06 131.075 193.194 130.744 193.433 130.497C193.672 130.25 193.998 130.106 194.342 130.095V132.741V132.742Z" fill="#104B97"/>
<path d="M186.768 133.55C187.189 133.55 187.602 133.425 187.953 133.191C188.304 132.957 188.578 132.624 188.739 132.234C188.901 131.844 188.943 131.415 188.861 131.002C188.779 130.588 188.576 130.207 188.278 129.909C187.979 129.61 187.599 129.407 187.186 129.325C186.772 129.242 186.343 129.285 185.953 129.446C185.563 129.607 185.23 129.881 184.995 130.232C184.761 130.582 184.636 130.995 184.636 131.417C184.636 131.697 184.691 131.974 184.798 132.233C184.905 132.492 185.062 132.727 185.26 132.925C185.458 133.123 185.693 133.28 185.951 133.388C186.21 133.495 186.487 133.55 186.768 133.55Z" fill="#104B97"/>
<path opacity="0.8" fill-rule="evenodd" clip-rule="evenodd" d="M308.375 41.2132C305.162 43.6759 301.144 45.1395 296.783 45.1395C292.856 45.1395 289.206 43.9523 286.172 41.9172C283.925 43.9215 280.961 45.1395 277.713 45.1395C270.692 45.1395 265 39.4477 265 32.4264C265 25.4051 270.692 19.7132 277.713 19.7132C278.073 19.7132 278.43 19.7282 278.783 19.7575C281.388 12.3277 288.463 7 296.783 7C303.309 7 309.07 10.2782 312.507 15.2778C314.409 14.4508 316.507 13.9922 318.713 13.9922C323.761 13.9922 328.248 16.3941 331.094 20.1174C332.114 19.8536 333.184 19.7132 334.287 19.7132C341.308 19.7132 347 25.4051 347 32.4264C347 39.4477 341.308 45.1395 334.287 45.1395C331.546 45.1395 329.008 44.2722 326.932 42.797C324.546 44.2818 321.73 45.1395 318.713 45.1395C314.746 45.1395 311.125 43.6559 308.375 41.2132Z" fill="url(#paint39_linear_189_3856)"/>
<path opacity="0.6" fill-rule="evenodd" clip-rule="evenodd" d="M100.375 51.2132C97.1623 53.6759 93.1435 55.1395 88.7829 55.1395C84.8556 55.1395 81.2055 53.9523 78.172 51.9172C75.9248 53.9215 72.9613 55.1395 69.7132 55.1395C62.6919 55.1395 57 49.4477 57 42.4264C57 35.4051 62.6919 29.7132 69.7132 29.7132C70.0734 29.7132 70.4301 29.7282 70.7827 29.7575C73.388 22.3277 80.4633 17 88.7829 17C95.3091 17 101.07 20.2782 104.507 25.2778C106.409 24.4508 108.507 23.9922 110.713 23.9922C115.761 23.9922 120.248 26.3941 123.094 30.1174C124.114 29.8536 125.184 29.7132 126.287 29.7132C133.308 29.7132 139 35.4051 139 42.4264C139 49.4477 133.308 55.1395 126.287 55.1395C123.546 55.1395 121.008 54.2722 118.932 52.797C116.546 54.2818 113.73 55.1395 110.713 55.1395C106.746 55.1395 103.125 53.6559 100.375 51.2132Z" fill="url(#paint40_linear_189_3856)"/>
<path opacity="0.8" fill-rule="evenodd" clip-rule="evenodd" d="M276.791 60.6168C279.103 62.3888 281.994 63.4419 285.132 63.4419C287.958 63.4419 290.584 62.5876 292.766 61.1233C294.383 62.5654 296.516 63.4418 298.853 63.4418C303.905 63.4418 308 59.3465 308 54.2945C308 49.2426 303.905 45.1473 298.853 45.1473C298.594 45.1473 298.337 45.158 298.083 45.1792C296.209 39.8333 291.118 36 285.132 36C280.436 36 276.291 38.3587 273.818 41.956C272.45 41.3609 270.94 41.031 269.353 41.031C265.721 41.031 262.492 42.7591 260.444 45.4381C259.71 45.2483 258.941 45.1473 258.147 45.1473C253.095 45.1473 249 49.2426 249 54.2945C249 59.3465 253.095 63.4418 258.147 63.4418C260.119 63.4418 261.946 62.8178 263.44 61.7564C265.156 62.8247 267.182 63.4418 269.353 63.4418C272.207 63.4418 274.813 62.3743 276.791 60.6168Z" fill="url(#paint41_linear_189_3856)"/>
<path opacity="0.8" fill-rule="evenodd" clip-rule="evenodd" d="M45.7913 36.6168C48.1028 38.3888 50.9943 39.4419 54.1318 39.4419C56.9576 39.4419 59.5839 38.5876 61.7665 37.1233C63.3834 38.5654 65.5157 39.4418 67.8527 39.4418C72.9046 39.4418 77 35.3465 77 30.2945C77 25.2426 72.9046 21.1473 67.8527 21.1473C67.5936 21.1473 67.3369 21.158 67.0832 21.1792C65.2087 15.8333 60.1179 12 54.1318 12C49.4362 12 45.2915 14.3587 42.8179 17.956C41.4498 17.3609 39.9398 17.031 38.3527 17.031C34.7205 17.031 31.4919 18.7591 29.4444 21.4381C28.7104 21.2483 27.9407 21.1473 27.1473 21.1473C22.0954 21.1473 18 25.2426 18 30.2945C18 35.3465 22.0954 39.4418 27.1473 39.4418C29.1194 39.4418 30.9457 38.8178 32.4395 37.7564C34.1559 38.8247 36.1822 39.4418 38.3527 39.4418C41.2074 39.4418 43.8127 38.3743 45.7913 36.6168Z" fill="url(#paint42_linear_189_3856)"/>
<defs>
<filter id="filter0_i_189_3856" x="45.1437" y="106.334" width="8.56641" height="9.56641" filterUnits="userSpaceOnUse" color-interpolation-filters="sRGB">
<feFlood flood-opacity="0" result="BackgroundImageFix"/>
<feBlend mode="normal" in="SourceGraphic" in2="BackgroundImageFix" result="shape"/>
<feColorMatrix in="SourceAlpha" type="matrix" values="0 0 0 0 0 0 0 0 0 0 0 0 0 0 0 0 0 0 127 0" result="hardAlpha"/>
<feOffset dx="-1" dy="2"/>
<feGaussianBlur stdDeviation="1"/>
<feComposite in2="hardAlpha" operator="arithmetic" k2="-1" k3="1"/>
<feColorMatrix type="matrix" values="0 0 0 0 0 0 0 0 0 0 0 0 0 0 0 0 0 0 0.25 0"/>
<feBlend mode="normal" in2="shape" result="effect1_innerShadow_189_3856"/>
</filter>
<filter id="filter1_i_189_3856" x="45.1437" y="115.493" width="8.56641" height="9.56641" filterUnits="userSpaceOnUse" color-interpolation-filters="sRGB">
<feFlood flood-opacity="0" result="BackgroundImageFix"/>
<feBlend mode="normal" in="SourceGraphic" in2="BackgroundImageFix" result="shape"/>
<feColorMatrix in="SourceAlpha" type="matrix" values="0 0 0 0 0 0 0 0 0 0 0 0 0 0 0 0 0 0 127 0" result="hardAlpha"/>
<feOffset dx="-1" dy="2"/>
<feGaussianBlur stdDeviation="1"/>
<feComposite in2="hardAlpha" operator="arithmetic" k2="-1" k3="1"/>
<feColorMatrix type="matrix" values="0 0 0 0 0 0 0 0 0 0 0 0 0 0 0 0 0 0 0.25 0"/>
<feBlend mode="normal" in2="shape" result="effect1_innerShadow_189_3856"/>
</filter>
<filter id="filter2_i_189_3856" x="57.5995" y="106.334" width="8.56641" height="9.56641" filterUnits="userSpaceOnUse" color-interpolation-filters="sRGB">
<feFlood flood-opacity="0" result="BackgroundImageFix"/>
<feBlend mode="normal" in="SourceGraphic" in2="BackgroundImageFix" result="shape"/>
<feColorMatrix in="SourceAlpha" type="matrix" values="0 0 0 0 0 0 0 0 0 0 0 0 0 0 0 0 0 0 127 0" result="hardAlpha"/>
<feOffset dx="-1" dy="2"/>
<feGaussianBlur stdDeviation="1"/>
<feComposite in2="hardAlpha" operator="arithmetic" k2="-1" k3="1"/>
<feColorMatrix type="matrix" values="0 0 0 0 0 0 0 0 0 0 0 0 0 0 0 0 0 0 0.25 0"/>
<feBlend mode="normal" in2="shape" result="effect1_innerShadow_189_3856"/>
</filter>
<filter id="filter3_i_189_3856" x="57.5995" y="115.493" width="8.56641" height="9.56641" filterUnits="userSpaceOnUse" color-interpolation-filters="sRGB">
<feFlood flood-opacity="0" result="BackgroundImageFix"/>
<feBlend mode="normal" in="SourceGraphic" in2="BackgroundImageFix" result="shape"/>
<feColorMatrix in="SourceAlpha" type="matrix" values="0 0 0 0 0 0 0 0 0 0 0 0 0 0 0 0 0 0 127 0" result="hardAlpha"/>
<feOffset dx="-1" dy="2"/>
<feGaussianBlur stdDeviation="1"/>
<feComposite in2="hardAlpha" operator="arithmetic" k2="-1" k3="1"/>
<feColorMatrix type="matrix" values="0 0 0 0 0 0 0 0 0 0 0 0 0 0 0 0 0 0 0.25 0"/>
<feBlend mode="normal" in2="shape" result="effect1_innerShadow_189_3856"/>
</filter>
<filter id="filter4_i_189_3856" x="294.794" y="114.52" width="4.31909" height="6.31055" filterUnits="userSpaceOnUse" color-interpolation-filters="sRGB">
<feFlood flood-opacity="0" result="BackgroundImageFix"/>
<feBlend mode="normal" in="SourceGraphic" in2="BackgroundImageFix" result="shape"/>
<feColorMatrix in="SourceAlpha" type="matrix" values="0 0 0 0 0 0 0 0 0 0 0 0 0 0 0 0 0 0 127 0" result="hardAlpha"/>
<feOffset dx="-1" dy="2"/>
<feGaussianBlur stdDeviation="1"/>
<feComposite in2="hardAlpha" operator="arithmetic" k2="-1" k3="1"/>
<feColorMatrix type="matrix" values="0 0 0 0 0 0 0 0 0 0 0 0 0 0 0 0 0 0 0.25 0"/>
<feBlend mode="normal" in2="shape" result="effect1_innerShadow_189_3856"/>
</filter>
<filter id="filter5_i_189_3856" x="294.794" y="121.294" width="4.31909" height="6.31055" filterUnits="userSpaceOnUse" color-interpolation-filters="sRGB">
<feFlood flood-opacity="0" result="BackgroundImageFix"/>
<feBlend mode="normal" in="SourceGraphic" in2="BackgroundImageFix" result="shape"/>
<feColorMatrix in="SourceAlpha" type="matrix" values="0 0 0 0 0 0 0 0 0 0 0 0 0 0 0 0 0 0 127 0" result="hardAlpha"/>
<feOffset dx="-1" dy="2"/>
<feGaussianBlur stdDeviation="1"/>
<feComposite in2="hardAlpha" operator="arithmetic" k2="-1" k3="1"/>
<feColorMatrix type="matrix" values="0 0 0 0 0 0 0 0 0 0 0 0 0 0 0 0 0 0 0.25 0"/>
<feBlend mode="normal" in2="shape" result="effect1_innerShadow_189_3856"/>
</filter>
<filter id="filter6_i_189_3856" x="301.433" y="114.52" width="4.31909" height="6.31055" filterUnits="userSpaceOnUse" color-interpolation-filters="sRGB">
<feFlood flood-opacity="0" result="BackgroundImageFix"/>
<feBlend mode="normal" in="SourceGraphic" in2="BackgroundImageFix" result="shape"/>
<feColorMatrix in="SourceAlpha" type="matrix" values="0 0 0 0 0 0 0 0 0 0 0 0 0 0 0 0 0 0 127 0" result="hardAlpha"/>
<feOffset dx="-1" dy="2"/>
<feGaussianBlur stdDeviation="1"/>
<feComposite in2="hardAlpha" operator="arithmetic" k2="-1" k3="1"/>
<feColorMatrix type="matrix" values="0 0 0 0 0 0 0 0 0 0 0 0 0 0 0 0 0 0 0.25 0"/>
<feBlend mode="normal" in2="shape" result="effect1_innerShadow_189_3856"/>
</filter>
<filter id="filter7_i_189_3856" x="301.433" y="121.294" width="4.31909" height="6.31055" filterUnits="userSpaceOnUse" color-interpolation-filters="sRGB">
<feFlood flood-opacity="0" result="BackgroundImageFix"/>
<feBlend mode="normal" in="SourceGraphic" in2="BackgroundImageFix" result="shape"/>
<feColorMatrix in="SourceAlpha" type="matrix" values="0 0 0 0 0 0 0 0 0 0 0 0 0 0 0 0 0 0 127 0" result="hardAlpha"/>
<feOffset dx="-1" dy="2"/>
<feGaussianBlur stdDeviation="1"/>
<feComposite in2="hardAlpha" operator="arithmetic" k2="-1" k3="1"/>
<feColorMatrix type="matrix" values="0 0 0 0 0 0 0 0 0 0 0 0 0 0 0 0 0 0 0.25 0"/>
<feBlend mode="normal" in2="shape" result="effect1_innerShadow_189_3856"/>
</filter>
<filter id="filter8_i_189_3856" x="322.257" y="96.7883" width="5.5957" height="7.96826" filterUnits="userSpaceOnUse" color-interpolation-filters="sRGB">
<feFlood flood-opacity="0" result="BackgroundImageFix"/>
<feBlend mode="normal" in="SourceGraphic" in2="BackgroundImageFix" result="shape"/>
<feColorMatrix in="SourceAlpha" type="matrix" values="0 0 0 0 0 0 0 0 0 0 0 0 0 0 0 0 0 0 127 0" result="hardAlpha"/>
<feOffset dx="-1" dy="2"/>
<feGaussianBlur stdDeviation="1"/>
<feComposite in2="hardAlpha" operator="arithmetic" k2="-1" k3="1"/>
<feColorMatrix type="matrix" values="0 0 0 0 0 0 0 0 0 0 0 0 0 0 0 0 0 0 0.25 0"/>
<feBlend mode="normal" in2="shape" result="effect1_innerShadow_189_3856"/>
</filter>
<filter id="filter9_i_189_3856" x="322.257" y="106.167" width="5.5957" height="7.96826" filterUnits="userSpaceOnUse" color-interpolation-filters="sRGB">
<feFlood flood-opacity="0" result="BackgroundImageFix"/>
<feBlend mode="normal" in="SourceGraphic" in2="BackgroundImageFix" result="shape"/>
<feColorMatrix in="SourceAlpha" type="matrix" values="0 0 0 0 0 0 0 0 0 0 0 0 0 0 0 0 0 0 127 0" result="hardAlpha"/>
<feOffset dx="-1" dy="2"/>
<feGaussianBlur stdDeviation="1"/>
<feComposite in2="hardAlpha" operator="arithmetic" k2="-1" k3="1"/>
<feColorMatrix type="matrix" values="0 0 0 0 0 0 0 0 0 0 0 0 0 0 0 0 0 0 0.25 0"/>
<feBlend mode="normal" in2="shape" result="effect1_innerShadow_189_3856"/>
</filter>
<filter id="filter10_i_189_3856" x="331.449" y="96.7883" width="5.5957" height="7.96826" filterUnits="userSpaceOnUse" color-interpolation-filters="sRGB">
<feFlood flood-opacity="0" result="BackgroundImageFix"/>
<feBlend mode="normal" in="SourceGraphic" in2="BackgroundImageFix" result="shape"/>
<feColorMatrix in="SourceAlpha" type="matrix" values="0 0 0 0 0 0 0 0 0 0 0 0 0 0 0 0 0 0 127 0" result="hardAlpha"/>
<feOffset dx="-1" dy="2"/>
<feGaussianBlur stdDeviation="1"/>
<feComposite in2="hardAlpha" operator="arithmetic" k2="-1" k3="1"/>
<feColorMatrix type="matrix" values="0 0 0 0 0 0 0 0 0 0 0 0 0 0 0 0 0 0 0.25 0"/>
<feBlend mode="normal" in2="shape" result="effect1_innerShadow_189_3856"/>
</filter>
<filter id="filter11_i_189_3856" x="331.449" y="106.167" width="5.5957" height="7.96826" filterUnits="userSpaceOnUse" color-interpolation-filters="sRGB">
<feFlood flood-opacity="0" result="BackgroundImageFix"/>
<feBlend mode="normal" in="SourceGraphic" in2="BackgroundImageFix" result="shape"/>
<feColorMatrix in="SourceAlpha" type="matrix" values="0 0 0 0 0 0 0 0 0 0 0 0 0 0 0 0 0 0 127 0" result="hardAlpha"/>
<feOffset dx="-1" dy="2"/>
<feGaussianBlur stdDeviation="1"/>
<feComposite in2="hardAlpha" operator="arithmetic" k2="-1" k3="1"/>
<feColorMatrix type="matrix" values="0 0 0 0 0 0 0 0 0 0 0 0 0 0 0 0 0 0 0.25 0"/>
<feBlend mode="normal" in2="shape" result="effect1_innerShadow_189_3856"/>
</filter>
<filter id="filter12_i_189_3856" x="211.213" y="126.081" width="4.06445" height="5.97974" filterUnits="userSpaceOnUse" color-interpolation-filters="sRGB">
<feFlood flood-opacity="0" result="BackgroundImageFix"/>
<feBlend mode="normal" in="SourceGraphic" in2="BackgroundImageFix" result="shape"/>
<feColorMatrix in="SourceAlpha" type="matrix" values="0 0 0 0 0 0 0 0 0 0 0 0 0 0 0 0 0 0 127 0" result="hardAlpha"/>
<feOffset dx="-1" dy="2"/>
<feGaussianBlur stdDeviation="1"/>
<feComposite in2="hardAlpha" operator="arithmetic" k2="-1" k3="1"/>
<feColorMatrix type="matrix" values="0 0 0 0 0 0 0 0 0 0 0 0 0 0 0 0 0 0 0.25 0"/>
<feBlend mode="normal" in2="shape" result="effect1_innerShadow_189_3856"/>
</filter>
<filter id="filter13_i_189_3856" x="211.213" y="132.335" width="4.06445" height="5.97974" filterUnits="userSpaceOnUse" color-interpolation-filters="sRGB">
<feFlood flood-opacity="0" result="BackgroundImageFix"/>
<feBlend mode="normal" in="SourceGraphic" in2="BackgroundImageFix" result="shape"/>
<feColorMatrix in="SourceAlpha" type="matrix" values="0 0 0 0 0 0 0 0 0 0 0 0 0 0 0 0 0 0 127 0" result="hardAlpha"/>
<feOffset dx="-1" dy="2"/>
<feGaussianBlur stdDeviation="1"/>
<feComposite in2="hardAlpha" operator="arithmetic" k2="-1" k3="1"/>
<feColorMatrix type="matrix" values="0 0 0 0 0 0 0 0 0 0 0 0 0 0 0 0 0 0 0.25 0"/>
<feBlend mode="normal" in2="shape" result="effect1_innerShadow_189_3856"/>
</filter>
<filter id="filter14_i_189_3856" x="217.341" y="126.081" width="4.06445" height="5.97974" filterUnits="userSpaceOnUse" color-interpolation-filters="sRGB">
<feFlood flood-opacity="0" result="BackgroundImageFix"/>
<feBlend mode="normal" in="SourceGraphic" in2="BackgroundImageFix" result="shape"/>
<feColorMatrix in="SourceAlpha" type="matrix" values="0 0 0 0 0 0 0 0 0 0 0 0 0 0 0 0 0 0 127 0" result="hardAlpha"/>
<feOffset dx="-1" dy="2"/>
<feGaussianBlur stdDeviation="1"/>
<feComposite in2="hardAlpha" operator="arithmetic" k2="-1" k3="1"/>
<feColorMatrix type="matrix" values="0 0 0 0 0 0 0 0 0 0 0 0 0 0 0 0 0 0 0.25 0"/>
<feBlend mode="normal" in2="shape" result="effect1_innerShadow_189_3856"/>
</filter>
<filter id="filter15_i_189_3856" x="217.341" y="132.335" width="4.06445" height="5.97974" filterUnits="userSpaceOnUse" color-interpolation-filters="sRGB">
<feFlood flood-opacity="0" result="BackgroundImageFix"/>
<feBlend mode="normal" in="SourceGraphic" in2="BackgroundImageFix" result="shape"/>
<feColorMatrix in="SourceAlpha" type="matrix" values="0 0 0 0 0 0 0 0 0 0 0 0 0 0 0 0 0 0 127 0" result="hardAlpha"/>
<feOffset dx="-1" dy="2"/>
<feGaussianBlur stdDeviation="1"/>
<feComposite in2="hardAlpha" operator="arithmetic" k2="-1" k3="1"/>
<feColorMatrix type="matrix" values="0 0 0 0 0 0 0 0 0 0 0 0 0 0 0 0 0 0 0.25 0"/>
<feBlend mode="normal" in2="shape" result="effect1_innerShadow_189_3856"/>
</filter>
<filter id="filter16_i_189_3856" x="114.242" y="116.018" width="4.32727" height="6.05786" filterUnits="userSpaceOnUse" color-interpolation-filters="sRGB">
<feFlood flood-opacity="0" result="BackgroundImageFix"/>
<feBlend mode="normal" in="SourceGraphic" in2="BackgroundImageFix" result="shape"/>
<feColorMatrix in="SourceAlpha" type="matrix" values="0 0 0 0 0 0 0 0 0 0 0 0 0 0 0 0 0 0 127 0" result="hardAlpha"/>
<feOffset dx="-1" dy="2"/>
<feGaussianBlur stdDeviation="1"/>
<feComposite in2="hardAlpha" operator="arithmetic" k2="-1" k3="1"/>
<feColorMatrix type="matrix" values="0 0 0 0 0 0 0 0 0 0 0 0 0 0 0 0 0 0 0.25 0"/>
<feBlend mode="normal" in2="shape" result="effect1_innerShadow_189_3856"/>
</filter>
<filter id="filter17_i_189_3856" x="114.242" y="122.395" width="4.32727" height="6.05786" filterUnits="userSpaceOnUse" color-interpolation-filters="sRGB">
<feFlood flood-opacity="0" result="BackgroundImageFix"/>
<feBlend mode="normal" in="SourceGraphic" in2="BackgroundImageFix" result="shape"/>
<feColorMatrix in="SourceAlpha" type="matrix" values="0 0 0 0 0 0 0 0 0 0 0 0 0 0 0 0 0 0 127 0" result="hardAlpha"/>
<feOffset dx="-1" dy="2"/>
<feGaussianBlur stdDeviation="1"/>
<feComposite in2="hardAlpha" operator="arithmetic" k2="-1" k3="1"/>
<feColorMatrix type="matrix" values="0 0 0 0 0 0 0 0 0 0 0 0 0 0 0 0 0 0 0.25 0"/>
<feBlend mode="normal" in2="shape" result="effect1_innerShadow_189_3856"/>
</filter>
<filter id="filter18_i_189_3856" x="120.897" y="116.018" width="4.32727" height="6.05786" filterUnits="userSpaceOnUse" color-interpolation-filters="sRGB">
<feFlood flood-opacity="0" result="BackgroundImageFix"/>
<feBlend mode="normal" in="SourceGraphic" in2="BackgroundImageFix" result="shape"/>
<feColorMatrix in="SourceAlpha" type="matrix" values="0 0 0 0 0 0 0 0 0 0 0 0 0 0 0 0 0 0 127 0" result="hardAlpha"/>
<feOffset dx="-1" dy="2"/>
<feGaussianBlur stdDeviation="1"/>
<feComposite in2="hardAlpha" operator="arithmetic" k2="-1" k3="1"/>
<feColorMatrix type="matrix" values="0 0 0 0 0 0 0 0 0 0 0 0 0 0 0 0 0 0 0.25 0"/>
<feBlend mode="normal" in2="shape" result="effect1_innerShadow_189_3856"/>
</filter>
<filter id="filter19_i_189_3856" x="120.897" y="122.395" width="4.32727" height="6.05786" filterUnits="userSpaceOnUse" color-interpolation-filters="sRGB">
<feFlood flood-opacity="0" result="BackgroundImageFix"/>
<feBlend mode="normal" in="SourceGraphic" in2="BackgroundImageFix" result="shape"/>
<feColorMatrix in="SourceAlpha" type="matrix" values="0 0 0 0 0 0 0 0 0 0 0 0 0 0 0 0 0 0 127 0" result="hardAlpha"/>
<feOffset dx="-1" dy="2"/>
<feGaussianBlur stdDeviation="1"/>
<feComposite in2="hardAlpha" operator="arithmetic" k2="-1" k3="1"/>
<feColorMatrix type="matrix" values="0 0 0 0 0 0 0 0 0 0 0 0 0 0 0 0 0 0 0.25 0"/>
<feBlend mode="normal" in2="shape" result="effect1_innerShadow_189_3856"/>
</filter>
<radialGradient id="paint0_radial_189_3856" cx="0" cy="0" r="1" gradientUnits="userSpaceOnUse" gradientTransform="translate(353 47.5) rotate(151.614) scale(204.032 437.212)">
<stop stop-color="#4D89D4"/>
<stop offset="0.898598" stop-color="#216BC9"/>
</radialGradient>
<linearGradient id="paint1_linear_189_3856" x1="43.0075" y1="101.109" x2="43.0075" y2="157.512" gradientUnits="userSpaceOnUse">
<stop stop-color="#75ABF0"/>
<stop offset="1" stop-color="#4D89D4"/>
</linearGradient>
<linearGradient id="paint2_linear_189_3856" x1="43.0075" y1="92.8149" x2="43.0075" y2="103.598" gradientUnits="userSpaceOnUse">
<stop stop-color="#4D89D4"/>
<stop offset="1" stop-color="#216BC9"/>
</linearGradient>
<linearGradient id="paint3_linear_189_3856" x1="308.183" y1="107.36" x2="308.183" y2="158.325" gradientUnits="userSpaceOnUse">
<stop stop-color="#75ABF0"/>
<stop offset="1" stop-color="#4D89D4"/>
</linearGradient>
<linearGradient id="paint4_linear_189_3856" x1="308.293" y1="100.229" x2="308.293" y2="108.203" gradientUnits="userSpaceOnUse">
<stop stop-color="#4D89D4"/>
<stop offset="1" stop-color="#216BC9"/>
</linearGradient>
<linearGradient id="paint5_linear_189_3856" x1="340.411" y1="86.8748" x2="340.411" y2="157.441" gradientUnits="userSpaceOnUse">
<stop stop-color="#75ABF0"/>
<stop offset="1" stop-color="#4D89D4"/>
</linearGradient>
<linearGradient id="paint6_linear_189_3856" x1="340.563" y1="77" x2="340.563" y2="88.0412" gradientUnits="userSpaceOnUse">
<stop stop-color="#4D89D4"/>
<stop offset="1" stop-color="#216BC9"/>
</linearGradient>
<linearGradient id="paint7_linear_189_3856" x1="223.65" y1="110.958" x2="223.65" y2="158.012" gradientUnits="userSpaceOnUse">
<stop stop-color="#75ABF0"/>
<stop offset="1" stop-color="#4D89D4"/>
</linearGradient>
<linearGradient id="paint8_linear_189_3856" x1="223.752" y1="104.374" x2="223.752" y2="111.736" gradientUnits="userSpaceOnUse">
<stop stop-color="#4D89D4"/>
<stop offset="1" stop-color="#216BC9"/>
</linearGradient>
<linearGradient id="paint9_linear_189_3856" x1="127.661" y1="109.278" x2="127.661" y2="157.257" gradientUnits="userSpaceOnUse">
<stop stop-color="#75ABF0"/>
<stop offset="1" stop-color="#4D89D4"/>
</linearGradient>
<linearGradient id="paint10_linear_189_3856" x1="127.771" y1="102.564" x2="127.771" y2="110.071" gradientUnits="userSpaceOnUse">
<stop stop-color="#4D89D4"/>
<stop offset="1" stop-color="#216BC9"/>
</linearGradient>
<linearGradient id="paint11_linear_189_3856" x1="45.7179" y1="140.821" x2="45.7179" y2="158.398" gradientUnits="userSpaceOnUse">
<stop stop-color="#4D89D4"/>
<stop offset="1" stop-color="#216BC9"/>
</linearGradient>
<linearGradient id="paint12_linear_189_3856" x1="45.7179" y1="134.292" x2="45.7179" y2="151.87" gradientUnits="userSpaceOnUse">
<stop stop-color="#4D89D4"/>
<stop offset="1" stop-color="#216BC9"/>
</linearGradient>
<linearGradient id="paint13_linear_189_3856" x1="45.7178" y1="128.265" x2="45.7178" y2="142.83" gradientUnits="userSpaceOnUse">
<stop stop-color="#4D89D4"/>
<stop offset="1" stop-color="#216BC9"/>
</linearGradient>
<linearGradient id="paint14_linear_189_3856" x1="61.6706" y1="140.821" x2="61.6706" y2="158.398" gradientUnits="userSpaceOnUse">
<stop stop-color="#4D89D4"/>
<stop offset="1" stop-color="#216BC9"/>
</linearGradient>
<linearGradient id="paint15_linear_189_3856" x1="61.6706" y1="134.292" x2="61.6706" y2="151.87" gradientUnits="userSpaceOnUse">
<stop stop-color="#4D89D4"/>
<stop offset="1" stop-color="#216BC9"/>
</linearGradient>
<linearGradient id="paint16_linear_189_3856" x1="61.6706" y1="128.265" x2="61.6706" y2="142.83" gradientUnits="userSpaceOnUse">
<stop stop-color="#4D89D4"/>
<stop offset="1" stop-color="#216BC9"/>
</linearGradient>
<linearGradient id="paint17_linear_189_3856" x1="329.764" y1="139.581" x2="329.764" y2="158.339" gradientUnits="userSpaceOnUse">
<stop stop-color="#4D89D4"/>
<stop offset="1" stop-color="#216BC9"/>
</linearGradient>
<linearGradient id="paint18_linear_189_3856" x1="329.764" y1="132.613" x2="329.764" y2="151.371" gradientUnits="userSpaceOnUse">
<stop stop-color="#4D89D4"/>
<stop offset="1" stop-color="#216BC9"/>
</linearGradient>
<linearGradient id="paint19_linear_189_3856" x1="329.764" y1="126.182" x2="329.764" y2="141.724" gradientUnits="userSpaceOnUse">
<stop stop-color="#4D89D4"/>
<stop offset="1" stop-color="#216BC9"/>
</linearGradient>
<linearGradient id="paint20_linear_189_3856" x1="312.74" y1="139.581" x2="312.74" y2="158.339" gradientUnits="userSpaceOnUse">
<stop stop-color="#4D89D4"/>
<stop offset="1" stop-color="#216BC9"/>
</linearGradient>
<linearGradient id="paint21_linear_189_3856" x1="312.74" y1="132.613" x2="312.74" y2="151.371" gradientUnits="userSpaceOnUse">
<stop stop-color="#4D89D4"/>
<stop offset="1" stop-color="#216BC9"/>
</linearGradient>
<linearGradient id="paint22_linear_189_3856" x1="312.74" y1="126.182" x2="312.74" y2="141.724" gradientUnits="userSpaceOnUse">
<stop stop-color="#4D89D4"/>
<stop offset="1" stop-color="#216BC9"/>
</linearGradient>
<linearGradient id="paint23_linear_189_3856" x1="26.294" y1="132.697" x2="26.294" y2="159.285" gradientUnits="userSpaceOnUse">
<stop stop-color="#4D89D4"/>
<stop offset="1" stop-color="#216BC9"/>
</linearGradient>
<linearGradient id="paint24_linear_189_3856" x1="26.294" y1="122.821" x2="26.294" y2="149.409" gradientUnits="userSpaceOnUse">
<stop stop-color="#4D89D4"/>
<stop offset="1" stop-color="#216BC9"/>
</linearGradient>
<linearGradient id="paint25_linear_189_3856" x1="26.2939" y1="113.705" x2="26.2939" y2="135.735" gradientUnits="userSpaceOnUse">
<stop stop-color="#4D89D4"/>
<stop offset="1" stop-color="#216BC9"/>
</linearGradient>
<linearGradient id="paint26_linear_189_3856" x1="347.813" y1="130.37" x2="347.813" y2="158.744" gradientUnits="userSpaceOnUse">
<stop stop-color="#4D89D4"/>
<stop offset="1" stop-color="#216BC9"/>
</linearGradient>
<linearGradient id="paint27_linear_189_3856" x1="347.813" y1="119.831" x2="347.813" y2="148.205" gradientUnits="userSpaceOnUse">
<stop stop-color="#4D89D4"/>
<stop offset="1" stop-color="#216BC9"/>
</linearGradient>
<linearGradient id="paint28_linear_189_3856" x1="347.813" y1="110.103" x2="347.813" y2="133.613" gradientUnits="userSpaceOnUse">
<stop stop-color="#4D89D4"/>
<stop offset="1" stop-color="#216BC9"/>
</linearGradient>
<linearGradient id="paint29_linear_189_3856" x1="94.8361" y1="133.815" x2="105.659" y2="97.5533" gradientUnits="userSpaceOnUse">
<stop offset="0.208333" stop-color="#4D89D4"/>
<stop offset="0.9375" stop-color="#7AA6DF"/>
</linearGradient>
<linearGradient id="paint30_linear_189_3856" x1="92.534" y1="135.636" x2="92.534" y2="153.924" gradientUnits="userSpaceOnUse">
<stop stop-color="#3C83DC"/>
<stop offset="1" stop-color="#4D89D4"/>
</linearGradient>
<linearGradient id="paint31_linear_189_3856" x1="95.05" y1="137.185" x2="87.3841" y2="105.327" gradientUnits="userSpaceOnUse">
<stop offset="0.03" stop-color="#104B97"/>
<stop offset="0.12" stop-color="#124E9C"/>
<stop offset="0.22" stop-color="#1758AA"/>
<stop offset="0.33" stop-color="#1F69C0"/>
<stop offset="0.43" stop-color="#297EDE"/>
</linearGradient>
<linearGradient id="paint32_linear_189_3856" x1="265.831" y1="134.388" x2="276.406" y2="98.9545" gradientUnits="userSpaceOnUse">
<stop offset="0.208333" stop-color="#4D89D4"/>
<stop offset="0.9375" stop-color="#7AA6DF"/>
</linearGradient>
<linearGradient id="paint33_linear_189_3856" x1="263.581" y1="136.168" x2="263.581" y2="154.039" gradientUnits="userSpaceOnUse">
<stop stop-color="#3C83DC"/>
<stop offset="1" stop-color="#4D89D4"/>
</linearGradient>
<linearGradient id="paint34_linear_189_3856" x1="266.04" y1="137.682" x2="258.549" y2="106.551" gradientUnits="userSpaceOnUse">
<stop offset="0.03" stop-color="#104B97"/>
<stop offset="0.12" stop-color="#124E9C"/>
<stop offset="0.22" stop-color="#1758AA"/>
<stop offset="0.33" stop-color="#1F69C0"/>
<stop offset="0.43" stop-color="#297EDE"/>
</linearGradient>
<linearGradient id="paint35_linear_189_3856" x1="155.189" y1="135.171" x2="165.099" y2="101.967" gradientUnits="userSpaceOnUse">
<stop offset="0.208333" stop-color="#4D89D4"/>
<stop offset="0.9375" stop-color="#7AA6DF"/>
</linearGradient>
<linearGradient id="paint36_linear_189_3856" x1="153.081" y1="136.839" x2="153.081" y2="153.584" gradientUnits="userSpaceOnUse">
<stop stop-color="#3C83DC"/>
<stop offset="1" stop-color="#4D89D4"/>
</linearGradient>
<linearGradient id="paint37_linear_189_3856" x1="155.384" y1="138.257" x2="148.365" y2="109.085" gradientUnits="userSpaceOnUse">
<stop offset="0.03" stop-color="#104B97"/>
<stop offset="0.12" stop-color="#124E9C"/>
<stop offset="0.22" stop-color="#1758AA"/>
<stop offset="0.33" stop-color="#1F69C0"/>
<stop offset="0.43" stop-color="#297EDE"/>
</linearGradient>
<linearGradient id="paint38_linear_189_3856" x1="186.728" y1="109.925" x2="186.728" y2="152.954" gradientUnits="userSpaceOnUse">
<stop stop-color="#FFD539"/>
<stop offset="1" stop-color="#FFCA08"/>
</linearGradient>
<linearGradient id="paint39_linear_189_3856" x1="306" y1="7" x2="306" y2="45.1395" gradientUnits="userSpaceOnUse">
<stop stop-color="#9CC4F8"/>
<stop offset="1" stop-color="#4286DC"/>
</linearGradient>
<linearGradient id="paint40_linear_189_3856" x1="98" y1="17" x2="98" y2="55.1395" gradientUnits="userSpaceOnUse">
<stop stop-color="#9CC4F8"/>
<stop offset="1" stop-color="#4286DC"/>
</linearGradient>
<linearGradient id="paint41_linear_189_3856" x1="278.5" y1="36" x2="278.5" y2="63.4419" gradientUnits="userSpaceOnUse">
<stop stop-color="#9CC4F8"/>
<stop offset="1" stop-color="#4286DC"/>
</linearGradient>
<linearGradient id="paint42_linear_189_3856" x1="47.5" y1="12" x2="47.5" y2="39.4419" gradientUnits="userSpaceOnUse">
<stop stop-color="#9CC4F8"/>
<stop offset="1" stop-color="#4286DC"/>
</linearGradient>
</defs>
</svg>
