<svg width="375" height="172" viewBox="0 0 375 172" fill="none" xmlns="http://www.w3.org/2000/svg">
<g clip-path="url(#clip0_382_2282)">
<rect width="375" height="172" fill="url(#paint0_radial_382_2282)"/>
<path opacity="0.8" fill-rule="evenodd" clip-rule="evenodd" d="M274.375 61.2132C271.162 63.6759 267.144 65.1395 262.783 65.1395C258.856 65.1395 255.206 63.9523 252.172 61.9172C249.925 63.9215 246.961 65.1395 243.713 65.1395C236.692 65.1395 231 59.4477 231 52.4264C231 45.4051 236.692 39.7132 243.713 39.7132C244.073 39.7132 244.43 39.7282 244.783 39.7575C247.388 32.3277 254.463 27 262.783 27C269.309 27 275.07 30.2782 278.507 35.2778C280.409 34.4508 282.507 33.9922 284.713 33.9922C289.761 33.9922 294.248 36.3941 297.094 40.1174C298.114 39.8536 299.184 39.7132 300.287 39.7132C307.308 39.7132 313 45.4051 313 52.4264C313 59.4477 307.308 65.1395 300.287 65.1395C297.546 65.1395 295.008 64.2722 292.932 62.797C290.546 64.2818 287.73 65.1395 284.713 65.1395C280.746 65.1395 277.125 63.6559 274.375 61.2132Z" fill="url(#paint1_linear_382_2282)"/>
<path opacity="0.8" fill-rule="evenodd" clip-rule="evenodd" d="M323.791 70.6168C326.103 72.3888 328.994 73.4419 332.132 73.4419C334.958 73.4419 337.584 72.5876 339.766 71.1233C341.383 72.5654 343.516 73.4418 345.853 73.4418C350.905 73.4418 355 69.3465 355 64.2945C355 59.2426 350.905 55.1473 345.853 55.1473C345.594 55.1473 345.337 55.158 345.083 55.1792C343.209 49.8333 338.118 46 332.132 46C327.436 46 323.291 48.3587 320.818 51.956C319.45 51.3609 317.94 51.031 316.353 51.031C312.721 51.031 309.492 52.7591 307.444 55.4381C306.71 55.2483 305.941 55.1473 305.147 55.1473C300.095 55.1473 296 59.2426 296 64.2945C296 69.3465 300.095 73.4418 305.147 73.4418C307.119 73.4418 308.946 72.8178 310.44 71.7564C312.156 72.8247 314.182 73.4418 316.353 73.4418C319.207 73.4418 321.813 72.3743 323.791 70.6168Z" fill="url(#paint2_linear_382_2282)"/>
<path opacity="0.6" fill-rule="evenodd" clip-rule="evenodd" d="M176.375 83.2132C173.162 85.6759 169.144 87.1395 164.783 87.1395C160.856 87.1395 157.206 85.9523 154.172 83.9172C151.925 85.9215 148.961 87.1395 145.713 87.1395C138.692 87.1395 133 81.4477 133 74.4264C133 67.4051 138.692 61.7132 145.713 61.7132C146.073 61.7132 146.43 61.7282 146.783 61.7575C149.388 54.3277 156.463 49 164.783 49C171.309 49 177.07 52.2782 180.507 57.2778C182.409 56.4508 184.507 55.9922 186.713 55.9922C191.761 55.9922 196.248 58.3941 199.094 62.1174C200.114 61.8536 201.184 61.7132 202.287 61.7132C209.308 61.7132 215 67.4051 215 74.4264C215 81.4477 209.308 87.1395 202.287 87.1395C199.546 87.1395 197.008 86.2722 194.932 84.797C192.546 86.2818 189.73 87.1395 186.713 87.1395C182.746 87.1395 179.125 85.6559 176.375 83.2132Z" fill="url(#paint3_linear_382_2282)"/>
<path opacity="0.8" fill-rule="evenodd" clip-rule="evenodd" d="M127.791 62.6168C130.103 64.3888 132.994 65.4419 136.132 65.4419C138.958 65.4419 141.584 64.5876 143.766 63.1233C145.383 64.5654 147.516 65.4418 149.853 65.4418C154.905 65.4418 159 61.3465 159 56.2945C159 51.2426 154.905 47.1473 149.853 47.1473C149.594 47.1473 149.337 47.158 149.083 47.1792C147.209 41.8333 142.118 38 136.132 38C131.436 38 127.291 40.3587 124.818 43.956C123.45 43.3609 121.94 43.031 120.353 43.031C116.721 43.031 113.492 44.7591 111.444 47.4381C110.71 47.2483 109.941 47.1473 109.147 47.1473C104.095 47.1473 100 51.2426 100 56.2945C100 61.3465 104.095 65.4418 109.147 65.4418C111.119 65.4418 112.946 64.8178 114.44 63.7564C116.156 64.8247 118.182 65.4418 120.353 65.4418C123.207 65.4418 125.813 64.3743 127.791 62.6168Z" fill="url(#paint4_linear_382_2282)"/>
<g filter="url(#filter0_d_382_2282)">
<path fill-rule="evenodd" clip-rule="evenodd" d="M54.6265 129.238L72.193 112.55C72.9793 111.803 74.2178 111.819 74.9847 112.586L91.6729 129.274C92.9328 130.534 92.0405 132.688 90.2587 132.688L88.3037 132.688V154.734H58.3436V132.688H56.004C54.1974 132.688 53.3167 130.482 54.6265 129.238Z" fill="url(#paint5_linear_382_2282)"/>
<g filter="url(#filter1_i_382_2282)">
<rect x="72.856" y="132.914" width="5.51273" height="5.51273" fill="#C4DDFF"/>
</g>
<g filter="url(#filter2_i_382_2282)">
<rect x="72.856" y="139.471" width="5.51273" height="5.51273" fill="#C4DDFF"/>
</g>
<g filter="url(#filter3_i_382_2282)">
<rect x="79.4131" y="132.914" width="5.51273" height="5.51273" fill="#C4DDFF"/>
</g>
<g filter="url(#filter4_i_382_2282)">
<rect x="79.4131" y="139.471" width="5.51273" height="5.51273" fill="#C4DDFF"/>
</g>
</g>
<g filter="url(#filter5_d_382_2282)">
<path fill-rule="evenodd" clip-rule="evenodd" d="M100.627 129.238L118.193 112.55C118.979 111.803 120.218 111.819 120.985 112.586L137.673 129.274C138.933 130.534 138.04 132.688 136.259 132.688L134.304 132.688V154.734H104.344V132.688H102.004C100.197 132.688 99.3167 130.482 100.627 129.238Z" fill="url(#paint6_linear_382_2282)"/>
<g filter="url(#filter6_i_382_2282)">
<rect x="108.856" y="132.914" width="5.51273" height="5.51273" fill="#C4DDFF"/>
</g>
<g filter="url(#filter7_i_382_2282)">
<rect x="108.856" y="139.471" width="5.51273" height="5.51273" fill="#C4DDFF"/>
</g>
<g filter="url(#filter8_i_382_2282)">
<rect x="115.413" y="132.914" width="5.51273" height="5.51273" fill="#C4DDFF"/>
</g>
<g filter="url(#filter9_i_382_2282)">
<rect x="115.413" y="139.471" width="5.51273" height="5.51273" fill="#C4DDFF"/>
</g>
</g>
<g filter="url(#filter10_d_382_2282)">
<path fill-rule="evenodd" clip-rule="evenodd" d="M242.627 132.238L260.193 115.55C260.979 114.803 262.218 114.819 262.985 115.586L279.673 132.274C280.933 133.534 280.04 135.688 278.259 135.688L276.304 135.688V157.734H246.344V135.688H244.004C242.197 135.688 241.317 133.482 242.627 132.238Z" fill="url(#paint7_linear_382_2282)"/>
<g filter="url(#filter11_i_382_2282)">
<rect x="250.856" y="135.914" width="5.51273" height="5.51273" fill="#C4DDFF"/>
</g>
<g filter="url(#filter12_i_382_2282)">
<rect x="250.856" y="142.471" width="5.51273" height="5.51273" fill="#C4DDFF"/>
</g>
<g filter="url(#filter13_i_382_2282)">
<rect x="257.413" y="135.914" width="5.51273" height="5.51273" fill="#C4DDFF"/>
</g>
<g filter="url(#filter14_i_382_2282)">
<rect x="257.413" y="142.471" width="5.51273" height="5.51273" fill="#C4DDFF"/>
</g>
</g>
<g filter="url(#filter15_d_382_2282)">
<path fill-rule="evenodd" clip-rule="evenodd" d="M326.627 128.238L344.193 111.55C344.979 110.803 346.218 110.819 346.985 111.586L363.673 128.274C364.933 129.534 364.04 131.688 362.259 131.688L360.304 131.688V153.734H330.344V131.688H328.004C326.197 131.688 325.317 129.482 326.627 128.238Z" fill="url(#paint8_linear_382_2282)"/>
<g filter="url(#filter16_i_382_2282)">
<rect x="334.856" y="131.914" width="5.51273" height="5.51273" fill="#C4DDFF"/>
</g>
<g filter="url(#filter17_i_382_2282)">
<rect x="334.856" y="138.471" width="5.51273" height="5.51273" fill="#C4DDFF"/>
</g>
<g filter="url(#filter18_i_382_2282)">
<rect x="341.413" y="131.914" width="5.51273" height="5.51273" fill="#C4DDFF"/>
</g>
<g filter="url(#filter19_i_382_2282)">
<rect x="341.413" y="138.471" width="5.51273" height="5.51273" fill="#C4DDFF"/>
</g>
</g>
<g filter="url(#filter20_d_382_2282)">
<path fill-rule="evenodd" clip-rule="evenodd" d="M263.627 122.389L288.72 98.55C289.506 97.803 290.745 97.8189 291.512 98.5858L315.351 122.425C316.611 123.685 315.718 125.839 313.937 125.839H309.723V155.224H269.79V125.839H265.004C263.197 125.839 262.317 123.633 263.627 122.389Z" fill="url(#paint9_linear_382_2282)"/>
<g filter="url(#filter21_i_382_2282)">
<rect x="275.805" y="126.14" width="7.34787" height="7.34787" fill="#C4DDFF"/>
</g>
<g filter="url(#filter22_i_382_2282)">
<rect x="275.805" y="134.88" width="7.34787" height="7.34787" fill="#C4DDFF"/>
</g>
<g filter="url(#filter23_i_382_2282)">
<rect x="284.545" y="126.14" width="7.34787" height="7.34787" fill="#C4DDFF"/>
</g>
<g filter="url(#filter24_i_382_2282)">
<rect x="284.545" y="134.88" width="7.34787" height="7.34787" fill="#C4DDFF"/>
</g>
</g>
<g filter="url(#filter25_d_382_2282)">
<path fill-rule="evenodd" clip-rule="evenodd" d="M15.6265 121.24L41.6164 96.55C42.4028 95.803 43.6412 95.8189 44.4082 96.5858L69.0986 121.276C70.3585 122.536 69.4662 124.69 67.6844 124.69L63.2024 124.69V154.949H22.0813V124.69L17.004 124.69C15.1974 124.69 14.3167 122.485 15.6265 121.24Z" fill="url(#paint10_linear_382_2282)"/>
<g filter="url(#filter26_i_382_2282)">
<rect x="42" y="125" width="7.5664" height="7.5664" fill="#C4DDFF"/>
</g>
<g filter="url(#filter27_i_382_2282)">
<rect x="42" y="134" width="7.5664" height="7.5664" fill="#C4DDFF"/>
</g>
<g filter="url(#filter28_i_382_2282)">
<rect x="51" y="125" width="7.5664" height="7.5664" fill="#C4DDFF"/>
</g>
<g filter="url(#filter29_i_382_2282)">
<rect x="51" y="134" width="7.5664" height="7.5664" fill="#C4DDFF"/>
</g>
</g>
<rect x="28.395" y="150.742" width="3.79827" height="5.31758" fill="#144079"/>
<path d="M28.5619 133.991C29.3317 132.658 31.2562 132.658 32.026 133.991L40.0748 147.932C40.8446 149.266 39.8824 150.932 38.3428 150.932H22.2452C20.7056 150.932 19.7433 149.266 20.5131 147.932L28.5619 133.991Z" fill="url(#paint11_linear_382_2282)"/>
<path d="M28.5619 124.116C29.3317 122.783 31.2562 122.783 32.026 124.116L40.0748 138.057C40.8446 139.39 39.8824 141.057 38.3428 141.057H22.2452C20.7056 141.057 19.7433 139.39 20.5131 138.057L28.5619 124.116Z" fill="url(#paint12_linear_382_2282)"/>
<path d="M28.5618 115C29.3316 113.667 31.2561 113.667 32.0259 115L38.101 125.522C38.8708 126.856 37.9086 128.522 36.369 128.522H24.2186C22.679 128.522 21.7168 126.856 22.4866 125.522L28.5618 115Z" fill="url(#paint13_linear_382_2282)"/>
<rect x="215.395" y="148.742" width="3.79827" height="5.31758" fill="#144079"/>
<path d="M215.562 131.991C216.332 130.658 218.256 130.658 219.026 131.991L227.075 145.932C227.845 147.266 226.882 148.932 225.343 148.932H209.245C207.706 148.932 206.743 147.266 207.513 145.932L215.562 131.991Z" fill="url(#paint14_linear_382_2282)"/>
<path d="M215.562 122.116C216.332 120.783 218.256 120.783 219.026 122.116L227.075 136.057C227.845 137.39 226.882 139.057 225.343 139.057H209.245C207.706 139.057 206.743 137.39 207.513 136.057L215.562 122.116Z" fill="url(#paint15_linear_382_2282)"/>
<path d="M215.562 113C216.332 111.667 218.256 111.667 219.026 113L225.101 123.522C225.871 124.856 224.909 126.522 223.369 126.522H211.219C209.679 126.522 208.717 124.856 209.487 123.522L215.562 113Z" fill="url(#paint16_linear_382_2282)"/>
<rect x="133.645" y="150.392" width="2.88161" height="4.03425" fill="#144079"/>
<path d="M133.354 138.408C134.123 137.075 136.048 137.075 136.818 138.408L142.088 147.537C142.858 148.87 141.896 150.537 140.356 150.537H129.815C128.276 150.537 127.313 148.87 128.083 147.537L133.354 138.408Z" fill="url(#paint17_linear_382_2282)"/>
<path d="M133.354 130.916C134.123 129.583 136.048 129.583 136.818 130.916L142.088 140.044C142.858 141.378 141.896 143.044 140.356 143.044H129.815C128.276 143.044 127.313 141.378 128.083 140.044L133.354 130.916Z" fill="url(#paint18_linear_382_2282)"/>
<path d="M133.354 124C134.123 122.667 136.048 122.667 136.818 124L140.591 130.535C141.361 131.868 140.398 133.535 138.859 133.535H131.313C129.773 133.535 128.811 131.868 129.581 130.535L133.354 124Z" fill="url(#paint19_linear_382_2282)"/>
<rect x="7.64502" y="151.392" width="2.88161" height="4.03425" fill="#144079"/>
<path d="M7.35359 139.408C8.12339 138.075 10.0479 138.075 10.8177 139.408L16.088 148.537C16.8578 149.87 15.8956 151.537 14.356 151.537H3.81532C2.27572 151.537 1.31347 149.87 2.08327 148.537L7.35359 139.408Z" fill="url(#paint20_linear_382_2282)"/>
<path d="M7.35359 131.916C8.12339 130.583 10.0479 130.583 10.8177 131.916L16.088 141.044C16.8578 142.378 15.8956 144.044 14.356 144.044H3.81532C2.27572 144.044 1.31347 142.378 2.08327 141.044L7.35359 131.916Z" fill="url(#paint21_linear_382_2282)"/>
<path d="M7.35362 125C8.12342 123.667 10.0479 123.667 10.8177 125L14.5907 131.535C15.3605 132.868 14.3983 134.535 12.8587 134.535H5.31269C3.77309 134.535 2.81084 132.868 3.58064 131.535L7.35362 125Z" fill="url(#paint22_linear_382_2282)"/>
<rect x="236.645" y="150.392" width="2.88161" height="4.03425" fill="#144079"/>
<path d="M236.354 138.408C237.123 137.075 239.048 137.075 239.818 138.408L245.088 147.537C245.858 148.87 244.896 150.537 243.356 150.537H232.815C231.276 150.537 230.313 148.87 231.083 147.537L236.354 138.408Z" fill="url(#paint23_linear_382_2282)"/>
<path d="M236.354 130.916C237.123 129.583 239.048 129.583 239.818 130.916L245.088 140.044C245.858 141.378 244.896 143.044 243.356 143.044H232.815C231.276 143.044 230.313 141.378 231.083 140.044L236.354 130.916Z" fill="url(#paint24_linear_382_2282)"/>
<path d="M236.354 124C237.123 122.667 239.048 122.667 239.818 124L243.591 130.535C244.361 131.868 243.398 133.535 241.859 133.535H234.313C232.773 133.535 231.811 131.868 232.581 130.535L236.354 124Z" fill="url(#paint25_linear_382_2282)"/>
<rect x="357.645" y="149.392" width="2.88161" height="4.03425" fill="#144079"/>
<path d="M357.354 137.408C358.123 136.075 360.048 136.075 360.818 137.408L366.088 146.537C366.858 147.87 365.896 149.537 364.356 149.537H353.815C352.276 149.537 351.313 147.87 352.083 146.537L357.354 137.408Z" fill="url(#paint26_linear_382_2282)"/>
<path d="M357.354 129.916C358.123 128.583 360.048 128.583 360.818 129.916L366.088 139.044C366.858 140.378 365.896 142.044 364.356 142.044H353.815C352.276 142.044 351.313 140.378 352.083 139.044L357.354 129.916Z" fill="url(#paint27_linear_382_2282)"/>
<path d="M357.354 123C358.123 121.667 360.048 121.667 360.818 123L364.591 129.535C365.361 130.868 364.398 132.535 362.859 132.535H355.313C353.773 132.535 352.811 130.868 353.581 129.535L357.354 123Z" fill="url(#paint28_linear_382_2282)"/>
<rect x="301.645" y="150.392" width="2.88161" height="4.03425" fill="#144079"/>
<path d="M301.354 138.408C302.123 137.075 304.048 137.075 304.818 138.408L310.088 147.537C310.858 148.87 309.896 150.537 308.356 150.537H297.815C296.276 150.537 295.313 148.87 296.083 147.537L301.354 138.408Z" fill="url(#paint29_linear_382_2282)"/>
<path d="M301.354 130.916C302.123 129.583 304.048 129.583 304.818 130.916L310.088 140.044C310.858 141.378 309.896 143.044 308.356 143.044H297.815C296.276 143.044 295.313 141.378 296.083 140.044L301.354 130.916Z" fill="url(#paint30_linear_382_2282)"/>
<path d="M301.354 124C302.123 122.667 304.048 122.667 304.818 124L308.591 130.535C309.361 131.868 308.398 133.535 306.859 133.535H299.313C297.773 133.535 296.811 131.868 297.581 130.535L301.354 124Z" fill="url(#paint31_linear_382_2282)"/>
<rect y="154" width="375" height="18" fill="#1A56A1"/>
</g>
<defs>
<filter id="filter0_d_382_2282" x="50" y="112" width="46.2627" height="50.7342" filterUnits="userSpaceOnUse" color-interpolation-filters="sRGB">
<feFlood flood-opacity="0" result="BackgroundImageFix"/>
<feColorMatrix in="SourceAlpha" type="matrix" values="0 0 0 0 0 0 0 0 0 0 0 0 0 0 0 0 0 0 127 0" result="hardAlpha"/>
<feOffset dy="4"/>
<feGaussianBlur stdDeviation="2"/>
<feComposite in2="hardAlpha" operator="out"/>
<feColorMatrix type="matrix" values="0 0 0 0 0 0 0 0 0 0 0 0 0 0 0 0 0 0 0.1 0"/>
<feBlend mode="normal" in2="BackgroundImageFix" result="effect1_dropShadow_382_2282"/>
<feBlend mode="normal" in="SourceGraphic" in2="effect1_dropShadow_382_2282" result="shape"/>
</filter>
<filter id="filter1_i_382_2282" x="71.856" y="132.914" width="6.5127" height="7.51273" filterUnits="userSpaceOnUse" color-interpolation-filters="sRGB">
<feFlood flood-opacity="0" result="BackgroundImageFix"/>
<feBlend mode="normal" in="SourceGraphic" in2="BackgroundImageFix" result="shape"/>
<feColorMatrix in="SourceAlpha" type="matrix" values="0 0 0 0 0 0 0 0 0 0 0 0 0 0 0 0 0 0 127 0" result="hardAlpha"/>
<feOffset dx="-1" dy="2"/>
<feGaussianBlur stdDeviation="1"/>
<feComposite in2="hardAlpha" operator="arithmetic" k2="-1" k3="1"/>
<feColorMatrix type="matrix" values="0 0 0 0 0 0 0 0 0 0 0 0 0 0 0 0 0 0 0.25 0"/>
<feBlend mode="normal" in2="shape" result="effect1_innerShadow_382_2282"/>
</filter>
<filter id="filter2_i_382_2282" x="71.856" y="139.471" width="6.5127" height="7.51273" filterUnits="userSpaceOnUse" color-interpolation-filters="sRGB">
<feFlood flood-opacity="0" result="BackgroundImageFix"/>
<feBlend mode="normal" in="SourceGraphic" in2="BackgroundImageFix" result="shape"/>
<feColorMatrix in="SourceAlpha" type="matrix" values="0 0 0 0 0 0 0 0 0 0 0 0 0 0 0 0 0 0 127 0" result="hardAlpha"/>
<feOffset dx="-1" dy="2"/>
<feGaussianBlur stdDeviation="1"/>
<feComposite in2="hardAlpha" operator="arithmetic" k2="-1" k3="1"/>
<feColorMatrix type="matrix" values="0 0 0 0 0 0 0 0 0 0 0 0 0 0 0 0 0 0 0.25 0"/>
<feBlend mode="normal" in2="shape" result="effect1_innerShadow_382_2282"/>
</filter>
<filter id="filter3_i_382_2282" x="78.4131" y="132.914" width="6.5127" height="7.51273" filterUnits="userSpaceOnUse" color-interpolation-filters="sRGB">
<feFlood flood-opacity="0" result="BackgroundImageFix"/>
<feBlend mode="normal" in="SourceGraphic" in2="BackgroundImageFix" result="shape"/>
<feColorMatrix in="SourceAlpha" type="matrix" values="0 0 0 0 0 0 0 0 0 0 0 0 0 0 0 0 0 0 127 0" result="hardAlpha"/>
<feOffset dx="-1" dy="2"/>
<feGaussianBlur stdDeviation="1"/>
<feComposite in2="hardAlpha" operator="arithmetic" k2="-1" k3="1"/>
<feColorMatrix type="matrix" values="0 0 0 0 0 0 0 0 0 0 0 0 0 0 0 0 0 0 0.25 0"/>
<feBlend mode="normal" in2="shape" result="effect1_innerShadow_382_2282"/>
</filter>
<filter id="filter4_i_382_2282" x="78.4131" y="139.471" width="6.5127" height="7.51273" filterUnits="userSpaceOnUse" color-interpolation-filters="sRGB">
<feFlood flood-opacity="0" result="BackgroundImageFix"/>
<feBlend mode="normal" in="SourceGraphic" in2="BackgroundImageFix" result="shape"/>
<feColorMatrix in="SourceAlpha" type="matrix" values="0 0 0 0 0 0 0 0 0 0 0 0 0 0 0 0 0 0 127 0" result="hardAlpha"/>
<feOffset dx="-1" dy="2"/>
<feGaussianBlur stdDeviation="1"/>
<feComposite in2="hardAlpha" operator="arithmetic" k2="-1" k3="1"/>
<feColorMatrix type="matrix" values="0 0 0 0 0 0 0 0 0 0 0 0 0 0 0 0 0 0 0.25 0"/>
<feBlend mode="normal" in2="shape" result="effect1_innerShadow_382_2282"/>
</filter>
<filter id="filter5_d_382_2282" x="96" y="112" width="46.2627" height="50.7342" filterUnits="userSpaceOnUse" color-interpolation-filters="sRGB">
<feFlood flood-opacity="0" result="BackgroundImageFix"/>
<feColorMatrix in="SourceAlpha" type="matrix" values="0 0 0 0 0 0 0 0 0 0 0 0 0 0 0 0 0 0 127 0" result="hardAlpha"/>
<feOffset dy="4"/>
<feGaussianBlur stdDeviation="2"/>
<feComposite in2="hardAlpha" operator="out"/>
<feColorMatrix type="matrix" values="0 0 0 0 0 0 0 0 0 0 0 0 0 0 0 0 0 0 0.1 0"/>
<feBlend mode="normal" in2="BackgroundImageFix" result="effect1_dropShadow_382_2282"/>
<feBlend mode="normal" in="SourceGraphic" in2="effect1_dropShadow_382_2282" result="shape"/>
</filter>
<filter id="filter6_i_382_2282" x="107.856" y="132.914" width="6.5127" height="7.51273" filterUnits="userSpaceOnUse" color-interpolation-filters="sRGB">
<feFlood flood-opacity="0" result="BackgroundImageFix"/>
<feBlend mode="normal" in="SourceGraphic" in2="BackgroundImageFix" result="shape"/>
<feColorMatrix in="SourceAlpha" type="matrix" values="0 0 0 0 0 0 0 0 0 0 0 0 0 0 0 0 0 0 127 0" result="hardAlpha"/>
<feOffset dx="-1" dy="2"/>
<feGaussianBlur stdDeviation="1"/>
<feComposite in2="hardAlpha" operator="arithmetic" k2="-1" k3="1"/>
<feColorMatrix type="matrix" values="0 0 0 0 0 0 0 0 0 0 0 0 0 0 0 0 0 0 0.25 0"/>
<feBlend mode="normal" in2="shape" result="effect1_innerShadow_382_2282"/>
</filter>
<filter id="filter7_i_382_2282" x="107.856" y="139.471" width="6.5127" height="7.51273" filterUnits="userSpaceOnUse" color-interpolation-filters="sRGB">
<feFlood flood-opacity="0" result="BackgroundImageFix"/>
<feBlend mode="normal" in="SourceGraphic" in2="BackgroundImageFix" result="shape"/>
<feColorMatrix in="SourceAlpha" type="matrix" values="0 0 0 0 0 0 0 0 0 0 0 0 0 0 0 0 0 0 127 0" result="hardAlpha"/>
<feOffset dx="-1" dy="2"/>
<feGaussianBlur stdDeviation="1"/>
<feComposite in2="hardAlpha" operator="arithmetic" k2="-1" k3="1"/>
<feColorMatrix type="matrix" values="0 0 0 0 0 0 0 0 0 0 0 0 0 0 0 0 0 0 0.25 0"/>
<feBlend mode="normal" in2="shape" result="effect1_innerShadow_382_2282"/>
</filter>
<filter id="filter8_i_382_2282" x="114.413" y="132.914" width="6.5127" height="7.51273" filterUnits="userSpaceOnUse" color-interpolation-filters="sRGB">
<feFlood flood-opacity="0" result="BackgroundImageFix"/>
<feBlend mode="normal" in="SourceGraphic" in2="BackgroundImageFix" result="shape"/>
<feColorMatrix in="SourceAlpha" type="matrix" values="0 0 0 0 0 0 0 0 0 0 0 0 0 0 0 0 0 0 127 0" result="hardAlpha"/>
<feOffset dx="-1" dy="2"/>
<feGaussianBlur stdDeviation="1"/>
<feComposite in2="hardAlpha" operator="arithmetic" k2="-1" k3="1"/>
<feColorMatrix type="matrix" values="0 0 0 0 0 0 0 0 0 0 0 0 0 0 0 0 0 0 0.25 0"/>
<feBlend mode="normal" in2="shape" result="effect1_innerShadow_382_2282"/>
</filter>
<filter id="filter9_i_382_2282" x="114.413" y="139.471" width="6.5127" height="7.51273" filterUnits="userSpaceOnUse" color-interpolation-filters="sRGB">
<feFlood flood-opacity="0" result="BackgroundImageFix"/>
<feBlend mode="normal" in="SourceGraphic" in2="BackgroundImageFix" result="shape"/>
<feColorMatrix in="SourceAlpha" type="matrix" values="0 0 0 0 0 0 0 0 0 0 0 0 0 0 0 0 0 0 127 0" result="hardAlpha"/>
<feOffset dx="-1" dy="2"/>
<feGaussianBlur stdDeviation="1"/>
<feComposite in2="hardAlpha" operator="arithmetic" k2="-1" k3="1"/>
<feColorMatrix type="matrix" values="0 0 0 0 0 0 0 0 0 0 0 0 0 0 0 0 0 0 0.25 0"/>
<feBlend mode="normal" in2="shape" result="effect1_innerShadow_382_2282"/>
</filter>
<filter id="filter10_d_382_2282" x="238" y="115" width="46.2627" height="50.7342" filterUnits="userSpaceOnUse" color-interpolation-filters="sRGB">
<feFlood flood-opacity="0" result="BackgroundImageFix"/>
<feColorMatrix in="SourceAlpha" type="matrix" values="0 0 0 0 0 0 0 0 0 0 0 0 0 0 0 0 0 0 127 0" result="hardAlpha"/>
<feOffset dy="4"/>
<feGaussianBlur stdDeviation="2"/>
<feComposite in2="hardAlpha" operator="out"/>
<feColorMatrix type="matrix" values="0 0 0 0 0 0 0 0 0 0 0 0 0 0 0 0 0 0 0.1 0"/>
<feBlend mode="normal" in2="BackgroundImageFix" result="effect1_dropShadow_382_2282"/>
<feBlend mode="normal" in="SourceGraphic" in2="effect1_dropShadow_382_2282" result="shape"/>
</filter>
<filter id="filter11_i_382_2282" x="249.856" y="135.914" width="6.5127" height="7.51273" filterUnits="userSpaceOnUse" color-interpolation-filters="sRGB">
<feFlood flood-opacity="0" result="BackgroundImageFix"/>
<feBlend mode="normal" in="SourceGraphic" in2="BackgroundImageFix" result="shape"/>
<feColorMatrix in="SourceAlpha" type="matrix" values="0 0 0 0 0 0 0 0 0 0 0 0 0 0 0 0 0 0 127 0" result="hardAlpha"/>
<feOffset dx="-1" dy="2"/>
<feGaussianBlur stdDeviation="1"/>
<feComposite in2="hardAlpha" operator="arithmetic" k2="-1" k3="1"/>
<feColorMatrix type="matrix" values="0 0 0 0 0 0 0 0 0 0 0 0 0 0 0 0 0 0 0.25 0"/>
<feBlend mode="normal" in2="shape" result="effect1_innerShadow_382_2282"/>
</filter>
<filter id="filter12_i_382_2282" x="249.856" y="142.471" width="6.5127" height="7.51273" filterUnits="userSpaceOnUse" color-interpolation-filters="sRGB">
<feFlood flood-opacity="0" result="BackgroundImageFix"/>
<feBlend mode="normal" in="SourceGraphic" in2="BackgroundImageFix" result="shape"/>
<feColorMatrix in="SourceAlpha" type="matrix" values="0 0 0 0 0 0 0 0 0 0 0 0 0 0 0 0 0 0 127 0" result="hardAlpha"/>
<feOffset dx="-1" dy="2"/>
<feGaussianBlur stdDeviation="1"/>
<feComposite in2="hardAlpha" operator="arithmetic" k2="-1" k3="1"/>
<feColorMatrix type="matrix" values="0 0 0 0 0 0 0 0 0 0 0 0 0 0 0 0 0 0 0.25 0"/>
<feBlend mode="normal" in2="shape" result="effect1_innerShadow_382_2282"/>
</filter>
<filter id="filter13_i_382_2282" x="256.413" y="135.914" width="6.5127" height="7.51273" filterUnits="userSpaceOnUse" color-interpolation-filters="sRGB">
<feFlood flood-opacity="0" result="BackgroundImageFix"/>
<feBlend mode="normal" in="SourceGraphic" in2="BackgroundImageFix" result="shape"/>
<feColorMatrix in="SourceAlpha" type="matrix" values="0 0 0 0 0 0 0 0 0 0 0 0 0 0 0 0 0 0 127 0" result="hardAlpha"/>
<feOffset dx="-1" dy="2"/>
<feGaussianBlur stdDeviation="1"/>
<feComposite in2="hardAlpha" operator="arithmetic" k2="-1" k3="1"/>
<feColorMatrix type="matrix" values="0 0 0 0 0 0 0 0 0 0 0 0 0 0 0 0 0 0 0.25 0"/>
<feBlend mode="normal" in2="shape" result="effect1_innerShadow_382_2282"/>
</filter>
<filter id="filter14_i_382_2282" x="256.413" y="142.471" width="6.5127" height="7.51273" filterUnits="userSpaceOnUse" color-interpolation-filters="sRGB">
<feFlood flood-opacity="0" result="BackgroundImageFix"/>
<feBlend mode="normal" in="SourceGraphic" in2="BackgroundImageFix" result="shape"/>
<feColorMatrix in="SourceAlpha" type="matrix" values="0 0 0 0 0 0 0 0 0 0 0 0 0 0 0 0 0 0 127 0" result="hardAlpha"/>
<feOffset dx="-1" dy="2"/>
<feGaussianBlur stdDeviation="1"/>
<feComposite in2="hardAlpha" operator="arithmetic" k2="-1" k3="1"/>
<feColorMatrix type="matrix" values="0 0 0 0 0 0 0 0 0 0 0 0 0 0 0 0 0 0 0.25 0"/>
<feBlend mode="normal" in2="shape" result="effect1_innerShadow_382_2282"/>
</filter>
<filter id="filter15_d_382_2282" x="322" y="111" width="46.2627" height="50.7342" filterUnits="userSpaceOnUse" color-interpolation-filters="sRGB">
<feFlood flood-opacity="0" result="BackgroundImageFix"/>
<feColorMatrix in="SourceAlpha" type="matrix" values="0 0 0 0 0 0 0 0 0 0 0 0 0 0 0 0 0 0 127 0" result="hardAlpha"/>
<feOffset dy="4"/>
<feGaussianBlur stdDeviation="2"/>
<feComposite in2="hardAlpha" operator="out"/>
<feColorMatrix type="matrix" values="0 0 0 0 0 0 0 0 0 0 0 0 0 0 0 0 0 0 0.1 0"/>
<feBlend mode="normal" in2="BackgroundImageFix" result="effect1_dropShadow_382_2282"/>
<feBlend mode="normal" in="SourceGraphic" in2="effect1_dropShadow_382_2282" result="shape"/>
</filter>
<filter id="filter16_i_382_2282" x="333.856" y="131.914" width="6.5127" height="7.51273" filterUnits="userSpaceOnUse" color-interpolation-filters="sRGB">
<feFlood flood-opacity="0" result="BackgroundImageFix"/>
<feBlend mode="normal" in="SourceGraphic" in2="BackgroundImageFix" result="shape"/>
<feColorMatrix in="SourceAlpha" type="matrix" values="0 0 0 0 0 0 0 0 0 0 0 0 0 0 0 0 0 0 127 0" result="hardAlpha"/>
<feOffset dx="-1" dy="2"/>
<feGaussianBlur stdDeviation="1"/>
<feComposite in2="hardAlpha" operator="arithmetic" k2="-1" k3="1"/>
<feColorMatrix type="matrix" values="0 0 0 0 0 0 0 0 0 0 0 0 0 0 0 0 0 0 0.25 0"/>
<feBlend mode="normal" in2="shape" result="effect1_innerShadow_382_2282"/>
</filter>
<filter id="filter17_i_382_2282" x="333.856" y="138.471" width="6.5127" height="7.51273" filterUnits="userSpaceOnUse" color-interpolation-filters="sRGB">
<feFlood flood-opacity="0" result="BackgroundImageFix"/>
<feBlend mode="normal" in="SourceGraphic" in2="BackgroundImageFix" result="shape"/>
<feColorMatrix in="SourceAlpha" type="matrix" values="0 0 0 0 0 0 0 0 0 0 0 0 0 0 0 0 0 0 127 0" result="hardAlpha"/>
<feOffset dx="-1" dy="2"/>
<feGaussianBlur stdDeviation="1"/>
<feComposite in2="hardAlpha" operator="arithmetic" k2="-1" k3="1"/>
<feColorMatrix type="matrix" values="0 0 0 0 0 0 0 0 0 0 0 0 0 0 0 0 0 0 0.25 0"/>
<feBlend mode="normal" in2="shape" result="effect1_innerShadow_382_2282"/>
</filter>
<filter id="filter18_i_382_2282" x="340.413" y="131.914" width="6.5127" height="7.51273" filterUnits="userSpaceOnUse" color-interpolation-filters="sRGB">
<feFlood flood-opacity="0" result="BackgroundImageFix"/>
<feBlend mode="normal" in="SourceGraphic" in2="BackgroundImageFix" result="shape"/>
<feColorMatrix in="SourceAlpha" type="matrix" values="0 0 0 0 0 0 0 0 0 0 0 0 0 0 0 0 0 0 127 0" result="hardAlpha"/>
<feOffset dx="-1" dy="2"/>
<feGaussianBlur stdDeviation="1"/>
<feComposite in2="hardAlpha" operator="arithmetic" k2="-1" k3="1"/>
<feColorMatrix type="matrix" values="0 0 0 0 0 0 0 0 0 0 0 0 0 0 0 0 0 0 0.25 0"/>
<feBlend mode="normal" in2="shape" result="effect1_innerShadow_382_2282"/>
</filter>
<filter id="filter19_i_382_2282" x="340.413" y="138.471" width="6.5127" height="7.51273" filterUnits="userSpaceOnUse" color-interpolation-filters="sRGB">
<feFlood flood-opacity="0" result="BackgroundImageFix"/>
<feBlend mode="normal" in="SourceGraphic" in2="BackgroundImageFix" result="shape"/>
<feColorMatrix in="SourceAlpha" type="matrix" values="0 0 0 0 0 0 0 0 0 0 0 0 0 0 0 0 0 0 127 0" result="hardAlpha"/>
<feOffset dx="-1" dy="2"/>
<feGaussianBlur stdDeviation="1"/>
<feComposite in2="hardAlpha" operator="arithmetic" k2="-1" k3="1"/>
<feColorMatrix type="matrix" values="0 0 0 0 0 0 0 0 0 0 0 0 0 0 0 0 0 0 0.25 0"/>
<feBlend mode="normal" in2="shape" result="effect1_innerShadow_382_2282"/>
</filter>
<filter id="filter20_d_382_2282" x="259" y="98" width="60.9404" height="65.2239" filterUnits="userSpaceOnUse" color-interpolation-filters="sRGB">
<feFlood flood-opacity="0" result="BackgroundImageFix"/>
<feColorMatrix in="SourceAlpha" type="matrix" values="0 0 0 0 0 0 0 0 0 0 0 0 0 0 0 0 0 0 127 0" result="hardAlpha"/>
<feOffset dy="4"/>
<feGaussianBlur stdDeviation="2"/>
<feComposite in2="hardAlpha" operator="out"/>
<feColorMatrix type="matrix" values="0 0 0 0 0 0 0 0 0 0 0 0 0 0 0 0 0 0 0.1 0"/>
<feBlend mode="normal" in2="BackgroundImageFix" result="effect1_dropShadow_382_2282"/>
<feBlend mode="normal" in="SourceGraphic" in2="effect1_dropShadow_382_2282" result="shape"/>
</filter>
<filter id="filter21_i_382_2282" x="274.805" y="126.14" width="8.34766" height="9.34787" filterUnits="userSpaceOnUse" color-interpolation-filters="sRGB">
<feFlood flood-opacity="0" result="BackgroundImageFix"/>
<feBlend mode="normal" in="SourceGraphic" in2="BackgroundImageFix" result="shape"/>
<feColorMatrix in="SourceAlpha" type="matrix" values="0 0 0 0 0 0 0 0 0 0 0 0 0 0 0 0 0 0 127 0" result="hardAlpha"/>
<feOffset dx="-1" dy="2"/>
<feGaussianBlur stdDeviation="1"/>
<feComposite in2="hardAlpha" operator="arithmetic" k2="-1" k3="1"/>
<feColorMatrix type="matrix" values="0 0 0 0 0 0 0 0 0 0 0 0 0 0 0 0 0 0 0.25 0"/>
<feBlend mode="normal" in2="shape" result="effect1_innerShadow_382_2282"/>
</filter>
<filter id="filter22_i_382_2282" x="274.805" y="134.88" width="8.34766" height="9.34787" filterUnits="userSpaceOnUse" color-interpolation-filters="sRGB">
<feFlood flood-opacity="0" result="BackgroundImageFix"/>
<feBlend mode="normal" in="SourceGraphic" in2="BackgroundImageFix" result="shape"/>
<feColorMatrix in="SourceAlpha" type="matrix" values="0 0 0 0 0 0 0 0 0 0 0 0 0 0 0 0 0 0 127 0" result="hardAlpha"/>
<feOffset dx="-1" dy="2"/>
<feGaussianBlur stdDeviation="1"/>
<feComposite in2="hardAlpha" operator="arithmetic" k2="-1" k3="1"/>
<feColorMatrix type="matrix" values="0 0 0 0 0 0 0 0 0 0 0 0 0 0 0 0 0 0 0.25 0"/>
<feBlend mode="normal" in2="shape" result="effect1_innerShadow_382_2282"/>
</filter>
<filter id="filter23_i_382_2282" x="283.545" y="126.14" width="8.34766" height="9.34787" filterUnits="userSpaceOnUse" color-interpolation-filters="sRGB">
<feFlood flood-opacity="0" result="BackgroundImageFix"/>
<feBlend mode="normal" in="SourceGraphic" in2="BackgroundImageFix" result="shape"/>
<feColorMatrix in="SourceAlpha" type="matrix" values="0 0 0 0 0 0 0 0 0 0 0 0 0 0 0 0 0 0 127 0" result="hardAlpha"/>
<feOffset dx="-1" dy="2"/>
<feGaussianBlur stdDeviation="1"/>
<feComposite in2="hardAlpha" operator="arithmetic" k2="-1" k3="1"/>
<feColorMatrix type="matrix" values="0 0 0 0 0 0 0 0 0 0 0 0 0 0 0 0 0 0 0.25 0"/>
<feBlend mode="normal" in2="shape" result="effect1_innerShadow_382_2282"/>
</filter>
<filter id="filter24_i_382_2282" x="283.545" y="134.88" width="8.34766" height="9.34787" filterUnits="userSpaceOnUse" color-interpolation-filters="sRGB">
<feFlood flood-opacity="0" result="BackgroundImageFix"/>
<feBlend mode="normal" in="SourceGraphic" in2="BackgroundImageFix" result="shape"/>
<feColorMatrix in="SourceAlpha" type="matrix" values="0 0 0 0 0 0 0 0 0 0 0 0 0 0 0 0 0 0 127 0" result="hardAlpha"/>
<feOffset dx="-1" dy="2"/>
<feGaussianBlur stdDeviation="1"/>
<feComposite in2="hardAlpha" operator="arithmetic" k2="-1" k3="1"/>
<feColorMatrix type="matrix" values="0 0 0 0 0 0 0 0 0 0 0 0 0 0 0 0 0 0 0.25 0"/>
<feBlend mode="normal" in2="shape" result="effect1_innerShadow_382_2282"/>
</filter>
<filter id="filter25_d_382_2282" x="11" y="96" width="62.6885" height="66.9494" filterUnits="userSpaceOnUse" color-interpolation-filters="sRGB">
<feFlood flood-opacity="0" result="BackgroundImageFix"/>
<feColorMatrix in="SourceAlpha" type="matrix" values="0 0 0 0 0 0 0 0 0 0 0 0 0 0 0 0 0 0 127 0" result="hardAlpha"/>
<feOffset dy="4"/>
<feGaussianBlur stdDeviation="2"/>
<feComposite in2="hardAlpha" operator="out"/>
<feColorMatrix type="matrix" values="0 0 0 0 0 0 0 0 0 0 0 0 0 0 0 0 0 0 0.1 0"/>
<feBlend mode="normal" in2="BackgroundImageFix" result="effect1_dropShadow_382_2282"/>
<feBlend mode="normal" in="SourceGraphic" in2="effect1_dropShadow_382_2282" result="shape"/>
</filter>
<filter id="filter26_i_382_2282" x="41" y="125" width="8.56641" height="9.56639" filterUnits="userSpaceOnUse" color-interpolation-filters="sRGB">
<feFlood flood-opacity="0" result="BackgroundImageFix"/>
<feBlend mode="normal" in="SourceGraphic" in2="BackgroundImageFix" result="shape"/>
<feColorMatrix in="SourceAlpha" type="matrix" values="0 0 0 0 0 0 0 0 0 0 0 0 0 0 0 0 0 0 127 0" result="hardAlpha"/>
<feOffset dx="-1" dy="2"/>
<feGaussianBlur stdDeviation="1"/>
<feComposite in2="hardAlpha" operator="arithmetic" k2="-1" k3="1"/>
<feColorMatrix type="matrix" values="0 0 0 0 0 0 0 0 0 0 0 0 0 0 0 0 0 0 0.25 0"/>
<feBlend mode="normal" in2="shape" result="effect1_innerShadow_382_2282"/>
</filter>
<filter id="filter27_i_382_2282" x="41" y="134" width="8.56641" height="9.56639" filterUnits="userSpaceOnUse" color-interpolation-filters="sRGB">
<feFlood flood-opacity="0" result="BackgroundImageFix"/>
<feBlend mode="normal" in="SourceGraphic" in2="BackgroundImageFix" result="shape"/>
<feColorMatrix in="SourceAlpha" type="matrix" values="0 0 0 0 0 0 0 0 0 0 0 0 0 0 0 0 0 0 127 0" result="hardAlpha"/>
<feOffset dx="-1" dy="2"/>
<feGaussianBlur stdDeviation="1"/>
<feComposite in2="hardAlpha" operator="arithmetic" k2="-1" k3="1"/>
<feColorMatrix type="matrix" values="0 0 0 0 0 0 0 0 0 0 0 0 0 0 0 0 0 0 0.25 0"/>
<feBlend mode="normal" in2="shape" result="effect1_innerShadow_382_2282"/>
</filter>
<filter id="filter28_i_382_2282" x="50" y="125" width="8.56641" height="9.56639" filterUnits="userSpaceOnUse" color-interpolation-filters="sRGB">
<feFlood flood-opacity="0" result="BackgroundImageFix"/>
<feBlend mode="normal" in="SourceGraphic" in2="BackgroundImageFix" result="shape"/>
<feColorMatrix in="SourceAlpha" type="matrix" values="0 0 0 0 0 0 0 0 0 0 0 0 0 0 0 0 0 0 127 0" result="hardAlpha"/>
<feOffset dx="-1" dy="2"/>
<feGaussianBlur stdDeviation="1"/>
<feComposite in2="hardAlpha" operator="arithmetic" k2="-1" k3="1"/>
<feColorMatrix type="matrix" values="0 0 0 0 0 0 0 0 0 0 0 0 0 0 0 0 0 0 0.25 0"/>
<feBlend mode="normal" in2="shape" result="effect1_innerShadow_382_2282"/>
</filter>
<filter id="filter29_i_382_2282" x="50" y="134" width="8.56641" height="9.56639" filterUnits="userSpaceOnUse" color-interpolation-filters="sRGB">
<feFlood flood-opacity="0" result="BackgroundImageFix"/>
<feBlend mode="normal" in="SourceGraphic" in2="BackgroundImageFix" result="shape"/>
<feColorMatrix in="SourceAlpha" type="matrix" values="0 0 0 0 0 0 0 0 0 0 0 0 0 0 0 0 0 0 127 0" result="hardAlpha"/>
<feOffset dx="-1" dy="2"/>
<feGaussianBlur stdDeviation="1"/>
<feComposite in2="hardAlpha" operator="arithmetic" k2="-1" k3="1"/>
<feColorMatrix type="matrix" values="0 0 0 0 0 0 0 0 0 0 0 0 0 0 0 0 0 0 0.25 0"/>
<feBlend mode="normal" in2="shape" result="effect1_innerShadow_382_2282"/>
</filter>
<radialGradient id="paint0_radial_382_2282" cx="0" cy="0" r="1" gradientUnits="userSpaceOnUse" gradientTransform="translate(353 46.6857) rotate(152.026) scale(203.247 431.378)">
<stop stop-color="#4D89D4"/>
<stop offset="0.898598" stop-color="#216BC9"/>
</radialGradient>
<linearGradient id="paint1_linear_382_2282" x1="272" y1="27" x2="272" y2="65.1395" gradientUnits="userSpaceOnUse">
<stop stop-color="#9CC4F8"/>
<stop offset="1" stop-color="#4286DC"/>
</linearGradient>
<linearGradient id="paint2_linear_382_2282" x1="325.5" y1="46" x2="325.5" y2="73.4419" gradientUnits="userSpaceOnUse">
<stop stop-color="#9CC4F8"/>
<stop offset="1" stop-color="#4286DC"/>
</linearGradient>
<linearGradient id="paint3_linear_382_2282" x1="174" y1="49" x2="174" y2="87.1395" gradientUnits="userSpaceOnUse">
<stop stop-color="#9CC4F8"/>
<stop offset="1" stop-color="#4286DC"/>
</linearGradient>
<linearGradient id="paint4_linear_382_2282" x1="129.5" y1="38" x2="129.5" y2="65.4419" gradientUnits="userSpaceOnUse">
<stop stop-color="#9CC4F8"/>
<stop offset="1" stop-color="#4286DC"/>
</linearGradient>
<linearGradient id="paint5_linear_382_2282" x1="73.1313" y1="112" x2="73.1313" y2="154.734" gradientUnits="userSpaceOnUse">
<stop stop-color="#75ABF0"/>
<stop offset="1" stop-color="#4D89D4"/>
</linearGradient>
<linearGradient id="paint6_linear_382_2282" x1="119.131" y1="112" x2="119.131" y2="154.734" gradientUnits="userSpaceOnUse">
<stop stop-color="#75ABF0"/>
<stop offset="1" stop-color="#4D89D4"/>
</linearGradient>
<linearGradient id="paint7_linear_382_2282" x1="261.131" y1="115" x2="261.131" y2="157.734" gradientUnits="userSpaceOnUse">
<stop stop-color="#75ABF0"/>
<stop offset="1" stop-color="#4D89D4"/>
</linearGradient>
<linearGradient id="paint8_linear_382_2282" x1="345.131" y1="111" x2="345.131" y2="153.734" gradientUnits="userSpaceOnUse">
<stop stop-color="#75ABF0"/>
<stop offset="1" stop-color="#4D89D4"/>
</linearGradient>
<linearGradient id="paint9_linear_382_2282" x1="289.47" y1="98" x2="289.47" y2="155.224" gradientUnits="userSpaceOnUse">
<stop stop-color="#75ABF0"/>
<stop offset="1" stop-color="#4D89D4"/>
</linearGradient>
<linearGradient id="paint10_linear_382_2282" x1="42.3442" y1="96" x2="42.3442" y2="154.949" gradientUnits="userSpaceOnUse">
<stop stop-color="#75ABF0"/>
<stop offset="1" stop-color="#4D89D4"/>
</linearGradient>
<linearGradient id="paint11_linear_382_2282" x1="30.294" y1="130.991" x2="30.294" y2="157.579" gradientUnits="userSpaceOnUse">
<stop stop-color="#4D89D4"/>
<stop offset="1" stop-color="#216BC9"/>
</linearGradient>
<linearGradient id="paint12_linear_382_2282" x1="30.294" y1="121.116" x2="30.294" y2="147.704" gradientUnits="userSpaceOnUse">
<stop stop-color="#4D89D4"/>
<stop offset="1" stop-color="#216BC9"/>
</linearGradient>
<linearGradient id="paint13_linear_382_2282" x1="30.2938" y1="112" x2="30.2938" y2="134.03" gradientUnits="userSpaceOnUse">
<stop stop-color="#4D89D4"/>
<stop offset="1" stop-color="#216BC9"/>
</linearGradient>
<linearGradient id="paint14_linear_382_2282" x1="217.294" y1="128.991" x2="217.294" y2="155.579" gradientUnits="userSpaceOnUse">
<stop stop-color="#4D89D4"/>
<stop offset="1" stop-color="#216BC9"/>
</linearGradient>
<linearGradient id="paint15_linear_382_2282" x1="217.294" y1="119.116" x2="217.294" y2="145.704" gradientUnits="userSpaceOnUse">
<stop stop-color="#4D89D4"/>
<stop offset="1" stop-color="#216BC9"/>
</linearGradient>
<linearGradient id="paint16_linear_382_2282" x1="217.294" y1="110" x2="217.294" y2="132.03" gradientUnits="userSpaceOnUse">
<stop stop-color="#4D89D4"/>
<stop offset="1" stop-color="#216BC9"/>
</linearGradient>
<linearGradient id="paint17_linear_382_2282" x1="135.086" y1="135.408" x2="135.086" y2="155.579" gradientUnits="userSpaceOnUse">
<stop stop-color="#4D89D4"/>
<stop offset="1" stop-color="#216BC9"/>
</linearGradient>
<linearGradient id="paint18_linear_382_2282" x1="135.086" y1="127.916" x2="135.086" y2="148.087" gradientUnits="userSpaceOnUse">
<stop stop-color="#4D89D4"/>
<stop offset="1" stop-color="#216BC9"/>
</linearGradient>
<linearGradient id="paint19_linear_382_2282" x1="135.086" y1="121" x2="135.086" y2="137.713" gradientUnits="userSpaceOnUse">
<stop stop-color="#4D89D4"/>
<stop offset="1" stop-color="#216BC9"/>
</linearGradient>
<linearGradient id="paint20_linear_382_2282" x1="9.08564" y1="136.408" x2="9.08564" y2="156.579" gradientUnits="userSpaceOnUse">
<stop stop-color="#4D89D4"/>
<stop offset="1" stop-color="#216BC9"/>
</linearGradient>
<linearGradient id="paint21_linear_382_2282" x1="9.08564" y1="128.916" x2="9.08564" y2="149.087" gradientUnits="userSpaceOnUse">
<stop stop-color="#4D89D4"/>
<stop offset="1" stop-color="#216BC9"/>
</linearGradient>
<linearGradient id="paint22_linear_382_2282" x1="9.08567" y1="122" x2="9.08567" y2="138.713" gradientUnits="userSpaceOnUse">
<stop stop-color="#4D89D4"/>
<stop offset="1" stop-color="#216BC9"/>
</linearGradient>
<linearGradient id="paint23_linear_382_2282" x1="238.086" y1="135.408" x2="238.086" y2="155.579" gradientUnits="userSpaceOnUse">
<stop stop-color="#4D89D4"/>
<stop offset="1" stop-color="#216BC9"/>
</linearGradient>
<linearGradient id="paint24_linear_382_2282" x1="238.086" y1="127.916" x2="238.086" y2="148.087" gradientUnits="userSpaceOnUse">
<stop stop-color="#4D89D4"/>
<stop offset="1" stop-color="#216BC9"/>
</linearGradient>
<linearGradient id="paint25_linear_382_2282" x1="238.086" y1="121" x2="238.086" y2="137.713" gradientUnits="userSpaceOnUse">
<stop stop-color="#4D89D4"/>
<stop offset="1" stop-color="#216BC9"/>
</linearGradient>
<linearGradient id="paint26_linear_382_2282" x1="359.086" y1="134.408" x2="359.086" y2="154.579" gradientUnits="userSpaceOnUse">
<stop stop-color="#4D89D4"/>
<stop offset="1" stop-color="#216BC9"/>
</linearGradient>
<linearGradient id="paint27_linear_382_2282" x1="359.086" y1="126.916" x2="359.086" y2="147.087" gradientUnits="userSpaceOnUse">
<stop stop-color="#4D89D4"/>
<stop offset="1" stop-color="#216BC9"/>
</linearGradient>
<linearGradient id="paint28_linear_382_2282" x1="359.086" y1="120" x2="359.086" y2="136.713" gradientUnits="userSpaceOnUse">
<stop stop-color="#4D89D4"/>
<stop offset="1" stop-color="#216BC9"/>
</linearGradient>
<linearGradient id="paint29_linear_382_2282" x1="303.086" y1="135.408" x2="303.086" y2="155.579" gradientUnits="userSpaceOnUse">
<stop stop-color="#4D89D4"/>
<stop offset="1" stop-color="#216BC9"/>
</linearGradient>
<linearGradient id="paint30_linear_382_2282" x1="303.086" y1="127.916" x2="303.086" y2="148.087" gradientUnits="userSpaceOnUse">
<stop stop-color="#4D89D4"/>
<stop offset="1" stop-color="#216BC9"/>
</linearGradient>
<linearGradient id="paint31_linear_382_2282" x1="303.086" y1="121" x2="303.086" y2="137.713" gradientUnits="userSpaceOnUse">
<stop stop-color="#4D89D4"/>
<stop offset="1" stop-color="#216BC9"/>
</linearGradient>
<clipPath id="clip0_382_2282">
<rect width="375" height="172" fill="white"/>
</clipPath>
</defs>
</svg>
