<svg width="52" height="29" viewBox="0 0 52 29" fill="none" xmlns="http://www.w3.org/2000/svg">
<path fill-rule="evenodd" clip-rule="evenodd" d="M25.4538 6.80553C25.8469 6.39816 26.4996 6.39816 26.8928 6.80553L34.0641 14.2355C34.6769 14.8704 34.2269 15.9299 33.3446 15.9299H32.1733V20.6286C32.1733 21.7331 31.2778 22.6286 30.1733 22.6286H22.1733C21.0687 22.6286 20.1733 21.7331 20.1733 20.6286V15.9299H19.002C18.1196 15.9299 17.6697 14.8704 18.2825 14.2355L25.4538 6.80553Z" fill="url(#paint0_linear_13_785)"/>
<rect x="24.1733" y="16.4153" width="4" height="4.70695" rx="1" fill="url(#paint1_linear_13_785)"/>
<rect x="20.1733" y="24.6286" width="12" height="2" rx="1" fill="#216BC9"/>
<defs>
<linearGradient id="paint0_linear_13_785" x1="26.1733" y1="6.5" x2="26.1733" y2="22.6286" gradientUnits="userSpaceOnUse">
<stop stop-color="#4D89D4"/>
<stop offset="1" stop-color="#216BC9"/>
</linearGradient>
<linearGradient id="paint1_linear_13_785" x1="26.1733" y1="16.4153" x2="26.1733" y2="21.1223" gradientUnits="userSpaceOnUse">
<stop stop-color="#FFCA08"/>
<stop offset="1" stop-color="#FFDF6B"/>
</linearGradient>
</defs>
</svg>
