<svg width="375" height="211" viewBox="0 0 375 211" fill="none" xmlns="http://www.w3.org/2000/svg">
<g clip-path="url(#clip0_360_2102)">
<rect width="375" height="211" fill="url(#paint0_radial_360_2102)"/>
<path opacity="0.8" fill-rule="evenodd" clip-rule="evenodd" d="M274.375 61.2132C271.162 63.6759 267.144 65.1395 262.783 65.1395C258.856 65.1395 255.206 63.9523 252.172 61.9172C249.925 63.9215 246.961 65.1395 243.713 65.1395C236.692 65.1395 231 59.4477 231 52.4264C231 45.4051 236.692 39.7132 243.713 39.7132C244.073 39.7132 244.43 39.7282 244.783 39.7575C247.388 32.3277 254.463 27 262.783 27C269.309 27 275.07 30.2782 278.507 35.2778C280.409 34.4508 282.507 33.9922 284.713 33.9922C289.761 33.9922 294.248 36.3941 297.094 40.1174C298.114 39.8536 299.184 39.7132 300.287 39.7132C307.308 39.7132 313 45.4051 313 52.4264C313 59.4477 307.308 65.1395 300.287 65.1395C297.546 65.1395 295.008 64.2722 292.932 62.797C290.546 64.2818 287.73 65.1395 284.713 65.1395C280.746 65.1395 277.125 63.6559 274.375 61.2132Z" fill="url(#paint1_linear_360_2102)"/>
<path opacity="0.8" fill-rule="evenodd" clip-rule="evenodd" d="M323.791 70.6168C326.103 72.3888 328.994 73.4419 332.132 73.4419C334.958 73.4419 337.584 72.5876 339.766 71.1233C341.383 72.5654 343.516 73.4418 345.853 73.4418C350.905 73.4418 355 69.3465 355 64.2945C355 59.2426 350.905 55.1473 345.853 55.1473C345.594 55.1473 345.337 55.158 345.083 55.1792C343.209 49.8333 338.118 46 332.132 46C327.436 46 323.291 48.3587 320.818 51.956C319.45 51.3609 317.94 51.031 316.353 51.031C312.721 51.031 309.492 52.7591 307.444 55.4381C306.71 55.2483 305.941 55.1473 305.147 55.1473C300.095 55.1473 296 59.2426 296 64.2945C296 69.3465 300.095 73.4418 305.147 73.4418C307.119 73.4418 308.946 72.8178 310.44 71.7564C312.156 72.8247 314.182 73.4418 316.353 73.4418C319.207 73.4418 321.813 72.3743 323.791 70.6168Z" fill="url(#paint2_linear_360_2102)"/>
<path opacity="0.6" fill-rule="evenodd" clip-rule="evenodd" d="M176.375 83.2132C173.162 85.6759 169.144 87.1395 164.783 87.1395C160.856 87.1395 157.206 85.9523 154.172 83.9172C151.925 85.9215 148.961 87.1395 145.713 87.1395C138.692 87.1395 133 81.4477 133 74.4264C133 67.4051 138.692 61.7132 145.713 61.7132C146.073 61.7132 146.43 61.7282 146.783 61.7575C149.388 54.3277 156.463 49 164.783 49C171.309 49 177.07 52.2782 180.507 57.2778C182.409 56.4508 184.507 55.9922 186.713 55.9922C191.761 55.9922 196.248 58.3941 199.094 62.1174C200.114 61.8536 201.184 61.7132 202.287 61.7132C209.308 61.7132 215 67.4051 215 74.4264C215 81.4477 209.308 87.1395 202.287 87.1395C199.546 87.1395 197.008 86.2722 194.932 84.797C192.546 86.2818 189.73 87.1395 186.713 87.1395C182.746 87.1395 179.125 85.6559 176.375 83.2132Z" fill="url(#paint3_linear_360_2102)"/>
<path opacity="0.8" fill-rule="evenodd" clip-rule="evenodd" d="M127.791 62.6168C130.103 64.3888 132.994 65.4419 136.132 65.4419C138.958 65.4419 141.584 64.5876 143.766 63.1233C145.383 64.5654 147.516 65.4418 149.853 65.4418C154.905 65.4418 159 61.3465 159 56.2945C159 51.2426 154.905 47.1473 149.853 47.1473C149.594 47.1473 149.337 47.158 149.083 47.1792C147.209 41.8333 142.118 38 136.132 38C131.436 38 127.291 40.3587 124.818 43.956C123.45 43.3609 121.94 43.031 120.353 43.031C116.721 43.031 113.492 44.7591 111.444 47.4381C110.71 47.2483 109.941 47.1473 109.147 47.1473C104.095 47.1473 100 51.2426 100 56.2945C100 61.3465 104.095 65.4418 109.147 65.4418C111.119 65.4418 112.946 64.8178 114.44 63.7564C116.156 64.8247 118.182 65.4418 120.353 65.4418C123.207 65.4418 125.813 64.3743 127.791 62.6168Z" fill="url(#paint4_linear_360_2102)"/>
<g filter="url(#filter0_d_360_2102)">
<path fill-rule="evenodd" clip-rule="evenodd" d="M54.6265 168.238L72.193 151.55C72.9793 150.803 74.2178 150.819 74.9847 151.586L91.6729 168.274C92.9328 169.534 92.0405 171.688 90.2587 171.688L88.3037 171.688V193.734H58.3436V171.688H56.004C54.1974 171.688 53.3167 169.482 54.6265 168.238Z" fill="url(#paint5_linear_360_2102)"/>
<g filter="url(#filter1_i_360_2102)">
<rect x="72.856" y="171.914" width="5.51273" height="5.51273" fill="#C4DDFF"/>
</g>
<g filter="url(#filter2_i_360_2102)">
<rect x="72.856" y="178.471" width="5.51273" height="5.51273" fill="#C4DDFF"/>
</g>
<g filter="url(#filter3_i_360_2102)">
<rect x="79.4131" y="171.914" width="5.51273" height="5.51273" fill="#C4DDFF"/>
</g>
<g filter="url(#filter4_i_360_2102)">
<rect x="79.4131" y="178.471" width="5.51273" height="5.51273" fill="#C4DDFF"/>
</g>
</g>
<g filter="url(#filter5_d_360_2102)">
<path fill-rule="evenodd" clip-rule="evenodd" d="M100.627 168.238L118.193 151.55C118.979 150.803 120.218 150.819 120.985 151.586L137.673 168.274C138.933 169.534 138.04 171.688 136.259 171.688L134.304 171.688V193.734H104.344V171.688H102.004C100.197 171.688 99.3167 169.482 100.627 168.238Z" fill="url(#paint6_linear_360_2102)"/>
<g filter="url(#filter6_i_360_2102)">
<rect x="108.856" y="171.914" width="5.51273" height="5.51273" fill="#C4DDFF"/>
</g>
<g filter="url(#filter7_i_360_2102)">
<rect x="108.856" y="178.471" width="5.51273" height="5.51273" fill="#C4DDFF"/>
</g>
<g filter="url(#filter8_i_360_2102)">
<rect x="115.413" y="171.914" width="5.51273" height="5.51273" fill="#C4DDFF"/>
</g>
<g filter="url(#filter9_i_360_2102)">
<rect x="115.413" y="178.471" width="5.51273" height="5.51273" fill="#C4DDFF"/>
</g>
</g>
<g filter="url(#filter10_d_360_2102)">
<path fill-rule="evenodd" clip-rule="evenodd" d="M242.627 171.238L260.193 154.55C260.979 153.803 262.218 153.819 262.985 154.586L279.673 171.274C280.933 172.534 280.04 174.688 278.259 174.688L276.304 174.688V196.734H246.344V174.688H244.004C242.197 174.688 241.317 172.482 242.627 171.238Z" fill="url(#paint7_linear_360_2102)"/>
<g filter="url(#filter11_i_360_2102)">
<rect x="250.856" y="174.914" width="5.51273" height="5.51273" fill="#C4DDFF"/>
</g>
<g filter="url(#filter12_i_360_2102)">
<rect x="250.856" y="181.471" width="5.51273" height="5.51273" fill="#C4DDFF"/>
</g>
<g filter="url(#filter13_i_360_2102)">
<rect x="257.413" y="174.914" width="5.51273" height="5.51273" fill="#C4DDFF"/>
</g>
<g filter="url(#filter14_i_360_2102)">
<rect x="257.413" y="181.471" width="5.51273" height="5.51273" fill="#C4DDFF"/>
</g>
</g>
<g filter="url(#filter15_d_360_2102)">
<path fill-rule="evenodd" clip-rule="evenodd" d="M326.627 167.238L344.193 150.55C344.979 149.803 346.218 149.819 346.985 150.586L363.673 167.274C364.933 168.534 364.04 170.688 362.259 170.688L360.304 170.688V192.734H330.344V170.688H328.004C326.197 170.688 325.317 168.482 326.627 167.238Z" fill="url(#paint8_linear_360_2102)"/>
<g filter="url(#filter16_i_360_2102)">
<rect x="334.856" y="170.914" width="5.51273" height="5.51273" fill="#C4DDFF"/>
</g>
<g filter="url(#filter17_i_360_2102)">
<rect x="334.856" y="177.471" width="5.51273" height="5.51273" fill="#C4DDFF"/>
</g>
<g filter="url(#filter18_i_360_2102)">
<rect x="341.413" y="170.914" width="5.51273" height="5.51273" fill="#C4DDFF"/>
</g>
<g filter="url(#filter19_i_360_2102)">
<rect x="341.413" y="177.471" width="5.51273" height="5.51273" fill="#C4DDFF"/>
</g>
</g>
<g filter="url(#filter20_d_360_2102)">
<path fill-rule="evenodd" clip-rule="evenodd" d="M263.627 161.389L288.72 137.55C289.506 136.803 290.745 136.819 291.512 137.586L315.351 161.425C316.611 162.685 315.718 164.839 313.937 164.839H309.723V194.224H269.79V164.839H265.004C263.197 164.839 262.317 162.633 263.627 161.389Z" fill="url(#paint9_linear_360_2102)"/>
<g filter="url(#filter21_i_360_2102)">
<rect x="275.805" y="165.14" width="7.34787" height="7.34787" fill="#C4DDFF"/>
</g>
<g filter="url(#filter22_i_360_2102)">
<rect x="275.805" y="173.88" width="7.34787" height="7.34787" fill="#C4DDFF"/>
</g>
<g filter="url(#filter23_i_360_2102)">
<rect x="284.545" y="165.14" width="7.34787" height="7.34787" fill="#C4DDFF"/>
</g>
<g filter="url(#filter24_i_360_2102)">
<rect x="284.545" y="173.88" width="7.34787" height="7.34787" fill="#C4DDFF"/>
</g>
</g>
<g filter="url(#filter25_d_360_2102)">
<path fill-rule="evenodd" clip-rule="evenodd" d="M15.6265 160.24L41.6164 135.55C42.4028 134.803 43.6412 134.819 44.4082 135.586L69.0986 160.276C70.3585 161.536 69.4662 163.69 67.6844 163.69L63.2024 163.69V193.949H22.0813V163.69L17.004 163.69C15.1974 163.69 14.3167 161.485 15.6265 160.24Z" fill="url(#paint10_linear_360_2102)"/>
<g filter="url(#filter26_i_360_2102)">
<rect x="42" y="164" width="7.5664" height="7.5664" fill="#C4DDFF"/>
</g>
<g filter="url(#filter27_i_360_2102)">
<rect x="42" y="173" width="7.5664" height="7.5664" fill="#C4DDFF"/>
</g>
<g filter="url(#filter28_i_360_2102)">
<rect x="51" y="164" width="7.5664" height="7.5664" fill="#C4DDFF"/>
</g>
<g filter="url(#filter29_i_360_2102)">
<rect x="51" y="173" width="7.5664" height="7.5664" fill="#C4DDFF"/>
</g>
</g>
<rect x="28.395" y="189.742" width="3.79827" height="5.31758" fill="#144079"/>
<path d="M28.5619 172.991C29.3317 171.658 31.2562 171.658 32.026 172.991L40.0748 186.932C40.8446 188.266 39.8824 189.932 38.3428 189.932H22.2452C20.7056 189.932 19.7433 188.266 20.5131 186.932L28.5619 172.991Z" fill="url(#paint11_linear_360_2102)"/>
<path d="M28.5619 163.116C29.3317 161.783 31.2562 161.783 32.026 163.116L40.0748 177.057C40.8446 178.39 39.8824 180.057 38.3428 180.057H22.2452C20.7056 180.057 19.7433 178.39 20.5131 177.057L28.5619 163.116Z" fill="url(#paint12_linear_360_2102)"/>
<path d="M28.5618 154C29.3316 152.667 31.2561 152.667 32.0259 154L38.101 164.522C38.8708 165.856 37.9086 167.522 36.369 167.522H24.2186C22.679 167.522 21.7168 165.856 22.4866 164.522L28.5618 154Z" fill="url(#paint13_linear_360_2102)"/>
<rect x="215.395" y="187.742" width="3.79827" height="5.31758" fill="#144079"/>
<path d="M215.562 170.991C216.332 169.658 218.256 169.658 219.026 170.991L227.075 184.932C227.845 186.266 226.882 187.932 225.343 187.932H209.245C207.706 187.932 206.743 186.266 207.513 184.932L215.562 170.991Z" fill="url(#paint14_linear_360_2102)"/>
<path d="M215.562 161.116C216.332 159.783 218.256 159.783 219.026 161.116L227.075 175.057C227.845 176.39 226.882 178.057 225.343 178.057H209.245C207.706 178.057 206.743 176.39 207.513 175.057L215.562 161.116Z" fill="url(#paint15_linear_360_2102)"/>
<path d="M215.562 152C216.332 150.667 218.256 150.667 219.026 152L225.101 162.522C225.871 163.856 224.909 165.522 223.369 165.522H211.219C209.679 165.522 208.717 163.856 209.487 162.522L215.562 152Z" fill="url(#paint16_linear_360_2102)"/>
<rect x="133.645" y="189.392" width="2.88161" height="4.03425" fill="#144079"/>
<path d="M133.354 177.408C134.123 176.075 136.048 176.075 136.818 177.408L142.088 186.537C142.858 187.87 141.896 189.537 140.356 189.537H129.815C128.276 189.537 127.313 187.87 128.083 186.537L133.354 177.408Z" fill="url(#paint17_linear_360_2102)"/>
<path d="M133.354 169.916C134.123 168.583 136.048 168.583 136.818 169.916L142.088 179.044C142.858 180.378 141.896 182.044 140.356 182.044H129.815C128.276 182.044 127.313 180.378 128.083 179.044L133.354 169.916Z" fill="url(#paint18_linear_360_2102)"/>
<path d="M133.354 163C134.123 161.667 136.048 161.667 136.818 163L140.591 169.535C141.361 170.868 140.398 172.535 138.859 172.535H131.313C129.773 172.535 128.811 170.868 129.581 169.535L133.354 163Z" fill="url(#paint19_linear_360_2102)"/>
<rect x="7.64502" y="190.392" width="2.88161" height="4.03425" fill="#144079"/>
<path d="M7.35359 178.408C8.12339 177.075 10.0479 177.075 10.8177 178.408L16.088 187.537C16.8578 188.87 15.8956 190.537 14.356 190.537H3.81532C2.27572 190.537 1.31347 188.87 2.08327 187.537L7.35359 178.408Z" fill="url(#paint20_linear_360_2102)"/>
<path d="M7.35359 170.916C8.12339 169.583 10.0479 169.583 10.8177 170.916L16.088 180.044C16.8578 181.378 15.8956 183.044 14.356 183.044H3.81532C2.27572 183.044 1.31347 181.378 2.08327 180.044L7.35359 170.916Z" fill="url(#paint21_linear_360_2102)"/>
<path d="M7.35362 164C8.12342 162.667 10.0479 162.667 10.8177 164L14.5907 170.535C15.3605 171.868 14.3983 173.535 12.8587 173.535H5.31269C3.77309 173.535 2.81084 171.868 3.58064 170.535L7.35362 164Z" fill="url(#paint22_linear_360_2102)"/>
<rect x="236.645" y="189.392" width="2.88161" height="4.03425" fill="#144079"/>
<path d="M236.354 177.408C237.123 176.075 239.048 176.075 239.818 177.408L245.088 186.537C245.858 187.87 244.896 189.537 243.356 189.537H232.815C231.276 189.537 230.313 187.87 231.083 186.537L236.354 177.408Z" fill="url(#paint23_linear_360_2102)"/>
<path d="M236.354 169.916C237.123 168.583 239.048 168.583 239.818 169.916L245.088 179.044C245.858 180.378 244.896 182.044 243.356 182.044H232.815C231.276 182.044 230.313 180.378 231.083 179.044L236.354 169.916Z" fill="url(#paint24_linear_360_2102)"/>
<path d="M236.354 163C237.123 161.667 239.048 161.667 239.818 163L243.591 169.535C244.361 170.868 243.398 172.535 241.859 172.535H234.313C232.773 172.535 231.811 170.868 232.581 169.535L236.354 163Z" fill="url(#paint25_linear_360_2102)"/>
<rect x="357.645" y="188.392" width="2.88161" height="4.03425" fill="#144079"/>
<path d="M357.354 176.408C358.123 175.075 360.048 175.075 360.818 176.408L366.088 185.537C366.858 186.87 365.896 188.537 364.356 188.537H353.815C352.276 188.537 351.313 186.87 352.083 185.537L357.354 176.408Z" fill="url(#paint26_linear_360_2102)"/>
<path d="M357.354 168.916C358.123 167.583 360.048 167.583 360.818 168.916L366.088 178.044C366.858 179.378 365.896 181.044 364.356 181.044H353.815C352.276 181.044 351.313 179.378 352.083 178.044L357.354 168.916Z" fill="url(#paint27_linear_360_2102)"/>
<path d="M357.354 162C358.123 160.667 360.048 160.667 360.818 162L364.591 168.535C365.361 169.868 364.398 171.535 362.859 171.535H355.313C353.773 171.535 352.811 169.868 353.581 168.535L357.354 162Z" fill="url(#paint28_linear_360_2102)"/>
<rect x="301.645" y="189.392" width="2.88161" height="4.03425" fill="#144079"/>
<path d="M301.354 177.408C302.123 176.075 304.048 176.075 304.818 177.408L310.088 186.537C310.858 187.87 309.896 189.537 308.356 189.537H297.815C296.276 189.537 295.313 187.87 296.083 186.537L301.354 177.408Z" fill="url(#paint29_linear_360_2102)"/>
<path d="M301.354 169.916C302.123 168.583 304.048 168.583 304.818 169.916L310.088 179.044C310.858 180.378 309.896 182.044 308.356 182.044H297.815C296.276 182.044 295.313 180.378 296.083 179.044L301.354 169.916Z" fill="url(#paint30_linear_360_2102)"/>
<path d="M301.354 163C302.123 161.667 304.048 161.667 304.818 163L308.591 169.535C309.361 170.868 308.398 172.535 306.859 172.535H299.313C297.773 172.535 296.811 170.868 297.581 169.535L301.354 163Z" fill="url(#paint31_linear_360_2102)"/>
<rect y="193" width="375" height="18" fill="#1A56A1"/>
</g>
<defs>
<filter id="filter0_d_360_2102" x="50" y="151" width="46.2627" height="50.7342" filterUnits="userSpaceOnUse" color-interpolation-filters="sRGB">
<feFlood flood-opacity="0" result="BackgroundImageFix"/>
<feColorMatrix in="SourceAlpha" type="matrix" values="0 0 0 0 0 0 0 0 0 0 0 0 0 0 0 0 0 0 127 0" result="hardAlpha"/>
<feOffset dy="4"/>
<feGaussianBlur stdDeviation="2"/>
<feComposite in2="hardAlpha" operator="out"/>
<feColorMatrix type="matrix" values="0 0 0 0 0 0 0 0 0 0 0 0 0 0 0 0 0 0 0.1 0"/>
<feBlend mode="normal" in2="BackgroundImageFix" result="effect1_dropShadow_360_2102"/>
<feBlend mode="normal" in="SourceGraphic" in2="effect1_dropShadow_360_2102" result="shape"/>
</filter>
<filter id="filter1_i_360_2102" x="71.856" y="171.914" width="6.5127" height="7.51273" filterUnits="userSpaceOnUse" color-interpolation-filters="sRGB">
<feFlood flood-opacity="0" result="BackgroundImageFix"/>
<feBlend mode="normal" in="SourceGraphic" in2="BackgroundImageFix" result="shape"/>
<feColorMatrix in="SourceAlpha" type="matrix" values="0 0 0 0 0 0 0 0 0 0 0 0 0 0 0 0 0 0 127 0" result="hardAlpha"/>
<feOffset dx="-1" dy="2"/>
<feGaussianBlur stdDeviation="1"/>
<feComposite in2="hardAlpha" operator="arithmetic" k2="-1" k3="1"/>
<feColorMatrix type="matrix" values="0 0 0 0 0 0 0 0 0 0 0 0 0 0 0 0 0 0 0.25 0"/>
<feBlend mode="normal" in2="shape" result="effect1_innerShadow_360_2102"/>
</filter>
<filter id="filter2_i_360_2102" x="71.856" y="178.471" width="6.5127" height="7.51273" filterUnits="userSpaceOnUse" color-interpolation-filters="sRGB">
<feFlood flood-opacity="0" result="BackgroundImageFix"/>
<feBlend mode="normal" in="SourceGraphic" in2="BackgroundImageFix" result="shape"/>
<feColorMatrix in="SourceAlpha" type="matrix" values="0 0 0 0 0 0 0 0 0 0 0 0 0 0 0 0 0 0 127 0" result="hardAlpha"/>
<feOffset dx="-1" dy="2"/>
<feGaussianBlur stdDeviation="1"/>
<feComposite in2="hardAlpha" operator="arithmetic" k2="-1" k3="1"/>
<feColorMatrix type="matrix" values="0 0 0 0 0 0 0 0 0 0 0 0 0 0 0 0 0 0 0.25 0"/>
<feBlend mode="normal" in2="shape" result="effect1_innerShadow_360_2102"/>
</filter>
<filter id="filter3_i_360_2102" x="78.4131" y="171.914" width="6.5127" height="7.51273" filterUnits="userSpaceOnUse" color-interpolation-filters="sRGB">
<feFlood flood-opacity="0" result="BackgroundImageFix"/>
<feBlend mode="normal" in="SourceGraphic" in2="BackgroundImageFix" result="shape"/>
<feColorMatrix in="SourceAlpha" type="matrix" values="0 0 0 0 0 0 0 0 0 0 0 0 0 0 0 0 0 0 127 0" result="hardAlpha"/>
<feOffset dx="-1" dy="2"/>
<feGaussianBlur stdDeviation="1"/>
<feComposite in2="hardAlpha" operator="arithmetic" k2="-1" k3="1"/>
<feColorMatrix type="matrix" values="0 0 0 0 0 0 0 0 0 0 0 0 0 0 0 0 0 0 0.25 0"/>
<feBlend mode="normal" in2="shape" result="effect1_innerShadow_360_2102"/>
</filter>
<filter id="filter4_i_360_2102" x="78.4131" y="178.471" width="6.5127" height="7.51273" filterUnits="userSpaceOnUse" color-interpolation-filters="sRGB">
<feFlood flood-opacity="0" result="BackgroundImageFix"/>
<feBlend mode="normal" in="SourceGraphic" in2="BackgroundImageFix" result="shape"/>
<feColorMatrix in="SourceAlpha" type="matrix" values="0 0 0 0 0 0 0 0 0 0 0 0 0 0 0 0 0 0 127 0" result="hardAlpha"/>
<feOffset dx="-1" dy="2"/>
<feGaussianBlur stdDeviation="1"/>
<feComposite in2="hardAlpha" operator="arithmetic" k2="-1" k3="1"/>
<feColorMatrix type="matrix" values="0 0 0 0 0 0 0 0 0 0 0 0 0 0 0 0 0 0 0.25 0"/>
<feBlend mode="normal" in2="shape" result="effect1_innerShadow_360_2102"/>
</filter>
<filter id="filter5_d_360_2102" x="96" y="151" width="46.2627" height="50.7342" filterUnits="userSpaceOnUse" color-interpolation-filters="sRGB">
<feFlood flood-opacity="0" result="BackgroundImageFix"/>
<feColorMatrix in="SourceAlpha" type="matrix" values="0 0 0 0 0 0 0 0 0 0 0 0 0 0 0 0 0 0 127 0" result="hardAlpha"/>
<feOffset dy="4"/>
<feGaussianBlur stdDeviation="2"/>
<feComposite in2="hardAlpha" operator="out"/>
<feColorMatrix type="matrix" values="0 0 0 0 0 0 0 0 0 0 0 0 0 0 0 0 0 0 0.1 0"/>
<feBlend mode="normal" in2="BackgroundImageFix" result="effect1_dropShadow_360_2102"/>
<feBlend mode="normal" in="SourceGraphic" in2="effect1_dropShadow_360_2102" result="shape"/>
</filter>
<filter id="filter6_i_360_2102" x="107.856" y="171.914" width="6.5127" height="7.51273" filterUnits="userSpaceOnUse" color-interpolation-filters="sRGB">
<feFlood flood-opacity="0" result="BackgroundImageFix"/>
<feBlend mode="normal" in="SourceGraphic" in2="BackgroundImageFix" result="shape"/>
<feColorMatrix in="SourceAlpha" type="matrix" values="0 0 0 0 0 0 0 0 0 0 0 0 0 0 0 0 0 0 127 0" result="hardAlpha"/>
<feOffset dx="-1" dy="2"/>
<feGaussianBlur stdDeviation="1"/>
<feComposite in2="hardAlpha" operator="arithmetic" k2="-1" k3="1"/>
<feColorMatrix type="matrix" values="0 0 0 0 0 0 0 0 0 0 0 0 0 0 0 0 0 0 0.25 0"/>
<feBlend mode="normal" in2="shape" result="effect1_innerShadow_360_2102"/>
</filter>
<filter id="filter7_i_360_2102" x="107.856" y="178.471" width="6.5127" height="7.51273" filterUnits="userSpaceOnUse" color-interpolation-filters="sRGB">
<feFlood flood-opacity="0" result="BackgroundImageFix"/>
<feBlend mode="normal" in="SourceGraphic" in2="BackgroundImageFix" result="shape"/>
<feColorMatrix in="SourceAlpha" type="matrix" values="0 0 0 0 0 0 0 0 0 0 0 0 0 0 0 0 0 0 127 0" result="hardAlpha"/>
<feOffset dx="-1" dy="2"/>
<feGaussianBlur stdDeviation="1"/>
<feComposite in2="hardAlpha" operator="arithmetic" k2="-1" k3="1"/>
<feColorMatrix type="matrix" values="0 0 0 0 0 0 0 0 0 0 0 0 0 0 0 0 0 0 0.25 0"/>
<feBlend mode="normal" in2="shape" result="effect1_innerShadow_360_2102"/>
</filter>
<filter id="filter8_i_360_2102" x="114.413" y="171.914" width="6.5127" height="7.51273" filterUnits="userSpaceOnUse" color-interpolation-filters="sRGB">
<feFlood flood-opacity="0" result="BackgroundImageFix"/>
<feBlend mode="normal" in="SourceGraphic" in2="BackgroundImageFix" result="shape"/>
<feColorMatrix in="SourceAlpha" type="matrix" values="0 0 0 0 0 0 0 0 0 0 0 0 0 0 0 0 0 0 127 0" result="hardAlpha"/>
<feOffset dx="-1" dy="2"/>
<feGaussianBlur stdDeviation="1"/>
<feComposite in2="hardAlpha" operator="arithmetic" k2="-1" k3="1"/>
<feColorMatrix type="matrix" values="0 0 0 0 0 0 0 0 0 0 0 0 0 0 0 0 0 0 0.25 0"/>
<feBlend mode="normal" in2="shape" result="effect1_innerShadow_360_2102"/>
</filter>
<filter id="filter9_i_360_2102" x="114.413" y="178.471" width="6.5127" height="7.51273" filterUnits="userSpaceOnUse" color-interpolation-filters="sRGB">
<feFlood flood-opacity="0" result="BackgroundImageFix"/>
<feBlend mode="normal" in="SourceGraphic" in2="BackgroundImageFix" result="shape"/>
<feColorMatrix in="SourceAlpha" type="matrix" values="0 0 0 0 0 0 0 0 0 0 0 0 0 0 0 0 0 0 127 0" result="hardAlpha"/>
<feOffset dx="-1" dy="2"/>
<feGaussianBlur stdDeviation="1"/>
<feComposite in2="hardAlpha" operator="arithmetic" k2="-1" k3="1"/>
<feColorMatrix type="matrix" values="0 0 0 0 0 0 0 0 0 0 0 0 0 0 0 0 0 0 0.25 0"/>
<feBlend mode="normal" in2="shape" result="effect1_innerShadow_360_2102"/>
</filter>
<filter id="filter10_d_360_2102" x="238" y="154" width="46.2627" height="50.7342" filterUnits="userSpaceOnUse" color-interpolation-filters="sRGB">
<feFlood flood-opacity="0" result="BackgroundImageFix"/>
<feColorMatrix in="SourceAlpha" type="matrix" values="0 0 0 0 0 0 0 0 0 0 0 0 0 0 0 0 0 0 127 0" result="hardAlpha"/>
<feOffset dy="4"/>
<feGaussianBlur stdDeviation="2"/>
<feComposite in2="hardAlpha" operator="out"/>
<feColorMatrix type="matrix" values="0 0 0 0 0 0 0 0 0 0 0 0 0 0 0 0 0 0 0.1 0"/>
<feBlend mode="normal" in2="BackgroundImageFix" result="effect1_dropShadow_360_2102"/>
<feBlend mode="normal" in="SourceGraphic" in2="effect1_dropShadow_360_2102" result="shape"/>
</filter>
<filter id="filter11_i_360_2102" x="249.856" y="174.914" width="6.5127" height="7.51273" filterUnits="userSpaceOnUse" color-interpolation-filters="sRGB">
<feFlood flood-opacity="0" result="BackgroundImageFix"/>
<feBlend mode="normal" in="SourceGraphic" in2="BackgroundImageFix" result="shape"/>
<feColorMatrix in="SourceAlpha" type="matrix" values="0 0 0 0 0 0 0 0 0 0 0 0 0 0 0 0 0 0 127 0" result="hardAlpha"/>
<feOffset dx="-1" dy="2"/>
<feGaussianBlur stdDeviation="1"/>
<feComposite in2="hardAlpha" operator="arithmetic" k2="-1" k3="1"/>
<feColorMatrix type="matrix" values="0 0 0 0 0 0 0 0 0 0 0 0 0 0 0 0 0 0 0.25 0"/>
<feBlend mode="normal" in2="shape" result="effect1_innerShadow_360_2102"/>
</filter>
<filter id="filter12_i_360_2102" x="249.856" y="181.471" width="6.5127" height="7.51273" filterUnits="userSpaceOnUse" color-interpolation-filters="sRGB">
<feFlood flood-opacity="0" result="BackgroundImageFix"/>
<feBlend mode="normal" in="SourceGraphic" in2="BackgroundImageFix" result="shape"/>
<feColorMatrix in="SourceAlpha" type="matrix" values="0 0 0 0 0 0 0 0 0 0 0 0 0 0 0 0 0 0 127 0" result="hardAlpha"/>
<feOffset dx="-1" dy="2"/>
<feGaussianBlur stdDeviation="1"/>
<feComposite in2="hardAlpha" operator="arithmetic" k2="-1" k3="1"/>
<feColorMatrix type="matrix" values="0 0 0 0 0 0 0 0 0 0 0 0 0 0 0 0 0 0 0.25 0"/>
<feBlend mode="normal" in2="shape" result="effect1_innerShadow_360_2102"/>
</filter>
<filter id="filter13_i_360_2102" x="256.413" y="174.914" width="6.5127" height="7.51273" filterUnits="userSpaceOnUse" color-interpolation-filters="sRGB">
<feFlood flood-opacity="0" result="BackgroundImageFix"/>
<feBlend mode="normal" in="SourceGraphic" in2="BackgroundImageFix" result="shape"/>
<feColorMatrix in="SourceAlpha" type="matrix" values="0 0 0 0 0 0 0 0 0 0 0 0 0 0 0 0 0 0 127 0" result="hardAlpha"/>
<feOffset dx="-1" dy="2"/>
<feGaussianBlur stdDeviation="1"/>
<feComposite in2="hardAlpha" operator="arithmetic" k2="-1" k3="1"/>
<feColorMatrix type="matrix" values="0 0 0 0 0 0 0 0 0 0 0 0 0 0 0 0 0 0 0.25 0"/>
<feBlend mode="normal" in2="shape" result="effect1_innerShadow_360_2102"/>
</filter>
<filter id="filter14_i_360_2102" x="256.413" y="181.471" width="6.5127" height="7.51273" filterUnits="userSpaceOnUse" color-interpolation-filters="sRGB">
<feFlood flood-opacity="0" result="BackgroundImageFix"/>
<feBlend mode="normal" in="SourceGraphic" in2="BackgroundImageFix" result="shape"/>
<feColorMatrix in="SourceAlpha" type="matrix" values="0 0 0 0 0 0 0 0 0 0 0 0 0 0 0 0 0 0 127 0" result="hardAlpha"/>
<feOffset dx="-1" dy="2"/>
<feGaussianBlur stdDeviation="1"/>
<feComposite in2="hardAlpha" operator="arithmetic" k2="-1" k3="1"/>
<feColorMatrix type="matrix" values="0 0 0 0 0 0 0 0 0 0 0 0 0 0 0 0 0 0 0.25 0"/>
<feBlend mode="normal" in2="shape" result="effect1_innerShadow_360_2102"/>
</filter>
<filter id="filter15_d_360_2102" x="322" y="150" width="46.2627" height="50.7342" filterUnits="userSpaceOnUse" color-interpolation-filters="sRGB">
<feFlood flood-opacity="0" result="BackgroundImageFix"/>
<feColorMatrix in="SourceAlpha" type="matrix" values="0 0 0 0 0 0 0 0 0 0 0 0 0 0 0 0 0 0 127 0" result="hardAlpha"/>
<feOffset dy="4"/>
<feGaussianBlur stdDeviation="2"/>
<feComposite in2="hardAlpha" operator="out"/>
<feColorMatrix type="matrix" values="0 0 0 0 0 0 0 0 0 0 0 0 0 0 0 0 0 0 0.1 0"/>
<feBlend mode="normal" in2="BackgroundImageFix" result="effect1_dropShadow_360_2102"/>
<feBlend mode="normal" in="SourceGraphic" in2="effect1_dropShadow_360_2102" result="shape"/>
</filter>
<filter id="filter16_i_360_2102" x="333.856" y="170.914" width="6.5127" height="7.51273" filterUnits="userSpaceOnUse" color-interpolation-filters="sRGB">
<feFlood flood-opacity="0" result="BackgroundImageFix"/>
<feBlend mode="normal" in="SourceGraphic" in2="BackgroundImageFix" result="shape"/>
<feColorMatrix in="SourceAlpha" type="matrix" values="0 0 0 0 0 0 0 0 0 0 0 0 0 0 0 0 0 0 127 0" result="hardAlpha"/>
<feOffset dx="-1" dy="2"/>
<feGaussianBlur stdDeviation="1"/>
<feComposite in2="hardAlpha" operator="arithmetic" k2="-1" k3="1"/>
<feColorMatrix type="matrix" values="0 0 0 0 0 0 0 0 0 0 0 0 0 0 0 0 0 0 0.25 0"/>
<feBlend mode="normal" in2="shape" result="effect1_innerShadow_360_2102"/>
</filter>
<filter id="filter17_i_360_2102" x="333.856" y="177.471" width="6.5127" height="7.51273" filterUnits="userSpaceOnUse" color-interpolation-filters="sRGB">
<feFlood flood-opacity="0" result="BackgroundImageFix"/>
<feBlend mode="normal" in="SourceGraphic" in2="BackgroundImageFix" result="shape"/>
<feColorMatrix in="SourceAlpha" type="matrix" values="0 0 0 0 0 0 0 0 0 0 0 0 0 0 0 0 0 0 127 0" result="hardAlpha"/>
<feOffset dx="-1" dy="2"/>
<feGaussianBlur stdDeviation="1"/>
<feComposite in2="hardAlpha" operator="arithmetic" k2="-1" k3="1"/>
<feColorMatrix type="matrix" values="0 0 0 0 0 0 0 0 0 0 0 0 0 0 0 0 0 0 0.25 0"/>
<feBlend mode="normal" in2="shape" result="effect1_innerShadow_360_2102"/>
</filter>
<filter id="filter18_i_360_2102" x="340.413" y="170.914" width="6.5127" height="7.51273" filterUnits="userSpaceOnUse" color-interpolation-filters="sRGB">
<feFlood flood-opacity="0" result="BackgroundImageFix"/>
<feBlend mode="normal" in="SourceGraphic" in2="BackgroundImageFix" result="shape"/>
<feColorMatrix in="SourceAlpha" type="matrix" values="0 0 0 0 0 0 0 0 0 0 0 0 0 0 0 0 0 0 127 0" result="hardAlpha"/>
<feOffset dx="-1" dy="2"/>
<feGaussianBlur stdDeviation="1"/>
<feComposite in2="hardAlpha" operator="arithmetic" k2="-1" k3="1"/>
<feColorMatrix type="matrix" values="0 0 0 0 0 0 0 0 0 0 0 0 0 0 0 0 0 0 0.25 0"/>
<feBlend mode="normal" in2="shape" result="effect1_innerShadow_360_2102"/>
</filter>
<filter id="filter19_i_360_2102" x="340.413" y="177.471" width="6.5127" height="7.51273" filterUnits="userSpaceOnUse" color-interpolation-filters="sRGB">
<feFlood flood-opacity="0" result="BackgroundImageFix"/>
<feBlend mode="normal" in="SourceGraphic" in2="BackgroundImageFix" result="shape"/>
<feColorMatrix in="SourceAlpha" type="matrix" values="0 0 0 0 0 0 0 0 0 0 0 0 0 0 0 0 0 0 127 0" result="hardAlpha"/>
<feOffset dx="-1" dy="2"/>
<feGaussianBlur stdDeviation="1"/>
<feComposite in2="hardAlpha" operator="arithmetic" k2="-1" k3="1"/>
<feColorMatrix type="matrix" values="0 0 0 0 0 0 0 0 0 0 0 0 0 0 0 0 0 0 0.25 0"/>
<feBlend mode="normal" in2="shape" result="effect1_innerShadow_360_2102"/>
</filter>
<filter id="filter20_d_360_2102" x="259" y="137" width="60.9404" height="65.2239" filterUnits="userSpaceOnUse" color-interpolation-filters="sRGB">
<feFlood flood-opacity="0" result="BackgroundImageFix"/>
<feColorMatrix in="SourceAlpha" type="matrix" values="0 0 0 0 0 0 0 0 0 0 0 0 0 0 0 0 0 0 127 0" result="hardAlpha"/>
<feOffset dy="4"/>
<feGaussianBlur stdDeviation="2"/>
<feComposite in2="hardAlpha" operator="out"/>
<feColorMatrix type="matrix" values="0 0 0 0 0 0 0 0 0 0 0 0 0 0 0 0 0 0 0.1 0"/>
<feBlend mode="normal" in2="BackgroundImageFix" result="effect1_dropShadow_360_2102"/>
<feBlend mode="normal" in="SourceGraphic" in2="effect1_dropShadow_360_2102" result="shape"/>
</filter>
<filter id="filter21_i_360_2102" x="274.805" y="165.14" width="8.34766" height="9.34787" filterUnits="userSpaceOnUse" color-interpolation-filters="sRGB">
<feFlood flood-opacity="0" result="BackgroundImageFix"/>
<feBlend mode="normal" in="SourceGraphic" in2="BackgroundImageFix" result="shape"/>
<feColorMatrix in="SourceAlpha" type="matrix" values="0 0 0 0 0 0 0 0 0 0 0 0 0 0 0 0 0 0 127 0" result="hardAlpha"/>
<feOffset dx="-1" dy="2"/>
<feGaussianBlur stdDeviation="1"/>
<feComposite in2="hardAlpha" operator="arithmetic" k2="-1" k3="1"/>
<feColorMatrix type="matrix" values="0 0 0 0 0 0 0 0 0 0 0 0 0 0 0 0 0 0 0.25 0"/>
<feBlend mode="normal" in2="shape" result="effect1_innerShadow_360_2102"/>
</filter>
<filter id="filter22_i_360_2102" x="274.805" y="173.88" width="8.34766" height="9.34787" filterUnits="userSpaceOnUse" color-interpolation-filters="sRGB">
<feFlood flood-opacity="0" result="BackgroundImageFix"/>
<feBlend mode="normal" in="SourceGraphic" in2="BackgroundImageFix" result="shape"/>
<feColorMatrix in="SourceAlpha" type="matrix" values="0 0 0 0 0 0 0 0 0 0 0 0 0 0 0 0 0 0 127 0" result="hardAlpha"/>
<feOffset dx="-1" dy="2"/>
<feGaussianBlur stdDeviation="1"/>
<feComposite in2="hardAlpha" operator="arithmetic" k2="-1" k3="1"/>
<feColorMatrix type="matrix" values="0 0 0 0 0 0 0 0 0 0 0 0 0 0 0 0 0 0 0.25 0"/>
<feBlend mode="normal" in2="shape" result="effect1_innerShadow_360_2102"/>
</filter>
<filter id="filter23_i_360_2102" x="283.545" y="165.14" width="8.34766" height="9.34787" filterUnits="userSpaceOnUse" color-interpolation-filters="sRGB">
<feFlood flood-opacity="0" result="BackgroundImageFix"/>
<feBlend mode="normal" in="SourceGraphic" in2="BackgroundImageFix" result="shape"/>
<feColorMatrix in="SourceAlpha" type="matrix" values="0 0 0 0 0 0 0 0 0 0 0 0 0 0 0 0 0 0 127 0" result="hardAlpha"/>
<feOffset dx="-1" dy="2"/>
<feGaussianBlur stdDeviation="1"/>
<feComposite in2="hardAlpha" operator="arithmetic" k2="-1" k3="1"/>
<feColorMatrix type="matrix" values="0 0 0 0 0 0 0 0 0 0 0 0 0 0 0 0 0 0 0.25 0"/>
<feBlend mode="normal" in2="shape" result="effect1_innerShadow_360_2102"/>
</filter>
<filter id="filter24_i_360_2102" x="283.545" y="173.88" width="8.34766" height="9.34787" filterUnits="userSpaceOnUse" color-interpolation-filters="sRGB">
<feFlood flood-opacity="0" result="BackgroundImageFix"/>
<feBlend mode="normal" in="SourceGraphic" in2="BackgroundImageFix" result="shape"/>
<feColorMatrix in="SourceAlpha" type="matrix" values="0 0 0 0 0 0 0 0 0 0 0 0 0 0 0 0 0 0 127 0" result="hardAlpha"/>
<feOffset dx="-1" dy="2"/>
<feGaussianBlur stdDeviation="1"/>
<feComposite in2="hardAlpha" operator="arithmetic" k2="-1" k3="1"/>
<feColorMatrix type="matrix" values="0 0 0 0 0 0 0 0 0 0 0 0 0 0 0 0 0 0 0.25 0"/>
<feBlend mode="normal" in2="shape" result="effect1_innerShadow_360_2102"/>
</filter>
<filter id="filter25_d_360_2102" x="11" y="135" width="62.6885" height="66.9494" filterUnits="userSpaceOnUse" color-interpolation-filters="sRGB">
<feFlood flood-opacity="0" result="BackgroundImageFix"/>
<feColorMatrix in="SourceAlpha" type="matrix" values="0 0 0 0 0 0 0 0 0 0 0 0 0 0 0 0 0 0 127 0" result="hardAlpha"/>
<feOffset dy="4"/>
<feGaussianBlur stdDeviation="2"/>
<feComposite in2="hardAlpha" operator="out"/>
<feColorMatrix type="matrix" values="0 0 0 0 0 0 0 0 0 0 0 0 0 0 0 0 0 0 0.1 0"/>
<feBlend mode="normal" in2="BackgroundImageFix" result="effect1_dropShadow_360_2102"/>
<feBlend mode="normal" in="SourceGraphic" in2="effect1_dropShadow_360_2102" result="shape"/>
</filter>
<filter id="filter26_i_360_2102" x="41" y="164" width="8.56641" height="9.56639" filterUnits="userSpaceOnUse" color-interpolation-filters="sRGB">
<feFlood flood-opacity="0" result="BackgroundImageFix"/>
<feBlend mode="normal" in="SourceGraphic" in2="BackgroundImageFix" result="shape"/>
<feColorMatrix in="SourceAlpha" type="matrix" values="0 0 0 0 0 0 0 0 0 0 0 0 0 0 0 0 0 0 127 0" result="hardAlpha"/>
<feOffset dx="-1" dy="2"/>
<feGaussianBlur stdDeviation="1"/>
<feComposite in2="hardAlpha" operator="arithmetic" k2="-1" k3="1"/>
<feColorMatrix type="matrix" values="0 0 0 0 0 0 0 0 0 0 0 0 0 0 0 0 0 0 0.25 0"/>
<feBlend mode="normal" in2="shape" result="effect1_innerShadow_360_2102"/>
</filter>
<filter id="filter27_i_360_2102" x="41" y="173" width="8.56641" height="9.56639" filterUnits="userSpaceOnUse" color-interpolation-filters="sRGB">
<feFlood flood-opacity="0" result="BackgroundImageFix"/>
<feBlend mode="normal" in="SourceGraphic" in2="BackgroundImageFix" result="shape"/>
<feColorMatrix in="SourceAlpha" type="matrix" values="0 0 0 0 0 0 0 0 0 0 0 0 0 0 0 0 0 0 127 0" result="hardAlpha"/>
<feOffset dx="-1" dy="2"/>
<feGaussianBlur stdDeviation="1"/>
<feComposite in2="hardAlpha" operator="arithmetic" k2="-1" k3="1"/>
<feColorMatrix type="matrix" values="0 0 0 0 0 0 0 0 0 0 0 0 0 0 0 0 0 0 0.25 0"/>
<feBlend mode="normal" in2="shape" result="effect1_innerShadow_360_2102"/>
</filter>
<filter id="filter28_i_360_2102" x="50" y="164" width="8.56641" height="9.56639" filterUnits="userSpaceOnUse" color-interpolation-filters="sRGB">
<feFlood flood-opacity="0" result="BackgroundImageFix"/>
<feBlend mode="normal" in="SourceGraphic" in2="BackgroundImageFix" result="shape"/>
<feColorMatrix in="SourceAlpha" type="matrix" values="0 0 0 0 0 0 0 0 0 0 0 0 0 0 0 0 0 0 127 0" result="hardAlpha"/>
<feOffset dx="-1" dy="2"/>
<feGaussianBlur stdDeviation="1"/>
<feComposite in2="hardAlpha" operator="arithmetic" k2="-1" k3="1"/>
<feColorMatrix type="matrix" values="0 0 0 0 0 0 0 0 0 0 0 0 0 0 0 0 0 0 0.25 0"/>
<feBlend mode="normal" in2="shape" result="effect1_innerShadow_360_2102"/>
</filter>
<filter id="filter29_i_360_2102" x="50" y="173" width="8.56641" height="9.56639" filterUnits="userSpaceOnUse" color-interpolation-filters="sRGB">
<feFlood flood-opacity="0" result="BackgroundImageFix"/>
<feBlend mode="normal" in="SourceGraphic" in2="BackgroundImageFix" result="shape"/>
<feColorMatrix in="SourceAlpha" type="matrix" values="0 0 0 0 0 0 0 0 0 0 0 0 0 0 0 0 0 0 127 0" result="hardAlpha"/>
<feOffset dx="-1" dy="2"/>
<feGaussianBlur stdDeviation="1"/>
<feComposite in2="hardAlpha" operator="arithmetic" k2="-1" k3="1"/>
<feColorMatrix type="matrix" values="0 0 0 0 0 0 0 0 0 0 0 0 0 0 0 0 0 0 0.25 0"/>
<feBlend mode="normal" in2="shape" result="effect1_innerShadow_360_2102"/>
</filter>
<radialGradient id="paint0_radial_360_2102" cx="0" cy="0" r="1" gradientUnits="userSpaceOnUse" gradientTransform="translate(353 57.2714) rotate(146.914) scale(214.239 502.038)">
<stop stop-color="#4D89D4"/>
<stop offset="0.898598" stop-color="#216BC9"/>
</radialGradient>
<linearGradient id="paint1_linear_360_2102" x1="272" y1="27" x2="272" y2="65.1395" gradientUnits="userSpaceOnUse">
<stop stop-color="#9CC4F8"/>
<stop offset="1" stop-color="#4286DC"/>
</linearGradient>
<linearGradient id="paint2_linear_360_2102" x1="325.5" y1="46" x2="325.5" y2="73.4419" gradientUnits="userSpaceOnUse">
<stop stop-color="#9CC4F8"/>
<stop offset="1" stop-color="#4286DC"/>
</linearGradient>
<linearGradient id="paint3_linear_360_2102" x1="174" y1="49" x2="174" y2="87.1395" gradientUnits="userSpaceOnUse">
<stop stop-color="#9CC4F8"/>
<stop offset="1" stop-color="#4286DC"/>
</linearGradient>
<linearGradient id="paint4_linear_360_2102" x1="129.5" y1="38" x2="129.5" y2="65.4419" gradientUnits="userSpaceOnUse">
<stop stop-color="#9CC4F8"/>
<stop offset="1" stop-color="#4286DC"/>
</linearGradient>
<linearGradient id="paint5_linear_360_2102" x1="73.1313" y1="151" x2="73.1313" y2="193.734" gradientUnits="userSpaceOnUse">
<stop stop-color="#75ABF0"/>
<stop offset="1" stop-color="#4D89D4"/>
</linearGradient>
<linearGradient id="paint6_linear_360_2102" x1="119.131" y1="151" x2="119.131" y2="193.734" gradientUnits="userSpaceOnUse">
<stop stop-color="#75ABF0"/>
<stop offset="1" stop-color="#4D89D4"/>
</linearGradient>
<linearGradient id="paint7_linear_360_2102" x1="261.131" y1="154" x2="261.131" y2="196.734" gradientUnits="userSpaceOnUse">
<stop stop-color="#75ABF0"/>
<stop offset="1" stop-color="#4D89D4"/>
</linearGradient>
<linearGradient id="paint8_linear_360_2102" x1="345.131" y1="150" x2="345.131" y2="192.734" gradientUnits="userSpaceOnUse">
<stop stop-color="#75ABF0"/>
<stop offset="1" stop-color="#4D89D4"/>
</linearGradient>
<linearGradient id="paint9_linear_360_2102" x1="289.47" y1="137" x2="289.47" y2="194.224" gradientUnits="userSpaceOnUse">
<stop stop-color="#75ABF0"/>
<stop offset="1" stop-color="#4D89D4"/>
</linearGradient>
<linearGradient id="paint10_linear_360_2102" x1="42.3442" y1="135" x2="42.3442" y2="193.949" gradientUnits="userSpaceOnUse">
<stop stop-color="#75ABF0"/>
<stop offset="1" stop-color="#4D89D4"/>
</linearGradient>
<linearGradient id="paint11_linear_360_2102" x1="30.294" y1="169.991" x2="30.294" y2="196.579" gradientUnits="userSpaceOnUse">
<stop stop-color="#4D89D4"/>
<stop offset="1" stop-color="#216BC9"/>
</linearGradient>
<linearGradient id="paint12_linear_360_2102" x1="30.294" y1="160.116" x2="30.294" y2="186.704" gradientUnits="userSpaceOnUse">
<stop stop-color="#4D89D4"/>
<stop offset="1" stop-color="#216BC9"/>
</linearGradient>
<linearGradient id="paint13_linear_360_2102" x1="30.2938" y1="151" x2="30.2938" y2="173.03" gradientUnits="userSpaceOnUse">
<stop stop-color="#4D89D4"/>
<stop offset="1" stop-color="#216BC9"/>
</linearGradient>
<linearGradient id="paint14_linear_360_2102" x1="217.294" y1="167.991" x2="217.294" y2="194.579" gradientUnits="userSpaceOnUse">
<stop stop-color="#4D89D4"/>
<stop offset="1" stop-color="#216BC9"/>
</linearGradient>
<linearGradient id="paint15_linear_360_2102" x1="217.294" y1="158.116" x2="217.294" y2="184.704" gradientUnits="userSpaceOnUse">
<stop stop-color="#4D89D4"/>
<stop offset="1" stop-color="#216BC9"/>
</linearGradient>
<linearGradient id="paint16_linear_360_2102" x1="217.294" y1="149" x2="217.294" y2="171.03" gradientUnits="userSpaceOnUse">
<stop stop-color="#4D89D4"/>
<stop offset="1" stop-color="#216BC9"/>
</linearGradient>
<linearGradient id="paint17_linear_360_2102" x1="135.086" y1="174.408" x2="135.086" y2="194.579" gradientUnits="userSpaceOnUse">
<stop stop-color="#4D89D4"/>
<stop offset="1" stop-color="#216BC9"/>
</linearGradient>
<linearGradient id="paint18_linear_360_2102" x1="135.086" y1="166.916" x2="135.086" y2="187.087" gradientUnits="userSpaceOnUse">
<stop stop-color="#4D89D4"/>
<stop offset="1" stop-color="#216BC9"/>
</linearGradient>
<linearGradient id="paint19_linear_360_2102" x1="135.086" y1="160" x2="135.086" y2="176.713" gradientUnits="userSpaceOnUse">
<stop stop-color="#4D89D4"/>
<stop offset="1" stop-color="#216BC9"/>
</linearGradient>
<linearGradient id="paint20_linear_360_2102" x1="9.08564" y1="175.408" x2="9.08564" y2="195.579" gradientUnits="userSpaceOnUse">
<stop stop-color="#4D89D4"/>
<stop offset="1" stop-color="#216BC9"/>
</linearGradient>
<linearGradient id="paint21_linear_360_2102" x1="9.08564" y1="167.916" x2="9.08564" y2="188.087" gradientUnits="userSpaceOnUse">
<stop stop-color="#4D89D4"/>
<stop offset="1" stop-color="#216BC9"/>
</linearGradient>
<linearGradient id="paint22_linear_360_2102" x1="9.08567" y1="161" x2="9.08567" y2="177.713" gradientUnits="userSpaceOnUse">
<stop stop-color="#4D89D4"/>
<stop offset="1" stop-color="#216BC9"/>
</linearGradient>
<linearGradient id="paint23_linear_360_2102" x1="238.086" y1="174.408" x2="238.086" y2="194.579" gradientUnits="userSpaceOnUse">
<stop stop-color="#4D89D4"/>
<stop offset="1" stop-color="#216BC9"/>
</linearGradient>
<linearGradient id="paint24_linear_360_2102" x1="238.086" y1="166.916" x2="238.086" y2="187.087" gradientUnits="userSpaceOnUse">
<stop stop-color="#4D89D4"/>
<stop offset="1" stop-color="#216BC9"/>
</linearGradient>
<linearGradient id="paint25_linear_360_2102" x1="238.086" y1="160" x2="238.086" y2="176.713" gradientUnits="userSpaceOnUse">
<stop stop-color="#4D89D4"/>
<stop offset="1" stop-color="#216BC9"/>
</linearGradient>
<linearGradient id="paint26_linear_360_2102" x1="359.086" y1="173.408" x2="359.086" y2="193.579" gradientUnits="userSpaceOnUse">
<stop stop-color="#4D89D4"/>
<stop offset="1" stop-color="#216BC9"/>
</linearGradient>
<linearGradient id="paint27_linear_360_2102" x1="359.086" y1="165.916" x2="359.086" y2="186.087" gradientUnits="userSpaceOnUse">
<stop stop-color="#4D89D4"/>
<stop offset="1" stop-color="#216BC9"/>
</linearGradient>
<linearGradient id="paint28_linear_360_2102" x1="359.086" y1="159" x2="359.086" y2="175.713" gradientUnits="userSpaceOnUse">
<stop stop-color="#4D89D4"/>
<stop offset="1" stop-color="#216BC9"/>
</linearGradient>
<linearGradient id="paint29_linear_360_2102" x1="303.086" y1="174.408" x2="303.086" y2="194.579" gradientUnits="userSpaceOnUse">
<stop stop-color="#4D89D4"/>
<stop offset="1" stop-color="#216BC9"/>
</linearGradient>
<linearGradient id="paint30_linear_360_2102" x1="303.086" y1="166.916" x2="303.086" y2="187.087" gradientUnits="userSpaceOnUse">
<stop stop-color="#4D89D4"/>
<stop offset="1" stop-color="#216BC9"/>
</linearGradient>
<linearGradient id="paint31_linear_360_2102" x1="303.086" y1="160" x2="303.086" y2="176.713" gradientUnits="userSpaceOnUse">
<stop stop-color="#4D89D4"/>
<stop offset="1" stop-color="#216BC9"/>
</linearGradient>
<clipPath id="clip0_360_2102">
<rect width="375" height="211" fill="white"/>
</clipPath>
</defs>
</svg>
