<svg width="32" height="32" viewBox="0 0 32 32" fill="none" xmlns="http://www.w3.org/2000/svg">
<rect width="32" height="32" rx="4" fill="#EBEBEB"/>
<path d="M13.471 15.6468C13.471 17.7629 12.9339 19.8445 11.9097 21.6963C11.8485 21.8067 11.7662 21.904 11.6674 21.9826C11.5686 22.0611 11.4554 22.1195 11.334 22.1543C11.2127 22.1891 11.0857 22.1996 10.9603 22.1853C10.8349 22.1711 10.7135 22.1322 10.6031 22.071C10.3802 21.9474 10.2154 21.7403 10.1452 21.4953C10.1104 21.374 10.0998 21.247 10.1141 21.1216C10.1284 20.9962 10.1672 20.8748 10.2284 20.7644C11.0951 19.1979 11.5497 17.437 11.5495 15.6468C11.5495 14.7224 11.8163 13.8177 12.3178 13.0412C12.8193 12.2646 13.5342 11.6493 14.3767 11.2689C15.2192 10.8886 16.1535 10.7594 17.0676 10.8969C17.9817 11.0343 18.8367 11.4326 19.5301 12.044C19.6247 12.1274 19.702 12.2287 19.7575 12.3421C19.8129 12.4554 19.8456 12.5786 19.8534 12.7045C19.8613 12.8305 19.8443 12.9567 19.8034 13.0761C19.7625 13.1955 19.6985 13.3056 19.615 13.4002C19.5315 13.4948 19.4302 13.5721 19.3169 13.6276C19.2035 13.6831 19.0804 13.7157 18.9544 13.7235C18.8285 13.7314 18.7022 13.7144 18.5829 13.6735C18.4635 13.6326 18.3533 13.5686 18.2587 13.4851C17.8427 13.1185 17.3297 12.8797 16.7814 12.7973C16.233 12.715 15.6725 12.7925 15.1672 13.0207C14.6618 13.2489 14.2329 13.618 13.9321 14.0838C13.6312 14.5496 13.4711 15.0923 13.471 15.6468ZM20.209 15.0063H20.1962C19.9442 15.0062 19.7022 15.1053 19.5225 15.282C19.3428 15.4587 19.2397 15.699 19.2355 15.951C19.2017 18.2276 18.74 20.4775 17.8744 22.5834C17.8233 22.7006 17.7962 22.8268 17.7945 22.9547C17.7928 23.0825 17.8166 23.2094 17.8646 23.3279C17.9126 23.4464 17.9837 23.5541 18.0739 23.6447C18.164 23.7354 18.2713 23.8071 18.3896 23.8558C18.5078 23.9044 18.6345 23.929 18.7624 23.928C18.8902 23.9271 19.0166 23.9006 19.1341 23.8502C19.2515 23.7998 19.3578 23.7264 19.4465 23.6344C19.5353 23.5424 19.6048 23.4336 19.651 23.3144C20.6087 20.9868 21.1196 18.4997 21.157 15.983C21.1591 15.8565 21.1362 15.7309 21.0896 15.6132C21.0431 15.4956 20.9737 15.3883 20.8855 15.2976C20.7974 15.2068 20.6922 15.1344 20.5759 15.0844C20.4597 15.0344 20.3348 15.0078 20.2082 15.0063H20.209ZM15.2275 21.5082C14.9988 21.3977 14.7355 21.3824 14.4955 21.4655C14.2554 21.5486 14.058 21.7234 13.9465 21.9517C13.8368 22.1767 13.7184 22.4041 13.5959 22.6259C13.5347 22.7362 13.4959 22.8576 13.4817 22.983C13.4674 23.1084 13.478 23.2354 13.5129 23.3566C13.5477 23.4779 13.6061 23.5912 13.6847 23.6899C13.7633 23.7887 13.8606 23.8709 13.971 23.9321C14.0814 23.9932 14.2027 24.032 14.3281 24.0462C14.4535 24.0605 14.5805 24.0499 14.7017 24.0151C14.823 23.9802 14.9363 23.9218 15.035 23.8432C15.1338 23.7647 15.216 23.6674 15.2772 23.557C15.4165 23.3056 15.5502 23.0486 15.6775 22.7924C15.7324 22.6785 15.7644 22.5549 15.7714 22.4287C15.7785 22.3024 15.7606 22.176 15.7187 22.0567C15.6768 21.9374 15.6118 21.8275 15.5274 21.7334C15.443 21.6393 15.3408 21.5627 15.2267 21.5082H15.2275ZM16.3532 14.686C16.0984 14.686 15.854 14.7872 15.6739 14.9674C15.4937 15.1476 15.3925 15.392 15.3925 15.6468C15.3929 16.7589 15.2653 17.8673 15.0122 18.9502C14.9541 19.1982 14.9968 19.4591 15.131 19.6756C15.2652 19.8921 15.48 20.0464 15.7279 20.1047C15.8001 20.1218 15.874 20.1304 15.9481 20.1303C16.1646 20.1301 16.3747 20.0567 16.5442 19.9221C16.7138 19.7876 16.833 19.5997 16.8824 19.3889C17.1697 18.1623 17.3145 16.9066 17.314 15.6468C17.314 15.392 17.2128 15.1476 17.0326 14.9674C16.8524 14.7872 16.608 14.686 16.3532 14.686ZM16.3532 7C15.4987 6.99933 14.6488 7.12533 13.8312 7.3739C13.7103 7.41069 13.5979 7.47095 13.5002 7.55122C13.4026 7.63149 13.3217 7.7302 13.2623 7.84171C13.2028 7.95323 13.1659 8.07537 13.1536 8.20116C13.1413 8.32695 13.1539 8.45393 13.1907 8.57484C13.2651 8.81903 13.4333 9.02369 13.6586 9.14381C13.7701 9.20329 13.8922 9.24022 14.018 9.25249C14.1438 9.26476 14.2708 9.25214 14.3917 9.21534C15.3968 8.90991 16.4595 8.84401 17.4947 9.02293C18.5298 9.20185 19.5087 9.62062 20.353 10.2457C21.1974 10.8708 21.8836 11.6849 22.3569 12.6227C22.8301 13.5606 23.0773 14.5963 23.0785 15.6468C23.0792 17.2991 22.8955 18.9463 22.5309 20.5578C22.5029 20.6809 22.4995 20.8083 22.5208 20.9327C22.5421 21.057 22.5877 21.176 22.655 21.2828C22.7223 21.3896 22.8099 21.482 22.9129 21.5549C23.016 21.6278 23.1324 21.6796 23.2554 21.7075C23.3253 21.7237 23.3967 21.7318 23.4684 21.7316C23.6862 21.7315 23.8975 21.6575 24.0677 21.5216C24.2379 21.3858 24.3569 21.1961 24.4051 20.9838C24.801 19.2324 25.0006 17.4423 25 15.6468C24.9975 13.3543 24.0856 11.1564 22.4646 9.53539C20.8436 7.91436 18.6457 7.00255 16.3532 7ZM11.5871 9.54119C11.4978 9.45163 11.3918 9.38056 11.275 9.33207C11.1582 9.28358 11.033 9.25862 10.9066 9.25862C10.7801 9.25862 10.6549 9.28358 10.5381 9.33207C10.4213 9.38056 10.3153 9.45163 10.226 9.54119C9.42405 10.3424 8.78854 11.2943 8.35612 12.3422C7.92369 13.3901 7.70289 14.5132 7.70644 15.6468C7.70905 16.614 7.50114 17.5702 7.09716 18.449C7.04103 18.5641 7.00849 18.6893 7.00145 18.8172C6.99441 18.9451 7.01302 19.0731 7.05617 19.1937C7.09932 19.3143 7.16616 19.425 7.25274 19.5194C7.33932 19.6138 7.4439 19.6899 7.56033 19.7433C7.67676 19.7967 7.80269 19.8263 7.93071 19.8303C8.05873 19.8343 8.18626 19.8127 8.3058 19.7667C8.42534 19.7207 8.53448 19.6512 8.62679 19.5624C8.7191 19.4736 8.79273 19.3673 8.84333 19.2496C9.36302 18.1198 9.63075 16.8904 9.62795 15.6468C9.62545 14.7652 9.7975 13.8919 10.1342 13.0772C10.4708 12.2625 10.9654 11.5225 11.5895 10.8999C11.7693 10.7194 11.8701 10.4748 11.8697 10.22C11.8692 9.96523 11.7676 9.72105 11.5871 9.54119Z" fill="url(#paint0_linear_189_4130)"/>
<defs>
<linearGradient id="paint0_linear_189_4130" x1="16" y1="7" x2="16" y2="24.0524" gradientUnits="userSpaceOnUse">
<stop stop-color="#4D89D4"/>
<stop offset="1" stop-color="#216BC9"/>
</linearGradient>
</defs>
</svg>
