<svg width="32" height="32" viewBox="0 0 32 32" fill="none" xmlns="http://www.w3.org/2000/svg">
<rect width="32" height="32" rx="4" fill="#EBEBEB"/>
<path d="M7.41753 24.6953L9.6021 17.8686C9.73463 17.4544 10.1197 17.1733 10.5545 17.1733H21.0705C21.519 17.1733 21.9126 17.4719 22.0335 17.9037L23.945 24.7305C24.1235 25.3681 23.6442 26.0001 22.982 26.0001H8.36995C7.69245 26.0001 7.21104 25.3406 7.41753 24.6953Z" fill="url(#paint0_linear_189_3996)"/>
<circle cx="12.4065" cy="19.6962" r="0.720853" fill="#FFCA08"/>
<circle cx="12.4065" cy="22.5795" r="0.720853" fill="#FFCA08"/>
<circle cx="16.0106" cy="19.6962" r="0.720853" fill="#FFCA08"/>
<circle cx="16.0106" cy="22.5795" r="0.720853" fill="#FFCA08"/>
<circle cx="19.6149" cy="19.6962" r="0.720853" fill="#FFCA08"/>
<circle cx="19.6149" cy="22.5795" r="0.720853" fill="#FFCA08"/>
<rect x="7.36047" y="6" width="17.3005" height="10.0919" rx="2" fill="url(#paint1_linear_189_3996)"/>
<defs>
<linearGradient id="paint0_linear_189_3996" x1="15.6502" y1="17.1733" x2="15.6502" y2="26.0001" gradientUnits="userSpaceOnUse">
<stop stop-color="#4D89D4"/>
<stop offset="1" stop-color="#216BC9"/>
</linearGradient>
<linearGradient id="paint1_linear_189_3996" x1="16.0107" y1="6" x2="16.0107" y2="16.0919" gradientUnits="userSpaceOnUse">
<stop stop-color="#4D89D4"/>
<stop offset="1" stop-color="#216BC9"/>
</linearGradient>
</defs>
</svg>
