<svg width="32" height="32" viewBox="0 0 32 32" fill="none" xmlns="http://www.w3.org/2000/svg">
<g filter="url(#filter0_b_189_3911)">
<rect width="32" height="32" rx="4" fill="#EBEBEB"/>
<path d="M6.31812 10.589H25.6822L22.5852 6.05329C22.4524 5.83664 22.2713 5.6577 22.0577 5.53216C21.8442 5.40662 21.6047 5.33832 21.3603 5.33325H10.6351C10.3958 5.34337 10.1623 5.41407 9.95435 5.53938C9.74638 5.66469 9.57 5.84095 9.44007 6.05329L6.31812 10.589Z" fill="url(#paint0_linear_189_3911)"/>
<path d="M7.63086 15.8445V24.5937H18.0737V20.7368C18.0607 20.4737 18.0992 20.2107 18.1869 19.9636C18.2746 19.7166 18.4096 19.4907 18.5838 19.2997C18.7581 19.1087 18.9678 18.9566 19.2003 18.8527C19.4327 18.7488 19.6831 18.6952 19.9361 18.6952C20.1891 18.6952 20.4394 18.7488 20.6719 18.8527C20.9043 18.9566 21.1141 19.1087 21.2883 19.2997C21.4625 19.4907 21.5976 19.7166 21.6853 19.9636C21.773 20.2107 21.8114 20.4737 21.7984 20.7368V24.604H24.0411V15.8445H7.63086Z" fill="url(#paint1_linear_189_3911)"/>
<path d="M24.0434 17.5967C23.6946 17.5967 23.3601 17.4409 23.1134 17.1635C22.8668 16.8861 22.7282 16.5099 22.7282 16.1176V12.6913H25.3539V16.123C25.3526 16.5134 25.2142 16.8874 24.9687 17.1635C24.7232 17.4396 24.3906 17.5953 24.0434 17.5967Z" fill="#104B97"/>
<path d="M21.4274 17.5967C21.076 17.5967 20.7391 17.4409 20.4906 17.1635C20.2422 16.8861 20.1026 16.5099 20.1026 16.1176V12.6913H22.7283V16.123C22.7271 16.5097 22.5902 16.8806 22.3471 17.1561C22.1039 17.4316 21.7737 17.5897 21.4274 17.5967Z" fill="#FFCA08"/>
<path d="M18.6416 17.5964C18.4472 17.6 18.2541 17.5645 18.0735 17.492C17.8929 17.4195 17.7284 17.3115 17.5895 17.1742C17.4506 17.0369 17.3401 16.8731 17.2644 16.6924C17.1888 16.5116 17.1495 16.3174 17.1488 16.1212V12.6913H20.1027V16.1212C20.1013 16.512 19.9469 16.8864 19.6732 17.1628C19.3995 17.4392 19.0286 17.595 18.6416 17.5964Z" fill="#104B97"/>
<path d="M15.8359 17.5967C15.6635 17.5967 15.4927 17.5584 15.3335 17.4841C15.1742 17.4098 15.0295 17.3008 14.9076 17.1635C14.7857 17.0261 14.6889 16.8631 14.623 16.6836C14.557 16.5042 14.523 16.3119 14.523 16.1176V12.6913H17.1487V16.123C17.1474 16.5143 17.0086 16.8891 16.7625 17.1654C16.5164 17.4416 16.1832 17.5967 15.8359 17.5967Z" fill="#FFCA08"/>
<path d="M13.2126 17.5967C12.8638 17.5967 12.5293 17.4409 12.2826 17.1635C12.036 16.8861 11.8974 16.5099 11.8974 16.1176V12.6913H14.5231V16.123C14.5218 16.5134 14.3834 16.8874 14.1379 17.1635C13.8924 17.4396 13.5598 17.5953 13.2126 17.5967Z" fill="#104B97"/>
<path d="M10.5846 17.5967C10.2365 17.5967 9.90254 17.4409 9.65634 17.1635C9.41013 16.8861 9.27182 16.5099 9.27182 16.1176V12.6913H11.8975V16.123C11.8962 16.5143 11.7573 16.8891 11.5113 17.1654C11.2652 17.4416 10.932 17.5967 10.5846 17.5967Z" fill="#FFCA08"/>
<path d="M7.78438 17.5965C7.39547 17.5965 7.02249 17.4407 6.7475 17.1633C6.4725 16.886 6.318 16.5098 6.318 16.1175V12.6913H9.27185V16.1228C9.27117 16.3184 9.23204 16.5119 9.15672 16.6922C9.0814 16.8724 8.97139 17.0357 8.83305 17.1728C8.69472 17.3099 8.5308 17.4179 8.3508 17.4906C8.17079 17.5633 7.97827 17.5993 7.78438 17.5965Z" fill="#104B97"/>
<path d="M6.31313 12.6912L25.687 12.6912C26.2281 12.6912 26.6667 12.2217 26.6667 11.6426V11.6374C26.6667 11.0583 26.2281 10.5889 25.687 10.5889L6.31313 10.5889C5.77205 10.5889 5.33341 11.0583 5.33341 11.6374V11.6426C5.33341 12.2217 5.77205 12.6912 6.31313 12.6912Z" fill="url(#paint2_linear_189_3911)"/>
<path d="M6.31313 26.7063L25.687 26.7063C26.2281 26.7063 26.6667 26.2369 26.6667 25.6578V25.6525C26.6667 25.0735 26.2281 24.604 25.687 24.604L6.31313 24.604C5.77205 24.604 5.33341 25.0735 5.33341 25.6525V25.6578C5.33341 26.2369 5.77205 26.7063 6.31313 26.7063Z" fill="url(#paint3_linear_189_3911)"/>
</g>
<defs>
<filter id="filter0_b_189_3911" x="-4" y="-4" width="40" height="40" filterUnits="userSpaceOnUse" color-interpolation-filters="sRGB">
<feFlood flood-opacity="0" result="BackgroundImageFix"/>
<feGaussianBlur in="BackgroundImageFix" stdDeviation="2"/>
<feComposite in2="SourceAlpha" operator="in" result="effect1_backgroundBlur_189_3911"/>
<feBlend mode="normal" in="SourceGraphic" in2="effect1_backgroundBlur_189_3911" result="shape"/>
</filter>
<linearGradient id="paint0_linear_189_3911" x1="16.9387" y1="14.9722" x2="12.227" y2="-4.85879" gradientUnits="userSpaceOnUse">
<stop offset="0.03" stop-color="#104B97"/>
<stop offset="0.12" stop-color="#124E9C"/>
<stop offset="0.22" stop-color="#1758AA"/>
<stop offset="0.33" stop-color="#1F69C0"/>
<stop offset="0.43" stop-color="#297EDE"/>
</linearGradient>
<linearGradient id="paint1_linear_189_3911" x1="17.7903" y1="29.3617" x2="11.1716" y2="1.10572" gradientUnits="userSpaceOnUse">
<stop offset="0.03" stop-color="#297EDE"/>
<stop offset="0.24" stop-color="#277AD9"/>
<stop offset="0.49" stop-color="#2270CB"/>
<stop offset="0.75" stop-color="#1A5FB3"/>
<stop offset="0.99" stop-color="#104B97"/>
</linearGradient>
<linearGradient id="paint2_linear_189_3911" x1="17.041" y1="16.5864" x2="13.3692" y2="1.32709" gradientUnits="userSpaceOnUse">
<stop offset="0.03" stop-color="#104B97"/>
<stop offset="0.12" stop-color="#124E9C"/>
<stop offset="0.22" stop-color="#1758AA"/>
<stop offset="0.33" stop-color="#1F69C0"/>
<stop offset="0.43" stop-color="#297EDE"/>
</linearGradient>
<linearGradient id="paint3_linear_189_3911" x1="17.041" y1="30.6016" x2="13.3692" y2="15.3422" gradientUnits="userSpaceOnUse">
<stop offset="0.03" stop-color="#104B97"/>
<stop offset="0.12" stop-color="#124E9C"/>
<stop offset="0.22" stop-color="#1758AA"/>
<stop offset="0.33" stop-color="#1F69C0"/>
<stop offset="0.43" stop-color="#297EDE"/>
</linearGradient>
</defs>
</svg>
