<svg width="104" height="104" viewBox="0 0 104 104" fill="none" xmlns="http://www.w3.org/2000/svg">
<path d="M52 104C80.7188 104 104 80.7188 104 52C104 23.2812 80.7188 0 52 0C23.2812 0 0 23.2812 0 52C0 80.7188 23.2812 104 52 104Z" fill="url(#paint0_linear_1_2)"/>
<path d="M71.3885 52.0028H64.9888L64.9711 51.3313L64.9207 50.6708L64.8376 50.0211L64.7232 49.3824L64.5788 48.7545L64.4045 48.1389L64.2002 47.537L63.9687 46.9486L63.7086 46.3739L63.4225 45.8141L63.1093 45.2707L62.7715 44.7436L62.4093 44.2343L62.0238 43.7426L61.6153 43.2714L61.1849 42.8192L60.7327 42.3889L60.2615 41.9803L59.7698 41.5949L59.2605 41.2326L58.7334 40.8948L58.19 40.5816L57.6302 40.2956L57.0555 40.0354L56.4672 39.8025L55.8652 39.5983L55.2496 39.4239L54.6217 39.2796L53.983 39.1652L53.3333 39.0821L52.6728 39.0317L52.0014 39.014V32.6143L52.9956 32.6401L53.9789 32.715L54.9486 32.8376L55.9047 33.0079L56.843 33.2244L57.7637 33.4859L58.6653 33.791L59.5465 34.1383L60.4059 34.5264L61.2421 34.9554L62.0538 35.4226L62.841 35.9265L63.601 36.4672L64.3323 37.0419L65.0351 37.6507L65.7079 38.2922L66.3493 38.965L66.9581 39.6677L67.5329 40.3991L68.0735 41.159L68.5775 41.9462L69.0446 42.7579L69.4736 43.5942L69.8618 44.4536L70.2091 45.3347L70.5141 46.2363L70.7756 47.157L70.9922 48.0954L71.1624 49.0514L71.285 50.0225L71.3599 51.0058L71.3858 52L71.3885 52.0028ZM52.0014 71.3899V64.9902L52.6728 64.9724L53.3333 64.9221L53.983 64.839L54.6217 64.7246L55.2496 64.5802L55.8652 64.4059L56.4672 64.2016L57.0555 63.9687L57.6302 63.7086L58.19 63.4226L58.7334 63.1093L59.2605 62.7716L59.7698 62.4093L60.2615 62.0239L60.7327 61.6153L61.1849 61.1849L61.6153 60.7328L62.0238 60.2615L62.4093 59.7699L62.7715 59.2605L63.1093 58.7334L63.4225 58.19L63.7086 57.6303L63.9687 57.0555L64.2016 56.4672L64.4059 55.8652L64.5802 55.2496L64.7245 54.6218L64.839 53.983L64.922 53.3334L64.9724 52.6728L64.9901 52.0014H71.3898L71.364 52.9956L71.2891 53.9789L71.1665 54.9486L70.9963 55.9047L70.7797 56.8431L70.5182 57.7637L70.2131 58.6653L69.8658 59.5465L69.4777 60.4059L69.0487 61.2421L68.5815 62.0538L68.0776 62.841L67.5369 63.601L66.9622 64.3323L66.3534 65.0351L65.7119 65.7079L65.0392 66.3494L64.3364 66.9582L63.605 67.5329L62.8451 68.0736L62.0579 68.5775L61.2462 69.0446L60.4099 69.4736L59.5506 69.8618L58.6694 70.2091L57.7678 70.5142L56.8471 70.7757L55.9088 70.9922L54.9527 71.1624L53.983 71.285L52.9997 71.3599L52.0055 71.3858L52.0014 71.3899ZM32.6143 52.0028H39.014L39.0317 52.6742L39.0821 53.3347L39.1652 53.9844L39.2796 54.6231L39.4239 55.251L39.5982 55.8666L39.8025 56.4685L40.0354 57.0569L40.2956 57.6316L40.5816 58.1914L40.8948 58.7348L41.2326 59.2619L41.5948 59.7712L41.9803 60.2629L42.3889 60.7341L42.8192 61.1863L43.2714 61.6166L43.7426 62.0252L44.2343 62.4107L44.7436 62.7729L45.2707 63.1107L45.8141 63.4239L46.3739 63.7099L46.9486 63.9701L47.537 64.203L48.1389 64.4073L48.7545 64.5816L49.3824 64.7259L50.0211 64.8403L50.6708 64.9234L51.3313 64.9738L52.0027 64.9915V71.3912L51.0085 71.3654L50.0252 71.2905L49.0555 71.1679L48.0994 70.9977L47.1611 70.7811L46.2404 70.5196L45.3388 70.2145L44.4576 69.8672L43.5983 69.4791L42.762 69.0501L41.9503 68.5829L41.1631 68.079L40.4032 67.5383L39.6718 66.9636L38.969 66.3548L38.2962 65.7133L37.6548 65.0405L37.046 64.3378L36.4713 63.6064L35.9306 62.8465L35.4267 62.0593L34.9595 61.2476L34.5305 60.4113L34.1423 59.552L33.7951 58.6708L33.49 57.7692L33.2285 56.8485L33.0119 55.9101L32.8417 54.9541L32.7191 53.9844L32.6442 53.0011L32.6183 52.0068L32.6143 52.0028ZM52.0014 32.6156V39.0153L51.3299 39.0331L50.6694 39.0834L50.0198 39.1665L49.381 39.2809L48.7532 39.4253L48.1376 39.5996L47.5356 39.8039L46.9472 40.0368L46.3725 40.2969L45.8128 40.5829L45.2693 40.8962L44.7423 41.2339L44.2329 41.5962L43.7413 41.9816L43.27 42.3902L42.8179 42.8206L42.3875 43.2728L41.9789 43.744L41.5935 44.2356L41.2312 44.745L40.8934 45.2721L40.5802 45.8155L40.2942 46.3752L40.0341 46.95L39.8025 47.5383L39.5982 48.1403L39.4239 48.7559L39.2796 49.3838L39.1652 50.0225L39.0821 50.6721L39.0317 51.3327L39.014 52.0041H32.6143L32.6401 51.0099L32.715 50.0266L32.8376 49.0555L33.0079 48.0994L33.2244 47.1611L33.4859 46.2404L33.791 45.3388L34.1383 44.4576L34.5264 43.5983L34.9554 42.762L35.4226 41.9503L35.9265 41.1631L36.4672 40.4032L37.0419 39.6718L37.6507 38.969L38.2922 38.2962L38.965 37.6548L39.6677 37.046L40.3991 36.4713L41.159 35.9306L41.9462 35.4267L42.7579 34.9595L43.5942 34.5305L44.4535 34.1423L45.3347 33.7951L46.2363 33.49L47.157 33.2285L48.0954 33.0119L49.0514 32.8417L50.0211 32.7191L51.0044 32.6442L51.9987 32.6183L52.0014 32.6156Z" fill="url(#paint1_linear_1_2)"/>
<path d="M85.4392 36.9993C86.1624 38.6118 85.4419 40.5049 83.8294 41.2294C82.2168 41.9526 80.3238 41.2322 79.5992 39.6196L85.4392 37.0006V36.9993ZM51.9996 21.7497V15.35L53.3479 15.3745L54.6881 15.4481L56.0187 15.5706L57.3384 15.7395L58.6459 15.9561L59.9397 16.2189L61.2199 16.5267L62.4838 16.8794L63.7313 17.2771L64.9625 17.7184L66.1746 18.2019L67.3663 18.7276L68.5376 19.2942L69.687 19.9016L70.8134 20.5485L71.9165 21.2349L72.9938 21.9595L74.0452 22.7221L75.0694 23.523L76.0663 24.3592L77.0333 25.2322L77.9703 26.1406L78.876 27.0831L79.749 28.0596L80.5893 29.0687L81.3942 30.1106L82.1637 31.1838L82.8964 32.2884L83.591 33.4228L84.2475 34.5873L84.8631 35.7804L85.4378 37.0006L79.5978 39.6196L79.1225 38.6104L78.6145 37.6258L78.0738 36.6656L77.5005 35.73L76.8958 34.8188L76.2611 33.9336L75.5965 33.0742L74.9033 32.242L74.1828 31.4358L73.4351 30.6581L72.6615 29.9091L71.8634 29.1886L71.0408 28.4981L70.195 27.8376L69.3261 27.207L68.4368 26.6077L67.527 26.0412L66.5968 25.5059L65.6476 25.0047L64.6806 24.5376L63.6959 24.1031L62.6962 23.7041L61.6816 23.3405L60.652 23.0122L59.6087 22.7208L58.5532 22.4661L57.4855 22.2495L56.4068 22.0711L55.3187 21.9309L54.2209 21.8301L53.1137 21.7688L51.9996 21.7484V21.7497ZM21.7497 51.9996H15.35L15.3977 50.1174L15.5393 48.257L15.7722 46.4225L16.095 44.6166L16.5049 42.842L16.9993 41.1014L17.5754 39.3976L18.2318 37.732L18.9659 36.1072L19.7749 34.526L20.6575 32.9911L21.6108 31.5039L22.6323 30.067L23.7204 28.6833L24.8726 27.3541L26.0848 26.082L27.3568 24.8685L28.686 23.7177L30.0698 22.6309L31.5066 21.6094L32.9938 20.6561L34.5287 19.7736L36.1099 18.9646L37.7347 18.2305L39.4004 17.574L41.1042 16.9979L42.8447 16.5036L44.6193 16.0936L46.4252 15.7708L48.2598 15.5379L50.1202 15.3963L52.0023 15.3486V21.7484L50.4429 21.7879L48.9053 21.905L47.3908 22.097L45.9022 22.3626L44.4395 22.7003L43.0054 23.1076L41.6013 23.5829L40.2284 24.1236L38.8896 24.7296L37.5863 25.397L36.3197 26.1256L35.0926 26.9128L33.9063 27.7572L32.7637 28.6561L31.666 29.6081L30.6145 30.6105L29.6122 31.6619L28.6615 32.7596L27.7627 33.9036L26.9196 35.0899L26.1324 36.317L25.4038 37.5836L24.7364 38.8869L24.1304 40.2257L23.5897 41.5985L23.1144 43.0027L22.7072 44.4368L22.3694 45.8995L22.1038 47.3881L21.9118 48.9026L21.7947 50.4402L21.7552 51.9996H21.7497ZM51.9996 82.2495V88.6492L50.1174 88.6016L48.257 88.4599L46.4225 88.227L44.6166 87.9043L42.842 87.4943L41.1014 86.9999L39.3977 86.4238L37.732 85.7674L36.1072 85.0333L34.526 84.2229L32.9911 83.3404L31.5039 82.3871L30.067 81.3656L28.6833 80.2788L27.3541 79.1266L26.082 77.9131L24.8699 76.6411L23.7191 75.3118L22.6309 73.9281L21.6094 72.4913L20.6561 71.004L19.7736 69.4691L18.9646 67.8879L18.2305 66.2631L17.574 64.5975L16.9979 62.8937L16.5036 61.1532L16.0936 59.3786L15.7708 57.5726L15.5379 55.7381L15.3963 53.8777L15.3486 51.9955H21.7484L21.7879 53.5549L21.905 55.0926L22.097 56.607L22.3626 58.0956L22.7004 59.5583L23.1076 60.9925L23.5829 62.3966L24.1236 63.7694L24.7296 65.1082L25.397 66.4116L26.1256 67.6782L26.9128 68.9053L27.7558 70.0915L28.6547 71.2342L29.6067 72.3319L30.6091 73.3833L31.6605 74.3857L32.7582 75.3363L33.9009 76.2352L35.0871 77.0796L36.3142 77.8668L37.5808 78.5954L38.8842 79.2628L40.223 79.8688L41.5958 80.4095L43 80.8849L44.4341 81.2921L45.8968 81.6298L47.3854 81.8954L48.8999 82.0874L50.4375 82.2046L51.9969 82.2441L51.9996 82.2495ZM85.4487 55.2002V48.8004L88.6492 52.001L88.6016 53.8832L88.4599 55.7436L88.227 57.5781L87.9043 59.384L87.4943 61.1586L86.9999 62.8992L86.4238 64.6029L85.7674 66.2686L85.0333 67.8934L84.2243 69.4746L83.3418 71.0095L82.3884 72.4967L81.367 73.9335L80.2802 75.3173L79.128 76.6465L77.9158 77.9186L76.6438 79.132L75.3146 80.2842L73.9308 81.3711L72.494 82.3925L71.0068 83.3459L69.4719 84.2284L67.8907 85.0387L66.2659 85.7728L64.6002 86.4293L62.8964 87.0054L61.1559 87.4998L59.3813 87.9097L57.5754 88.2325L55.7409 88.4654L53.8804 88.607L51.9983 88.6547V82.255L53.5577 82.2155L55.0953 82.0983L56.6098 81.9063L58.0984 81.6407L59.5611 81.303L60.9952 80.8957L62.3993 80.4204L63.7722 79.8797L65.111 79.2737L66.4143 78.6063L67.6809 77.8777L68.908 77.0905L70.0943 76.2461L71.2369 75.3472L72.3346 74.3966L73.3861 73.3942L74.3884 72.3428L75.3391 71.2451L76.238 70.1024L77.0823 68.9162L77.8695 67.6891L78.5982 66.4225L79.2655 65.1191L79.8716 63.7803L80.4123 62.4075L80.8876 61.0034L81.2948 59.5692L81.6326 58.1065L81.8981 56.6179L82.0902 55.1035L82.2073 53.5658L82.2468 52.0064L85.4473 55.207L85.4487 55.2002ZM82.2482 51.9996C82.2482 50.2318 83.6809 48.7991 85.4487 48.7991C87.2165 48.7991 88.6492 50.2318 88.6492 51.9996H82.2495H82.2482ZM70.3312 48.7991H85.4487V55.1988H70.3312V48.7991ZM70.3312 55.1988C68.5634 55.1988 67.1307 53.766 67.1307 51.9982C67.1307 50.2305 68.5634 48.7977 70.3312 48.7977V55.1974V55.1988Z" fill="url(#paint2_linear_1_2)"/>
<path d="M51.9984 57.1574C54.8476 57.1574 57.1574 54.8476 57.1574 51.9984C57.1574 49.1491 54.8476 46.8394 51.9984 46.8394C49.1491 46.8394 46.8394 49.1491 46.8394 51.9984C46.8394 54.8476 49.1491 57.1574 51.9984 57.1574Z" fill="url(#paint3_linear_1_2)"/>
<defs>
<linearGradient id="paint0_linear_1_2" x1="52" y1="0" x2="52" y2="104" gradientUnits="userSpaceOnUse">
<stop stop-color="#FFDF6B"/>
<stop offset="1" stop-color="#FFCA08"/>
</linearGradient>
<linearGradient id="paint1_linear_1_2" x1="52.0021" y1="32.6143" x2="52.0021" y2="71.3912" gradientUnits="userSpaceOnUse">
<stop stop-color="#406FAC"/>
<stop offset="1" stop-color="#104B97"/>
</linearGradient>
<linearGradient id="paint2_linear_1_2" x1="51.9989" y1="15.3486" x2="51.9989" y2="88.6547" gradientUnits="userSpaceOnUse">
<stop stop-color="#406FAC"/>
<stop offset="1" stop-color="#104B97"/>
</linearGradient>
<linearGradient id="paint3_linear_1_2" x1="51.9984" y1="46.8394" x2="51.9984" y2="57.1574" gradientUnits="userSpaceOnUse">
<stop stop-color="#406FAC"/>
<stop offset="1" stop-color="#104B97"/>
</linearGradient>
</defs>
</svg>
