<svg width="12" height="13" viewBox="0 0 12 13" fill="none" xmlns="http://www.w3.org/2000/svg">
<g clip-path="url(#clip0_1049_41977)">
<path d="M7.75 3.96845C8.28223 4.27556 8.72419 4.71743 9.03139 5.2496C9.3386 5.78177 9.50023 6.38547 9.5 6.99995V10.9999H7.415C7.3117 11.2927 7.12013 11.5462 6.8667 11.7256C6.61327 11.9049 6.31046 12.0012 6 12.0012C5.68954 12.0012 5.38673 11.9049 5.1333 11.7256C4.87987 11.5462 4.6883 11.2927 4.585 10.9999H2.5V6.99995C2.49978 6.38547 2.6614 5.78177 2.96861 5.2496C3.27582 4.71743 3.71777 4.27556 4.25 3.96845C4.16784 3.82089 4.10484 3.66345 4.0625 3.49995H2.5V2.49995H4.063C4.17422 2.07083 4.42479 1.69079 4.77537 1.41949C5.12595 1.14818 5.5567 1.00098 6 1.00098C6.4433 1.00098 6.87405 1.14818 7.22463 1.41949C7.57521 1.69079 7.82578 2.07083 7.937 2.49995H9.5V3.49995H7.937C7.89475 3.66333 7.83159 3.82073 7.75 3.96845ZM6 7.49995C5.86739 7.49995 5.74022 7.55263 5.64645 7.6464C5.55268 7.74016 5.5 7.86734 5.5 7.99995V10.4999C5.5 10.6326 5.55268 10.7597 5.64645 10.8535C5.74022 10.9473 5.86739 10.9999 6 10.9999C6.13261 10.9999 6.25979 10.9473 6.35355 10.8535C6.44732 10.7597 6.5 10.6326 6.5 10.4999V7.99995C6.5 7.86734 6.44732 7.74016 6.35355 7.6464C6.25979 7.55263 6.13261 7.49995 6 7.49995ZM6 3.99995C6.26522 3.99995 6.51957 3.89459 6.70711 3.70706C6.89464 3.51952 7 3.26517 7 2.99995C7 2.73473 6.89464 2.48038 6.70711 2.29284C6.51957 2.10531 6.26522 1.99995 6 1.99995C5.73478 1.99995 5.48043 2.10531 5.29289 2.29284C5.10536 2.48038 5 2.73473 5 2.99995C5 3.26517 5.10536 3.51952 5.29289 3.70706C5.48043 3.89459 5.73478 3.99995 6 3.99995Z" fill="#27E6B8"/>
</g>
<defs>
<clipPath id="clip0_1049_41977">
<rect width="12" height="12" fill="white" transform="translate(0 0.5)"/>
</clipPath>
</defs>
</svg>
