<svg width="105" height="104" viewBox="0 0 105 104" fill="none" xmlns="http://www.w3.org/2000/svg">
<path d="M52.5 104C81.2188 104 104.5 80.7188 104.5 52C104.5 23.2812 81.2188 0 52.5 0C23.7812 0 0.5 23.2812 0.5 52C0.5 80.7188 23.7812 104 52.5 104Z" fill="url(#paint0_linear_2_1371)"/>
<path d="M71.8885 52.0028H65.4888L65.4711 51.3313L65.4207 50.6708L65.3376 50.0211L65.2232 49.3824L65.0788 48.7545L64.9045 48.1389L64.7002 47.537L64.4687 46.9486L64.2086 46.3739L63.9225 45.8141L63.6093 45.2707L63.2715 44.7436L62.9093 44.2343L62.5238 43.7426L62.1153 43.2714L61.6849 42.8192L61.2327 42.3889L60.7615 41.9803L60.2698 41.5949L59.7605 41.2326L59.2334 40.8948L58.69 40.5816L58.1302 40.2956L57.5555 40.0354L56.9672 39.8025L56.3652 39.5983L55.7496 39.4239L55.1217 39.2796L54.483 39.1652L53.8333 39.0821L53.1728 39.0317L52.5014 39.014V32.6143L53.4956 32.6401L54.4789 32.715L55.4486 32.8376L56.4047 33.0079L57.343 33.2244L58.2637 33.4859L59.1653 33.791L60.0465 34.1383L60.9059 34.5264L61.7421 34.9554L62.5538 35.4226L63.341 35.9265L64.101 36.4672L64.8323 37.0419L65.5351 37.6507L66.2079 38.2922L66.8493 38.965L67.4581 39.6677L68.0329 40.3991L68.5735 41.159L69.0775 41.9462L69.5446 42.7579L69.9736 43.5942L70.3618 44.4536L70.7091 45.3347L71.0141 46.2363L71.2756 47.157L71.4922 48.0954L71.6624 49.0514L71.785 50.0225L71.8599 51.0058L71.8858 52L71.8885 52.0028ZM52.5014 71.3899V64.9902L53.1728 64.9725L53.8333 64.9221L54.483 64.839L55.1217 64.7246L55.7496 64.5802L56.3652 64.4059L56.9672 64.2016L57.5555 63.9687L58.1302 63.7086L58.69 63.4226L59.2334 63.1093L59.7605 62.7716L60.2698 62.4093L60.7615 62.0239L61.2327 61.6153L61.6849 61.1849L62.1153 60.7328L62.5238 60.2615L62.9093 59.7699L63.2715 59.2605L63.6093 58.7334L63.9225 58.19L64.2086 57.6303L64.4687 57.0555L64.7016 56.4672L64.9059 55.8652L65.0802 55.2496L65.2245 54.6218L65.339 53.983L65.422 53.3334L65.4724 52.6728L65.4901 52.0014H71.8898L71.864 52.9956L71.7891 53.9789L71.6665 54.9486L71.4963 55.9047L71.2797 56.8431L71.0182 57.7637L70.7131 58.6653L70.3658 59.5465L69.9777 60.4059L69.5487 61.2421L69.0815 62.0538L68.5776 62.841L68.0369 63.601L67.4622 64.3323L66.8534 65.0351L66.2119 65.7079L65.5392 66.3494L64.8364 66.9582L64.105 67.5329L63.3451 68.0736L62.5579 68.5775L61.7462 69.0446L60.9099 69.4736L60.0506 69.8618L59.1694 70.2091L58.2678 70.5142L57.3471 70.7757L56.4088 70.9922L55.4527 71.1624L54.483 71.285L53.4997 71.3599L52.5055 71.3858L52.5014 71.3899ZM33.1143 52.0028H39.514L39.5317 52.6742L39.5821 53.3347L39.6652 53.9844L39.7796 54.6231L39.9239 55.251L40.0982 55.8666L40.3025 56.4685L40.5354 57.0569L40.7956 57.6316L41.0816 58.1914L41.3948 58.7348L41.7326 59.2619L42.0948 59.7712L42.4803 60.2629L42.8889 60.7341L43.3192 61.1863L43.7714 61.6166L44.2426 62.0252L44.7343 62.4107L45.2436 62.7729L45.7707 63.1107L46.3141 63.4239L46.8739 63.7099L47.4486 63.9701L48.037 64.203L48.6389 64.4073L49.2545 64.5816L49.8824 64.7259L50.5211 64.8403L51.1708 64.9234L51.8313 64.9738L52.5027 64.9915V71.3912L51.5085 71.3654L50.5252 71.2905L49.5555 71.1679L48.5994 70.9977L47.6611 70.7811L46.7404 70.5196L45.8388 70.2145L44.9576 69.8672L44.0983 69.4791L43.262 69.0501L42.4503 68.5829L41.6631 68.079L40.9032 67.5383L40.1718 66.9636L39.469 66.3548L38.7962 65.7133L38.1548 65.0405L37.546 64.3378L36.9713 63.6064L36.4306 62.8465L35.9267 62.0593L35.4595 61.2476L35.0305 60.4113L34.6423 59.552L34.2951 58.6708L33.99 57.7692L33.7285 56.8485L33.5119 55.9101L33.3417 54.9541L33.2191 53.9844L33.1442 53.0011L33.1183 52.0068L33.1143 52.0028ZM52.5014 32.6156V39.0153L51.8299 39.0331L51.1694 39.0834L50.5198 39.1665L49.881 39.2809L49.2532 39.4253L48.6376 39.5996L48.0356 39.8039L47.4472 40.0368L46.8725 40.2969L46.3127 40.5829L45.7693 40.8962L45.2423 41.2339L44.7329 41.5962L44.2413 41.9816L43.77 42.3902L43.3179 42.8206L42.8875 43.2728L42.4789 43.744L42.0935 44.2356L41.7312 44.745L41.3934 45.2721L41.0802 45.8155L40.7942 46.3752L40.5341 46.95L40.3025 47.5383L40.0982 48.1403L39.9239 48.7559L39.7796 49.3838L39.6652 50.0225L39.5821 50.6721L39.5317 51.3327L39.514 52.0041H33.1143L33.1401 51.0099L33.215 50.0266L33.3376 49.0555L33.5079 48.0994L33.7244 47.1611L33.9859 46.2404L34.291 45.3388L34.6383 44.4576L35.0264 43.5983L35.4554 42.762L35.9226 41.9503L36.4265 41.1631L36.9672 40.4032L37.5419 39.6718L38.1507 38.969L38.7922 38.2962L39.465 37.6548L40.1677 37.046L40.8991 36.4713L41.659 35.9306L42.4462 35.4267L43.2579 34.9595L44.0942 34.5305L44.9535 34.1423L45.8347 33.7951L46.7363 33.49L47.657 33.2285L48.5954 33.0119L49.5514 32.8417L50.5211 32.7191L51.5044 32.6442L52.4987 32.6183L52.5014 32.6156Z" fill="url(#paint1_linear_2_1371)"/>
<path d="M85.9392 36.9993C86.6624 38.6118 85.9419 40.5049 84.3294 41.2294C82.7168 41.9526 80.8238 41.2322 80.0992 39.6196L85.9392 37.0006V36.9993ZM52.4996 21.7497V15.35L53.8479 15.3745L55.1881 15.4481L56.5187 15.5706L57.8384 15.7395L59.1459 15.9561L60.4397 16.2189L61.7199 16.5267L62.9838 16.8794L64.2313 17.2771L65.4625 17.7184L66.6746 18.2019L67.8663 18.7276L69.0376 19.2942L70.187 19.9016L71.3134 20.5485L72.4165 21.2349L73.4938 21.9595L74.5452 22.7221L75.5694 23.523L76.5663 24.3592L77.5333 25.2322L78.4703 26.1406L79.376 27.0831L80.249 28.0596L81.0893 29.0687L81.8942 30.1106L82.6637 31.1838L83.3964 32.2884L84.091 33.4228L84.7475 34.5873L85.3631 35.7804L85.9378 37.0006L80.0978 39.6196L79.6225 38.6104L79.1145 37.6258L78.5738 36.6656L78.0005 35.73L77.3958 34.8188L76.7611 33.9336L76.0965 33.0742L75.4033 32.2421L74.6828 31.4358L73.9351 30.6581L73.1615 29.9091L72.3634 29.1886L71.5408 28.4981L70.695 27.8376L69.8261 27.207L68.9368 26.6077L68.027 26.0412L67.0968 25.5059L66.1476 25.0047L65.1806 24.5376L64.1959 24.1031L63.1962 23.7041L62.1816 23.3405L61.152 23.0122L60.1087 22.7208L59.0532 22.4661L57.9855 22.2495L56.9068 22.0711L55.8186 21.9309L54.7209 21.8301L53.6137 21.7688L52.4996 21.7484V21.7497ZM22.2497 51.9996H15.85L15.8977 50.1174L16.0393 48.257L16.2722 46.4225L16.595 44.6166L17.0049 42.842L17.4993 41.1014L18.0754 39.3976L18.7318 37.732L19.4659 36.1072L20.2749 34.526L21.1575 32.9911L22.1108 31.5039L23.1323 30.067L24.2204 28.6833L25.3726 27.3541L26.5848 26.082L27.8568 24.8685L29.186 23.7177L30.5698 22.6309L32.0066 21.6094L33.4938 20.6561L35.0287 19.7736L36.6099 18.9646L38.2347 18.2305L39.9004 17.574L41.6042 16.9979L43.3447 16.5036L45.1193 16.0936L46.9252 15.7708L48.7598 15.5379L50.6202 15.3963L52.5023 15.3486V21.7484L50.9429 21.7879L49.4053 21.905L47.8908 22.097L46.4022 22.3626L44.9395 22.7003L43.5054 23.1076L42.1013 23.5829L40.7284 24.1236L39.3897 24.7296L38.0863 25.397L36.8197 26.1256L35.5926 26.9128L34.4063 27.7572L33.2637 28.6561L32.166 29.6081L31.1145 30.6105L30.1122 31.6619L29.1615 32.7596L28.2627 33.9036L27.4196 35.0899L26.6324 36.317L25.9038 37.5836L25.2364 38.8869L24.6304 40.2257L24.0897 41.5985L23.6144 43.0027L23.2072 44.4368L22.8694 45.8995L22.6038 47.3881L22.4118 48.9026L22.2947 50.4402L22.2552 51.9996H22.2497ZM52.4996 82.2495V88.6492L50.6174 88.6016L48.757 88.4599L46.9225 88.227L45.1166 87.9043L43.342 87.4943L41.6014 86.9999L39.8977 86.4238L38.232 85.7674L36.6072 85.0333L35.026 84.2229L33.4911 83.3404L32.0039 82.3871L30.567 81.3656L29.1833 80.2788L27.8541 79.1266L26.582 77.9131L25.3699 76.6411L24.2191 75.3118L23.1309 73.9281L22.1094 72.4913L21.1561 71.004L20.2736 69.4691L19.4646 67.8879L18.7305 66.2631L18.074 64.5975L17.4979 62.8937L17.0036 61.1532L16.5936 59.3786L16.2708 57.5726L16.0379 55.7381L15.8963 53.8777L15.8486 51.9955H22.2484L22.2879 53.5549L22.405 55.0926L22.597 56.607L22.8626 58.0956L23.2004 59.5583L23.6076 60.9925L24.0829 62.3966L24.6236 63.7694L25.2296 65.1082L25.897 66.4116L26.6256 67.6782L27.4128 68.9053L28.2558 70.0915L29.1547 71.2342L30.1067 72.3319L31.1091 73.3833L32.1605 74.3857L33.2582 75.3363L34.4009 76.2352L35.5871 77.0796L36.8142 77.8668L38.0808 78.5954L39.3842 79.2628L40.723 79.8689L42.0958 80.4095L43.5 80.8848L44.9341 81.2921L46.3968 81.6298L47.8854 81.8954L49.3999 82.0874L50.9375 82.2046L52.4969 82.2441L52.4996 82.2495ZM85.9487 55.2002V48.8004L89.1492 52.001L89.1016 53.8832L88.9599 55.7436L88.727 57.5781L88.4043 59.384L87.9943 61.1586L87.4999 62.8992L86.9239 64.6029L86.2674 66.2686L85.5333 67.8934L84.7243 69.4746L83.8418 71.0095L82.8884 72.4967L81.867 73.9335L80.7802 75.3173L79.628 76.6465L78.4158 77.9186L77.1438 79.132L75.8146 80.2842L74.4308 81.3711L72.994 82.3925L71.5068 83.3459L69.9719 84.2284L68.3907 85.0387L66.7659 85.7728L65.1002 86.4293L63.3965 87.0054L61.6559 87.4998L59.8813 87.9097L58.0754 88.2325L56.2409 88.4654L54.3804 88.607L52.4983 88.6547V82.255L54.0577 82.2155L55.5953 82.0983L57.1098 81.9063L58.5984 81.6407L60.0611 81.303L61.4952 80.8957L62.8993 80.4204L64.2722 79.8797L65.611 79.2737L66.9143 78.6063L68.1809 77.8777L69.408 77.0905L70.5943 76.2461L71.7369 75.3472L72.8346 74.3966L73.8861 73.3942L74.8884 72.3428L75.8391 71.2451L76.738 70.1024L77.5823 68.9162L78.3695 67.6891L79.0982 66.4225L79.7655 65.1191L80.3716 63.7803L80.9123 62.4075L81.3876 61.0034L81.7948 59.5692L82.1326 58.1065L82.3981 56.6179L82.5902 55.1035L82.7073 53.5658L82.7468 52.0064L85.9473 55.207L85.9487 55.2002ZM82.7482 51.9996C82.7482 50.2318 84.1809 48.7991 85.9487 48.7991C87.7165 48.7991 89.1492 50.2318 89.1492 51.9996H82.7495H82.7482ZM70.8312 48.7991H85.9487V55.1988H70.8312V48.7991ZM70.8312 55.1988C69.0634 55.1988 67.6307 53.766 67.6307 51.9982C67.6307 50.2305 69.0634 48.7977 70.8312 48.7977V55.1974V55.1988Z" fill="url(#paint2_linear_2_1371)"/>
<path d="M52.4984 57.1574C55.3476 57.1574 57.6574 54.8476 57.6574 51.9984C57.6574 49.1491 55.3476 46.8394 52.4984 46.8394C49.6491 46.8394 47.3394 49.1491 47.3394 51.9984C47.3394 54.8476 49.6491 57.1574 52.4984 57.1574Z" fill="url(#paint3_linear_2_1371)"/>
<defs>
<linearGradient id="paint0_linear_2_1371" x1="52.5" y1="0" x2="52.5" y2="104" gradientUnits="userSpaceOnUse">
<stop stop-color="#FFDF6B"/>
<stop offset="1" stop-color="#FFCA08"/>
</linearGradient>
<linearGradient id="paint1_linear_2_1371" x1="52.5021" y1="32.6143" x2="52.5021" y2="71.3912" gradientUnits="userSpaceOnUse">
<stop stop-color="#406FAC"/>
<stop offset="1" stop-color="#104B97"/>
</linearGradient>
<linearGradient id="paint2_linear_2_1371" x1="52.4989" y1="15.3486" x2="52.4989" y2="88.6547" gradientUnits="userSpaceOnUse">
<stop stop-color="#406FAC"/>
<stop offset="1" stop-color="#104B97"/>
</linearGradient>
<linearGradient id="paint3_linear_2_1371" x1="52.4984" y1="46.8394" x2="52.4984" y2="57.1574" gradientUnits="userSpaceOnUse">
<stop stop-color="#406FAC"/>
<stop offset="1" stop-color="#104B97"/>
</linearGradient>
</defs>
</svg>
