<svg width="41" height="40" viewBox="0 0 41 40" fill="none" xmlns="http://www.w3.org/2000/svg">
<path fill-rule="evenodd" clip-rule="evenodd" d="M5.66501 13.3207C5.66501 13.8511 5.4543 14.3598 5.07923 14.7349L1.22824 18.5859C0.447193 19.3669 0.447194 20.6332 1.22824 21.4143L5.07923 25.2653C5.4543 25.6403 5.66501 26.149 5.66501 26.6795V32.4191C5.66501 33.5237 6.56044 34.4191 7.66501 34.4191H13.4046C13.9351 34.4191 14.4438 34.6298 14.8189 35.0049L19.0857 39.2718C19.8668 40.0528 21.1331 40.0528 21.9142 39.2718L26.181 35.0049C26.5561 34.6298 27.0648 34.4191 27.5952 34.4191H32.9193C34.0239 34.4191 34.9193 33.5237 34.9193 32.4191V27.095C34.9193 26.5646 35.13 26.0559 35.5051 25.6808L39.7716 21.4143C40.5527 20.6332 40.5527 19.3669 39.7716 18.5859L35.5051 14.3193C35.13 13.9442 34.9193 13.4355 34.9193 12.9051V7.1648C34.9193 6.06023 34.0239 5.1648 32.9193 5.1648H27.179C26.6486 5.1648 26.1399 4.95409 25.7648 4.57901L21.9142 0.728364C21.1331 -0.0526844 19.8668 -0.0526836 19.0857 0.728365L15.2351 4.57901C14.86 4.95409 14.3513 5.1648 13.8209 5.1648H7.66501C6.56044 5.1648 5.66501 6.06023 5.66501 7.1648V13.3207Z" fill="url(#paint0_linear_189_4031)"/>
<path d="M16.4919 16.0913C17.3445 16.9439 17.3445 18.3263 16.4919 19.1789C15.6393 20.0315 14.2569 20.0315 13.4043 19.1789C12.5517 18.3263 12.5517 16.9439 13.4043 16.0913C14.2569 15.2387 15.6393 15.2387 16.4919 16.0913Z" fill="#FFCA08"/>
<path d="M27.2983 20.7227C28.1509 21.5753 28.1509 22.9576 27.2983 23.8102C26.4457 24.6628 25.0634 24.6628 24.2108 23.8102C23.3582 22.9576 23.3582 21.5753 24.2108 20.7227C25.0634 19.8701 26.4457 19.8701 27.2983 20.7227Z" fill="#FFCA08"/>
<path d="M14.9481 23.8102L24.5967 14.1616L26.1405 15.7054L16.4919 25.354L14.9481 23.8102Z" fill="#FFCA08"/>
<defs>
<linearGradient id="paint0_linear_189_4031" x1="20.4999" y1="0.142578" x2="20.4999" y2="39.8576" gradientUnits="userSpaceOnUse">
<stop stop-color="#4D89D4"/>
<stop offset="1" stop-color="#216BC9"/>
</linearGradient>
</defs>
</svg>
