<svg width="88" height="89" viewBox="0 0 88 89" fill="none" xmlns="http://www.w3.org/2000/svg">
<g filter="url(#filter0_d_465_7407)">
<path d="M44 76.7334C59.464 76.7334 72 64.1974 72 48.7334C72 33.2694 59.464 20.7334 44 20.7334C28.536 20.7334 16 33.2694 16 48.7334C16 64.1974 28.536 76.7334 44 76.7334Z" fill="url(#paint0_linear_465_7407)"/>
<path d="M54.4394 48.7334H50.9934L50.9838 48.3719L50.9567 48.0162L50.912 47.6664L50.8504 47.3225L50.7726 46.9844L50.6787 46.6529L50.5687 46.3288L50.4441 46.012L50.304 45.7025L50.15 45.4011L49.9813 45.1085L49.7995 44.8247L49.6044 44.5504L49.3969 44.2857L49.1769 44.0319L48.9451 43.7884L48.7016 43.5567L48.4479 43.3367L48.1832 43.1292L47.9089 42.9341L47.6251 42.7522L47.3325 42.5835L47.0311 42.4295L46.7216 42.2895L46.4048 42.1641L46.0806 42.0541L45.7492 41.9602L45.4111 41.8825L45.0672 41.8209L44.7174 41.7761L44.3617 41.749L44.0001 41.7395V38.2935L44.5355 38.3074L45.065 38.3477L45.5871 38.4137L46.1019 38.5054L46.6072 38.622L47.1029 38.7628L47.5884 38.9271L48.0629 39.1141L48.5256 39.3231L48.9759 39.5541L49.413 39.8056L49.8369 40.077L50.2461 40.3681L50.6399 40.6776L51.0183 41.0054L51.3806 41.3508L51.726 41.7131L52.0538 42.0915L52.3632 42.4853L52.6544 42.8945L52.9257 43.3184L53.1773 43.7554L53.4083 44.2057L53.6173 44.6685L53.8043 45.1429L53.9686 45.6284L54.1094 46.1242L54.226 46.6294L54.3176 47.1442L54.3836 47.6671L54.424 48.1966L54.4379 48.7319L54.4394 48.7334ZM44.0001 59.1726V55.7266L44.3617 55.7171L44.7174 55.69L45.0672 55.6452L45.4111 55.5836L45.7492 55.5059L46.0806 55.412L46.4048 55.302L46.7216 55.1766L47.0311 55.0366L47.3325 54.8825L47.6251 54.7139L47.9089 54.532L48.1832 54.3369L48.4479 54.1294L48.7016 53.9094L48.9451 53.6777L49.1769 53.4342L49.3969 53.1804L49.6044 52.9157L49.7995 52.6414L49.9813 52.3576L50.15 52.065L50.304 51.7636L50.4441 51.4541L50.5695 51.1373L50.6795 50.8132L50.7733 50.4817L50.8511 50.1436L50.9127 49.7997L50.9574 49.4499L50.9846 49.0942L50.9941 48.7327H54.4401L54.4262 49.268L54.3858 49.7975L54.3198 50.3196L54.2282 50.8345L54.1116 51.3397L53.9708 51.8355L53.8065 52.321L53.6195 52.7954L53.4105 53.2582L53.1795 53.7085L52.9279 54.1455L52.6566 54.5694L52.3655 54.9786L52.056 55.3724L51.7282 55.7508L51.3828 56.1131L51.0205 56.4585L50.6421 56.7863L50.2483 57.0958L49.8391 57.3869L49.4152 57.6583L48.9781 57.9098L48.5278 58.1408L48.0651 58.3498L47.5906 58.5368L47.1051 58.7011L46.6094 58.8419L46.1041 58.9585L45.5893 59.0502L45.0672 59.1162L44.5377 59.1565L44.0023 59.1704L44.0001 59.1726ZM33.5609 48.7334H37.0069L37.0165 49.095L37.0436 49.4506L37.0883 49.8004L37.1499 50.1444L37.2277 50.4825L37.3215 50.8139L37.4315 51.1381L37.5569 51.4549L37.697 51.7643L37.851 52.0658L38.0197 52.3584L38.2015 52.6422L38.3966 52.9164L38.6042 53.1812L38.8242 53.4349L39.0559 53.6784L39.2994 53.9101L39.5531 54.1301L39.8178 54.3377L40.0921 54.5327L40.3759 54.7146L40.6685 54.8833L40.9699 55.0373L41.2794 55.1774L41.5962 55.3028L41.9204 55.4128L42.2518 55.5066L42.5899 55.5844L42.9338 55.646L43.2837 55.6907L43.6393 55.7178L44.0009 55.7274V59.1734L43.4655 59.1594L42.936 59.1191L42.4139 59.0531L41.8991 58.9614L41.3938 58.8448L40.8981 58.704L40.4126 58.5398L39.9381 58.3528L39.4754 58.1437L39.0251 57.9127L38.588 57.6612L38.1641 57.3899L37.7549 57.0987L37.3611 56.7893L36.9827 56.4614L36.6204 56.116L36.275 55.7538L35.9472 55.3754L35.6378 54.9815L35.3466 54.5723L35.0753 54.1485L34.8237 53.7114L34.5927 53.2611L34.3837 52.7984L34.1967 52.3239L34.0325 51.8384L33.8917 51.3427L33.7751 50.8374L33.6834 50.3226L33.6174 49.8004L33.577 49.271L33.5631 48.7356L33.5609 48.7334ZM44.0001 38.2942V41.7402L43.6386 41.7497L43.2829 41.7769L42.9331 41.8216L42.5892 41.8832L42.2511 41.9609L41.9196 42.0548L41.5955 42.1648L41.2787 42.2902L40.9692 42.4303L40.6678 42.5843L40.3752 42.753L40.0914 42.9348L39.8171 43.1299L39.5524 43.3374L39.2986 43.5574L39.0552 43.7892L38.8234 44.0326L38.6034 44.2864L38.3959 44.5511L38.2008 44.8254L38.0189 45.1092L37.8503 45.4018L37.6963 45.7032L37.5562 46.0127L37.4315 46.3295L37.3215 46.6536L37.2277 46.9851L37.1499 47.3232L37.0883 47.6671L37.0436 48.0169L37.0165 48.3726L37.0069 48.7341H33.5609L33.5748 48.1988L33.6152 47.6693L33.6812 47.1464L33.7729 46.6316L33.8895 46.1264L34.0303 45.6306L34.1945 45.1451L34.3815 44.6707L34.5905 44.2079L34.8215 43.7576L35.0731 43.3206L35.3444 42.8967L35.6356 42.4875L35.945 42.0937L36.2728 41.7153L36.6182 41.353L36.9805 41.0076L37.3589 40.6798L37.7527 40.3703L38.1619 40.0792L38.5858 39.8078L39.0229 39.5563L39.4732 39.3253L39.9359 39.1163L40.4104 38.9293L40.8959 38.765L41.3916 38.6242L41.8969 38.5076L42.4117 38.4159L42.9338 38.3499L43.4633 38.3096L43.9987 38.2957L44.0001 38.2942Z" fill="url(#paint1_linear_465_7407)"/>
<path d="M62.006 40.6561C62.3954 41.5244 62.0074 42.5437 61.1392 42.9339C60.2709 43.3233 59.2515 42.9353 58.8614 42.0671L62.006 40.6568V40.6561ZM44.0001 32.4448V28.9988L44.7261 29.012L45.4477 29.0516L46.1642 29.1176L46.8748 29.2085L47.5788 29.3251L48.2755 29.4667L48.9648 29.6324L49.6454 29.8223L50.3171 30.0365L50.9801 30.2741L51.6328 30.5344L52.2744 30.8175L52.9051 31.1226L53.5241 31.4496L54.1305 31.798L54.7245 32.1676L55.3046 32.5577L55.8708 32.9684L56.4223 33.3996L56.9591 33.8499L57.4797 34.32L57.9843 34.8091L58.472 35.3166L58.942 35.8424L59.3945 36.3858L59.8279 36.9468L60.2423 37.5247L60.6368 38.1194L61.0108 38.7303L61.3643 39.3573L61.6958 39.9997L62.0052 40.6568L58.8606 42.0671L58.6047 41.5236L58.3312 40.9934L58.04 40.4764L57.7313 39.9726L57.4057 39.482L57.0639 39.0053L56.7061 38.5426L56.3328 38.0945L55.9448 37.6604L55.5422 37.2416L55.1257 36.8383L54.6959 36.4503L54.253 36.0785L53.7976 35.7229L53.3297 35.3833L52.8508 35.0606L52.361 34.7556L51.8601 34.4674L51.3489 34.1975L50.8283 33.946L50.2981 33.712L49.7598 33.4971L49.2134 33.3013L48.659 33.1246L48.0973 32.9677L47.5289 32.8305L46.954 32.7139L46.3732 32.6179L45.7872 32.5423L45.1961 32.4881L44.5999 32.4551L44.0001 32.4441V32.4448ZM27.7116 48.7332H24.2656L24.2913 47.7197L24.3676 46.718L24.493 45.7301L24.6668 44.7577L24.8875 43.8022L25.1537 42.8649L25.4639 41.9475L25.8174 41.0506L26.2127 40.1757L26.6483 39.3243L27.1235 38.4978L27.6368 37.697L28.1868 36.9233L28.7728 36.1783L29.3932 35.4625L30.0459 34.7776L30.7308 34.1242L31.4466 33.5045L32.1917 32.9193L32.9653 32.3693L33.7662 31.8559L34.5926 31.3807L35.4441 30.9451L36.319 30.5498L37.2158 30.1963L38.1333 29.8861L39.0705 29.6199L40.026 29.3992L40.9985 29.2254L41.9863 29.1L42.988 29.0237L44.0015 28.998V32.4441L43.1618 32.4653L42.3339 32.5284L41.5184 32.6318L40.7168 32.7748L39.9292 32.9567L39.157 33.1759L38.4009 33.4319L37.6617 33.723L36.9408 34.0494L36.239 34.4087L35.557 34.801L34.8963 35.2249L34.2575 35.6796L33.6422 36.1636L33.0512 36.6762L32.485 37.216L31.9453 37.7821L31.4334 38.3732L30.9494 38.9892L30.4954 39.6279L30.0716 40.2887L29.6792 40.9707L29.3199 41.6725L28.9935 42.3934L28.7024 43.1326L28.4464 43.8887L28.2272 44.6609L28.0453 45.4485L27.9023 46.2501L27.7989 47.0656L27.7358 47.8935L27.7146 48.7332H27.7116ZM44.0001 65.0216V68.4676L42.9866 68.4419L41.9848 68.3657L40.997 68.2403L40.0246 68.0665L39.069 67.8457L38.1318 67.5795L37.2144 67.2693L36.3175 66.9158L35.4426 66.5206L34.5912 66.0842L33.7647 65.609L32.9639 65.0957L32.1902 64.5457L31.4451 63.9604L30.7294 63.34L30.0444 62.6866L29.3917 62.0017L28.7721 61.2859L28.1861 60.5408L27.6361 59.7672L27.1228 58.9663L26.6475 58.1399L26.2119 57.2884L25.8167 56.4136L25.4632 55.5167L25.153 54.5993L24.8868 53.662L24.666 52.7065L24.4922 51.7341L24.3668 50.7462L24.2906 49.7445L24.2649 48.731H27.7109L27.7322 49.5707L27.7952 50.3986L27.8986 51.2141L28.0416 52.0157L28.2235 52.8033L28.4428 53.5755L28.6987 54.3316L28.9899 55.0708L29.3162 55.7917L29.6755 56.4935L30.0679 57.1755L30.4918 57.8363L30.9457 58.475L31.4297 59.0903L31.9423 59.6814L32.4821 60.2475L33.0482 60.7872L33.6393 61.2991L34.2546 61.7831L34.8933 62.2378L35.5541 62.6617L36.2361 63.054L36.9379 63.4134L37.6588 63.7397L38.398 64.0308L39.1541 64.2868L39.9263 64.5061L40.7139 64.6879L41.5155 64.8309L42.3309 64.9343L43.1589 64.9974L43.9986 65.0187L44.0001 65.0216ZM62.0111 50.4566V47.0106L63.7345 48.7339L63.7088 49.7474L63.6325 50.7492L63.5071 51.737L63.3333 52.7094L63.1126 53.665L62.8464 54.6022L62.5362 55.5196L62.1827 56.4165L61.7874 57.2914L61.3518 58.1428L60.8766 58.9693L60.3633 59.7701L59.8133 60.5438L59.2281 61.2889L58.6076 62.0046L57.955 62.6896L57.27 63.343L56.5543 63.9634L55.8092 64.5486L55.0355 65.0986L54.2347 65.612L53.4082 66.0872L52.5568 66.5235L51.6819 66.9188L50.785 67.2723L49.8676 67.5825L48.9304 67.8487L47.9748 68.0694L47.0024 68.2432L46.0146 68.3686L45.0128 68.4449L43.9993 68.4705V65.0245L44.839 65.0033L45.667 64.9402L46.4824 64.8368L47.284 64.6938L48.0716 64.5119L48.8438 64.2927L49.5999 64.0367L50.3391 63.7456L51.06 63.4192L51.7618 63.0599L52.4438 62.6676L53.1046 62.2437L53.7433 61.789L54.3586 61.305L54.9497 60.7931L55.5158 60.2534L56.0556 59.6872L56.5675 59.0961L57.0515 58.4809L57.5061 57.8421L57.93 57.1814L58.3224 56.4994L58.6817 55.7975L59.008 55.0767L59.2992 54.3374L59.5551 53.5814L59.7744 52.8091L59.9563 52.0215L60.0993 51.22L60.2027 50.4045L60.2657 49.5765L60.287 48.7369L62.0104 50.4602L62.0111 50.4566ZM60.2877 48.7332C60.2877 47.7813 61.0592 47.0098 62.0111 47.0098C62.963 47.0098 63.7345 47.7813 63.7345 48.7332H60.2885H60.2877ZM53.8709 47.0098H62.0111V50.4558H53.8709V47.0098ZM53.8709 50.4558C52.919 50.4558 52.1476 49.6843 52.1476 48.7325C52.1476 47.7806 52.919 47.0091 53.8709 47.0091V50.4551V50.4558Z" fill="url(#paint2_linear_465_7407)"/>
<path d="M44.0001 51.5109C45.5343 51.5109 46.778 50.2672 46.778 48.733C46.778 47.1988 45.5343 45.9551 44.0001 45.9551C42.4659 45.9551 41.2222 47.1988 41.2222 48.733C41.2222 50.2672 42.4659 51.5109 44.0001 51.5109Z" fill="url(#paint3_linear_465_7407)"/>
</g>
<defs>
<filter id="filter0_d_465_7407" x="0" y="0.733398" width="88" height="88" filterUnits="userSpaceOnUse" color-interpolation-filters="sRGB">
<feFlood flood-opacity="0" result="BackgroundImageFix"/>
<feColorMatrix in="SourceAlpha" type="matrix" values="0 0 0 0 0 0 0 0 0 0 0 0 0 0 0 0 0 0 127 0" result="hardAlpha"/>
<feOffset dy="-4"/>
<feGaussianBlur stdDeviation="8"/>
<feComposite in2="hardAlpha" operator="out"/>
<feColorMatrix type="matrix" values="0 0 0 0 0 0 0 0 0 0 0 0 0 0 0 0 0 0 0.1 0"/>
<feBlend mode="normal" in2="BackgroundImageFix" result="effect1_dropShadow_465_7407"/>
<feBlend mode="normal" in="SourceGraphic" in2="effect1_dropShadow_465_7407" result="shape"/>
</filter>
<linearGradient id="paint0_linear_465_7407" x1="44" y1="20.7334" x2="44" y2="76.7334" gradientUnits="userSpaceOnUse">
<stop stop-color="#FFCA08"/>
<stop offset="1" stop-color="#FFDF6B"/>
</linearGradient>
<linearGradient id="paint1_linear_465_7407" x1="44.0005" y1="38.2935" x2="44.0005" y2="59.1734" gradientUnits="userSpaceOnUse">
<stop stop-color="#4D89D4"/>
<stop offset="1" stop-color="#216BC9"/>
</linearGradient>
<linearGradient id="paint2_linear_465_7407" x1="43.9997" y1="28.998" x2="43.9997" y2="68.4705" gradientUnits="userSpaceOnUse">
<stop stop-color="#4D89D4"/>
<stop offset="1" stop-color="#216BC9"/>
</linearGradient>
<linearGradient id="paint3_linear_465_7407" x1="44.0001" y1="45.9551" x2="44.0001" y2="51.5109" gradientUnits="userSpaceOnUse">
<stop stop-color="#4D89D4"/>
<stop offset="1" stop-color="#216BC9"/>
</linearGradient>
</defs>
</svg>
