<svg width="22" height="22" viewBox="0 0 22 22" fill="none" xmlns="http://www.w3.org/2000/svg">
<path fill-rule="evenodd" clip-rule="evenodd" d="M11 21C16.523 21 21 16.523 21 11C21 5.477 16.523 1 11 1C5.477 1 1 5.477 1 11C1 12.6 1.376 14.112 2.043 15.453C2.221 15.809 2.28 16.216 2.177 16.601L1.582 18.827C1.52329 19.0472 1.52351 19.279 1.58264 19.4991C1.64177 19.7192 1.75773 19.92 1.91889 20.0811C2.08005 20.2423 2.28075 20.3582 2.50087 20.4174C2.72098 20.4765 2.95277 20.4767 3.173 20.418L5.399 19.823C5.78541 19.7258 6.19403 19.7731 6.548 19.956C7.93092 20.6446 9.45511 21.0021 11 21ZM7 12.25C6.80109 12.25 6.61032 12.329 6.46967 12.4697C6.32902 12.6103 6.25 12.8011 6.25 13C6.25 13.1989 6.32902 13.3897 6.46967 13.5303C6.61032 13.671 6.80109 13.75 7 13.75H12.5C12.6989 13.75 12.8897 13.671 13.0303 13.5303C13.171 13.3897 13.25 13.1989 13.25 13C13.25 12.8011 13.171 12.6103 13.0303 12.4697C12.8897 12.329 12.6989 12.25 12.5 12.25H7ZM6.25 9.5C6.25 9.30109 6.32902 9.11032 6.46967 8.96967C6.61032 8.82902 6.80109 8.75 7 8.75H15C15.1989 8.75 15.3897 8.82902 15.5303 8.96967C15.671 9.11032 15.75 9.30109 15.75 9.5C15.75 9.69891 15.671 9.88968 15.5303 10.0303C15.3897 10.171 15.1989 10.25 15 10.25H7C6.80109 10.25 6.61032 10.171 6.46967 10.0303C6.32902 9.88968 6.25 9.69891 6.25 9.5Z" fill="url(#paint0_linear_1049_41959)"/>
<defs>
<linearGradient id="paint0_linear_1049_41959" x1="11" y1="1" x2="11" y2="21" gradientUnits="userSpaceOnUse">
<stop stop-color="#FFDF6B"/>
<stop offset="1" stop-color="#FFCA08"/>
</linearGradient>
</defs>
</svg>
