<svg width="33" height="32" viewBox="0 0 33 32" fill="none" xmlns="http://www.w3.org/2000/svg">
<path d="M18.3123 23.5394C18.0052 23.8465 17.6247 24 17.1708 24C16.7169 24 16.3365 23.8465 16.0294 23.5394L8.98061 16.4906C8.83376 16.3438 8.71681 16.1702 8.62977 15.97C8.54272 15.7697 8.49947 15.5561 8.5 15.3292V9.602C8.5 9.16145 8.657 8.78418 8.97099 8.47019C9.28499 8.1562 9.66199 7.99947 10.102 8H15.8292C16.0561 8 16.2697 8.04352 16.47 8.13056C16.6702 8.21761 16.8438 8.33429 16.9906 8.4806L24.0394 15.5494C24.3465 15.8565 24.5 16.2338 24.5 16.6813C24.5 17.1287 24.3465 17.5057 24.0394 17.8123L18.3123 23.5394ZM12.1045 12.806C12.4383 12.806 12.7221 12.6891 12.956 12.4552C13.1899 12.2213 13.3065 11.9377 13.306 11.6045C13.306 11.2708 13.1891 10.9869 12.9552 10.753C12.7213 10.5191 12.4377 10.4025 12.1045 10.403C11.7708 10.403 11.4869 10.52 11.253 10.7538C11.0192 10.9877 10.9025 11.2713 10.903 11.6045C10.903 11.9383 11.02 12.2221 11.2538 12.456C11.4877 12.6899 11.7713 12.8065 12.1045 12.806Z" fill="url(#paint0_linear_633_7428)"/>
<defs>
<linearGradient id="paint0_linear_633_7428" x1="16.5" y1="8" x2="16.5" y2="24" gradientUnits="userSpaceOnUse">
<stop stop-color="#4D89D4"/>
<stop offset="1" stop-color="#216BC9"/>
</linearGradient>
</defs>
</svg>
