<svg width="88" height="88" viewBox="0 0 88 88" fill="none" xmlns="http://www.w3.org/2000/svg">
<g filter="url(#filter0_d_2_13574)">
<path d="M44 76C59.464 76 72 63.464 72 48C72 32.536 59.464 20 44 20C28.536 20 16 32.536 16 48C16 63.464 28.536 76 44 76Z" fill="url(#paint0_linear_2_13574)"/>
<path d="M54.439 48H50.993L50.9835 47.6385L50.9563 47.2828L50.9116 46.933L50.85 46.5891L50.7722 46.251L50.6784 45.9195L50.5684 45.5954L50.4437 45.2786L50.3036 44.9691L50.1496 44.6677L49.981 44.3751L49.7991 44.0913L49.604 43.817L49.3965 43.5523L49.1765 43.2985L48.9447 43.055L48.7013 42.8233L48.4475 42.6033L48.1828 42.3958L47.9085 42.2007L47.6247 42.0188L47.3321 41.8502L47.0307 41.6961L46.7212 41.5561L46.4044 41.4307L46.0803 41.3207L45.7488 41.2268L45.4107 41.1491L45.0668 41.0875L44.717 41.0427L44.3613 41.0156L43.9998 41.0061V37.5601L44.5351 37.574L45.0646 37.6143L45.5867 37.6803L46.1016 37.772L46.6068 37.8886L47.1026 38.0294L47.588 38.1937L48.0625 38.3807L48.5253 38.5897L48.9755 38.8207L49.4126 39.0722L49.8365 39.3436L50.2457 39.6347L50.6395 39.9442L51.0179 40.272L51.3802 40.6174L51.7256 40.9797L52.0534 41.3581L52.3629 41.7519L52.654 42.1611L52.9254 42.585L53.1769 43.022L53.4079 43.4723L53.6169 43.9351L53.8039 44.4095L53.9682 44.895L54.109 45.3908L54.2256 45.896L54.3173 46.4108L54.3833 46.9337L54.4236 47.4632L54.4375 47.9985L54.439 48ZM43.9998 58.4392V54.9932L44.3613 54.9837L44.717 54.9566L45.0668 54.9118L45.4107 54.8502L45.7488 54.7725L46.0803 54.6786L46.4044 54.5686L46.7212 54.4432L47.0307 54.3032L47.3321 54.1491L47.6247 53.9805L47.9085 53.7986L48.1828 53.6035L48.4475 53.396L48.7013 53.176L48.9447 52.9443L49.1765 52.7008L49.3965 52.447L49.604 52.1823L49.7991 51.908L49.981 51.6242L50.1496 51.3316L50.3036 51.0302L50.4437 50.7207L50.5691 50.4039L50.6791 50.0798L50.773 49.7483L50.8507 49.4102L50.9123 49.0663L50.9571 48.7165L50.9842 48.3608L50.9937 47.9993H54.4397L54.4258 48.5346L54.3855 49.0641L54.3195 49.5862L54.2278 50.1011L54.1112 50.6063L53.9704 51.1021L53.8061 51.5876L53.6191 52.062L53.4101 52.5248L53.1791 52.9751L52.9276 53.4121L52.6562 53.836L52.3651 54.2452L52.0556 54.639L51.7278 55.0174L51.3824 55.3797L51.0201 55.7251L50.6417 56.0529L50.2479 56.3624L49.8387 56.6535L49.4148 56.9249L48.9777 57.1764L48.5275 57.4074L48.0647 57.6164L47.5902 57.8034L47.1048 57.9677L46.609 58.1085L46.1038 58.2251L45.5889 58.3168L45.0668 58.3828L44.5373 58.4231L44.002 58.437L43.9998 58.4392ZM33.5605 48H37.0066L37.0161 48.3616L37.0432 48.7172L37.088 49.067L37.1496 49.411L37.2273 49.7491L37.3212 50.0805L37.4312 50.4047L37.5566 50.7215L37.6966 51.0309L37.8506 51.3324L38.0193 51.625L38.2012 51.9088L38.3963 52.183L38.6038 52.4478L38.8238 52.7015L39.0555 52.945L39.299 53.1767L39.5527 53.3967L39.8175 53.6043L40.0918 53.7993L40.3756 53.9812L40.6682 54.1499L40.9696 54.3039L41.279 54.444L41.5959 54.5694L41.92 54.6794L42.2515 54.7732L42.5895 54.851L42.9335 54.9126L43.2833 54.9573L43.639 54.9844L44.0005 54.994V58.44L43.4652 58.426L42.9357 58.3857L42.4135 58.3197L41.8987 58.228L41.3934 58.1114L40.8977 57.9706L40.4122 57.8064L39.9378 57.6194L39.475 57.4104L39.0247 57.1793L38.5877 56.9278L38.1638 56.6565L37.7546 56.3653L37.3608 56.0559L36.9824 55.728L36.6201 55.3826L36.2747 55.0204L35.9469 54.642L35.6374 54.2481L35.3463 53.8389L35.0749 53.4151L34.8234 52.978L34.5924 52.5277L34.3834 52.065L34.1964 51.5905L34.0321 51.105L33.8913 50.6093L33.7747 50.104L33.683 49.5892L33.617 49.067L33.5767 48.5376L33.5627 48.0022L33.5605 48ZM43.9998 37.5608V41.0068L43.6382 41.0163L43.2826 41.0435L42.9327 41.0882L42.5888 41.1498L42.2507 41.2275L41.9193 41.3214L41.5951 41.4314L41.2783 41.5568L40.9688 41.6969L40.6674 41.8509L40.3748 42.0196L40.091 42.2014L39.8167 42.3965L39.552 42.604L39.2983 42.824L39.0548 43.0558L38.8231 43.2992L38.6031 43.553L38.3955 43.8177L38.2004 44.092L38.0186 44.3758L37.8499 44.6684L37.6959 44.9698L37.5558 45.2793L37.4312 45.5961L37.3212 45.9202L37.2273 46.2517L37.1496 46.5898L37.088 46.9337L37.0432 47.2835L37.0161 47.6392L37.0066 48.0007H33.5605L33.5745 47.4654L33.6148 46.9359L33.6808 46.413L33.7725 45.8982L33.8891 45.393L34.0299 44.8972L34.1942 44.4117L34.3812 43.9373L34.5902 43.4745L34.8212 43.0242L35.0727 42.5872L35.3441 42.1633L35.6352 41.7541L35.9447 41.3603L36.2725 40.9819L36.6179 40.6196L36.9802 40.2742L37.3586 39.9464L37.7524 39.6369L38.1616 39.3458L38.5855 39.0744L39.0225 38.8229L39.4728 38.5919L39.9356 38.3829L40.41 38.1959L40.8955 38.0316L41.3912 37.8908L41.8965 37.7742L42.4113 37.6825L42.9335 37.6165L43.463 37.5762L43.9983 37.5623L43.9998 37.5608Z" fill="white"/>
<path d="M62.0057 39.9229C62.3951 40.7912 62.0072 41.8106 61.1389 42.2007C60.2706 42.5901 59.2513 42.2022 58.8611 41.3339L62.0057 39.9237V39.9229ZM43.9998 31.7116V28.2656L44.7258 28.2788L45.4474 28.3184L46.1639 28.3844L46.8745 28.4754L47.5786 28.592L48.2752 28.7335L48.9646 28.8992L49.6451 29.0892L50.3169 29.3033L50.9798 29.5409L51.6325 29.8013L52.2742 30.0843L52.9049 30.3894L53.5238 30.7165L54.1303 31.0648L54.7243 31.4344L55.3044 31.8246L55.8705 32.2352L56.422 32.6665L56.9588 33.1167L57.4795 33.5868L57.984 34.0759L58.4717 34.5834L58.9418 35.1092L59.3943 35.6526L59.8277 36.2137L60.242 36.7915L60.6366 37.3863L61.0106 37.9972L61.3641 38.6242L61.6955 39.2666L62.005 39.9237L58.8604 41.3339L58.6045 40.7905L58.3309 40.2603L58.0398 39.7433L57.731 39.2395L57.4054 38.7488L57.0637 38.2722L56.7058 37.8094L56.3325 37.3614L55.9446 36.9272L55.542 36.5085L55.1254 36.1051L54.6957 35.7172L54.2528 35.3454L53.7973 34.9897L53.3295 34.6502L52.8506 34.3275L52.3607 34.0224L51.8598 33.7342L51.3487 33.4643L50.828 33.2128L50.2978 32.9789L49.7595 32.764L49.2132 32.5682L48.6588 32.3914L48.097 32.2345L47.5287 32.0974L46.9537 31.9808L46.3729 31.8847L45.787 31.8092L45.1959 31.7549L44.5997 31.7219L43.9998 31.7109V31.7116ZM27.7114 48H24.2654L24.291 46.9866L24.3673 45.9848L24.4927 44.997L24.6665 44.0246L24.8873 43.069L25.1535 42.1318L25.4637 41.2144L25.8171 40.3175L26.2124 39.4426L26.648 38.5912L27.1232 37.7647L27.6366 36.9639L28.1866 36.1902L28.7725 35.4451L29.393 34.7294L30.0456 34.0444L30.7306 33.391L31.4463 32.7713L32.1914 32.1861L32.9651 31.6361L33.7659 31.1228L34.5924 30.6475L35.4438 30.2119L36.3187 29.8167L37.2156 29.4632L38.133 29.153L39.0702 28.8868L40.0258 28.666L40.9982 28.4922L41.986 28.3668L42.9878 28.2906L44.0013 28.2649V31.7109L43.1616 31.7322L42.3336 31.7952L41.5182 31.8986L40.7166 32.0416L39.929 32.2235L39.1568 32.4428L38.4007 32.6987L37.6615 32.9899L36.9406 33.3162L36.2388 33.6755L35.5568 34.0679L34.896 34.4918L34.2573 34.9464L33.642 35.4304L33.0509 35.9431L32.4848 36.4828L31.945 37.0489L31.4331 37.64L30.9491 38.256L30.4952 38.8948L30.0713 39.5555L29.679 40.2375L29.3196 40.9394L28.9933 41.6602L28.7021 42.3995L28.4462 43.1555L28.2269 43.9278L28.0451 44.7154L27.9021 45.5169L27.7987 46.3324L27.7356 47.1604L27.7143 48H27.7114ZM43.9998 64.2885V67.7345L42.9863 67.7088L41.9846 67.6325L40.9967 67.5071L40.0243 67.3333L39.0688 67.1126L38.1315 66.8464L37.2141 66.5362L36.3172 66.1827L35.4424 65.7874L34.5909 65.3511L33.7645 64.8759L32.9636 64.3625L32.19 63.8125L31.4449 63.2273L30.7291 62.6069L30.0442 61.9535L29.3915 61.2685L28.7718 60.5528L28.1859 59.8077L27.6359 59.034L27.1225 58.2332L26.6473 57.4067L26.2117 56.5553L25.8164 55.6804L25.4629 54.7835L25.1527 53.8661L24.8865 52.9289L24.6658 51.9733L24.492 51.0009L24.3666 50.0131L24.2903 49.0113L24.2646 47.9978H27.7107L27.7319 48.8375L27.795 49.6655L27.8984 50.481L28.0414 51.2825L28.2233 52.0701L28.4425 52.8423L28.6985 53.5984L28.9896 54.3376L29.316 55.0585L29.6753 55.7603L30.0676 56.4424L30.4915 57.1031L30.9455 57.7418L31.4295 58.3571L31.9421 58.9482L32.4818 59.5144L33.048 60.0541L33.6391 60.566L34.2543 61.05L34.8931 61.5047L35.5538 61.9285L36.2358 62.3209L36.9377 62.6802L37.6585 63.0066L38.3978 63.2977L39.1538 63.5536L39.9261 63.7729L40.7137 63.9548L41.5152 64.0978L42.3307 64.2012L43.1587 64.2643L43.9983 64.2855L43.9998 64.2885ZM62.0109 49.7234V46.2774L63.7342 48.0008L63.7086 49.0143L63.6323 50.016L63.5069 51.0038L63.3331 51.9763L63.1124 52.9318L62.8461 53.869L62.5359 54.7864L62.1825 55.6833L61.7872 56.5582L61.3516 57.4096L60.8764 58.2361L60.363 59.0369L59.813 59.8106L59.2278 60.5557L58.6074 61.2715L57.9547 61.9564L57.2698 62.6098L56.554 63.2302L55.8089 63.8154L55.0352 64.3655L54.2344 64.8788L53.4079 65.354L52.5565 65.7904L51.6816 66.1856L50.7848 66.5391L49.8673 66.8493L48.9301 67.1155L47.9746 67.3362L47.0021 67.5101L46.0143 67.6355L45.0126 67.7117L43.9991 67.7374V64.2914L44.8388 64.2701L45.6667 64.2071L46.4822 64.1036L47.2837 63.9606L48.0714 63.7788L48.8436 63.5595L49.5997 63.3036L50.3389 63.0124L51.0598 62.6861L51.7616 62.3267L52.4436 61.9344L53.1043 61.5105L53.7431 61.0559L54.3584 60.5718L54.9494 60.06L55.5156 59.5202L56.0553 58.9541L56.5672 58.363L57.0512 57.7477L57.5059 57.109L57.9298 56.4482L58.3221 55.7662L58.6815 55.0644L59.0078 54.3435L59.2989 53.6043L59.5549 52.8482L59.7741 52.076L59.956 51.2884L60.099 50.4868L60.2024 49.6713L60.2655 48.8434L60.2868 48.0037L62.0101 49.7271L62.0109 49.7234ZM60.2875 48C60.2875 47.0482 61.059 46.2767 62.0109 46.2767C62.9627 46.2767 63.7342 47.0482 63.7342 48H60.2882H60.2875ZM53.8707 46.2767H62.0109V49.7227H53.8707V46.2767ZM53.8707 49.7227C52.9188 49.7227 52.1473 48.9512 52.1473 47.9993C52.1473 47.0474 52.9188 46.2759 53.8707 46.2759V49.7219V49.7227Z" fill="white"/>
<path d="M44.0001 50.778C45.5343 50.778 46.778 49.5343 46.778 48.0001C46.778 46.4659 45.5343 45.2222 44.0001 45.2222C42.4659 45.2222 41.2222 46.4659 41.2222 48.0001C41.2222 49.5343 42.4659 50.778 44.0001 50.778Z" fill="white"/>
</g>
<defs>
<filter id="filter0_d_2_13574" x="0" y="0" width="88" height="88" filterUnits="userSpaceOnUse" color-interpolation-filters="sRGB">
<feFlood flood-opacity="0" result="BackgroundImageFix"/>
<feColorMatrix in="SourceAlpha" type="matrix" values="0 0 0 0 0 0 0 0 0 0 0 0 0 0 0 0 0 0 127 0" result="hardAlpha"/>
<feOffset dy="-4"/>
<feGaussianBlur stdDeviation="8"/>
<feComposite in2="hardAlpha" operator="out"/>
<feColorMatrix type="matrix" values="0 0 0 0 0 0 0 0 0 0 0 0 0 0 0 0 0 0 0.1 0"/>
<feBlend mode="normal" in2="BackgroundImageFix" result="effect1_dropShadow_2_13574"/>
<feBlend mode="normal" in="SourceGraphic" in2="effect1_dropShadow_2_13574" result="shape"/>
</filter>
<linearGradient id="paint0_linear_2_13574" x1="44" y1="20" x2="44" y2="76" gradientUnits="userSpaceOnUse">
<stop stop-color="#4D89D4"/>
<stop offset="1" stop-color="#216BC9"/>
</linearGradient>
</defs>
</svg>
