<svg width="11" height="12" viewBox="0 0 11 12" fill="none" xmlns="http://www.w3.org/2000/svg">
<path d="M8.93968 3.11905H7.82222C7.82222 1.67333 6.57067 0.5 5.02857 0.5C3.48648 0.5 2.23492 1.67333 2.23492 3.11905H1.11746C0.502857 3.11905 0 3.59048 0 4.16667V10.4524C0 11.0286 0.502857 11.5 1.11746 11.5H8.93968C9.55429 11.5 10.0571 11.0286 10.0571 10.4524V4.16667C10.0571 3.59048 9.55429 3.11905 8.93968 3.11905ZM5.02857 1.54762C5.95606 1.54762 6.70476 2.24952 6.70476 3.11905H3.35238C3.35238 2.24952 4.10108 1.54762 5.02857 1.54762ZM5.02857 6.78571C4.4091 6.78647 3.80701 6.5938 3.31732 6.23811C2.82764 5.88242 2.47825 5.38396 2.32432 4.82143C2.22933 4.49143 2.50311 4.16667 2.86629 4.16667C3.12889 4.16667 3.34121 4.34476 3.41384 4.58571C3.51099 4.91734 3.7216 5.20989 4.01333 5.4184C4.30505 5.62691 4.66174 5.73984 5.02857 5.73984C5.39541 5.73984 5.75209 5.62691 6.04382 5.4184C6.33554 5.20989 6.54616 4.91734 6.6433 4.58571C6.71594 4.34476 6.92825 4.16667 7.19086 4.16667C7.55403 4.16667 7.82222 4.49143 7.73283 4.82143C7.57889 5.38396 7.22951 5.88242 6.73982 6.23811C6.25013 6.5938 5.64804 6.78647 5.02857 6.78571Z" fill="#0DE864"/>
</svg>
