<svg width="21" height="16" viewBox="0 0 21 16" fill="none" xmlns="http://www.w3.org/2000/svg">
<path d="M4.49966 9.39435L3.45627 5.31354C3.13287 4.04868 4.08839 2.81812 5.39394 2.81812H17.2689C18.8651 2.81812 19.8181 4.59605 18.9345 5.92533L16.2217 10.0061C15.8509 10.5638 15.2257 10.8989 14.5561 10.8989H6.43733C5.52357 10.8989 4.72601 10.2796 4.49966 9.39435Z" fill="url(#paint0_linear_409_9860)"/>
<circle cx="6.017" cy="13.862" r="1.6835" fill="url(#paint1_linear_409_9860)"/>
<circle cx="14.771" cy="13.862" r="1.6835" fill="url(#paint2_linear_409_9860)"/>
<path d="M1 1H2.61333C3.01336 1 3.3749 1.2384 3.53248 1.60608L4.63636 4.18182" stroke="#4D89D4" stroke-width="2" stroke-linecap="round"/>
<defs>
<linearGradient id="paint0_linear_409_9860" x1="11.9091" y1="2.81812" x2="11.9091" y2="10.8989" gradientUnits="userSpaceOnUse">
<stop stop-color="#4D89D4"/>
<stop offset="1" stop-color="#216BC9"/>
</linearGradient>
<linearGradient id="paint1_linear_409_9860" x1="6.017" y1="12.1785" x2="6.017" y2="15.5455" gradientUnits="userSpaceOnUse">
<stop stop-color="#4D89D4"/>
<stop offset="1" stop-color="#216BC9"/>
</linearGradient>
<linearGradient id="paint2_linear_409_9860" x1="14.771" y1="12.1785" x2="14.771" y2="15.5455" gradientUnits="userSpaceOnUse">
<stop stop-color="#4D89D4"/>
<stop offset="1" stop-color="#216BC9"/>
</linearGradient>
</defs>
</svg>
