<svg width="32" height="33" viewBox="0 0 32 33" fill="none" xmlns="http://www.w3.org/2000/svg">
<path d="M9.49966 18.3946L8.45627 14.3138C8.13287 13.0489 9.08839 11.8184 10.3939 11.8184H22.2689C23.8651 11.8184 24.8181 13.5963 23.9345 14.9256L21.2217 19.0064C20.8509 19.564 20.2257 19.8992 19.5561 19.8992H11.4373C10.5236 19.8992 9.72601 19.2799 9.49966 18.3946Z" fill="url(#paint0_linear_633_7432)"/>
<circle cx="11.017" cy="22.8617" r="1.6835" fill="url(#paint1_linear_633_7432)"/>
<circle cx="19.771" cy="22.8617" r="1.6835" fill="url(#paint2_linear_633_7432)"/>
<path d="M6 10H7.61333C8.01336 10 8.3749 10.2384 8.53248 10.6061L9.63636 13.1818" stroke="#4D89D4" stroke-width="2" stroke-linecap="round"/>
<defs>
<linearGradient id="paint0_linear_633_7432" x1="16.9091" y1="11.8184" x2="16.9091" y2="19.8992" gradientUnits="userSpaceOnUse">
<stop stop-color="#4D89D4"/>
<stop offset="1" stop-color="#216BC9"/>
</linearGradient>
<linearGradient id="paint1_linear_633_7432" x1="11.017" y1="21.1782" x2="11.017" y2="24.5452" gradientUnits="userSpaceOnUse">
<stop stop-color="#216BC9"/>
<stop offset="1" stop-color="#4D89D4"/>
</linearGradient>
<linearGradient id="paint2_linear_633_7432" x1="19.771" y1="21.1782" x2="19.771" y2="24.5452" gradientUnits="userSpaceOnUse">
<stop stop-color="#216BC9"/>
<stop offset="1" stop-color="#4D89D4"/>
</linearGradient>
</defs>
</svg>
