<svg width="343" height="437" viewBox="0 0 343 437" fill="none" xmlns="http://www.w3.org/2000/svg">
<rect width="343" height="437" rx="8" fill="url(#paint0_linear_2_33826)"/>
<mask id="mask0_2_33826" style="mask-type:luminance" maskUnits="userSpaceOnUse" x="0" y="63" width="343" height="374">
<path d="M343 63H0V436.695H343V63Z" fill="white"/>
</mask>
<g mask="url(#mask0_2_33826)">
<g opacity="0.44">
<path d="M208.2 350.358C212.635 350.147 216.646 352.202 219.137 355.491C221.304 351.978 225.104 349.561 229.538 349.349C236.663 349.013 242.717 354.519 243.053 361.644C243.116 362.952 242.979 364.223 242.667 365.431C246.877 365.991 250.465 368.595 252.383 372.257C254.463 370.526 257.104 369.417 260.019 369.28C264.665 369.056 268.851 371.335 271.292 374.91C274.905 370.924 280.037 368.321 285.829 368.047C297.389 367.499 307.204 376.417 307.752 387.989C307.852 389.958 307.653 391.876 307.229 393.707C313.183 394.616 317.879 399.611 318.166 405.865C318.278 408.281 317.705 410.573 316.646 412.566C321.592 412.815 325.839 415.855 327.782 420.214C329.676 418.944 334.995 418.309 337.424 418.196C344.549 417.86 353.281 422.818 353.617 429.955C353.792 433.655 352.533 439.995 350.154 442.462C354.489 444.094 351.848 445.451 352.496 450.247C352.521 450.247 352.533 450.272 352.558 450.272L353.655 473.454C351.985 474.363 350.092 474.936 348.062 475.035C341.323 475.359 335.543 470.452 334.658 463.887C330.236 462.006 327.035 457.733 326.786 452.614C326.612 448.914 328.019 445.526 330.386 443.047C327.172 441.839 324.556 439.36 323.149 436.209C321.255 437.479 319.025 438.264 316.584 438.389C309.459 438.725 303.405 433.219 303.069 426.094C302.957 423.677 303.53 421.385 304.588 419.392C298.696 419.106 293.789 414.833 292.605 409.128C291.061 409.577 289.454 409.851 287.785 409.925C277.508 410.411 268.627 403.423 266.384 393.744C264.815 394.529 263.071 395.015 261.215 395.102C256.021 395.351 251.412 392.486 249.157 388.164C247.077 389.895 244.436 391.004 241.521 391.141C234.396 391.477 228.342 385.972 228.006 378.846C227.944 377.538 228.081 376.268 228.392 375.06C224.917 374.586 221.84 372.743 219.81 370.04C217.642 373.552 213.843 375.969 209.408 376.181C202.283 376.517 196.229 371.011 195.893 363.886C195.557 356.761 201.062 350.707 208.188 350.371L208.2 350.358Z" fill="#7AA6DF"/>
</g>
<g opacity="0.44">
<path d="M116.259 357.26C113.107 357.26 110.342 358.842 108.685 361.258C107.041 358.842 104.263 357.26 101.111 357.26C96.0541 357.26 91.9435 361.358 91.9435 366.428C91.9435 367.349 92.0805 368.246 92.3421 369.093C89.3774 369.641 86.9235 371.597 85.6903 374.263C84.1582 373.104 82.2523 372.407 80.1846 372.407C76.8836 372.407 73.9937 374.163 72.3868 376.779C69.6962 374.076 65.9717 372.407 61.8611 372.407C53.6522 372.407 47.0005 379.058 47.0005 387.267C47.0005 388.662 47.1998 390.02 47.561 391.303C43.3756 392.15 40.2241 395.85 40.2241 400.284C40.2241 402.003 40.7099 403.598 41.5321 404.98C38.0442 405.317 35.1294 407.621 33.8962 410.773C32.5136 409.938 30.9067 409.452 29.1752 409.452C24.1179 409.452 20.0072 413.55 20.0072 418.62C20.0072 421.249 21.1159 423.603 22.8847 425.272C19.8702 426.58 17.6903 429.457 17.3914 432.87C17.3789 432.87 17.3665 432.883 17.354 432.895V449.35C18.5623 449.948 19.92 450.285 21.365 450.285C26.1483 450.285 30.0721 446.61 30.4832 441.926C33.5474 440.444 35.6775 437.317 35.6775 433.68C35.6775 431.052 34.5689 428.698 32.8001 427.028C35.0422 426.057 36.811 424.226 37.6955 421.946C39.0781 422.781 40.685 423.267 42.4165 423.267C47.4738 423.267 51.5844 419.168 51.5844 414.099C51.5844 412.38 51.0986 410.785 50.2765 409.402C54.437 408.991 57.7753 405.803 58.4231 401.729C59.5317 401.991 60.6777 402.128 61.8611 402.128C69.1606 402.128 75.2144 396.871 76.485 389.945C77.6185 390.444 78.8766 390.73 80.197 390.73C83.8841 390.73 87.0606 388.55 88.5055 385.411C90.0377 386.57 91.9435 387.267 94.0113 387.267C99.0686 387.267 103.179 383.169 103.179 378.099C103.179 377.178 103.042 376.281 102.781 375.434C105.235 374.985 107.34 373.565 108.697 371.585C110.342 374.001 113.12 375.583 116.271 375.583C121.328 375.583 125.439 371.485 125.439 366.415C125.439 361.345 121.341 357.247 116.271 357.247L116.259 357.26Z" fill="#7AA6DF"/>
</g>
<path d="M123.408 360.673C120.767 360.673 118.45 362.006 117.068 364.023C115.685 361.993 113.356 360.673 110.727 360.673C106.48 360.673 103.042 364.111 103.042 368.358C103.042 369.131 103.154 369.89 103.378 370.588C100.899 371.049 98.8313 372.693 97.7974 374.91C96.5144 373.939 94.92 373.353 93.1761 373.353C90.4107 373.353 87.9942 374.823 86.6364 377.016C84.3818 374.749 81.2552 373.353 77.8172 373.353C70.9412 373.353 65.3607 378.934 65.3607 385.81C65.3607 386.981 65.5227 388.114 65.8341 389.198C62.3213 389.908 59.6806 393.01 59.6806 396.722C59.6806 398.167 60.0792 399.5 60.7767 400.658C57.8495 400.945 55.408 402.875 54.3741 405.516C53.2156 404.818 51.8703 404.407 50.4129 404.407C46.1653 404.407 42.7273 407.845 42.7273 412.093C42.7273 414.298 43.6615 416.266 45.1314 417.674C42.6027 418.77 40.7841 421.174 40.5349 424.039C40.5349 424.039 40.51 424.039 40.4976 424.051V437.841C41.519 438.339 42.6525 438.625 43.8608 438.625C47.8718 438.625 51.1603 435.549 51.5091 431.625C54.0876 430.379 55.8564 427.763 55.8564 424.712C55.8564 422.507 54.9222 420.539 53.4523 419.131C55.3332 418.321 56.8156 416.777 57.563 414.871C58.7214 415.568 60.0667 415.98 61.5241 415.98C65.7718 415.98 69.2098 412.542 69.2098 408.294C69.2098 406.849 68.8112 405.516 68.1136 404.358C71.6014 404.021 74.3917 401.343 74.9398 397.918C75.8615 398.142 76.8332 398.254 77.8297 398.254C83.9458 398.254 89.0281 393.844 90.0869 388.04C91.0336 388.463 92.0924 388.7 93.201 388.7C96.2902 388.7 98.9434 386.869 100.164 384.24C101.447 385.212 103.042 385.797 104.786 385.797C109.033 385.797 112.471 382.359 112.471 378.112C112.471 377.339 112.359 376.58 112.135 375.882C114.19 375.508 115.959 374.313 117.093 372.656C118.475 374.686 120.805 376.007 123.433 376.007C127.681 376.007 131.119 372.569 131.119 368.321C131.119 364.073 127.681 360.635 123.433 360.635L123.408 360.673Z" fill="white"/>
<path d="M227.146 360.673C230.098 360.673 232.714 362.168 234.259 364.435C235.804 362.168 238.419 360.673 241.372 360.673C246.13 360.673 249.979 364.534 249.979 369.28C249.979 370.152 249.842 370.987 249.605 371.784C252.396 372.295 254.7 374.138 255.858 376.642C257.303 375.558 259.085 374.898 261.04 374.898C264.142 374.898 266.858 376.542 268.365 379.009C270.893 376.468 274.394 374.898 278.255 374.898C285.966 374.898 292.219 381.151 292.219 388.862C292.219 390.182 292.032 391.453 291.696 392.649C295.632 393.446 298.597 396.921 298.597 401.094C298.597 402.713 298.148 404.208 297.376 405.504C300.664 405.828 303.392 407.983 304.551 410.947C305.846 410.162 309.409 409.901 311.041 409.901C315.799 409.901 321.454 413.488 321.454 418.234C321.454 420.701 320.408 424.886 318.751 426.455C321.591 427.676 319.785 428.498 320.059 431.712C320.072 431.712 320.084 431.725 320.097 431.737V447.208C318.963 447.769 317.68 448.08 316.322 448.08C311.826 448.08 308.138 444.629 307.752 440.232C304.862 438.837 302.869 435.897 302.869 432.484C302.869 430.018 303.916 427.801 305.572 426.231C303.467 425.322 301.81 423.59 300.963 421.448C299.668 422.233 298.148 422.694 296.529 422.694C291.771 422.694 287.921 418.832 287.921 414.086C287.921 412.467 288.37 410.972 289.142 409.677C285.231 409.29 282.104 406.301 281.494 402.464C280.46 402.713 279.376 402.85 278.255 402.85C271.404 402.85 265.699 397.905 264.516 391.403C263.444 391.876 262.274 392.15 261.028 392.15C257.565 392.15 254.588 390.095 253.218 387.155C251.773 388.239 249.991 388.899 248.036 388.899C243.277 388.899 239.428 385.038 239.428 380.292C239.428 379.42 239.565 378.585 239.802 377.788C237.498 377.364 235.517 376.032 234.246 374.176C232.702 376.443 230.086 377.937 227.134 377.937C222.375 377.937 218.526 374.076 218.526 369.33C218.526 364.584 222.388 360.723 227.134 360.723L227.146 360.673Z" fill="white"/>
<path d="M176.772 356.026C168.326 356.026 160.043 356.736 151.971 358.057C79.0255 369.915 23.3325 433.182 23.3325 509.478C23.3325 585.774 79.0255 649.04 151.971 660.899C160.043 662.207 168.326 662.917 176.772 662.917C261.513 662.917 330.211 594.219 330.211 509.478C330.211 424.736 261.513 356.039 176.772 356.039V356.026Z" fill="url(#paint1_linear_2_33826)"/>
<path d="M78.9137 391.814C78.9137 391.814 97.8849 375.795 120.419 366.801C120.419 366.801 120.992 366.39 121.365 367.25C121.739 368.109 122.81 365.768 124.355 366.49C125.9 367.212 127.519 367.524 127.469 366.465C127.419 365.394 127.307 365.219 129.798 364.273C132.29 363.326 134.955 363.762 132.477 364.335C129.998 364.908 129.101 365.307 130.023 365.73C130.932 366.154 133.548 365.842 135.279 365.319C137.011 364.796 139.203 365.469 140.212 364.634C141.221 363.799 143.588 360.885 143.787 362.118C143.986 363.351 143.09 364.011 143.824 363.874C144.559 363.737 146.104 362.018 147.586 362.143C149.069 362.267 149.38 363.177 148.446 363.712C147.524 364.235 148.707 364.896 149.231 364.298C149.754 363.712 153.192 363.251 152.245 362.379C151.298 361.507 149.704 360.835 151.037 360.337C152.382 359.838 153.653 359.315 154.151 360.224C154.637 361.134 157.477 358.306 159.495 358.854C161.513 359.402 161.612 359.315 162.808 358.842C164.004 358.368 167.205 357.733 166.558 358.618C165.91 359.489 166.097 360.175 168.04 360.349C169.983 360.523 172.836 360.623 172.499 361.233C172.163 361.844 170.319 361.981 173.047 362.529C175.775 363.064 177.893 363.102 177.494 363.837C177.108 364.559 177.918 365.381 175.813 364.783C173.708 364.198 170.058 363.874 171.216 364.883C172.375 365.905 174.816 365.88 173.894 366.54C172.985 367.2 169.173 366.216 169.086 366.764C169.012 367.312 174.069 367.325 173.16 368.334C172.263 369.343 166.894 368.695 165.536 367.947C164.178 367.2 162.41 366.527 159.52 366.602C156.617 366.677 155.621 366.079 156.954 365.568C158.286 365.07 166.445 363.625 165.598 362.803C164.751 361.981 161.064 364.846 160.105 363.625C159.146 362.404 163.767 363.363 162.322 362.479C160.877 361.595 160.828 359.95 160.23 360.748C159.632 361.545 159.819 362.641 158.722 362.267C157.626 361.894 155.696 360.735 155.048 361.52C154.4 362.305 156.044 363.027 155.297 363.675C154.562 364.323 151.709 364.223 150.651 364.721C149.579 365.207 148.633 364.622 147.848 365.008C147.063 365.394 145.17 366.652 144.26 367.212C143.351 367.773 141.271 366.914 139.639 367.773C137.995 368.633 137.335 368.869 135.055 369.38C132.776 369.878 128.989 371.186 128.229 372.457C127.469 373.727 128.715 373.129 128.266 374.686C127.818 376.243 127.98 376.48 129.412 375.795C130.845 375.11 133.112 374.475 134.283 376.069C135.454 377.676 135.852 377.078 137.16 377.676C138.468 378.274 139.265 378.71 140.935 378.511C142.604 378.311 142.791 379.183 142.579 381.313C142.367 383.456 143.177 387.367 144.547 387.566C145.917 387.766 147.25 386.533 147.325 385.162C147.399 383.792 146.777 378.573 149.492 378.336C152.22 378.099 155.01 376.53 154.836 375.533C154.674 374.524 152.395 374.425 152.992 372.756C153.59 371.086 154.736 371.809 154.799 369.978C154.861 368.147 155.696 367.648 156.667 367.698C157.639 367.748 162.248 367.275 163.319 367.947C164.39 368.62 165.897 370.513 166.695 369.978C167.492 369.442 168.7 368.832 168.339 369.978C167.965 371.124 168.003 371.884 168.737 372.594C169.472 373.291 170.444 374.001 171.216 373.565C171.989 373.129 174.218 373.154 174.405 372.083C174.592 371.024 174.33 369.38 176.498 370.987C178.665 372.594 182.689 374.238 182.078 375.023C181.48 375.807 181.044 376.779 181.916 376.58C182.788 376.38 183.349 376.418 184.059 376.916C184.757 377.414 187.609 376.953 188.905 378.187C190.212 379.42 189.042 379.694 189.876 379.657C190.711 379.619 191.209 379.457 191.682 379.918C192.156 380.379 193.526 380.952 193.75 381.587C193.974 382.223 194.423 384.041 191.794 384.627C189.166 385.2 188.768 384.739 186.189 386.545C183.611 388.351 179.363 387.243 175.389 387.143C171.416 387.043 172.014 387.816 171.204 388.476C170.407 389.148 169.908 389.198 168.526 389.074C167.155 388.949 164.589 390.519 164.452 391.029C164.328 391.54 165.2 391.291 166.707 390.531C168.214 389.771 170.917 389.123 173.384 388.825C175.838 388.526 179.425 389.036 178.379 390.108C177.345 391.179 176.037 390.743 176.174 391.677C176.311 392.611 175.402 392.985 176.336 393.583C177.27 394.181 176.971 394.916 178.179 395.389C179.388 395.862 178.877 396.112 180.148 396.224C181.431 396.348 183.997 396.161 184.096 397.656C184.196 399.163 182.352 398.254 181.02 399.026C179.687 399.799 177.345 401.194 174.766 401.767C172.188 402.34 169.946 401.231 171.627 399.799C173.309 398.366 174.903 397.656 173.297 397.756C171.69 397.855 171.229 397.519 170.992 399.064C170.755 400.596 168.65 399.437 163.269 400.833C157.888 402.24 162.933 406.251 160.566 406.388C158.187 406.525 156.555 406.226 154.886 406.986C153.217 407.746 153.777 409.789 151.809 410.324C149.841 410.86 148.67 412.43 147.898 412.068C147.125 411.695 146.964 412.168 146.964 412.94C146.964 413.713 146.166 416.154 146.864 417.686C147.561 419.218 146.428 421.261 141.62 422.47C136.811 423.678 130.297 427.701 129.823 430.031C129.338 432.36 130.06 433.78 130.832 435.586C131.605 437.392 132.041 440.195 131.866 441.603C131.704 443.01 131.43 447.756 128.827 446.685C126.223 445.614 125.277 443.446 124.617 442.3C123.944 441.167 125.513 436.819 123.919 435.611C122.312 434.403 122.051 435.075 119.41 434.179C116.769 433.282 117.803 431.637 114.29 432.509C110.777 433.381 111.512 432.572 109.469 434.116C107.427 435.648 108.261 436.284 105.321 435.624C102.382 434.951 102.245 434.154 98.3956 435.586C94.5466 437.019 92.9771 437.255 91.8061 438.028C90.6352 438.8 85.553 450.098 85.553 453.436C85.553 453.436 85.416 457.086 86.3253 459.054C87.2222 461.022 88.2311 463.875 91.5072 463.663C94.7832 463.464 94.2476 466.055 97.6981 463.663C101.136 461.284 101.883 456.027 103.989 455.629C106.094 455.23 108.598 456.526 109.768 456.102C110.939 455.666 114.153 453.461 112.571 456.538C111.002 459.615 110.192 461.62 108.921 464.261C107.651 466.902 106.318 470.676 104.873 471.947C103.428 473.217 103.353 473.105 106.131 473.13C108.909 473.155 112.658 472.146 114.664 472.956C116.669 473.753 120.643 474.027 119.646 475.198C118.637 476.369 119.073 475.796 118.974 477.577C118.874 479.346 117.803 480.417 117.903 482.323C118.002 484.229 116.009 485.836 116.47 488.14C116.931 490.457 118.613 493.135 120.668 493.883C122.723 494.63 123.832 494.892 125.738 494.057C127.643 493.222 129.412 492.014 131.792 493.085C134.171 494.157 136.5 498.23 136.774 496.635C137.036 495.029 138.182 494.157 139.452 494.132C140.723 494.094 140.959 493.023 140.822 491.117C140.685 489.211 142.591 487.978 143.999 488.078C145.406 488.177 146.876 488.277 147.711 487.841C148.545 487.405 150.127 487.642 151.46 486.371C152.793 485.101 155.409 483.793 155.11 485.238C154.811 486.67 152.145 486.807 152.743 488.651C153.341 490.494 153.815 490.856 152.307 492.799C150.8 494.742 154.649 496.897 154.911 495.402C155.185 493.907 153.64 490.058 154.774 489.199C155.907 488.327 159.134 487.58 161.064 487.991C162.983 488.402 165.038 488.19 164.577 490.096C164.104 492.002 163.369 492.101 166.246 491.603C169.124 491.105 169.161 489.398 170.631 490.905C172.101 492.413 174.169 494.244 175.9 492.911C177.631 491.578 175.713 489.971 179.562 490.407C183.411 490.843 182.303 493.322 185.915 494.057C189.527 494.792 189.889 494.892 190.325 496.561C190.761 498.23 190.86 498.23 192.629 498.803C194.398 499.376 196.378 499.911 196.441 501.78C196.503 503.648 196.117 503.25 198.11 503.624C200.103 503.997 200.252 503.636 200.502 504.57C200.751 505.504 204.824 506.364 206.232 505.405C207.639 504.433 208.486 503.474 210.915 504.931C213.332 506.401 216.633 507.336 217.43 509.042C218.227 510.749 218.763 509.378 219.871 510.848C220.98 512.318 220.569 514.722 222.176 515.968C223.783 517.201 225.315 517.5 224.455 518.883C223.583 520.253 222.475 521.162 220.482 523.367C218.489 525.572 217.791 527.752 219.784 525.335C221.777 522.919 222.736 520.539 223.97 521.636C225.203 522.732 228.815 522.458 229.388 523.13C229.961 523.803 227.383 527.552 228.666 526.917C229.949 526.269 230.347 523.703 231.456 523.84C232.565 523.977 233.225 524.613 235.704 525.148C238.182 525.684 238.942 525.746 239.752 526.855C240.549 527.964 242.891 527.752 242.43 529.396C241.957 531.04 242.891 531.078 243.626 530.143C244.361 529.197 246.13 529.745 247.213 530.505C248.297 531.264 248.883 529.82 249.954 530.766C251.025 531.713 269.922 528.711 267.331 545.876C264.74 563.041 243.476 575.174 240.263 583.445C237.049 591.716 225.502 593.323 222.55 603.761C219.597 614.187 209.47 614.138 210.977 611.833C212.485 609.529 214.241 607.423 211.575 609.13C208.922 610.837 210.18 611.634 206.319 615.159C202.457 618.684 202.594 620.216 198.583 619.307C194.572 618.41 193.875 617.351 195.27 619.855C196.677 622.359 198.122 623.866 196.777 624.414C195.419 624.962 188.506 629.023 184.943 629.023C181.381 629.023 184.495 629.571 182.639 631.427C180.783 633.283 178.478 632.735 178.379 634.741C178.279 636.746 176.025 638.801 173.458 639.96C170.905 641.118 174.804 642.314 173.247 644.071C171.69 645.827 164.677 647.683 166.234 649.439C167.791 651.196 173.558 654.285 172.25 655.02C170.942 655.755 163.369 656.415 158.61 654.36C153.852 652.304 154.599 651.719 154.811 651.171C155.023 650.635 155.272 649.9 154.487 649.9C153.702 649.9 152.245 649.078 152.507 648.53C152.768 647.994 152.831 647.496 152.145 646.674C151.46 645.852 151.572 646.101 150.962 645.702C150.352 645.316 150.277 644.382 151.261 644.419C152.258 644.457 152.17 644.232 152.145 643.747C152.12 643.261 153.042 642.987 152.494 642.7C151.946 642.426 151.697 642.489 150.912 642.688C150.14 642.887 148.06 642.787 148.06 642.19C148.06 641.592 149.978 642.015 150.788 641.417C151.61 640.819 152.021 639.163 152.532 639.686C153.042 640.209 154.151 641.94 154.288 640.57C154.425 639.2 154.201 637.332 154.674 635.849C155.147 634.367 154.861 632.486 154.126 634.155C153.391 635.837 153.491 637.469 151.959 637.282C150.426 637.095 150.551 636.123 151.56 635.177C152.569 634.23 152.282 633.059 152.145 632.399C152.008 631.751 151.66 630.73 152.569 629.87C153.478 629.011 153.578 628.786 153.341 628.101C153.105 627.416 151.585 624.19 152.158 623.916C152.731 623.654 153.105 623.742 153.229 623.231C153.354 622.72 153.229 622.583 153.715 622.334C154.201 622.085 156.742 615.67 155.994 613.004C155.247 610.351 155.795 606.539 155.596 604.484C155.397 602.428 158.249 585.251 156.119 579.521C153.989 573.803 140.075 569.892 135.391 563.34C130.708 556.788 122.013 549.426 121.752 543.41C121.49 537.393 119.347 533.644 120.954 532.037C122.561 530.43 123.259 522.271 124.367 519.269C125.476 516.254 131.194 515.158 131.692 511.446C132.19 507.734 133.996 501.568 131.293 499.837C128.59 498.105 129.188 498.105 126.585 500.821C123.981 503.524 123.172 501.219 120.767 500.024C118.363 498.815 116.757 499.675 114.651 497.769C112.546 495.863 113.705 493.459 111.438 492.55C109.183 491.653 108.685 489.535 109.033 488.489C109.382 487.43 110.292 487.592 108.286 487.031C106.281 486.483 105.022 482.111 102.967 482.012C100.912 481.912 101.011 480.654 98.3084 480.056C95.6054 479.458 91.694 473.79 89.5266 473.23C87.3716 472.682 87.2222 476.543 84.9675 475.733C82.7129 474.936 66.4821 469.443 66.0087 464.099C65.5354 458.755 67.0177 454.869 66.0087 451.456C64.9998 448.043 62.7327 441.628 62.932 439.622C63.1313 437.617 62.6455 435.487 61.8607 436.882C61.076 438.277 64.3396 452.527 63.2683 453.997C62.1971 455.467 57.3889 454.47 57.8497 451.057C58.3231 447.644 57.9494 446.448 57.2643 444.567C56.5792 442.699 58.9833 441.017 58.3231 439.086C57.6504 437.143 60.1293 429.931 58.9957 427.053C57.8622 424.176 59.5937 416.092 62.4711 412.741C65.3486 409.403 67.8897 403.125 71.365 400.907C74.8404 398.678 74.8529 395.165 79.0133 391.876L78.9137 391.814Z" fill="url(#paint2_linear_2_33826)"/>
<path d="M146.664 368.109C146.664 368.109 144.945 367.848 145.157 368.371C145.369 368.894 146.415 368.969 146.926 368.757C147.449 368.545 148.097 368.545 147.86 368.221C147.624 367.897 146.764 368.122 146.664 368.109Z" fill="#0ABA50"/>
<path d="M148.695 367.374C148.371 367.611 147.524 368.308 148.346 368.234C149.156 368.146 149.704 368.134 150.439 368.122C151.174 368.122 152.133 368.034 151.635 367.76C151.124 367.486 150.152 366.328 148.707 367.374H148.695Z" fill="#0ABA50"/>
<path d="M152.781 367.075C152.357 366.988 152.382 367.175 152.145 367.461C151.921 367.748 152.195 368.097 152.631 368.047C153.067 367.985 153.242 367.187 152.781 367.088V367.075Z" fill="#0ABA50"/>
<path d="M152.344 368.632C151.946 368.744 151.597 369.243 151.622 369.567C151.659 369.878 152.033 369.953 152.544 369.866C153.054 369.778 153.727 369.716 153.528 369.268C153.328 368.819 153.266 368.371 152.344 368.632Z" fill="#0ABA50"/>
<path d="M148.869 368.558C148.669 368.62 147.548 368.881 147.486 369.23C147.424 369.591 147.86 369.841 148.545 369.903C149.23 369.965 149.554 370.04 149.902 369.567C150.251 369.093 150.525 369.081 150.251 368.757C149.977 368.433 149.354 368.408 148.881 368.558H148.869Z" fill="#0ABA50"/>
<path d="M184.856 392.798C184.208 393.296 183.199 394.355 183.05 394.704C182.9 395.053 184.333 396.111 184.557 396.398C184.781 396.684 185.031 395.937 185.242 396.211C185.454 396.485 185.429 397.058 186.388 396.797C187.335 396.535 187.945 396.498 187.522 395.837C187.098 395.177 186.899 395.875 186.488 394.666C186.089 393.458 186.637 392.474 185.915 392.225C185.192 391.976 185.579 392.262 184.856 392.798Z" fill="#2DC469"/>
<path d="M190.412 387.218C189.751 387.816 189.826 389.36 189.241 389.622C188.668 389.871 187.036 389.946 187.185 390.519C187.335 391.092 189.203 390.294 188.892 390.905C188.593 391.515 186.787 391.827 187.248 392.188C187.709 392.549 189.315 392.462 190.997 392.126C192.679 391.789 193.202 392.238 193.551 392.599C193.899 392.96 194.472 392.935 195.158 392.786C195.843 392.636 196.939 392.213 196.366 392.711C195.793 393.209 194.672 393.695 194.896 394.143C195.12 394.592 195.494 395.177 196.391 394.33C197.275 393.483 199.094 393.321 199.393 392.711C199.692 392.101 201.012 391.839 200.277 390.98C199.555 390.12 199.704 390.02 200.277 389.746C200.85 389.472 201.56 389.198 200.128 388.638C198.695 388.077 196.69 387.828 195.668 387.965C194.647 388.102 192.43 388.09 193.289 387.193C194.136 386.308 195.818 384.153 194.722 383.991C193.613 383.829 192.517 385.113 191.383 385.137C190.25 385.162 190.985 386.682 190.424 387.193L190.412 387.218Z" fill="#2DC469"/>
<path d="M201.747 392.125C202.221 392.3 203.728 391.067 203.528 391.814C203.329 392.561 203.18 394.729 202.47 395.003C201.772 395.277 200.115 395.576 199.991 394.903C199.866 394.231 198.92 394.255 199.38 393.67C199.841 393.097 200.651 391.727 201.747 392.125Z" fill="#2DC469"/>
<path d="M173.545 357.247C174.392 357.21 176.858 357.222 179.362 356.986C181.866 356.749 186.089 356.338 193.338 357.559C200.588 358.767 203.777 359.514 208.137 360.274C212.496 361.034 221.565 362.441 219.422 363.575C217.28 364.709 214.938 363.239 215.312 364.746C215.685 366.253 211.301 364.945 211.537 366.589C211.774 368.234 214.116 373.478 211.799 372.98C209.494 372.481 207.053 371.373 204.337 370.737C201.634 370.102 201.796 371.074 196.453 368.433C191.109 365.792 190.536 364.148 189.527 363.612C188.518 363.077 189.464 362.815 188.156 362.479C186.849 362.142 189.427 361.707 187.185 361.146C184.943 360.573 184.681 359.041 181.231 358.941C177.793 358.842 174.641 359.676 171.938 359.14C169.235 358.605 166.084 358.007 167.965 357.633C169.833 357.26 171.888 357.334 173.545 357.26V357.247Z" fill="url(#paint3_linear_2_33826)"/>
<path d="M226.498 368.707C230.659 369.417 233.013 369.878 232.926 369.031C232.839 368.171 232.415 367.461 230.758 366.751C229.102 366.054 224.792 364.746 224.941 366.054C225.091 367.362 225.415 368.533 226.498 368.707Z" fill="url(#paint4_linear_2_33826)"/>
<path d="M223.359 374.263C225.85 377.053 227.108 378.548 229.238 379.345C231.381 380.142 234.209 380.578 233.287 377.476C232.365 374.375 232.552 371.871 228.89 371.908C225.227 371.958 220.108 370.625 223.359 374.263Z" fill="#0DE864"/>
<path d="M273.073 395.165C274.02 397.046 282.303 402.987 279.899 403.324C277.495 403.66 276.685 404.731 279.027 407.472C281.369 410.212 284.583 411.059 285.417 414.709C286.252 418.371 287.933 419.878 290.263 421.037C292.592 422.183 291.87 420.289 293.402 421.311C294.934 422.332 295.607 423.129 295.544 420.451C295.482 417.773 296.217 418.707 293.875 414.97C291.533 411.221 291.695 408.057 289.055 406.139C286.414 404.22 266.633 382.347 273.073 395.177V395.165Z" fill="url(#paint5_linear_2_33826)"/>
<path d="M292.804 424.388C292.58 427.838 294.61 433.219 294.074 436.084C293.539 438.962 293.203 441.765 293.439 442.176C293.676 442.587 293.277 442.649 296.952 443.708C300.627 444.767 301.1 445.913 298.895 445.651C296.69 445.389 295.345 444.517 296.155 446.722C296.952 448.927 295.333 449.936 295.607 451.605C295.881 453.274 299.344 456.625 296.479 456.55C293.614 456.488 291.247 455.616 292.729 461.296C294.211 466.977 295.22 472.046 295.146 475.559C295.083 479.084 298.023 485.699 302.296 492.923C306.581 500.148 310.056 507.958 314.266 505.828C318.477 503.698 319.212 500.347 321.491 503.487C323.771 506.626 327.57 508.631 327.906 503.013C328.243 497.395 329.513 491.852 326.461 477.988C323.409 464.124 313.569 436.084 302.645 423.155C291.72 410.225 299.144 423.578 296.067 423.404C292.991 423.229 292.879 423.142 292.791 424.375L292.804 424.388Z" fill="url(#paint6_linear_2_33826)"/>
<path d="M140.536 192.983C140.698 192.311 140.798 191.613 140.798 190.891C140.798 187.776 139.166 185.048 136.699 183.504C136.998 182.52 137.173 181.473 137.173 180.39C137.173 174.597 132.477 169.889 126.672 169.889C124.417 169.889 122.337 170.599 120.618 171.807C119.235 170.611 117.454 169.889 115.486 169.889C111.525 169.889 108.249 172.829 107.726 176.653C106.866 177.039 106.106 177.612 105.508 178.322C103.864 176.927 101.734 176.092 99.4046 176.092C95.1445 176.092 91.5445 178.895 90.3487 182.769C90.2117 182.769 90.0747 182.744 89.9252 182.744C88.9038 182.744 87.9446 182.981 87.0727 183.392C86.0637 182.732 84.8679 182.333 83.5724 182.333C81.4299 182.333 79.5489 183.392 78.3905 185.011C76.796 179.854 71.9878 176.092 66.3077 176.092C63.779 176.092 61.4123 176.84 59.4442 178.123C56.6664 171.334 50.0021 166.551 42.2168 166.551C32.3139 166.551 24.2172 174.286 23.6442 184.052C19.6332 185.746 16.4319 188.96 14.7378 192.971H140.536V192.983Z" fill="white"/>
<path d="M329.352 273.788C328.841 273.788 328.355 273.851 327.882 273.963C326.262 270.811 322.986 268.656 319.199 268.656C319.162 268.656 319.125 268.656 319.087 268.656C317.194 265.667 313.868 263.674 310.069 263.674C307.453 263.674 305.049 264.62 303.193 266.19C301.661 262.864 298.31 260.56 294.411 260.56C289.516 260.56 285.48 264.197 284.832 268.905C284.134 268.744 283.399 268.656 282.652 268.656C282.602 268.656 282.552 268.656 282.503 268.656C279.675 263.811 274.418 260.547 268.402 260.547C264.254 260.547 260.467 262.092 257.59 264.645C256.842 264.371 256.057 264.147 255.26 263.985C253.354 258.716 248.31 254.942 242.368 254.942C236.426 254.942 231.593 258.554 229.6 263.661C227.582 263.674 225.651 264.072 223.882 264.795C221.466 262.191 218.015 260.547 214.179 260.547C206.867 260.547 200.938 266.476 200.938 273.788C200.938 281.1 206.867 287.03 214.179 287.03C214.864 287.03 215.537 286.955 216.209 286.855C218.875 291.551 223.92 294.715 229.712 294.715C233.86 294.715 237.622 293.084 240.412 290.443C243.314 293.569 247.475 295.525 252.084 295.525C255.896 295.525 259.396 294.18 262.136 291.95C264.067 292.76 266.185 293.196 268.414 293.196C273.185 293.196 277.47 291.153 280.447 287.902C281.157 288.064 281.892 288.163 282.652 288.163C284.969 288.163 287.087 287.354 288.756 286.008C290.462 290.219 294.585 293.196 299.406 293.196C304.613 293.196 309.01 289.72 310.418 284.962C310.903 284.949 311.389 284.9 311.863 284.812C313.656 286.855 316.272 288.151 319.199 288.151C321.628 288.151 323.833 287.266 325.54 285.796C326.624 286.556 327.931 287.005 329.352 287.005C333.001 287.005 335.966 284.04 335.966 280.39C335.966 276.741 333.001 273.776 329.352 273.776V273.788Z" fill="white"/>
<path d="M258.81 122.442C259.408 121.109 259.757 119.639 259.757 118.082C259.757 112.24 255.024 107.507 249.181 107.507C247.998 107.507 246.877 107.706 245.818 108.067C245.818 107.88 245.831 107.694 245.831 107.507C245.831 99.8211 239.602 93.5804 231.904 93.5804C225.003 93.5804 219.273 98.6129 218.177 105.202C217.069 104.654 215.811 104.33 214.49 104.33C210.529 104.33 207.228 107.083 206.356 110.783C204.637 109.363 202.445 108.503 200.041 108.503C194.572 108.503 190.138 112.938 190.138 118.406C190.138 119.839 190.449 121.196 190.997 122.43H258.81V122.442Z" fill="white"/>
<path opacity="0.48" d="M241.448 379.888C242.421 377 237.461 372.721 230.368 370.329C223.275 367.938 216.736 368.341 215.763 371.229C214.789 374.117 219.75 378.397 226.843 380.788C233.935 383.179 240.474 382.776 241.448 379.888Z" fill="#EAF4E6"/>
<path opacity="0.48" d="M237.443 378.165C238.104 376.203 234.73 373.294 229.906 371.667C225.082 370.041 220.635 370.313 219.973 372.276C219.312 374.238 222.686 377.147 227.51 378.773C232.334 380.399 236.781 380.127 237.443 378.165Z" fill="white"/>
<path d="M233.108 376.493C233.574 375.111 231.933 373.31 229.442 372.47C226.952 371.631 224.556 372.071 224.09 373.453C223.624 374.835 225.265 376.636 227.755 377.475C230.245 378.315 232.642 377.875 233.108 376.493Z" fill="white"/>
<path d="M146.528 254.369C146.528 254.369 145.668 251.08 145.892 250.557C146.117 250.034 147.437 250.595 147.736 251.778C148.035 252.961 146.528 254.369 146.528 254.369Z" fill="#DB8E70"/>
<path d="M124.928 181.835C100.687 197.605 94.509 231.088 111.126 256.624C117.205 265.966 125.513 272.942 134.768 277.264L173.06 297.805L212.31 318.869C213.543 319.529 214.951 318.62 214.839 317.225L211.476 272.805L208.199 229.481C208 219.267 204.986 208.853 198.894 199.498C182.277 173.962 149.156 166.065 124.928 181.835ZM169.497 250.321C158.075 257.757 142.479 254.02 134.644 242C126.821 229.967 129.724 214.197 141.146 206.76C152.569 199.324 168.164 203.061 175.999 215.081C183.822 227.114 180.92 242.884 169.497 250.321Z" fill="#FF3358"/>
<path d="M135.777 327.949C135.777 327.949 130.346 336.943 126.921 341.116C123.495 345.289 93.3877 364.958 93.3877 364.958L88.3428 360.224C88.3428 360.224 116.183 338.712 116.557 327.239C117.528 296.771 145.219 307.919 139.265 317.536" fill="#114C97"/>
<path d="M148.944 307.807C148.944 307.807 165.387 314.97 173.67 323.627C177.395 327.526 194.286 358.517 194.286 358.517L188.082 365.593C188.082 365.593 170.157 334.09 159.109 331.026C119.385 319.989 138.356 303.223 147.512 309.862" fill="#114C97"/>
<path d="M112.92 274.087C112.92 274.087 110.192 276.292 108.983 277.6C107.775 278.908 106.716 283.168 108.784 290.655C110.852 298.141 115.56 303.398 117.08 311.307L129.288 313.836C133.049 313.425 138.456 312.964 141.183 310.348L146.826 303.173C146.826 303.173 139.29 281.1 135.08 276.629C135.08 276.629 131.629 274.424 126.883 271.995C125.588 271.335 123.906 269.777 123.52 269.914C122.885 270.126 120.518 274.274 119.36 274.748C118.077 275.271 113.181 272.705 112.932 274.075L112.92 274.087Z" fill="#FFCB08"/>
<path d="M111.375 263.773C111.375 263.773 114.29 270.687 112.235 273.265C112.235 273.265 115.785 276.342 118.986 275.408C118.986 275.408 121.59 275.046 121.552 271.322C121.552 271.322 119.821 271.222 119.485 265.044C119.485 265.044 119.373 260.809 115.835 260.584C112.297 260.36 111.226 262.839 111.363 263.773H111.375Z" fill="#DD9E73"/>
<path opacity="0.51" d="M111.986 262.59L112.77 266.14C112.77 266.14 114.826 269.765 119.833 268.071C119.833 268.071 119.31 264.845 119.746 263.724C120.182 262.603 117.753 261.22 115.984 261.494C114.215 261.768 112.409 260.099 111.973 262.578L111.986 262.59Z" fill="#CA664B"/>
<path d="M106.542 258.579C106.542 258.579 106.38 264.857 114.676 266.539C114.676 266.539 123.246 268.868 126.161 263.637C126.572 262.914 126.821 262.104 126.983 261.295C127.133 260.547 127.332 259.414 127.432 258.206C127.606 256.051 127.88 253.671 128.179 252.189C128.179 252.189 129.699 240.891 118.127 238.686C118.127 238.686 106.754 235.796 105.982 251.653C105.982 251.653 105.658 256.125 106.542 258.579Z" fill="#DD9E73"/>
<path d="M121.204 252.45C121.204 252.45 120.755 252.625 120.593 254.419C120.382 256.785 120.406 259.737 121.528 260.149C123.197 260.746 123.134 259.825 122.25 257.084C121.241 253.933 121.739 252.463 121.204 252.463V252.45Z" fill="#A95636"/>
<path d="M116.432 253.348C116.432 253.348 116.108 251.554 114.688 251.778C113.642 251.94 113.754 252.077 112.932 252.276C112.932 252.276 112.832 252.114 114.128 251.479C114.128 251.479 116.495 250.507 116.445 253.348H116.432Z" fill="#2D2A2B"/>
<path d="M118.164 249.212C118.164 249.212 118.014 250.034 116.545 249.86C115.075 249.685 112.608 249.262 112.048 249.324C112.048 249.324 111.624 248.502 113.829 248.353C113.829 248.353 118.687 248.178 118.176 249.212H118.164Z" fill="#2D2A2B"/>
<path d="M123.757 249.212C123.757 249.212 123.346 250.084 124.268 250.408C125.19 250.732 127.245 250.595 127.806 250.183C127.806 250.183 126.884 248.714 123.757 249.199V249.212Z" fill="#2D2A2B"/>
<path d="M123.645 254.145C123.645 254.145 124.131 252.799 125.887 252.874C126.049 252.874 126.199 252.924 126.348 252.999C126.56 253.098 126.772 253.372 127.108 253.821C127.108 253.821 127.033 253.285 126.498 252.588C126.373 252.413 126.161 252.301 125.949 252.289C125.376 252.239 124.293 252.401 123.645 254.145Z" fill="#2D2A2B"/>
<path d="M107.851 253.26C107.851 253.26 107.601 247.917 103.79 249.013C103.79 249.013 99.567 250.408 103.167 256.773C103.167 256.773 104.599 259.24 107.626 258.816C107.626 258.816 108.723 258.268 107.851 253.26Z" fill="#DD9E73"/>
<path d="M115.801 253.999C116.284 253.49 116.368 252.786 115.989 252.426C115.61 252.066 114.911 252.186 114.428 252.695C113.944 253.204 113.86 253.908 114.239 254.268C114.618 254.628 115.317 254.508 115.801 253.999Z" fill="#2D2A2B"/>
<path d="M126.154 254.802C126.654 254.351 126.795 253.691 126.468 253.328C126.141 252.965 125.47 253.037 124.969 253.489C124.468 253.94 124.328 254.601 124.655 254.963C124.982 255.326 125.653 255.254 126.154 254.802Z" fill="#2D2A2B"/>
<path d="M106.057 256.262C105.994 254.356 106.306 251.143 103.964 250.57C103.628 250.532 103.279 250.694 103.129 251.018C102.943 251.329 102.918 251.716 102.905 252.089C102.855 251.716 102.831 251.329 102.992 250.943C103.142 250.557 103.565 250.308 103.989 250.333C106.58 250.781 106.368 254.282 106.057 256.262Z" fill="#A95636"/>
<path fill-rule="evenodd" clip-rule="evenodd" d="M107.613 254.892C107.613 254.892 107.489 249.299 111.176 247.518L104.761 249.038C104.761 249.038 107.638 248.9 107.613 254.892Z" fill="#2D2A2B"/>
<path d="M104.699 255.291C105.508 254.655 105.621 253.621 105.932 252.687C106.069 253.646 105.77 255.029 104.699 255.291Z" fill="#A95636"/>
<path opacity="0.51" d="M105.192 256.137C106.006 255.931 106.343 254.493 105.946 252.926C105.549 251.359 104.567 250.256 103.753 250.462C102.94 250.668 102.602 252.106 103 253.673C103.397 255.24 104.379 256.343 105.192 256.137Z" fill="#CA664B"/>
<path d="M116.532 259.962C116.532 259.962 116.943 262.316 119.708 262.079L119.609 261.781C119.609 261.781 117.553 262.092 116.681 259.8L116.52 259.949L116.532 259.962Z" fill="#A95636"/>
<path d="M117.08 311.332C117.08 311.332 115.374 315.194 118.201 317.025C118.201 317.025 141.358 320.849 148.944 307.807C148.944 307.807 149.679 304.394 146.814 303.198C146.814 303.198 139.253 316.253 117.08 311.332Z" fill="#FFFFFD"/>
<path d="M139.938 254.257C139.938 254.257 139.078 250.968 139.302 250.445C139.527 249.922 140.847 250.483 141.146 251.666C141.445 252.849 139.938 254.257 139.938 254.257Z" fill="#DB8E70"/>
<path d="M138.58 262.03C138.58 262.03 138.954 257.496 139.652 255.141C140.349 252.787 140.76 252.65 142.38 250.121L146.615 250.819C146.615 250.819 146.876 251.604 143.214 251.791L146.876 251.604C146.876 251.604 147.026 252.351 144.136 252.974L147.013 252.364C147.013 252.364 145.979 253.958 145.12 254.606C145.12 254.606 143.7 260.149 141.508 262.827C141.508 262.827 139.066 265.318 138.568 262.042L138.58 262.03Z" fill="#DD9E73"/>
<path d="M144.471 252.426C143.998 253.422 143.388 254.344 142.628 255.154C143.101 254.145 143.712 253.248 144.471 252.426Z" fill="#D67B63"/>
<path d="M143.462 251.354C142.977 252.351 142.354 253.248 141.582 254.057C142.067 253.061 142.703 252.164 143.462 251.354Z" fill="#D67B63"/>
<path d="M139.938 254.257L143.612 246.87C143.612 246.87 144.858 247.269 143.201 250.221L139.95 254.257H139.938Z" fill="#DD9E73"/>
<path d="M142.641 249.884C142.13 250.868 141.495 251.765 140.71 252.55C141.221 251.566 141.856 250.669 142.641 249.884Z" fill="#D67B63"/>
<path d="M147.025 252.351C148.707 250.844 150.152 252.177 152.307 253.896L149.155 256.15C149.155 256.15 147.897 256.113 150.588 253.634L147.885 256.113C147.885 256.113 147.299 255.627 149.118 253.31L146.888 256.15C146.888 256.15 145.655 256.1 147.773 252.837" fill="#DD9E73"/>
<path d="M148.981 255.34C149.629 254.444 150.389 253.659 151.286 252.986C150.638 253.883 149.878 254.668 148.981 255.34Z" fill="#D67B63"/>
<path d="M149.678 252.052C149.168 253.036 148.532 253.933 147.748 254.718C148.258 253.734 148.894 252.837 149.678 252.052Z" fill="#D67B63"/>
<path d="M148.571 251.691L146.515 254.73C146.515 254.73 145.27 254.344 147.624 251.578L148.571 251.691Z" fill="#DD9E73"/>
<path d="M188.606 364.945L191.458 369.342L206.68 358.107C207.365 357.596 206.88 356.512 206.045 356.687L193.589 359.265" fill="#FFCB08"/>
<path d="M197.039 358.804C197.039 358.804 197.985 359.228 198.384 359.9" stroke="white" stroke-width="0.24" stroke-miterlimit="10"/>
<path d="M197.313 358.792C197.313 358.792 198.883 358.555 199.742 358.891" stroke="white" stroke-width="0.24" stroke-miterlimit="10"/>
<path d="M197.039 358.804C197.039 358.804 194.037 359.925 194.56 361.458C195.083 362.99 197.002 362.878 197.039 358.804Z" stroke="white" stroke-width="0.24" stroke-miterlimit="10"/>
<path d="M196.814 358.804C196.814 358.804 199.816 357.733 199.43 356.786C199.044 355.84 197.163 356.139 196.814 358.804Z" stroke="white" stroke-width="0.24" stroke-miterlimit="10"/>
<path d="M88.9163 360.087L84.8057 362.167L93.1764 376.492C93.5501 377.14 94.5466 376.816 94.4719 376.069L93.3882 364.958" fill="#FFCB08"/>
<path d="M93.6496 368.159C93.6496 368.159 93.1639 368.981 92.5161 369.28" stroke="white" stroke-width="0.25" stroke-miterlimit="10"/>
<path d="M93.6249 368.408C93.6249 368.408 93.6872 369.865 93.2886 370.638" stroke="white" stroke-width="0.25" stroke-miterlimit="10"/>
<path d="M93.6498 368.159C93.6498 368.159 92.9149 365.281 91.4575 365.618C90.0001 365.954 89.9004 367.723 93.6498 368.159Z" stroke="white" stroke-width="0.25" stroke-miterlimit="10"/>
<path d="M93.6621 367.947C93.6621 367.947 94.3597 370.812 95.2565 370.551C96.1534 370.289 96.0787 368.533 93.6621 367.947Z" stroke="white" stroke-width="0.25" stroke-miterlimit="10"/>
<path d="M119.347 274.748C119.347 274.748 134.245 298.951 136.413 310.859L137.795 310.099C137.795 310.099 124.305 279.419 119.945 274.437L119.347 274.76V274.748Z" fill="#114C97"/>
<path d="M113.443 273.265C113.443 273.265 112.77 271.933 111.537 272.817C110.304 273.701 107.713 275.919 108.883 276.953C110.054 277.986 114.937 280.092 119.347 274.773C119.347 274.773 115.461 275.732 113.443 273.265Z" fill="#114C97"/>
<path d="M120.929 270.213C120.929 270.213 120.493 269.528 121.677 269.64C123.184 269.777 125.015 269.939 125.065 271.496C125.115 273.054 123.632 274.748 119.335 274.748C119.335 274.748 121.54 273.34 120.929 270.213Z" fill="#114C97"/>
<path d="M109.656 293.32C114.838 294.167 118.126 293.681 127.805 293.171C127.805 293.171 133.535 291.9 137.222 292.037C139.44 292.112 141.619 290.418 142.118 288.238C142.118 288.2 142.13 288.163 142.143 288.126C142.591 286.145 141.495 284.389 139.564 284.04C137.795 283.729 135.453 283.23 133.087 282.533C127.98 281.025 123.981 281.262 117.591 280.253C117.342 280.216 114.913 279.967 113.742 279.867C113.368 279.83 112.994 279.867 112.608 279.929L108.884 276.94C103.353 276.915 102.319 284.177 102.905 286.369C103.316 287.939 105.67 292.66 109.656 293.308V293.32Z" fill="#114C97"/>
<path d="M142.242 287.216C144.372 282.595 145.045 276.604 144.696 267.946C144.696 267.946 144.759 258.629 145.232 256.785C145.232 256.785 139.776 255.926 137.995 256.561C137.995 256.561 137.409 260.883 136.052 265.393C134.594 270.226 134.756 273.801 133.747 279.718C133.697 280.004 133.286 283.504 133.299 283.803L133.822 286.693C134.37 288.836 136.724 291.352 138.767 290.505C140.224 289.895 141.595 288.674 142.255 287.229L142.242 287.216Z" fill="#114C97"/>
<path fill-rule="evenodd" clip-rule="evenodd" d="M135.341 250.707C135.553 250.869 135.764 251.055 135.964 251.23C136.761 252.177 136.699 253.509 136.001 254.257C134.494 255.901 132.737 253.945 131.816 252.849C130.931 251.79 129.922 250.894 128.639 250.545C128.801 250.196 128.963 249.847 129.125 249.498C129.91 249.474 130.694 249.461 131.467 249.449C132.326 249.635 133.186 249.822 134.045 250.022C134.481 250.246 134.905 250.482 135.341 250.707Z" fill="#F89A1C"/>
<path fill-rule="evenodd" clip-rule="evenodd" d="M129.449 247.705C130.881 230.539 101.098 229.817 104.76 249.037C105.184 249.075 105.607 249.112 106.031 249.137C107.6 249.249 109.606 247.406 111.175 247.518C113.567 247.244 115.522 248.913 117.902 248.626C121.028 248.489 124.155 248.365 127.281 248.228C128.004 248.053 128.714 247.879 129.436 247.705H129.449Z" fill="#114C97"/>
<path fill-rule="evenodd" clip-rule="evenodd" d="M115.884 234.737C109.22 234.986 102.967 239.62 104.773 249.037C105.196 249.075 105.62 249.112 106.043 249.137C107.613 249.249 109.232 247.63 110.789 247.742L111.151 247.692C111.2 247.106 111.175 248.215 111.175 247.518C111.076 237.415 115.697 234.837 115.884 234.737Z" fill="#1A4276"/>
<path fill-rule="evenodd" clip-rule="evenodd" d="M116.843 234.114H115.597C115.41 234.114 115.261 234.276 115.261 234.463C115.261 234.638 115.423 234.787 115.61 234.787H116.868C117.054 234.787 117.204 234.625 117.192 234.451C117.192 234.264 117.03 234.114 116.843 234.114Z" fill="#FFCB08"/>
<path fill-rule="evenodd" clip-rule="evenodd" d="M111.611 247.866C117.665 247.007 123.719 246.421 129.885 248.041C132.064 248.763 134.219 249.61 135.963 251.242C132.924 250.171 130.458 250.32 128.278 251.155C121.414 253.945 116.98 254.767 111.611 247.866Z" fill="#F9D973"/>
<path fill-rule="evenodd" clip-rule="evenodd" d="M111.175 247.518C117.229 246.658 123.283 246.073 129.449 247.704C131.616 248.427 133.671 249.386 135.503 250.843C132.476 249.772 130.022 249.996 127.829 250.831C120.966 253.609 116.531 254.443 111.163 247.53L111.175 247.518Z" fill="#FFCB08"/>
</g>
<defs>
<linearGradient id="paint0_linear_2_33826" x1="171.5" y1="0" x2="171.5" y2="437" gradientUnits="userSpaceOnUse">
<stop stop-color="#BCD9FF"/>
<stop offset="1" stop-color="#D9D9D9" stop-opacity="0"/>
</linearGradient>
<linearGradient id="paint1_linear_2_33826" x1="176.772" y1="356.026" x2="256" y2="509" gradientUnits="userSpaceOnUse">
<stop stop-color="#216BC9"/>
<stop offset="1" stop-color="#4D89D4"/>
</linearGradient>
<linearGradient id="paint2_linear_2_33826" x1="162.357" y1="358.175" x2="162.357" y2="655.736" gradientUnits="userSpaceOnUse">
<stop stop-color="#2DC469"/>
<stop offset="1" stop-color="#6EF1A2"/>
</linearGradient>
<linearGradient id="paint3_linear_2_33826" x1="193.57" y1="356.724" x2="193.57" y2="373.013" gradientUnits="userSpaceOnUse">
<stop stop-color="#0ABA50"/>
<stop offset="1" stop-color="#3DED83"/>
</linearGradient>
<linearGradient id="paint4_linear_2_33826" x1="228.933" y1="365.495" x2="228.933" y2="369.488" gradientUnits="userSpaceOnUse">
<stop stop-color="#2DC469"/>
<stop offset="1" stop-color="#6EF1A2"/>
</linearGradient>
<linearGradient id="paint5_linear_2_33826" x1="277" y1="394.5" x2="296" y2="416" gradientUnits="userSpaceOnUse">
<stop offset="0.12601" stop-color="#2DC469"/>
<stop offset="1" stop-color="#6EF1A2"/>
</linearGradient>
<linearGradient id="paint6_linear_2_33826" x1="293.5" y1="465" x2="314.5" y2="463.5" gradientUnits="userSpaceOnUse">
<stop stop-color="#2DC469"/>
<stop offset="1" stop-color="#6EF1A2"/>
</linearGradient>
</defs>
</svg>
