<svg width="151" height="148" viewBox="0 0 151 148" fill="none" xmlns="http://www.w3.org/2000/svg">
<g clip-path="url(#clip0_1827_20990)">
<path d="M75.5 78.75C80.1511 78.75 83.9215 74.9796 83.9215 70.3286C83.9215 65.6775 80.1511 61.9071 75.5 61.9071C70.849 61.9071 67.0786 65.6775 67.0786 70.3286C67.0786 74.9796 70.849 78.75 75.5 78.75Z" stroke="#D1D1D1" stroke-width="6" stroke-linecap="round" stroke-linejoin="round"/>
<path d="M59.6214 51.4286C61.7118 49.2825 64.2109 47.5769 66.9711 46.4122C69.7314 45.2476 72.6969 44.6476 75.6928 44.6476C78.6887 44.6476 81.6543 45.2476 84.4145 46.4122C87.1748 47.5769 89.6738 49.2825 91.7642 51.4286M45.6714 40.5643C49.5845 36.6283 54.2372 33.5048 59.3618 31.3734C64.4865 29.2419 69.9819 28.1447 75.5321 28.1447C81.0823 28.1447 86.5777 29.2419 91.7024 31.3734C96.827 33.5048 101.48 36.6283 105.393 40.5643" stroke="#D1D1D1" stroke-width="7" stroke-linecap="round" stroke-linejoin="round"/>
<path d="M33.7144 28.6071C39.2007 23.1179 45.7148 18.7635 52.8846 15.7926C60.0543 12.8217 67.7392 11.2926 75.5001 11.2926C83.261 11.2926 90.9458 12.8217 98.1156 15.7926C105.285 18.7635 111.799 23.1179 117.286 28.6071" stroke="#D1D1D1" stroke-width="7" stroke-linecap="round" stroke-linejoin="round"/>
</g>
<line x1="44.4191" y1="73.4467" x2="108.924" y2="8.94189" stroke="#FF002E" stroke-width="8"/>
<path d="M75.4999 147.79C116.816 147.79 150.31 141.795 150.31 134.4C150.31 127.005 116.816 121.01 75.4999 121.01C34.1835 121.01 0.689941 127.005 0.689941 134.4C0.689941 141.795 34.1835 147.79 75.4999 147.79Z" fill="#6B6B6B"/>
<mask id="mask0_1827_20990" style="mask-type:luminance" maskUnits="userSpaceOnUse" x="32" y="100" width="87" height="48">
<path d="M118.36 123.93C118.36 131.85 112.7 146.49 101.23 146.98C96.5396 147.18 84.9797 147.86 75.4997 147.86C66.0197 147.86 56.9497 147.38 49.2797 146.94C37.6997 146.28 32.6396 131.91 32.6396 123.93C32.6396 110.71 51.8297 100 75.4997 100C99.1697 100 118.36 110.71 118.36 123.93Z" fill="white"/>
</mask>
<g mask="url(#mask0_1827_20990)">
<path d="M82.6995 161.04C82.6995 161.04 92.3495 157.28 98.5595 145.75C103.87 135.91 107.49 112.19 89.4595 106.02C89.4595 106.02 82.9195 100.75 73.3695 103.25C73.3695 103.25 70.4895 104.79 69.8495 105.48C69.8495 105.48 61.2795 104.15 55.4895 108.2C55.4895 108.2 43.8095 116.99 48.8095 137.72C48.8095 137.72 55.5595 153.67 65.2695 155.27C74.9695 156.87 69.6595 155.51 72.0395 157.8C74.4195 160.09 81.0395 167.35 82.6995 161.03V161.04Z" fill="#2D2A2B"/>
<path d="M90.0397 147.51C90.0397 147.51 87.5297 156.55 76.5097 160.02C76.5097 160.02 61.3697 164.78 55.1397 153.7C54.4297 152.44 54.1597 150.97 53.9697 149.54C53.7997 148.22 53.5897 146.24 53.5497 144.13C53.4797 140.37 52.0997 136.34 51.7597 133.73C51.7597 133.73 47.4097 112.31 67.7097 109.8C67.7097 109.8 90.7597 107.72 90.2997 135.32C90.2997 135.32 91.8597 143.37 90.0497 147.53L90.0397 147.51Z" fill="#F1BF98"/>
<path d="M63.4496 135.08C63.4496 135.08 64.3096 135 64.8396 139.29C65.3696 143.58 65.6496 148.01 63.6096 148.33C61.3596 148.69 60.9796 148.14 61.9596 143.08C63.0596 137.43 62.5096 135.01 63.4496 135.08Z" fill="#E28160"/>
<path d="M71.9795 137.05C71.9795 137.05 72.7495 133.98 75.1895 134.52C76.9795 134.92 76.2495 136.33 78.1895 135.83C78.1895 135.83 78.3695 135.33 76.1995 134.07C76.1995 134.07 72.2095 132.11 71.9795 137.05Z" fill="#2D2A2B"/>
<path d="M69.3394 128.98C69.3394 128.98 68.2894 129.95 71.3794 130.66C73.8794 131.23 77.7894 133.21 78.5694 133.82C78.5694 133.82 79.5894 133.38 76.4894 131.12C76.4894 131.12 69.5394 127 69.3394 128.98Z" fill="#2D2A2B"/>
<path d="M57.3494 130.26C57.3494 130.26 59.7894 130.9 58.2494 131.61C56.4594 132.43 55.0494 132.31 53.1794 134.03C53.1794 134.03 52.0794 131.84 57.3494 130.26Z" fill="#2D2A2B"/>
<path d="M59.6593 136.88C59.6593 136.88 58.6893 134.91 55.7193 135.61C55.4493 135.67 55.1593 135.87 54.9293 136.04C54.5993 136.29 54.7693 136.19 54.0393 136.57C54.0393 136.57 53.8693 136.75 54.5393 135.39C54.7093 135.05 55.1493 134.8 55.5093 134.69C56.4693 134.41 57.9693 134.11 59.6593 136.88Z" fill="#2D2A2B"/>
<path d="M86.8695 137.86C86.8695 137.86 87.8995 128.62 94.3895 130.96C94.3895 130.96 101.559 133.86 94.5995 144.48C94.5995 144.48 91.8295 148.59 86.6295 147.53C86.6295 147.53 84.7895 146.45 86.8695 137.86Z" fill="#F1BF98"/>
<path d="M73.7397 138.94C74.7614 138.94 75.5897 137.857 75.5897 136.52C75.5897 135.183 74.7614 134.1 73.7397 134.1C72.7179 134.1 71.8896 135.183 71.8896 136.52C71.8896 137.857 72.7179 138.94 73.7397 138.94Z" fill="#2D2A2B"/>
<path d="M58.3999 139.12C59.2561 138.808 59.6114 137.625 59.1936 136.478C58.7757 135.332 57.7429 134.655 56.8867 134.967C56.0305 135.279 55.6752 136.461 56.093 137.608C56.5109 138.755 57.5437 139.432 58.3999 139.12Z" fill="#2D2A2B"/>
<path d="M89.6394 143.28C89.1294 140.08 89.0794 135.99 91.7894 133.7C92.9494 132.79 95.1894 132.72 95.6494 134.36C95.8594 135.07 95.7494 135.76 95.5694 136.39C95.5394 135.74 95.5194 135.06 95.2094 134.54C94.9494 134.01 94.4094 133.77 93.8994 133.81C90.1494 134.41 90.1294 140.25 89.6294 143.27L89.6394 143.28Z" fill="#E28160"/>
<path d="M92.0995 141.75C90.0795 141.48 89.5295 138.7 90.2495 137.09C90.6095 137.82 90.8295 138.78 91.0795 139.53C91.3295 140.34 91.5495 141.04 92.0995 141.75Z" fill="#E28160"/>
<path opacity="0.31" d="M95.2327 139.112C96.0978 136.443 95.6747 133.915 94.2878 133.466C92.9008 133.016 91.0751 134.815 90.21 137.484C89.3449 140.153 89.7679 142.681 91.1549 143.13C92.5419 143.58 94.3676 141.781 95.2327 139.112Z" fill="#E28160"/>
<path d="M87.2193 139.8C87.2193 139.8 87.4093 130.27 85.0593 124.98C85.0593 124.98 85.0693 123.21 82.5393 123.45C79.9993 123.69 62.3393 127.95 57.0093 120.8C50.0493 111.46 53.0793 103 66.7093 102.23C66.7093 102.23 78.7293 102.33 71.5593 109.42C71.5593 109.42 83.1693 110.72 89.3493 115.07C99.1893 122 88.7193 129.38 87.2293 139.79L87.2193 139.8Z" fill="#2D2A2B"/>
<path d="M60.1496 119.51C60.1496 119.51 49.7596 121.93 52.4996 137.37C54.6596 149.5 44.9396 117.18 58.6996 112.18C72.4596 107.18 60.1496 119.51 60.1496 119.51Z" fill="#2D2A2B"/>
<path d="M79.8994 113.61C76.0794 114.25 64.3695 116.19 63.9395 110.43C64.2995 107.22 65.9894 103.14 69.5694 102.55C72.2894 102.12 75.3894 105.17 72.8294 107.47C72.2094 108.03 71.1694 108.45 70.4194 107.87C69.7294 107.25 69.7794 106.28 69.8494 105.48C69.7094 106.63 70.1794 108.37 71.6394 107.89C75.2694 106.29 72.8594 102.6 69.6294 102.99C66.3894 103.54 64.7694 107.51 64.3994 110.42C64.7594 115.59 76.2994 114.02 79.9094 113.61H79.8994Z" fill="#7B787A"/>
<path d="M73.1196 147.67C73.1196 147.67 71.5796 150.25 66.3296 151.71C66.3296 151.71 73.8296 154.87 73.1196 147.67Z" fill="#FFFFFD"/>
</g>
<defs>
<clipPath id="clip0_1827_20990">
<rect width="90" height="90" fill="white" transform="translate(30.5)"/>
</clipPath>
</defs>
</svg>
