<svg width="275" height="200" viewBox="0 0 275 200" fill="none" xmlns="http://www.w3.org/2000/svg">
<path d="M78.3501 151.596C78.3501 118.986 104.79 92.5457 137.4 92.5457C170.01 92.5457 196.45 118.986 196.45 151.596" stroke="#A4A8D0" stroke-width="25" stroke-miterlimit="10"/>
<path d="M124.73 86.1757L140.43 85.9557L146.06 86.5657L136.69 128.886H132.68L120.31 87.3057L124.73 86.1757Z" fill="#FFFFFD"/>
<path d="M216.13 148.306H64.7301C62.289 148.306 60.3101 150.285 60.3101 152.726V184.806C60.3101 187.247 62.289 189.226 64.7301 189.226H216.13C218.571 189.226 220.55 187.247 220.55 184.806V152.726C220.55 150.285 218.571 148.306 216.13 148.306Z" stroke="#3B4A9F" stroke-width="0.5" stroke-miterlimit="10"/>
<path d="M211.82 142.476H60.42C57.9789 142.476 56 144.455 56 146.896V178.976C56 181.417 57.9789 183.396 60.42 183.396H211.82C214.261 183.396 216.24 181.417 216.24 178.976V146.896C216.24 144.455 214.261 142.476 211.82 142.476Z" fill="white"/>
<path d="M120.31 87.3057C120.31 87.3057 113.38 89.5757 110.04 91.2457C106.7 92.9157 98.0998 99.5757 96.4298 116.096C94.7598 132.616 95.8698 137.476 97.3998 142.476H168.76C168.76 142.476 176.12 116.216 164.04 97.9757C164.04 97.9757 157.48 88.9257 149.88 87.2257C146.88 86.5557 146.9 86.6157 146.05 86.5657C144.65 86.4857 139.07 127.686 136.48 127.716C133.61 127.746 121.81 84.7957 120.29 87.3057H120.31Z" fill="#114C97"/>
<path d="M121.64 86.9657C121.64 86.9657 135.98 125.646 136.5 127.716C136.5 127.716 141.68 97.7257 143.18 86.1957C143.18 86.1957 144.64 86.3057 146.07 86.5657C146.07 86.5657 138.95 132.316 137.42 142.476H136.97L118.53 88.1257C118.53 88.1257 119.4 87.4457 121.65 86.9657H121.64Z" fill="#4D8BCA"/>
<path d="M152.23 87.9357C152.23 87.9357 140.43 117.076 118.54 142.486H115.17C115.17 142.486 143.62 106.136 147.59 86.8057C147.59 86.8057 150.49 87.3557 152.23 87.9357Z" fill="#FFCB08"/>
<path d="M115.09 75.0857C115.09 75.0857 106.56 70.1457 103.55 55.8357C100.54 41.5257 101.04 23.2857 115.25 14.7957C115.25 14.7957 123.44 8.5457 134.33 10.3157C134.33 10.3157 136.3 10.8457 137.1 11.5557C137.1 11.5557 142.76 10.0157 149.62 13.9057C149.62 13.9057 166.21 22.1457 162.85 45.7257C162.85 45.7257 161.08 66.8757 150.46 69.6857C139.84 72.4957 131.04 73.2257 128.64 76.0357C126.24 78.8457 117.61 81.9457 115.1 75.0957L115.09 75.0857Z" fill="#2D2A2B"/>
<path d="M124.73 69.0257C124.73 69.0257 126.39 81.6057 124.73 86.1757C124.73 86.1757 127.9 93.9157 134.33 93.0557C134.33 93.0557 139.43 93.1257 140.43 85.9457C140.43 85.9457 137.15 85.2657 138.27 73.3057C138.27 73.3057 139.27 65.1557 132.55 63.6857C125.83 62.2157 124.73 67.1957 124.73 69.0157V69.0257Z" fill="#F9B28F"/>
<path opacity="0.51" d="M125.05 70.8657V73.4857C125.05 73.4857 127.95 81.0257 138.06 79.2157C138.06 79.2157 137.98 72.8857 139.15 70.8557C140.32 68.8257 136.05 65.4857 132.58 65.4857C129.11 65.4857 126.6 66.2057 125.05 70.8557V70.8657Z" fill="#E28160"/>
<path d="M115.64 79.3957C115.64 79.3957 110.36 90.0857 115.64 99.8357C120.92 109.586 123.61 115.716 120.11 122.186C120.11 122.186 123.42 124.006 126.48 119.686C126.48 119.686 128.44 115.716 127.63 111.406C127.63 111.406 129.57 116.856 127.63 120.026C127.63 120.026 143.11 116.626 136.53 105.736C136.53 105.736 132.04 100.176 128.63 97.9057C125.21 95.6357 120.11 87.6957 119.32 79.6557C119.32 79.6557 118.19 74.8357 115.64 79.3957Z" fill="#2D2A2B"/>
<path d="M117.01 60.8257C117.01 60.8257 121.84 74.4457 138.24 75.0857C138.24 75.0857 152.19 75.3657 156.15 64.4557C156.7 62.9357 156.95 61.3257 157.01 59.7057C157.06 58.2157 157.09 55.9957 156.91 53.6457C156.59 49.4657 156.37 44.8257 156.48 41.8957C156.48 41.8957 159.05 17.6157 136.21 16.9757C136.21 16.9757 110.37 17.1057 113.8 47.7357C113.8 47.7357 114.56 56.4057 117.02 60.8357L117.01 60.8257Z" fill="#F1BF98"/>
<path d="M141.03 44.8857C141.03 44.8857 140.23 45.3656 140.47 48.8356C140.79 53.4457 141.77 59.0957 144.03 59.5157C147.42 60.1457 147 58.3956 144.47 53.4057C141.56 47.6757 142.06 44.7057 141.03 44.8857Z" fill="#E28160"/>
<path d="M134.33 47.7257C134.33 47.7257 133.15 44.3957 130.49 45.2557C128.54 45.8857 127.82 46.8057 125.61 46.4557C125.61 46.4557 127.04 46.4957 129.32 44.8657C129.32 44.8657 133.55 42.2657 134.33 47.7257Z" fill="#2D2A2B"/>
<path d="M137.07 40.7256C137.07 40.7256 137.17 42.3356 134.32 42.7156C131.47 43.0956 126.64 43.4756 125.6 43.8556C125.6 43.8556 125.22 42.8156 129.3 41.4856C129.3 41.4856 137.54 38.5456 137.07 40.7256Z" fill="#2D2A2B"/>
<path d="M149.19 38.9257C149.19 38.9257 147.41 40.5957 149.19 41.2257C150.97 41.8557 152.75 40.3857 155.47 41.2257C155.47 41.2257 155.26 37.9857 149.19 38.9257Z" fill="#2D2A2B"/>
<path d="M148.4 47.0257C148.4 47.0257 148.92 44.2957 152.3 43.8957C152.61 43.8557 152.91 43.8957 153.21 43.9957C153.66 44.1257 154.45 44.3057 155.46 44.2557C155.46 44.2557 154.59 44.3457 153.37 43.1657C153.07 42.8757 152.65 42.7257 152.23 42.7557C151.11 42.8357 149.1 43.4857 148.39 47.0357L148.4 47.0257Z" fill="#2D2A2B"/>
<path d="M117.87 50.2057C117.87 50.2057 115.75 40.0457 108.78 43.3357C108.78 43.3357 101.12 47.3257 109.98 58.3857C109.98 58.3857 113.49 62.6657 119.16 60.9257C119.16 60.9257 121.09 59.5357 117.87 50.2057Z" fill="#F1BF98"/>
<path d="M115.3 74.0157C115.3 74.0157 112.41 67.8957 108.77 70.2057C105.13 72.5157 108.35 76.1957 108.77 76.9457C109.19 77.6957 109.7 78.3157 108.56 80.8457C107.6 82.9857 110.13 86.1657 113.28 83.1457C116.43 80.1257 115.97 79.7157 116.18 78.8357C116.39 77.9557 116.1 75.3957 115.3 74.0157Z" fill="#FFCB08"/>
<path d="M118.32 74.1858C118.32 74.1858 119.83 69.1558 123.1 70.1658C126.37 71.1758 126.12 73.7958 125.99 75.0958C125.86 76.3958 124.52 77.0358 126.24 78.8358C127.72 80.3858 124.77 86.0358 121.76 82.7358C118.75 79.4358 119 79.6358 118.33 77.6658C117.66 75.6958 117.95 75.1758 118.33 74.1858H118.32Z" fill="#FFCB08"/>
<path d="M115.09 75.0857C115.09 75.0857 116.56 73.2157 118.48 75.0857C118.48 75.0857 119.42 78.2657 118.99 79.4257C118.99 79.4257 117.32 81.4757 115.66 79.9857C115.66 79.9857 113.71 77.1657 115.09 75.0857Z" fill="#F9DE6C"/>
<path d="M133.331 49.2242C134.101 48.0979 134.045 46.7201 133.206 46.1467C132.367 45.5733 131.063 46.0215 130.293 47.1478C129.523 48.274 129.58 49.6518 130.419 50.2252C131.258 50.7986 132.562 50.3504 133.331 49.2242Z" fill="#2D2A2B"/>
<path d="M151.628 48.7737C152.444 47.7576 152.502 46.4488 151.758 45.8504C151.013 45.2519 149.747 45.5905 148.931 46.6066C148.114 47.6226 148.056 48.9314 148.801 49.5299C149.546 50.1283 150.812 49.7897 151.628 48.7737Z" fill="#2D2A2B"/>
<path opacity="0.51" d="M134.372 58.0091C134.965 55.516 133.133 52.9449 130.28 52.2663C127.427 51.5876 124.634 53.0585 124.041 55.5515C123.448 58.0446 125.28 60.6157 128.133 61.2944C130.986 61.973 133.779 60.5021 134.372 58.0091Z" fill="#E28160"/>
<path opacity="0.51" d="M156.846 57.5097C157.439 55.0166 156.051 52.5511 153.746 52.0029C151.441 51.4546 149.092 53.0311 148.499 55.5242C147.906 58.0172 149.294 60.4827 151.599 61.031C153.904 61.5792 156.253 60.0027 156.846 57.5097Z" fill="#E28160"/>
<path d="M115.36 56.5257C114.56 53.2357 113.86 46.6057 109.61 46.4157C109.02 46.4257 108.44 46.7757 108.21 47.3957C107.93 48.0057 107.98 48.7657 108.03 49.4957C107.77 48.8057 107.59 48.0557 107.75 47.2557C108.1 45.4057 110.55 45.2757 111.92 46.1457C115.15 48.4057 115.53 52.9257 115.35 56.5157L115.36 56.5257Z" fill="#E28160"/>
<path d="M112.46 55.0857C113.57 53.4557 113.42 51.5357 114.02 49.7057C114.9 51.4357 114.62 54.5057 112.46 55.0857Z" fill="#E28160"/>
<path opacity="0.31" d="M113.635 56.5574C115.13 55.9104 115.334 53.0561 114.09 50.1821C112.847 47.3082 110.626 45.503 109.131 46.1501C107.636 46.7971 107.432 49.6514 108.676 52.5253C109.919 55.3992 112.14 57.2045 113.635 56.5574Z" fill="#E28160"/>
<path d="M126.48 119.686C129.12 112.706 126.55 105.056 122.85 98.9657C122.29 98.0757 121.7 97.2057 121.16 96.2957C121.88 97.0657 122.56 97.8857 123.26 98.6857C127.71 104.446 130.42 112.986 126.49 119.686H126.48Z" fill="#423D3E"/>
<path d="M143.73 62.2375C143.73 62.2375 141.42 66.2675 136.53 64.0075L136.9 63.5375C136.9 63.5375 140.44 65.4575 143.54 61.8575L143.73 62.2375Z" fill="#CF684D"/>
<path d="M128.68 91.9557C128.68 91.9557 128.6 86.8757 129.11 86.1957C129.62 85.5157 131.34 86.8057 131.35 88.6157C131.36 90.4257 128.68 91.9557 128.68 91.9557Z" fill="#EFA37D"/>
<path d="M123.96 102.736C123.96 102.736 126.11 96.2957 127.96 93.1257C129.81 89.9557 130.46 89.8957 133.7 86.7957L137.1 84.3757C137.1 84.3757 137.26 86.3157 134.33 89.5157L138.16 86.7957C138.16 86.7957 138.53 88.6457 135.26 91.5557L138.16 89.5257C138.16 89.5257 137.95 91.5557 136.11 94.2657C136.11 94.2657 132.09 101.816 127.96 104.906C127.96 104.906 123.54 107.646 123.96 102.726V102.736Z" fill="#F1BF98"/>
<path d="M97.1998 140.066C98.9798 132.356 102.76 122.076 110.77 113.466C110.77 113.466 121.31 102.526 122.48 99.8057C122.48 99.8057 130 103.936 131.59 106.406C131.59 106.406 127.18 111.966 125.58 119.126C124.18 125.366 120.37 137.256 115.18 142.476L106.81 149.006C104.1 151.126 100.08 150.406 98.3898 147.416C97.1798 145.276 96.6698 142.476 97.2198 140.076L97.1998 140.066Z" fill="#4D8BCA"/>
<path d="M159.2 97.6158C159.2 97.6158 158.63 100.686 161.33 100.866C164.03 101.046 163.97 98.2258 164.59 96.4058C165.21 94.5858 167.12 90.4658 168.12 89.0058C168.12 89.0058 168.97 89.1058 168.12 86.1958C167.27 83.2858 167.66 80.7458 166.58 78.2758L164.88 74.2558C164.88 74.2558 158.4 71.1758 158.17 80.1258C157.94 89.0758 157.66 88.9458 157.66 91.9158C157.66 94.8858 159.43 96.3858 159.21 97.6158H159.2Z" fill="#F1BF98"/>
<path opacity="0.23" d="M165.98 87.8557C165.98 87.8557 167.16 89.8957 165.31 91.6557C164.23 92.6857 158.45 92.1957 157.66 90.8857C156.87 89.5757 165.97 87.8557 165.97 87.8557H165.98Z" fill="#E28160"/>
<path d="M171.17 139.786C172.55 133.796 173.33 124.526 169.98 112.916C169.98 112.916 167.32 103.116 165.7 95.4357C165.7 95.4357 157.12 95.7357 154.59 97.2157C154.59 97.2157 156.02 104.176 154.22 111.276C153.12 115.616 151.68 128.766 151.71 138.646C151.72 144.046 156.31 148.306 161.7 147.916C166.3 147.576 170.14 144.276 171.18 139.776L171.17 139.786Z" fill="#4D8BCA"/>
<path d="M166.19 84.3258C166.19 84.3258 163.64 80.9558 163.29 80.9558C162.94 80.9558 162.43 81.6958 164.42 85.1558L166.41 88.6258C166.41 88.6258 167.07 87.1858 166.19 84.3358V84.3258Z" fill="#F1BF98"/>
<path d="M105.5 177.066H80.6098C80.4165 177.066 80.2598 177.222 80.2598 177.416V178.146C80.2598 178.339 80.4165 178.496 80.6098 178.496H105.5C105.693 178.496 105.85 178.339 105.85 178.146V177.416C105.85 177.222 105.693 177.066 105.5 177.066Z" fill="#6674B8"/>
<path d="M135.85 177.066H110.96C110.767 177.066 110.61 177.222 110.61 177.416V178.146C110.61 178.339 110.767 178.496 110.96 178.496H135.85C136.043 178.496 136.2 178.339 136.2 178.146V177.416C136.2 177.222 136.043 177.066 135.85 177.066Z" fill="#6674B8"/>
<path d="M166.94 177.066H142.05C141.857 177.066 141.7 177.222 141.7 177.416V178.146C141.7 178.339 141.857 178.496 142.05 178.496H166.94C167.133 178.496 167.29 178.339 167.29 178.146V177.416C167.29 177.222 167.133 177.066 166.94 177.066Z" fill="#6674B8"/>
<path d="M197.71 177.066H172.82C172.626 177.066 172.47 177.222 172.47 177.416V178.146C172.47 178.339 172.626 178.496 172.82 178.496H197.71C197.903 178.496 198.06 178.339 198.06 178.146V177.416C198.06 177.222 197.903 177.066 197.71 177.066Z" fill="#6674B8"/>
<path d="M56 151.596H216.23" stroke="#A4A8D0" stroke-width="0.25" stroke-miterlimit="10"/>
<path d="M62.1498 149.576C63.3317 149.576 64.2898 148.618 64.2898 147.436C64.2898 146.254 63.3317 145.296 62.1498 145.296C60.9679 145.296 60.0098 146.254 60.0098 147.436C60.0098 148.618 60.9679 149.576 62.1498 149.576Z" fill="#E2E5F3"/>
<path d="M69.5199 149.576C70.7018 149.576 71.6599 148.618 71.6599 147.436C71.6599 146.254 70.7018 145.296 69.5199 145.296C68.338 145.296 67.3799 146.254 67.3799 147.436C67.3799 148.618 68.338 149.576 69.5199 149.576Z" fill="#E2E5F3"/>
<path d="M76.9701 149.576C78.152 149.576 79.1101 148.618 79.1101 147.436C79.1101 146.254 78.152 145.296 76.9701 145.296C75.7882 145.296 74.8301 146.254 74.8301 147.436C74.8301 148.618 75.7882 149.576 76.9701 149.576Z" fill="#E2E5F3"/>
<path d="M135.92 90.8957C134.8 92.0957 133.59 93.1957 132.28 94.2057C133.4 93.0057 134.61 91.9057 135.92 90.8957Z" fill="#E28160"/>
<path d="M134.84 88.9858C133.7 90.1758 132.47 91.2558 131.16 92.2358C132.3 91.0458 133.53 89.9658 134.84 88.9858Z" fill="#E28160"/>
<path d="M120.31 107.996C120.31 107.996 123.05 104.726 125.05 101.306" stroke="#114C97" stroke-width="0.5" stroke-miterlimit="10"/>
<path d="M123.05 109.806C123.05 109.806 125.52 106.306 127.79 103.116" stroke="#114C97" stroke-width="0.5" stroke-miterlimit="10"/>
<path d="M125.21 111.336C125.21 111.336 127.49 107.826 130.08 104.816" stroke="#114C97" stroke-width="0.5" stroke-miterlimit="10"/>
<path d="M157.95 104.536C157.95 104.536 157.76 100.276 156.92 96.4057" stroke="#114C97" stroke-width="0.5" stroke-miterlimit="10"/>
<path d="M161.2 104.026C161.2 104.026 160.66 99.7757 160.17 95.8957" stroke="#114C97" stroke-width="0.5" stroke-miterlimit="10"/>
<path d="M163.82 103.696C163.82 103.696 163.13 99.5757 163 95.5957" stroke="#114C97" stroke-width="0.5" stroke-miterlimit="10"/>
<path d="M56.1397 108.166L57.0597 111.066C57.2297 111.586 57.4997 112.056 57.8697 112.456L58.0797 112.686L65.2997 91.9757L63.2897 90.0557C62.8197 89.6057 62.0497 89.7957 61.8097 90.4157L56.1797 106.336C55.9597 106.926 55.9497 107.576 56.1497 108.176L56.1397 108.166Z" fill="#F9DE6C"/>
<path d="M78.9199 95.5457C79.4299 95.7457 79.9199 96.0057 80.3599 96.3357L83.4199 98.7257C83.7599 99.0857 83.7799 101.426 83.3199 101.246L64.3399 92.8657L62.3599 89.8657L62.7199 89.8357C63.3999 89.7657 64.0799 89.8657 64.7099 90.1057L78.9299 95.5457H78.9199Z" fill="#F4D520"/>
<path d="M74.9195 119.086L59.3195 113.326C58.0395 112.856 57.3895 111.396 57.8695 110.086L63.7395 94.1057C64.2195 92.7957 65.6595 92.1157 66.9395 92.5857L82.5395 98.3457C83.8195 98.8157 84.4695 100.276 83.9895 101.586L78.1195 117.566C77.6395 118.876 76.1995 119.556 74.9195 119.086Z" fill="#FFCB08"/>
<path d="M57.8696 110.076L63.7396 94.0957C64.2196 92.7857 65.6596 92.1057 66.9396 92.5757L82.5396 98.3357" stroke="#ECBA27" stroke-width="0.5" stroke-miterlimit="10"/>
<path d="M72.1699 47.8557L74.8699 49.2557C75.3599 49.5057 75.8899 49.6457 76.4299 49.6657H76.7399L67.1699 29.9357L64.3899 30.0057C63.7399 30.0257 63.3299 30.7057 63.5999 31.3057L70.8899 46.5357C71.1499 47.1157 71.6099 47.5757 72.1699 47.8557Z" fill="#F9DE6C"/>
<path d="M81.1496 22.3756L84.5096 22.0456C84.9296 22.0456 86.7496 22.7056 86.3696 22.8756L67.1296 31.2556L63.5996 30.5356L63.8296 30.2556C64.2596 29.7356 64.8096 29.3156 65.4296 29.0356L79.0896 22.9156C79.7396 22.6256 80.4396 22.4356 81.1496 22.3656V22.3756Z" fill="#F4D520"/>
<path d="M93.1598 42.2757L78.0598 49.2457C76.8198 49.8157 75.3298 49.2457 74.7398 47.9857L67.5698 32.5457C66.9798 31.2757 67.5098 29.7757 68.7498 29.2057L83.8498 22.2357C85.0898 21.6657 86.5798 22.2357 87.1698 23.4957L94.3398 38.9357C94.9298 40.2057 94.3998 41.7057 93.1598 42.2757Z" fill="#FFCB08"/>
<path d="M74.99 48.1457L67.86 32.6857C67.28 31.4157 67.81 29.9157 69.05 29.3457L84.17 22.4157" stroke="#ECBA27" stroke-width="0.5" stroke-miterlimit="10"/>
<path d="M103.9 77.3257L103.77 79.8557C103.74 80.3057 103.62 80.7557 103.41 81.1557L103.29 81.3857L93.0303 66.4457L94.2603 64.4457C94.5503 63.9757 95.2203 63.9557 95.5403 64.3957L103.5 75.8557C103.81 76.2757 103.95 76.7957 103.92 77.3257H103.9Z" fill="#387ABE"/>
<path d="M82.98 72.0057C82.68 72.2157 82.42 72.4757 82.2 72.7657L79.82 75.9357C79.52 76.4157 79.63 77.4757 80.09 77.1457L93.99 66.9457L94.96 64.0957L94.66 64.1457C94.1 64.2457 93.56 64.4757 93.1 64.8157L82.96 72.0157L82.98 72.0057Z" fill="#2964A5"/>
<path d="M90.787 90.4326L102.575 82.0401C103.425 81.4347 103.623 80.2546 103.018 79.4043L94.6256 67.6167C94.0202 66.7664 92.8401 66.5678 91.9898 67.1732L80.2022 75.5657C79.3519 76.1711 79.1533 77.3512 79.7587 78.2016L88.1512 89.9891C88.7566 90.8395 89.9367 91.038 90.787 90.4326Z" fill="#114C97"/>
<path d="M103.23 79.8357L94.7401 67.8857C94.0401 66.9057 92.7101 66.6557 91.7701 67.3257L80.3101 75.5057" stroke="#27397E" stroke-width="0.25" stroke-miterlimit="10"/>
<path d="M190.56 48.7357L191.08 51.2757C191.17 51.7357 191.16 52.2057 191.05 52.6557L190.99 52.9157L176.97 40.7157L177.68 38.4157C177.85 37.8757 178.5 37.6857 178.93 38.0457L189.77 47.3857C190.18 47.7257 190.46 48.2057 190.56 48.7357Z" fill="#387ABE"/>
<path d="M168.25 49.2857C167.95 49.6457 167.71 50.0457 167.54 50.4757L166.19 53.7757C166.03 54.3757 166.91 55.6957 167.3 55.2157L178.07 40.9657L178.31 37.8857L178.03 38.0157C177.5 38.2557 177.03 38.6257 176.65 39.0757L168.26 49.2857H168.25Z" fill="#2964A5"/>
<path d="M180.875 65.181L190.488 53.7447C191.16 52.9457 191.056 51.7534 190.257 51.0818L178.821 41.4686C178.022 40.7969 176.83 40.9002 176.158 41.6992L166.545 53.1355C165.873 53.9345 165.976 55.1268 166.776 55.7984L178.212 65.4116C179.011 66.0833 180.203 65.98 180.875 65.181Z" fill="#114C97"/>
<path d="M190.16 51.2457L178.95 41.8057C178.03 41.0357 176.67 41.1257 175.93 42.0057L166.88 52.7857" stroke="#27397E" stroke-width="0.5" stroke-miterlimit="10"/>
<path d="M203.92 110.606L203.25 113.116C203.13 113.566 202.91 113.986 202.61 114.336L202.44 114.546L195.35 97.3656L197.01 95.6256C197.4 95.2156 198.07 95.3356 198.3 95.8556L203.82 109.056C204.04 109.546 204.07 110.096 203.92 110.616V110.606Z" fill="#387ABE"/>
<path d="M183.86 101.066C183.33 101.296 182.85 101.616 182.41 101.986L179.88 104.196C179.43 104.706 179.37 105.996 179.99 105.716L196.21 98.0656L197.8 95.4156H197.49C196.9 95.3856 196.32 95.4956 195.78 95.7356L183.86 101.056V101.066Z" fill="#2964A5"/>
<path d="M187.912 120.98L201.623 115.047C202.581 114.632 203.022 113.52 202.607 112.562L196.674 98.8506C196.259 97.8926 195.147 97.4521 194.189 97.8667L180.477 103.8C179.52 104.215 179.079 105.327 179.494 106.285L185.427 119.996C185.841 120.954 186.954 121.395 187.912 120.98Z" fill="#114C97"/>
<path d="M202.58 112.676L196.77 99.2156C196.29 98.1156 195.04 97.5856 193.98 98.0456L181.07 103.646" stroke="#27397E" stroke-width="0.5" stroke-miterlimit="10"/>
<path d="M147.83 87.9657L149.17 89.8157C149.41 90.1457 149.72 90.4157 150.08 90.6157L150.29 90.7357L150.72 74.4157L148.81 73.5057C148.36 73.2957 147.85 73.6057 147.82 74.0957L147.42 86.6657C147.4 87.1357 147.54 87.6057 147.82 87.9757L147.83 87.9657Z" fill="#F9DE6C"/>
<path d="M162.06 73.8857L165.59 75.2857C165.92 75.4857 166.58 76.4557 166.2 76.4257L150.23 75.2557L148.09 73.5757L148.34 73.4657C148.82 73.2657 149.33 73.1757 149.84 73.2057L162.05 73.8757L162.06 73.8857Z" fill="#F4D520"/>
<path d="M164.715 75.0107L152.057 74.4602C151.014 74.4149 150.132 75.2235 150.086 76.2663L149.536 88.9244C149.491 89.9672 150.299 90.8493 151.342 90.8947L164 91.4451C165.043 91.4905 165.925 90.6819 165.97 89.639L166.521 76.981C166.566 75.9382 165.758 75.056 164.715 75.0107Z" fill="#FFCB08"/>
<path d="M149.78 88.5457L150.3 76.3457C150.34 75.3457 151.18 74.5657 152.15 74.6057L164.07 75.1357" stroke="#ECBA27" stroke-width="0.25" stroke-miterlimit="10"/>
<path d="M190.26 77.7657L191.03 80.2057C191.17 80.6457 191.4 81.0457 191.71 81.3757L191.89 81.5657L197.98 64.1057L196.28 62.4857C195.88 62.1057 195.23 62.2657 195.04 62.7857L190.29 76.2057C190.1 76.7057 190.09 77.2557 190.26 77.7557V77.7657Z" fill="#F9DE6C"/>
<path d="M209.56 67.1657C209.92 67.3057 210.26 67.5057 210.57 67.7557L212.92 69.6957C213.64 70.2157 213.87 70.7257 213.87 71.5157L197.17 64.8757L195.5 62.3457L195.8 62.3157C196.37 62.2557 196.94 62.3357 197.47 62.5457L209.56 67.1757V67.1657Z" fill="#F4D520"/>
<path d="M206.089 86.9657L192.939 82.1057C191.859 81.7057 191.309 80.4757 191.719 79.3757L196.669 65.9057C197.079 64.8057 198.289 64.2257 199.369 64.6257L212.519 69.4857C213.599 69.8857 214.149 71.1157 213.739 72.2157L208.789 85.6857C208.379 86.7857 207.169 87.3657 206.089 86.9657Z" fill="#FFCB08"/>
<path d="M68.5115 104.992C67.4381 104.003 67.0862 102.828 67.4558 101.465C67.6389 100.791 67.9737 100.224 68.4603 99.7657C68.9628 99.2983 69.6018 98.9953 70.3773 98.8569C71.1686 98.7094 72.0642 98.7712 73.0639 99.0425C74.0637 99.3137 74.8614 99.7113 75.4572 100.235C76.0689 100.75 76.4671 101.334 76.652 101.988C76.8527 102.633 76.8615 103.293 76.6784 103.968C76.4919 104.655 76.1588 105.215 75.6789 105.649C75.2025 106.069 74.6441 106.347 74.0038 106.482C74.6097 106.969 75.0284 107.552 75.2599 108.232C75.4913 108.912 75.5002 109.645 75.2866 110.433C75.056 111.282 74.6356 111.967 74.0253 112.485C73.4309 112.995 72.713 113.317 71.8716 113.45C71.0303 113.584 70.141 113.524 69.2037 113.27C68.2665 113.016 67.4687 112.618 66.8105 112.077C66.1647 111.54 65.7079 110.899 65.44 110.156C65.1881 109.403 65.1774 108.602 65.4079 107.752C65.6215 106.965 66 106.336 66.5434 105.867C67.0901 105.384 67.7462 105.093 68.5115 104.992ZM74.0273 103.651C74.1935 103.039 74.1349 102.513 73.8515 102.074C73.5807 101.638 73.1266 101.334 72.4892 101.161C71.8644 100.991 71.3187 101.024 70.8523 101.26C70.3983 101.499 70.0866 101.931 69.9171 102.556C69.7645 103.118 69.8299 103.619 70.1132 104.058C70.4091 104.501 70.8569 104.803 71.4568 104.966C72.0566 105.129 72.596 105.094 73.075 104.862C73.5573 104.617 73.8748 104.213 74.0273 103.651ZM70.938 106.878C70.2257 106.685 69.5954 106.708 69.0472 106.949C68.5115 107.192 68.1521 107.652 67.969 108.326C67.7995 108.951 67.8729 109.521 68.1893 110.036C68.5216 110.542 69.0564 110.896 69.7937 111.096C70.531 111.296 71.1664 111.253 71.6997 110.969C72.2331 110.684 72.5829 110.236 72.749 109.623C72.9287 108.961 72.8491 108.389 72.51 107.908C72.1743 107.415 71.6503 107.071 70.938 106.878Z" fill="#FFFFFD"/>
<path d="M82.8603 30.3731L77.2013 33.1258L78.6541 36.1125C78.7514 35.6908 78.9818 35.2764 79.3453 34.8692C79.7031 34.4503 80.1382 34.1163 80.6505 33.8671C81.582 33.4139 82.4438 33.2467 83.2359 33.3654C84.028 33.4841 84.7137 33.7985 85.2931 34.3086C85.8667 34.8071 86.3292 35.4173 86.6803 36.1392C87.3317 37.4783 87.4714 38.7423 87.0994 39.9312C86.739 41.1144 85.8544 42.0487 84.4454 42.7341C83.118 43.3798 81.897 43.5634 80.7823 43.2849C79.6677 43.0063 78.7974 42.3569 78.1715 41.3366L80.5469 40.1812C80.8783 40.5959 81.2924 40.8553 81.7893 40.9591C82.2978 41.0573 82.8374 40.9677 83.408 40.6901C84.0949 40.3559 84.5083 39.8885 84.6481 39.2877C84.7878 38.687 84.6849 38.0314 84.3394 37.3212C83.9882 36.5992 83.5415 36.1398 82.9993 35.9427C82.4631 35.7284 81.8515 35.7883 81.1645 36.1225C80.6754 36.3604 80.3274 36.6809 80.1203 37.084C79.9132 37.4872 79.8389 37.9265 79.8974 38.402L77.557 39.5405L73.9206 32.065L81.8152 28.2248L82.8603 30.3731Z" fill="#FFFFFD"/>
<path d="M88.3316 80.8669C87.2473 79.3439 86.6709 77.9567 86.6025 76.7054C86.5428 75.4478 87.1513 74.3646 88.4277 73.4558C89.7042 72.5469 90.9225 72.3296 92.0826 72.8037C93.2514 73.2716 94.378 74.267 95.4623 75.79C96.5529 77.3218 97.1312 78.7208 97.1971 79.9872C97.2718 81.2474 96.6709 82.3319 95.3944 83.2407C94.1179 84.1495 92.8921 84.3656 91.717 83.8889C90.5507 83.406 89.4222 82.3987 88.3316 80.8669ZM93.64 77.0874C93.1762 76.436 92.7436 75.9215 92.3422 75.544C91.9433 75.1514 91.5159 74.9052 91.06 74.8052C90.613 74.699 90.143 74.8214 89.65 75.1724C89.157 75.5234 88.8831 75.9306 88.8284 76.3941C88.7825 76.8513 88.8753 77.3358 89.1069 77.8474C89.3411 78.344 89.6901 78.918 90.1539 79.5694C90.6303 80.2385 91.071 80.7737 91.4762 81.1751C91.875 81.5676 92.3024 81.8139 92.7583 81.9138C93.2079 82.005 93.6792 81.875 94.1722 81.524C94.6652 81.173 94.9422 80.7702 95.0031 80.3155C95.0579 79.8521 94.965 79.3676 94.7246 78.8623C94.4779 78.3481 94.1164 77.7565 93.64 77.0874Z" fill="#FFFFFD"/>
<path d="M179.729 56.4467C180.16 56.6926 180.577 56.7824 180.98 56.716C181.382 56.634 181.754 56.3893 182.097 55.9819C182.539 55.4558 182.644 54.8919 182.411 54.2905C182.169 53.6819 181.531 52.9425 180.495 52.0721C180.603 52.4956 180.583 52.9498 180.436 53.4346C180.297 53.911 180.055 54.3528 179.713 54.7602C179.256 55.3033 178.732 55.7028 178.141 55.9587C177.548 56.1989 176.924 56.2608 176.268 56.1444C175.605 56.0209 174.954 55.6917 174.318 55.1567C173.376 54.3648 172.864 53.457 172.784 52.4332C172.694 51.4022 173.056 50.403 173.87 49.4355C174.883 48.2304 175.982 47.7063 177.168 47.8633C178.361 48.0117 179.734 48.7387 181.288 50.0442C182.391 50.9716 183.213 51.8289 183.753 52.6162C184.3 53.395 184.56 54.1712 184.533 54.9447C184.513 55.7097 184.167 56.4911 183.497 57.2889C182.969 57.9169 182.4 58.3517 181.792 58.5932C181.175 58.8277 180.571 58.8996 179.981 58.8091C179.39 58.7029 178.842 58.4671 178.338 58.1016L179.729 56.4467ZM178.572 53.1712C178.943 52.7298 179.1 52.2678 179.042 51.7849C178.985 51.302 178.727 50.8679 178.268 50.4827C177.768 50.0618 177.267 49.873 176.768 49.9163C176.266 49.944 175.823 50.187 175.438 50.6452C175.053 51.1035 174.89 51.5897 174.951 52.1038C175.009 52.6023 175.272 53.0478 175.739 53.4401C176.189 53.8182 176.665 54.0012 177.168 53.9892C177.669 53.9615 178.137 53.6888 178.572 53.1712Z" fill="#FFFFFD"/>
<path d="M187.583 115.155L186.857 113.476L188.756 104.174L191.244 103.097L194.256 110.057L195.599 109.476L196.405 111.338L195.062 111.919L195.999 114.086L193.863 115.011L192.925 112.844L187.583 115.155ZM190.236 106.252L189.128 112.276L192.257 110.922L190.236 106.252Z" fill="#FFFFFD"/>
<path d="M161.131 79.3127L157.644 88.575L155.571 88.6651L159.098 79.6351L154.106 79.8522L154.03 78.1007L161.065 77.7947L161.131 79.3127Z" fill="#FFFFFD"/>
<path d="M201.248 71.0264L201.897 69.0164L205.652 70.2291L201.984 81.588L199.74 80.8634L202.759 71.5145L201.248 71.0264Z" fill="#FFFFFD"/>
<path d="M191.8 79.3657L196.59 65.9957C196.98 64.8957 198.18 64.3157 199.24 64.7057L212.25 69.3957" stroke="#ECBA27" stroke-width="0.5" stroke-miterlimit="10"/>
<path d="M128.68 91.9558L134.7 83.4658C134.7 83.4658 135.6 83.9658 134.7 85.8458L128.68 91.9558Z" fill="#F1BF98"/>
<path d="M134.16 86.5657C133 87.7357 131.76 88.7957 130.42 89.7557C131.58 88.5857 132.82 87.5257 134.16 86.5657Z" fill="#E28160"/>
<path d="M141.09 22.4657C141.09 22.4657 146.98 41.3457 119.4 41.4457C119.4 41.4457 117.35 47.8557 117.65 51.3557C117.65 51.3557 116.95 42.3457 109.74 42.5457C109.74 42.5457 106.54 13.2157 137.97 13.9157C137.97 13.9157 160.08 13.2557 156.6 40.7257C156.47 41.7757 153.13 35.3057 151.68 28.2757C151.01 25.0257 152.29 31.9257 151 36.8557C151 36.8557 150.39 41.9457 142.68 41.8457C142.68 41.8457 148.65 37.1857 141.1 22.4657H141.09Z" fill="#2D2A2B"/>
</svg>
