<svg width="16" height="17" viewBox="0 0 16 17" fill="none" xmlns="http://www.w3.org/2000/svg">
<path d="M12.0003 11.1772C12.8303 11.5299 13.3337 11.9926 13.3337 12.4999C13.3337 13.6046 10.9457 14.4999 8.00033 14.4999C5.05499 14.4999 2.66699 13.6046 2.66699 12.4999C2.66699 11.9932 3.17033 11.5292 4.00033 11.1772" stroke="url(#paint0_linear_1049_46883)" stroke-linecap="round" stroke-linejoin="round"/>
<path fill-rule="evenodd" clip-rule="evenodd" d="M8.492 12.2833L8.49533 12.2799L8.50333 12.2706L8.53333 12.2373L8.644 12.1133C9.19796 11.4824 9.72038 10.8244 10.2093 10.1419C10.6373 9.54192 11.076 8.86192 11.41 8.18658C11.7367 7.52658 12 6.80059 12 6.12925C12 3.74725 10.2547 1.83325 8 1.83325C5.74533 1.83325 4 3.74659 4 6.12925C4 6.80059 4.26333 7.52658 4.59 8.18658C4.924 8.86192 5.36333 9.54192 5.79 10.1419C6.31163 10.8694 6.8713 11.5688 7.46667 12.2373L7.49667 12.2706L7.50467 12.2799L7.508 12.2833C7.57046 12.3516 7.64647 12.4061 7.73118 12.4434C7.81588 12.4808 7.90743 12.5001 8 12.5001C8.09257 12.5001 8.18412 12.4808 8.26882 12.4434C8.35353 12.4061 8.42954 12.3516 8.492 12.2833ZM8 4.49992C7.64638 4.49992 7.30724 4.64039 7.05719 4.89044C6.80714 5.14049 6.66667 5.47963 6.66667 5.83325C6.66667 6.18687 6.80714 6.52601 7.05719 6.77606C7.30724 7.02611 7.64638 7.16658 8 7.16658C8.35362 7.16658 8.69276 7.02611 8.94281 6.77606C9.19286 6.52601 9.33333 6.18687 9.33333 5.83325C9.33333 5.47963 9.19286 5.14049 8.94281 4.89044C8.69276 4.64039 8.35362 4.49992 8 4.49992Z" fill="url(#paint1_linear_1049_46883)"/>
<defs>
<linearGradient id="paint0_linear_1049_46883" x1="8.00033" y1="11.1772" x2="8.00033" y2="14.4999" gradientUnits="userSpaceOnUse">
<stop stop-color="#4D89D4"/>
<stop offset="1" stop-color="#216BC9"/>
</linearGradient>
<linearGradient id="paint1_linear_1049_46883" x1="8" y1="1.83325" x2="8" y2="12.5001" gradientUnits="userSpaceOnUse">
<stop stop-color="#4D89D4"/>
<stop offset="1" stop-color="#216BC9"/>
</linearGradient>
</defs>
</svg>
