<svg width="32" height="32" viewBox="0 0 32 32" fill="none" xmlns="http://www.w3.org/2000/svg">
<g clip-path="url(#clip0_2660_22248)">
<rect width="32" height="32" rx="4" fill="#F0F0F0"/>
<g clip-path="url(#clip1_2660_22248)">
<path d="M28.8533 17.356V16.4635V14.6798H26.1867H24.4093V13.7873H28.8533V12.0036H24.4093H21.7427V13.7873V14.6798V16.4635H24.4093H26.1867V17.356H21.7427V19.1397H26.1867H28.8533V17.356ZM29.556 16.798V19.6977C29.556 19.7566 29.532 19.8141 29.4907 19.8556C29.4493 19.8971 29.392 19.9212 29.3333 19.9212H26.444V20.3668H29.7773C29.836 20.3668 29.8933 20.3427 29.9347 20.3012C29.976 20.2597 30 20.2022 30 20.1433V16.798H29.556ZM5.556 11H2.22267C2.164 11 2.10667 11.0241 2.06533 11.0656C2.024 11.107 2 11.1646 2 11.2235V14.5687H2.444V11.6691C2.444 11.6102 2.468 11.5526 2.50933 11.5112C2.55067 11.4697 2.608 11.4456 2.66667 11.4456H5.556V11ZM8.40933 21.3704H10.1867V17.356H8.40933V21.3704ZM9.96533 12.0036H5.74267V13.7873H8.40933V16.4635H10.1867V12.2257C10.1867 12.1668 10.1627 12.1093 10.1213 12.0678C10.08 12.0263 10.0227 12.0022 9.964 12.0022L9.96533 12.0036ZM4.85467 12.0036H3.29867C3.24 12.0036 3.18267 12.0277 3.14133 12.0692C3.1 12.1106 3.076 12.1682 3.076 12.227V18.9176C3.076 18.9765 3.1 19.034 3.14133 19.0755C3.18267 19.117 3.24 19.1411 3.29867 19.1411H7.52133V17.3574H4.85467V12.0049V12.0036ZM5.744 16.4635H7.52133V14.6798H5.744V16.4635ZM6.188 15.1254H7.07733V16.0179H6.188V15.1254ZM11.0773 12.0036V13.7873H16.4107V14.6798H12.8547H11.0773V16.4635V19.1397H12.8547V16.4903L15.5213 19.1397H18.188L15.4053 16.4635H16.4093H18.1867V14.6798V13.7873V12.0036H16.4093H11.076H11.0773ZM19.0773 19.1397H20.8547V12.0036H19.0773V19.1397Z" fill="url(#paint0_linear_2660_22248)"/>
</g>
</g>
<defs>
<linearGradient id="paint0_linear_2660_22248" x1="16" y1="11" x2="16" y2="21.3704" gradientUnits="userSpaceOnUse">
<stop stop-color="#4D89D4"/>
<stop offset="1" stop-color="#216BC9"/>
</linearGradient>
<clipPath id="clip0_2660_22248">
<rect width="32" height="32" rx="4" fill="white"/>
</clipPath>
<clipPath id="clip1_2660_22248">
<rect width="28" height="10.3704" fill="white" transform="translate(2 11)"/>
</clipPath>
</defs>
</svg>
