<svg width="222" height="200" viewBox="0 0 222 200" fill="none" xmlns="http://www.w3.org/2000/svg">
<path d="M175 109.5C175 145.122 146.122 174 110.5 174C74.8776 174 46 145.122 46 109.5C46 73.8776 74.8776 45 110.5 45C146.122 45 175 73.8776 175 109.5Z" fill="#0DE864"/>
<path d="M97.4058 121.327L136.034 82.7959C137.234 81.5986 138.762 81 140.617 81C142.472 81 143.999 81.5986 145.2 82.7959C146.4 83.9932 147 85.517 147 87.3673C147 89.2177 146.4 90.7415 145.2 91.9388L101.989 135.041C100.679 136.347 99.1517 137 97.4058 137C95.6599 137 94.1323 136.347 92.8229 135.041L75.8004 118.061C74.6001 116.864 74 115.34 74 113.49C74 111.639 74.6001 110.116 75.8004 108.918C77.0007 107.721 78.5284 107.122 80.3834 107.122C82.2384 107.122 83.7661 107.721 84.9664 108.918L97.4058 121.327Z" fill="white"/>
<path d="M149 19.604C149 19.6066 149 19.6091 149 19.6117C159.865 19.8227 168.608 28.6961 168.608 39.6117C168.608 39.7414 168.606 39.8708 168.604 40L168.612 40.0002C168.609 39.871 168.608 39.7415 168.608 39.6117C168.608 28.5639 177.564 19.6079 188.612 19.6079C188.741 19.6079 188.871 19.6091 189 19.6116V19.6041C188.871 19.6066 188.741 19.6079 188.612 19.6079C177.696 19.6079 168.823 10.8651 168.612 0C168.609 0 168.607 0.00019152 168.604 0.00019152C168.396 10.7334 159.734 19.3956 149 19.604Z" fill="#FFCA08"/>
<path d="M202 118.802V118.806C207.433 118.911 211.804 123.348 211.804 128.806C211.804 128.871 211.803 128.935 211.802 129L211.806 129C211.805 128.936 211.804 128.871 211.804 128.806C211.804 123.282 216.282 118.804 221.806 118.804C221.871 118.804 221.935 118.805 222 118.806V118.802C221.935 118.803 221.871 118.804 221.806 118.804C216.348 118.804 211.911 114.433 211.806 109L211.802 109C211.698 114.367 207.367 118.698 202 118.802Z" fill="#FFCA08"/>
<path d="M16 54.802V54.8058C21.4326 54.9113 25.8039 59.3481 25.8039 64.8058C25.8039 64.8707 25.8031 64.9354 25.802 65L25.8058 65.0001C25.8047 64.9355 25.8039 64.8708 25.8039 64.8058C25.8039 59.2819 30.2818 54.8039 35.8058 54.8039C35.8707 54.8039 35.9355 54.8046 36 54.8058V54.8021C35.9355 54.8033 35.8707 54.8039 35.8058 54.8039C30.3479 54.8039 25.9113 50.4325 25.8058 45L25.802 45.0001C25.6978 50.3667 21.3668 54.6978 16 54.802Z" fill="#FFCA08"/>
<path d="M149 187.842V187.845C153.346 187.929 156.843 191.478 156.843 195.845C156.843 195.897 156.842 195.948 156.842 196L156.845 196C156.844 195.948 156.843 195.897 156.843 195.845C156.843 191.426 160.425 187.843 164.845 187.843C164.897 187.843 164.948 187.844 165 187.845V187.842C164.948 187.843 164.897 187.843 164.845 187.843C160.478 187.843 156.929 184.346 156.845 180L156.842 180C156.758 184.293 153.293 187.758 149 187.842Z" fill="#FFCA08"/>
<path d="M0 173.99C0 173.994 0 173.997 0 174C14.1249 174.269 25.4901 185.581 25.4901 199.495C25.4901 199.661 25.4881 199.826 25.4851 199.99L25.4951 199.99C25.4921 199.826 25.4901 199.661 25.4901 199.495C25.4901 185.412 37.1327 173.995 51.4951 173.995C51.6639 173.995 51.8322 173.997 52 174V173.99C51.8322 173.994 51.6639 173.995 51.4951 173.995C37.3045 173.995 25.7694 162.85 25.4951 149C25.4916 149 25.4886 149 25.4851 149C25.2142 162.682 13.9536 173.725 0 173.99Z" fill="#FFCA08"/>
</svg>
