<svg width="80" height="80" viewBox="0 0 80 80" fill="none" xmlns="http://www.w3.org/2000/svg">
<rect x="1" y="1" width="78" height="78" rx="7" fill="white"/>
<g clip-path="url(#clip0_2003_28243)">
<path d="M55 45V50H60V53.3333H55V58.3333H51.6667V53.3333H46.6667V50H51.6667V45H55ZM55.0134 25C55.9267 25 56.6667 25.7417 56.6667 26.655V42.2367C55.5961 41.8585 54.4688 41.6657 53.3334 41.6667V28.3333H26.6667L26.6684 51.6667L42.155 36.1783C42.4416 35.8908 42.8234 35.7179 43.2286 35.6921C43.6337 35.6663 44.0343 35.7894 44.355 36.0383L44.5117 36.18L50.42 42.0967C49.1278 42.4904 47.9286 43.1418 46.895 44.0116C45.8613 44.8814 45.0144 45.9514 44.4055 47.1573C43.7965 48.3632 43.4381 49.68 43.3518 51.0281C43.2655 52.3763 43.4531 53.728 43.9034 55.0017L24.9867 55C24.5481 54.9996 24.1275 54.825 23.8175 54.5147C23.5075 54.2043 23.3334 53.7836 23.3334 53.345V26.655C23.3364 26.2173 23.5115 25.7984 23.8209 25.4887C24.1302 25.179 24.549 25.0035 24.9867 25H55.0134ZM33.3334 31.6667C34.2174 31.6667 35.0653 32.0179 35.6904 32.643C36.3155 33.2681 36.6667 34.1159 36.6667 35C36.6667 35.8841 36.3155 36.7319 35.6904 37.357C35.0653 37.9821 34.2174 38.3333 33.3334 38.3333C32.4493 38.3333 31.6015 37.9821 30.9764 37.357C30.3512 36.7319 30 35.8841 30 35C30 34.1159 30.3512 33.2681 30.9764 32.643C31.6015 32.0179 32.4493 31.6667 33.3334 31.6667Z" fill="#B5B5B5"/>
</g>
<rect x="1" y="1" width="78" height="78" rx="7" stroke="#D1D1D1" stroke-width="2" stroke-linejoin="round" stroke-dasharray="12 12"/>
<defs>
<clipPath id="clip0_2003_28243">
<rect width="40" height="40" fill="white" transform="translate(20 20)"/>
</clipPath>
</defs>
</svg>
