<svg width="343" height="437" viewBox="0 0 343 437" fill="none" xmlns="http://www.w3.org/2000/svg">
<rect width="343" height="437" rx="8" fill="url(#paint0_linear_1049_40743)"/>
<path d="M85.2704 278.492C84.9001 278.357 84.5466 278.239 84.1763 278.138C84.0753 277.785 83.9575 277.414 83.8229 277.061C83.2338 275.63 82.4763 274.183 80.9446 272.752C79.4129 274.183 78.6386 275.63 78.0663 277.061C77.9317 277.414 77.8139 277.785 77.7129 278.138C77.3594 278.239 76.9891 278.357 76.6357 278.492C75.205 279.081 73.7574 279.838 72.3267 281.37C73.7574 282.902 75.205 283.676 76.6357 284.248C76.9891 284.383 77.3594 284.501 77.7129 284.602C77.8139 284.972 77.9317 285.325 78.0663 285.696C78.6386 287.126 79.4129 288.574 80.9614 290.005C82.51 288.574 83.2674 287.126 83.8565 285.696C83.9912 285.342 84.109 284.972 84.21 284.618C84.5635 284.517 84.9338 284.4 85.2872 284.265C86.7179 283.693 88.1655 282.918 89.5962 281.37C88.1655 279.821 86.7179 279.064 85.2872 278.475L85.2704 278.492Z" fill="#FEFFFF"/>
<path d="M56.3702 237.515C56.185 237.447 55.9999 237.38 55.8315 237.33C55.7811 237.144 55.7305 236.976 55.6632 236.791C55.3771 236.067 54.99 235.343 54.2157 234.62C53.4414 235.343 53.0711 236.067 52.7681 236.791C52.7008 236.976 52.6335 237.144 52.583 237.33C52.3979 237.38 52.2127 237.431 52.0444 237.515C51.3206 237.801 50.5968 238.188 49.873 238.962C50.5968 239.737 51.3206 240.107 52.0444 240.41C52.2295 240.477 52.3979 240.544 52.583 240.578C52.6335 240.763 52.684 240.948 52.7681 241.117C53.0543 241.841 53.4414 242.564 54.2157 243.288C54.99 242.564 55.3771 241.841 55.6632 241.117C55.7305 240.932 55.7979 240.763 55.8315 240.578C56.0167 240.528 56.185 240.477 56.3702 240.41C57.094 240.124 57.8177 239.737 58.5415 238.962C57.8177 238.188 57.094 237.801 56.3702 237.515Z" fill="#BDDFEB"/>
<path d="M318.944 399.74C318.573 399.605 318.22 399.487 317.85 399.386C317.749 399.033 317.631 398.662 317.496 398.309C316.907 396.878 316.15 395.431 314.618 394C313.086 395.431 312.312 396.878 311.74 398.309C311.605 398.662 311.487 399.033 311.386 399.386C311.033 399.487 310.662 399.605 310.309 399.74C308.878 400.329 307.431 401.086 306 402.618C307.431 404.15 308.878 404.924 310.309 405.496C310.662 405.631 311.033 405.749 311.386 405.85C311.487 406.22 311.605 406.573 311.74 406.944C312.312 408.374 313.086 409.822 314.635 411.253C316.183 409.822 316.941 408.374 317.53 406.944C317.665 406.59 317.782 406.22 317.883 405.867C318.237 405.766 318.607 405.648 318.961 405.513C320.391 404.941 321.839 404.167 323.27 402.618C321.839 401.069 320.391 400.312 318.961 399.723L318.944 399.74Z" fill="#FEFFFF"/>
<path d="M284.055 343.152C283.87 343.085 283.685 343.017 283.517 342.967C283.466 342.782 283.416 342.613 283.348 342.428C283.062 341.704 282.675 340.981 281.901 340.257C281.126 340.981 280.756 341.704 280.453 342.428C280.386 342.613 280.319 342.782 280.268 342.967C280.083 343.017 279.898 343.068 279.729 343.152C279.006 343.438 278.282 343.825 277.558 344.599C278.282 345.374 279.006 345.744 279.729 346.047C279.915 346.114 280.083 346.182 280.268 346.215C280.319 346.4 280.369 346.586 280.453 346.754C280.739 347.478 281.126 348.201 281.901 348.925C282.675 348.201 283.062 347.478 283.348 346.754C283.416 346.569 283.483 346.4 283.517 346.215C283.702 346.165 283.87 346.114 284.055 346.047C284.779 345.761 285.503 345.374 286.227 344.599C285.503 343.825 284.779 343.438 284.055 343.152Z" fill="#BDDFEB"/>
<path d="M284.055 123.024C283.87 122.957 283.685 122.89 283.517 122.839C283.466 122.654 283.416 122.486 283.348 122.301C283.062 121.577 282.675 120.853 281.901 120.129C281.126 120.853 280.756 121.577 280.453 122.301C280.386 122.486 280.319 122.671 280.268 122.839C280.083 122.89 279.915 122.94 279.729 123.024C279.006 123.311 278.282 123.698 277.558 124.472C278.282 125.246 279.006 125.617 279.729 125.92C279.915 125.987 280.083 126.054 280.268 126.088C280.319 126.273 280.369 126.458 280.453 126.627C280.739 127.35 281.126 128.074 281.901 128.798C282.675 128.074 283.062 127.35 283.348 126.627C283.416 126.441 283.483 126.273 283.517 126.088C283.702 126.037 283.87 125.987 284.055 125.92C284.779 125.633 285.503 125.246 286.227 124.472C285.503 123.698 284.779 123.311 284.055 123.024Z" fill="#BDDFEB"/>
<path d="M303.866 2.89507C303.681 2.82775 303.495 2.76043 303.327 2.70993C303.277 2.52478 303.226 2.35645 303.159 2.1713C302.873 1.44753 302.486 0.723771 301.711 0C300.937 0.723771 300.567 1.44753 300.264 2.1713C300.196 2.35645 300.129 2.54162 300.079 2.70993C299.893 2.76043 299.725 2.81091 299.54 2.89507C298.816 3.18122 298.092 3.56835 297.369 4.34262C298.092 5.11688 298.816 5.48719 299.54 5.79016C299.725 5.85749 299.893 5.92481 300.079 5.95848C300.129 6.14363 300.18 6.32879 300.264 6.49711C300.55 7.22088 300.937 7.94464 301.711 8.66841C302.486 7.94464 302.873 7.22088 303.159 6.49711C303.226 6.31196 303.293 6.14363 303.327 5.95848C303.512 5.90798 303.681 5.85749 303.866 5.79016C304.59 5.50402 305.313 5.11688 306.037 4.34262C305.313 3.56835 304.59 3.18122 303.866 2.89507Z" fill="#BDDFEB"/>
<path d="M74.4983 49.5696C74.3132 49.5023 74.128 49.435 73.9597 49.3845C73.9092 49.1993 73.8587 49.031 73.7914 48.8459C73.5053 48.1221 73.1181 47.3983 72.3438 46.6746C71.5696 47.3983 71.1993 48.1221 70.8963 48.8459C70.829 49.031 70.7616 49.1993 70.7111 49.3845C70.526 49.435 70.3408 49.4855 70.1725 49.5696C69.4487 49.8558 68.725 50.2429 68.0012 51.0172C68.725 51.7915 69.4487 52.1618 70.1725 52.4647C70.3576 52.5321 70.526 52.5994 70.7111 52.6331C70.7616 52.8182 70.8121 53.0034 70.8963 53.1717C71.1824 53.8954 71.5696 54.6192 72.3438 55.343C73.1181 54.6192 73.5053 53.8954 73.7914 53.1717C73.8587 52.9865 73.926 52.8182 73.9597 52.6331C74.1448 52.5826 74.3132 52.5321 74.4983 52.4647C75.2221 52.1786 75.9459 51.7915 76.6696 51.0172C75.9459 50.2429 75.2221 49.8558 74.4983 49.5696Z" fill="#BDDFEB"/>
<path d="M308.191 168.555C308.006 168.487 307.821 168.42 307.653 168.37C307.602 168.184 307.552 168.016 307.484 167.831C307.198 167.107 306.811 166.383 306.037 165.66C305.263 166.383 304.892 167.107 304.589 167.831C304.522 168.016 304.455 168.201 304.404 168.37C304.219 168.42 304.051 168.471 303.866 168.555C303.142 168.841 302.418 169.228 301.694 170.002C302.418 170.777 303.142 171.147 303.866 171.45C304.051 171.517 304.219 171.584 304.404 171.618C304.455 171.803 304.505 171.988 304.589 172.157C304.876 172.881 305.263 173.604 306.037 174.328C306.811 173.604 307.198 172.881 307.484 172.157C307.552 171.972 307.619 171.803 307.653 171.618C307.838 171.568 308.006 171.517 308.191 171.45C308.915 171.164 309.639 170.777 310.363 170.002C309.639 169.228 308.915 168.841 308.191 168.555Z" fill="#DDF2FC"/>
<path d="M226.608 82.9309C226.288 82.8131 225.968 82.7121 225.648 82.6279C225.564 82.3081 225.463 82.0052 225.345 81.6854C224.84 80.423 224.167 79.1606 222.821 77.8982C221.474 79.1606 220.801 80.423 220.296 81.6854C220.178 82.0052 220.077 82.325 219.976 82.6448C219.656 82.7289 219.336 82.8299 219.017 82.9646C217.754 83.4695 216.492 84.1428 215.229 85.4894C216.492 86.8359 217.754 87.5092 219.017 88.0141C219.336 88.132 219.639 88.233 219.959 88.3171C220.043 88.6369 220.144 88.9567 220.262 89.2765C220.767 90.5389 221.44 91.8013 222.804 93.0637C224.167 91.8013 224.84 90.5389 225.345 89.2765C225.463 88.9567 225.564 88.6538 225.648 88.334C225.968 88.2498 226.271 88.1488 226.591 88.031C227.853 87.526 229.116 86.8527 230.378 85.4894C229.116 84.126 227.853 83.4527 226.591 82.9478L226.608 82.9309Z" fill="#FEFFFF"/>
<path d="M124.118 6.12674C123.799 6.00891 123.479 5.90792 123.159 5.82376C123.075 5.50396 122.974 5.20097 122.856 4.88117C122.351 3.61878 121.678 2.35639 120.331 1.09399C118.985 2.35639 118.311 3.61878 117.806 4.88117C117.689 5.20097 117.588 5.52078 117.487 5.84059C117.167 5.92474 116.847 6.02574 116.527 6.1604C115.265 6.66535 114.002 7.33863 112.74 8.68518C114.002 10.0317 115.265 10.705 116.527 11.21C116.847 11.3278 117.15 11.4288 117.47 11.5129C117.554 11.8327 117.655 12.1525 117.773 12.4724C118.278 13.7347 118.951 14.9971 120.314 16.2595C121.678 14.9971 122.351 13.7347 122.856 12.4724C122.974 12.1525 123.075 11.8496 123.159 11.5298C123.479 11.4456 123.782 11.3446 124.102 11.2268C125.364 10.7218 126.626 10.0486 127.889 8.68518C126.626 7.3218 125.364 6.64852 124.102 6.14356L124.118 6.12674Z" fill="#FEFFFF"/>
<path d="M32.8728 175.068C32.5529 174.951 32.2331 174.85 31.9133 174.765C31.8292 174.446 31.7282 174.143 31.6104 173.823C31.1054 172.56 30.4321 171.298 29.0856 170.036C27.739 171.298 27.0658 172.56 26.5608 173.823C26.443 174.143 26.342 174.462 26.241 174.782C25.9212 174.866 25.6014 174.967 25.2816 175.102C24.0192 175.607 22.7568 176.28 21.4944 177.627C22.7568 178.973 24.0192 179.647 25.2816 180.152C25.6014 180.269 25.9043 180.37 26.2241 180.455C26.3083 180.774 26.4093 181.094 26.5271 181.414C27.0321 182.676 27.7054 183.939 29.0687 185.201C30.4321 183.939 31.1054 182.676 31.6104 181.414C31.7282 181.094 31.8292 180.791 31.9133 180.471C32.2331 180.387 32.5361 180.286 32.8559 180.168C34.1183 179.663 35.3807 178.99 36.6431 177.627C35.3807 176.263 34.1183 175.59 32.8559 175.085L32.8728 175.068Z" fill="#FEFFFF"/>
<path opacity="0.45" d="M0 430.295V303.453C0 303.453 55.3602 294.947 59.5276 353.171C59.5276 353.171 82.4572 299.063 153.647 303.453C153.647 303.453 207.292 316.247 208.973 390.952C208.973 390.952 217.977 348.729 275.258 344.579C275.258 344.579 251.625 230.497 343 217V430.295H0Z" fill="#FEFFFF"/>
<path d="M342.596 70.1217C342.865 69.196 343 68.2029 343 67.193C343 62.3286 339.802 58.2216 335.409 56.8414C336.132 54.9562 336.402 52.8522 336.099 50.6641C335.409 45.7996 331.739 41.7263 326.976 40.5144C324.922 39.9926 322.936 40.0263 321.102 40.4639C319.755 30.7519 311.423 23.2954 301.341 23.2954C293.194 23.2954 286.192 28.1767 283.095 35.1619C281.176 33.9163 278.87 33.1926 276.413 33.1926C270.185 33.1926 265.035 37.8213 264.227 43.8303C262.055 42.1639 259.244 41.2887 256.215 41.6758C252.714 42.1303 249.667 44.4026 248.034 47.5333C246.738 50.0244 246.57 52.3641 246.991 54.5017C245.358 55.074 243.894 56.0166 242.732 57.2285C240.78 54.3502 237.481 52.4482 233.727 52.4482C232.448 52.4482 231.219 52.6839 230.075 53.0878C229.671 47.466 224.992 43.0392 219.252 43.0392C215.902 43.0392 212.923 44.5541 210.937 46.9274C209.355 46.0185 207.52 45.4967 205.568 45.4967C199.996 45.4967 195.401 49.7046 194.778 55.1245C190.133 56.3532 186.682 60.578 186.682 65.6108C186.682 65.6108 186.682 65.6444 186.682 65.6613C186.682 68.1692 188.853 70.1385 191.378 70.1385H342.63L342.596 70.1217Z" fill="white"/>
<path d="M175.203 335.922C171.382 329.593 164.296 325.116 155.998 324.375C156.57 322.338 156.873 320.218 156.873 318.013C156.873 303.941 144.317 292.529 128.831 292.529C115.298 292.529 103.987 301.248 101.362 312.862C99.3418 312.374 97.221 312.121 95.0329 312.121C91.6497 312.121 88.4347 312.744 85.4892 313.855C81.1129 307.543 73.3871 303.335 64.584 303.335C50.9502 303.335 39.8916 313.384 39.8916 325.789C39.8916 326.731 39.9589 327.674 40.0936 328.6C40.0262 328.6 39.9589 328.6 39.8916 328.6C31.9301 328.6 25.0795 332.858 21.8815 338.985C21.2418 338.935 20.6022 338.901 19.9458 338.901C8.92091 338.901 0 347.014 0 357.029C0 367.044 8.93774 375.157 19.9458 375.157C22.925 375.157 25.7528 374.551 28.2944 373.474C31.8965 378.153 37.8718 381.233 44.6382 381.233C47.6174 381.233 50.4452 380.627 52.9868 379.55C56.5888 384.229 62.5641 387.309 69.3305 387.309C76.4673 387.309 82.6951 383.893 86.2298 378.776C90.5219 385.492 98.5002 390.003 107.657 390.003C117.47 390.003 125.936 384.818 129.959 377.311C134.504 382.378 141.422 385.626 149.181 385.626C156.941 385.626 163.69 382.462 168.235 377.496C170.069 377.917 171.971 378.17 173.958 378.17C186.8 378.17 197.202 368.71 197.202 357.029C197.202 345.348 187.457 336.544 175.186 335.955L175.203 335.922Z" fill="white"/>
<path d="M236.943 145.983C233.677 145.983 230.53 146.471 227.55 147.38C222.854 135.396 211.223 126.896 197.59 126.896C186.699 126.896 177.088 132.316 171.264 140.597C167.393 138.947 163.118 138.022 158.641 138.022C145.899 138.022 134.924 145.444 129.707 156.166C128.646 156.015 127.552 155.897 126.441 155.897C114.154 155.897 104.189 165.862 104.189 178.149C104.189 189.157 112.201 198.28 122.705 200.064C126.121 207.975 133.982 213.513 143.138 213.513C148.407 213.513 153.238 211.678 157.042 208.615C160.846 211.678 165.693 213.513 170.945 213.513C175.658 213.513 180.017 212.048 183.602 209.557C189.258 214.489 196.63 217.502 204.726 217.502C213.277 217.502 221.036 214.135 226.793 208.699C229.974 209.759 233.374 210.348 236.909 210.348C254.683 210.348 269.108 195.94 269.108 178.149C269.108 160.358 254.7 145.949 236.909 145.949L236.943 145.983Z" fill="white"/>
<path d="M59.1977 160.61C61.7057 155.796 66.4859 149.131 75.3732 143.273C75.3732 143.273 82.7624 138.224 88.2496 133.999C88.2496 133.999 93.8377 139.116 94.6793 141.556C94.6793 141.556 89.4109 145.764 84.9673 151.588C82.5772 154.736 78.5544 164.38 72.882 170.995C69.785 174.614 64.2641 174.85 60.8809 171.483C57.9858 168.622 57.2957 164.212 59.1809 160.593L59.1977 160.61Z" fill="#114C97"/>
<path d="M98.1968 200.165C93.8205 197.505 79.7827 186.245 69.6163 179.243C69.6163 179.243 54.1309 168.201 59.3152 162.512C59.3152 162.512 63.1023 155.173 72.646 160.576C72.646 160.576 75.3728 162.175 80.658 165.222C83.8897 167.09 97.7592 172.325 103.65 178.115C106.865 181.279 111.612 190.621 108.262 193.668C105.401 196.277 101.479 202.134 98.1968 200.148V200.165Z" fill="#114C97"/>
<path d="M103.567 123.294C103.146 123.243 102.944 123.782 103.298 124.017C105.755 125.684 109.02 127.03 109.02 127.03C109.02 127.03 104.021 125.751 101.16 125.701C100.756 125.701 100.604 126.256 100.958 126.441C103.399 127.771 108.566 129.471 108.566 129.471C106.092 128.814 101.816 128.579 99.4262 128.511C98.9886 128.511 98.8539 129.117 99.2747 129.286C102.49 130.582 108.179 131.693 108.179 131.693C105.755 131.137 102.607 131.306 100.604 131.508C100.167 131.558 100.116 132.181 100.554 132.299C102.254 132.719 104.913 133.258 107.876 133.426L113.733 134.1C113.733 134.1 111.915 137.55 111.848 139.671C111.848 140.075 112.353 140.226 112.572 139.907C113.632 138.324 116.056 134.84 118.396 132.534C118.396 132.534 119.035 129.976 117.706 127.518C116.376 125.061 109.307 125.448 109.307 125.448C109.307 125.448 106.445 123.698 103.567 123.31V123.294Z" fill="#F1BF98"/>
<path d="M158.219 125.397C153.153 123.445 145.141 121.341 133.46 121.576C133.46 121.576 124.572 122.671 117.671 123.142C117.671 123.142 116.863 130.666 117.84 133.056C117.84 133.056 123.613 134.84 130.077 135.126C135.934 135.379 145.175 137.55 153.809 138.762C158.522 139.418 162.68 137.92 163 133.174L162.848 135.395C163 130.026 162.04 126.862 158.236 125.397H158.219Z" fill="#114C97"/>
<path d="M111.242 162.007C111.242 162.007 101.058 161.418 91.7335 152.497C83.772 144.889 73.1679 123.765 88.1819 112.504C88.1819 112.504 92.7097 105.586 102.422 105.014C102.422 105.014 105.586 105.586 106.394 106.041C106.394 106.041 114.019 102.186 120.667 104.223C120.667 104.223 134.284 108.919 135.9 129.858C135.9 129.858 134.419 146.858 125.818 151.302C117.217 155.746 121.778 152.85 120.247 155.729C118.715 158.607 114.709 167.41 111.242 161.99V162.007Z" fill="#2D2A2B"/>
<path d="M110.72 156.149C110.72 156.149 115.534 166.249 115.383 170.541C115.383 170.541 120.533 178.62 125.684 176.146C125.684 176.146 129.606 172.375 128.478 166.08C128.478 166.08 125.532 166.4 123.226 156.065C123.226 156.065 121.846 148.962 115.82 149.551C109.778 150.14 110.215 154.618 110.703 156.149H110.72Z" fill="#F9B28F"/>
<path d="M114.911 169.194L120.651 170.658L125.414 175.287L125.583 170.103L128.023 164.734L132.905 163.724L136.557 201.78L133.191 202.858L111.511 171.348L114.911 169.194Z" fill="#FFCB08"/>
<path d="M111.511 171.349C111.511 171.349 100.823 177.374 98.4663 179.68C96.1098 181.986 94.2415 189.022 96.5306 195.99C101.109 209.894 127.855 250.913 130.481 254.683L178.418 236.017C178.418 236.017 158.102 185.218 156.385 166.568C156.385 166.568 153.271 164.7 146.117 163.724C143.424 163.353 133.628 163.522 132.904 163.724C131.709 164.044 135.177 175.405 126.66 178.637C113.312 183.72 112.1 168.824 111.511 171.349Z" fill="#114C97"/>
<path d="M112.538 170.709C112.538 170.709 117.301 182.525 126.676 178.654C126.676 178.654 134.318 176.179 131.154 163.976C131.154 163.976 131.659 163.909 132.921 163.74C132.921 163.74 135.429 173.941 130.278 177.812C130.278 177.812 128.646 179.546 125.818 180.455C116.173 183.552 111.073 171.887 111.073 171.887C111.073 171.887 110.787 171.736 112.554 170.726L112.538 170.709Z" fill="#4D8BCA"/>
<path opacity="0.51" d="M111.494 157.614L112.201 159.819C112.201 159.819 116.679 165.357 124.674 161.098C124.674 161.098 122.89 155.813 123.31 153.793C123.731 151.773 119.254 150.141 116.342 151.083C113.43 152.026 111.528 153.305 111.494 157.631V157.614Z" fill="#E28160"/>
<path d="M100.251 151.571C100.251 151.571 105.351 159.28 116.729 159.179C116.729 159.179 132.366 159.044 134.84 146.757C135.126 145.36 134.924 143.912 134.672 142.498C134.436 141.202 134.032 139.284 133.426 137.297C132.349 133.763 132.416 129.555 131.945 127.013C131.945 127.013 129.521 105.62 109.727 109.441C109.727 109.441 87.509 114.49 96.3121 140.209C96.3121 140.209 97.2884 148.221 100.251 151.571Z" fill="#F1BF98"/>
<path d="M119.22 132.551C119.22 132.551 118.395 132.736 119.203 136.91C120.011 141.085 121.089 145.326 123.092 145.006C125.297 144.653 125.499 144.03 123.041 139.587C120.297 134.621 120.079 132.197 119.22 132.551Z" fill="#E28160"/>
<path d="M113.985 136.271C113.985 136.271 112.336 133.629 110.215 134.874C108.667 135.783 109.777 136.894 107.808 137.012C107.808 137.012 107.488 136.591 109.138 134.756C109.138 134.756 112.285 131.71 114.002 136.254L113.985 136.271Z" fill="#2D2A2B"/>
<path d="M115.012 129.724C115.012 129.724 115.955 130.784 112.858 131.171C110.35 131.491 106.327 133.073 105.519 133.595C105.519 133.595 104.56 133.057 107.808 131.138C107.808 131.138 115.012 127.738 115.012 129.707V129.724Z" fill="#2D2A2B"/>
<path d="M125.431 126.239C125.431 126.239 123.933 128.226 125.549 127.838C127.434 127.384 128.444 126.441 130.952 126.643C130.952 126.643 130.481 124.287 125.431 126.256V126.239Z" fill="#2D2A2B"/>
<path d="M125.97 132.989C125.97 132.989 125.734 130.834 128.562 129.841C128.815 129.757 129.168 129.757 129.438 129.774C129.841 129.807 129.656 129.807 130.464 129.74C130.464 129.74 130.7 129.807 129.421 129.033C129.101 128.848 128.596 128.865 128.242 128.966C127.3 129.252 125.903 129.791 125.97 132.989Z" fill="#2D2A2B"/>
<path d="M100.301 141.556C100.301 141.556 96.5308 133.224 91.1614 137.382C91.1614 137.382 85.3376 142.28 95.0664 150.107C95.0664 150.107 98.9041 153.12 103.466 150.544C103.466 150.544 104.863 148.979 100.301 141.556Z" fill="#F1BF98"/>
<path d="M99.3417 147.481L97.406 144.131C96.2446 142.347 94.898 139.856 92.5416 140.159C92.1544 140.227 91.7504 140.479 91.6326 141.001C91.4643 141.523 91.5821 142.179 91.7 142.819C91.2792 142.314 90.892 141.708 90.8415 140.933C90.69 139.116 93.0128 138.308 94.5277 138.846C97.9109 140.159 99.207 144.165 99.3417 147.481Z" fill="#E28160"/>
<path d="M96.5814 146.791C96.6824 145.006 96.2111 143.593 96.9012 141.859C98.6012 142.936 98.7695 146.269 96.5814 146.791Z" fill="#E28160"/>
<path opacity="0.31" d="M97.8647 147.806C99.0239 146.966 98.6503 144.473 97.0302 142.237C95.4101 140.001 93.1571 138.87 91.9979 139.71C90.8387 140.55 91.2123 143.044 92.8324 145.279C94.4525 147.515 96.7055 148.646 97.8647 147.806Z" fill="#E28160"/>
<path d="M142.381 173.217C142.381 173.217 140.9 169.278 138.947 165.912" stroke="#114C97" stroke-width="0.5" stroke-miterlimit="10"/>
<path d="M150.359 174.26C150.359 174.26 148.743 170.844 147.279 167.713" stroke="#114C97" stroke-width="0.5" stroke-miterlimit="10"/>
<path d="M100.554 143.475C100.554 143.475 97.4903 134.605 98.0794 128.932C98.0794 128.932 97.524 127.283 99.9815 126.727C102.439 126.172 120.281 124.808 123.108 116.493C126.795 105.637 121.392 98.618 108.381 102.035C108.381 102.035 97.1537 105.772 106.024 110.249C106.024 110.249 95.5378 114.995 91.0774 120.954C83.9743 130.447 96.0091 134.167 100.571 143.475H100.554Z" fill="#2D2A2B"/>
<path d="M119.759 116.241C119.759 116.241 130.228 115.349 132.349 130.649C134.015 142.667 133.309 109.441 118.884 108.936C104.459 108.431 119.742 116.241 119.742 116.241H119.759Z" fill="#2D2A2B"/>
<path d="M99.4597 116.712C102.961 115.871 113.918 113.952 112.858 109.054C111.511 105.991 107.169 101.648 103.954 104.846C102.759 105.957 102.776 107.741 104.358 108.482C106.428 109.441 107.135 107.842 106.394 106.041C106.731 106.765 107.101 107.657 106.63 108.482C106.075 109.306 104.93 109.222 104.173 108.886C100.958 107.489 102.944 103.499 105.738 103.045C109.374 102.506 112.252 105.839 113.582 108.835C114.878 114.609 103.398 116.191 99.4429 116.712H99.4597Z" fill="#7B787A"/>
<path d="M116.157 146.572C116.157 146.572 118.379 148.525 123.748 148.289C123.748 148.289 117.689 153.524 116.157 146.572Z" fill="#FFFFFD"/>
<path d="M118.547 178.132C118.547 178.132 118.48 176.011 118.429 173.587C118.379 171.164 120.668 170.659 120.668 170.659C120.668 170.659 125.145 174.412 125.431 175.287" stroke="#FFFFFD" stroke-width="0.5" stroke-miterlimit="10"/>
<path d="M131.137 173.419C131.137 173.419 130.43 173.183 129.067 171.197C127.703 169.211 125.532 170.137 125.532 170.137C125.532 170.137 125.818 173.268 125.414 175.271C125.01 177.274 126.66 178.637 126.66 178.637" stroke="#FFFFFD" stroke-width="0.5" stroke-miterlimit="10"/>
<path d="M156.402 166.568C157.934 161.687 158.556 156.739 161.552 144.754C161.552 144.754 165.861 126.239 158.22 125.398C158.22 125.398 150.528 122.385 146.942 132.77C146.942 132.77 145.949 135.766 144.014 141.556C142.819 145.091 140.799 155.931 140.21 164.161C139.89 168.672 143.458 172.561 147.986 172.628C151.857 172.695 155.274 170.238 156.419 166.568H156.402Z" fill="#114C97"/>
<path d="M241.032 349.481L242.194 369.696L295.77 361.869C297.402 361.634 297.79 359.445 296.342 358.671C290.552 355.591 279.039 350.71 263.655 350.205L255.946 345.273L241.032 349.481Z" fill="#114C97"/>
<path d="M272.188 350.945L269.68 359.378L272.424 360.186L275.033 351.4C275.033 351.4 274.679 351.248 272.171 350.928L272.188 350.945Z" fill="#FFCB08"/>
<path d="M268.62 350.524L266.095 359.025L262.998 358.099L266.011 350.323L268.62 350.524Z" fill="#FFCB08"/>
<path d="M182.424 374.728L200.013 384.777L169.161 429.264C168.218 430.61 166.097 429.987 166.047 428.355C165.861 421.79 166.619 409.318 173.015 395.331L172.022 386.241L182.424 374.745V374.728Z" fill="#114C97"/>
<path d="M169.884 403.292L178.552 404.807L178.064 407.635L169.042 406.052C169.042 406.052 169.076 405.665 169.901 403.292H169.884Z" fill="#FFCB08"/>
<path d="M171.096 399.892L179.832 401.424L180.387 398.226L172.072 397.468L171.096 399.892Z" fill="#FFCB08"/>
<path d="M130.498 254.683L162.764 392.519L194.291 374.593L163.505 269.411L170.844 262.038L233.593 359.529L263.234 340.812L178.435 236.016L130.498 254.683Z" fill="#FFCB08"/>
<path d="M138.948 251.385L142.381 269.428L136.557 275.168" stroke="#FFFFFD" stroke-width="0.5" stroke-miterlimit="10"/>
<path d="M170.742 239.012L178.435 251.384L188.365 248.287" stroke="#FFFFFD" stroke-width="0.5" stroke-miterlimit="10"/>
<path d="M164.784 262.039L157.277 244.248L154.837 245.19L162.764 265.742L164.784 262.039Z" stroke="#FFFFFD" stroke-width="0.5" stroke-miterlimit="10"/>
<defs>
<linearGradient id="paint0_linear_1049_40743" x1="171.5" y1="0" x2="171.5" y2="437" gradientUnits="userSpaceOnUse">
<stop stop-color="#BCD9FF"/>
<stop offset="1" stop-color="#D9D9D9" stop-opacity="0"/>
</linearGradient>
</defs>
</svg>
