<svg width="17" height="20" viewBox="0 0 17 20" fill="none" xmlns="http://www.w3.org/2000/svg">
<path fill-rule="evenodd" clip-rule="evenodd" d="M12.75 2.81251V3.02689C13.9768 3.13908 15.1987 3.3004 16.4125 3.51045C16.5042 3.52632 16.5918 3.5601 16.6704 3.60984C16.749 3.65958 16.8171 3.72432 16.8707 3.80035C16.9242 3.87639 16.9623 3.96223 16.9827 4.05299C17.0031 4.14374 17.0055 4.23763 16.9896 4.32928C16.9737 4.42094 16.94 4.50857 16.8902 4.58717C16.8405 4.66577 16.7757 4.73381 16.6997 4.7874C16.6237 4.84098 16.5378 4.87906 16.4471 4.89947C16.3563 4.91988 16.2624 4.92221 16.1708 4.90634L15.9734 4.87328L15.0242 17.2172C14.9695 17.9289 14.6481 18.5937 14.1244 19.0787C13.6007 19.5638 12.9132 19.8332 12.1994 19.8333H4.80156C4.08774 19.8332 3.40025 19.5638 2.87652 19.0787C2.3528 18.5937 2.03145 17.9289 1.97673 17.2172L1.02662 4.87328L0.829228 4.90634C0.737573 4.92221 0.643688 4.91988 0.552934 4.89947C0.46218 4.87906 0.376335 4.84098 0.300299 4.7874C0.146738 4.67918 0.0424567 4.51439 0.010395 4.32928C-0.0216667 4.14418 0.021118 3.95391 0.129337 3.80035C0.237556 3.64679 0.402344 3.54251 0.58745 3.51045C1.80131 3.30014 3.02315 3.13883 4.25 3.02689V2.81251C4.25 1.33539 5.39561 0.0736175 6.90956 0.0254508C7.9699 -0.00848361 9.03105 -0.00848361 10.0914 0.0254508C11.6053 0.0736175 12.75 1.33539 12.75 2.81251ZM6.95489 1.44117C7.98502 1.40823 9.01593 1.40823 10.0461 1.44117C10.7572 1.46384 11.3333 2.06262 11.3333 2.81251V2.91923C9.44618 2.80462 7.55382 2.80462 5.66667 2.91923V2.81251C5.66667 2.06262 6.24184 1.46384 6.95489 1.44117ZM6.61961 7.05589C6.61602 6.96287 6.59413 6.87147 6.55521 6.78691C6.51629 6.70235 6.4611 6.62628 6.39278 6.56305C6.32446 6.49981 6.24436 6.45066 6.15704 6.41838C6.06973 6.38611 5.97691 6.37135 5.88389 6.37495C5.79087 6.37854 5.69947 6.40043 5.61491 6.43935C5.53035 6.47827 5.45428 6.53346 5.39105 6.60178C5.32782 6.6701 5.27866 6.7502 5.24638 6.83752C5.21411 6.92483 5.19935 7.01765 5.20295 7.11067L5.53067 15.6107C5.53793 15.7984 5.61948 15.9756 5.75736 16.1032C5.82564 16.1664 5.90569 16.2155 5.99295 16.2477C6.08021 16.28 6.17296 16.2947 6.26592 16.2911C6.35888 16.2875 6.45022 16.2657 6.53472 16.2268C6.61923 16.1879 6.69524 16.1327 6.75843 16.0644C6.82162 15.9962 6.87074 15.9161 6.90299 15.8289C6.93524 15.7416 6.94999 15.6488 6.94639 15.5559L6.61961 7.05589ZM11.7952 7.11067C11.8021 7.01586 11.7899 6.92063 11.7592 6.83065C11.7286 6.74067 11.6801 6.65778 11.6167 6.58692C11.5534 6.51606 11.4764 6.45868 11.3904 6.41819C11.3044 6.37771 11.2111 6.35495 11.1161 6.35127C11.0211 6.34759 10.9264 6.36307 10.8375 6.39678C10.7486 6.4305 10.6674 6.48176 10.5988 6.54751C10.5301 6.61326 10.4754 6.69215 10.4379 6.77949C10.4004 6.86683 10.3808 6.96083 10.3804 7.05589L10.0527 15.5559C10.0454 15.7437 10.1131 15.9268 10.2408 16.0648C10.3685 16.2028 10.5457 16.2843 10.7336 16.2916C10.9215 16.2989 11.1045 16.2312 11.2425 16.1035C11.3805 15.9758 11.4621 15.7985 11.4693 15.6107L11.7952 7.11067Z" fill="url(#paint0_linear_2798_4994)"/>
<defs>
<linearGradient id="paint0_linear_2798_4994" x1="8.5" y1="0" x2="8.5" y2="19.8333" gradientUnits="userSpaceOnUse">
<stop stop-color="#4D89D4"/>
<stop offset="1" stop-color="#216BC9"/>
</linearGradient>
</defs>
</svg>
