<svg width="16" height="16" viewBox="0 0 16 16" fill="none" xmlns="http://www.w3.org/2000/svg">
<path d="M15.4499 14.3846L12.667 11.6242C13.7472 10.2772 14.2703 8.56763 14.1288 6.84684C13.9873 5.12606 13.1918 3.52491 11.906 2.37261C10.6201 1.22032 8.94169 0.60447 7.21574 0.651699C5.48979 0.698927 3.84754 1.40564 2.62665 2.62653C1.40576 3.84741 0.699049 5.48967 0.651821 7.21562C0.604593 8.94157 1.22044 10.62 2.37273 11.9058C3.52503 13.1917 5.12618 13.9871 6.84696 14.1287C8.56775 14.2702 10.2774 13.7471 11.6243 12.6668L14.3847 15.4273C14.4545 15.4976 14.5374 15.5534 14.6288 15.5915C14.7203 15.6296 14.8183 15.6492 14.9173 15.6492C15.0163 15.6492 15.1144 15.6296 15.2058 15.5915C15.2972 15.5534 15.3802 15.4976 15.4499 15.4273C15.5851 15.2874 15.6607 15.1005 15.6607 14.9059C15.6607 14.7114 15.5851 14.5245 15.4499 14.3846ZM7.41608 12.6668C6.37756 12.6668 5.36236 12.3589 4.49886 11.7819C3.63536 11.2049 2.96234 10.3849 2.56492 9.42538C2.16749 8.46591 2.06351 7.41014 2.26611 6.39157C2.46872 5.373 2.96881 4.43739 3.70316 3.70304C4.43751 2.96869 5.37312 2.4686 6.39169 2.26599C7.41026 2.06338 8.46603 2.16737 9.4255 2.56479C10.385 2.96222 11.205 3.63524 11.782 4.49874C12.359 5.36224 12.667 6.37744 12.667 7.41596C12.667 8.80858 12.1137 10.1442 11.129 11.1289C10.1443 12.1136 8.8087 12.6668 7.41608 12.6668Z" fill="#FFCA08"/>
</svg>
